<?xml version="1.0" encoding="utf-8"?>
<!-- Generator: Adobe Illustrator 16.0.0, SVG Export Plug-In . SVG Version: 6.00 Build 0)  -->
<!DOCTYPE svg PUBLIC "-//W3C//DTD SVG 1.1//EN" "http://www.w3.org/Graphics/SVG/1.1/DTD/svg11.dtd">
<svg version="1.1" id="Layer_1" xmlns="http://www.w3.org/2000/svg" xmlns:xlink="http://www.w3.org/1999/xlink" x="0px" y="0px"
	 width="193.667px" height="40px" viewBox="0 0 193.667 40" enable-background="new 0 0 193.667 40" xml:space="preserve">
<g>
	<path fill="#020202" d="M13.699,19.335v-0.757l2.085-0.379l-0.758-2.844l-1.137-3.412H7.822l-1.328,3.223L5.737,18.01l2.274,0.377
		v0.759H1.755v-0.759L4.03,18.01l1.327-2.844L10.854,0h1.327l5.308,15.166l1.327,2.844l2.085,0.377v0.759h-7.204V19.335z
		 M10.854,2.844l-2.654,7.772h5.498L10.854,2.844z"/>
	<polygon fill="#020202" points="39.481,4.739 38.913,1.705 36.069,1.516 33.793,1.516 33.793,15.166 33.983,18.01 36.447,18.388 
		36.447,19.335 28.864,19.335 28.864,18.388 31.33,18.01 31.519,15.166 31.519,1.516 29.244,1.516 26.4,1.705 25.642,4.739 
		24.504,4.739 24.884,0.378 40.429,0.378 40.618,4.739 	"/>
	<polygon fill="#020202" points="61.472,4.739 60.904,1.705 58.06,1.516 55.785,1.516 55.785,15.166 55.974,18.01 58.439,18.388 
		58.439,19.335 50.855,19.335 50.855,18.388 53.32,18.01 53.699,15.166 53.699,1.516 51.235,1.516 48.392,1.705 47.822,4.739 
		46.685,4.739 46.874,0.378 62.42,0.378 62.61,4.739 	"/>
	<polygon fill="#020202" points="82.894,19.335 69.245,19.335 69.245,18.388 71.708,18.01 71.898,15.166 71.898,4.549 71.708,1.516 
		69.245,1.136 69.245,0.378 82.516,0.378 82.706,5.117 81.567,5.117 80.998,1.896 78.344,1.516 73.984,1.516 73.984,8.909 
		76.448,8.909 78.724,8.72 79.103,6.256 80.05,6.256 80.05,12.891 79.103,12.891 78.724,10.427 76.448,10.047 73.984,10.047 
		73.984,15.166 74.363,17.63 76.638,18.199 78.914,18.199 81.378,17.63 82.136,14.787 83.273,14.787 	"/>
	<polygon fill="#020202" points="106.971,1.516 106.591,4.549 106.591,19.715 105.075,19.715 102.231,15.166 94.269,2.844 
		94.269,15.166 94.458,18.01 96.923,18.578 96.923,19.335 90.477,19.335 90.477,18.578 92.752,18.01 93.132,15.166 93.132,4.549 
		92.752,1.516 90.477,1.136 90.477,0.378 95.406,0.378 97.682,4.549 105.455,16.303 105.455,4.549 105.264,1.516 102.799,1.136 
		102.799,0.378 109.435,0.378 109.435,1.136 	"/>
	<polygon fill="#020202" points="130.856,4.739 130.289,1.705 127.445,1.516 124.98,1.516 124.98,15.166 125.36,18.01 
		127.824,18.388 127.824,19.335 120.241,19.335 120.241,18.388 122.705,18.01 122.896,15.166 122.896,1.516 120.621,1.516 
		117.586,1.705 117.018,4.739 115.882,4.739 116.26,0.378 131.616,0.378 131.996,4.739 	"/>
	<polygon fill="#020202" points="138.63,19.335 138.63,18.388 140.905,18.01 141.284,15.166 141.284,4.549 140.905,1.516 
		138.63,1.136 138.63,0.378 146.023,0.378 146.023,1.136 143.75,1.516 143.37,4.549 143.37,15.166 143.75,18.01 146.023,18.388 
		146.023,19.335 	"/>
	<polygon fill="#020202" points="169.152,1.516 167.824,4.549 164.224,15.166 162.896,19.715 161.189,19.715 159.673,15.166 
		155.882,4.549 154.745,1.516 152.47,1.136 152.47,0.378 159.484,0.378 159.484,1.136 157.397,1.516 158.156,4.549 162.517,16.872 
		166.499,4.549 167.256,1.516 164.792,1.136 164.792,0.378 171.427,0.378 171.427,1.136 	"/>
	<polygon fill="#020202" points="191.521,19.335 177.873,19.335 177.873,18.388 180.147,18.01 180.527,15.166 180.527,4.549 
		180.147,1.516 177.873,1.136 177.873,0.378 190.953,0.378 191.333,5.117 190.196,5.117 189.625,1.896 186.782,1.516 182.613,1.516 
		182.613,8.909 184.887,8.909 187.353,8.72 187.542,6.256 188.489,6.256 188.489,12.891 187.542,12.891 187.353,10.427 
		184.887,10.047 182.613,10.047 182.613,15.166 182.99,17.63 185.266,18.199 187.542,18.199 190.005,17.63 190.574,14.787 
		191.712,14.787 	"/>
	<polygon fill="#020202" points="48.959,40 48.012,40 48.012,25.971 48.959,25.971 48.959,32.417 55.216,32.417 55.216,25.971 
		56.165,25.971 56.165,40 55.216,40 55.216,33.365 48.959,33.365 	"/>
	<polygon fill="#020202" points="73.984,26.919 68.487,26.919 68.487,32.417 73.227,32.417 73.227,33.365 68.487,33.365 
		68.487,39.052 74.174,39.052 74.174,40 67.539,40 67.539,25.971 73.984,25.971 	"/>
	<path fill="#020202" d="M93.7,40h-1.137l-1.326-4.551h-4.551L85.359,40h-1.138l4.171-14.218h1.137L93.7,40z M88.961,27.298
		l-2.086,7.204h4.171L88.961,27.298L88.961,27.298z"/>
	<polygon fill="#020202" points="105.264,25.971 105.264,39.052 110.951,39.052 110.951,40 104.316,40 104.316,25.971 	"/>
	<polygon fill="#020202" points="119.104,26.919 119.104,25.971 126.876,25.971 126.876,26.919 123.464,26.919 123.464,40 
		122.516,40 122.516,26.919 	"/>
	<polygon fill="#020202" points="138.44,40 137.492,40 137.492,25.971 138.44,25.971 138.44,32.417 144.507,32.417 144.507,25.971 
		145.454,25.971 145.454,40 144.507,40 144.507,33.365 138.44,33.365 	"/>
</g>
</svg>
