<?xml version="1.0" encoding="utf-8"?>
<!-- Generator: Adobe Illustrator 16.0.0, SVG Export Plug-In . SVG Version: 6.00 Build 0)  -->
<!DOCTYPE svg PUBLIC "-//W3C//DTD SVG 1.1//EN" "http://www.w3.org/Graphics/SVG/1.1/DTD/svg11.dtd">
<svg version="1.1" id="Layer_1" xmlns="http://www.w3.org/2000/svg" xmlns:xlink="http://www.w3.org/1999/xlink" x="0px" y="0px"
	 width="168.333px" height="40px" viewBox="0 0 168.333 40" enable-background="new 0 0 168.333 40" xml:space="preserve">
<g>
	<path fill="#020202" d="M14.87,19.446v-0.631l1.737-0.316l-0.632-2.37l-0.948-2.843H9.973l-1.106,2.686l-0.632,2.37l1.895,0.314
		v0.632H4.917v-0.632l1.896-0.314l1.105-2.37L12.5,3.333h1.106l4.423,12.639l1.106,2.37l1.738,0.314v0.632H14.87V19.446z
		 M12.5,5.703l-2.211,6.477h4.582L12.5,5.703z"/>
	<polygon fill="#020202" points="36.355,7.282 35.882,4.754 33.512,4.597 31.616,4.597 31.616,15.972 31.774,18.342 33.828,18.656 
		33.828,19.446 27.508,19.446 27.508,18.656 29.562,18.342 29.721,15.972 29.721,4.597 27.824,4.597 25.455,4.754 24.823,7.282 
		23.875,7.282 24.191,3.648 37.146,3.648 37.303,7.282 	"/>
	<polygon fill="#020202" points="54.682,7.282 54.208,4.754 51.838,4.597 49.942,4.597 49.942,15.972 50.1,18.342 52.154,18.656 
		52.154,19.446 45.834,19.446 45.834,18.656 47.889,18.342 48.205,15.972 48.205,4.597 46.151,4.597 43.781,4.754 43.307,7.282 
		42.359,7.282 42.517,3.648 55.472,3.648 55.63,7.282 	"/>
	<polygon fill="#020202" points="72.534,19.446 61.159,19.446 61.159,18.656 63.212,18.342 63.371,15.972 63.371,7.124 
		63.212,4.597 61.159,4.28 61.159,3.648 72.219,3.648 72.377,7.598 71.428,7.598 70.954,4.913 68.742,4.597 65.109,4.597 
		65.109,10.757 67.162,10.757 69.059,10.6 69.375,8.546 70.164,8.546 70.164,14.075 69.375,14.075 69.059,12.022 67.162,11.706 
		65.109,11.706 65.109,15.972 65.425,18.025 67.321,18.499 69.217,18.499 71.271,18.025 71.902,15.655 72.85,15.655 	"/>
	<polygon fill="#020202" points="92.598,4.597 92.282,7.124 92.282,19.762 91.018,19.762 88.649,15.972 82.013,5.703 82.013,15.972 
		82.171,18.342 84.225,18.815 84.225,19.446 78.853,19.446 78.853,18.815 80.75,18.342 81.065,15.972 81.065,7.124 80.75,4.597 
		78.853,4.28 78.853,3.648 82.961,3.648 84.857,7.124 91.334,16.919 91.334,7.124 91.176,4.597 89.122,4.28 89.122,3.648 
		94.652,3.648 94.652,4.28 	"/>
	<polygon fill="#020202" points="112.503,7.282 112.03,4.754 109.66,4.597 107.606,4.597 107.606,15.972 107.923,18.342 
		109.977,18.656 109.977,19.446 103.657,19.446 103.657,18.656 105.71,18.342 105.87,15.972 105.87,4.597 103.973,4.597 
		101.445,4.754 100.971,7.282 100.024,7.282 100.339,3.648 113.136,3.648 113.453,7.282 	"/>
	<polygon fill="#020202" points="118.982,19.446 118.982,18.656 120.877,18.342 121.193,15.972 121.193,7.124 120.877,4.597 
		118.982,4.28 118.982,3.648 125.142,3.648 125.142,4.28 123.248,4.597 122.932,7.124 122.932,15.972 123.248,18.342 
		125.142,18.656 125.142,19.446 	"/>
	<polygon fill="#020202" points="144.417,4.597 143.311,7.124 140.31,15.972 139.204,19.762 137.781,19.762 136.518,15.972 
		133.358,7.124 132.411,4.597 130.515,4.28 130.515,3.648 136.36,3.648 136.36,4.28 134.621,4.597 135.253,7.124 138.887,17.393 
		142.206,7.124 142.837,4.597 140.784,4.28 140.784,3.648 146.312,3.648 146.312,4.28 	"/>
	<polygon fill="#020202" points="163.059,19.446 151.685,19.446 151.685,18.656 153.58,18.342 153.896,15.972 153.896,7.124 
		153.58,4.597 151.685,4.28 151.685,3.648 162.585,3.648 162.901,7.598 161.954,7.598 161.479,4.913 159.109,4.597 155.635,4.597 
		155.635,10.757 157.529,10.757 159.584,10.6 159.742,8.546 160.532,8.546 160.532,14.075 159.742,14.075 159.584,12.022 
		157.529,11.706 155.635,11.706 155.635,15.972 155.949,18.025 157.846,18.499 159.742,18.499 161.795,18.025 162.269,15.655 
		163.217,15.655 	"/>
	<polygon fill="#020202" points="44.254,36.667 43.465,36.667 43.465,24.976 44.254,24.976 44.254,30.348 49.469,30.348 
		49.469,24.976 50.259,24.976 50.259,36.667 49.469,36.667 49.469,31.138 44.254,31.138 	"/>
	<polygon fill="#020202" points="65.109,25.766 60.528,25.766 60.528,30.348 64.478,30.348 64.478,31.138 60.528,31.138 
		60.528,35.877 65.267,35.877 65.267,36.667 59.738,36.667 59.738,24.976 65.109,24.976 	"/>
	<path fill="#020202" d="M81.539,36.667h-0.947l-1.105-3.792h-3.793l-1.105,3.792H73.64l3.477-11.849h0.947L81.539,36.667z
		 M77.59,26.082l-1.738,6.003h3.476L77.59,26.082L77.59,26.082z"/>
	<polygon fill="#020202" points="91.176,24.976 91.176,35.877 95.915,35.877 95.915,36.667 90.386,36.667 90.386,24.976 	"/>
	<polygon fill="#020202" points="102.709,25.766 102.709,24.976 109.186,24.976 109.186,25.766 106.343,25.766 106.343,36.667 
		105.553,36.667 105.553,25.766 	"/>
	<polygon fill="#020202" points="118.823,36.667 118.033,36.667 118.033,24.976 118.823,24.976 118.823,30.348 123.879,30.348 
		123.879,24.976 124.668,24.976 124.668,36.667 123.879,36.667 123.879,31.138 118.823,31.138 	"/>
</g>
</svg>
