<?xml version="1.0" encoding="utf-8"?>
<!-- Generator: Adobe Illustrator 16.0.0, SVG Export Plug-In . SVG Version: 6.00 Build 0)  -->
<!DOCTYPE svg PUBLIC "-//W3C//DTD SVG 1.1//EN" "http://www.w3.org/Graphics/SVG/1.1/DTD/svg11.dtd">
<svg version="1.1" id="Layer_1" xmlns="http://www.w3.org/2000/svg" xmlns:xlink="http://www.w3.org/1999/xlink" x="0px" y="0px"
	 width="111px" height="123px" viewBox="0 0 111 123" enable-background="new 0 0 111 123" xml:space="preserve">
<path fill="#FFFFFF" stroke="#FFFFFF" stroke-width="0.25" stroke-miterlimit="10" d="M10.8,106.1V105.7l1.1-0.2l-0.4-1.5l-0.6-1.8
	H7.7L7,103.9l-0.4,1.5l1.2,0.199v0.4H4.5v-0.4l1.2-0.199l0.7-1.5l2.9-8H10l2.8,8l0.7,1.5l1.1,0.199v0.4h-3.8V106.1z M9.3,97.4
	l-1.4,4.1h2.9L9.3,97.4z"/>
<polygon fill="#FFFFFF" stroke="#FFFFFF" stroke-width="0.25" stroke-miterlimit="10" points="24.4,98.4 24.1,96.8 22.6,96.7 
	21.4,96.7 21.4,103.9 21.5,105.4 22.8,105.6 22.8,106.1 18.8,106.1 18.8,105.6 20.1,105.4 20.2,103.9 20.2,96.7 19,96.7 17.5,96.8 
	17.1,98.4 16.5,98.4 16.7,96.1 24.9,96.1 25,98.4 "/>
<polygon fill="#FFFFFF" stroke="#FFFFFF" stroke-width="0.25" stroke-miterlimit="10" points="36,98.4 35.7,96.8 34.2,96.7 33,96.7 
	33,103.9 33.1,105.4 34.4,105.6 34.4,106.1 30.4,106.1 30.4,105.6 31.7,105.4 31.9,103.9 31.9,96.7 30.6,96.7 29.1,96.8 28.8,98.4 
	28.2,98.4 28.3,96.1 36.5,96.1 36.6,98.4 "/>
<polygon fill="#FFFFFF" stroke="#FFFFFF" stroke-width="0.25" stroke-miterlimit="10" points="47.3,106.1 40.1,106.1 40.1,105.6 
	41.4,105.4 41.5,103.9 41.5,98.3 41.4,96.7 40.1,96.5 40.1,96.1 47.1,96.1 47.2,98.6 46.6,98.6 46.3,96.9 44.9,96.7 42.6,96.7 
	42.6,100.6 43.9,100.6 45.1,100.5 45.3,99.2 45.8,99.2 45.8,102.7 45.3,102.7 45.1,101.4 43.9,101.2 42.6,101.2 42.6,103.9 
	42.8,105.2 44,105.5 45.2,105.5 46.5,105.2 46.9,103.7 47.5,103.7 "/>
<polygon fill="#FFFFFF" stroke="#FFFFFF" stroke-width="0.25" stroke-miterlimit="10" points="60,96.7 59.8,98.3 59.8,106.3 
	59,106.3 57.5,103.9 53.3,97.4 53.3,103.9 53.4,105.4 54.7,105.7 54.7,106.1 51.3,106.1 51.3,105.7 52.5,105.4 52.7,103.9 
	52.7,98.3 52.5,96.7 51.3,96.5 51.3,96.1 53.9,96.1 55.1,98.3 59.2,104.5 59.2,98.3 59.1,96.7 57.8,96.5 57.8,96.1 61.3,96.1 
	61.3,96.5 "/>
<polygon fill="#FFFFFF" stroke="#FFFFFF" stroke-width="0.25" stroke-miterlimit="10" points="72.6,98.4 72.3,96.8 70.8,96.7 
	69.5,96.7 69.5,103.9 69.7,105.4 71,105.6 71,106.1 67,106.1 67,105.6 68.3,105.4 68.4,103.9 68.4,96.7 67.2,96.7 65.6,96.8 
	65.3,98.4 64.7,98.4 64.9,96.1 73,96.1 73.2,98.4 "/>
<polygon fill="#FFFFFF" stroke="#FFFFFF" stroke-width="0.25" stroke-miterlimit="10" points="76.7,106.1 76.7,105.6 77.9,105.4 
	78.1,103.9 78.1,98.3 77.9,96.7 76.7,96.5 76.7,96.1 80.6,96.1 80.6,96.5 79.4,96.7 79.2,98.3 79.2,103.9 79.4,105.4 80.6,105.6 
	80.6,106.1 "/>
<polygon fill="#FFFFFF" stroke="#FFFFFF" stroke-width="0.25" stroke-miterlimit="10" points="92.8,96.7 92.1,98.3 90.2,103.9 
	89.5,106.3 88.6,106.3 87.8,103.9 85.8,98.3 85.2,96.7 84,96.5 84,96.1 87.7,96.1 87.7,96.5 86.6,96.7 87,98.3 89.3,104.8 
	91.4,98.3 91.8,96.7 90.5,96.5 90.5,96.1 94,96.1 94,96.5 "/>
<polygon fill="#FFFFFF" stroke="#FFFFFF" stroke-width="0.25" stroke-miterlimit="10" points="104.6,106.1 97.4,106.1 97.4,105.6 
	98.6,105.4 98.8,103.9 98.8,98.3 98.6,96.7 97.4,96.5 97.4,96.1 104.3,96.1 104.5,98.6 103.9,98.6 103.6,96.9 102.1,96.7 99.9,96.7 
	99.9,100.6 101.1,100.6 102.4,100.5 102.5,99.2 103,99.2 103,102.7 102.5,102.7 102.4,101.4 101.1,101.2 99.9,101.2 99.9,103.9 
	100.1,105.2 101.3,105.5 102.5,105.5 103.8,105.2 104.1,103.7 104.7,103.7 "/>
<polygon fill="#FFFFFF" stroke="#FFFFFF" stroke-width="0.5" stroke-miterlimit="10" points="29.4,117 28.9,117 28.9,109.6 
	29.4,109.6 29.4,113 32.7,113 32.7,109.6 33.2,109.6 33.2,117 32.7,117 32.7,113.5 29.4,113.5 "/>
<polygon fill="#FFFFFF" stroke="#FFFFFF" stroke-width="0.5" stroke-miterlimit="10" points="42.6,110.1 39.7,110.1 39.7,113 
	42.2,113 42.2,113.5 39.7,113.5 39.7,116.5 42.7,116.5 42.7,117 39.2,117 39.2,109.6 42.6,109.6 "/>
<path fill="#FFFFFF" stroke="#FFFFFF" stroke-width="0.5" stroke-miterlimit="10" d="M53,117h-0.6l-0.7-2.4h-2.4l-0.7,2.4H48
	l2.2-7.5h0.6L53,117z M50.5,110.3l-1.1,3.8h2.2L50.5,110.3L50.5,110.3z"/>
<polygon fill="#FFFFFF" stroke="#FFFFFF" stroke-width="0.5" stroke-miterlimit="10" points="59.1,109.6 59.1,116.5 62.1,116.5 
	62.1,117 58.6,117 58.6,109.6 "/>
<polygon fill="#FFFFFF" stroke="#FFFFFF" stroke-width="0.5" stroke-miterlimit="10" points="66.4,110.1 66.4,109.6 70.5,109.6 
	70.5,110.1 68.7,110.1 68.7,117 68.2,117 68.2,110.1 "/>
<polygon fill="#FFFFFF" stroke="#FFFFFF" stroke-width="0.5" stroke-miterlimit="10" points="76.6,117 76.1,117 76.1,109.6 
	76.6,109.6 76.6,113 79.8,113 79.8,109.6 80.3,109.6 80.3,117 79.8,117 79.8,113.5 76.6,113.5 "/>
<g>
	<g>
		<path fill="#FFFFFF" stroke="#FFFFFF" stroke-width="0.5" stroke-miterlimit="10" d="M39.7,50.1c0,0.1,0,0.3,0,0.4
			C39.7,50.4,39.7,50.2,39.7,50.1"/>
		<path fill="#FFFFFF" stroke="#FFFFFF" stroke-width="0.5" stroke-miterlimit="10" d="M17.6,55.7v0.6
			C17.6,56.1,17.6,55.8,17.6,55.7"/>
		<path fill="#FFFFFF" stroke="#FFFFFF" stroke-width="0.5" stroke-miterlimit="10" d="M35.5,57.8c0.1,0,0.3,0,0.4,0
			C35.8,57.8,35.6,57.8,35.5,57.8"/>
		<path fill="#FFFFFF" stroke="#FFFFFF" stroke-width="0.5" stroke-miterlimit="10" d="M17.6,59.1c0,0.1,0,0.2,0,0.3
			C17.6,59.4,17.6,59.2,17.6,59.1"/>
		<path fill="#FFFFFF" stroke="#FFFFFF" stroke-width="0.5" stroke-miterlimit="10" d="M30.1,65.1h0.2C30.2,65.1,30.1,65,30.1,65.1"
			/>
		<path fill="#FFFFFF" stroke="#FFFFFF" stroke-width="0.5" stroke-miterlimit="10" d="M41,51.3l0.4-0.6v-0.1l0,0l0.3-0.4
			c0-0.2-0.1-0.3-0.1-0.5c0-0.2,0.1-0.4,0.2-0.6L41.5,49l0,0l0,0l-0.4-0.1V49c0.1,0.2,0.2,0.5,0.2,0.6c0,0.3-0.2,0.7-0.2,1
			C41.1,51,41.1,51.2,41,51.3"/>
		<path fill="#FFFFFF" stroke="#FFFFFF" stroke-width="0.5" stroke-miterlimit="10" d="M24.4,73.2c0.1,0.1,0.1,0.1,0.2,0.2
			l0.2-0.301c0,0,0,0-0.1-0.1c-0.1-0.1-0.3-0.3-0.4-0.4C24,72.2,23.6,71.9,23.3,71.4c0.5,0.3,0.9,0.699,1.4,1
			c0.1,0.1,0.1,0.199,0.2,0.399l0.3-0.399C25.1,72.3,25,72.3,24.9,72.2c-0.4-0.8-0.8-1.5-1-2.5c0.8,0.399,1.6,0.7,2.5,1l0,0l0.3-0.3
			c-0.2-0.801-0.3-1.7-0.3-2.7c0.7,0.2,1.4,0.3,2.1,0.3l0.2-0.3c-0.9,0-1.6-0.2-2.4-0.4c0-1,0.2-2,0.4-2.8c0.9,0.2,1.7,0.4,2.7,0.4
			C29.2,65.6,29.1,66.3,29.1,67.1l0.4-0.5c0.1-0.6,0.2-1.1,0.3-1.6H30h0.2c0.2,0,0.4,0,0.5,0l0.3-0.4c-0.4,0-0.7,0.101-1.1,0.101
			c0.3-1,0.7-1.8,1.1-2.601c0.1,0,0.2,0,0.3,0c0.6,0,1.2-0.1,1.7-0.2l0.3-0.4c-0.6,0.1-1.3,0.2-2.1,0.2c0.4-0.7,0.9-1.3,1.5-1.9
			c0.1-0.1,0.1-0.2,0.2-0.2h0.4c0.5,0,1-0.1,1.5-0.1l0.3-0.4c-0.2,0-0.3,0-0.5,0.1c-0.4,0.1-0.8,0.1-1.3,0.1c0-0.1,0.1-0.1,0.2-0.2
			c0.5-0.5,1.2-1,1.9-1.3c0.1,0,0.3,0,0.4,0c0.1,0,0.2,0,0.3,0l0.3-0.4c-0.1,0-0.2,0-0.3,0c0.1-0.1,0.3-0.1,0.4-0.2l0.4-0.5
			c-0.4,0.2-0.8,0.4-1.2,0.6c-0.2,0.1-0.3,0.2-0.5,0.2c-0.2,0-0.5,0-0.7,0c-0.7,0-1.3-0.2-1.9-0.3c0.3-0.2,0.7-0.4,1.1-0.5
			c0.4-0.2,0.8-0.4,1.2-0.4c0.2,0,0.7,0.1,1,0.2c0.3,0.1,0.6,0.1,0.9,0.1l0.2-0.3c-0.5,0-0.9-0.1-1.3-0.2c0.5-0.2,1-0.2,1.6-0.2
			l0.3-0.5c-0.7-0.2-1.3-0.5-1.8-0.7c0.4,0,0.8,0.1,1.2,0.1c0.3,0.1,0.7,0.1,0.9,0.2l0.2-0.3c-0.7-0.3-1.3-0.8-1.8-1.3
			c0.7,0.2,1.5,0.6,2.1,1l0.2-0.3c-0.6-0.5-1-1.1-1.4-1.8c0.5,0.4,1.1,0.8,1.5,1.2c0.1,0.1,0.1,0.1,0.2,0.2l0.2-0.3
			c-0.4-0.6-0.5-1.3-0.8-2c0.4,0.5,0.8,1,1.1,1.5l0.4-0.5c-0.1-0.5-0.2-1-0.2-1.5c0.2,0.3,0.3,0.7,0.5,1.1l0.2-0.3
			c-0.2-0.4-0.3-0.8-0.5-1.1c-0.1-0.2-0.2-0.3-0.2-0.5c-0.1-0.3,0-0.8,0.1-1.2l-0.3-0.1c0,0.2-0.1,0.4-0.1,0.7
			c-0.2-0.3-0.4-0.6-0.6-0.9l-0.5-0.1c0.4,0.5,0.8,1.1,1.1,1.7c0,0.1,0,0.3,0,0.4c0,0.6,0.1,1.1,0.1,1.6c-0.1,0-0.1-0.1-0.1-0.2
			c-0.2-0.4-0.5-0.7-0.9-1c-0.1-0.1-0.3-0.3-0.4-0.4c-0.2-0.3-0.2-0.8-0.2-1.2c0-0.3-0.1-0.7-0.1-1l-0.3-0.1c0,0.7,0.1,1.3,0.2,1.9
			c-0.6-0.5-1.3-1.1-2-1.5c-0.1-0.3-0.1-0.6-0.2-0.9L35,47.7c0,0.3,0.1,0.5,0.1,0.8c-0.8-0.4-1.6-0.7-2.5-1c0-0.1-0.1-0.3-0.1-0.4
			L32.1,47c0,0.1,0,0.3,0.1,0.4c-0.8-0.2-1.7-0.3-2.7-0.4c-0.1-0.3-0.1-0.5-0.2-0.8l0.2-0.2c0,0.3,0.1,0.6,0.2,0.9
			c-1,0-1.9,0.2-2.8,0.3c-0.1-0.6-0.3-1.3-0.3-2l-0.3-0.1c0,0.8,0.2,1.5,0.3,2.2c-1,0.2-1.8,0.6-2.6,1c-0.2-0.8-0.3-1.7-0.3-2.8
			c0.5-0.3,1-0.5,1.6-0.7l-0.5-0.1c-0.4,0.1-0.7,0.3-1,0.5c0-0.3,0-0.5,0-0.7l-0.3-0.1c0,0.3-0.1,0.7-0.1,1c-0.8,0.4-1.5,1-2.2,1.6
			c0.1-0.9,0.2-1.8,0.4-2.6c0.1-0.1,0.3-0.2,0.4-0.4l-0.6-0.2c0,0.1-0.1,0.2-0.1,0.4c-0.1,0.1-0.1,0.1-0.2,0.2
			c-0.3,0.4-0.6,0.7-0.9,1.1c0.2-0.6,0.5-1.2,0.9-1.8l-0.3-0.1c-0.4,0.7-0.8,1.4-1.1,2.3c-0.1,0.3-0.2,0.6-0.3,0.9
			c-0.8,1.6-1.5,3.3-1.6,5.5c0,1-0.5,2-0.4,3.1c0,0.1,0,0.2,0,0.3v0.6c0,0.1,0,0.2,0,0.3c0,1,0.2,1.7,0.4,2.6c0,0.1,0,0.2,0,0.3
			c0.1,2,0.6,3.6,1.2,5c0.1,0.2,0.2,0.4,0.3,0.6c0.1,0.301,0.2,0.601,0.2,0.801c0.4,1.3,1.1,2.5,1.8,3.5c0.3,0.399,0.7,0.699,1,1.1
			c0.3,0.4,0.5,0.9,0.9,1.3c0.3,0.4,0.7,0.8,1,1.2C24.2,73.1,24.3,73.1,24.4,73.2 M23.8,69.3c-0.2-0.8-0.3-1.7-0.4-2.7
			c0.8,0.4,1.6,0.801,2.5,1c0,0.101,0,0.2,0,0.301c0,0.899,0.1,1.699,0.3,2.399C25.4,70.1,24.6,69.8,23.8,69.3 M23.2,66.8
			c0,0.8,0.1,1.601,0.3,2.3c-0.6-0.3-1.1-0.699-1.6-1.199c-0.2-0.101-0.4-0.301-0.5-0.5C21.3,67.3,21.3,67,21.3,66.8
			c-0.1-0.6-0.2-1.2-0.2-2c0.1,0,0.2,0.101,0.2,0.101c0.5,0.5,1.2,1,1.9,1.399C23.2,66.5,23.1,66.6,23.2,66.8 M23.2,66
			c-0.8-0.5-1.5-1.1-2.1-1.7c0-1,0.1-1.899,0.4-2.7c0.1,0,0.2,0.1,0.2,0.2c0.6,0.5,1.3,1.101,2,1.5C23.3,64.1,23.2,65,23.2,66
			 M22.7,58.4c0.5-0.8,1.1-1.5,1.7-2.2c0.7,0.6,1.4,1.2,2.2,1.7c-0.6,0.7-1.2,1.4-1.7,2.2C24.1,59.6,23.4,59,22.7,58.4 M24.8,60.4
			C24.4,61.2,24,62,23.7,63c-0.8-0.5-1.6-1.1-2.2-1.7c0.3-0.9,0.6-1.7,1.1-2.5C23.2,59.3,23.9,59.9,24.8,60.4 M24.7,55.9
			c0.3-0.4,0.7-0.6,1-0.9c0.4-0.3,0.8-0.5,1.2-0.8c0.3,0.3,0.7,0.6,1,0.9c0.4,0.3,0.8,0.5,1.1,0.8c-0.8,0.5-1.5,1-2.2,1.6
			C26.1,57.2,25.4,56.6,24.7,55.9 M27,58.1c0.8,0.4,1.6,0.8,2.5,1.1l-0.1,0.2c-0.5,0.6-1.1,1.3-1.5,2c-1-0.2-1.8-0.7-2.6-1.1
			C25.7,59.4,26.3,58.7,27,58.1 M27.2,57.8c0.6-0.7,1.4-1.2,2.2-1.7c0.8,0.4,1.5,0.8,2.4,1.1c-0.7,0.5-1.5,1-2.1,1.7
			C28.8,58.6,28,58.3,27.2,57.8 M27.3,54.1c0.8-0.4,1.6-0.8,2.5-1c0.3,0.2,0.7,0.6,1,0.9c0.4,0.3,0.7,0.5,1.1,0.8
			c-0.9,0.3-1.7,0.6-2.4,1C28.6,55.3,27.9,54.7,27.3,54.1 M30.2,52.9c0.7-0.1,1.4-0.3,2.2-0.3c0.1,0,0.3,0,0.4,0
			c0.2,0,0.4,0.3,0.5,0.4c0.5,0.4,1,0.8,1.5,1.2c-0.9,0.1-1.7,0.2-2.5,0.4C31.6,54.1,30.8,53.6,30.2,52.9 M33.1,52.3
			c-0.2,0-0.3-0.3-0.5-0.5c-0.5-0.5-0.9-1-1.2-1.7c1,0,1.9,0.2,2.7,0.4c0.4,0.7,0.9,1.4,1.5,2c-0.6-0.1-1.1-0.2-1.8-0.2
			C33.5,52.3,33.3,52.4,33.1,52.3 M32.6,52.3c-0.7,0-1.4,0.1-2,0.2c-0.2,0-0.5,0.1-0.6,0.1s-0.4-0.4-0.5-0.5
			c-0.5-0.5-0.9-1.1-1.2-1.7c0.7-0.1,1.4-0.3,2.3-0.3c0.1,0,0.4,0,0.5,0C31.5,50.9,32.1,51.7,32.6,52.3 M29.5,52.8
			c-0.9,0.3-1.8,0.6-2.5,1c-0.7-0.6-1.2-1.4-1.7-2.2c0.8-0.4,1.6-0.8,2.6-1C28.4,51.3,28.9,52.1,29.5,52.8 M26.7,54
			c-0.8,0.5-1.5,1.1-2.2,1.7c-0.6-0.7-1.2-1.4-1.7-2.2c0.6-0.7,1.4-1.2,2.2-1.7C25.5,52.5,26.1,53.3,26.7,54 M24.2,55.9L24.2,55.9
			c-0.6,0.7-1.2,1.4-1.7,2.2c-0.6-0.6-1.2-1.4-1.7-2.2c0.5-0.8,1-1.5,1.7-2.2C23,54.5,23.6,55.2,24.2,55.9 M20.6,55.5
			c-0.3-0.6-0.5-1.2-0.8-1.8c-0.1-0.2-0.2-0.5-0.2-0.7c0-0.1,0.2-0.4,0.4-0.6c0.4-0.6,0.9-1.2,1.3-1.6l0,0c0.2,0.9,0.6,1.7,1,2.5
			C21.7,54,21.1,54.7,20.6,55.5 M20.4,55.9c-0.4,0.8-0.8,1.5-1.1,2.4c-0.3-0.5-0.6-1.1-0.8-1.8c-0.1-0.2-0.2-0.5-0.2-0.7
			c0-0.2,0.1-0.4,0.2-0.6c0.2-0.6,0.5-1.3,0.8-1.8C19.7,54.3,20,55.1,20.4,55.9 M20.6,56.2c0.5,0.8,1.1,1.5,1.7,2.2
			c-0.4,0.7-0.8,1.6-1.1,2.5c-0.7-0.6-1.2-1.4-1.6-2.2C19.9,57.8,20.2,57,20.6,56.2 M26,67.3c-0.9-0.3-1.8-0.7-2.6-1.1
			c0-1,0.1-1.9,0.4-2.7l0,0c0.8,0.4,1.6,0.8,2.5,1.1C26.2,65.4,26.1,66.3,26,67.3 M26.5,64.2c-1-0.3-1.8-0.601-2.6-1.101
			c0.2-0.699,0.5-1.399,0.8-2c0.1-0.2,0.2-0.4,0.4-0.6c0.7,0.5,1.6,0.8,2.5,1.1C27.2,62.4,26.8,63.3,26.5,64.2 M29.6,64.7
			c-1,0-1.9-0.2-2.8-0.4c0.3-1,0.6-1.8,1.1-2.6c0.8,0.2,1.7,0.399,2.7,0.399C30.3,63,29.9,63.8,29.6,64.7 M32.3,59.9
			c-0.5,0.6-1,1.2-1.4,1.9c-1,0-1.9-0.2-2.8-0.4c0.4-0.7,0.9-1.4,1.5-2c0.1-0.1,0.1-0.2,0.2-0.2c0.8,0.2,1.7,0.3,2.6,0.4
			C32.5,59.7,32.4,59.8,32.3,59.9 M34.8,57.8c-0.7,0.5-1.4,1-2,1.6c-1,0-1.9-0.1-2.7-0.4c0-0.1,0.1-0.2,0.2-0.2c0.6-0.5,1.3-1,2-1.4
			C33.1,57.6,33.9,57.7,34.8,57.8 M32.8,56.7c-0.2,0.1-0.4,0.3-0.5,0.3c-0.2,0-0.5-0.1-0.7-0.2c-0.6-0.2-1.3-0.5-1.8-0.9
			c0.8-0.4,1.6-0.7,2.5-1c0.7,0.3,1.5,0.8,2.3,1C34,56.2,33.4,56.4,32.8,56.7 M37.3,55.5c-0.6,0.1-1.1,0.1-1.6,0.2
			c-0.2,0-0.3,0.1-0.5,0.1c-0.4,0-0.9-0.3-1.3-0.4c-0.4-0.2-0.8-0.3-1.1-0.5c0.6-0.2,1.3-0.3,2.1-0.3c0.1,0,0.4,0,0.5,0
			C36,54.9,36.6,55.2,37.3,55.5 M37.6,54.4c-0.6-0.1-1.4-0.2-2.1-0.2c-0.7-0.5-1.5-1-2-1.6c1,0,1.8,0.2,2.6,0.4
			c0.1,0.1,0.2,0.2,0.2,0.2C36.7,53.7,37.1,54.1,37.6,54.4 M38.2,53.5c-0.6-0.3-1.3-0.5-2-0.7c-0.6-0.6-1.1-1.3-1.6-2.1
			c0.7,0.2,1.2,0.4,1.8,0.7c0.2,0.1,0.4,0.2,0.6,0.3c0.1,0.1,0.2,0.3,0.3,0.5C37.5,52.7,37.8,53.1,38.2,53.5 M38.3,50.7
			c0.2,0.7,0.4,1.4,0.7,2c-0.6-0.4-1.1-0.9-1.7-1.2c-0.4-0.8-0.8-1.5-1-2.4C37,49.6,37.6,50.1,38.3,50.7 M35.8,48.8
			c0.2,0.9,0.5,1.6,0.9,2.3c-0.7-0.4-1.5-0.7-2.3-0.9c-0.4-0.8-0.8-1.6-1-2.5C34.2,48,35,48.4,35.8,48.8 M32.9,47.6
			c0.2,0.9,0.6,1.8,1,2.5c-0.8-0.2-1.7-0.3-2.7-0.4c-0.4-0.8-0.8-1.6-1-2.6C31.2,47.2,32,47.4,32.9,47.6 M29.3,47.2
			c0.1,0,0.4,0,0.5,0c0.3,0.9,0.6,1.8,1,2.6c-1,0-1.9,0.2-2.7,0.4c-0.4-0.8-0.8-1.6-1-2.6C27.7,47.4,28.4,47.3,29.3,47.2 M26.7,47.7
			c0.3,0.9,0.6,1.8,1.1,2.6c-1,0.2-1.8,0.6-2.6,1c-0.4-0.8-0.8-1.6-1-2.6C24.8,48.2,25.7,47.9,26.7,47.7 M24.8,51.4
			c-0.8,0.5-1.6,1.1-2.2,1.7c-0.4-0.8-0.7-1.6-1-2.5c0.6-0.7,1.4-1.2,2.2-1.7C24.1,49.8,24.4,50.7,24.8,51.4 M21.2,47.4
			c0.6-0.6,1.3-1.2,2.1-1.6c0.1-0.1,0,0.1,0,0.2c0,0.9,0.2,1.8,0.3,2.6c-0.8,0.5-1.5,1-2.2,1.6c-0.1-0.7-0.3-1.3-0.3-2.1
			C21.2,47.9,21.2,47.6,21.2,47.4 M19.4,47.9c0.1-0.4,0.1-0.8,0.2-1.1c0.2-0.4,0.5-0.7,0.7-1c0.2-0.3,0.5-0.7,0.8-0.9
			c-0.2,0.7-0.3,1.5-0.3,2.4c-0.1,0.1-0.1,0.2-0.2,0.2c-0.5,0.5-0.9,1.1-1.3,1.7C19.3,48.8,19.4,48.3,19.4,47.9 M19.3,49.9
			c0-0.2,0.2-0.4,0.4-0.6c0.4-0.5,0.8-1.1,1.2-1.5c0,1,0.2,1.8,0.4,2.6c-0.6,0.7-1.2,1.3-1.7,2.1c-0.1-0.6-0.3-1.3-0.3-1.9
			C19.2,50.4,19.2,50.1,19.3,49.9 M19,48.1c0,0.3-0.1,0.9-0.1,1.3c0,0.1,0,0.3,0,0.4c-0.1,0.3-0.3,0.5-0.4,0.8
			c-0.1,0.3-0.3,0.6-0.4,0.9C18.2,50.2,18.6,49.1,19,48.1 M18,52.7c0.2-0.8,0.5-1.5,0.9-2.2c0.1,0.6,0.1,1.2,0.2,1.8
			c0,0.2,0.1,0.4,0.1,0.6c0,0.1-0.2,0.4-0.3,0.5c-0.3,0.5-0.5,1.1-0.7,1.7c-0.2-0.6-0.2-1.3-0.2-2C18,53.1,18,52.8,18,52.7
			 M17.7,57.6c-0.1-0.4-0.1-0.9-0.1-1.4c0-0.1,0-0.4,0-0.6c0-0.6,0.1-1,0.1-1.5c0.1,0.3,0.1,0.6,0.1,0.9c0.1,0.3,0.2,0.6,0.2,0.8
			c0,0.3-0.1,0.6-0.2,0.9C17.8,57,17.7,57.3,17.7,57.6 M18.2,56.5C18.3,56.5,18.3,56.5,18.2,56.5c0.3,0.8,0.6,1.6,1,2.2
			c-0.2,0.7-0.3,1.6-0.4,2.4c-0.2-0.3-0.3-0.7-0.5-1.1c-0.1-0.2-0.3-0.6-0.3-1C17.9,58.1,18.1,57.3,18.2,56.5 M18,60.3
			c0.2,0.6,0.5,1.1,0.7,1.6c0,0.1,0,0.3,0,0.4c0,0.5,0.1,0.9,0.1,1.3C18.5,62.7,18.2,61.6,18,60.3 M19.2,61.5c0-0.7,0.1-1.6,0.3-2.2
			c0.5,0.8,1,1.5,1.6,2.1c-0.2,0.8-0.4,1.6-0.4,2.6c-0.4-0.4-0.8-1-1.2-1.6c-0.1-0.2-0.3-0.4-0.4-0.601
			C19.1,61.7,19.1,61.6,19.2,61.5 M19.5,64.9c-0.1-0.301-0.2-0.801-0.2-1.2c-0.1-0.4-0.1-0.8-0.1-1.3c0.4,0.699,0.9,1.3,1.5,1.8
			c0.1,0,0.1,0.3,0.1,0.5c0,0.7,0.1,1.399,0.2,2.1C20.6,66.4,20.2,65.9,19.9,65.4C19.7,65.3,19.6,65.1,19.5,64.9 M19.9,66.2
			c0.4,0.5,0.7,0.899,1.2,1.3c0.1,0.6,0.4,1.1,0.5,1.7C20.9,68.4,20.4,67.3,19.9,66.2 M22.5,70.3c-0.2-0.3-0.4-0.7-0.5-1.1
			c-0.2-0.4-0.3-0.7-0.4-1.101c0.6,0.5,1.3,1,2,1.5c0.2,0.801,0.5,1.601,0.9,2.301c-0.4-0.2-0.7-0.4-1-0.7
			C23.1,70.9,22.7,70.6,22.5,70.3"/>
		<path fill="#FFFFFF" stroke="#FFFFFF" stroke-width="0.5" stroke-miterlimit="10" d="M21.1,44.4c0.1-0.1,0.1-0.1,0.2-0.2
			C21.2,44.3,21.2,44.3,21.1,44.4"/>
		<path fill="#FFFFFF" stroke="#FFFFFF" stroke-width="0.5" stroke-miterlimit="10" d="M20.6,47.5c0.1-0.1,0.1-0.2,0.2-0.2
			C20.8,47.4,20.7,47.5,20.6,47.5"/>
		<path fill="#FFFFFF" stroke="#FFFFFF" stroke-width="0.5" stroke-miterlimit="10" d="M23.3,45.8c0.1-0.1,0,0.1,0,0.2
			C23.3,46,23.4,45.9,23.3,45.8L23.3,45.8z"/>
		<path fill="#FFFFFF" stroke="#FFFFFF" stroke-width="0.5" stroke-miterlimit="10" d="M29.6,59.5c0.1-0.1,0.1-0.2,0.2-0.2
			C29.8,59.3,29.7,59.4,29.6,59.5"/>
		<path fill="#FFFFFF" stroke="#FFFFFF" stroke-width="0.5" stroke-miterlimit="10" d="M32.8,59.9c0.1-0.1,0.1-0.2,0.2-0.2l0,0
			C32.9,59.8,32.9,59.8,32.8,59.9"/>
		<path fill="#FFFFFF" stroke="#FFFFFF" stroke-width="0.5" stroke-miterlimit="10" d="M24.3,72.7c0.1,0.1,0.3,0.3,0.4,0.399
			C24.6,72.9,24.4,72.8,24.3,72.7"/>
		<path fill="#FFFFFF" stroke="#FFFFFF" stroke-width="0.5" stroke-miterlimit="10" d="M17.3,55.4c0,0.1,0,0.2,0,0.3V55.4L17.3,55.4
			z"/>
		<path fill="#FFFFFF" stroke="#FFFFFF" stroke-width="0.5" stroke-miterlimit="10" d="M17.2,56.3c0,0.1,0,0.2,0,0.3l0,0V56.3z"/>
		<path fill="#FFFFFF" stroke="#FFFFFF" stroke-width="0.5" stroke-miterlimit="10" d="M29.3,47.2c0.1,0,0.4,0,0.5,0H29.3z"/>
		<path fill="#FFFFFF" stroke="#FFFFFF" stroke-width="0.5" stroke-miterlimit="10" d="M30.5,50.1c0.1,0,0.4,0,0.5,0H30.5z"/>
		<path fill="#FFFFFF" stroke="#FFFFFF" stroke-width="0.5" stroke-miterlimit="10" d="M32.4,52.7c0.1,0,0.3,0,0.4,0
			C32.7,52.7,32.5,52.6,32.4,52.7"/>
		<path fill="#FFFFFF" stroke="#FFFFFF" stroke-width="0.5" stroke-miterlimit="10" d="M34.9,54.6c0.1,0,0.4,0,0.5,0H34.9z"/>
		<path fill="#FFFFFF" stroke="#FFFFFF" stroke-width="0.5" stroke-miterlimit="10" d="M33,59.7h0.4C33.3,59.7,33.1,59.7,33,59.7
			L33,59.7z"/>
		<path fill="#FFFFFF" stroke="#FFFFFF" stroke-width="0.5" stroke-miterlimit="10" d="M18,52.7v0.4C18,53.1,18,52.8,18,52.7"/>
		<path fill="#FFFFFF" stroke="#FFFFFF" stroke-width="0.5" stroke-miterlimit="10" d="M31.1,62.2c0.1,0,0.2,0,0.3,0
			C31.3,62.2,31.2,62.2,31.1,62.2"/>
	</g>
	<g>
		<path fill="#FFFFFF" stroke="#FFFFFF" stroke-width="0.5" stroke-miterlimit="10" d="M21,43.7c0.1-0.1,0.1-0.2,0.2-0.2
			c0,0,0,0,0.1,0c0,0.1,0.1,0.2,0.1,0.3l0.4,0.1c-0.1-0.2-0.2-0.4-0.3-0.7c0.5-0.5,1.6-0.5,2.2-0.1c0.2,0.1,0.3,0.3,0.5,0.4
			c0.8,0.6,1.6,1.2,2.5,1.7l1.2,0.3c-1-0.5-1.9-1.2-2.8-1.8c1.3,0.6,2.7,1.3,3.7,2.1l1.9,0.5c0.2-0.1,0.5-0.2,0.8-0.1
			c0.4,0.1,0.7,0.3,0.9,0.6l2.5,0.7c1.2-0.1,2.6,0.1,3.7,0.2c-0.7,0.1-1.6,0.2-2.4,0.2l1.1,0.3c0.9,0,1.8-0.1,2.5-0.2
			c0.9-0.1,1.7,0.5,2,1.2c-0.1,0.1-0.1,0.1-0.2,0.2l0.7,0.2c0-0.1-0.1-0.2-0.1-0.3c0.3-0.3,0.4-0.8,0.5-1.3v-0.4
			c-0.1-0.5-0.2-0.9-0.4-1.2c0.4-0.9,0-1.9-0.4-2.5c-0.1-0.1-0.3-0.3-0.3-0.4s0-0.2,0-0.3c0-1.1-0.7-1.8-1.4-2.2
			c-0.2-1.1-0.9-1.8-2-2c-0.4-0.9-1.2-1.6-2.5-1.5c-0.5-0.7-1.7-1.2-2.8-0.8c-0.3-0.3-0.8-0.4-1.3-0.5h-0.4
			c-0.5,0.1-0.9,0.2-1.2,0.4c-1.1-0.4-2.3,0-2.8,0.7c-1.3-0.1-2.1,0.5-2.5,1.4c-1.2,0.2-1.8,0.9-2.1,2c-0.8,0.4-1.4,1-1.5,1.9
			c0,0.1,0,0.3,0,0.5c0,0.1-0.2,0.2-0.3,0.4c-0.1,0.1-0.1,0.2-0.2,0.3L21,43.7z M26.3,42.2c1.2,1,2.5,2.1,3.5,3.5
			C28.4,44.8,27.3,43.5,26.3,42.2 M30.2,46c0-0.1,0-0.1,0-0.1S30.3,45.9,30.2,46L30.2,46z M27.8,41.1c0.9,1.3,1.8,2.6,2.4,4.3
			C29.2,44.2,28.5,42.6,27.8,41.1 M30.7,45.8c-0.1,0-0.1-0.1-0.1-0.2C30.7,45.7,30.8,45.7,30.7,45.8 M29.6,40.4
			c0.5,1.5,1.1,3,1.2,4.8C30.2,43.8,29.8,42.1,29.6,40.4 M31.2,45.7c-0.1,0-0.1-0.1-0.1-0.2C31.2,45.6,31.2,45.7,31.2,45.7
			 M31.4,45.1c-0.3-1.5-0.1-3.4,0-4.9C31.6,41.7,31.7,43.7,31.4,45.1 M31.7,45.7c-0.1,0,0-0.1,0-0.2C31.7,45.6,31.7,45.7,31.7,45.7
			 M32.1,45.9L32.1,45.9c-0.1,0,0-0.1,0-0.2C32.2,45.7,32.1,45.8,32.1,45.9 M32,45.2c0.1-1.8,0.8-3.2,1.3-4.7
			C33.1,42.2,32.7,43.8,32,45.2 M32.4,46.1c0-0.1,0.1-0.1,0.1-0.2C32.6,46,32.5,46.1,32.4,46.1 M32.7,46.5c0-0.1,0.1-0.1,0.1-0.1
			S32.8,46.5,32.7,46.5 M32.6,45.4c0.6-1.6,1.6-2.9,2.5-4.2C34.4,42.7,33.6,44.4,32.6,45.4 M32.9,46.9c0-0.1,0.1-0.1,0.2-0.1
			C33.1,46.8,33,46.9,32.9,46.9 M33.1,45.9c0.9-1.4,2.2-2.4,3.5-3.5C35.6,43.7,34.4,44.9,33.1,45.9 M33.4,46.4
			c1.1-1,2.7-1.7,4.3-2.4C36.4,44.9,35,45.8,33.4,46.4 M38.5,43.8c0.2-0.1,0.3-0.3,0.5-0.4c0.6-0.3,1.7-0.3,2.2,0.2
			c-0.1,0.6-0.5,1-0.9,1.3c-0.2,0.1-0.4,0.3-0.6,0.3c-0.4,0.1-0.8,0.1-1.2,0.1c-1.2,0.2-2.4,0.4-3.4,0.7
			C36.2,45.4,37.4,44.6,38.5,43.8 M38.3,45.7L38.3,45.7c0.1,0,0,0.1-0.1,0.1c-0.1,0-0.2,0.1-0.3,0.1c-1.3,0.5-2.7,0.9-4.2,1
			C34.9,46.3,36.6,46,38.3,45.7 M38.9,47.3c-1.1-0.1-2.4-0.2-3.6-0.2c1.3-0.4,2.8-0.8,4-1.3c0.2-0.1,0.4-0.2,0.5-0.2
			c0.9-0.2,1.7,0.3,2.1,0.8c-0.4,0.6-1,1.1-1.9,1.2C39.6,47.5,39.2,47.3,38.9,47.3 M42.1,48.7c-0.3-0.5-0.7-0.8-1.3-1.1
			c0.6-0.2,1-0.5,1.3-1C42.5,47.1,42.4,48.2,42.1,48.7 M42,45.9c-0.1,0.1-0.1-0.1-0.1-0.1c-0.3-0.3-0.8-0.5-1.4-0.6
			c0.4-0.4,0.8-0.8,1-1.4C41.9,44.2,42.3,45.1,42,45.9 M40.2,41.4L40.2,41.4c0.6,0.3,1,0.9,1.1,1.8c-0.4-0.2-1-0.4-1.6-0.3
			c0-0.1,0.1-0.2,0.2-0.3C40,42.3,40.2,41.9,40.2,41.4 M39.5,42.4c-0.2,0.3-0.5,0.6-0.7,0.8c-0.2,0.1-0.4,0.1-0.6,0.2
			c-1.3,0.5-2.6,1.2-3.7,1.8c0.8-0.8,1.6-1.7,2.4-2.7c0.3-0.3,0.5-0.7,0.8-0.9c0.5-0.4,1.4-0.7,2.2-0.4C39.9,41.6,39.8,42,39.5,42.4
			 M38.3,39.2c0.8,0.2,1.3,0.8,1.5,1.5c-0.5-0.1-1.2-0.1-1.7,0.1C38.3,40.5,38.5,39.8,38.3,39.2 M37.8,38.8c-0.7,0-1.2,0.3-1.6,0.5
			c0.1-0.6,0-1.2-0.3-1.7C36.9,37.7,37.5,38.1,37.8,38.8 M36.7,39.4c0.3-0.2,0.7-0.3,1.2-0.3c0.3,0.8-0.1,1.7-0.5,2.2
			c-0.1,0.1-0.3,0.2-0.5,0.4c-1.1,0.8-2.2,1.8-3.1,2.7c0.6-1.1,1.3-2.4,1.9-3.7c0.1-0.2,0.1-0.4,0.2-0.6
			C36.1,39.8,36.4,39.6,36.7,39.4 M35.7,39.9c-0.1,0.2-0.3,0.3-0.4,0.5c-0.8,1-1.7,2.3-2.3,3.5c0.3-1,0.6-2.2,0.8-3.4
			c0.1-0.4,0.1-0.8,0.2-1.2c0.1-0.3,0.3-0.6,0.5-0.8c0.3-0.4,0.7-0.6,1.2-0.7C36,38.2,36,39.3,35.7,39.9 M35.3,37.4
			c-0.6,0.2-1.1,0.5-1.4,0.9c-0.1-0.7-0.3-1.1-0.7-1.6C34.1,36.6,34.9,36.9,35.3,37.4 M33.5,39.1c0,0.2-0.2,0.4-0.2,0.5
			c-0.5,1.2-1,2.6-1.4,3.9c0-1.2-0.1-2.5-0.2-3.6c0-0.4-0.1-0.8-0.1-1.1c0-0.8,0.6-1.5,1.2-1.9C33.4,37.4,33.8,38.2,33.5,39.1
			 M32.6,36.7c-0.5,0.3-0.8,0.7-1.1,1.3c-0.2-0.6-0.6-1-1-1.3C31,36.3,32.1,36.3,32.6,36.7 M30.1,36.9c0.6,0.4,1.2,1,1.2,1.9
			c0,0.3-0.1,0.8-0.1,1.1C31.1,41,31,42.3,31,43.5c-0.3-1.3-0.8-2.8-1.3-4c-0.1-0.2-0.2-0.4-0.2-0.5C29.2,38.1,29.6,37.3,30.1,36.9
			 M29.7,36.7c0.1,0.1-0.1,0.1-0.1,0.1c-0.3,0.3-0.5,0.8-0.6,1.4c-0.4-0.4-0.7-0.8-1.3-1C28,36.8,28.9,36.5,29.7,36.7 M27.4,37.6
			c0.5,0.1,1,0.4,1.3,0.9c0.1,0.2,0.3,0.5,0.3,0.7c0.1,0.4,0.1,0.8,0.1,1.2c0.2,1.2,0.4,2.4,0.7,3.4c-0.7-1.2-1.5-2.5-2.3-3.5
			c-0.1-0.2-0.3-0.3-0.4-0.5C26.9,39.1,27,38.1,27.4,37.6 M27,37.5c-0.2,0.4-0.4,1-0.3,1.6c-0.1,0-0.2-0.1-0.3-0.2
			c-0.3-0.2-0.8-0.4-1.3-0.4C25.5,37.9,26.1,37.5,27,37.5 M25,38.9c0.5,0,1,0.2,1.4,0.4c0.2,0.2,0.5,0.4,0.6,0.6
			c0.1,0.2,0.1,0.4,0.2,0.6c0.5,1.3,1.2,2.6,1.8,3.7c-0.8-0.8-1.7-1.6-2.7-2.4c-0.3-0.3-0.7-0.5-0.9-0.8C25,40.6,24.7,39.7,25,38.9
			 M24.6,38.9c-0.1,0.5-0.1,1.3,0.1,1.7c-0.4-0.2-1.1-0.3-1.7-0.2C23.3,39.7,23.8,39.2,24.6,38.9 M23,40.8c0.8-0.3,1.7,0.1,2.2,0.5
			c0.1,0.1,0.2,0.3,0.4,0.5c0.8,1.1,1.8,2.2,2.7,3.1c-1.1-0.6-2.4-1.3-3.7-1.9c-0.2-0.1-0.4-0.1-0.6-0.2c-0.3-0.2-0.5-0.5-0.7-0.8
			C23.1,41.7,22.9,41.3,23,40.8 M22.6,41L22.6,41c0,0.7,0.3,1.2,0.6,1.6c-0.6-0.1-1.2,0-1.7,0.3C21.6,41.9,22,41.3,22.6,41"/>
		<path fill="#FFFFFF" stroke="#FFFFFF" stroke-width="0.5" stroke-miterlimit="10" d="M45.6,13.8c-0.5,6.1-1,12.3-1.6,18.4
			c0,0,0,0,0-0.1L43.9,33v0.1c0,0.5-0.1,1-0.1,1.5s-0.1,1-0.1,1.5c0,0,0,0,0-0.1l-0.1,0.6c0,0,0,0,0,0.1c0,0.2,0,0.4-0.1,0.6
			c0,0,0,0,0-0.1V38v0.1c0,0.2,0,0.5-0.1,0.7c-0.1,0.7-0.1,1.4-0.2,2.1l0,0v0.5c0,0,0,0,0,0.1l0,0v0.4l0,0c0,0.5-0.1,0.9-0.1,1.3
			l0,0l-0.5,6l0.4,0.1c-0.1-0.2,0.4-0.3,0.4-0.1c-0.1,0.1-0.2,0.1-0.4,0.1l6.1,2.2c0-0.1,0.1-0.1,0.2-0.3c0.1,0,0.1,0.1,0.1,0.2
			c-0.1,0-0.1,0.1-0.2,0.1l1,0.4c0-0.2-0.1-0.4,0-0.5c0.2,0,0.3,0.2,0.4,0.4c0.1,0.1,0.3,0.3,0.4,0.4l0,0l1.4,0.5l0,0
			c0.1,0,0.2,0,0.3,0c0.1,0,0.2,0.1,0.2,0.2l0.6,0.2c-0.1-0.1-0.2-0.2-0.3-0.3c0.7,0,1.9,0.1,2.7,0.2c0.3,0,0.7,0,0.9,0.1
			s0.7,0.5,0.9,0.7c0.7,0.6,1.5,1.2,2.2,1.8l0.899,0.3c-1.1-0.9-2.2-1.8-3.399-2.7c0.199,0.1,0.6,0,0.8,0.1c0.2,0.1,0.6,0.3,0.8,0.4
			c1.9,0.9,3.7,1.8,5.6,2.7c-0.1,0.3-0.3,0.6-0.399,0.9l0.3,0.1c0.2-0.4,0.3-0.7,0.5-1.1c2.5,1.4,5,2.7,7.6,4.1l2.2,0.8
			c-4.8-2.5-9.5-5.1-14.3-7.7l0,0c5.1,0.4,10.3,0.9,15.5,1.3c0.3,0,0.7,0,1,0.1s0.6,0.2,0.9,0.3c4.1,1.3,8.5,2.6,12.6,3.9
			c-0.7,2.4-1.5,4.7-2.2,7.1l0.3,0.1c0.801-2.5,1.5-5,2.301-7.4c-4.101-1.3-8.2-2.5-12.301-3.8c0.5,0,1.101,0.1,1.7,0.1
			c0.2-1.9,0.3-3.8,0.5-5.7c3.7-0.4,7.5-0.8,11.2-1.2c-0.2-2.7-0.6-5.5-0.9-8.2c-3.699,0.4-7.5,0.8-11.199,1.2
			c-0.5-1.6-0.9-3.1-1.4-4.7c0.4-0.3,0.8-0.5,1.2-0.7c2.899-1.5,5.8-3.1,8.8-4.6c-1.3-2.4-2.6-4.9-3.9-7.3
			C80.9,26,77.2,27.9,73.4,29.9c-0.101,0,0.1-0.1,0.1-0.1c0.2-0.2,0.5-0.4,0.7-0.6l0.3-0.2c0-0.1-0.4-0.5-0.5-0.6
			c-1.1-1.3-2.2-2.6-3.2-3.8c2.3-3,4.7-5.8,7-8.8c-2.1-1.7-4.3-3.4-6.399-5.2c-2.4,2.9-4.7,5.9-7.101,8.8
			c-1.5-0.8-2.899-1.5-4.3-2.3c1.1-3.6,2.2-7.2,3.3-10.8c-2.6-0.9-5.3-1.6-7.9-2.5c-1.2,4-2.5,7.9-3.7,11.9c0-0.4,0.1-0.9,0.1-1.3
			c-1.9-0.2-3.8-0.3-5.8-0.5C46.1,13.9,45.6,13.8,45.6,13.8 M44.7,32.9c0-0.9,0.1-1.8,0.1-2.7c0-0.5,0-1,0.1-1.4v-0.1
			c0.9,0,1.7,0.1,2.6,0.1c0.2,0.6,0,1.1-0.2,1.6c-0.6,2-1.2,4.1-1.9,6.1c-0.1-0.3-0.2-0.7-0.4-1.1c-0.1-0.4-0.3-0.8-0.3-1.1
			C44.6,33.9,44.7,33.4,44.7,32.9 M57.4,36.1c0.699-0.7,1.399-1.3,2.1-1.9h0.1c0.601,0.6,1.101,1.3,1.7,1.9
			c-0.2,0.2-0.3,0.5-0.5,0.6c-0.2,0.2-0.6,0.3-0.8,0.4c-1.8,0.9-3.8,2-5.6,3c0.1-0.4,0.3-0.7,0.5-1c0.2-0.3,0.3-0.7,0.5-1
			c0.1-0.2,0.3-0.3,0.5-0.5C56.3,37,56.9,36.5,57.4,36.1 M55.9,36.9c0.4-0.6,1.1-1,1.7-1.5C57.1,35.9,56.5,36.5,55.9,36.9
			C55.9,36.9,55.9,37,55.9,36.9 M62,36.3c2.9-1.5,5.8-3.1,8.8-4.6c-1.899,1.7-4,3.4-6,5.1c-1.7,1.5-3.5,3-5.3,4.5
			c-0.3,0.2-0.5,0.5-0.8,0.6c-0.3,0.2-0.8,0.2-1.101,0.3c-0.399,0.1-0.8,0.3-1.1,0.4c0-0.1,0.1-0.2,0.2-0.4
			c0.3-0.4,0.6-0.8,0.899-1.1c0.4-0.5,0.801-1.1,1.2-1.5c0.3-0.3,0.601-0.5,0.8-0.8c0.801-0.8,1.7-1.5,2.5-2.3
			C62.1,36.4,61.9,36.4,62,36.3 M61.8,48.1c1.3,0.1,2.8,0.1,4.2,0.2c0,0.9-0.1,1.7-0.1,2.6c-0.601,0.2-1.101,0-1.601-0.2
			c-2-0.6-4.1-1.3-6.1-1.9c0.3-0.2,0.7-0.2,1.1-0.4c0.4-0.1,0.8-0.3,1.101-0.4C60.7,48,61.3,48.1,61.8,48.1 M61.4,47.8
			c0.1-0.1,0.3-0.1,0.399-0.1c0.9,0.1,1.9,0.2,2.8,0.2C63.6,47.9,62.5,47.8,61.4,47.8 M58.8,51.2c-1,0-1.899,0-2.7-0.1
			c-0.399,0-0.899-0.4-1.2-0.6c-0.4-0.2-0.7-0.4-1-0.6c1.2-0.3,2.4-0.7,3.5-1.1h0.1c1.1,0.3,2.2,0.7,3.3,1c1.101,0.3,2.2,0.7,3.3,1
			c-0.8,0.1-1.699,0.3-2.699,0.3C60.7,51.3,59.7,51.2,58.8,51.2 M59.1,51.5c-0.3,0.1-0.6,0.1-1,0.1c-0.3,0-0.699,0.1-1,0.1
			c-0.199,0-0.399-0.2-0.6-0.3C57.4,51.5,58.3,51.5,59.1,51.5 M50.5,47.7c0.4,0,0.8,0,1.2,0c0,0.1-0.2,0.2-0.3,0.3s-0.2,0.2-0.4,0.3
			c-0.2-0.2-0.4-0.3-0.6-0.5C50.5,47.8,50.6,47.8,50.5,47.7 M49.4,46.9c-0.1-0.1-0.1-0.2-0.2-0.4h0.2C49.3,46.7,49.4,46.8,49.4,46.9
			 M49.2,42c-0.1-0.6-0.2-1.4-0.2-2.1c0-0.2-0.1-0.5-0.1-0.7c0-0.2,0.6-0.6,0.6-0.9C49.5,39.6,49.4,40.9,49.2,42 M48.1,47.7
			c0,0.2-0.2,0.4-0.5,0.4V48C47.8,47.8,48,47.7,48.1,47.7 M47.9,45.2c0-0.1,0.1-0.1,0.1-0.1C48,45.2,48,45.2,47.9,45.2 M48,45.5
			c0.1,0,0.1,0,0.2,0c0,0.1,0.1,0.1,0.1,0.2C48.2,45.7,48.1,45.6,48,45.5 M48,44.3c-0.1-0.1-0.2-0.3-0.1-0.6
			c0.4-0.2,0.7-0.4,1.1-0.6c0.1,0.2-0.1,0.3-0.2,0.4C48.5,43.8,48.2,44.1,48,44.3 M47.9,40.7c0.1-0.4,0.4-0.8,0.6-1.1
			c0.1,0.4,0.2,1.4,0.2,2c0,0.2,0.1,0.5,0.1,0.6c0,0.2-0.4,0.4-0.5,0.5c-0.2,0.2-0.3,0.3-0.5,0.4C48,42.4,47.8,41.4,47.9,40.7
			 M49,37.1c0.3-0.5,0.5-1,0.8-1.5c0.1,0.6-0.3,1.1-0.5,1.5c-0.2,0.3-0.3,0.7-0.5,1C48.6,37.6,48.8,37.4,49,37.1 M48.9,42.7
			C48.9,42.7,48.9,42.8,48.9,42.7c0,0.2-0.2,0.2-0.2,0.3C48.6,42.9,48.8,42.8,48.9,42.7 M49,38.5c0.1-0.4,0.4-0.9,0.6-1.4
			c0,0.2,0,0.4,0,0.6C49.5,38,49.1,38.3,49,38.5 M49.6,42.2c0.6-0.6,1.3-1.1,2-1.7c-0.2,1-1.1,1.6-2,2
			C49.5,42.4,49.6,42.3,49.6,42.2 M51.2,42c0.3-0.1,0.6-0.3,0.9-0.5c-0.2,0.8-0.5,1.8-0.8,2.6c-0.4,0.1-0.8,0.3-1.3,0.4
			C50.4,43.7,50.8,42.8,51.2,42 M53.3,37.7c-0.1,0.4-0.3,0.8-0.4,1.2c-0.1,0.1-0.2,0.2-0.4,0.3C52.8,38.7,53.1,38.1,53.3,37.7
			C53.3,37.6,53.4,37.6,53.3,37.7 M52.6,44.6c-0.3,0.2-0.7,0.2-1,0.4c-0.1-0.1,0.1-0.2,0.1-0.3C52,44.7,52.3,44.6,52.6,44.6
			 M51.7,44c0.2-0.9,0.6-1.8,0.8-2.7c0.3-0.2,0.6-0.3,0.9-0.5C52.9,41.9,52.3,42.9,51.7,44 M51.9,44.4c0.1-0.1,0.3-0.1,0.4-0.2
			c0.4-0.1,0.9-0.3,1.4-0.4c0,0-0.3,0.4-0.5,0.5C52.9,44.3,52.3,44.2,51.9,44.4 M52.7,45.2c0.1-0.1,0.3-0.3,0.4-0.4
			c0.3-0.1,0.9-0.3,1.2-0.4c-0.5,0.7-1.1,1.4-1.7,2.1c-0.4,0-0.8-0.1-1.3-0.1c0,0,0.1-0.1,0.1-0.2C52,45.9,52.4,45.5,52.7,45.2
			 M54,44c0.1-0.1,0.3-0.4,0.5-0.5s0.5-0.1,0.8-0.2c0,0.2-0.3,0.4-0.4,0.5c-0.3,0.1-0.6,0.3-1,0.3L54,44 M52.8,47.4c0,0-0.2,0-0.1,0
			H52.8 M52.5,46.8c0,0.1-0.1,0.1-0.1,0.1c-0.2,0-0.3-0.1-0.5-0.1C52.1,46.8,52.3,46.8,52.5,46.8 M54.1,47.8c-0.6,0.3-1.3,0.5-2,0.7
			c-0.2,0.1-0.4,0.2-0.6,0.1c0-0.1,0.1-0.3,0.2-0.4c0.2-0.2,0.3-0.4,0.5-0.5C52.9,47.8,53.5,47.8,54.1,47.8 M51.6,49.1
			c0.3,0.2,0.6,0.5,1,0.8c-0.1,0.1-0.3,0.2-0.4,0.2c-0.5-0.2-0.9-0.4-1.3-0.6C50.9,49.2,51.3,49.2,51.6,49.1 M52,49
			c0.8-0.3,1.8-0.6,2.6-1l0,0c0.3,0,0.6,0.2,0.9,0.3c-0.5,0.3-1.2,0.7-1.8,1c-0.2,0.1-0.5,0.3-0.6,0.3c-0.2,0-0.4-0.2-0.6-0.3
			C52.3,49.2,52.2,49.1,52,49 M55.4,47.9c0.2,0,0.6,0,0.9,0C56.1,48.2,55.7,48,55.4,47.9 M53.5,49.8c0.8-0.5,1.7-0.9,2.5-1.3
			c0.3,0.1,0.6,0.2,1,0.3C55.8,49.1,54.7,49.4,53.5,49.8L53.5,49.8 M56.5,48.2c0.3-0.4,1.1-0.3,1.8-0.2c0.4,0,0.7,0,1,0
			c-0.5,0.2-1.2,0.4-1.7,0.5l0,0C57.2,48.6,56.9,48.3,56.5,48.2 M56.9,47.6c-0.301,0.1-0.601-0.1-0.9,0c0.5-0.2,0.9-0.4,1.5-0.3
			C57.3,47.3,57.1,47.6,56.9,47.6 M55,47.5c-0.7,0.1-1.4-0.2-2-0.4c0.1-0.1,0.2-0.2,0.3-0.2c0.9,0.1,1.8,0.1,2.8,0.2
			C55.7,47.2,55.4,47.5,55,47.5 M53.2,46.5c0.5-0.7,1.2-1.4,1.7-2.2c0.3,0,0.6-0.1,0.9-0.1c0,0.1-0.1,0.1-0.1,0.1
			C54.9,45.1,54,45.8,53.2,46.5 M55.6,43.9c0.4-0.2,0.8-0.3,1.1-0.4c0,0.1-0.3,0.2-0.4,0.4C56.1,43.9,55.9,43.9,55.6,43.9
			 M55.5,43.6c0.1-0.2,0.2-0.3,0.4-0.5c0.6-0.2,1.3-0.4,2-0.6l0,0c0,0-0.101,0.1-0.2,0.2C57.2,43.1,56.2,43.3,55.5,43.6 M55.7,42.8
			c-0.2,0.1-0.4,0.1-0.6,0.2c0.1-0.2,0.3-0.3,0.4-0.4c0.4-0.4,0.9-0.9,1.4-1.3c0,0.1-0.101,0.1-0.101,0.2
			C56.5,41.9,56.1,42.4,55.7,42.8 M54.9,42.8c-0.2,0.2-0.4,0.4-0.5,0.5c-0.1,0.1-0.4,0.1-0.5,0.2c-0.5,0.2-1.1,0.3-1.6,0.5
			c0.6-1.1,1.2-2.2,1.8-3.3c2.1-1.1,4.2-2.2,6.2-3.3l0,0c-0.3,0.4-0.6,0.7-0.899,1.1c-0.301,0.3-0.5,0.7-0.801,1.1
			c-0.3,0.3-0.699,0.6-1.1,1C56.6,41.2,55.8,41.9,54.9,42.8 M53.7,40.3c-0.3,0.2-0.7,0.4-1,0.5c0-0.2,0.1-0.4,0.1-0.5
			c0.1-0.1,0.3-0.3,0.4-0.4c0.4-0.4,0.9-0.8,1.3-1.2l0,0C54.3,39.3,54,39.8,53.7,40.3 M52.7,39.5c0,0.2-0.1,0.4-0.1,0.6
			c-0.3,0.2-0.5,0.5-0.7,0.7C52,40.3,52.3,39.8,52.7,39.5 M52.3,40.7c0,0.1-0.1,0.2-0.1,0.3c-0.2,0.1-0.3,0.2-0.5,0.3
			C51.9,41.1,52.1,40.9,52.3,40.7 M52.3,45.1L52.3,45.1c-0.4,0.5-0.9,0.9-1.3,1.3c0-0.3,0.2-0.6,0.3-0.9
			C51.7,45.3,52,45.2,52.3,45.1 M52.2,47.2c0,0.1-0.1,0.1-0.1,0.2c-0.5,0-0.9,0-1.4,0c0-0.2,0.1-0.5,0.3-0.5
			C51.4,47,51.7,47.1,52.2,47.2 M50.7,48.6c-0.1,0.2-0.3,0.3-0.5,0.4c0-0.2,0.1-0.4,0.1-0.6C50.5,48.5,50.5,48.6,50.7,48.6
			 M51.7,50.3c-0.2,0.1-0.5,0.2-0.7,0.2c-0.2-0.2-0.3-0.5-0.5-0.8C51,49.9,51.3,50.1,51.7,50.3 M52.2,50.5c0.3,0,0.6,0.4,1,0.4
			c-0.6,0-1.2,0-1.8,0C51.6,50.8,51.9,50.5,52.2,50.5 M52.7,50.4c0.1,0,0.2-0.1,0.3-0.1c0.2,0.2,0.5,0.4,0.7,0.6
			C53.4,50.8,53,50.6,52.7,50.4 M53.4,50.2c0.6,0.2,1.1,0.6,1.7,0.9c-0.2,0-0.4,0-0.6,0s-0.4-0.3-0.6-0.4
			C53.8,50.4,53.6,50.3,53.4,50.2 M55.8,51.4c0.3,0.1,0.5,0.3,0.8,0.4c-0.199,0-0.5,0.1-0.7,0.1c-0.3,0-0.7-0.4-1-0.5
			C55.3,51.4,55.6,51.4,55.8,51.4 M65.7,51.4c-0.5,0-1.101,0-1.7,0C64.6,51.3,65.2,51.2,65.7,51.4 M57.6,47.6
			c0.101-0.1,0.4-0.2,0.5-0.3c0.9,0.1,1.801,0.2,2.7,0.2C60.1,47.9,58.7,47.6,57.6,47.6 M57.7,46.9c0.399-0.2,0.8-0.3,1.2-0.5
			c0,0-0.101,0.1-0.2,0.1C58.5,46.8,58.1,47.1,57.7,46.9 M57.4,46.7c-0.2,0.1-0.4,0.2-0.5,0.2c-0.2,0-0.5,0-0.801-0.1
			c-0.8-0.1-1.6-0.1-2.399-0.2c0-0.1,0.2-0.2,0.3-0.3c0.7-0.6,1.4-1.2,2.2-1.8c0.1-0.1,0.2-0.2,0.399-0.3
			c0.301-0.1,0.7-0.1,1.101-0.1c2.5-0.3,5-0.5,7.5-0.8c0,0.1-0.101,0.1-0.2,0.1c-0.9,0.5-1.8,1-2.7,1.4c-0.3,0.2-0.6,0.4-1,0.5
			c-0.3,0.2-0.7,0.2-1.1,0.4C59.2,46,58.3,46.4,57.4,46.7 M65.2,43.6c0,0.1,0.1,0.2,0.1,0.3c-0.6,0.2-1.2,0.4-1.8,0.6
			C64,44.2,64.6,43.9,65.2,43.6 M64.5,40.5c4.5-1.3,9-2.7,13.5-4c0,0-0.2,0.1-0.3,0.2c-3.601,1.9-7.2,3.8-10.9,5.8
			C66.4,42.7,66,43,65.4,43C65,42.1,64.7,41.3,64.5,40.5 M64.9,42.9c-2.7,0.3-5.301,0.6-7.9,0.9c0-0.1,0.2-0.2,0.3-0.3
			c0.101-0.1,0.2-0.2,0.4-0.3c0.2-0.1,0.5-0.2,0.8-0.3c1.8-0.6,3.9-1.4,5.7-2C64.5,41.5,64.7,42.2,64.9,42.9 M62.1,41.2
			c-1.199,0.5-2.5,0.9-3.699,1.3c0.199-0.4,0.699-0.4,1.199-0.6C60.5,41.7,61.3,41.5,62.1,41.2C62.1,41.3,62.3,41.2,62.1,41.2
			 M60.3,37.7c0.3-0.4,0.601-0.9,1.2-1.1C61.2,36.9,60.7,37.3,60.3,37.7 M61.4,35.7c-0.7-0.6-1.301-1.3-1.9-2
			c3.6-3,7.2-6.1,10.8-9.1C67.4,28.3,64.4,32,61.4,35.7 M54.1,38.6c-0.3,0.3-0.7,0.6-1,0.9c0-0.5,0.3-0.7,0.6-1
			c0.5-0.4,1.1-0.9,1.6-1.3C55.1,37.9,54.5,38.2,54.1,38.6 M52.2,39.1c-0.1,0.2-0.2,0.4-0.2,0.6c-0.1,0.2-0.4,0.3-0.6,0.5
			c-0.6,0.5-1.2,1-1.8,1.4c0.1-0.9,0.1-1.8,0.2-2.8c0-0.3,0-0.7,0.1-0.9c0.1-0.2,0.5-0.7,0.6-0.9c1.1-1.4,2.2-2.7,3.3-4.1
			c0.5-0.6,0.9-1.1,1.4-1.7c0,0,0,0,0,0.1c-0.3,1-0.6,2-0.9,3c-0.1,0.3-0.2,0.7-0.3,1c-0.1,0.4-0.4,0.7-0.5,1.1
			C53.1,37.3,52.6,38.2,52.2,39.1 M55.6,31.4c0.1,0,0.2,0.1,0.2,0.1c-0.2,0.6-0.5,1-0.7,1.6C55.2,32.5,55.5,32,55.6,31.4 M55.2,30.8
			c-0.8-0.3-1.5-0.7-2.2-1.1c2.2-4.2,4.4-8.3,6.7-12.4c-1.2,3.9-2.5,8.1-3.7,12.2C55.7,30.1,55.6,30.5,55.2,30.8 M53,30.2
			c0.7,0.3,1.3,0.6,2,0.9c-0.8,1.1-1.6,2.1-2.5,3.1c-0.8,1-1.6,2.1-2.5,3.1c0.1-0.3,0-0.7,0.1-1c0.1-0.2,0.2-0.5,0.4-0.8
			C51.3,33.7,52.1,31.9,53,30.2 M50.2,35.2c-0.1-0.4,0.2-0.7,0.4-1c0.3-0.6,0.7-1.3,1-1.9C51.1,33.3,50.6,34.3,50.2,35.2 M49.9,33.7
			c0,0.3,0,0.7-0.1,1c0,0.2-0.2,0.4-0.3,0.6c-0.3,0.5-0.6,1.1-0.9,1.7c-0.1-0.6-0.2-1.3-0.2-1.9c-0.1-0.6-0.2-1.3-0.2-2
			c0-1.5,0.2-3,0.2-4.5c0-0.1-0.2,0-0.2-0.1c1-3.2,2-6.5,3-9.7C50.8,23.6,50.4,28.8,49.9,33.7 M48.3,36.5c0,0.3,0.1,0.7,0.1,1
			c0,0.2-0.2,0.4-0.3,0.6c0.1-0.8,0.1-1.7,0.1-2.5C48.2,35.8,48.2,36.2,48.3,36.5 M48.4,38.1c0.3,0.7-0.2,1.1-0.4,1.6
			c0-0.3-0.1-0.6,0-0.9C48.1,38.6,48.3,38.4,48.4,38.1 M48,30.7c-0.1-0.5-0.2-1.2,0-1.7C48,29.6,48,30.2,48,30.7 M47.9,33.1
			c0,0.9-0.1,1.9-0.1,2.8c0,0.4,0,0.9,0,1.4c0,0.4,0,1-0.1,1.4c0,0.1-0.2,0.3-0.3,0.5c-0.3,0.5-0.5,1.1-0.8,1.5
			c-0.3-1.1-0.6-2.1-0.9-3.2c0-0.2-0.1-0.3-0.1-0.4c0-0.2,0.2-0.6,0.2-0.9c0.6-1.9,1.3-4,1.8-5.9l0,0C47.6,31.3,47.8,32.2,47.9,33.1
			 M45.9,41c0.1,0.2,0.3,0.5,0.3,0.6c0,0.2-0.2,0.5-0.3,0.6c-0.1,0.2-0.2,0.4-0.3,0.6c-0.2-0.6-0.5-1.3-0.7-2
			c-0.1-0.2-0.2-0.5-0.2-0.7c0-0.3,0.3-0.6,0.3-1C45.1,39.6,45.5,40.4,45.9,41 M45,38.7c0.1-0.3,0.2-0.6,0.3-1
			c0.4,1.1,0.7,2.3,1.1,3.4C45.9,40.5,45.5,39.5,45,38.7 M46.5,42.2c0.1,0.1,0.1,0.2,0.2,0.4c-0.2,0.5-0.4,0.9-0.6,1.3
			c-0.3-0.1-0.3-0.4-0.4-0.6C45.9,42.8,46.2,42.5,46.5,42.2 M46.9,42.9c0.1,0.2,0.2,0.6,0.3,0.8c-0.3,0.1-0.5,0.3-0.8,0.4
			C46.4,43.7,46.7,43.3,46.9,42.9 M47.3,41.1c-0.1,0.3-0.2,0.6-0.4,0.9C46.8,41.5,47.2,41.4,47.3,41.1 M47.1,42.5
			c0-0.2,0.2-0.4,0.2-0.5c0.1-0.2,0.2-0.3,0.2-0.5c0,0.6,0,1.3-0.1,1.9C47.4,43.1,47.1,42.8,47.1,42.5 M47.2,40.7
			c-0.2,0.2-0.3,0.4-0.5,0.5c0.3-0.6,0.6-1.1,0.9-1.7c0,0.2,0,0.4,0,0.6C47.6,40.4,47.3,40.6,47.2,40.7 M44.5,37.4
			c0-0.6,0-1.4,0.1-2c0.1,0.2,0.2,0.5,0.3,0.9c0.1,0.3,0.2,0.6,0.2,0.9c0,0.4-0.3,0.7-0.3,1.1C44.6,38,44.5,37.8,44.5,37.4
			 M44.5,38.4c0.1,0.1,0.1,0.2,0.2,0.3c-0.1,0.2-0.1,0.4-0.2,0.6C44.5,39.1,44.5,38.7,44.5,38.4 M45.1,42.6c0.1,0.2,0.2,0.4,0.2,0.6
			c-0.3-0.1-0.4-0.3-0.6-0.6c-0.1-0.1-0.2-0.2-0.2-0.3c0-0.1,0-0.2,0-0.3c0-0.4,0-0.9,0-1.3C44.7,41.3,44.9,41.9,45.1,42.6
			 M44.3,44.2c-0.1-0.3,0-0.8,0-1.2c0.3,0.1,0.4,0.4,0.6,0.6c-0.1,0.1-0.2,0.3-0.3,0.4C44.6,44,44.5,44.2,44.3,44.2 M44.5,44.7
			c-0.1,0,0-0.1,0-0.1C44.6,44.6,44.5,44.7,44.5,44.7 M44.4,31.9c0,0.4,0,0.9,0,1.3C44.2,32.9,44.4,32.4,44.4,31.9 M43.5,42.3
			c0.1,0,0,0.1,0,0.1V42.3 M43.3,45.4c0.1,0,0.1,0,0.2,0c-0.1,0.1-0.2,0.1-0.3,0.1C43.2,45.4,43.3,45.4,43.3,45.4 M43.5,46.3
			c-0.1,0-0.2,0.1-0.4,0.1C43.2,46.1,43.4,46.1,43.5,46.3 M43.4,48.4c-0.1,0-0.3,0-0.4-0.1C43,48.1,43.5,48.2,43.4,48.4 M43.8,47.6
			c-0.1,0-0.3-0.1-0.4-0.2c0,0,0,0,0-0.1C43.7,47.3,43.9,47.4,43.8,47.6 M43.3,45c0-0.2,0-0.3,0-0.5c0.2,0.1,0.4,0.2,0.6,0.3
			C43.9,45,43.5,45,43.3,45 M44,44c-0.2,0-0.4-0.1-0.5-0.3c0.1-0.4,0.3-0.8,0.4-1.2c0.1,0,0.1,0.1,0.2,0.1C44,43.1,44,43.6,44,44
			 M43.8,41.6c-0.1,0-0.1-0.1-0.2-0.2c0.1-0.8,0.1-1.6,0.2-2.5c0.1,0.3,0.3,0.5,0.3,0.8C44.2,40.5,43.9,41.1,43.8,41.6 M44.1,38.9
			c-0.2-0.4-0.3-0.9-0.2-1.5C44.3,37.6,44.2,38.3,44.1,38.9 M44.1,35.4c0-0.5,0.1-1,0.1-1.4c0.1,0.2,0.1,0.4,0.1,0.6
			c0,0.8,0,1.7-0.1,2.4C43.9,36.8,44,36,44.1,35.4 M44.5,47c-0.1-0.1-0.2-0.2-0.3-0.4C44.5,46.6,44.7,46.8,44.5,47 M44.4,45.6
			c0.1-0.1,0.2-0.1,0.3,0C44.6,45.7,44.5,45.6,44.4,45.6 M44.8,44.9c0-0.1,0.1-0.1,0.1-0.2c0.1,0,0.2,0.1,0.3,0.1
			C45.1,44.9,44.9,44.8,44.8,44.9 M45.4,46.8c0-0.1-0.1-0.3-0.1-0.5C45.5,46.2,45.6,46.7,45.4,46.8 M45.1,44.4
			c0-0.2,0.2-0.3,0.2-0.4c0.2,0.2,0.3,0.3,0.5,0.5C45.5,44.6,45.3,44.4,45.1,44.4 M45.7,45.4c0.1-0.1,0.2-0.1,0.3-0.1
			c0,0.1,0.1,0.2,0.1,0.2C46,45.5,45.9,45.4,45.7,45.4 M46.3,46.8c-0.1-0.2,0-0.4,0.1-0.5C46.5,46.5,46.6,46.8,46.3,46.8 M46.4,44.8
			c0-0.1,0.1-0.1,0.1-0.1c0.1,0.1,0.2,0.1,0.2,0.2C46.6,44.9,46.5,44.9,46.4,44.8 M47.4,47.1c-0.1,0.1-0.1,0.2-0.3,0.1
			c0.1-0.2,0.1-0.4,0.3-0.4V47.1z M47.4,46c-0.1,0-0.1-0.1-0.2-0.2c0-0.1,0.1,0,0.2,0V46z M46.8,44.5c0.1-0.1,0.3-0.3,0.5-0.4
			c0,0.3,0.2,0.4,0.2,0.7C47.1,44.9,47,44.6,46.8,44.5 M47.5,50.6c0.1-0.1,0.4,0,0.4,0.2C47.6,50.8,47.6,50.6,47.5,50.6 M47.9,49.8
			c0-0.3,0.4-0.1,0.5,0C48.3,50,48,49.9,47.9,49.8 M48,48.8c0.1-0.1,0.3-0.2,0.5-0.1C48.4,48.9,48.2,48.8,48,48.8 M48.5,47
			c-0.1-0.1-0.1-0.3-0.1-0.5c0.1,0,0.2,0.1,0.3,0.2C48.6,46.8,48.5,46.9,48.5,47 M48.5,45.3c0.1,0,0.3-0.1,0.4-0.1
			c0,0.2,0,0.4,0,0.7C48.7,45.8,48.7,45.5,48.5,45.3 M48.9,50.8h-0.3c0-0.1,0.2-0.2,0.3-0.3C49.1,50.6,49,50.7,48.9,50.8 M48.2,44.7
			c0.1-0.2,0.2-0.3,0.4-0.5c0.2-0.1,0.3-0.3,0.5-0.4c0.1,0.2,0,0.6,0,0.9C48.8,44.7,48.4,44.8,48.2,44.7 M49.1,47.8
			c0.1,0,0.1,0.1,0.1,0.2c-0.1,0-0.1,0.1-0.1,0.1C49,48,49.1,47.9,49.1,47.8 M49.1,49.6c0.1-0.2,0.2-0.3,0.2-0.5
			c0.1,0.1,0,0.3,0.1,0.4C49.3,49.5,49.2,49.6,49.1,49.6 M49.5,43.4c0.1-0.2,0.4-0.4,0.6-0.6c0.2-0.2,0.5-0.4,0.6-0.6c0,0,0,0,0,0.1
			c-0.3,0.6-0.6,1.2-0.9,1.8c-0.1,0.2-0.1,0.5-0.4,0.5C49.4,44.2,49.3,43.8,49.5,43.4 M49.5,51.3c0.1,0,0.1,0.1,0.1,0.1
			C49.5,51.4,49.6,51.4,49.5,51.3 M49.8,44.9c0.4-0.1,0.8-0.1,1.2-0.2c0.1,0.1-0.1,0.3-0.1,0.4c-0.4,0.2-0.9,0.3-1.4,0.5
			C49.5,45.4,49.7,45.2,49.8,44.9 M50.8,45.6L50.8,45.6c-0.1,0.3-0.2,0.5-0.3,0.7c-0.3,0-0.6-0.1-0.8-0.2
			C50,45.9,50.4,45.8,50.8,45.6 M50.3,46.6c-0.1,0.2-0.2,0.5-0.4,0.7c-0.2-0.1-0.2-0.5-0.2-0.7C49.9,46.6,50.1,46.6,50.3,46.6
			 M50,47.9c0-0.1,0.1,0,0.1,0C50.1,48,50,47.9,50,47.9 M50,48.3c0,0.1-0.1,0.2-0.1,0.3c-0.1-0.1,0-0.3-0.1-0.4
			C49.9,48.2,50,48.3,50,48.3 M49.9,49.8c0.1,0,0.1,0.1,0.1,0.1c0,0.1-0.1,0.2-0.2,0.3C49.8,50.1,49.9,49.9,49.9,49.8 M49.9,50.9
			c-0.1-0.4,0.3-0.4,0.4-0.7c0.2,0.1,0.3,0.3,0.4,0.5C50.4,50.7,50.1,50.8,49.9,50.9 M51.1,52.2c-0.2-0.2-0.5-0.5-0.7-0.8
			c0.1-0.1,0.3-0.2,0.6-0.1c0.2,0.4,0.4,0.7,0.6,1.1C51.3,52.5,51.2,52.3,51.1,52.2 M51.9,52.4c-0.1-0.1-0.2-0.3-0.3-0.5
			c0.1,0.1,0.3,0.3,0.4,0.5C52,52.3,52,52.3,51.9,52.4 M52.5,52.3c-0.1,0-0.3-0.3-0.4-0.5c-0.2-0.2-0.3-0.4-0.4-0.5l0,0
			c0.7,0,1.4,0,2.1,0.1c0.3,0,0.6,0.2,0.9,0.3c0.2,0.1,0.4,0.2,0.5,0.4c-0.6,0.1-1.3,0.1-2,0.2C53,52.2,52.7,52.3,52.5,52.3
			 M53,52.6c0.7-0.1,1.7-0.2,2.4-0.3c0.3,0,0.6,0.4,0.8,0.5C55.1,52.8,54,52.7,53,52.6 M56.4,52.5c0.3,0,0.6,0.3,0.899,0.4
			C56.8,53,56.6,52.7,56.4,52.5 M57.4,52.6c-0.301-0.1-0.601-0.3-0.9-0.4c0.6-0.2,1.1,0.1,1.5,0.4c0.3,0.2,0.6,0.3,0.9,0.5
			C58.2,53.1,57.8,52.8,57.4,52.6 M60.6,54c0.801,0.4,1.601,0.9,2.4,1.3c0,0,0.2,0.1,0.1,0.1c-1.3-0.7-2.699-1.3-4-2
			C59.7,53.4,60.1,53.7,60.6,54 M60.7,53.2c-0.3,0-0.7,0-1-0.1c-0.2,0-0.3-0.2-0.5-0.3c-0.5-0.3-1-0.5-1.5-0.8
			c0.6-0.1,1.3-0.2,1.899-0.2c0.601-0.1,1.301-0.2,2-0.2c1.5,0,3,0.2,4.5,0.2c0-0.1,0-0.1,0-0.1v-0.1c3.101,1,6.2,1.9,9.301,2.9
			C70.7,54.1,65.6,53.6,60.7,53.2 M80.5,49.8c-0.1,1.6-0.3,3.5-0.4,5c-0.5,0-1-0.1-1.399-0.1c-0.5,0-1,0-1.5-0.1
			c-0.4-0.1-0.9-0.3-1.4-0.4c-2.8-0.9-5.5-1.7-8.3-2.6c-0.4-0.1-0.9-0.3-1.3-0.5C66.3,51,66.5,51,66.6,51
			c3.4-0.3,6.801-0.7,10.2-1.1c1.2-0.1,2.4-0.2,3.5-0.4C80.5,49.6,80.5,49.6,80.5,49.8 M66.2,50.8c0-0.9,0.1-1.8,0.1-2.7V48
			c4.7,0.4,9.5,0.8,14.2,1.2C75.8,49.8,71,50.2,66.2,50.8 M80,41.6c3.6-0.4,7.2-0.8,10.8-1.2c0.101,0.1,0.101,0.3,0.101,0.4
			c0.3,2.3,0.5,4.8,0.8,7.1c-3.601,0.4-7.2,0.8-10.8,1.2c0-0.1,0-0.2,0-0.3C74.8,48.3,68.8,47.8,62.8,47.3
			c5.8-1.8,11.601-3.5,17.4-5.3C80.1,41.9,80,41.8,80,41.6 M79.8,41.8c-5.7,1.8-11.6,3.5-17.399,5.3c-0.2,0.1-0.4,0.2-0.601,0.2
			s-0.5,0-0.8-0.1c-0.7-0.1-1.5-0.1-2.3-0.2c0-0.1,0.2-0.1,0.3-0.2c0.3-0.2,0.6-0.3,1-0.5c0.4-0.2,0.8-0.5,1.3-0.7
			c0.4-0.2,0.7-0.2,1.101-0.4c1.1-0.4,2.199-0.8,3.3-1.2c-0.101-0.2-0.101-0.4-0.2-0.6c0.5-0.4,1.4-0.4,2.3-0.5
			c2.8-0.3,5.601-0.6,8.4-0.9c1.2-0.1,2.3-0.2,3.399-0.4C79.7,41.7,79.7,41.7,79.8,41.8 M79.6,41.3c-4.3,0.4-8.5,0.9-12.699,1.4
			c3.699-2,7.5-4,11.3-6C78.7,38.2,79.1,39.8,79.6,41.3 M73.7,30.1c3.6-1.9,7.2-3.8,10.8-5.7l0,0c1.2,2.3,2.4,4.5,3.5,6.7
			c-3.2,1.7-6.4,3.4-9.6,5.1C78.3,36.2,78.3,36,78.3,36c-6.3,1.9-12.5,3.8-18.8,5.7c0-0.1,0.2-0.2,0.3-0.3c3-2.6,6.101-5.2,9.2-7.7
			c0.8-0.7,1.6-1.3,2.4-2c0.3-0.2,0.5-0.5,0.8-0.7C72.7,30.6,73.2,30.4,73.7,30.1 M74.1,28.8c-0.5,0.5-1.1,0.9-1.6,1.4
			c-0.2,0.2-0.3,0.3-0.5,0.5c-0.4,0.2-0.9,0.4-1.3,0.7C68.1,32.7,65.6,34.2,63,35.5c-0.4,0.2-0.8,0.5-1.3,0.6c0-0.2,0.1-0.3,0.2-0.4
			c2.1-2.7,4.3-5.4,6.5-8.1c0.8-1,1.5-1.9,2.3-2.9C71.8,26.1,73,27.5,74.1,28.8 M71.5,11c2,1.6,3.9,3.2,5.9,4.7
			c-2.2,2.8-4.5,5.6-6.801,8.4c-0.1,0-0.1-0.1-0.199-0.2C65.8,27.7,61.2,31.7,56.6,35.6c-0.1,0-0.1,0.1-0.199,0.1
			C59.3,30.4,62.2,25,65,19.6c-0.1-0.1-0.3-0.2-0.4-0.2C67,16.7,69.3,13.8,71.5,11 M64.5,19.8c0.1,0,0.1,0.1,0.2,0.1
			c-2.8,5.1-5.5,10.4-8.4,15.6c-0.2,0.3-0.3,0.7-0.6,1c-0.3,0.4-0.8,0.7-1.2,1s-0.8,0.7-1.2,1c0.1-0.5,0.3-1,0.5-1.5
			c0.2-0.5,0.3-1,0.5-1.5c0.3-0.7,0.7-1.3,1-2c0.3-0.7,0.6-1.3,0.9-2c-0.2-0.1-0.4-0.2-0.6-0.3c0.1-0.6,0.4-0.8,0.7-1.3
			c2-2.5,3.9-4.9,5.9-7.3C63,21.6,63.7,20.7,64.5,19.8 M64.2,19.6c-2.7,3.3-5.3,6.7-8,10c1.3-4.1,2.5-8.2,3.8-12.2
			C61.4,18.1,62.8,18.9,64.2,19.6 M52.2,15.6c0.9-2.7,1.7-5.5,2.5-8.2c0.4-1.1,0.7-2.3,1-3.3c2.399,0.7,4.8,1.5,7.2,2.2
			c-1,3.5-2.101,7-3.2,10.4c0,0.1-0.2-0.1-0.2-0.1c-3.1,5.7-6.2,11.6-9.3,17.2c0.4-4.9,0.8-9.7,1.2-14.6c0.1-0.7,0-1.4,0.2-2.1
			C51.8,16.7,52,16.2,52.2,15.6 M46.2,14.2c1.8,0.1,3.6,0.3,5.4,0.4c-0.1,0.8-0.1,1.7-0.2,2.5c-0.1,0.5-0.3,1-0.4,1.4
			c-0.9,2.8-1.7,5.7-2.6,8.6c-0.1,0.5-0.3,0.9-0.5,1.4c-0.1-0.1-0.1-0.3-0.1-0.4C47.2,23.6,46.6,18.9,46.2,14.2L46.2,14.2
			 M47.4,28.5c-0.9,0-1.8-0.1-2.7-0.1c0.4-4.6,0.8-9.2,1.2-13.8C46.4,19.2,46.9,23.9,47.4,28.5"/>
	</g>
	<g>
		<path fill="#FFFFFF" stroke="#FFFFFF" stroke-width="0.5" stroke-miterlimit="10" d="M43,52.6l-0.4-2c-0.1-0.3-0.2-0.6-0.3-1
			L42,49.9c0.1,0.3,0.2,0.6,0.2,0.8c-0.2,0-0.5-0.1-0.8-0.1L41.2,51c0.4,0,0.8,0.1,1.1,0.2C42.5,51.6,42.8,52.1,43,52.6"/>
		<path fill="#FFFFFF" stroke="#FFFFFF" stroke-width="0.5" stroke-miterlimit="10" d="M50.8,89.2c-0.8-1-1.9-1.8-3.1-2.4
			c1-0.1,1.8-0.2,2.5-0.5L50.1,86c-1,0.4-2.1,0.6-3.4,0.5c-2.8-0.2-4.9-1.3-6.2-2.9c2.6-0.5,4.6-1.699,6.2-3.199
			c0.8,1.399,1.8,2.6,3,3.5l-0.1-0.5c-1.1-0.9-2-2-2.7-3.2c0.5-0.601,1.1-1.2,1.6-1.8L48.4,78c-0.5,0.6-1.1,1.3-1.7,1.9
			c-0.8-1.601-1.6-3.301-2.2-5.2c0.9-0.8,1.8-1.5,2.7-2.4L47.1,71.9C46.3,72.8,45.4,73.6,44.4,74.3c-0.5-1.7-0.9-3.5-0.9-5.6
			c0.9-0.5,1.8-1,2.6-1.601L46,66.6C45.2,67.2,44.4,67.7,43.5,68.2c0-1.2,0.1-2.3,0.3-3.4c0.6-0.2,1.2-0.5,1.7-0.7l-0.1-0.3
			c-0.5,0.3-1,0.5-1.6,0.7c0-0.4,0.3-0.6,0.6-0.9c0.3-0.199,0.5-0.399,0.8-0.6l-0.1-0.4c-0.2,0.101-0.3,0.2-0.5,0.301
			c0.1-0.2,0.3-0.4,0.4-0.7l-0.1-0.5c-0.2,0.399-0.5,0.8-0.8,1.2c0.1-0.5,0.4-1.101,0.5-1.601c0.1,0,0.1,0,0.2,0l-0.2-1.1
			c-0.6,0.1-1.2,0.3-1.6,0.4c0.5-0.4,1-0.8,1.4-1.2L44.3,59l0,0c-0.4-0.1-0.7-0.1-1-0.2c0.2-0.3,0.5-0.5,0.8-0.7h0.1l-0.1-0.4
			c0,0-0.1,0-0.1,0.1c-0.6-0.2-1.2-0.3-1.8-0.4c0.5-0.1,1.2-0.3,1.7-0.5l-0.1-0.6c-0.1,0-0.1-0.1-0.2-0.1c0,0,0.1,0,0.1-0.1V56
			c-0.1,0.1-0.3,0.1-0.4,0.1c-0.4-0.3-0.8-0.7-1.2-1.1c0.5,0.2,1.1,0.6,1.6,0.9l-0.1-0.5c-0.3-0.2-0.7-0.4-1-0.6
			c0.3,0,0.6,0.1,0.9,0.1l-0.1-0.3c-0.7-0.1-1.4-0.2-2.1-0.4c-0.1-0.1-0.2-0.2-0.2-0.3c0.7-0.1,1.4-0.2,2.1-0.2l-0.1-0.3
			c-0.8,0-1.6,0.1-2.3,0.2c-0.3-0.4-0.6-0.7-0.8-1.1l-0.2,0.3c0.2,0.3,0.4,0.6,0.6,0.9c-0.5,0.1-1.1,0.2-1.6,0.4l-0.3,0.4
			c0.7-0.2,1.4-0.4,2.2-0.5c0.1,0.2,0.4,0.3,0.4,0.6c0.1,0,0.1,0,0.2,0.1c0.5,0.6,1.1,1.1,1.7,1.6c-0.7,0.3-1.4,0.6-2,1
			c-0.1,0-0.1,0-0.2,0c-0.1,0.2-0.4,0.3-0.6,0.5c-1-0.5-1.9-1.1-2.8-1.7l-0.2,0.3c0.8,0.6,1.7,1.1,2.7,1.6c-0.8,0.6-1.5,1.2-2.3,2
			c-0.1,0.1-0.2,0.3-0.3,0.3c-0.1,0-0.5-0.2-0.7-0.2c-0.5-0.2-1.1-0.4-1.6-0.7l-0.2,0.3c0.7,0.3,1.5,0.6,2.2,0.9
			c-1.2,1.4-2.4,2.9-3.3,4.7c-0.9-0.2-1.8-0.3-2.7-0.6L30.8,65c0.9,0.2,1.8,0.4,2.8,0.6C32.8,67.3,32,69,31.5,70.9
			c-1.7,0-3.1-0.4-4.4-0.9l-0.2,0.3c1.3,0.5,2.7,0.9,4.5,0.9c-0.7,2-0.5,5.1,0.1,7c-2.1-0.5-3.6-1.7-4.8-3.101
			c-0.6-0.699-1.1-1.6-1.5-2.5l0,0L25,72.9c0.1,0.199,0.2,0.399,0.2,0.5c-0.1,0-0.2-0.2-0.4-0.2c0,0,0,0-0.1,0l-0.2,0.3
			c0.4,0.3,0.8,0.6,1.1,0.9C25.8,74.6,25.9,74.8,26,75c0.3,0.4,0.6,0.7,0.9,1.2c0.5,1.1,1.2,3,0.7,4.6c0,0.101-0.1,0.2,0,0.3l0,0
			c0.1,0.2,0.3,0,0.4,0c1.6-0.5,3.6,0,4.7,0.5c0.3,0.101,0.5,0.301,0.8,0.5c0.5,0.4,1.1,0.601,1.6,0.9c0.2,0.2,0.5,0.3,0.8,0.5
			c0.3,0.1,0.6,0.2,0.8,0.4c0.5,0.3,0.9,0.8,1.3,1.199c0.6,0.7,1.3,1.7,1.6,2.801c0.1,0.199,0,0.5,0.2,0.399
			c0.1,0.101,0.2,0,0.3-0.1c0.9-0.9,2.4-1.4,4-1.601c0.7-0.1,1.2,0,1.8,0.101c0.3,0,0.6,0.1,0.9,0.1c1.8,0.601,3.3,1.601,4.1,3.101
			l0,0l0,0L50.8,89.2z M46.4,80c-1.1,1.2-2.6,2.1-4.4,2.8c-0.3,0.101-0.5,0.2-0.9,0.3c-0.3,0.101-0.8,0.2-1,0.2
			c-0.1,0-0.3-0.3-0.4-0.5c-0.9-1.3-1.6-2.7-2-4.5c2.4-0.899,4.5-2.2,6.5-3.6C44.8,76.6,45.5,78.4,46.4,80 M43.9,73.7
			c0,0.2,0.2,0.6,0.2,0.6c0,0.101-0.5,0.4-0.7,0.601c-0.8,0.5-1.5,1-2.3,1.399C40,76.9,39,77.5,37.7,77.9
			c-0.3-2.2-0.2-5.101,0-7.301c2-0.399,3.8-1,5.4-1.8C43.2,70.4,43.5,72.3,43.9,73.7 M43.1,68.4c-1.5,0.899-3.4,1.5-5.3,1.899
			c0.2-1.6,0.6-3.1,1.1-4.399c1.6-0.101,3.1-0.4,4.4-0.9c0,0.2,0,0.5-0.1,0.8C43.1,66.5,43.1,67.4,43.1,68.4 M44.1,62.1
			c-0.2,0.601-0.3,1.2-0.6,1.801c0.1,0.199-0.1,0.5-0.1,0.699c-1.3,0.5-2.8,0.801-4.4,0.9c0.6-1.5,1.3-2.8,2.1-4
			c0.3,0,0.6,0,0.7,0.1c0.3-0.1,0.8,0,1.3,0c0.4,0,0.8,0,1.1-0.1C44.3,61.7,44.2,61.9,44.1,62.1 M44.6,60.7c0,0.1-0.1,0.3-0.2,0.4
			c-0.5,0.1-1.1,0.1-1.7,0.1C43.3,61,44,60.9,44.6,60.7 M44,59.5c-0.7,0.7-1.4,1.2-2.3,1.7c-0.1-0.1-0.3,0-0.3,0
			c0-0.1,0.1-0.2,0.1-0.2c0.4-0.6,1-1.2,1.5-1.7l0,0C43.4,59.3,43.7,59.5,44,59.5 M43.3,56.6c0.1,0.1,0.2,0.2,0.4,0.2
			c-0.5,0.2-1.2,0.3-1.8,0.5C42.3,57,42.8,56.8,43.3,56.6 M40.9,57.8c1,0,1.9,0.2,2.8,0.4c-0.2,0.3-0.5,0.5-0.8,0.7
			c-0.8-0.2-1.6-0.5-2.3-0.9C40.6,57.9,40.8,57.9,40.9,57.8 M40.2,58.3c0.7,0.3,1.5,0.6,2.4,0.9c0,0.1-0.1,0.1-0.2,0.2
			c-0.5,0.5-1,1.2-1.5,1.7c-1.2-0.1-2.3-0.4-3.3-0.7C38.4,59.6,39.3,58.9,40.2,58.3 M37.4,60.7c1.1,0.3,2.1,0.6,3.3,0.7
			c-0.8,1.2-1.5,2.6-2.1,4c-1.5,0.1-3.2,0-4.5-0.2C35,63.6,36.1,62,37.4,60.7 M33.9,65.6c1.4,0.2,3,0.301,4.6,0.2
			c-0.5,1.4-0.9,2.9-1.1,4.5c-1.7,0.4-3.6,0.601-5.7,0.601C32.3,69,33,67.2,33.9,65.6 M31.6,71.3c2.1,0,4-0.2,5.7-0.6
			c-0.2,2.2-0.4,5.1,0,7.399c-1.5,0.4-3.7,0.7-5.5,0.301C31.1,76.5,30.9,73.3,31.6,71.3 M33.2,81.4c-1.3-0.7-3.4-1.101-5.2-0.7
			c0.3-1.5,0-3.101-0.5-4.2c1.1,0.9,2.4,1.7,4.2,2.1c0.3,1,0.9,1.801,1.5,2.601C33.1,81.3,33.2,81.3,33.2,81.4 M35,82.5
			c-0.6-0.4-1.3-1.1-1.7-1.6c-0.5-0.601-1-1.4-1.2-2.101c1.8,0.3,3.9,0.101,5.4-0.3c0.1,0.2,0.2,0.4,0.2,0.7
			c0.5,1.6,1.2,3.1,2.1,4.2c-0.9,0.1-1.8,0.1-2.6-0.101C36.3,83.1,35.5,82.9,35,82.5 M39.9,87.8c-0.5-1.899-1.7-3.2-3.1-4.3
			c0.6,0.1,1.8,0.2,2.8,0.1c0.1,0,0.3-0.1,0.4,0c0.1,0,0.3,0.301,0.4,0.4c0.9,1,2.1,1.7,3.5,2.2C42.2,86.5,40.9,87,39.9,87.8"/>
		<path fill="#FFFFFF" stroke="#FFFFFF" stroke-width="0.5" stroke-miterlimit="10" d="M44.1,49.9c-0.5,0.5-0.9,0.9-1.4,1.4l0.1,0.4
			c0.1-0.1,0.3-0.3,0.4-0.4c0.4-0.4,0.8-0.9,1.2-1.3L44.1,49.9z"/>
		<path fill="#FFFFFF" stroke="#FFFFFF" stroke-width="0.5" stroke-miterlimit="10" d="M42.2,49.2v0.2c0.1,0,0.2-0.1,0.3-0.1
			L42.2,49.2z"/>
		<path fill="#FFFFFF" stroke="#FFFFFF" stroke-width="0.5" stroke-miterlimit="10" d="M45.1,50.3c-0.6,1.3-1.2,2.7-1.8,4l0.1,0.6
			c0.7-1.5,1.3-3,2-4.5L45.1,50.3z"/>
		<path fill="#FFFFFF" stroke="#FFFFFF" stroke-width="0.5" stroke-miterlimit="10" d="M79.7,79.3v-0.5l0,0v-1.1l0,0V76.6l0,0v-1.1
			l0,0v-1.1l0,0V73.3l0,0v-1.1l0,0V71l0,0v-0.8c0-0.101,0-0.2,0-0.3l0,0c3.1-1.2,6.1-2.301,9.1-3.5l-0.5-0.2
			c-2.899,1.1-5.8,2.2-8.6,3.3c0,0,0-0.1,0-0.2v-0.5l0,0v-1.1l0,0V66.6l0,0v-1.1l0,0v-1.1l0,0V63.3l0,0V63l-0.4-0.1v0.5l0,0v1.1l0,0
			v1.1l0,0V66.7l0,0v1.1l0,0V68.9l0,0v0.6c0,0.1,0,0.2,0,0.3c-2.7,1-5.399,2.101-8.1,3.101C72,71,72.9,69.1,73.8,67.1
			c0.101-0.3,0.2-0.6,0.4-0.8c0.1-0.2,0.399-0.399,0.6-0.7c1-1,2-2.1,3.101-3.199L77.5,62.3c-0.6,0.601-1.2,1.2-1.7,1.8
			c-0.3,0.4-0.7,0.7-1,1.101l-0.1,0.1c0.399-1,0.899-2,1.399-3.1c0.101-0.101,0.101-0.3,0.2-0.4L76,61.7c-0.5,1.1-0.9,2.1-1.4,3.2
			C74.4,65.3,74.3,65.7,74.1,66.1C73.9,66.4,73.5,66.7,73.2,67.1c-0.9,1-1.8,1.9-2.7,2.801v-0.2v-0.8l0,0V67.8l0,0v-1.1l0,0V65.6
			l0,0v-1.1l0,0v-0.8c1.8-0.7,3.5-1.4,5.3-2l-0.5-0.2c-1.6,0.6-3.1,1.2-4.7,1.8c-0.1,0.101-0.1-0.1-0.1-0.2V62l0,0v-1.1l0,0v-1.1
			l0,0v-0.4l-0.4-0.1v0.5l0,0v1.1l0,0V62l0,0v0.8c0,0.101,0,0.2,0,0.3l0,0c-1.5,0.7-3.199,1.2-4.8,1.9c-0.2-0.1-0.399-0.3-0.5-0.5
			c0.5-1.3,1.101-2.5,1.601-3.8c0.699-0.7,1.3-1.4,2-2.1L68,58.5l-0.1,0.1c-0.301,0.3-0.601,0.7-0.9,1l-0.1,0.1
			c0.199-0.5,0.399-0.9,0.6-1.4l-0.3-0.1c-0.2,0.6-0.5,1.1-0.7,1.7c-0.1,0.2-0.2,0.4-0.3,0.6c-0.101,0.2-0.3,0.3-0.5,0.5
			c-0.5,0.5-1,1-1.5,1.5v-0.8l0,0v-1.1l0,0v-1.1l0,0v-0.3c0.899-0.4,1.8-0.7,2.8-1.1L66,58c-0.8,0.3-1.5,0.6-2.3,0.9v-0.4l0,0v-1.1
			l0,0v-0.2L63.3,57v0.4l0,0v1.1l0,0V59c-1.1,0.4-2.3,0.9-3.399,1.3C59.8,60.2,59.6,60.1,59.6,60c0.2-0.5,0.4-0.9,0.601-1.4
			c0.2-0.4,0.399-0.9,0.6-1.3c0.2-0.3,0.601-0.6,0.9-0.9l-0.3-0.1H61.3l0,0L61,56.1c0,0.1-0.1,0.2-0.1,0.3
			C60.8,56.6,60.7,56.8,60.6,57c-0.1,0.2-0.3,0.3-0.5,0.5c-0.5,0.5-1,1.1-1.5,1.5c-1.899-1.8-3.7-3.7-5.6-5.4
			c-0.3-0.2-0.5-0.5-0.8-0.8l-0.8-0.3c1.9,1.8,3.7,3.6,5.6,5.4c0.3,0.3,0.7,0.7,1.1,1c0.101,0.1,0.4,0.3,0.4,0.3s-0.2,0.3-0.3,0.3
			c-0.601,0.6-1,1-1.5,1.6c-0.2,0.2-0.4,0.5-0.601,0.6c-0.2,0.1-0.6,0.2-0.8,0.3c-0.8,0.3-1.6,0.7-2.5,1c-1.5-3.9-3-7.8-4.5-11.8
			L47.9,51c0.1,0.3,0.3,0.7,0.4,1c1.4,3.7,2.9,7.4,4.2,11c-0.6,0.2-1.3,0.5-1.9,0.7c-0.3,0.1-0.5,0.3-1,0.2h-0.5l0,0H48l0,0h-0.8
			v-1.2l0,0V62l0,0v-1.1l0,0v-1.1l0,0v-1.1l0,0v-1.1l0,0v-1.1l0,0v-1.1l0,0v-1.1l0,0v-1.1l0,0v-1.1l0,0V51l0,0v-0.1l-0.4-0.1V51l0,0
			v1.1l0,0v1.1l0,0v1.1l0,0v1.1l0,0v1.1l0,0v1.1l0,0v1.1l0,0v1.1l0,0v1.1l0,0V62l0,0v1.1l0,0V64.2l0,0c0.1,0.2-0.1,0.1-0.2,0.1h-0.8
			l0,0h-0.1l0.1,0.4l0,0l0,0h1V65c0,0.1,0,0.2,0,0.3v0.2c-0.2,0.1-0.4,0.1-0.6,0.2c-0.1,0-0.2-0.101-0.3-0.101l0.1,0.5
			c0.1,0,0.1,0,0.1,0c0.2,0,0.4,0.2,0.6,0.301c0,0.1,0,0.199,0,0.399v0.8l0,0V68.7l0,0v1.1l0,0v0.5l0.4,2c1-0.399,1.9-0.7,2.9-1.1
			c0.5-0.2,0.8-0.4,1.4-0.4H52l0,0h1.1l0,0h1.1l0,0h1c0,0.101,0.2,0.4,0.2,0.601c0,0.1-0.3,0.399-0.4,0.5c-0.4,0.5-0.9,1-1.3,1.399
			c-0.7,0.7-1.2,1.3-1.8,1.8c-1.5-0.699-3-1.3-4.5-2l0.1,0.4c1.4,0.6,2.7,1.2,4.1,1.8c-0.3,0.4-0.7,0.7-1,1.101
			c-0.6,0.699-1.3,1.399-2,2.1l0.1,0.4c1.1-1.2,2.2-2.4,3.4-3.4c1.9,0.8,3.8,1.7,5.7,2.5c-1.399,0.6-2.8,1.1-4.2,1.7
			c-0.3,0.1-0.6,0.3-1.1,0.2H52l0,0h-1.1l0,0h-1.1l0,0H49l0.1,0.399h0.7l0,0h1.1l0,0h0.8c0.1,0,0.2,0,0.2,0c-0.9,0.3-1.8,0.7-2.7,1
			l0.1,0.3c1.2-0.5,2.4-0.899,3.7-1.399c0.1,0,0.2,0,0.3,0H54l0,0h1.1l0,0h1.1l0,0h1.1l0,0H58.4l0,0h1.1l0,0h0.6
			c0,0-0.1,0.1-0.1,0.2c-1.5,1.5-2.9,3-4.4,4.5c-0.5,0.5-1,1.1-1.5,1.6c-1.4-0.6-2.8-1.3-4.2-1.9L50,85c1.3,0.6,2.6,1.2,3.9,1.7
			c0,0.1-0.2,0.2-0.2,0.3c-0.9,0.9-1.8,1.8-2.6,2.7l0.1,0.399c0.9-1,1.9-1.899,2.7-2.899c0.1-0.101,0.3-0.3,0.5-0.4
			c2.9,1.3,5.9,2.601,8.9,3.9c1.601-3.601,3.2-7.2,4.8-10.8h0.5l0,0H69.7l0,0h1.1l0,0H71.9l0,0H73l0,0h1.1l0,0H75.2l0,0h1.1l0,0
			H77.4l0,0h0.3c0.1,0,0.2,0,0.3,0h0.5l0,0h1.1l0,0H79.9C79.8,79.7,79.7,79.4,79.7,79.3 M46.6,66c0,0-0.2,0-0.1-0.1
			c0.1,0,0.1,0,0.1,0C46.7,65.8,46.6,65.9,46.6,66 M70.1,70.4c0-0.101,0-0.101,0-0.2C71.2,69.1,72.2,68,73.3,66.9
			c-0.899,2-1.8,4.1-2.7,6.1c-1.699,0.6-3.3,1.3-5,1.9C65.5,74.8,65.7,74.7,65.8,74.6C67.2,73.2,68.5,71.7,69.9,70.4H70.1z
			 M56.5,70.7h1l0,0h1.1l0,0H59.7l0,0h1.1l0,0h0.5c-1,2.3-2.1,4.7-3.1,7c-0.7-1.8-1.5-3.9-2.2-5.8c0-0.101-0.1-0.301-0.1-0.4
			C55.8,71.2,56.4,70.9,56.5,70.7 M55.7,71c-0.1-0.1-0.1-0.2-0.1-0.4H56c0,0,0,0,0,0.101C55.9,70.8,55.8,70.9,55.7,71 M54.5,69
			c-0.2,0.1-0.4,0.1-0.5,0.2c-1.1-0.5-2.2-1-3.3-1.4c0.8-0.8,1.6-1.7,2.4-2.5C53.6,66.6,54.1,67.8,54.5,69 M53.2,64.5h0.2
			c0,0.1-0.1,0.1-0.1,0.1C53.2,64.6,53.2,64.6,53.2,64.5 M54.6,69.3c0.1,0,0.1,0.101,0.1,0.2c-0.1,0-0.2-0.1-0.3-0.1
			C54.5,69.4,54.6,69.4,54.6,69.3 M53.4,65.1c0.1-0.199,0.3-0.399,0.5-0.5h0.5l0,0h1.1l0,0h1.1l0,0h0.7c-0.6,1.4-1.2,2.801-1.8,4.2
			C55.3,68.9,55.1,68.9,54.9,69C54.4,67.6,53.9,66.3,53.4,65.1 M57.6,64.5c0-0.1,0.2,0,0.4,0h0.8l0,0H59.9l0,0H61l0,0h0.8
			c0.101,0,0.101,0,0.2,0c-0.6,0.6-1.3,1.4-2,2.1c-0.2,0.2-0.4,0.5-0.7,0.7C59,67.4,58.7,67.5,58.4,67.6c-0.9,0.301-1.7,0.7-2.601,1
			C56.4,67.2,57,65.8,57.6,64.5 M59.6,67.4c1.2-0.4,2.4-0.9,3.7-1.4c-0.6,1.4-1.2,2.8-1.8,4.2h-0.6l0,0H59.8l0,0h-1.1l0,0H57.6l0,0
			H57c0-0.101,0.2-0.2,0.3-0.4C58,69.1,58.8,68.2,59.6,67.4 M61.7,70.6h0.2l0,0H63l0,0h1.1l0,0H65.2l0,0h1.1l0,0H67.4l0,0h1.1l0,0
			h0.6c0.101,0,0.301,0,0.301,0c-1.301,1.301-2.7,2.801-4,4.2C65.2,75,65,75.3,64.8,75.4c-0.2,0.1-0.5,0.199-0.8,0.3
			c-1.8,0.7-3.6,1.399-5.4,2.1C59.6,75.3,60.6,72.9,61.7,70.6 M69.6,63.6V63.7v0.5l0,0v1.1l0,0V66.4l0,0v1.1l0,0v1.1l0,0
			c0,0.101,0,0.2,0,0.301v0.5c0,0.1,0,0.199,0,0.3v0.1c-1.6-1.5-3.1-3-4.699-4.5C66.6,64.7,68.1,64.2,69.6,63.6 M64.7,65.5
			c1.6,1.5,3.1,3,4.6,4.4c0.101,0,0.101,0.1,0.2,0.1h-0.1H68.6l0,0h-1.1l0,0h-1.1l0,0H65.3l0,0h-1.1l0,0H63l0,0h-0.8
			c-0.101,0-0.2,0-0.3,0l0,0c0-0.2,0.1-0.4,0.199-0.5c0.601-1.2,1.2-2.6,1.7-3.9C64.1,65.7,64.4,65.6,64.7,65.5 M64.5,65.2
			c-0.1,0.1-0.3,0.1-0.5,0.2c0.1-0.101,0.1-0.301,0.2-0.4C64.3,65,64.3,65.1,64.5,65.2 M63.8,63.7V63.1c0.4-0.399,0.9-1,1.3-1.399
			c0,0,0.101-0.1,0.2-0.1c-0.399,0.9-0.8,1.8-1.2,2.8C64,64.4,63.9,64.3,63.9,64.2C63.8,64,63.8,63.8,63.8,63.7 M63.9,64.7
			C63.8,65,63.6,65.3,63.5,65.6c-1.1,0.4-2.2,0.9-3.3,1.301c0.8-0.801,1.6-1.601,2.3-2.4h0.6l0,0H63.4
			C63.7,64.4,63.8,64.6,63.9,64.7 M63.1,63.9L63.1,63.9C63.2,64,63.2,64,63.2,64.1h-0.3C62.9,64,63,63.9,63.1,63.9 M63.5,63.8
			c-0.1,0-0.1-0.1-0.1-0.1c0-0.101,0.1-0.101,0.1-0.101C63.5,63.4,63.4,63.7,63.5,63.8 M63.3,59.4C63.4,59.4,63.4,59.4,63.3,59.4
			C63.4,59.4,63.4,59.4,63.3,59.4c0.101,0,0,0.2,0,0.4C63.4,59.6,63.4,59.4,63.3,59.4c0,0.2,0,0.3,0,0.5v0.8l0,0v1.1l0,0v0.8
			c0,0.101,0,0.2,0,0.301C63.2,63.1,63,63.3,62.9,63.4C62,62.5,61,61.6,60.1,60.6C61.3,60.2,62.3,59.8,63.3,59.4 M59.8,60.8
			c0.8,0.7,1.8,1.7,2.601,2.5c0.1,0.101,0.399,0.3,0.399,0.4c0,0.1-0.399,0.3-0.399,0.399H62.1l0,0H61l0,0h-1.1l0,0H58.8l0,0h-1
			c0.4-1.1,0.9-2.1,1.4-3.1C59.4,60.9,59.6,60.8,59.8,60.8 M59.4,60.5c0-0.1,0-0.1,0.1-0.1c0,0,0.1,0,0.1,0.1
			C59.5,60.5,59.4,60.5,59.4,60.5 M60.1,58.1c-0.199,0.6-0.5,1.1-0.699,1.7c-0.2-0.1-0.4-0.3-0.5-0.5C59.3,58.9,59.7,58.4,60.1,58.1
			 M56.9,61.4c0.5-0.5,0.899-1,1.5-1.5l0.199-0.2c0.101,0,0.301,0.2,0.301,0.3c0.1,0.1,0.199,0.2,0.3,0.3C59.1,60.5,59,60.7,59,60.9
			c-0.7,0.3-1.5,0.6-2.2,0.9C56.7,61.5,56.9,61.4,56.9,61.4 M56.1,62.2c0.4-0.2,0.9-0.3,1.301-0.5c0.399-0.2,0.8-0.4,1.3-0.5
			c-0.4,1-0.9,2-1.3,2.899H56.6l0,0h-1.1l0,0h-0.8c-0.1,0-0.2,0-0.3,0h-0.1c-0.1,0,0-0.1,0.1-0.1c0.4-0.5,0.9-1,1.4-1.4
			C55.8,62.5,56,62.3,56.1,62.2 M55.3,62.5c0,0-0.1,0.1-0.1,0.2c-0.5,0.5-1,1-1.5,1.5h-0.4l0,0c-0.1,0-0.2,0-0.2,0
			c-0.1-0.2-0.2-0.5-0.3-0.7C53.6,63.1,54.5,62.8,55.3,62.5 M50.8,64.2c0.5-0.2,1.1-0.4,1.6-0.601c0.1,0.2,0.1,0.4,0.2,0.601h-0.5
			l0,0H51l0,0C51,64.2,50.7,64.3,50.8,64.2 M47,65c0-0.1,0-0.3,0-0.4h0.8l0,0h0.6c0.1,0,0.3,0,0.4,0c-0.6,0.2-1.1,0.4-1.7,0.601
			C46.9,65.4,47,65.1,47,65 M47,65.7c0.9-0.4,1.9-0.7,2.8-1.101c0.1,0,0.3,0,0.5,0h0.8l0,0h1.1l0,0h0.6c0.1,0.101,0.1,0.2,0.1,0.4
			c-0.4,0.5-0.8,0.9-1.3,1.4c-0.4,0.5-0.9,0.899-1.3,1.3c-1.1-0.5-2.2-1-3.4-1.5C47,66,47,65.9,47,65.7 M47.1,69.7V68.6l0,0v-1.1
			l0,0v-1c1,0.5,2.1,0.9,3.1,1.4c-0.8,0.899-1.6,1.699-2.5,2.6c-0.1,0-0.2,0-0.4,0h-0.2V69.7L47.1,69.7z M47.3,70.9
			c0,0.1-0.1,0.1-0.2,0.199V70.9C47.2,70.9,47.3,70.8,47.3,70.9 M47.1,71.9v-0.2c0.2-0.3,0.5-0.5,0.7-0.8h0.9l0,0h0.8
			c0.1,0,0.2,0,0.3,0H50C49,71.2,48.1,71.5,47.1,71.9 M50.9,70.4c-0.1,0-0.2,0-0.3,0h-0.8l0,0h-1.1l0,0h-0.5
			c0-0.101,0.1-0.101,0.1-0.101c0.7-0.8,1.5-1.5,2.2-2.3c1,0.5,2,0.9,3,1.4C52.6,69.7,51.8,70.1,50.9,70.4 M54.2,70.3L54.2,70.3
			h-1.1l0,0c-0.1,0-0.2,0-0.3,0h-0.5c-0.1,0-0.2,0-0.2,0c0.4-0.1,1-0.399,1.5-0.6c0.2-0.101,0.4-0.2,0.5-0.2c0.2,0,0.3,0.1,0.5,0.2
			c0.2,0.1,0.3,0.1,0.5,0.2c0,0.1,0.1,0.199,0.1,0.3h-1V70.3z M55.1,69.4c0-0.101-0.1-0.101-0.1-0.2c0.1,0,0.1-0.101,0.2-0.101
			C55.2,69.3,55.1,69.3,55.1,69.4 M55.2,69.9c0.1-0.301,0.3-0.601,0.4-1c1.1-0.4,2.1-0.801,3.1-1.2c0,0.1-0.101,0.1-0.101,0.1
			c-0.699,0.8-1.5,1.5-2.199,2.3c0,0.101-0.2,0.101-0.4,0.101h-0.7C55.3,70.2,55.3,70,55.2,69.9 M52.2,75.2c0.9-1,2-2.101,3-3.101
			c0.1-0.1,0.2-0.3,0.4-0.399c0.8,2,1.5,4,2.3,6C56,76.9,54.1,76,52.2,75.2 M60,79.7h-0.5l0,0c-0.1,0-0.2,0-0.3,0h-0.8l0,0H57.3l0,0
			h-1.1l0,0h-1.1l0,0h-0.8c-0.1,0-0.2,0-0.3,0h-0.2c1.1-0.5,2.5-1,3.7-1.4c0.3-0.1,0.5-0.3,0.7-0.1c0.1,0,0.1-0.2,0.1-0.2
			c1.9-0.7,3.9-1.5,5.8-2.2C64.1,75.9,64,76,63.9,76c-1,1.1-2.101,2.1-3.101,3.2C60.7,79.5,60.5,79.8,60,79.7 M67.5,80
			c-1.5,3.5-3,6.9-4.6,10.3c-2.9-1.2-5.601-2.5-8.5-3.7c0-0.1,0.2-0.3,0.3-0.399c0.9-0.9,1.8-1.9,2.7-2.8c1-1.101,2.1-2.101,3.1-3.2
			c0,0,0.2,0,0.3,0h0.8l0,0H62.7l0,0h1.1l0,0H65l0,0h1.1l0,0H67.2l0,0C67.3,79.9,67.5,79.9,67.5,80 M67.7,79.6h-0.4l0,0h-1.1l0,0H65
			l0,0h-1.1l0,0H62.8l0,0h-1.1l0,0h-0.3c-0.2,0-0.301,0-0.4,0c0-0.1,0.1-0.199,0.2-0.199c1.2-1.301,2.6-2.7,3.8-4
			c1.8-0.7,3.6-1.4,5.4-2.101C69.5,75.5,68.6,77.5,67.7,79.6 M79.1,79.4h-0.8l0,0h-1.1l0,0H76.1l0,0H75l0,0h-1.1l0,0H72.8l0,0h-1.1
			l0,0H70.6l0,0h-1.1l0,0h-1.1l0,0c-0.101,0-0.301,0-0.301,0C69,77.3,70,75.2,70.9,73.1C73.7,72,76.5,70.9,79.3,69.9v1l0,0V72l0,0
			v1.1l0,0V74.2l0,0v1.1l0,0v0.3c0,0.101,0,0.2,0,0.301v0.5l0,0v1.1l0,0v1.1l0,0V79.2C79.5,79.4,79.2,79.3,79.1,79.4"/>
	</g>
</g>
</svg>
