<?xml version="1.0" encoding="utf-8"?>
<!-- Generator: Adobe Illustrator 16.0.0, SVG Export Plug-In . SVG Version: 6.00 Build 0)  -->
<!DOCTYPE svg PUBLIC "-//W3C//DTD SVG 1.1//EN" "http://www.w3.org/Graphics/SVG/1.1/DTD/svg11.dtd">
<svg version="1.1" id="Layer_1" xmlns="http://www.w3.org/2000/svg" xmlns:xlink="http://www.w3.org/1999/xlink" x="0px" y="0px"
	 width="111px" height="123px" viewBox="0 0 111 123" style="enable-background:new 0 0 111 123;" xml:space="preserve">
<style type="text/css">
<![CDATA[
	.st0{fill:#FFFFFF;}
	.st1{fill:#010101;}
	.st2{fill-rule:evenodd;clip-rule:evenodd;fill:#FFFFFF;}
]]>
</style>
<g>
	<path class="st1" d="M10.8,106.1v-0.4l1.1-0.2l-0.4-1.5l-0.6-1.8H7.7L7,103.9l-0.4,1.5l1.2,0.2v0.4H4.5v-0.4l1.2-0.2l0.7-1.5l2.9-8
		H10l2.8,8l0.7,1.5l1.1,0.2v0.4H10.8z M9.3,97.4l-1.4,4.1h2.9L9.3,97.4z"/>
	<polygon class="st1" points="24.4,98.4 24.1,96.8 22.6,96.7 21.4,96.7 21.4,103.9 21.5,105.4 22.8,105.6 22.8,106.1 18.8,106.1 
		18.8,105.6 20.1,105.4 20.2,103.9 20.2,96.7 19,96.7 17.5,96.8 17.1,98.4 16.5,98.4 16.7,96.1 24.9,96.1 25,98.4 	"/>
	<polygon class="st1" points="36,98.4 35.7,96.8 34.2,96.7 33,96.7 33,103.9 33.1,105.4 34.4,105.6 34.4,106.1 30.4,106.1 
		30.4,105.6 31.7,105.4 31.9,103.9 31.9,96.7 30.6,96.7 29.1,96.8 28.8,98.4 28.2,98.4 28.3,96.1 36.5,96.1 36.6,98.4 	"/>
	<polygon class="st1" points="47.3,106.1 40.1,106.1 40.1,105.6 41.4,105.4 41.5,103.9 41.5,98.3 41.4,96.7 40.1,96.5 40.1,96.1 
		47.1,96.1 47.2,98.6 46.6,98.6 46.3,96.9 44.9,96.7 42.6,96.7 42.6,100.6 43.9,100.6 45.1,100.5 45.3,99.2 45.8,99.2 45.8,102.7 
		45.3,102.7 45.1,101.4 43.9,101.2 42.6,101.2 42.6,103.9 42.8,105.2 44,105.5 45.2,105.5 46.5,105.2 46.9,103.7 47.5,103.7 	"/>
	<polygon class="st1" points="60,96.7 59.8,98.3 59.8,106.3 59,106.3 57.5,103.9 53.3,97.4 53.3,103.9 53.4,105.4 54.7,105.7 
		54.7,106.1 51.3,106.1 51.3,105.7 52.5,105.4 52.7,103.9 52.7,98.3 52.5,96.7 51.3,96.5 51.3,96.1 53.9,96.1 55.1,98.3 59.2,104.5 
		59.2,98.3 59.1,96.7 57.8,96.5 57.8,96.1 61.3,96.1 61.3,96.5 	"/>
	<polygon class="st1" points="72.6,98.4 72.3,96.8 70.8,96.7 69.5,96.7 69.5,103.9 69.7,105.4 71,105.6 71,106.1 67,106.1 67,105.6 
		68.3,105.4 68.4,103.9 68.4,96.7 67.2,96.7 65.6,96.8 65.3,98.4 64.7,98.4 64.9,96.1 73,96.1 73.2,98.4 	"/>
	<polygon class="st1" points="76.7,106.1 76.7,105.6 77.9,105.4 78.1,103.9 78.1,98.3 77.9,96.7 76.7,96.5 76.7,96.1 80.6,96.1 
		80.6,96.5 79.4,96.7 79.2,98.3 79.2,103.9 79.4,105.4 80.6,105.6 80.6,106.1 	"/>
	<polygon class="st1" points="92.8,96.7 92.1,98.3 90.2,103.9 89.5,106.3 88.6,106.3 87.8,103.9 85.8,98.3 85.2,96.7 84,96.5 
		84,96.1 87.7,96.1 87.7,96.5 86.6,96.7 87,98.3 89.3,104.8 91.4,98.3 91.8,96.7 90.5,96.5 90.5,96.1 94,96.1 94,96.5 	"/>
	<polygon class="st1" points="104.6,106.1 97.4,106.1 97.4,105.6 98.6,105.4 98.8,103.9 98.8,98.3 98.6,96.7 97.4,96.5 97.4,96.1 
		104.3,96.1 104.5,98.6 103.9,98.6 103.6,96.9 102.1,96.7 99.9,96.7 99.9,100.6 101.1,100.6 102.4,100.5 102.5,99.2 103,99.2 
		103,102.7 102.5,102.7 102.4,101.4 101.1,101.2 99.9,101.2 99.9,103.9 100.1,105.2 101.3,105.5 102.5,105.5 103.8,105.2 
		104.1,103.7 104.7,103.7 	"/>
	<polygon class="st1" points="29.4,117 28.9,117 28.9,109.6 29.4,109.6 29.4,113 32.7,113 32.7,109.6 33.2,109.6 33.2,117 32.7,117 
		32.7,113.5 29.4,113.5 	"/>
	<polygon class="st1" points="42.6,110.1 39.7,110.1 39.7,113 42.2,113 42.2,113.5 39.7,113.5 39.7,116.5 42.7,116.5 42.7,117 
		39.2,117 39.2,109.6 42.6,109.6 	"/>
	<path class="st1" d="M53,117h-0.6l-0.7-2.4h-2.4l-0.7,2.4H48l2.2-7.5h0.6L53,117z M50.5,110.3l-1.1,3.8h2.2L50.5,110.3L50.5,110.3z
		"/>
	<polygon class="st1" points="59.1,109.6 59.1,116.5 62.1,116.5 62.1,117 58.6,117 58.6,109.6 	"/>
	<polygon class="st1" points="66.4,110.1 66.4,109.6 70.5,109.6 70.5,110.1 68.7,110.1 68.7,117 68.2,117 68.2,110.1 	"/>
	<polygon class="st1" points="76.6,117 76.1,117 76.1,109.6 76.6,109.6 76.6,113 79.8,113 79.8,109.6 80.3,109.6 80.3,117 79.8,117 
		79.8,113.5 76.6,113.5 	"/>
</g>
<g>
	<g>
		<path class="st2" d="M39.7,50.1c0,0.1,0,0.3,0,0.4C39.7,50.4,39.7,50.2,39.7,50.1"/>
		<path class="st2" d="M17.6,55.7v0.6C17.6,56.1,17.6,55.8,17.6,55.7"/>
		<path class="st2" d="M35.5,57.8c0.1,0,0.3,0,0.4,0C35.8,57.8,35.6,57.8,35.5,57.8"/>
		<path class="st2" d="M17.6,59.1c0,0.1,0,0.2,0,0.3C17.6,59.4,17.6,59.2,17.6,59.1"/>
		<path class="st2" d="M30.1,65.1c0,0,0.2,0,0.2,0C30.2,65.1,30.1,65,30.1,65.1"/>
		<path class="st2" d="M41,51.3l0.4-0.6c0,0,0-0.1,0-0.1c0,0,0,0,0,0l0.3-0.4c0-0.2-0.1-0.3-0.1-0.5c0-0.2,0.1-0.4,0.2-0.6l-0.3-0.1
			c0,0,0,0,0,0c0,0,0,0,0,0l-0.4-0.1c0,0,0,0.1,0,0.1c0.1,0.2,0.2,0.5,0.2,0.6c0,0.3-0.2,0.7-0.2,1C41.1,51,41.1,51.2,41,51.3"/>
		<path class="st2" d="M24.4,73.2c0.1,0.1,0.1,0.1,0.2,0.2l0.2-0.3c0,0,0,0-0.1-0.1c-0.1-0.1-0.3-0.3-0.4-0.4
			c-0.3-0.4-0.7-0.7-1-1.2c0.5,0.3,0.9,0.7,1.4,1c0.1,0.1,0.1,0.2,0.2,0.4l0.3-0.4c-0.1-0.1-0.2-0.1-0.3-0.2c-0.4-0.8-0.8-1.5-1-2.5
			c0.8,0.4,1.6,0.7,2.5,1c0,0,0,0,0,0l0.3-0.3c-0.2-0.8-0.3-1.7-0.3-2.7c0.7,0.2,1.4,0.3,2.1,0.3l0.2-0.3c-0.9,0-1.6-0.2-2.4-0.4
			c0-1,0.2-2,0.4-2.8c0.9,0.2,1.7,0.4,2.7,0.4c-0.2,0.7-0.3,1.4-0.3,2.2l0.4-0.5c0.1-0.6,0.2-1.1,0.3-1.6h0.2c0,0,0.2,0,0.2,0
			c0.2,0,0.4,0,0.5,0l0.3-0.4c-0.4,0-0.7,0.1-1.1,0.1c0.3-1,0.7-1.8,1.1-2.6c0.1,0,0.2,0,0.3,0c0.6,0,1.2-0.1,1.7-0.2l0.3-0.4
			c-0.6,0.1-1.3,0.2-2.1,0.2c0.4-0.7,0.9-1.3,1.5-1.9c0.1-0.1,0.1-0.2,0.2-0.2h0.4c0.5,0,1-0.1,1.5-0.1l0.3-0.4
			c-0.2,0-0.3,0-0.5,0.1c-0.4,0.1-0.8,0.1-1.3,0.1c0-0.1,0.1-0.1,0.2-0.2c0.5-0.5,1.2-1,1.9-1.3c0.1,0,0.3,0,0.4,0
			c0.1,0,0.2,0,0.3,0l0.3-0.4c-0.1,0-0.2,0-0.3,0c0.1-0.1,0.3-0.1,0.4-0.2l0.4-0.5c-0.4,0.2-0.8,0.4-1.2,0.6
			c-0.2,0.1-0.3,0.2-0.5,0.2c-0.2,0-0.5,0-0.7,0c-0.7,0-1.3-0.2-1.9-0.3c0.3-0.2,0.7-0.4,1.1-0.5c0.4-0.2,0.8-0.4,1.2-0.4
			c0.2,0,0.7,0.1,1,0.2c0.3,0.1,0.6,0.1,0.9,0.1l0.2-0.3c-0.5,0-0.9-0.1-1.3-0.2c0.5-0.2,1-0.2,1.6-0.2l0.3-0.5
			c-0.7-0.2-1.3-0.5-1.8-0.7c0.4,0,0.8,0.1,1.2,0.1c0.3,0.1,0.7,0.1,0.9,0.2l0.2-0.3c-0.7-0.3-1.3-0.8-1.8-1.3
			c0.7,0.2,1.5,0.6,2.1,1l0.2-0.3c-0.6-0.5-1-1.1-1.4-1.8c0.5,0.4,1.1,0.8,1.5,1.2c0.1,0.1,0.1,0.1,0.2,0.2l0.2-0.3
			c-0.4-0.6-0.5-1.3-0.8-2c0.4,0.5,0.8,1,1.1,1.5l0.4-0.5c-0.1-0.5-0.2-1-0.2-1.5c0.2,0.3,0.3,0.7,0.5,1.1l0.2-0.3
			c-0.2-0.4-0.3-0.8-0.5-1.1c-0.1-0.2-0.2-0.3-0.2-0.5c-0.1-0.3,0-0.8,0.1-1.2l-0.3-0.1c0,0.2-0.1,0.4-0.1,0.7
			c-0.2-0.3-0.4-0.6-0.6-0.9l-0.5-0.1c0.4,0.5,0.8,1.1,1.1,1.7c0,0.1,0,0.3,0,0.4c0,0.6,0.1,1.1,0.1,1.6c-0.1,0-0.1-0.1-0.1-0.2
			c-0.2-0.4-0.5-0.7-0.9-1c-0.1-0.1-0.3-0.3-0.4-0.4c-0.2-0.3-0.2-0.8-0.2-1.2c0-0.3-0.1-0.7-0.1-1l-0.3-0.1c0,0.7,0.1,1.3,0.2,1.9
			c-0.6-0.5-1.3-1.1-2-1.5c-0.1-0.3-0.1-0.6-0.2-0.9l-0.4-0.1c0,0.3,0.1,0.5,0.1,0.8c-0.8-0.4-1.6-0.7-2.5-1c0-0.1-0.1-0.3-0.1-0.4
			l-0.4-0.1c0,0.1,0,0.3,0.1,0.4c-0.8-0.2-1.7-0.3-2.7-0.4c-0.1-0.3-0.1-0.5-0.2-0.8L29.5,46c0,0.3,0.1,0.6,0.2,0.9
			c-1,0-1.9,0.2-2.8,0.3c-0.1-0.6-0.3-1.3-0.3-2l-0.3-0.1c0,0.8,0.2,1.5,0.3,2.2c-1,0.2-1.8,0.6-2.6,1c-0.2-0.8-0.3-1.7-0.3-2.8
			c0.5-0.3,1-0.5,1.6-0.7l-0.5-0.1c-0.4,0.1-0.7,0.3-1,0.5c0-0.3,0-0.5,0-0.7l-0.3-0.1c0,0.3-0.1,0.7-0.1,1c-0.8,0.4-1.5,1-2.2,1.6
			c0.1-0.9,0.2-1.8,0.4-2.6c0.1-0.1,0.3-0.2,0.4-0.4l-0.6-0.2c0,0.1-0.1,0.2-0.1,0.4c-0.1,0.1-0.1,0.1-0.2,0.2
			c-0.3,0.4-0.6,0.7-0.9,1.1c0.2-0.6,0.5-1.2,0.9-1.8l-0.3-0.1c-0.4,0.7-0.8,1.4-1.1,2.3c-0.1,0.3-0.2,0.6-0.3,0.9
			c-0.8,1.6-1.5,3.3-1.6,5.5c0,1-0.5,2-0.4,3.1c0,0.1,0,0.2,0,0.3v0.6c0,0.1,0,0.2,0,0.3c0,1,0.2,1.7,0.4,2.6c0,0.1,0,0.2,0,0.3
			c0.1,2,0.6,3.6,1.2,5c0.1,0.2,0.2,0.4,0.3,0.6c0.1,0.3,0.2,0.6,0.2,0.8c0.4,1.3,1.1,2.5,1.8,3.5c0.3,0.4,0.7,0.7,1,1.1
			c0.3,0.4,0.5,0.9,0.9,1.3c0.3,0.4,0.7,0.8,1,1.2C24.2,73.1,24.3,73.1,24.4,73.2 M23.8,69.3c-0.2-0.8-0.3-1.7-0.4-2.7
			c0.8,0.4,1.6,0.8,2.5,1c0,0.1,0,0.2,0,0.3c0,0.9,0.1,1.7,0.3,2.4C25.4,70.1,24.6,69.8,23.8,69.3 M23.2,66.8c0,0.8,0.1,1.6,0.3,2.3
			c-0.6-0.3-1.1-0.7-1.6-1.2c-0.2-0.1-0.4-0.3-0.5-0.5c-0.1-0.1-0.1-0.4-0.1-0.6c-0.1-0.6-0.2-1.2-0.2-2c0.1,0,0.2,0.1,0.2,0.1
			c0.5,0.5,1.2,1,1.9,1.4C23.2,66.5,23.1,66.6,23.2,66.8 M23.2,66c-0.8-0.5-1.5-1.1-2.1-1.7c0-1,0.1-1.9,0.4-2.7
			c0.1,0,0.2,0.1,0.2,0.2c0.6,0.5,1.3,1.1,2,1.5C23.3,64.1,23.2,65,23.2,66 M22.7,58.4c0.5-0.8,1.1-1.5,1.7-2.2
			c0.7,0.6,1.4,1.2,2.2,1.7c-0.6,0.7-1.2,1.4-1.7,2.2C24.1,59.6,23.4,59,22.7,58.4 M24.8,60.4c-0.4,0.8-0.8,1.6-1.1,2.6
			c-0.8-0.5-1.6-1.1-2.2-1.7c0.3-0.9,0.6-1.7,1.1-2.5C23.2,59.3,23.9,59.9,24.8,60.4 M24.7,55.9c0.3-0.4,0.7-0.6,1-0.9
			c0.4-0.3,0.8-0.5,1.2-0.8c0.3,0.3,0.7,0.6,1,0.9c0.4,0.3,0.8,0.5,1.1,0.8c-0.8,0.5-1.5,1-2.2,1.6C26.1,57.2,25.4,56.6,24.7,55.9
			 M27,58.1c0.8,0.4,1.6,0.8,2.5,1.1c0,0-0.1,0.2-0.1,0.2c-0.5,0.6-1.1,1.3-1.5,2c-1-0.2-1.8-0.7-2.6-1.1
			C25.7,59.4,26.3,58.7,27,58.1 M27.2,57.8c0.6-0.7,1.4-1.2,2.2-1.7c0.8,0.4,1.5,0.8,2.4,1.1c-0.7,0.5-1.5,1-2.1,1.7
			C28.8,58.6,28,58.3,27.2,57.8 M27.3,54.1c0.8-0.4,1.6-0.8,2.5-1c0.3,0.2,0.7,0.6,1,0.9c0.4,0.3,0.7,0.5,1.1,0.8
			c-0.9,0.3-1.7,0.6-2.4,1C28.6,55.3,27.9,54.7,27.3,54.1 M30.2,52.9c0.7-0.1,1.4-0.3,2.2-0.3c0.1,0,0.3,0,0.4,0
			c0.2,0,0.4,0.3,0.5,0.4c0.5,0.4,1,0.8,1.5,1.2c-0.9,0.1-1.7,0.2-2.5,0.4C31.6,54.1,30.8,53.6,30.2,52.9 M33.1,52.3
			c-0.2,0-0.3-0.3-0.5-0.5c-0.5-0.5-0.9-1-1.2-1.7c1,0,1.9,0.2,2.7,0.4c0.4,0.7,0.9,1.4,1.5,2c-0.6-0.1-1.1-0.2-1.8-0.2
			C33.5,52.3,33.3,52.4,33.1,52.3 M32.6,52.3c-0.7,0-1.4,0.1-2,0.2c-0.2,0-0.5,0.1-0.6,0.1c-0.1,0-0.4-0.4-0.5-0.5
			c-0.5-0.5-0.9-1.1-1.2-1.7c0.7-0.1,1.4-0.3,2.3-0.3c0.1,0,0.4,0,0.5,0C31.5,50.9,32.1,51.7,32.6,52.3 M29.5,52.8
			c-0.9,0.3-1.8,0.6-2.5,1c-0.7-0.6-1.2-1.4-1.7-2.2c0.8-0.4,1.6-0.8,2.6-1C28.4,51.3,28.9,52.1,29.5,52.8 M26.7,54
			c-0.8,0.5-1.5,1.1-2.2,1.7c-0.6-0.7-1.2-1.4-1.7-2.2c0.6-0.7,1.4-1.2,2.2-1.7C25.5,52.5,26.1,53.3,26.7,54 M24.2,55.9
			C24.2,55.9,24.2,55.9,24.2,55.9c-0.6,0.7-1.2,1.4-1.7,2.2c-0.6-0.6-1.2-1.4-1.7-2.2c0.5-0.8,1-1.5,1.7-2.2
			C23,54.5,23.6,55.2,24.2,55.9 M20.6,55.5c-0.3-0.6-0.5-1.2-0.8-1.8c-0.1-0.2-0.2-0.5-0.2-0.7c0-0.1,0.2-0.4,0.4-0.6
			c0.4-0.6,0.9-1.2,1.3-1.6c0,0,0,0,0,0c0.2,0.9,0.6,1.7,1,2.5C21.7,54,21.1,54.7,20.6,55.5 M20.4,55.9c-0.4,0.8-0.8,1.5-1.1,2.4
			c-0.3-0.5-0.6-1.1-0.8-1.8c-0.1-0.2-0.2-0.5-0.2-0.7c0-0.2,0.1-0.4,0.2-0.6c0.2-0.6,0.5-1.3,0.8-1.8C19.7,54.3,20,55.1,20.4,55.9
			 M20.6,56.2c0.5,0.8,1.1,1.5,1.7,2.2c-0.4,0.7-0.8,1.6-1.1,2.5c-0.7-0.6-1.2-1.4-1.6-2.2C19.9,57.8,20.2,57,20.6,56.2 M26,67.3
			c-0.9-0.3-1.8-0.7-2.6-1.1c0-1,0.1-1.9,0.4-2.7c0,0,0,0,0,0c0.8,0.4,1.6,0.8,2.5,1.1C26.2,65.4,26.1,66.3,26,67.3 M26.5,64.2
			c-1-0.3-1.8-0.6-2.6-1.1c0.2-0.7,0.5-1.4,0.8-2c0.1-0.2,0.2-0.4,0.4-0.6c0.7,0.5,1.6,0.8,2.5,1.1C27.2,62.4,26.8,63.3,26.5,64.2
			 M29.6,64.7c-1,0-1.9-0.2-2.8-0.4c0.3-1,0.6-1.8,1.1-2.6c0.8,0.2,1.7,0.4,2.7,0.4C30.3,63,29.9,63.8,29.6,64.7 M32.3,59.9
			c-0.5,0.6-1,1.2-1.4,1.9c-1,0-1.9-0.2-2.8-0.4c0.4-0.7,0.9-1.4,1.5-2c0.1-0.1,0.1-0.2,0.2-0.2c0.8,0.2,1.7,0.3,2.6,0.4
			C32.5,59.7,32.4,59.8,32.3,59.9 M34.8,57.8c-0.7,0.5-1.4,1-2,1.6c-1,0-1.9-0.1-2.7-0.4c0-0.1,0.1-0.2,0.2-0.2c0.6-0.5,1.3-1,2-1.4
			C33.1,57.6,33.9,57.7,34.8,57.8 M32.8,56.7c-0.2,0.1-0.4,0.3-0.5,0.3c-0.2,0-0.5-0.1-0.7-0.2c-0.6-0.2-1.3-0.5-1.8-0.9
			c0.8-0.4,1.6-0.7,2.5-1c0.7,0.3,1.5,0.8,2.3,1C34,56.2,33.4,56.4,32.8,56.7 M37.3,55.5c-0.6,0.1-1.1,0.1-1.6,0.2
			c-0.2,0-0.3,0.1-0.5,0.1c-0.4,0-0.9-0.3-1.3-0.4c-0.4-0.2-0.8-0.3-1.1-0.5c0.6-0.2,1.3-0.3,2.1-0.3c0.1,0,0.4,0,0.5,0
			C36,54.9,36.6,55.2,37.3,55.5 M37.6,54.4c-0.6-0.1-1.4-0.2-2.1-0.2c-0.7-0.5-1.5-1-2-1.6c1,0,1.8,0.2,2.6,0.4
			c0.1,0.1,0.2,0.2,0.2,0.2C36.7,53.7,37.1,54.1,37.6,54.4 M38.2,53.5c-0.6-0.3-1.3-0.5-2-0.7c-0.6-0.6-1.1-1.3-1.6-2.1
			c0.7,0.2,1.2,0.4,1.8,0.7c0.2,0.1,0.4,0.2,0.6,0.3c0.1,0.1,0.2,0.3,0.3,0.5C37.5,52.7,37.8,53.1,38.2,53.5 M38.3,50.7
			c0.2,0.7,0.4,1.4,0.7,2c-0.6-0.4-1.1-0.9-1.7-1.2c-0.4-0.8-0.8-1.5-1-2.4C37,49.6,37.6,50.1,38.3,50.7 M35.8,48.8
			c0.2,0.9,0.5,1.6,0.9,2.3c-0.7-0.4-1.5-0.7-2.3-0.9c-0.4-0.8-0.8-1.6-1-2.5C34.2,48,35,48.4,35.8,48.8 M32.9,47.6
			c0.2,0.9,0.6,1.8,1,2.5c-0.8-0.2-1.7-0.3-2.7-0.4c-0.4-0.8-0.8-1.6-1-2.6C31.2,47.2,32,47.4,32.9,47.6 M29.3,47.2
			c0.1,0,0.4,0,0.5,0c0.3,0.9,0.6,1.8,1,2.6c-1,0-1.9,0.2-2.7,0.4c-0.4-0.8-0.8-1.6-1-2.6C27.7,47.4,28.4,47.3,29.3,47.2 M26.7,47.7
			c0.3,0.9,0.6,1.8,1.1,2.6c-1,0.2-1.8,0.6-2.6,1c-0.4-0.8-0.8-1.6-1-2.6C24.8,48.2,25.7,47.9,26.7,47.7 M24.8,51.4
			c-0.8,0.5-1.6,1.1-2.2,1.7c-0.4-0.8-0.7-1.6-1-2.5c0.6-0.7,1.4-1.2,2.2-1.7C24.1,49.8,24.4,50.7,24.8,51.4 M21.2,47.4
			c0.6-0.6,1.3-1.2,2.1-1.6c0.1-0.1,0,0.1,0,0.2c0,0.9,0.2,1.8,0.3,2.6c-0.8,0.5-1.5,1-2.2,1.6c-0.1-0.7-0.3-1.3-0.3-2.1
			C21.2,47.9,21.2,47.6,21.2,47.4 M19.4,47.9c0.1-0.4,0.1-0.8,0.2-1.1c0.2-0.4,0.5-0.7,0.7-1c0.2-0.3,0.5-0.7,0.8-0.9
			c-0.2,0.7-0.3,1.5-0.3,2.4c-0.1,0.1-0.1,0.2-0.2,0.2c-0.5,0.5-0.9,1.1-1.3,1.7C19.3,48.8,19.4,48.3,19.4,47.9 M19.3,49.9
			c0-0.2,0.2-0.4,0.4-0.6c0.4-0.5,0.8-1.1,1.2-1.5c0,1,0.2,1.8,0.4,2.6c-0.6,0.7-1.2,1.3-1.7,2.1c-0.1-0.6-0.3-1.3-0.3-1.9
			C19.2,50.4,19.2,50.1,19.3,49.9 M19,48.1c0,0.3-0.1,0.9-0.1,1.3c0,0.1,0,0.3,0,0.4c-0.1,0.3-0.3,0.5-0.4,0.8
			c-0.1,0.3-0.3,0.6-0.4,0.9C18.2,50.2,18.6,49.1,19,48.1 M18,52.7c0.2-0.8,0.5-1.5,0.9-2.2c0.1,0.6,0.1,1.2,0.2,1.8
			c0,0.2,0.1,0.4,0.1,0.6c0,0.1-0.2,0.4-0.3,0.5c-0.3,0.5-0.5,1.1-0.7,1.7c-0.2-0.6-0.2-1.3-0.2-2C18,53.1,18,52.8,18,52.7
			 M17.7,57.6c-0.1-0.4-0.1-0.9-0.1-1.4c0-0.1,0-0.4,0-0.6c0-0.6,0.1-1,0.1-1.5c0.1,0.3,0.1,0.6,0.1,0.9c0.1,0.3,0.2,0.6,0.2,0.8
			c0,0.3-0.1,0.6-0.2,0.9C17.8,57,17.7,57.3,17.7,57.6 M18.2,56.5C18.3,56.5,18.3,56.5,18.2,56.5c0.3,0.8,0.6,1.6,1,2.2
			c-0.2,0.7-0.3,1.6-0.4,2.4c-0.2-0.3-0.3-0.7-0.5-1.1C18.2,59.8,18,59.4,18,59C17.9,58.1,18.1,57.3,18.2,56.5 M18,60.3
			c0.2,0.6,0.5,1.1,0.7,1.6c0,0.1,0,0.3,0,0.4c0,0.5,0.1,0.9,0.1,1.3C18.5,62.7,18.2,61.6,18,60.3 M19.2,61.5c0-0.7,0.1-1.6,0.3-2.2
			c0.5,0.8,1,1.5,1.6,2.1c-0.2,0.8-0.4,1.6-0.4,2.6c-0.4-0.4-0.8-1-1.2-1.6c-0.1-0.2-0.3-0.4-0.4-0.6C19.1,61.7,19.1,61.6,19.2,61.5
			 M19.5,64.9c-0.1-0.3-0.2-0.8-0.2-1.2c-0.1-0.4-0.1-0.8-0.1-1.3c0.4,0.7,0.9,1.3,1.5,1.8c0.1,0,0.1,0.3,0.1,0.5
			c0,0.7,0.1,1.4,0.2,2.1c-0.4-0.4-0.8-0.9-1.1-1.4C19.7,65.3,19.6,65.1,19.5,64.9 M19.9,66.2c0.4,0.5,0.7,0.9,1.2,1.3
			c0.1,0.6,0.4,1.1,0.5,1.7C20.9,68.4,20.4,67.3,19.9,66.2 M22.5,70.3c-0.2-0.3-0.4-0.7-0.5-1.1c-0.2-0.4-0.3-0.7-0.4-1.1
			c0.6,0.5,1.3,1,2,1.5c0.2,0.8,0.5,1.6,0.9,2.3c-0.4-0.2-0.7-0.4-1-0.7C23.1,70.9,22.7,70.6,22.5,70.3"/>
		<path class="st2" d="M21.1,44.4c0.1-0.1,0.1-0.1,0.2-0.2C21.2,44.3,21.2,44.3,21.1,44.4"/>
		<path class="st2" d="M20.6,47.5c0.1-0.1,0.1-0.2,0.2-0.2C20.8,47.4,20.7,47.5,20.6,47.5"/>
		<path class="st2" d="M23.3,45.8c0.1-0.1,0,0.1,0,0.2C23.3,46,23.4,45.9,23.3,45.8L23.3,45.8z"/>
		<path class="st2" d="M29.6,59.5c0.1-0.1,0.1-0.2,0.2-0.2C29.8,59.3,29.7,59.4,29.6,59.5"/>
		<path class="st2" d="M32.8,59.9c0.1-0.1,0.1-0.2,0.2-0.2v0C32.9,59.8,32.9,59.8,32.8,59.9"/>
		<path class="st2" d="M24.3,72.7c0.1,0.1,0.3,0.3,0.4,0.4C24.6,72.9,24.4,72.8,24.3,72.7"/>
		<path class="st2" d="M17.3,55.4c0,0.1,0,0.2,0,0.3L17.3,55.4L17.3,55.4z"/>
		<path class="st2" d="M17.2,56.3c0,0.1,0,0.2,0,0.3h0V56.3z"/>
		<path class="st2" d="M29.3,47.2c0.1,0,0.4,0,0.5,0H29.3z"/>
		<path class="st2" d="M30.5,50.1c0.1,0,0.4,0,0.5,0H30.5z"/>
		<path class="st2" d="M32.4,52.7c0.1,0,0.3,0,0.4,0C32.7,52.7,32.5,52.6,32.4,52.7"/>
		<path class="st2" d="M34.9,54.6c0.1,0,0.4,0,0.5,0H34.9z"/>
		<path class="st2" d="M33,59.7h0.4C33.3,59.7,33.1,59.7,33,59.7L33,59.7z"/>
		<path class="st2" d="M18,52.7v0.4C18,53.1,18,52.8,18,52.7"/>
		<path class="st2" d="M31.1,62.2c0.1,0,0.2,0,0.3,0C31.3,62.2,31.2,62.2,31.1,62.2"/>
	</g>
	<g>
		<path class="st2" d="M21,43.7c0.1-0.1,0.1-0.2,0.2-0.2c0,0,0,0,0.1,0c0,0.1,0.1,0.2,0.1,0.3l0.4,0.1c-0.1-0.2-0.2-0.4-0.3-0.7
			c0.5-0.5,1.6-0.5,2.2-0.1c0.2,0.1,0.3,0.3,0.5,0.4c0.8,0.6,1.6,1.2,2.5,1.7l1.2,0.3c-1-0.5-1.9-1.2-2.8-1.8
			c1.3,0.6,2.7,1.3,3.7,2.1l1.9,0.5c0.2-0.1,0.5-0.2,0.8-0.1c0.4,0.1,0.7,0.3,0.9,0.6l2.5,0.7c1.2-0.1,2.6,0.1,3.7,0.2
			c-0.7,0.1-1.6,0.2-2.4,0.2l1.1,0.3c0.9,0,1.8-0.1,2.5-0.2c0.9-0.1,1.7,0.5,2,1.2c-0.1,0.1-0.1,0.1-0.2,0.2l0.7,0.2
			c0-0.1-0.1-0.2-0.1-0.3c0.3-0.3,0.4-0.8,0.5-1.3v-0.4c-0.1-0.5-0.2-0.9-0.4-1.2c0.4-0.9,0-1.9-0.4-2.5c-0.1-0.1-0.3-0.3-0.3-0.4
			c0-0.1,0-0.2,0-0.3c0-1.1-0.7-1.8-1.4-2.2c-0.2-1.1-0.9-1.8-2-2c-0.4-0.9-1.2-1.6-2.5-1.5c-0.5-0.7-1.7-1.2-2.8-0.8
			c-0.3-0.3-0.8-0.4-1.3-0.5h-0.4c-0.5,0.1-0.9,0.2-1.2,0.4c-1.1-0.4-2.3,0-2.8,0.7c-1.3-0.1-2.1,0.5-2.5,1.4
			c-1.2,0.2-1.8,0.9-2.1,2c-0.8,0.4-1.4,1-1.5,1.9c0,0.1,0,0.3,0,0.5c0,0.1-0.2,0.2-0.3,0.4c-0.1,0.1-0.1,0.2-0.2,0.3L21,43.7z
			 M26.3,42.2c1.2,1,2.5,2.1,3.5,3.5C28.4,44.8,27.3,43.5,26.3,42.2 M30.2,46c0-0.1,0-0.1,0-0.1C30.2,45.9,30.3,45.9,30.2,46
			L30.2,46z M27.8,41.1c0.9,1.3,1.8,2.6,2.4,4.3C29.2,44.2,28.5,42.6,27.8,41.1 M30.7,45.8c-0.1,0-0.1-0.1-0.1-0.2
			C30.7,45.7,30.8,45.7,30.7,45.8 M29.6,40.4c0.5,1.5,1.1,3,1.2,4.8C30.2,43.8,29.8,42.1,29.6,40.4 M31.2,45.7
			c-0.1,0-0.1-0.1-0.1-0.2C31.2,45.6,31.2,45.7,31.2,45.7 M31.4,45.1c-0.3-1.5-0.1-3.4,0-4.9C31.6,41.7,31.7,43.7,31.4,45.1
			 M31.7,45.7c-0.1,0,0-0.1,0-0.2C31.7,45.6,31.7,45.7,31.7,45.7 M32.1,45.9C32.1,45.9,32.1,45.9,32.1,45.9c-0.1,0,0-0.1,0-0.2
			C32.2,45.7,32.1,45.8,32.1,45.9 M32,45.2c0.1-1.8,0.8-3.2,1.3-4.7C33.1,42.2,32.7,43.8,32,45.2 M32.4,46.1c0-0.1,0.1-0.1,0.1-0.2
			C32.6,46,32.5,46.1,32.4,46.1 M32.7,46.5c0-0.1,0.1-0.1,0.1-0.1C32.8,46.4,32.8,46.5,32.7,46.5 M32.6,45.4
			c0.6-1.6,1.6-2.9,2.5-4.2C34.4,42.7,33.6,44.4,32.6,45.4 M32.9,46.9c0-0.1,0.1-0.1,0.2-0.1C33.1,46.8,33,46.9,32.9,46.9
			 M33.1,45.9c0.9-1.4,2.2-2.4,3.5-3.5C35.6,43.7,34.4,44.9,33.1,45.9 M33.4,46.4c1.1-1,2.7-1.7,4.3-2.4
			C36.4,44.9,35,45.8,33.4,46.4 M38.5,43.8c0.2-0.1,0.3-0.3,0.5-0.4c0.6-0.3,1.7-0.3,2.2,0.2c-0.1,0.6-0.5,1-0.9,1.3
			c-0.2,0.1-0.4,0.3-0.6,0.3c-0.4,0.1-0.8,0.1-1.2,0.1c-1.2,0.2-2.4,0.4-3.4,0.7C36.2,45.4,37.4,44.6,38.5,43.8 M38.3,45.7
			L38.3,45.7c0.1,0,0,0.1-0.1,0.1c-0.1,0-0.2,0.1-0.3,0.1c-1.3,0.5-2.7,0.9-4.2,1C34.9,46.3,36.6,46,38.3,45.7 M38.9,47.3
			c-1.1-0.1-2.4-0.2-3.6-0.2c1.3-0.4,2.8-0.8,4-1.3c0.2-0.1,0.4-0.2,0.5-0.2c0.9-0.2,1.7,0.3,2.1,0.8c-0.4,0.6-1,1.1-1.9,1.2
			C39.6,47.5,39.2,47.3,38.9,47.3 M42.1,48.7c-0.3-0.5-0.7-0.8-1.3-1.1c0.6-0.2,1-0.5,1.3-1C42.5,47.1,42.4,48.2,42.1,48.7 M42,45.9
			c-0.1,0.1-0.1-0.1-0.1-0.1c-0.3-0.3-0.8-0.5-1.4-0.6c0.4-0.4,0.8-0.8,1-1.4C41.9,44.2,42.3,45.1,42,45.9 M40.2,41.4L40.2,41.4
			c0.6,0.3,1,0.9,1.1,1.8c-0.4-0.2-1-0.4-1.6-0.3c0-0.1,0.1-0.2,0.2-0.3C40,42.3,40.2,41.9,40.2,41.4 M39.5,42.4
			c-0.2,0.3-0.5,0.6-0.7,0.8c-0.2,0.1-0.4,0.1-0.6,0.2c-1.3,0.5-2.6,1.2-3.7,1.8c0.8-0.8,1.6-1.7,2.4-2.7c0.3-0.3,0.5-0.7,0.8-0.9
			c0.5-0.4,1.4-0.7,2.2-0.4C39.9,41.6,39.8,42,39.5,42.4 M38.3,39.2c0.8,0.2,1.3,0.8,1.5,1.5c-0.5-0.1-1.2-0.1-1.7,0.1
			C38.3,40.5,38.5,39.8,38.3,39.2 M37.8,38.8c-0.7,0-1.2,0.3-1.6,0.5c0.1-0.6,0-1.2-0.3-1.7C36.9,37.7,37.5,38.1,37.8,38.8
			 M36.7,39.4c0.3-0.2,0.7-0.3,1.2-0.3c0.3,0.8-0.1,1.7-0.5,2.2c-0.1,0.1-0.3,0.2-0.5,0.4c-1.1,0.8-2.2,1.8-3.1,2.7
			c0.6-1.1,1.3-2.4,1.9-3.7c0.1-0.2,0.1-0.4,0.2-0.6C36.1,39.8,36.4,39.6,36.7,39.4 M35.7,39.9c-0.1,0.2-0.3,0.3-0.4,0.5
			c-0.8,1-1.7,2.3-2.3,3.5c0.3-1,0.6-2.2,0.8-3.4c0.1-0.4,0.1-0.8,0.2-1.2c0.1-0.3,0.3-0.6,0.5-0.8c0.3-0.4,0.7-0.6,1.2-0.7
			C36,38.2,36,39.3,35.7,39.9 M35.3,37.4c-0.6,0.2-1.1,0.5-1.4,0.9c-0.1-0.7-0.3-1.1-0.7-1.6C34.1,36.6,34.9,36.9,35.3,37.4
			 M33.5,39.1c0,0.2-0.2,0.4-0.2,0.5c-0.5,1.2-1,2.6-1.4,3.9c0-1.2-0.1-2.5-0.2-3.6c0-0.4-0.1-0.8-0.1-1.1c0-0.8,0.6-1.5,1.2-1.9
			C33.4,37.4,33.8,38.2,33.5,39.1 M32.6,36.7c-0.5,0.3-0.8,0.7-1.1,1.3c-0.2-0.6-0.6-1-1-1.3C31,36.3,32.1,36.3,32.6,36.7
			 M30.1,36.9c0.6,0.4,1.2,1,1.2,1.9c0,0.3-0.1,0.8-0.1,1.1c-0.1,1.1-0.2,2.4-0.2,3.6c-0.3-1.3-0.8-2.8-1.3-4
			c-0.1-0.2-0.2-0.4-0.2-0.5C29.2,38.1,29.6,37.3,30.1,36.9 M29.7,36.7c0.1,0.1-0.1,0.1-0.1,0.1c-0.3,0.3-0.5,0.8-0.6,1.4
			c-0.4-0.4-0.7-0.8-1.3-1C28,36.8,28.9,36.5,29.7,36.7 M27.4,37.6c0.5,0.1,1,0.4,1.3,0.9c0.1,0.2,0.3,0.5,0.3,0.7
			c0.1,0.4,0.1,0.8,0.1,1.2c0.2,1.2,0.4,2.4,0.7,3.4c-0.7-1.2-1.5-2.5-2.3-3.5c-0.1-0.2-0.3-0.3-0.4-0.5
			C26.9,39.1,27,38.1,27.4,37.6 M27,37.5c-0.2,0.4-0.4,1-0.3,1.6c-0.1,0-0.2-0.1-0.3-0.2c-0.3-0.2-0.8-0.4-1.3-0.4
			C25.5,37.9,26.1,37.5,27,37.5 M25,38.9c0.5,0,1,0.2,1.4,0.4c0.2,0.2,0.5,0.4,0.6,0.6c0.1,0.2,0.1,0.4,0.2,0.6
			c0.5,1.3,1.2,2.6,1.8,3.7c-0.8-0.8-1.7-1.6-2.7-2.4c-0.3-0.3-0.7-0.5-0.9-0.8C25,40.6,24.7,39.7,25,38.9 M24.6,38.9
			c-0.1,0.5-0.1,1.3,0.1,1.7c-0.4-0.2-1.1-0.3-1.7-0.2C23.3,39.7,23.8,39.2,24.6,38.9 M23,40.8c0.8-0.3,1.7,0.1,2.2,0.5
			c0.1,0.1,0.2,0.3,0.4,0.5c0.8,1.1,1.8,2.2,2.7,3.1c-1.1-0.6-2.4-1.3-3.7-1.9c-0.2-0.1-0.4-0.1-0.6-0.2c-0.3-0.2-0.5-0.5-0.7-0.8
			C23.1,41.7,22.9,41.3,23,40.8 M22.6,41L22.6,41c0,0.7,0.3,1.2,0.6,1.6c-0.6-0.1-1.2,0-1.7,0.3C21.6,41.9,22,41.3,22.6,41"/>
		<path class="st2" d="M45.6,13.8c-0.5,6.1-1,12.3-1.6,18.4c0,0,0,0,0-0.1L43.9,33c0,0,0,0.1,0,0.1c0,0.5-0.1,1-0.1,1.5
			c0,0.5-0.1,1-0.1,1.5c0,0,0,0,0-0.1l-0.1,0.6c0,0,0,0,0,0.1c0,0.2,0,0.4-0.1,0.6c0,0,0,0,0-0.1L43.5,38c0,0,0,0.1,0,0.1
			c0,0.2,0,0.5-0.1,0.7c-0.1,0.7-0.1,1.4-0.2,2.1c0,0,0,0,0,0l0,0.5c0,0,0,0,0,0.1c0,0,0,0,0,0l0,0.4c0,0,0,0,0,0
			c0,0.5-0.1,0.9-0.1,1.3c0,0,0,0,0,0l-0.5,6l0.4,0.1c-0.1-0.2,0.4-0.3,0.4-0.1c-0.1,0.1-0.2,0.1-0.4,0.1l6.1,2.2
			c0-0.1,0.1-0.1,0.2-0.3c0.1,0,0.1,0.1,0.1,0.2c-0.1,0-0.1,0.1-0.2,0.1l1,0.4c0-0.2-0.1-0.4,0-0.5c0.2,0,0.3,0.2,0.4,0.4
			c0.1,0.1,0.3,0.3,0.4,0.4c0,0,0,0,0,0l1.4,0.5c0,0,0,0,0,0c0.1,0,0.2,0,0.3,0c0.1,0,0.2,0.1,0.2,0.2l0.6,0.2
			c-0.1-0.1-0.2-0.2-0.3-0.3c0.7,0,1.9,0.1,2.7,0.2c0.3,0,0.7,0,0.9,0.1c0.2,0.1,0.7,0.5,0.9,0.7c0.7,0.6,1.5,1.2,2.2,1.8l0.9,0.3
			c-1.1-0.9-2.2-1.8-3.4-2.7c0.2,0.1,0.6,0,0.8,0.1c0.2,0.1,0.6,0.3,0.8,0.4c1.9,0.9,3.7,1.8,5.6,2.7c-0.1,0.3-0.3,0.6-0.4,0.9
			l0.3,0.1c0.2-0.4,0.3-0.7,0.5-1.1c2.5,1.4,5,2.7,7.6,4.1l2.2,0.8c-4.8-2.5-9.5-5.1-14.3-7.7c0,0,0,0,0,0
			c5.1,0.4,10.3,0.9,15.5,1.3c0.3,0,0.7,0,1,0.1c0.3,0.1,0.6,0.2,0.9,0.3c4.1,1.3,8.5,2.6,12.6,3.9c-0.7,2.4-1.5,4.7-2.2,7.1
			l0.3,0.1c0.8-2.5,1.5-5,2.3-7.4c-4.1-1.3-8.2-2.5-12.3-3.8c0.5,0,1.1,0.1,1.7,0.1c0.2-1.9,0.3-3.8,0.5-5.7
			c3.7-0.4,7.5-0.8,11.2-1.2c-0.2-2.7-0.6-5.5-0.9-8.2c-3.7,0.4-7.5,0.8-11.2,1.2c-0.5-1.6-0.9-3.1-1.4-4.7c0.4-0.3,0.8-0.5,1.2-0.7
			c2.9-1.5,5.8-3.1,8.8-4.6c-1.3-2.4-2.6-4.9-3.9-7.3c-3.7,2-7.4,3.9-11.2,5.9c-0.1,0,0.1-0.1,0.1-0.1c0.2-0.2,0.5-0.4,0.7-0.6
			c0,0,0.3-0.2,0.3-0.2c0-0.1-0.4-0.5-0.5-0.6c-1.1-1.3-2.2-2.6-3.2-3.8c2.3-3,4.7-5.8,7-8.8c-2.1-1.7-4.3-3.4-6.4-5.2
			c-2.4,2.9-4.7,5.9-7.1,8.8c-1.5-0.8-2.9-1.5-4.3-2.3c1.1-3.6,2.2-7.2,3.3-10.8c-2.6-0.9-5.3-1.6-7.9-2.5c-1.2,4-2.5,7.9-3.7,11.9
			c0-0.4,0.1-0.9,0.1-1.3c-1.9-0.2-3.8-0.3-5.8-0.5C46.1,13.9,45.6,13.8,45.6,13.8 M44.7,32.9c0-0.9,0.1-1.8,0.1-2.7
			c0-0.5,0-1,0.1-1.4c0,0,0-0.1,0-0.1c0.9,0,1.7,0.1,2.6,0.1c0.2,0.6,0,1.1-0.2,1.6c-0.6,2-1.2,4.1-1.9,6.1
			c-0.1-0.3-0.2-0.7-0.4-1.1c-0.1-0.4-0.3-0.8-0.3-1.1C44.6,33.9,44.7,33.4,44.7,32.9 M57.4,36.1c0.7-0.7,1.4-1.3,2.1-1.9
			c0,0,0.1,0,0.1,0c0.6,0.6,1.1,1.3,1.7,1.9c-0.2,0.2-0.3,0.5-0.5,0.6c-0.2,0.2-0.6,0.3-0.8,0.4c-1.8,0.9-3.8,2-5.6,3
			c0.1-0.4,0.3-0.7,0.5-1c0.2-0.3,0.3-0.7,0.5-1c0.1-0.2,0.3-0.3,0.5-0.5C56.3,37,56.9,36.5,57.4,36.1 M55.9,36.9
			c0.4-0.6,1.1-1,1.7-1.5C57.1,35.9,56.5,36.5,55.9,36.9C55.9,36.9,55.9,37,55.9,36.9 M62,36.3c2.9-1.5,5.8-3.1,8.8-4.6
			c-1.9,1.7-4,3.4-6,5.1c-1.7,1.5-3.5,3-5.3,4.5c-0.3,0.2-0.5,0.5-0.8,0.6c-0.3,0.2-0.8,0.2-1.1,0.3c-0.4,0.1-0.8,0.3-1.1,0.4
			c0-0.1,0.1-0.2,0.2-0.4c0.3-0.4,0.6-0.8,0.9-1.1c0.4-0.5,0.8-1.1,1.2-1.5c0.3-0.3,0.6-0.5,0.8-0.8c0.8-0.8,1.7-1.5,2.5-2.3
			C62.1,36.4,61.9,36.4,62,36.3 M61.8,48.1c1.3,0.1,2.8,0.1,4.2,0.2c0,0.9-0.1,1.7-0.1,2.6c-0.6,0.2-1.1,0-1.6-0.2
			c-2-0.6-4.1-1.3-6.1-1.9c0.3-0.2,0.7-0.2,1.1-0.4c0.4-0.1,0.8-0.3,1.1-0.4C60.7,48,61.3,48.1,61.8,48.1 M61.4,47.8
			c0.1-0.1,0.3-0.1,0.4-0.1c0.9,0.1,1.9,0.2,2.8,0.2C63.6,47.9,62.5,47.8,61.4,47.8 M58.8,51.2c-1,0-1.9,0-2.7-0.1
			c-0.4,0-0.9-0.4-1.2-0.6c-0.4-0.2-0.7-0.4-1-0.6c1.2-0.3,2.4-0.7,3.5-1.1c0,0,0.1,0,0.1,0c1.1,0.3,2.2,0.7,3.3,1
			c1.1,0.3,2.2,0.7,3.3,1c-0.8,0.1-1.7,0.3-2.7,0.3C60.7,51.3,59.7,51.2,58.8,51.2 M59.1,51.5c-0.3,0.1-0.6,0.1-1,0.1
			c-0.3,0-0.7,0.1-1,0.1c-0.2,0-0.4-0.2-0.6-0.3C57.4,51.5,58.3,51.5,59.1,51.5 M50.5,47.7c0.4,0,0.8,0,1.2,0c0,0.1-0.2,0.2-0.3,0.3
			c-0.1,0.1-0.2,0.2-0.4,0.3c-0.2-0.2-0.4-0.3-0.6-0.5C50.5,47.8,50.6,47.8,50.5,47.7 M49.4,46.9c-0.1-0.1-0.1-0.2-0.2-0.4h0.2
			C49.3,46.7,49.4,46.8,49.4,46.9 M49.2,42c-0.1-0.6-0.2-1.4-0.2-2.1c0-0.2-0.1-0.5-0.1-0.7c0-0.2,0.6-0.6,0.6-0.9
			C49.5,39.6,49.4,40.9,49.2,42 M48.1,47.7c0,0.2-0.2,0.4-0.5,0.4v-0.1C47.8,47.8,48,47.7,48.1,47.7 M47.9,45.2
			c0-0.1,0.1-0.1,0.1-0.1C48,45.2,48,45.2,47.9,45.2 M48,45.5c0.1,0,0.1,0,0.2,0c0,0.1,0.1,0.1,0.1,0.2C48.2,45.7,48.1,45.6,48,45.5
			 M48,44.3c-0.1-0.1-0.2-0.3-0.1-0.6c0.4-0.2,0.7-0.4,1.1-0.6c0.1,0.2-0.1,0.3-0.2,0.4C48.5,43.8,48.2,44.1,48,44.3 M47.9,40.7
			c0.1-0.4,0.4-0.8,0.6-1.1c0.1,0.4,0.2,1.4,0.2,2c0,0.2,0.1,0.5,0.1,0.6c0,0.2-0.4,0.4-0.5,0.5c-0.2,0.2-0.3,0.3-0.5,0.4
			C48,42.4,47.8,41.4,47.9,40.7 M49,37.1c0.3-0.5,0.5-1,0.8-1.5c0.1,0.6-0.3,1.1-0.5,1.5c-0.2,0.3-0.3,0.7-0.5,1
			C48.6,37.6,48.8,37.4,49,37.1 M48.9,42.7C48.9,42.7,48.9,42.8,48.9,42.7c0,0.2-0.2,0.2-0.2,0.3C48.6,42.9,48.8,42.8,48.9,42.7
			 M49,38.5c0.1-0.4,0.4-0.9,0.6-1.4c0,0.2,0,0.4,0,0.6C49.5,38,49.1,38.3,49,38.5 M49.6,42.2c0.6-0.6,1.3-1.1,2-1.7
			c-0.2,1-1.1,1.6-2,2C49.5,42.4,49.6,42.3,49.6,42.2 M51.2,42c0.3-0.1,0.6-0.3,0.9-0.5c-0.2,0.8-0.5,1.8-0.8,2.6
			c-0.4,0.1-0.8,0.3-1.3,0.4C50.4,43.7,50.8,42.8,51.2,42 M53.3,37.7c-0.1,0.4-0.3,0.8-0.4,1.2c-0.1,0.1-0.2,0.2-0.4,0.3
			C52.8,38.7,53.1,38.1,53.3,37.7C53.3,37.6,53.4,37.6,53.3,37.7 M52.6,44.6c-0.3,0.2-0.7,0.2-1,0.4c-0.1-0.1,0.1-0.2,0.1-0.3
			C52,44.7,52.3,44.6,52.6,44.6 M51.7,44c0.2-0.9,0.6-1.8,0.8-2.7c0.3-0.2,0.6-0.3,0.9-0.5C52.9,41.9,52.3,42.9,51.7,44 M51.9,44.4
			c0.1-0.1,0.3-0.1,0.4-0.2c0.4-0.1,0.9-0.3,1.4-0.4c0,0-0.3,0.4-0.5,0.5C52.9,44.3,52.3,44.2,51.9,44.4 M52.7,45.2
			c0.1-0.1,0.3-0.3,0.4-0.4c0.3-0.1,0.9-0.3,1.2-0.4c-0.5,0.7-1.1,1.4-1.7,2.1c-0.4,0-0.8-0.1-1.3-0.1c0,0,0.1-0.1,0.1-0.2
			C52,45.9,52.4,45.5,52.7,45.2 M54,44c0.1-0.1,0.3-0.4,0.5-0.5c0.2-0.1,0.5-0.1,0.8-0.2c0,0.2-0.3,0.4-0.4,0.5
			c-0.3,0.1-0.6,0.3-1,0.3C53.9,44.1,54,44,54,44 M52.8,47.4c0,0-0.2,0-0.1,0C52.7,47.4,52.8,47.4,52.8,47.4 M52.5,46.8
			c0,0.1-0.1,0.1-0.1,0.1c-0.2,0-0.3-0.1-0.5-0.1C52.1,46.8,52.3,46.8,52.5,46.8 M54.1,47.8c-0.6,0.3-1.3,0.5-2,0.7
			c-0.2,0.1-0.4,0.2-0.6,0.1c0-0.1,0.1-0.3,0.2-0.4c0.2-0.2,0.3-0.4,0.5-0.5C52.9,47.8,53.5,47.8,54.1,47.8 M51.6,49.1
			c0.3,0.2,0.6,0.5,1,0.8c-0.1,0.1-0.3,0.2-0.4,0.2c-0.5-0.2-0.9-0.4-1.3-0.6C50.9,49.2,51.3,49.2,51.6,49.1 M52,49
			c0.8-0.3,1.8-0.6,2.6-1c0,0,0,0,0,0c0.3,0,0.6,0.2,0.9,0.3c-0.5,0.3-1.2,0.7-1.8,1c-0.2,0.1-0.5,0.3-0.6,0.3
			c-0.2,0-0.4-0.2-0.6-0.3C52.3,49.2,52.2,49.1,52,49 M55.4,47.9c0.2,0,0.6,0,0.9,0C56.1,48.2,55.7,48,55.4,47.9 M53.5,49.8
			c0.8-0.5,1.7-0.9,2.5-1.3c0.3,0.1,0.6,0.2,1,0.3C55.8,49.1,54.7,49.4,53.5,49.8C53.5,49.8,53.5,49.8,53.5,49.8 M56.5,48.2
			c0.3-0.4,1.1-0.3,1.8-0.2c0.4,0,0.7,0,1,0c-0.5,0.2-1.2,0.4-1.7,0.5c0,0,0,0,0,0C57.2,48.6,56.9,48.3,56.5,48.2 M56.9,47.6
			c-0.3,0.1-0.6-0.1-0.9,0c0.5-0.2,0.9-0.4,1.5-0.3C57.3,47.3,57.1,47.6,56.9,47.6 M55,47.5c-0.7,0.1-1.4-0.2-2-0.4
			c0.1-0.1,0.2-0.2,0.3-0.2c0.9,0.1,1.8,0.1,2.8,0.2C55.7,47.2,55.4,47.5,55,47.5 M53.2,46.5c0.5-0.7,1.2-1.4,1.7-2.2
			c0.3,0,0.6-0.1,0.9-0.1c0,0.1-0.1,0.1-0.1,0.1C54.9,45.1,54,45.8,53.2,46.5 M55.6,43.9c0.4-0.2,0.8-0.3,1.1-0.4
			c0,0.1-0.3,0.2-0.4,0.4C56.1,43.9,55.9,43.9,55.6,43.9 M55.5,43.6c0.1-0.2,0.2-0.3,0.4-0.5c0.6-0.2,1.3-0.4,2-0.6h0
			c0,0-0.1,0.1-0.2,0.2C57.2,43.1,56.2,43.3,55.5,43.6 M55.7,42.8c-0.2,0.1-0.4,0.1-0.6,0.2c0.1-0.2,0.3-0.3,0.4-0.4
			c0.4-0.4,0.9-0.9,1.4-1.3c0,0.1-0.1,0.1-0.1,0.2C56.5,41.9,56.1,42.4,55.7,42.8 M54.9,42.8c-0.2,0.2-0.4,0.4-0.5,0.5
			c-0.1,0.1-0.4,0.1-0.5,0.2c-0.5,0.2-1.1,0.3-1.6,0.5c0.6-1.1,1.2-2.2,1.8-3.3c2.1-1.1,4.2-2.2,6.2-3.3c0,0,0,0,0,0
			c-0.3,0.4-0.6,0.7-0.9,1.1c-0.3,0.3-0.5,0.7-0.8,1.1c-0.3,0.3-0.7,0.6-1.1,1C56.6,41.2,55.8,41.9,54.9,42.8 M53.7,40.3
			c-0.3,0.2-0.7,0.4-1,0.5c0-0.2,0.1-0.4,0.1-0.5c0.1-0.1,0.3-0.3,0.4-0.4c0.4-0.4,0.9-0.8,1.3-1.2c0,0,0,0,0,0
			C54.3,39.3,54,39.8,53.7,40.3 M52.7,39.5c0,0.2-0.1,0.4-0.1,0.6c-0.3,0.2-0.5,0.5-0.7,0.7C52,40.3,52.3,39.8,52.7,39.5 M52.3,40.7
			c0,0.1-0.1,0.2-0.1,0.3c-0.2,0.1-0.3,0.2-0.5,0.3C51.9,41.1,52.1,40.9,52.3,40.7 M52.3,45.1C52.3,45.1,52.3,45.1,52.3,45.1
			c-0.4,0.5-0.9,0.9-1.3,1.3c0-0.3,0.2-0.6,0.3-0.9C51.7,45.3,52,45.2,52.3,45.1 M52.2,47.2c0,0.1-0.1,0.1-0.1,0.2
			c-0.5,0-0.9,0-1.4,0c0-0.2,0.1-0.5,0.3-0.5C51.4,47,51.7,47.1,52.2,47.2 M50.7,48.6c-0.1,0.2-0.3,0.3-0.5,0.4
			c0-0.2,0.1-0.4,0.1-0.6C50.5,48.5,50.5,48.6,50.7,48.6 M51.7,50.3c-0.2,0.1-0.5,0.2-0.7,0.2c-0.2-0.2-0.3-0.5-0.5-0.8
			C51,49.9,51.3,50.1,51.7,50.3 M52.2,50.5c0.3,0,0.6,0.4,1,0.4c-0.6,0-1.2,0-1.8,0C51.6,50.8,51.9,50.5,52.2,50.5 M52.7,50.4
			c0.1,0,0.2-0.1,0.3-0.1c0.2,0.2,0.5,0.4,0.7,0.6C53.4,50.8,53,50.6,52.7,50.4 M53.4,50.2c0.6,0.2,1.1,0.6,1.7,0.9
			c-0.2,0-0.4,0-0.6,0c-0.2,0-0.4-0.3-0.6-0.4C53.8,50.4,53.6,50.3,53.4,50.2 M55.8,51.4c0.3,0.1,0.5,0.3,0.8,0.4
			c-0.2,0-0.5,0.1-0.7,0.1c-0.3,0-0.7-0.4-1-0.5C55.3,51.4,55.6,51.4,55.8,51.4 M65.7,51.4c-0.5,0-1.1,0-1.7,0
			C64.6,51.3,65.2,51.2,65.7,51.4 M57.6,47.6c0.1-0.1,0.4-0.2,0.5-0.3c0.9,0.1,1.8,0.2,2.7,0.2C60.1,47.9,58.7,47.6,57.6,47.6
			 M57.7,46.9c0.4-0.2,0.8-0.3,1.2-0.5c0,0-0.1,0.1-0.2,0.1C58.5,46.8,58.1,47.1,57.7,46.9 M57.4,46.7c-0.2,0.1-0.4,0.2-0.5,0.2
			c-0.2,0-0.5,0-0.8-0.1c-0.8-0.1-1.6-0.1-2.4-0.2c0-0.1,0.2-0.2,0.3-0.3c0.7-0.6,1.4-1.2,2.2-1.8c0.1-0.1,0.2-0.2,0.4-0.3
			c0.3-0.1,0.7-0.1,1.1-0.1c2.5-0.3,5-0.5,7.5-0.8c0,0.1-0.1,0.1-0.2,0.1c-0.9,0.5-1.8,1-2.7,1.4c-0.3,0.2-0.6,0.4-1,0.5
			c-0.3,0.2-0.7,0.2-1.1,0.4C59.2,46,58.3,46.4,57.4,46.7 M65.2,43.6c0,0.1,0.1,0.2,0.1,0.3c-0.6,0.2-1.2,0.4-1.8,0.6
			C64,44.2,64.6,43.9,65.2,43.6 M64.5,40.5c4.5-1.3,9-2.7,13.5-4c0,0-0.2,0.1-0.3,0.2c-3.6,1.9-7.2,3.8-10.9,5.8
			c-0.4,0.2-0.8,0.5-1.4,0.5C65,42.1,64.7,41.3,64.5,40.5 M64.9,42.9c-2.7,0.3-5.3,0.6-7.9,0.9c0-0.1,0.2-0.2,0.3-0.3
			c0.1-0.1,0.2-0.2,0.4-0.3c0.2-0.1,0.5-0.2,0.8-0.3c1.8-0.6,3.9-1.4,5.7-2C64.5,41.5,64.7,42.2,64.9,42.9 M62.1,41.2
			c-1.2,0.5-2.5,0.9-3.7,1.3c0.2-0.4,0.7-0.4,1.2-0.6C60.5,41.7,61.3,41.5,62.1,41.2C62.1,41.3,62.3,41.2,62.1,41.2 M60.3,37.7
			c0.3-0.4,0.6-0.9,1.2-1.1C61.2,36.9,60.7,37.3,60.3,37.7 M61.4,35.7c-0.7-0.6-1.3-1.3-1.9-2c3.6-3,7.2-6.1,10.8-9.1
			C67.4,28.3,64.4,32,61.4,35.7 M54.1,38.6c-0.3,0.3-0.7,0.6-1,0.9c0-0.5,0.3-0.7,0.6-1c0.5-0.4,1.1-0.9,1.6-1.3
			C55.1,37.9,54.5,38.2,54.1,38.6 M52.2,39.1c-0.1,0.2-0.2,0.4-0.2,0.6c-0.1,0.2-0.4,0.3-0.6,0.5c-0.6,0.5-1.2,1-1.8,1.4
			c0.1-0.9,0.1-1.8,0.2-2.8c0-0.3,0-0.7,0.1-0.9c0.1-0.2,0.5-0.7,0.6-0.9c1.1-1.4,2.2-2.7,3.3-4.1c0.5-0.6,0.9-1.1,1.4-1.7
			c0,0,0,0,0,0.1c-0.3,1-0.6,2-0.9,3c-0.1,0.3-0.2,0.7-0.3,1c-0.1,0.4-0.4,0.7-0.5,1.1C53.1,37.3,52.6,38.2,52.2,39.1 M55.6,31.4
			c0.1,0,0.2,0.1,0.2,0.1c-0.2,0.6-0.5,1-0.7,1.6C55.2,32.5,55.5,32,55.6,31.4 M55.2,30.8c-0.8-0.3-1.5-0.7-2.2-1.1
			c2.2-4.2,4.4-8.3,6.7-12.4c-1.2,3.9-2.5,8.1-3.7,12.2C55.7,30.1,55.6,30.5,55.2,30.8 M53,30.2c0.7,0.3,1.3,0.6,2,0.9
			c-0.8,1.1-1.6,2.1-2.5,3.1c-0.8,1-1.6,2.1-2.5,3.1c0.1-0.3,0-0.7,0.1-1c0.1-0.2,0.2-0.5,0.4-0.8C51.3,33.7,52.1,31.9,53,30.2
			 M50.2,35.2c-0.1-0.4,0.2-0.7,0.4-1c0.3-0.6,0.7-1.3,1-1.9C51.1,33.3,50.6,34.3,50.2,35.2 M49.9,33.7c0,0.3,0,0.7-0.1,1
			c0,0.2-0.2,0.4-0.3,0.6c-0.3,0.5-0.6,1.1-0.9,1.7c-0.1-0.6-0.2-1.3-0.2-1.9c-0.1-0.6-0.2-1.3-0.2-2c0-1.5,0.2-3,0.2-4.5
			c0-0.1-0.2,0-0.2-0.1c1-3.2,2-6.5,3-9.7C50.8,23.6,50.4,28.8,49.9,33.7 M48.3,36.5c0,0.3,0.1,0.7,0.1,1c0,0.2-0.2,0.4-0.3,0.6
			c0.1-0.8,0.1-1.7,0.1-2.5C48.2,35.8,48.2,36.2,48.3,36.5 M48.4,38.1c0.3,0.7-0.2,1.1-0.4,1.6c0-0.3-0.1-0.6,0-0.9
			C48.1,38.6,48.3,38.4,48.4,38.1 M48,30.7c-0.1-0.5-0.2-1.2,0-1.7C48,29.6,48,30.2,48,30.7 M47.9,33.1c0,0.9-0.1,1.9-0.1,2.8
			c0,0.4,0,0.9,0,1.4c0,0.4,0,1-0.1,1.4c0,0.1-0.2,0.3-0.3,0.5c-0.3,0.5-0.5,1.1-0.8,1.5c-0.3-1.1-0.6-2.1-0.9-3.2
			c0-0.2-0.1-0.3-0.1-0.4c0-0.2,0.2-0.6,0.2-0.9c0.6-1.9,1.3-4,1.8-5.9c0,0,0,0,0,0C47.6,31.3,47.8,32.2,47.9,33.1 M45.9,41
			c0.1,0.2,0.3,0.5,0.3,0.6c0,0.2-0.2,0.5-0.3,0.6c-0.1,0.2-0.2,0.4-0.3,0.6c-0.2-0.6-0.5-1.3-0.7-2c-0.1-0.2-0.2-0.5-0.2-0.7
			c0-0.3,0.3-0.6,0.3-1C45.1,39.6,45.5,40.4,45.9,41 M45,38.7c0.1-0.3,0.2-0.6,0.3-1c0.4,1.1,0.7,2.3,1.1,3.4
			C45.9,40.5,45.5,39.5,45,38.7 M46.5,42.2c0.1,0.1,0.1,0.2,0.2,0.4c-0.2,0.5-0.4,0.9-0.6,1.3c-0.3-0.1-0.3-0.4-0.4-0.6
			C45.9,42.8,46.2,42.5,46.5,42.2 M46.9,42.9c0.1,0.2,0.2,0.6,0.3,0.8c-0.3,0.1-0.5,0.3-0.8,0.4C46.4,43.7,46.7,43.3,46.9,42.9
			 M47.3,41.1c-0.1,0.3-0.2,0.6-0.4,0.9C46.8,41.5,47.2,41.4,47.3,41.1 M47.1,42.5c0-0.2,0.2-0.4,0.2-0.5c0.1-0.2,0.2-0.3,0.2-0.5
			c0,0.6,0,1.3-0.1,1.9C47.4,43.1,47.1,42.8,47.1,42.5 M47.2,40.7c-0.2,0.2-0.3,0.4-0.5,0.5c0.3-0.6,0.6-1.1,0.9-1.7
			c0,0.2,0,0.4,0,0.6C47.6,40.4,47.3,40.6,47.2,40.7 M44.5,37.4c0-0.6,0-1.4,0.1-2c0.1,0.2,0.2,0.5,0.3,0.9c0.1,0.3,0.2,0.6,0.2,0.9
			c0,0.4-0.3,0.7-0.3,1.1C44.6,38,44.5,37.8,44.5,37.4 M44.5,38.4c0.1,0.1,0.1,0.2,0.2,0.3c-0.1,0.2-0.1,0.4-0.2,0.6
			C44.5,39.1,44.5,38.7,44.5,38.4 M45.1,42.6c0.1,0.2,0.2,0.4,0.2,0.6c-0.3-0.1-0.4-0.3-0.6-0.6c-0.1-0.1-0.2-0.2-0.2-0.3
			c0-0.1,0-0.2,0-0.3c0-0.4,0-0.9,0-1.3C44.7,41.3,44.9,41.9,45.1,42.6 M44.3,44.2c-0.1-0.3,0-0.8,0-1.2c0.3,0.1,0.4,0.4,0.6,0.6
			c-0.1,0.1-0.2,0.3-0.3,0.4C44.6,44,44.5,44.2,44.3,44.2 M44.5,44.7c-0.1,0,0-0.1,0-0.1C44.6,44.6,44.5,44.7,44.5,44.7 M44.4,31.9
			c0,0.4,0,0.9,0,1.3C44.2,32.9,44.4,32.4,44.4,31.9 M43.5,42.3c0.1,0,0,0.1,0,0.1C43.5,42.4,43.5,42.3,43.5,42.3 M43.3,45.4
			c0.1,0,0.1,0,0.2,0c-0.1,0.1-0.2,0.1-0.3,0.1C43.2,45.4,43.3,45.4,43.3,45.4 M43.5,46.3c-0.1,0-0.2,0.1-0.4,0.1
			C43.2,46.1,43.4,46.1,43.5,46.3 M43.4,48.4c-0.1,0-0.3,0-0.4-0.1C43,48.1,43.5,48.2,43.4,48.4 M43.8,47.6c-0.1,0-0.3-0.1-0.4-0.2
			c0,0,0,0,0-0.1C43.7,47.3,43.9,47.4,43.8,47.6 M43.3,45c0-0.2,0-0.3,0-0.5c0.2,0.1,0.4,0.2,0.6,0.3C43.9,45,43.5,45,43.3,45
			 M44,44c-0.2,0-0.4-0.1-0.5-0.3c0.1-0.4,0.3-0.8,0.4-1.2c0.1,0,0.1,0.1,0.2,0.1C44,43.1,44,43.6,44,44 M43.8,41.6
			c-0.1,0-0.1-0.1-0.2-0.2c0.1-0.8,0.1-1.6,0.2-2.5c0.1,0.3,0.3,0.5,0.3,0.8C44.2,40.5,43.9,41.1,43.8,41.6 M44.1,38.9
			c-0.2-0.4-0.3-0.9-0.2-1.5C44.3,37.6,44.2,38.3,44.1,38.9 M44.1,35.4c0-0.5,0.1-1,0.1-1.4c0.1,0.2,0.1,0.4,0.1,0.6
			c0,0.8,0,1.7-0.1,2.4C43.9,36.8,44,36,44.1,35.4 M44.5,47c-0.1-0.1-0.2-0.2-0.3-0.4C44.5,46.6,44.7,46.8,44.5,47 M44.4,45.6
			c0.1-0.1,0.2-0.1,0.3,0C44.6,45.7,44.5,45.6,44.4,45.6 M44.8,44.9c0-0.1,0.1-0.1,0.1-0.2c0.1,0,0.2,0.1,0.3,0.1
			C45.1,44.9,44.9,44.8,44.8,44.9 M45.4,46.8c0-0.1-0.1-0.3-0.1-0.5C45.5,46.2,45.6,46.7,45.4,46.8 M45.1,44.4
			c0-0.2,0.2-0.3,0.2-0.4c0.2,0.2,0.3,0.3,0.5,0.5C45.5,44.6,45.3,44.4,45.1,44.4 M45.7,45.4c0.1-0.1,0.2-0.1,0.3-0.1
			c0,0.1,0.1,0.2,0.1,0.2C46,45.5,45.9,45.4,45.7,45.4 M46.3,46.8c-0.1-0.2,0-0.4,0.1-0.5C46.5,46.5,46.6,46.8,46.3,46.8 M46.4,44.8
			c0-0.1,0.1-0.1,0.1-0.1c0.1,0.1,0.2,0.1,0.2,0.2C46.6,44.9,46.5,44.9,46.4,44.8 M47.4,47.1c-0.1,0.1-0.1,0.2-0.3,0.1
			c0.1-0.2,0.1-0.4,0.3-0.4V47.1z M47.4,46c-0.1,0-0.1-0.1-0.2-0.2c0-0.1,0.1,0,0.2,0V46z M46.8,44.5c0.1-0.1,0.3-0.3,0.5-0.4
			c0,0.3,0.2,0.4,0.2,0.7C47.1,44.9,47,44.6,46.8,44.5 M47.5,50.6c0.1-0.1,0.4,0,0.4,0.2C47.6,50.8,47.6,50.6,47.5,50.6 M47.9,49.8
			c0-0.3,0.4-0.1,0.5,0C48.3,50,48,49.9,47.9,49.8 M48,48.8c0.1-0.1,0.3-0.2,0.5-0.1C48.4,48.9,48.2,48.8,48,48.8 M48.5,47
			c-0.1-0.1-0.1-0.3-0.1-0.5c0.1,0,0.2,0.1,0.3,0.2C48.6,46.8,48.5,46.9,48.5,47 M48.5,45.3c0.1,0,0.3-0.1,0.4-0.1
			c0,0.2,0,0.4,0,0.7C48.7,45.8,48.7,45.5,48.5,45.3 M48.9,50.8h-0.3c0-0.1,0.2-0.2,0.3-0.3C49.1,50.6,49,50.7,48.9,50.8 M48.2,44.7
			c0.1-0.2,0.2-0.3,0.4-0.5c0.2-0.1,0.3-0.3,0.5-0.4c0.1,0.2,0,0.6,0,0.9C48.8,44.7,48.4,44.8,48.2,44.7 M49.1,47.8
			c0.1,0,0.1,0.1,0.1,0.2c-0.1,0-0.1,0.1-0.1,0.1C49,48,49.1,47.9,49.1,47.8 M49.1,49.6c0.1-0.2,0.2-0.3,0.2-0.5
			c0.1,0.1,0,0.3,0.1,0.4C49.3,49.5,49.2,49.6,49.1,49.6 M49.5,43.4c0.1-0.2,0.4-0.4,0.6-0.6c0.2-0.2,0.5-0.4,0.6-0.6c0,0,0,0,0,0.1
			c-0.3,0.6-0.6,1.2-0.9,1.8c-0.1,0.2-0.1,0.5-0.4,0.5C49.4,44.2,49.3,43.8,49.5,43.4 M49.5,51.3c0.1,0,0.1,0.1,0.1,0.1
			C49.5,51.4,49.6,51.4,49.5,51.3 M49.8,44.9c0.4-0.1,0.8-0.1,1.2-0.2c0.1,0.1-0.1,0.3-0.1,0.4c-0.4,0.2-0.9,0.3-1.4,0.5
			C49.5,45.4,49.7,45.2,49.8,44.9 M50.8,45.6C50.8,45.6,50.8,45.6,50.8,45.6c-0.1,0.3-0.2,0.5-0.3,0.7c-0.3,0-0.6-0.1-0.8-0.2
			C50,45.9,50.4,45.8,50.8,45.6 M50.3,46.6c-0.1,0.2-0.2,0.5-0.4,0.7c-0.2-0.1-0.2-0.5-0.2-0.7C49.9,46.6,50.1,46.6,50.3,46.6
			 M50,47.9c0-0.1,0.1,0,0.1,0C50.1,48,50,47.9,50,47.9 M50,48.3c0,0.1-0.1,0.2-0.1,0.3c-0.1-0.1,0-0.3-0.1-0.4
			C49.9,48.2,50,48.3,50,48.3 M49.9,49.8c0.1,0,0.1,0.1,0.1,0.1c0,0.1-0.1,0.2-0.2,0.3C49.8,50.1,49.9,49.9,49.9,49.8 M49.9,50.9
			c-0.1-0.4,0.3-0.4,0.4-0.7c0.2,0.1,0.3,0.3,0.4,0.5C50.4,50.7,50.1,50.8,49.9,50.9 M51.1,52.2c-0.2-0.2-0.5-0.5-0.7-0.8
			c0.1-0.1,0.3-0.2,0.6-0.1c0.2,0.4,0.4,0.7,0.6,1.1C51.3,52.5,51.2,52.3,51.1,52.2 M51.9,52.4c-0.1-0.1-0.2-0.3-0.3-0.5
			c0.1,0.1,0.3,0.3,0.4,0.5C52,52.3,52,52.3,51.9,52.4 M52.5,52.3c-0.1,0-0.3-0.3-0.4-0.5c-0.2-0.2-0.3-0.4-0.4-0.5c0,0,0,0,0,0
			c0.7,0,1.4,0,2.1,0.1c0.3,0,0.6,0.2,0.9,0.3c0.2,0.1,0.4,0.2,0.5,0.4c-0.6,0.1-1.3,0.1-2,0.2C53,52.2,52.7,52.3,52.5,52.3
			 M53,52.6c0.7-0.1,1.7-0.2,2.4-0.3c0.3,0,0.6,0.4,0.8,0.5C55.1,52.8,54,52.7,53,52.6 M56.4,52.5c0.3,0,0.6,0.3,0.9,0.4
			C56.8,53,56.6,52.7,56.4,52.5 M57.4,52.6c-0.3-0.1-0.6-0.3-0.9-0.4c0.6-0.2,1.1,0.1,1.5,0.4c0.3,0.2,0.6,0.3,0.9,0.5
			C58.2,53.1,57.8,52.8,57.4,52.6 M60.6,54c0.8,0.4,1.6,0.9,2.4,1.3c0,0,0.2,0.1,0.1,0.1c-1.3-0.7-2.7-1.3-4-2
			C59.7,53.4,60.1,53.7,60.6,54 M60.7,53.2c-0.3,0-0.7,0-1-0.1c-0.2,0-0.3-0.2-0.5-0.3c-0.5-0.3-1-0.5-1.5-0.8
			c0.6-0.1,1.3-0.2,1.9-0.2c0.6-0.1,1.3-0.2,2-0.2c1.5,0,3,0.2,4.5,0.2c0-0.1,0-0.1,0-0.1c0,0,0-0.1,0-0.1c3.1,1,6.2,1.9,9.3,2.9
			C70.7,54.1,65.6,53.6,60.7,53.2 M80.5,49.8c-0.1,1.6-0.3,3.5-0.4,5c-0.5,0-1-0.1-1.4-0.1c-0.5,0-1,0-1.5-0.1
			c-0.4-0.1-0.9-0.3-1.4-0.4c-2.8-0.9-5.5-1.7-8.3-2.6c-0.4-0.1-0.9-0.3-1.3-0.5c0.1-0.1,0.3-0.1,0.4-0.1c3.4-0.3,6.8-0.7,10.2-1.1
			c1.2-0.1,2.4-0.2,3.5-0.4C80.5,49.6,80.5,49.6,80.5,49.8 M66.2,50.8c0-0.9,0.1-1.8,0.1-2.7c0,0,0-0.1,0-0.1
			c4.7,0.4,9.5,0.8,14.2,1.2C75.8,49.8,71,50.2,66.2,50.8 M80,41.6c3.6-0.4,7.2-0.8,10.8-1.2c0.1,0.1,0.1,0.3,0.1,0.4
			c0.3,2.3,0.5,4.8,0.8,7.1c-3.6,0.4-7.2,0.8-10.8,1.2c0-0.1,0-0.2,0-0.3c-6.1-0.5-12.1-1-18.1-1.5c5.8-1.8,11.6-3.5,17.4-5.3
			C80.1,41.9,80,41.8,80,41.6 M79.8,41.8c-5.7,1.8-11.6,3.5-17.4,5.3c-0.2,0.1-0.4,0.2-0.6,0.2c-0.2,0-0.5,0-0.8-0.1
			c-0.7-0.1-1.5-0.1-2.3-0.2c0-0.1,0.2-0.1,0.3-0.2c0.3-0.2,0.6-0.3,1-0.5c0.4-0.2,0.8-0.5,1.3-0.7c0.4-0.2,0.7-0.2,1.1-0.4
			c1.1-0.4,2.2-0.8,3.3-1.2c-0.1-0.2-0.1-0.4-0.2-0.6c0.5-0.4,1.4-0.4,2.3-0.5c2.8-0.3,5.6-0.6,8.4-0.9c1.2-0.1,2.3-0.2,3.4-0.4
			C79.7,41.7,79.7,41.7,79.8,41.8 M79.6,41.3c-4.3,0.4-8.5,0.9-12.7,1.4c3.7-2,7.5-4,11.3-6C78.7,38.2,79.1,39.8,79.6,41.3
			 M73.7,30.1c3.6-1.9,7.2-3.8,10.8-5.7h0c1.2,2.3,2.4,4.5,3.5,6.7c-3.2,1.7-6.4,3.4-9.6,5.1c-0.1,0-0.1-0.2-0.1-0.2
			c-6.3,1.9-12.5,3.8-18.8,5.7c0-0.1,0.2-0.2,0.3-0.3c3-2.6,6.1-5.2,9.2-7.7c0.8-0.7,1.6-1.3,2.4-2c0.3-0.2,0.5-0.5,0.8-0.7
			C72.7,30.6,73.2,30.4,73.7,30.1 M74.1,28.8c-0.5,0.5-1.1,0.9-1.6,1.4c-0.2,0.2-0.3,0.3-0.5,0.5c-0.4,0.2-0.9,0.4-1.3,0.7
			c-2.6,1.3-5.1,2.8-7.7,4.1c-0.4,0.2-0.8,0.5-1.3,0.6c0-0.2,0.1-0.3,0.2-0.4c2.1-2.7,4.3-5.4,6.5-8.1c0.8-1,1.5-1.9,2.3-2.9
			C71.8,26.1,73,27.5,74.1,28.8 M71.5,11c2,1.6,3.9,3.2,5.9,4.7c-2.2,2.8-4.5,5.6-6.8,8.4c-0.1,0-0.1-0.1-0.2-0.2
			c-4.6,3.8-9.2,7.8-13.8,11.7c-0.1,0-0.1,0.1-0.2,0.1c2.9-5.3,5.8-10.7,8.6-16.1c-0.1-0.1-0.3-0.2-0.4-0.2
			C67,16.7,69.3,13.8,71.5,11 M64.5,19.8c0.1,0,0.1,0.1,0.2,0.1c-2.8,5.1-5.5,10.4-8.4,15.6c-0.2,0.3-0.3,0.7-0.6,1
			c-0.3,0.4-0.8,0.7-1.2,1c-0.4,0.3-0.8,0.7-1.2,1c0.1-0.5,0.3-1,0.5-1.5c0.2-0.5,0.3-1,0.5-1.5c0.3-0.7,0.7-1.3,1-2
			c0.3-0.7,0.6-1.3,0.9-2c-0.2-0.1-0.4-0.2-0.6-0.3c0.1-0.6,0.4-0.8,0.7-1.3c2-2.5,3.9-4.9,5.9-7.3C63,21.6,63.7,20.7,64.5,19.8
			 M64.2,19.6c-2.7,3.3-5.3,6.7-8,10c1.3-4.1,2.5-8.2,3.8-12.2C61.4,18.1,62.8,18.9,64.2,19.6 M52.2,15.6c0.9-2.7,1.7-5.5,2.5-8.2
			c0.4-1.1,0.7-2.3,1-3.3c2.4,0.7,4.8,1.5,7.2,2.2c-1,3.5-2.1,7-3.2,10.4c0,0.1-0.2-0.1-0.2-0.1c-3.1,5.7-6.2,11.6-9.3,17.2
			c0.4-4.9,0.8-9.7,1.2-14.6c0.1-0.7,0-1.4,0.2-2.1C51.8,16.7,52,16.2,52.2,15.6 M46.2,14.2c1.8,0.1,3.6,0.3,5.4,0.4
			c-0.1,0.8-0.1,1.7-0.2,2.5c-0.1,0.5-0.3,1-0.4,1.4c-0.9,2.8-1.7,5.7-2.6,8.6c-0.1,0.5-0.3,0.9-0.5,1.4c-0.1-0.1-0.1-0.3-0.1-0.4
			C47.2,23.6,46.6,18.9,46.2,14.2C46.2,14.2,46.2,14.2,46.2,14.2 M47.4,28.5c-0.9,0-1.8-0.1-2.7-0.1c0.4-4.6,0.8-9.2,1.2-13.8
			C46.4,19.2,46.9,23.9,47.4,28.5"/>
	</g>
	<g>
		<path class="st2" d="M43,52.6l-0.4-2c-0.1-0.3-0.2-0.6-0.3-1L42,49.9c0.1,0.3,0.2,0.6,0.2,0.8c-0.2,0-0.5-0.1-0.8-0.1L41.2,51
			c0.4,0,0.8,0.1,1.1,0.2C42.5,51.6,42.8,52.1,43,52.6"/>
		<path class="st2" d="M50.8,89.2c-0.8-1-1.9-1.8-3.1-2.4c1-0.1,1.8-0.2,2.5-0.5L50.1,86c-1,0.4-2.1,0.6-3.4,0.5
			c-2.8-0.2-4.9-1.3-6.2-2.9c2.6-0.5,4.6-1.7,6.2-3.2c0.8,1.4,1.8,2.6,3,3.5l-0.1-0.5c-1.1-0.9-2-2-2.7-3.2c0.5-0.6,1.1-1.2,1.6-1.8
			l-0.1-0.4c-0.5,0.6-1.1,1.3-1.7,1.9c-0.8-1.6-1.6-3.3-2.2-5.2c0.9-0.8,1.8-1.5,2.7-2.4l-0.1-0.4c-0.8,0.9-1.7,1.7-2.7,2.4
			c-0.5-1.7-0.9-3.5-0.9-5.6c0.9-0.5,1.8-1,2.6-1.6L46,66.6c-0.8,0.6-1.6,1.1-2.5,1.6c0-1.2,0.1-2.3,0.3-3.4
			c0.6-0.2,1.2-0.5,1.7-0.7l-0.1-0.3c-0.5,0.3-1,0.5-1.6,0.7c0-0.4,0.3-0.6,0.6-0.9c0.3-0.2,0.5-0.4,0.8-0.6l-0.1-0.4
			c-0.2,0.1-0.3,0.2-0.5,0.3c0.1-0.2,0.3-0.4,0.4-0.7l-0.1-0.5c-0.2,0.4-0.5,0.8-0.8,1.2c0.1-0.5,0.4-1.1,0.5-1.6c0.1,0,0.1,0,0.2,0
			l-0.2-1.1c-0.6,0.1-1.2,0.3-1.6,0.4c0.5-0.4,1-0.8,1.4-1.2l-0.1-0.4c0,0,0,0,0,0c-0.4-0.1-0.7-0.1-1-0.2c0.2-0.3,0.5-0.5,0.8-0.7
			c0,0,0.1,0,0.1,0l-0.1-0.4c0,0-0.1,0-0.1,0.1c-0.6-0.2-1.2-0.3-1.8-0.4c0.5-0.1,1.2-0.3,1.7-0.5l-0.1-0.6c-0.1,0-0.1-0.1-0.2-0.1
			c0,0,0.1,0,0.1-0.1L43.7,56c-0.1,0.1-0.3,0.1-0.4,0.1c-0.4-0.3-0.8-0.7-1.2-1.1c0.5,0.2,1.1,0.6,1.6,0.9l-0.1-0.5
			c-0.3-0.2-0.7-0.4-1-0.6c0.3,0,0.6,0.1,0.9,0.1l-0.1-0.3c-0.7-0.1-1.4-0.2-2.1-0.4c-0.1-0.1-0.2-0.2-0.2-0.3
			c0.7-0.1,1.4-0.2,2.1-0.2l-0.1-0.3c-0.8,0-1.6,0.1-2.3,0.2c-0.3-0.4-0.6-0.7-0.8-1.1l-0.2,0.3c0.2,0.3,0.4,0.6,0.6,0.9
			c-0.5,0.1-1.1,0.2-1.6,0.4l-0.3,0.4c0.7-0.2,1.4-0.4,2.2-0.5c0.1,0.2,0.4,0.3,0.4,0.6c0.1,0,0.1,0,0.2,0.1
			c0.5,0.6,1.1,1.1,1.7,1.6c-0.7,0.3-1.4,0.6-2,1c-0.1,0-0.1,0-0.2,0c-0.1,0.2-0.4,0.3-0.6,0.5c-1-0.5-1.9-1.1-2.8-1.7l-0.2,0.3
			c0.8,0.6,1.7,1.1,2.7,1.6c-0.8,0.6-1.5,1.2-2.3,2c-0.1,0.1-0.2,0.3-0.3,0.3c-0.1,0-0.5-0.2-0.7-0.2c-0.5-0.2-1.1-0.4-1.6-0.7
			l-0.2,0.3c0.7,0.3,1.5,0.6,2.2,0.9c-1.2,1.4-2.4,2.9-3.3,4.7c-0.9-0.2-1.8-0.3-2.7-0.6L30.8,65c0.9,0.2,1.8,0.4,2.8,0.6
			c-0.8,1.7-1.6,3.4-2.1,5.3c-1.7,0-3.1-0.4-4.4-0.9l-0.2,0.3c1.3,0.5,2.7,0.9,4.5,0.9c-0.7,2-0.5,5.1,0.1,7
			c-2.1-0.5-3.6-1.7-4.8-3.1c-0.6-0.7-1.1-1.6-1.5-2.5c0,0,0,0,0,0l-0.2,0.3c0.1,0.2,0.2,0.4,0.2,0.5c-0.1,0-0.2-0.2-0.4-0.2
			c0,0,0,0-0.1,0l-0.2,0.3c0.4,0.3,0.8,0.6,1.1,0.9c0.2,0.2,0.3,0.4,0.4,0.6c0.3,0.4,0.6,0.7,0.9,1.2c0.5,1.1,1.2,3,0.7,4.6
			c0,0.1-0.1,0.2,0,0.3c0,0,0,0,0,0c0.1,0.2,0.3,0,0.4,0c1.6-0.5,3.6,0,4.7,0.5c0.3,0.1,0.5,0.3,0.8,0.5c0.5,0.4,1.1,0.6,1.6,0.9
			c0.2,0.2,0.5,0.3,0.8,0.5c0.3,0.1,0.6,0.2,0.8,0.4c0.5,0.3,0.9,0.8,1.3,1.2c0.6,0.7,1.3,1.7,1.6,2.8c0.1,0.2,0,0.5,0.2,0.4
			c0.1,0.1,0.2,0,0.3-0.1c0.9-0.9,2.4-1.4,4-1.6c0.7-0.1,1.2,0,1.8,0.1c0.3,0,0.6,0.1,0.9,0.1c1.8,0.6,3.3,1.6,4.1,3.1h0
			c0,0,0,0,0,0L50.8,89.2z M46.4,80c-1.1,1.2-2.6,2.1-4.4,2.8c-0.3,0.1-0.5,0.2-0.9,0.3c-0.3,0.1-0.8,0.2-1,0.2
			c-0.1,0-0.3-0.3-0.4-0.5c-0.9-1.3-1.6-2.7-2-4.5c2.4-0.9,4.5-2.2,6.5-3.6C44.8,76.6,45.5,78.4,46.4,80 M43.9,73.7
			c0,0.2,0.2,0.6,0.2,0.6c0,0.1-0.5,0.4-0.7,0.6c-0.8,0.5-1.5,1-2.3,1.4c-1.1,0.6-2.1,1.2-3.4,1.6c-0.3-2.2-0.2-5.1,0-7.3
			c2-0.4,3.8-1,5.4-1.8C43.2,70.4,43.5,72.3,43.9,73.7 M43.1,68.4c-1.5,0.9-3.4,1.5-5.3,1.9c0.2-1.6,0.6-3.1,1.1-4.4
			c1.6-0.1,3.1-0.4,4.4-0.9c0,0.2,0,0.5-0.1,0.8C43.1,66.5,43.1,67.4,43.1,68.4 M44.1,62.1c-0.2,0.6-0.3,1.2-0.6,1.8
			c0.1,0.2-0.1,0.5-0.1,0.7c-1.3,0.5-2.8,0.8-4.4,0.9c0.6-1.5,1.3-2.8,2.1-4c0.3,0,0.6,0,0.7,0.1c0.3-0.1,0.8,0,1.3,0
			c0.4,0,0.8,0,1.1-0.1C44.3,61.7,44.2,61.9,44.1,62.1 M44.6,60.7c0,0.1-0.1,0.3-0.2,0.4c-0.5,0.1-1.1,0.1-1.7,0.1
			C43.3,61,44,60.9,44.6,60.7 M44,59.5c-0.7,0.7-1.4,1.2-2.3,1.7c-0.1-0.1-0.3,0-0.3,0c0-0.1,0.1-0.2,0.1-0.2c0.4-0.6,1-1.2,1.5-1.7
			c0,0,0,0,0,0C43.4,59.3,43.7,59.5,44,59.5 M43.3,56.6c0.1,0.1,0.2,0.2,0.4,0.2c-0.5,0.2-1.2,0.3-1.8,0.5
			C42.3,57,42.8,56.8,43.3,56.6 M40.9,57.8c1,0,1.9,0.2,2.8,0.4c-0.2,0.3-0.5,0.5-0.8,0.7c-0.8-0.2-1.6-0.5-2.3-0.9
			C40.6,57.9,40.8,57.9,40.9,57.8 M40.2,58.3c0.7,0.3,1.5,0.6,2.4,0.9c0,0.1-0.1,0.1-0.2,0.2c-0.5,0.5-1,1.2-1.5,1.7
			c-1.2-0.1-2.3-0.4-3.3-0.7C38.4,59.6,39.3,58.9,40.2,58.3 M37.4,60.7c1.1,0.3,2.1,0.6,3.3,0.7c-0.8,1.2-1.5,2.6-2.1,4
			c-1.5,0.1-3.2,0-4.5-0.2C35,63.6,36.1,62,37.4,60.7 M33.9,65.6c1.4,0.2,3,0.3,4.6,0.2c-0.5,1.4-0.9,2.9-1.1,4.5
			c-1.7,0.4-3.6,0.6-5.7,0.6C32.3,69,33,67.2,33.9,65.6 M31.6,71.3c2.1,0,4-0.2,5.7-0.6c-0.2,2.2-0.4,5.1,0,7.4
			c-1.5,0.4-3.7,0.7-5.5,0.3C31.1,76.5,30.9,73.3,31.6,71.3 M33.2,81.4c-1.3-0.7-3.4-1.1-5.2-0.7c0.3-1.5,0-3.1-0.5-4.2
			c1.1,0.9,2.4,1.7,4.2,2.1c0.3,1,0.9,1.8,1.5,2.6C33.1,81.3,33.2,81.3,33.2,81.4 M35,82.5c-0.6-0.4-1.3-1.1-1.7-1.6
			c-0.5-0.6-1-1.4-1.2-2.1c1.8,0.3,3.9,0.1,5.4-0.3c0.1,0.2,0.2,0.4,0.2,0.7c0.5,1.6,1.2,3.1,2.1,4.2c-0.9,0.1-1.8,0.1-2.6-0.1
			C36.3,83.1,35.5,82.9,35,82.5 M39.9,87.8c-0.5-1.9-1.7-3.2-3.1-4.3c0.6,0.1,1.8,0.2,2.8,0.1c0.1,0,0.3-0.1,0.4,0
			c0.1,0,0.3,0.3,0.4,0.4c0.9,1,2.1,1.7,3.5,2.2C42.2,86.5,40.9,87,39.9,87.8"/>
		<path class="st0" d="M44.1,49.9c-0.5,0.5-0.9,0.9-1.4,1.4l0.1,0.4c0.1-0.1,0.3-0.3,0.4-0.4c0.4-0.4,0.8-0.9,1.2-1.3L44.1,49.9z"/>
		<path class="st0" d="M42.2,49.2l0,0.2c0.1,0,0.2-0.1,0.3-0.1L42.2,49.2z"/>
		<path class="st0" d="M45.1,50.3c-0.6,1.3-1.2,2.7-1.8,4l0.1,0.6c0.7-1.5,1.3-3,2-4.5L45.1,50.3z"/>
		<path class="st0" d="M79.7,79.3v-0.5h0v-1.1h0v-1.1h0v-1.1h0v-1.1h0v-1.1h0v-1.1h0V71h0v-0.8c0-0.1,0-0.2,0-0.3v0
			c3.1-1.2,6.1-2.3,9.1-3.5l-0.5-0.2c-2.9,1.1-5.8,2.2-8.6,3.3c0,0,0-0.1,0-0.2v-0.5h0v-1.1h0v-1.1h0v-1.1h0v-1.1h0v-1.1h0V63
			l-0.4-0.1v0.5h0v1.1h0v1.1h0v1.1h0v1.1h0v1.1h0v0.6c0,0.1,0,0.2,0,0.3c-2.7,1-5.4,2.1-8.1,3.1c0.8-1.9,1.7-3.8,2.6-5.8
			c0.1-0.3,0.2-0.6,0.4-0.8c0.1-0.2,0.4-0.4,0.6-0.7c1-1,2-2.1,3.1-3.2l-0.4-0.1c-0.6,0.6-1.2,1.2-1.7,1.8c-0.3,0.4-0.7,0.7-1,1.1
			c0,0-0.1,0.1-0.1,0.1c0.4-1,0.9-2,1.4-3.1c0.1-0.1,0.1-0.3,0.2-0.4l-0.3-0.1c-0.5,1.1-0.9,2.1-1.4,3.2c-0.2,0.4-0.3,0.8-0.5,1.2
			c-0.2,0.3-0.6,0.6-0.9,1c-0.9,1-1.8,1.9-2.7,2.8c0,0,0-0.2,0-0.2v-0.8h0v-1.1h0v-1.1h0v-1.1h0v-1.1h0v-0.8c1.8-0.7,3.5-1.4,5.3-2
			l-0.5-0.2c-1.6,0.6-3.1,1.2-4.7,1.8c-0.1,0.1-0.1-0.1-0.1-0.2V62h0v-1.1h0v-1.1h0v-0.4l-0.4-0.1v0.5h0v1.1h0V62h0v0.8
			c0,0.1,0,0.2,0,0.3v0c-1.5,0.7-3.2,1.2-4.8,1.9c-0.2-0.1-0.4-0.3-0.5-0.5c0.5-1.3,1.1-2.5,1.6-3.8c0.7-0.7,1.3-1.4,2-2.1l-0.4-0.1
			c0,0-0.1,0.1-0.1,0.1c-0.3,0.3-0.6,0.7-0.9,1c0,0-0.1,0.1-0.1,0.1c0.2-0.5,0.4-0.9,0.6-1.4l-0.3-0.1c-0.2,0.6-0.5,1.1-0.7,1.7
			c-0.1,0.2-0.2,0.4-0.3,0.6c-0.1,0.2-0.3,0.3-0.5,0.5c-0.5,0.5-1,1-1.5,1.5v-0.8h0v-1.1h0v-1.1h0v-0.3c0.9-0.4,1.8-0.7,2.8-1.1
			L66,58c-0.8,0.3-1.5,0.6-2.3,0.9v-0.4h0v-1.1h0v-0.2L63.3,57v0.4h0v1.1h0V59c-1.1,0.4-2.3,0.9-3.4,1.3c-0.1-0.1-0.3-0.2-0.3-0.3
			c0.2-0.5,0.4-0.9,0.6-1.4c0.2-0.4,0.4-0.9,0.6-1.3c0.2-0.3,0.6-0.6,0.9-0.9l-0.3-0.1c0,0-0.1,0-0.1,0c0,0,0,0,0,0L61,56.1
			c0,0.1-0.1,0.2-0.1,0.3c-0.1,0.2-0.2,0.4-0.3,0.6c-0.1,0.2-0.3,0.3-0.5,0.5c-0.5,0.5-1,1.1-1.5,1.5c-1.9-1.8-3.7-3.7-5.6-5.4
			c-0.3-0.2-0.5-0.5-0.8-0.8l-0.8-0.3c1.9,1.8,3.7,3.6,5.6,5.4c0.3,0.3,0.7,0.7,1.1,1c0.1,0.1,0.4,0.3,0.4,0.3c0,0-0.2,0.3-0.3,0.3
			c-0.6,0.6-1,1-1.5,1.6c-0.2,0.2-0.4,0.5-0.6,0.6c-0.2,0.1-0.6,0.2-0.8,0.3c-0.8,0.3-1.6,0.7-2.5,1c-1.5-3.9-3-7.8-4.5-11.8
			l-0.4-0.2c0.1,0.3,0.3,0.7,0.4,1c1.4,3.7,2.9,7.4,4.2,11c-0.6,0.2-1.3,0.5-1.9,0.7c-0.3,0.1-0.5,0.3-1,0.2h-0.5v0h-1.1v0h-0.8
			v-1.2h0V62h0v-1.1h0v-1.1h0v-1.1h0v-1.1h0v-1.1h0v-1.1h0v-1.1h0v-1.1h0v-1.1h0V51h0v-0.1l-0.4-0.1V51h0v1.1h0v1.1h0v1.1h0v1.1h0
			v1.1h0v1.1h0v1.1h0v1.1h0v1.1h0V62h0v1.1h0v1.1h0c0.1,0.2-0.1,0.1-0.2,0.1h-0.8v0h-0.1l0.1,0.4h0v0h1V65c0,0.1,0,0.2,0,0.3v0.2
			c-0.2,0.1-0.4,0.1-0.6,0.2c-0.1,0-0.2-0.1-0.3-0.1l0.1,0.5c0.1,0,0.1,0,0.1,0c0.2,0,0.4,0.2,0.6,0.3c0,0.1,0,0.2,0,0.4v0.8h0v1.1
			h0v1.1h0v0.5l0.4,2c1-0.4,1.9-0.7,2.9-1.1c0.5-0.2,0.8-0.4,1.4-0.4H52v0h1.1v0h1.1v0h1c0,0.1,0.2,0.4,0.2,0.6
			c0,0.1-0.3,0.4-0.4,0.5c-0.4,0.5-0.9,1-1.3,1.4c-0.7,0.7-1.2,1.3-1.8,1.8c-1.5-0.7-3-1.3-4.5-2l0.1,0.4c1.4,0.6,2.7,1.2,4.1,1.8
			c-0.3,0.4-0.7,0.7-1,1.1c-0.6,0.7-1.3,1.4-2,2.1l0.1,0.4c1.1-1.2,2.2-2.4,3.4-3.4c1.9,0.8,3.8,1.7,5.7,2.5
			c-1.4,0.6-2.8,1.1-4.2,1.7c-0.3,0.1-0.6,0.3-1.1,0.2h-0.5v0h-1.1v0h-1.1v0h-0.8l0.1,0.4h0.7v0h1.1v0h0.8c0.1,0,0.2,0,0.2,0
			c-0.9,0.3-1.8,0.7-2.7,1l0.1,0.3c1.2-0.5,2.4-0.9,3.7-1.4c0.1,0,0.2,0,0.3,0H54v0h1.1v0h1.1v0h1.1v0h1.1v0h1.1v0h0.6
			c0,0-0.1,0.1-0.1,0.2c-1.5,1.5-2.9,3-4.4,4.5c-0.5,0.5-1,1.1-1.5,1.6c-1.4-0.6-2.8-1.3-4.2-1.9l0.1,0.4c1.3,0.6,2.6,1.2,3.9,1.7
			c0,0.1-0.2,0.2-0.2,0.3c-0.9,0.9-1.8,1.8-2.6,2.7l0.1,0.4c0.9-1,1.9-1.9,2.7-2.9c0.1-0.1,0.3-0.3,0.5-0.4c2.9,1.3,5.9,2.6,8.9,3.9
			c1.6-3.6,3.2-7.2,4.8-10.8h0.5v0h1.1v0h1.1v0h1.1v0h1.1c0,0,0,0,0,0h1.1v0h1.1v0h1.1v0h1.1v0h0.3c0.1,0,0.2,0,0.3,0h0.5v0h1.1v0
			h0.3C79.8,79.7,79.7,79.4,79.7,79.3 M46.6,66c0,0-0.2,0-0.1-0.1c0.1,0,0.1,0,0.1,0C46.7,65.8,46.6,65.9,46.6,66 M70.1,70.4
			c0-0.1,0-0.1,0-0.2c1.1-1.1,2.1-2.2,3.2-3.3c-0.9,2-1.8,4.1-2.7,6.1c-1.7,0.6-3.3,1.3-5,1.9c-0.1-0.1,0.1-0.2,0.2-0.3
			c1.4-1.4,2.7-2.9,4.1-4.2H70.1z M56.5,70.7h1v0h1.1v0h1.1v0h1.1v0h0.5c-1,2.3-2.1,4.7-3.1,7c-0.7-1.8-1.5-3.9-2.2-5.8
			c0-0.1-0.1-0.3-0.1-0.4C55.8,71.2,56.4,70.9,56.5,70.7 M55.7,71c-0.1-0.1-0.1-0.2-0.1-0.4H56c0,0,0,0,0,0.1
			C55.9,70.8,55.8,70.9,55.7,71 M54.5,69c-0.2,0.1-0.4,0.1-0.5,0.2c-1.1-0.5-2.2-1-3.3-1.4c0.8-0.8,1.6-1.7,2.4-2.5
			C53.6,66.6,54.1,67.8,54.5,69 M53.2,64.5h0.2c0,0.1-0.1,0.1-0.1,0.1C53.2,64.6,53.2,64.6,53.2,64.5 M54.6,69.3
			c0.1,0,0.1,0.1,0.1,0.2c-0.1,0-0.2-0.1-0.3-0.1C54.5,69.4,54.6,69.4,54.6,69.3 M53.4,65.1c0.1-0.2,0.3-0.4,0.5-0.5h0.5v0h1.1v0
			h1.1v0h0.7c-0.6,1.4-1.2,2.8-1.8,4.2c-0.2,0.1-0.4,0.1-0.6,0.2C54.4,67.6,53.9,66.3,53.4,65.1 M57.6,64.5c0-0.1,0.2,0,0.4,0h0.8v0
			h1.1v0H61v0h0.8c0.1,0,0.1,0,0.2,0c-0.6,0.6-1.3,1.4-2,2.1c-0.2,0.2-0.4,0.5-0.7,0.7c-0.3,0.1-0.6,0.2-0.9,0.3
			c-0.9,0.3-1.7,0.7-2.6,1C56.4,67.2,57,65.8,57.6,64.5 M59.6,67.4c1.2-0.4,2.4-0.9,3.7-1.4c-0.6,1.4-1.2,2.8-1.8,4.2h-0.6v0h-1.1v0
			h-1.1v0h-1.1v0h-0.6c0-0.1,0.2-0.2,0.3-0.4C58,69.1,58.8,68.2,59.6,67.4 M61.7,70.6h0.2v0H63v0h1.1v0h1.1v0h1.1v0h1.1v0h1.1v0h0.6
			c0.1,0,0.3,0,0.3,0c-1.3,1.3-2.7,2.8-4,4.2c-0.2,0.2-0.4,0.5-0.6,0.6c-0.2,0.1-0.5,0.2-0.8,0.3c-1.8,0.7-3.6,1.4-5.4,2.1
			C59.6,75.3,60.6,72.9,61.7,70.6 M69.6,63.6c0,0,0,0.1,0,0.1v0.5h0v1.1h0v1.1h0v1.1h0v1.1h0c0,0.1,0,0.2,0,0.3v0.5
			c0,0.1,0,0.2,0,0.3v0.1c-1.6-1.5-3.1-3-4.7-4.5C66.6,64.7,68.1,64.2,69.6,63.6 M64.7,65.5c1.6,1.5,3.1,3,4.6,4.4
			c0.1,0,0.1,0.1,0.2,0.1c0,0-0.1,0-0.1,0h-0.8v0h-1.1v0h-1.1v0h-1.1v0h-1.1v0H63v0h-0.8c-0.1,0-0.2,0-0.3,0h0
			c0-0.2,0.1-0.4,0.2-0.5c0.6-1.2,1.2-2.6,1.7-3.9C64.1,65.7,64.4,65.6,64.7,65.5 M64.5,65.2c-0.1,0.1-0.3,0.1-0.5,0.2
			c0.1-0.1,0.1-0.3,0.2-0.4C64.3,65,64.3,65.1,64.5,65.2 M63.8,63.7v-0.6c0.4-0.4,0.9-1,1.3-1.4c0,0,0.1-0.1,0.2-0.1
			c-0.4,0.9-0.8,1.8-1.2,2.8c-0.1,0-0.2-0.1-0.2-0.2C63.8,64,63.8,63.8,63.8,63.7 M63.9,64.7c-0.1,0.3-0.3,0.6-0.4,0.9
			c-1.1,0.4-2.2,0.9-3.3,1.3c0.8-0.8,1.6-1.6,2.3-2.4h0.6v0h0.3C63.7,64.4,63.8,64.6,63.9,64.7 M63.1,63.9
			C63.1,63.9,63.1,63.9,63.1,63.9c0.1,0.1,0.1,0.1,0.1,0.2h-0.3C62.9,64,63,63.9,63.1,63.9 M63.5,63.8c-0.1,0-0.1-0.1-0.1-0.1
			c0-0.1,0.1-0.1,0.1-0.1C63.5,63.4,63.4,63.7,63.5,63.8 M63.3,59.4C63.4,59.4,63.4,59.4,63.3,59.4C63.4,59.4,63.4,59.4,63.3,59.4
			c0.1,0,0,0.2,0,0.4C63.4,59.6,63.4,59.4,63.3,59.4c0,0.2,0,0.3,0,0.5v0.8h0v1.1h0v0.8c0,0.1,0,0.2,0,0.3c-0.1,0.2-0.3,0.4-0.4,0.5
			c-0.9-0.9-1.9-1.8-2.8-2.8C61.3,60.2,62.3,59.8,63.3,59.4 M59.8,60.8c0.8,0.7,1.8,1.7,2.6,2.5c0.1,0.1,0.4,0.3,0.4,0.4
			c0,0.1-0.4,0.3-0.4,0.4h-0.3v0H61v0h-1.1v0h-1.1v0h-1c0.4-1.1,0.9-2.1,1.4-3.1C59.4,60.9,59.6,60.8,59.8,60.8 M59.4,60.5
			c0-0.1,0-0.1,0.1-0.1c0,0,0.1,0,0.1,0.1C59.5,60.5,59.4,60.5,59.4,60.5 M60.1,58.1c-0.2,0.6-0.5,1.1-0.7,1.7
			c-0.2-0.1-0.4-0.3-0.5-0.5C59.3,58.9,59.7,58.4,60.1,58.1 M56.9,61.4c0.5-0.5,0.9-1,1.5-1.5c0,0,0.2-0.2,0.2-0.2
			c0.1,0,0.3,0.2,0.3,0.3c0.1,0.1,0.2,0.2,0.3,0.3c-0.1,0.2-0.2,0.4-0.2,0.6c-0.7,0.3-1.5,0.6-2.2,0.9
			C56.7,61.5,56.9,61.4,56.9,61.4 M56.1,62.2c0.4-0.2,0.9-0.3,1.3-0.5c0.4-0.2,0.8-0.4,1.3-0.5c-0.4,1-0.9,2-1.3,2.9h-0.8v0h-1.1v0
			h-0.8c-0.1,0-0.2,0-0.3,0h-0.1c-0.1,0,0-0.1,0.1-0.1c0.4-0.5,0.9-1,1.4-1.4C55.8,62.5,56,62.3,56.1,62.2 M55.3,62.5
			c0,0-0.1,0.1-0.1,0.2c-0.5,0.5-1,1-1.5,1.5h-0.4v0c-0.1,0-0.2,0-0.2,0c-0.1-0.2-0.2-0.5-0.3-0.7C53.6,63.1,54.5,62.8,55.3,62.5
			 M50.8,64.2c0.5-0.2,1.1-0.4,1.6-0.6c0.1,0.2,0.1,0.4,0.2,0.6h-0.5v0h-1.1v0C51,64.2,50.7,64.3,50.8,64.2 M47,65
			c0-0.1,0-0.3,0-0.4h0.8v0h0.6c0.1,0,0.3,0,0.4,0c-0.6,0.2-1.1,0.4-1.7,0.6C46.9,65.4,47,65.1,47,65 M47,65.7
			c0.9-0.4,1.9-0.7,2.8-1.1c0.1,0,0.3,0,0.5,0h0.8v0h1.1v0h0.6c0.1,0.1,0.1,0.2,0.1,0.4c-0.4,0.5-0.8,0.9-1.3,1.4
			c-0.4,0.5-0.9,0.9-1.3,1.3c-1.1-0.5-2.2-1-3.4-1.5C47,66,47,65.9,47,65.7 M47.1,69.7v-1.1h0v-1.1h0v-1c1,0.5,2.1,0.9,3.1,1.4
			c-0.8,0.9-1.6,1.7-2.5,2.6c-0.1,0-0.2,0-0.4,0h-0.2L47.1,69.7L47.1,69.7z M47.3,70.9c0,0.1-0.1,0.1-0.2,0.2v-0.2
			C47.2,70.9,47.3,70.8,47.3,70.9 M47.1,71.9c0,0,0-0.2,0-0.2c0.2-0.3,0.5-0.5,0.7-0.8h0.9v0h0.8c0.1,0,0.2,0,0.3,0H50
			C49,71.2,48.1,71.5,47.1,71.9 M50.9,70.4c-0.1,0-0.2,0-0.3,0h-0.8v0h-1.1v0h-0.5c0-0.1,0.1-0.1,0.1-0.1c0.7-0.8,1.5-1.5,2.2-2.3
			c1,0.5,2,0.9,3,1.4C52.6,69.7,51.8,70.1,50.9,70.4 M54.2,70.3L54.2,70.3l-1.1,0v0c-0.1,0-0.2,0-0.3,0h-0.5c-0.1,0-0.2,0-0.2,0
			c0.4-0.1,1-0.4,1.5-0.6c0.2-0.1,0.4-0.2,0.5-0.2c0.2,0,0.3,0.1,0.5,0.2c0.2,0.1,0.3,0.1,0.5,0.2c0,0.1,0.1,0.2,0.1,0.3H54.2z
			 M55.1,69.4c0-0.1-0.1-0.1-0.1-0.2c0.1,0,0.1-0.1,0.2-0.1C55.2,69.3,55.1,69.3,55.1,69.4 M55.2,69.9c0.1-0.3,0.3-0.6,0.4-1
			c1.1-0.4,2.1-0.8,3.1-1.2c0,0.1-0.1,0.1-0.1,0.1c-0.7,0.8-1.5,1.5-2.2,2.3c0,0.1-0.2,0.1-0.4,0.1h-0.7
			C55.3,70.2,55.3,70,55.2,69.9 M52.2,75.2c0.9-1,2-2.1,3-3.1c0.1-0.1,0.2-0.3,0.4-0.4c0.8,2,1.5,4,2.3,6C56,76.9,54.1,76,52.2,75.2
			 M60,79.7h-0.5v0c-0.1,0-0.2,0-0.3,0h-0.8v0h-1.1v0h-1.1v0h-1.1v0h-0.8c-0.1,0-0.2,0-0.3,0h-0.2c1.1-0.5,2.5-1,3.7-1.4
			c0.3-0.1,0.5-0.3,0.7-0.1c0.1,0,0.1-0.2,0.1-0.2c1.9-0.7,3.9-1.5,5.8-2.2c0,0.1-0.1,0.2-0.2,0.2c-1,1.1-2.1,2.1-3.1,3.2
			C60.7,79.5,60.5,79.8,60,79.7 M67.5,80c-1.5,3.5-3,6.9-4.6,10.3c-2.9-1.2-5.6-2.5-8.5-3.7c0-0.1,0.2-0.3,0.3-0.4
			c0.9-0.9,1.8-1.9,2.7-2.8c1-1.1,2.1-2.1,3.1-3.2c0,0,0.2,0,0.3,0h0.8v0h1.1v0h1.1v0H65v0h1.1v0h1.1v0C67.3,79.9,67.5,79.9,67.5,80
			 M67.7,79.6h-0.4v0h-1.1v0H65v0h-1.1v0h-1.1v0h-1.1v0h-0.3c-0.2,0-0.3,0-0.4,0c0-0.1,0.1-0.2,0.2-0.2c1.2-1.3,2.6-2.7,3.8-4
			c1.8-0.7,3.6-1.4,5.4-2.1C69.5,75.5,68.6,77.5,67.7,79.6 M79.1,79.4h-0.8v0h-1.1v0h-1.1v0H75v0h-1.1v0h-1.1c0,0,0,0,0,0h-1.1v0
			h-1.1v0h-1.1v0h-1.1v0c-0.1,0-0.3,0-0.3,0c0.9-2.1,1.9-4.2,2.8-6.3c2.8-1.1,5.6-2.2,8.4-3.2v1h0v1.1h0v1.1h0v1.1h0v1.1h0v0.3
			c0,0.1,0,0.2,0,0.3v0.5h0v1.1h0v1.1h0v0.6C79.5,79.4,79.2,79.3,79.1,79.4"/>
	</g>
</g>
</svg>
