<?xml version="1.0" encoding="UTF-8" standalone="no"?>
<!-- Generator: Adobe Illustrator 16.0.0, SVG Export Plug-In . SVG Version: 6.00 Build 0)  -->
<!DOCTYPE svg  PUBLIC '-//W3C//DTD SVG 1.1//EN'  'http://www.w3.org/Graphics/SVG/1.1/DTD/svg11.dtd'>
<svg id="Layer_1" xmlns="http://www.w3.org/2000/svg" xml:space="preserve" height="125px" viewBox="0 0 218 125" width="218px" version="1.1" y="0px" x="0px" xmlns:xlink="http://www.w3.org/1999/xlink" enable-background="new 0 0 218 125">
<path fill="#429544" clip-rule="evenodd" d="m61.376-31.642c6.106-2.309 12.116-4.704 18.082-7.14 3.263 7.925 6.348 16.028 9.553 24.013 3.524-0.553 6.831-1.323 10.38-1.857 0.216-8.402 0.038-17.214 0.102-25.778h19.558v25.778c4.134 0.907 8.428 1.654 12.612 2.509 0.438 0.013-0.032 0.362 0.096 0.652 3.574-7.928 6.951-16.05 10.475-24.022 5.992 2.541 11.862 5.2 17.898 7.699-3.302 7.979-6.78 15.789-10.196 23.641 2.697 2.223 5.846 3.982 8.619 6.122 5.762-5.451 11.391-11.293 17.159-17.062 0.344-0.347 1.075-1.106 1.106-1.116 0.235-0.006 1.336 1.329 1.763 1.768 4.032 4.029 8.236 8.023 12.059 12.145-6.087 6.064-12.25 12.049-18.178 18.27 1.68 2.78 3.715 5.569 5.565 8.342 0.598 0.906 1.316 1.791 1.577 2.69 8.046-3.146 15.958-6.421 24.111-9.458 2.297 6.103 4.694 12.116 7.137 18.083-7.932 3.263-16.028 6.347-24.017 9.553 0.554 3.523 1.329 6.831 1.857 10.383 8.402 0.213 17.211 0.032 25.771 0.089v19.571h-25.867c-0.985 4.179-1.679 8.644-2.595 12.892 7.74 3.536 15.741 6.818 23.546 10.291-2.531 5.991-5.196 11.855-7.689 17.897-7.982-3.307-15.793-6.779-23.647-10.201-2.214 2.696-3.981 5.852-6.125 8.624 5.45 5.75 11.302 11.385 17.064 17.147 0.344 0.35 1.113 1.081 1.113 1.113 0.013 0.235-1.329 1.335-1.762 1.762-4.026 4.032-8.021 8.236-12.148 12.059-6.062-6.08-12.04-12.25-18.26-18.178-3.683 2.449-7.385 4.859-10.946 7.416 3.142 7.926 6.354 15.773 9.368 23.832-6.112 2.309-12.122 4.7-18.088 7.143-3.257-7.931-6.348-16.027-9.547-24.016-3.536 0.604-7.028 1.259-10.481 1.945v25.689h-19.564v-25.689c-4.198-0.992-8.65-1.723-12.975-2.595-3.492 7.702-6.768 15.614-10.208 23.368-5.991-2.532-11.862-5.203-17.891-7.696 3.294-7.982 6.773-15.793 10.202-23.647-2.697-2.213-5.858-3.981-8.625-6.118-5.756 5.45-11.391 11.296-17.153 17.058-0.35 0.35-1.075 1.119-1.113 1.119-0.248 0.014-1.31-1.31-1.768-1.768-4.013-4.007-8.084-8.026-12.046-11.957 5.871-6.239 12.116-12.11 18.076-18.267-2.506-3.677-4.91-7.461-7.505-11.035-7.817 3.098-15.633 6.188-23.463 9.267-2.64-5.832-4.777-12.161-7.327-18.076 7.925-3.256 16.028-6.354 24.016-9.553-0.553-3.523-1.323-6.837-1.851-10.386-8.408-0.21-17.224-0.032-25.784-0.09v-19.567h25.593c0.776-3.66 1.603-7.744 2.322-11.5 0.083-0.436-0.058-1.237 0.553-1.39-7.747-3.536-15.742-6.824-23.552-10.297 2.538-5.992 5.196-11.859 7.696-17.888 7.982 3.294 15.786 6.773 23.641 10.199 2.213-2.703 3.981-5.849 6.125-8.625-5.45-5.717-11.295-11.352-17.064-17.115-0.343-0.347-1.106-1.075-1.106-1.113-0.013-0.248 1.31-1.31 1.755-1.765 4.02-4.013 8.026-8.084 11.97-12.056 6.233 5.88 12.104 12.125 18.26 18.085 2.812-1.713 5.508-3.723 8.256-5.561 0.884-0.591 1.787-1.243 2.779-1.583-0.07 0.254 0.185 0.191 0.185 0.372-2.875-8.024-6.462-16.159-9.458-24.383m39.594-8.996v23.552c0.19 0.273 0.909-0.197 1.024 0 2.474 12.946 4.745 26.096 7.327 38.947 2.595-12.857 5.044-25.864 7.601-38.759 0.076-0.324 0.668 0.318 0.648-0.188v-23.832h-16.498c-0.11 0.019-0.11 0.149-0.1 0.28zm-37.737 10.017c3.015 7.432 5.89 14.766 8.809 22.067 0.967 2.417 1.717 5.222 2.875 7.416 0.649 1.231 1.679 2.484 2.5 3.714 5.623 8.427 11.258 17.011 16.969 25.218 0.134 0.194 0.324 0.604 0.649 0.56-2.735-14.075-5.241-28.392-7.97-42.471-0.165-0.502 0.585-0.092 0.464-0.563-3.084-7.273-5.813-14.892-8.904-22.156-5.082 2.119-10.431 3.98-15.392 6.215zm73.337 9.83c-1.501 3.444-3.187 7.384-4.726 10.847-0.541 1.218-1.253 2.509-1.577 3.616-0.389 1.355-0.56 2.938-0.833 4.357-1.991 10.434-3.912 20.264-5.935 30.694 8.186-11.534 16.46-23.784 24.576-35.703 0.254-0.448 0.534 0.347 0.744-0.089 3.027-7.388 6.341-14.492 9.362-21.886-4.993-2.239-10.088-4.376-15.118-6.583-2.16 4.599-4.23 9.614-6.49 14.747zm-78.622 21.603c-0.019-0.328 0.433-0.185 0.369-0.554-5.68-5.543-11.194-11.248-16.874-16.785-3.924 3.902-7.919 7.718-11.684 11.776 5.636 5.645 11.181 11.385 16.963 16.874 0.21-0.286 0.292-0.696 0.655-0.833 10.819 7.6 21.822 15.02 32.73 22.534-7.282-11.111-14.769-22.012-22.159-33.012zm118.87-16.877c-5.647 5.635-11.378 11.185-16.873 16.966 0.292 0.21 0.699 0.296 0.833 0.652-7.512 10.844-15.296 21.917-22.438 32.825 10.914-7.413 21.93-14.73 32.824-22.162 0.223 0.089 0.153 0.467 0.465 0.467 5.63-5.699 11.28-11.353 16.98-16.973-3.81-4.038-7.73-7.966-11.78-11.775zm-87.16 2.69c3.155 8.402 6.424 16.692 9.833 24.846v-25.126c0-0.41 0.242-1.199-0.28-1.485-3.186 0.595-6.341 1.211-9.553 1.765zm29.49 29.209c2.524-5.737 4.808-11.375 7.32-17.061 1.584-3.559 3.205-7.079 3.625-11.684-3.632-0.731-7.282-1.44-10.945-2.13-0.17 10.074-0.17 20.794-0.01 30.875zm-18.18-6.955c0 2.509-0.216 5.075 0.28 7.419 0.414 0.194 1.253-0.404 1.667-0.191 1.469 5.219 2.156 11.204 4.547 15.491 0.114-1.838 1.037-3.695 1.024-5.565-0.013-1.542-0.617-3.32-0.935-5.005-2.188-11.738-4.299-23.857-6.583-35.144-0.01 7.565-0.01 15.487-0.01 22.995zm11.04 6.955c1.902 0.197 3.632 0.569 5.559 0.738-0.063-9.515 0.128-19.284-0.089-28.649-1.84 9.292-3.61 18.651-5.47 27.911zm-17.433 2.131c1.609-0.461 3.511-0.626 4.917-1.294-0.273-2.417-1.482-4.535-2.328-6.678-2.557-6.506-4.98-13.149-7.689-19.198 1.767 8.986 3.37 18.142 5.1 27.17zm-11.869 4.449c-0.057 0-0.115-0.013-0.096-0.092-2.149-5.568-4.522-11.423-6.678-16.966-0.75-1.927-1.348-4.003-2.226-5.75-0.954-1.902-2.646-3.412-3.523-5.289-3.269 1.988-6.335 4.182-9.458 6.31 7.066 7.021 14.826 15.137 21.981 21.787zm66.572-26.983c-3.53 8.128-7.048 16.263-10.571 24.392 6.393-6.163 12.663-12.435 18.826-18.823-2.78-1.846-5.38-3.836-8.26-5.569zm-18.55 25.596c1.521 0.795 2.83 1.803 4.363 2.598 1.38-1.784 2.131-4.032 3.053-6.122 0.948-2.118 1.87-4.262 2.792-6.405 1.839-4.309 3.778-8.634 5.368-12.886-5.12 7.665-10.42 15.154-15.57 22.815zm-10.47-4.083c0.248 0.188 0.427 0.013 0.273 0.468-0.833 5.587-1.838 11.006-1.481 17.799 0.566-0.89 1.896-2.025 2.315-3.151 0.426-1.113 0.496-2.671 0.744-3.985 1.742-9.203 3.841-18.928 5.291-27.727-2.32 5.58-4.79 11.025-7.13 16.596zm21.6 1.946c-1.781 1.784-3.816 3.406-5.19 5.568 0.185 0.614 1.037 0.566 1.298 1.113-2.71 4.671-5.985 8.787-7.881 14.275 0.764-0.474 1.616-0.951 2.404-1.485 0.738-0.493 1.743-0.989 2.321-1.574 0.465-0.464 0.903-1.422 1.387-2.131 7.251-10.571 14.89-21.539 21.701-31.808-5.42 5.297-10.74 10.747-16.04 16.042zm-64.259 8.532c1.641-0.982 3.104-2.156 4.547-3.336-6.792-6.655-13.426-13.467-20.218-20.123 5.119 7.925 10.526 15.566 15.671 23.459zm6.583-5.1c0.083 0.455 0.483-0.267 0.56 0.191 2.245 2.624 4.077 5.937 6.398 8.621 1.183 1.374 2.754 2.659 3.988 3.896 0.382 0.378 0.706 1.068 1.304 1.015-0.203-1.25-0.515-2.388-0.655-3.705-6.125-8.864-12.015-17.969-18.178-26.8 2.156 5.639 4.433 11.149 6.583 16.782zm-73.9 6.767c8.116 3.511 16.823 7.289 24.945 10.85 1.202 0.534 2.449 1.212 3.613 1.577 1.38 0.436 2.989 0.554 4.458 0.833 10.469 2.032 20.524 4.07 30.968 6.029-11.468-8.154-23.647-16.365-35.427-24.388-0.445-0.248 0.356-0.534-0.089-0.738-7.384-3.034-14.489-6.344-21.886-9.366-2.225 5.036-4.432 10.089-6.582 15.203zm57.217 3.895c0.872 0.878 1.647 2.083 2.964 2.417 0.382 0.006 0.528-1.024 1.024-1.205 4.611 2.617 8.854 6.103 14.184 7.689-1.292-1.282-1.838-3.313-3.155-4.637-1.043-1.04-2.843-1.896-4.261-2.872-9.846-6.754-20.009-13.916-29.588-20.216 6.201 6.34 12.637 12.636 18.832 18.824zm-20.677-18.45c-1.844 2.767-3.835 5.38-5.571 8.252 8.128 3.53 16.263 7.044 24.391 10.567-6.163-6.388-12.435-12.66-18.82-18.819zm113.69 11.311c-3.454 3.454-7.899 7.613-10.851 11.032 3.638-1.482 7.639-3.065 11.588-4.63 5.731-2.277 12.181-4.201 16.314-7.886-2.017-3.139-4.134-6.186-6.201-9.267-3.67 3.348-7.17 7.065-10.85 10.751zm-15.87 6.122c1.132 1.435 2.144 2.989 3.346 4.357 6.544-6.745 13.617-13.455 19.933-20.118-7.74 5.27-15.62 10.402-23.28 15.761zm-32.27-14.555c-0.292 5.375-2.595 10.93-0.922 16.041 1.463-3.457 3.174-7 4.637-10.479 0.699-1.654 1.501-2.958 1.481-4.917-1.83-0.118-3.37-0.528-5.2-0.645zm68.53 8.713c-2.43 0.977-5.051 1.663-7.327 2.783-1.222 0.598-2.468 1.654-3.715 2.5-8.472 5.835-17.096 11.28-25.396 17.064-0.171 0.118-0.616 0.331-0.565 0.652 14.113-2.611 28.246-5.199 42.282-7.88 0.503-0.162 0.096 0.585 0.561 0.461 7.301-3.021 14.769-5.88 22.165-8.812-2.022-5.146-4.007-10.335-6.125-15.389-7.1 2.636-14.76 5.768-21.88 8.621zm-85.401-6.863c0.852 3.998 1.857 8.154 2.779 12.056 0.312 1.307 0.438 2.741 1.215 3.803v-16.785h-0.191c-1.215 0.351-2.531 0.618-3.803 0.926zm5.471 13.722c0 1.457-0.286 3.231 0 4.456 0.108 0.436 0.655 1.021 1.024 1.574 0.808 1.218 1.431 2.013 2.13 3.062 0.356 0.534 0.592 1.374 1.024 1.294 0.133-2.169 1.247-4.166 1.202-6.303-0.032-1.399-0.655-3.094-1.018-4.637-1.1-4.678-2.607-9.14-4.363-12.701 0.01 4.275 0.01 8.956 0.01 13.255zm29.39-10.382c-2.772 4.709-5.883 9.073-8.439 14.002 4.108-3.874 8.09-7.861 11.97-11.963-1.21-0.637-2.18-1.524-3.53-2.039zm-17.05 10.478c-0.433 1.011-1.323 2.293-1.394 3.155-0.044 0.486 0.255 1.157 0.369 1.758 0.375 2.026 0.572 3.737 1.024 5.568 0.668-0.944 1.965-2.092 2.41-3.435 0.521-1.567 0.585-3.911 0.923-6.21 0.496-3.362 1.253-6.99 0.839-10.571-1.29 2.834-2.82 6.532-4.17 9.735zm-29.126-6.955c-0.395-0.254-0.624-0.671-1.011-0.925-1.336 1.043-2.703 2.054-4.083 3.056 1.151 1.641 2.34 3.32 3.619 5.009 2.067 2.741 3.873 5.66 7.047 7.143-1.807-4.819-3.791-9.443-5.572-14.283zm-17.243 15.208c0.89-1.333 1.634-2.821 2.595-4.083-0.553-1.04-1.787-1.412-2.779-1.848-3.275-1.44-6.5-2.738-9.737-4.175-4.344-1.927-8.72-3.883-12.981-5.473 7.708 5.125 15.136 10.513 22.902 15.579zm60.639-8.161c-0.916 0.919-2.035 1.949-3.148 3.062-0.884 0.877-2.678 2.277-3.065 3.151-0.445 1.043-0.427 2.455-0.643 3.616-0.223 1.189-0.49 2.344-0.744 3.613 1.978-1.082 3.676-2.442 5.565-3.613 3.084-5.076 6.531-10.285 8.439-16.225-2.05 1.909-4 3.995-6.4 6.396zm-35.694 8.714c2.105 1.479 4.198 2.977 6.392 4.366-0.388-1.272-0.159-2.665-0.643-3.994-0.261-0.715-1.221-1.74-1.857-2.592-2.869-3.876-5.565-7.75-8.905-10.758 1.566 4.433 3.448 8.545 5.013 12.978zm57.854-3.524c-0.451 0.079 0.268 0.483-0.185 0.562-2.627 2.239-5.94 4.077-8.618 6.396-1.38 1.183-2.665 2.754-3.898 3.984-0.382 0.379-1.075 0.709-1.024 1.304 1.068-0.404 2.493-0.229 3.715-0.652 1.049-0.372 2.22-1.559 3.333-2.318 7.969-5.444 16.192-10.558 23.552-15.952-5.58 2.262-11.22 4.482-16.88 6.676zm-6.11-5.097c-1.47 1.218-3.275 2.5-5.006 3.803-2.722 2.039-5.533 3.73-6.958 6.856 4.814-1.797 9.438-3.791 14.278-5.562 0.255-0.391 0.675-0.624 0.929-1.015-1.14-1.303-1.97-2.919-3.24-4.082zm-34.04 4.175c0.782-0.569 0.916-2.125 0.369-3.062-0.1 1.036-0.38 1.901-0.37 3.062zm-30.685 6.955c0.922 0.925 1.953 1.953 3.06 3.059 0.928 0.925 2.162 2.633 3.155 3.056 1.03 0.448 2.359 0.515 3.523 0.741 1.145 0.235 2.347 0.385 3.612 0.652-0.343-0.945-1.081-1.721-1.666-2.599-0.585-0.871-1.05-1.994-1.769-2.69-0.896-0.865-2.512-1.511-3.803-2.312-1.253-0.795-2.544-1.641-3.797-2.417-2.449-1.517-6.322-2.859-8.618-3.797 1.876 2.014 3.95 3.954 6.303 6.307zm-8.351-6.122c-0.655 1.164-1.456 2.188-2.035 3.432 3.327 2.213 6.748 4.239 10.106 6.303 1.139 0.7 2.232 1.651 3.613 1.95-3.588-3.824-7.702-7.942-11.684-11.685zm40.896 3.339c-0.299-0.878-0.293-2.058-0.648-2.878-0.65 0.9 0.3 2.443 0.65 2.878zm-9.27 0.274c-0.432-0.525-0.731-1.183-1.208-1.667-0.17 1.069 0.84 1.441 1.21 1.667zm15.02-0.741c0.019-0.286 0.54-0.566 0.279-0.833-0.08 0.241-0.58 0.534-0.28 0.833zm-10.76 3.991c0.483-1.151 1.329-3.021 0.744-4.363-0.22 1.421-0.78 2.989-0.74 4.363zm-7.227-3.339c-0.07-0.34 0.02-0.821-0.375-0.833 0.063 0.343 0.07 0.734 0.375 0.833zm30.597 10.014c0.712-0.258 1.736-1.215 2.595-1.854 3.867-2.872 7.747-5.568 10.755-8.904h-0.273c-4.191 1.727-8.389 3.418-12.707 5.008-1.482 2.112-2.971 4.201-4.357 6.396 1.26-0.392 2.66-0.163 3.99-0.646zm-10.66-8.44c0-0.709 0.432-1.485 0.273-2.039-0.56 0.15-0.4 1.504-0.27 2.039zm-8.63 4.455c0.331-0.541 0.77-0.963 1.018-1.574-0.648-1.577-1.183-3.263-1.946-4.735-0.79 1.901 0.57 4.369 0.93 6.309zm-79.927 5.19c10.322-0.063 20.893 0.124 31.063-0.089-6.786-2.926-13.496-5.785-20.212-8.723-0.973-0.423-1.921-1.015-2.875-1.294-1.959-0.585-3.842-0.496-5.75-1.113-0.834 3.647-1.502 7.457-2.226 11.219zm60.74-8.532c-0.134-1.294-1.12-2.22-2.048-2.407 0.744 0.74 1.132 1.835 2.048 2.407zm12.887 3.895c-0.006-0.709 0.273-1.145 0.273-1.854-1.075-1.154-2.188-2.267-3.333-3.336 0.24 2.51 1.82 3.68 3.06 5.19zm11.68 1.024c0.642-0.261 1.068-0.738 1.672-1.024-0.063-1.609 0.128-3.463-0.089-4.917-1.24 1.27-1.22 3.786-1.58 5.941zm11.68-3.895c1.297-0.13 2.22-1.119 2.417-2.045-0.75 0.741-1.85 1.132-2.42 2.045zm26.62 3.243c0.478 1.59 0.643 3.499 1.298 4.91 2.379-0.337 4.516-1.479 6.678-2.318 6.494-2.515 13.064-5.06 19.101-7.692-8.96 1.774-18.12 3.349-27.08 5.1zm6.4 4.911h26.611c-0.61-3.307-1.037-6.812-1.946-9.827-8.24 3.263-16.59 6.408-24.66 9.827zm-97.837-1.851c0.191-0.251 0.013-0.43 0.471-0.28 5.59 0.843 11.009 1.844 17.802 1.485-0.992-0.61-2.194-2.039-3.435-2.506-1.107-0.417-2.665-0.483-3.988-0.741-9.242-1.787-19.042-3.819-27.902-5.285 5.756 2.372 11.328 4.926 17.052 7.327zm32.736-5.658c-0.853-0.41-1.647-1.38-2.5-1.485 0.286 0.983 1.698 1.33 2.5 1.485zm13.721 2.78c-0.388-1.027-0.439-2.401-0.929-3.333-0.038 0.82-0.254 1.472-0.28 2.318 0.33 0.356 0.83 1.021 1.21 1.015zm10.85-0.461c1.47-0.318 2.455-1.132 3.34-2.039-0.013-0.111-0.032-0.222-0.191-0.181-0.98 0.808-2.15 1.425-3.15 2.22zm5.84 1.205c0.42-0.855 1.381-1.647 1.488-2.502-0.99 0.279-1.31 1.713-1.49 2.502zm-31.429-1.298c1.578 0.951 3.091 1.981 4.732 2.872-0.013-0.696-0.235-1.183-0.28-1.848-1.583-0.62-3.256-1.628-4.821-1.949 0.172 0.261 0.286 0.576 0.369 0.925zm29.209 0.28c-0.936 1.603-1.946 3.113-2.875 4.729 0.699-0.013 1.195-0.235 1.857-0.28 0.61-1.584 1.628-3.256 1.946-4.818-0.27 0.169-0.59 0.287-0.94 0.369zm-9.27 0.554c-0.032-0.251 0.267-0.649 0-0.833-0.19 0.222-0.25 0.626 0 0.833zm-3.52 0.556c0.141 0.318 0.064 0.859 0.369 1.021 0.318-0.852 1.037-1.316 1.209-2.318-0.77 0.2-0.98 0.944-1.58 1.297zm-16.514 2.315c-0.496-1.352-1.164-3.028-2.411-3.333 0.859 0.996 1.622 2.586 2.411 3.333zm8.534-2.779c-0.166-0.137-0.223-0.385-0.458-0.461-0.06 0.305 0.31 0.671 0.46 0.461zm3.06 1.485c0.178-0.286 0.35-1.068 0.185-1.387-0.01 0.436-0.85 1.152-0.18 1.387zm34.68 1.577c-1.266 0.299-2.665 0.468-3.619 1.294h16.784c-0.158-0.658-0.299-1.425-0.471-2.13-0.158-0.709-0.19-1.574-0.731-1.946-3.87 0.989-8.04 1.857-11.96 2.782zm-33.01-1.297c0.057-0.254 0.388-0.235 0.369-0.56-0.159-0.08-0.146-0.34-0.369-0.366 0.11 0.36-0.28 0.69 0 0.926zm-6.68 1.387c0.394 0.013 0.451 0.359 0.833 0.372-0.083-0.932-0.369-1.66-0.553-2.5h-0.28v2.128zm18.08-0.834c0.063 0.528-0.121 1.298 0.096 1.67 0.483-0.999 1.412-2.048 1.666-2.964-0.56 0.461-1.14 0.903-1.77 1.294zm-6.49-0.181c0.286 0.006 0.445-0.118 0.648-0.191-0.083-0.162-0.031-0.461-0.185-0.553-0.14 0.254-0.34 0.458-0.46 0.744zm-15.204 1.485c0.42 0.07 1.272 0.2 1.667 0-0.91-0.483-1.896-1.38-2.779-1.584 0.361 0.534 0.819 0.977 1.112 1.584zm5.934-0.652c0.076-0.204 0.242-0.318 0.185-0.652-0.134-0.044-0.229-0.137-0.369-0.181-0.01 0.343 0.03 0.636 0.18 0.833zm12.24 0.092c0.407-0.209 1.139-0.588 1.107-0.925-0.31 0.363-1.23 0.124-1.11 0.925zm-25.685 0.56c-0.954-0.099-2.112-0.49-2.875-0.471 0.241 0.815 2.003 0.595 2.875 0.471zm14.925 0.089c0.166-0.051 0.547 0.111 0.56-0.089-0.165-0.086-0.273-0.229-0.464-0.28 0.02 0.175-0.11 0.201-0.1 0.369zm8.82 0.372c0.013-0.267 0.007-0.509-0.279-0.461-0.19 0.181 0.06 0.398 0.28 0.461zm16.77-0.095c0.293-0.054 0.706 0.025 0.738-0.277-0.19 0.137-0.68-0.013-0.74 0.277zm-13.81 0.369h0.561c-0.025-0.156 0.261-0.461 0-0.553-0.13 0.247-0.56 0.184-0.56 0.553zm-111.65 1.113v16.327h23.832c0.267-0.191-0.197-0.909 0-1.018 13.064-2.519 26.382-4.783 39.319-7.429-13.07-2.506-26.058-5.092-39.128-7.601-0.445 0.105 0.089-0.767-0.464-0.56h-23.457c-0.114 0.02-0.108 0.151-0.102 0.281zm56.753 5.1c0.242-1.796 0.56-3.517 0.738-5.38-9.298 0.066-18.845-0.115-27.998 0.099 9.076 1.771 18.107 3.59 27.26 5.281zm7.142-3.895c-1.634-0.684-3.015-1.517-4.917-1.485-0.121 1.832-0.528 3.368-0.648 5.199 5.374 0.292 10.927 2.598 16.041 0.925-3.308-1.395-7.073-3.199-10.476-4.639zm10.107 2.789c1.011 0.423 2.29 1.323 3.155 1.386 0.49 0.039 1.158-0.261 1.755-0.372 2.022-0.378 3.74-0.572 5.572-1.014-0.948-0.671-2.093-1.969-3.435-2.417-1.571-0.515-3.905-0.585-6.214-0.925-3.358-0.493-6.99-1.244-10.571-0.833 2.831 1.287 6.532 2.82 9.738 4.175zm7.969-3.902c-0.197-0.08-0.547-0.496-0.737-0.273 0.228 0.051 0.489 0.547 0.737 0.273zm8.256 1.304c-0.191-0.703-0.674-1.123-1.018-1.676-1.577 0.066-3.403-0.115-4.828 0.099 1.209 1.262 3.766 1.186 5.846 1.577zm4.363-0.652v-0.744c-0.306 0.06-0.439-0.057-0.655-0.089 0.121 0.375 0.286 0.703 0.655 0.833zm19.837 0.461c0.726-0.324 1.819-0.286 2.411-0.741-0.88-0.26-2.72-0.184-2.41 0.741zm10.67 0.56c0.604-0.505 1.36-0.858 1.939-1.393-1.24-0.188-1.62 0.976-1.94 1.393zm4.63-1.393c-1.521 1.1-3.32 2.207-4.814 3.25-0.465 0.318-1.107 0.601-1.298 1.106 2.035 0.025 3.912 1.148 5.935 1.116 1.418-0.022 3.167-0.744 4.726-1.116 4.833-1.138 9.547-2.449 13.172-4.356h-17.73zm21.33 0.187c-0.433 0.302 0.337 1.266 0.089 1.669-5.463 1.425-11.436 2.35-15.951 4.729 1.807 0.13 3.638 1.021 5.482 1.021 1.526-0.007 3.353-0.611 5.095-0.932 11.836-2.156 24.042-4.427 35.509-6.675-10.02 0.125-20.53-0.241-30.23 0.188zm33.1 0.093c0.178 0.137 0.013 0.607 0.178 0.744-13.191 2.474-26.497 4.837-39.586 7.416 12.962 2.547 25.956 5.072 38.943 7.604 0.509-0.14 0.013 0.726 0.554 0.56h23.832v-16.603h-23.832c-0.09 0.018-0.08 0.148-0.08 0.279zm-65.56 3.062c0.585 0.149 1.247 0.235 1.857 0.369 0.916-0.786 1.939-1.94 2.779-2.779 0.261-0.261 0.808-0.509 0.648-0.839-2.46 0.384-3.66 2.031-5.29 3.249zm-25.311-1.949c-0.209-0.41-0.585-1.138-0.922-1.113 0.362 0.321 0.121 1.237 0.922 1.113zm24.581 0.556c0.165-0.235 0.534-0.261 0.648-0.557-0.45-0.095-0.83 0.341-0.65 0.557zm-3.07 0.369c0.21 0.105 0.471 0.156 0.655 0.28 0.108-0.194 0.255-0.363 0.369-0.56-0.43 0.013-0.81 0.061-1.03 0.28zm-24.665 0.191c-0.267 0.013-0.719-0.261-0.922 0 0.266 0.15 0.674 0.286 0.922 0zm3.708 0.922c0 0.13 0.044 0.204 0.095 0.28 0.286 0.042 0.261-0.232 0.375-0.369-0.216-0.031-0.362 0.013-0.47 0.089zm-2.22 0.372c0.083 0.347 0.483 0.378 0.744 0.553-0.019-0.553-0.191-0.715-0.744-0.553zm0.178 1.949c-0.871-0.359-1.386-1.081-2.404-1.297 0.407 0.77 1.304 2.083 2.404 1.297zm24.579-0.925v0.273c0.445 0 1.05 0.312 1.394 0.096-0.49-0.064-0.89-0.623-1.39-0.369zm-29.305 0.553c-1.488 0.703-3.206 1.18-4.636 1.946 1.882 1.03 4.255-0.591 6.404-0.741-0.476-0.521-1.036-0.944-1.768-1.205zm-7.416 0.742c0.897 0.658 2.442-0.292 2.875-0.649-0.878 0.299-2.054 0.299-2.875 0.649zm46.171 0.279c-0.737-0.436-2.258-0.585-3.053-0.649 0.77 0.455 1.83 0.637 3.05 0.649zm-50.528 0.554c1.031 0.111 1.902 0.385 3.06 0.372-0.566-0.783-2.125-0.913-3.06-0.372zm41.358 0.092c0.114-0.137 0.382-0.105 0.369-0.372-0.362 0.111-0.693-0.28-0.929 0 0.25 0.06 0.23 0.391 0.56 0.372zm1.66 1.113c0.948-0.35 2.182-0.417 3.066-0.833-1.32-0.43-2.97-0.274-3.07 0.833zm-31.518 0.464c1.272 0.403 2.449 0.232 2.964-0.744-1.018 0.223-2.086 0.391-2.964 0.744zm35.048 0.188c-0.954 0.229-1.934 0.359-2.589 0.744 0.643 0.245 0.998 0.785 1.666 1.018 1.584-0.648 3.257-1.195 4.726-1.949-1.14-0.764-2.38-0.15-3.81 0.187zm-54.988-0.372c-12.905 2.598-27.152 4.805-40.057 7.515h23.088c2.639 0 5.349 0.279 7.416-0.375 0.083-0.63-0.414-1.101-0.185-1.578 5.521-1.24 11.257-2.276 15.671-4.636-1.843 0.006-4.254-1.263-5.933-0.926zm65.928 0.554c-1.036-0.108-1.901-0.382-3.065-0.369 0.57 0.779 2.13 0.918 3.07 0.369zm-42.001 0.19c0.312 0.058 0.935 0.293 1.202 0.092-0.273-0.133-0.375-0.433-0.648-0.556-0.096 0.241-0.432 0.248-0.554 0.464zm-8.535 0.461c0.604 0.293 2.436 0.652 3.339 0.652-0.877-0.397-2.124-0.9-3.339-0.652zm43.306 0.833c0.871-0.299 2.048-0.292 2.875-0.648-0.9-0.653-2.45 0.298-2.88 0.648zm8.16 0c3.454 1.47 7.003 3.174 10.481 4.637 1.654 0.7 2.945 1.508 4.91 1.488 0.121-1.832 0.528-3.371 0.649-5.202-5.38-0.293-10.93-2.596-16.04-0.923zm-17.25-0.279c0.775 0.4 1.438 0.922 2.232 1.304-0.42-0.701-1.23-2.065-2.23-1.304zm-38.197 0.375c-1.476 0.089-3.123 0.744-4.637 1.106-4.726 1.151-9.375 2.328-12.981 4.274h12.981c1.374 0 3.148 0.279 4.356 0 0.427-0.101 1.108-0.648 1.667-1.017 1.215-0.827 2.093-1.526 3.148-2.227 0.502-0.337 1.196-0.547 1.399-1.119-2.028-0.045-3.949-1.138-5.933-1.017zm13.439 0.369c-0.286-0.185-1.068-0.356-1.387-0.185 0.439 0.006 1.151 0.859 1.387 0.185zm45.618 2.779c-2.169-0.948-4.388-2.252-6.493-2.779-0.025-0.007-0.063 0-0.089 0-1.069-0.02-2.417 0.515-3.613 0.737-1.246 0.242-2.474 0.293-3.625 0.751 1.177 0.534 2.169 1.863 3.523 2.314 1.686 0.554 4.014 0.599 6.214 0.929 3.492 0.509 6.717 1.228 10.577 0.84-1.98-0.941-4.21-1.787-6.5-2.792zm13.27 2.881c9.209-0.063 18.667 0.121 27.724-0.089-8.942-1.787-17.98-3.473-26.891-5.292-0.43 1.635-0.59 3.549-0.83 5.381zm-34.69-4.363c0.203-0.133 0.693 0.013 0.744-0.279-0.4-0.121-0.648-0.395-1.024-0.56 0.01 0.375 0.21 0.547 0.28 0.839zm-22.252-0.28c0.133 0 0.204 0.051 0.28 0.096-0.051-0.134 0.114-0.484-0.095-0.465 0 0.185-0.248 0.115-0.185 0.369zm-6.119 0.375c-1.196 1.177-2.474 2.283-3.523 3.619 2.544-0.4 3.797-2.086 5.47-3.339-0.725-0.019-1.209-0.273-1.947-0.28zm30.411 1.114c0.35 0.076 0.788 0.076 1.112 0.185-0.03-0.453-0.85-0.466-1.11-0.185zm-25.685 0.552c0.318-0.146 0.865-0.063 1.024-0.368-0.209-0.096-0.464-0.159-0.642-0.28-0.109 0.235-0.344 0.344-0.382 0.648zm-11.493 1.954c1.762 0.185 2.258-1.393 2.868-2.042-0.902 0.731-1.984 1.278-2.868 2.042zm8.714-1.298c0.401 0 0.948-0.343 0.744-0.655-0.216 0.247-0.61 0.325-0.744 0.655zm26.254 1.017c-0.204-0.33-0.338-0.725-0.471-1.112h-0.465c0.21 0.413 0.59 1.138 0.94 1.112zm2.96 0.929c1.698-0.063 3.645 0.121 5.189-0.089-1.316-1.374-4.255-1.132-6.398-1.679 0.32 0.674 0.68 1.31 1.21 1.768zm-27.453-0.648h2.232c0.032-0.28 0.553-0.547 0.273-0.84-0.705 0.407-1.996 0.235-2.505 0.84zm22.253 0.369c0.178 0.019 0.616 0.241 0.744 0-0.331-0.166-0.318-0.675-0.744-0.744v0.744zm-85.95 10.939c8.402-3.155 16.689-6.424 24.843-9.827h-26.516c0.261 3.199 1.196 6.532 1.673 9.827zm23.456-7.6c-6.5 2.525-13.159 5.133-19.284 7.791 8.993-1.825 18.33-3.308 27.26-5.202-0.471-1.533-0.738-3.27-1.208-4.815-2.475 0.222-4.599 1.38-6.768 2.226zm9.274 1.85c4.427-1.132 9.521-1.972 13.91-3.243 0.636-0.185 1.469-0.382 1.297-0.834h-16.136c0.248 1.419 0.643 2.697 0.929 4.077zm35.24-3.243c0.268-0.318 0.789-0.382 0.929-0.834h-0.839c-0.05 0.21-0.29 0.693-0.09 0.834zm-5.195-0.28c-0.617 1.577-1.628 3.257-1.946 4.821 0.324-0.197 0.712-0.331 1.106-0.458 0.999-1.488 1.851-3.104 2.881-4.548-0.019-0.108-0.032-0.223-0.191-0.185-0.533 0.205-1.22 0.268-1.85 0.37zm26.245 1.673c-0.388-0.853-1.043-1.927-2.417-1.482 0.8 0.495 1.6 0.998 2.42 1.482zm9.46-1.025c-0.28-0.864-2.232-0.56-3.155-0.458 1.08 0.058 2.16 0.605 3.15 0.458zm9.54 2.042c1.151 0.407 2.659 0.489 3.994 0.744 9.306 1.8 19.17 3.778 27.998 5.381-5.763-2.531-11.537-5.037-17.338-7.518-0.19 0.254-0.013 0.426-0.464 0.279-5.598-0.839-11.01-1.845-17.809-1.481 1.05 0.643 2.31 2.124 3.62 2.595zm36.17 6.303c0.947 0.42 1.952 1.024 2.874 1.304 1.832 0.547 3.606 0.465 5.375 1.012 0.636-3.816 1.45-7.454 2.137-11.213-10.228 0.057-20.709-0.121-30.783 0.095 6.7 2.9 13.72 5.845 20.4 8.802zm-79.195-6.487c0.725-0.337 1.628-1.45 1.208-2.315-0.279 0.826-1.163 1.552-1.208 2.315zm19.475 0.273v-2.22c-0.279 0.025-0.496-0.489-0.744-0.19 0.36 0.693 0.28 1.832 0.74 2.41zm-2.6-1.387c0.235 0.051 0.496 0.554 0.744 0.28-0.223-0.273-0.146-0.84-0.362-1.113-0.16 0.242-0.22 0.585-0.38 0.833zm-26.237-0.094c-0.693 0.254-1.73 1.215-2.595 1.856-2.557 1.896-5.489 3.905-7.696 5.75-0.82 0.687-1.609 1.705-2.322 2.404-0.204 0.203-0.667 0.382-0.553 0.744 4.261-1.666 8.44-3.428 12.791-5.006 1.1-1.507 2.309-3.319 3.345-4.82 0.344-0.496 0.91-1.031 0.833-1.578-1.17 0.44-2.563 0.204-3.803 0.65zm13.167 0.375c0.324-0.204 0.725-0.331 1.113-0.464 0.1-1.019-1.21 0.317-1.11 0.464zm25.59 1.85c0.528 0.802 0.929 1.87 1.571 2.506 0.4 0.382 1.284 0.795 1.952 1.209 4.401 2.684 10.209 6.424 14.935 7.784-2.761-2.785-6.233-6.328-9.28-9.362-0.909-0.915-2.258-2.557-3.243-2.97-2.22-0.935-4.796-0.668-7.416-1.481 0.29 0.864 0.95 1.519 1.48 2.314zm-22.16-1.666c0.133 0.203-0.013 0.687 0.273 0.737 0.184-0.343 0.401-0.648 0.56-1.018-0.36 0.001-0.53 0.205-0.83 0.281zm14.28 1.858c1.577 0.61 3.256 1.628 4.821 1.945-0.197-0.33-0.331-0.725-0.465-1.119-1.597-0.813-3.104-2.213-4.732-2.684 0.21 0.534 0.26 1.215 0.37 1.858zm-9.27-1.121c0.083 0.293 0.229 0.521 0.464 0.655 0.058-0.324 0.293-0.935 0.09-1.202-0.14 0.217-0.33 0.408-0.55 0.547zm15.57 1.4c-0.407-0.687-0.814-1.349-1.298-1.946 0.21 0.865 0.77 1.386 1.3 1.946zm-19.83 0.642c0.757-0.286 1.125-0.974 1.667-1.482-0.102-0.279 0-0.737-0.28-0.839-0.44 0.801-0.96 1.52-1.39 2.321zm6.3-0.921c0.057-0.49 0.623-0.897 0.368-1.399h-0.279c0 0.444-0.31 1.042-0.09 1.399zm-34.034-0.465c-1.049 0.4-2.213 1.546-3.339 2.321-7.466 5.082-14.946 9.992-22.254 14.922-0.509 0.343-1.151 0.648-1.482 1.208 5.775-2.385 11.665-4.668 17.522-6.958 0.458-0.076-0.267-0.471 0.19-0.554 4.465-3.415 9.643-6.805 13.261-11.035 0.051-0.063 0.719-0.534 0.185-0.648-1.036 0.432-2.976 0.331-4.083 0.744zm69.724 11.683c0.725-1.17 1.494-2.289 2.137-3.529-3.104-1.991-6.379-4.09-9.553-6.023-1.387-0.853-2.658-1.851-4.268-2.131-0.051 0-0.108 0.013-0.089 0.089 4 3.791 7.7 7.874 11.77 11.594zm-56.927-8.993c0.986-0.28 1.311-1.717 1.482-2.506-0.407 0.853-1.38 1.641-1.482 2.506zm11.497-2.321c-0.019-0.076-0.077-0.108-0.191-0.096-0.356 0.547-1.228 0.445-1.476 1.202-0.445 1.342 0.254 3.695 0.089 5.101 1.33-1.266 1.17-4.02 1.58-6.207zm13.73 1.017c-0.038-0.217-0.152-0.35-0.095-0.643-0.306 0.076-0.465-0.458-0.649-0.19 0.26 0.267 0.39 0.662 0.75 0.833zm-12.34 0.464c0.287-0.21 0.414-0.922 0.096-1.208 0 0.382-0.27 0.967-0.1 1.208zm-71.674 6.768c-0.502 0.159-0.089-0.585-0.553-0.464-7.302 3.027-14.769 5.883-22.166 8.809 2.067 5.164 3.988 10.481 6.214 15.493 7.2-2.913 14.292-5.711 21.326-8.535 2.397-0.967 4.98-1.628 7.231-2.779 1.247-0.643 2.455-1.673 3.708-2.513 8.796-5.863 17.745-12.014 26.338-17.796-0.006-0.063-0.013-0.114-0.096-0.089-13.928 2.705-28.073 5.186-42.002 7.882zm77.884-4.821c0.477-1.157 0.095-2.099-0.643-2.684 0.18 0.929 0.36 1.851 0.64 2.684zm3.53-0.745c0.885 0.923 1.984 2.08 2.882 2.971 0.273 0.273 0.623 0.725 0.922 0.648-0.395-2.602-2.245-3.752-3.435-5.559-0.09 0.662-0.26 1.272-0.36 1.94zm65.93 22.811c0.451 0.254-0.344 0.534 0.096 0.744 7.378 3.027 14.488 6.341 21.885 9.369 2.227-5.038 4.428-10.101 6.577-15.214-6.92-3.009-14.279-6.208-21.319-9.185-2.398-1.005-4.682-2.417-7.054-3.148-2.812-0.871-5.935-1.074-8.898-1.666-8.93-1.794-17.604-3.53-26.611-5.196-0.006-0.051-0.013-0.108-0.095-0.096 11.64 8.294 23.54 16.322 35.41 24.395zm-84.015-22.715c0.407-0.534 1.997-1.106 1.857-1.482-0.694 0.363-1.749 0.846-1.857 1.482zm11.315 0.464c0.642 1.584 1.189 3.257 1.946 4.726 0.197-0.419 0.382-0.852 0.56-1.291-0.579-1.621-0.731-3.656-1.393-5.196-0.32 0.649-0.85 1.069-1.12 1.761zm-11.125 1.113c-0.757 0.503-1.743 0.967-2.315 1.577-0.897 0.941-1.609 2.672-2.417 3.988-2.315 3.784-5.368 8.466-6.583 12.797 2.773-2.735 6.227-6.145 9.267-9.185 0.833-0.826 2.621-2.271 2.97-3.148 0.433-1.068 0.515-2.442 0.744-3.618 0.235-1.215 0.407-2.462 0.655-3.804-0.814 0.3-1.551 0.885-2.321 1.393zm25.035 2.875c0.255 0.699 1.209 1.724 1.852 2.595 1.901 2.563 3.898 5.482 5.749 7.696 0.681 0.813 1.718 1.622 2.411 2.315 0.21 0.209 0.388 0.687 0.744 0.56-1.667-4.262-3.429-8.446-5.006-12.797-2.105-1.476-4.204-2.971-6.398-4.357 0.39 1.215 0.19 2.678 0.66 3.988zm4.63-2.41c-0.286-0.974-1.698-1.33-2.5-1.482 0.85 0.413 1.65 1.374 2.5 1.482zm-36.992 1.202c0.744-0.738 1.838-1.126 2.41-2.036-1.297 0.128-2.219 1.113-2.41 2.036zm10.202 2.506c1.107-0.344 0.738-2.652 0.643-3.899-0.147 1.31-0.656 2.741-0.643 3.899zm30.5-1.107c-0.744-0.744-1.125-1.844-2.035-2.416 0.13 1.297 1.12 2.218 2.04 2.416zm-56.742 3.791c-0.229 0.369-0.611 0.572-0.833 0.935 1.043 1.336 2.048 2.703 3.053 4.077 1.615-1.132 3.32-2.34 5.012-3.612 2.741-2.067 5.782-3.925 7.047-7.047-4.752 1.895-9.534 3.751-14.279 5.647zm38.762-3.524c0.108-0.655 0.407-1.615 0.369-2.124-0.3 0.471-0.48 1.565-0.37 2.124zm-8.44 1.679c-0.553 1.673-0.604 4.007-0.928 6.208-0.515 3.485-1.228 6.717-0.833 10.57 1.336-3.002 2.812-6.455 4.179-9.642 0.433-1.03 1.311-2.328 1.387-3.244 0.057-0.775-0.401-2.289-0.649-3.625-0.273-1.45-0.547-3.078-0.839-3.791-0.54 1.167-1.88 2.166-2.32 3.526zm9.27 2.035c0.045 1.463 0.738 3.244 1.113 4.821 1.164 4.91 2.379 9.858 4.356 13.541v-17.344c-1.532-2.087-2.792-4.439-4.445-6.398-0.1 1.807-1.09 3.55-1.03 5.381zm5.47-1.767c0.166-1.794-1.443-2.321-2.131-2.958 0.77 0.928 1.27 2.118 2.13 2.958zm17.9 2.232c0.503 0.515 1.394 0.884 2.131 1.393 10.653 7.34 21.688 14.953 32.088 22.07 0.095 0.038 0.223 0.108 0.089 0-5.19-5.502-10.666-10.762-15.945-16.047-1.781-1.774-3.409-3.816-5.565-5.19-0.572 0.166-0.502 0.979-1.023 1.202-4.72-2.849-9.127-6.004-14.743-7.976 1.09 1.364 1.7 3.254 2.96 4.545zm-27.73-1.113c0.648-0.891-0.293-2.442-0.655-2.875 0.3 0.878 0.3 2.054 0.65 2.875zm44.05-2.506c-0.992 1.336-1.812 2.83-2.69 4.274 1.781 1.373 4.033 2.124 6.125 3.053 2.105 0.935 4.249 1.87 6.393 2.786 4.312 1.844 8.637 3.784 12.893 5.367-7.64-5.083-15.06-10.4-22.72-15.475zm-18.36 12.612c0.483 1.253 0.808 2.685 1.952 3.429 1.336-1.044 2.703-2.055 4.077-3.054-1.157-1.641-2.347-3.319-3.619-5.012-2.061-2.741-3.873-5.66-7.047-7.136 1.46 3.902 3.18 7.991 4.64 11.769zm-49.429-8.529c-0.49 0.496-0.967 1.399-1.482 2.138-7.416 10.621-14.857 21.847-21.885 32.17 6.341-6.201 12.638-12.632 18.833-18.826 0.872-0.878 2.073-1.654 2.404-2.964-0.242-0.465-0.903-0.521-1.202-0.929 2.97-4.541 5.928-9.096 7.969-14.553-1.349 1.04-3.454 1.778-4.637 2.961zm24.579 2.779c0-0.973 0.648-2.245 0.191-3.059-0.49 0.814-0.77 2.112-0.19 3.059zm-51.648 2.322c-5.731 2.296-12.129 4.083-16.327 7.695 2.175 3.11 4.268 6.303 6.404 9.451 7.403-7.174 14.699-14.463 21.879-21.879 0.051 0 0.108-0.07 0-0.089-3.802 1.527-7.886 3.186-11.956 4.827zm13.63-4.274c-5.985 6.029-12.313 12.402-18.273 18.368-0.375 0.375-1.062 0.751-0.922 1.106 7.429-5.088 14.915-10.119 22.439-15.111-1.006-1.527-2.094-2.977-3.244-4.364zm23.456 4.459c0.839-1.381 1.921-2.545 2.22-4.173-0.019-0.07 0-0.185-0.089-0.185-3.81 3.854-7.83 7.505-11.404 11.589 1.278 0.578 2.239 1.463 3.524 2.035 2.009-2.96 3.86-6.182 5.749-9.266zm28.832 0.095c0.376 1.024 1.591 2.245 2.315 3.333 5.432 8.147 10.762 16.085 16.143 23.927-2.232-6.029-4.688-11.816-6.958-17.809-0.076-0.445-0.478 0.268-0.554-0.178-3.625-4.853-7.028-9.916-11.684-13.726 0.43 1.326 0.21 3.005 0.73 4.455zm-26.053 0.369c-0.433 1.132-0.566 2.646-0.833 3.981-1.883 9.388-3.721 19.386-5.375 28.29 2.563-5.94 5.165-11.843 7.696-17.809-0.254-0.19-0.433-0.013-0.28-0.458 0.795-5.577 1.965-11.264 1.387-17.897-0.636 1.389-2.054 2.483-2.595 3.895zm-49.514 19.102c-0.375 0.229-0.178-0.197-0.553-0.185-5.552 5.629-11.156 11.227-16.785 16.778 3.81 4.045 7.734 7.976 11.779 11.779 5.642-5.635 11.378-11.182 16.874-16.969-0.292-0.204-0.7-0.293-0.833-0.649 7.613-10.965 15.456-22.19 22.712-33.2-11.035 7.497-22.223 14.86-33.194 22.44zm71.767-6.03c1.456-0.242 2.754-0.655 4.179-0.922-0.439-2.315-1.095-4.682-1.673-7.143-0.643-2.69-1.094-6.532-2.506-8.25v16.313zm41.17 17.43c0.337 0.305-0.389 0.292-0.09 0.553 5.756 5.56 11.227 11.398 17.064 16.887 3.791-4 7.874-7.709 11.582-11.785-5.629-5.648-11.175-11.379-16.963-16.874-0.209 0.293-0.292 0.699-0.648 0.833-10.984-7.689-22.082-15.252-33.2-22.808-0.051 0.007-0.102 0.013-0.089 0.089 7.51 10.969 14.9 22.069 22.35 33.099zm-57.77-21.88c-0.7 1.642-1.596 2.812-1.476 4.726 1.825 0.121 3.365 0.528 5.19 0.655 0.292-5.381 2.602-10.939 0.922-16.04-1.47 3.246-3.11 7.126-4.63 10.66zm69.28 8.25c1.832-2.767 3.829-5.375 5.56-8.25-8.122-3.536-16.257-7.047-24.386-10.57 6.16 6.387 12.43 12.66 18.83 18.82zm-61.86-12.235c0.025 1.507 0.598 3.377 0.928 5.095 2.258 11.868 4.49 24.321 6.768 35.795v-22.903c0-2.506 0.223-5.082-0.279-7.416-0.445-0.299-1.164 0.344-1.578 0.09-1.215-5.737-2.455-11.449-4.82-16.041-0.04 1.779-1.04 3.554-1.02 5.386zm-39.41 33.745c-0.241 0.452-0.534-0.343-0.737 0.096-3.028 7.384-6.341 14.488-9.362 21.879 5.037 2.239 10.087 4.439 15.207 6.59 3.517-7.925 7.054-16.499 10.571-24.475 0.509-1.157 1.234-2.315 1.577-3.435 0.414-1.374 0.535-2.97 0.833-4.458 2.099-10.419 4.159-21.275 6.023-31.427-8.008 11.767-16.149 23.407-24.112 35.227zm61.02 7.14c0.159 0.496-0.592 0.089-0.465 0.56 3.027 7.302 5.877 14.763 8.81 22.159 5.164-2.073 10.481-3.994 15.487-6.207-3.199-7.964-6.494-16.162-9.554-24.118-0.534-1.387-0.96-2.805-1.577-4.084-0.566-1.163-1.564-2.2-2.321-3.332-6.081-9.089-12.047-18.051-18.076-26.892-0.006-0.057-0.013-0.107-0.089-0.089 2.51 14.081 5.14 28.051 7.79 42.001zm9.09-41.445c-1.311 1.164-2.882 2.066-4.179 3.25 6.004 5.864 12.186 12.187 18.088 18.075 0.395 0.401 0.872 0.986 1.202 0.929-5.09-7.35-9.96-14.95-15.11-22.255zm-56.938 3.705c-0.006-0.051-0.013-0.108-0.089-0.089-1.03 0.954-1.476 2.378-2.13 3.892-1.374 3.148-2.69 6.259-3.994 9.273-1.864 4.312-3.791 8.421-5.19 12.333 5.126-7.702 10.513-15.144 15.576-22.903-1.432-0.79-2.717-1.72-4.173-2.5zm17.808 40.25c0 0.528-0.521 0.114-0.464 0.554v23.742h16.594v-23.838c-0.185-0.317-1.03 0.337-1.023-0.089-2.57-13.153-4.821-26.643-7.505-39.688-2.5 13.16-5.15 26.14-7.61 39.33zm39.22-27.07c2.238 5.578 4.064 11.881 7.416 16.136 3.313-1.984 6.31-4.268 9.56-6.31-3.384-3.854-7.149-7.326-10.762-10.939-3.632-3.638-7.155-7.371-10.939-10.851 0-0.051-0.083-0.102-0.096 0 1.54 3.81 3.18 7.88 4.82 11.96zm-79.652 9.45c2.773 1.831 5.368 3.835 8.249 5.559 3.46-8.104 7.232-16.384 10.482-24.386-6.264 6.25-12.618 12.42-18.731 18.83zm58.972-12.24c2.965 7.55 6.068 15.284 9.083 22.445-1.769-8.955-3.339-18.107-5.095-27.082-1.736 0.268-3.301 0.726-4.916 1.113-0.04 1.25 0.5 2.41 0.93 3.52zm-18.91 23.83c1.686-8.821 3.492-17.528 5.101-26.427-1.654-0.293-3.365-0.527-5.101-0.744-0.16 8.84-0.16 18.33 0 27.17zm-9.462-8.53c-1.438 3.396-3.015 6.589-3.428 10.856 3.74 0.77 7.543 1.47 11.309 2.22-0.063-10.291 0.127-20.836-0.095-30.968-2.475 6.11-5.274 11.96-7.786 17.89zm27.442 13.07c3.364-0.496 6.506-1.221 9.833-1.755-3.155-8.408-6.424-16.702-9.833-24.856v26.62z" fill-rule="evenodd"/>
<rect y="41.612" width="218" height="41.524" fill="#fff"/>
<text font-size="25.084" font-family="&apos;HelveticaLT-Condensed-Bold&apos;" transform="translate(11.85 70.947)" fill="#429544">VIEW ALL RECIPES</text>
</svg>
