<?xml version="1.0" encoding="utf-8"?>
<!-- Generator: Adobe Illustrator 16.0.0, SVG Export Plug-In . SVG Version: 6.00 Build 0)  -->
<!DOCTYPE svg PUBLIC "-//W3C//DTD SVG 1.1//EN" "http://www.w3.org/Graphics/SVG/1.1/DTD/svg11.dtd">
<svg version="1.1" id="Layer_1" xmlns="http://www.w3.org/2000/svg" xmlns:xlink="http://www.w3.org/1999/xlink" x="0px" y="0px"
	 width="218px" height="218px" viewBox="0 0 218 218" enable-background="new 0 0 218 218" xml:space="preserve">
<path fill-rule="evenodd" clip-rule="evenodd" fill="#429544" d="M61.376,14.858c6.106-2.309,12.116-4.704,18.082-7.14
	c3.263,7.925,6.348,16.028,9.553,24.013c3.524-0.553,6.831-1.323,10.38-1.857c0.216-8.402,0.038-17.214,0.102-25.778
	c6.519,0,13.038,0,19.558,0c0,8.599,0,17.188,0,25.778c4.134,0.907,8.428,1.654,12.612,2.509c0.438,0.013-0.032,0.362,0.096,0.652
	c3.574-7.928,6.951-16.05,10.475-24.022c5.992,2.541,11.862,5.2,17.898,7.699c-3.302,7.979-6.78,15.789-10.196,23.641
	c2.697,2.223,5.846,3.982,8.619,6.122c5.762-5.451,11.391-11.293,17.159-17.062c0.344-0.347,1.075-1.106,1.106-1.116
	c0.235-0.006,1.336,1.329,1.763,1.768c4.032,4.029,8.236,8.023,12.059,12.145c-6.087,6.064-12.25,12.049-18.178,18.27
	c1.68,2.78,3.715,5.569,5.565,8.342c0.598,0.906,1.316,1.791,1.577,2.69c8.046-3.146,15.958-6.421,24.111-9.458
	c2.297,6.103,4.694,12.116,7.137,18.083c-7.932,3.263-16.028,6.347-24.017,9.553c0.554,3.523,1.329,6.831,1.857,10.383
	c8.402,0.213,17.211,0.032,25.771,0.089c0,6.526,0,13.045,0,19.571c-8.618,0-17.242,0-25.867,0
	c-0.985,4.179-1.679,8.644-2.595,12.892c7.74,3.536,15.741,6.818,23.546,10.291c-2.531,5.991-5.196,11.855-7.689,17.897
	c-7.982-3.307-15.793-6.779-23.647-10.201c-2.214,2.696-3.981,5.852-6.125,8.624c5.45,5.75,11.302,11.385,17.064,17.147
	c0.344,0.35,1.113,1.081,1.113,1.113c0.013,0.235-1.329,1.335-1.762,1.762c-4.026,4.032-8.021,8.236-12.148,12.059
	c-6.062-6.08-12.04-12.25-18.26-18.178c-3.683,2.449-7.385,4.859-10.946,7.416c3.142,7.926,6.354,15.773,9.368,23.832
	c-6.112,2.309-12.122,4.7-18.088,7.143c-3.257-7.931-6.348-16.027-9.547-24.016c-3.536,0.604-7.028,1.259-10.481,1.945
	c0,8.562,0,17.122,0,25.689c-6.52,0-13.045,0-19.564,0c0-8.567,0-17.128,0-25.689c-4.198-0.992-8.65-1.723-12.975-2.595
	c-3.492,7.702-6.768,15.614-10.208,23.368c-5.991-2.532-11.862-5.203-17.891-7.696c3.294-7.982,6.773-15.793,10.202-23.647
	c-2.697-2.213-5.858-3.981-8.625-6.118c-5.756,5.45-11.391,11.296-17.153,17.058c-0.35,0.35-1.075,1.119-1.113,1.119
	c-0.248,0.014-1.31-1.31-1.768-1.768c-4.013-4.007-8.084-8.026-12.046-11.957c5.871-6.239,12.116-12.11,18.076-18.267
	c-2.506-3.677-4.91-7.461-7.505-11.035c-7.817,3.098-15.633,6.188-23.463,9.267c-2.64-5.832-4.777-12.161-7.327-18.076
	c7.925-3.256,16.028-6.354,24.016-9.553c-0.553-3.523-1.323-6.837-1.851-10.386c-8.408-0.21-17.224-0.032-25.784-0.09
	c0-6.525,0-13.044,0-19.567c8.529,0,17.064,0,25.593,0c0.776-3.66,1.603-7.744,2.322-11.5c0.083-0.436-0.058-1.237,0.553-1.39
	c-7.747-3.536-15.742-6.824-23.552-10.297c2.538-5.992,5.196-11.859,7.696-17.888c7.982,3.294,15.786,6.773,23.641,10.199
	c2.213-2.703,3.981-5.849,6.125-8.625c-5.451-5.756-11.296-11.391-17.064-17.153c-0.343-0.347-1.106-1.075-1.106-1.113
	c-0.013-0.248,1.31-1.31,1.755-1.765c4.02-4.013,8.026-8.084,11.97-12.056c6.233,5.88,12.104,12.125,18.26,18.085
	c2.812-1.714,5.508-3.724,8.256-5.562c0.884-0.591,1.787-1.243,2.779-1.583c-0.07,0.254,0.185,0.191,0.185,0.372
	C67.959,31.217,64.372,23.082,61.376,14.858 M100.969,5.862c0,7.848,0,15.703,0,23.552c0.19,0.273,0.909-0.197,1.024,0
	c2.474,12.946,4.745,26.096,7.327,38.947c2.595-12.857,5.044-25.864,7.601-38.759c0.076-0.324,0.668,0.318,0.648-0.188
	c0-7.941,0-15.885,0-23.832c-5.501,0-11.003,0-16.498,0C100.956,5.601,100.962,5.731,100.969,5.862z M63.233,15.879
	c3.015,7.432,5.89,14.766,8.809,22.067c0.967,2.417,1.717,5.222,2.875,7.416c0.649,1.231,1.679,2.484,2.5,3.714
	c5.623,8.427,11.258,17.011,16.969,25.218c0.134,0.194,0.324,0.604,0.649,0.56c-2.735-14.075-5.241-28.392-7.97-42.471
	c-0.165-0.502,0.585-0.092,0.464-0.563c-3.084-7.273-5.813-14.892-8.904-22.156C73.543,11.783,68.194,13.644,63.233,15.879z
	 M136.573,25.709c-1.501,3.444-3.187,7.384-4.726,10.847c-0.541,1.218-1.253,2.509-1.577,3.616c-0.389,1.355-0.56,2.938-0.833,4.357
	c-1.991,10.434-3.912,20.264-5.935,30.694c8.186-11.534,16.46-23.784,24.576-35.703c0.254-0.448,0.534,0.347,0.744-0.089
	c3.027-7.388,6.341-14.492,9.362-21.886c-4.993-2.239-10.088-4.376-15.118-6.583C140.904,15.561,138.831,20.576,136.573,25.709z
	 M57.948,47.312c-0.019-0.328,0.433-0.185,0.369-0.554c-5.68-5.543-11.194-11.248-16.874-16.785
	c-3.924,3.902-7.919,7.718-11.684,11.776c5.635,5.645,11.181,11.385,16.963,16.874c0.21-0.286,0.292-0.696,0.655-0.833
	c10.819,7.6,21.822,15.02,32.73,22.534C72.825,69.213,65.338,58.312,57.948,47.312z M176.82,30.435
	c-5.647,5.635-11.378,11.185-16.873,16.966c0.292,0.21,0.699,0.296,0.833,0.652c-7.512,10.844-15.296,21.917-22.438,32.825
	c10.914-7.413,21.93-14.73,32.824-22.162c0.223,0.089,0.153,0.467,0.465,0.467c5.616-5.699,11.271-11.353,16.969-16.972
	C184.79,38.172,180.866,34.244,176.82,30.435z M89.66,33.125c3.155,8.402,6.424,16.692,9.833,24.846c0-8.24,0-16.985,0-25.126
	c0-0.41,0.242-1.199-0.28-1.485C96.027,31.955,92.872,32.571,89.66,33.125z M119.146,62.334c2.524-5.737,4.808-11.375,7.32-17.061
	c1.584-3.559,3.205-7.079,3.625-11.684c-3.632-0.731-7.282-1.44-10.945-2.13C118.993,41.533,118.993,52.253,119.146,62.334z
	 M100.969,55.379c0,2.509-0.216,5.075,0.28,7.419c0.414,0.194,1.253-0.404,1.667-0.191c1.469,5.219,2.156,11.204,4.547,15.491
	c0.114-1.838,1.037-3.695,1.024-5.565c-0.013-1.542-0.617-3.32-0.935-5.005c-2.188-11.738-4.299-23.857-6.583-35.144
	C100.969,39.949,100.969,47.871,100.969,55.379z M112.01,62.334c1.902,0.197,3.632,0.569,5.559,0.738
	c-0.063-9.515,0.128-19.284-0.089-28.649C115.642,43.715,113.873,53.074,112.01,62.334z M94.577,64.465
	c1.609-0.461,3.511-0.626,4.917-1.294c-0.273-2.417-1.482-4.535-2.328-6.678c-2.557-6.506-4.98-13.149-7.689-19.198
	C91.244,46.281,92.847,55.437,94.577,64.465z M82.708,68.914c-0.057,0-0.115-0.013-0.096-0.092
	c-2.149-5.568-4.522-11.423-6.678-16.966c-0.75-1.927-1.348-4.003-2.226-5.75c-0.954-1.902-2.646-3.412-3.523-5.289
	c-3.269,1.988-6.335,4.182-9.458,6.31C67.793,54.148,75.553,62.264,82.708,68.914z M149.281,41.931
	c-3.53,8.128-7.048,16.263-10.571,24.392c6.393-6.163,12.663-12.435,18.826-18.823C154.764,45.654,152.156,43.664,149.281,41.931z
	 M130.734,67.527c1.521,0.795,2.83,1.803,4.363,2.598c1.38-1.784,2.131-4.032,3.053-6.122c0.948-2.118,1.87-4.262,2.792-6.405
	c1.839-4.309,3.778-8.634,5.368-12.886C141.178,52.377,135.88,59.866,130.734,67.527z M120.259,63.444
	c0.248,0.188,0.427,0.013,0.273,0.468c-0.833,5.587-1.838,11.006-1.481,17.799c0.566-0.89,1.896-2.025,2.315-3.151
	c0.426-1.113,0.496-2.671,0.744-3.985c1.742-9.203,3.841-18.928,5.291-27.727C125.067,52.428,122.6,57.873,120.259,63.444z
	 M141.865,65.39c-1.781,1.784-3.816,3.406-5.19,5.568c0.185,0.614,1.037,0.566,1.298,1.113c-2.71,4.671-5.985,8.787-7.881,14.275
	c0.764-0.474,1.616-0.951,2.404-1.485c0.738-0.493,1.743-0.989,2.321-1.574c0.465-0.464,0.903-1.422,1.387-2.131
	c7.251-10.571,14.89-21.539,21.701-31.808C152.48,54.645,147.156,60.095,141.865,65.39z M77.601,73.922
	c1.641-0.982,3.104-2.156,4.547-3.336c-6.792-6.656-13.426-13.468-20.219-20.124C67.049,58.388,72.456,66.029,77.601,73.922z
	 M84.184,68.822c0.083,0.455,0.483-0.267,0.56,0.191c2.245,2.624,4.077,5.937,6.398,8.621c1.183,1.374,2.754,2.659,3.988,3.896
	c0.382,0.378,0.706,1.068,1.304,1.015c-0.203-1.25-0.515-2.388-0.655-3.705c-6.125-8.863-12.015-17.968-18.178-26.799
	C79.757,57.679,82.034,63.189,84.184,68.822z M10.284,75.589C18.4,79.1,27.107,82.878,35.229,86.439
	c1.202,0.534,2.449,1.212,3.613,1.577c1.38,0.436,2.989,0.554,4.458,0.833c10.469,2.032,20.524,4.07,30.968,6.029
	c-11.468-8.154-23.647-16.365-35.427-24.388c-0.445-0.248,0.356-0.534-0.089-0.738c-7.384-3.034-14.489-6.344-21.886-9.366
	C14.641,65.422,12.434,70.475,10.284,75.589z M67.501,79.484c0.872,0.878,1.647,2.083,2.964,2.417
	c0.382,0.006,0.528-1.024,1.024-1.205c4.611,2.617,8.854,6.103,14.184,7.689c-1.292-1.282-1.838-3.313-3.155-4.637
	c-1.043-1.04-2.843-1.896-4.261-2.872c-9.846-6.754-20.009-13.916-29.588-20.216C54.87,67,61.306,73.296,67.501,79.484z
	 M46.824,61.034c-1.844,2.767-3.835,5.38-5.571,8.252c8.128,3.53,16.263,7.044,24.391,10.567
	C59.481,73.465,53.209,67.193,46.824,61.034z M160.507,72.345c-3.454,3.454-7.899,7.613-10.851,11.032
	c3.638-1.482,7.639-3.065,11.588-4.63c5.731-2.277,12.181-4.201,16.314-7.886c-2.017-3.139-4.134-6.186-6.201-9.267
	C167.693,64.942,164.189,68.659,160.507,72.345z M144.645,78.467c1.132,1.435,2.144,2.989,3.346,4.357
	c6.544-6.745,13.617-13.455,19.933-20.118C160.176,67.976,152.296,73.108,144.645,78.467z M112.372,63.912
	c-0.292,5.375-2.595,10.93-0.922,16.041c1.463-3.457,3.174-7,4.637-10.479c0.699-1.654,1.501-2.958,1.481-4.917
	C115.743,64.439,114.204,64.029,112.372,63.912z M180.904,72.625c-2.43,0.977-5.051,1.663-7.327,2.783
	c-1.222,0.598-2.468,1.654-3.715,2.5c-8.472,5.835-17.096,11.28-25.396,17.064c-0.171,0.118-0.616,0.331-0.565,0.652
	c14.113-2.611,28.246-5.199,42.282-7.88c0.503-0.162,0.096,0.585,0.561,0.461c7.301-3.021,14.769-5.88,22.165-8.812
	c-2.022-5.146-4.007-10.335-6.125-15.389C195.679,66.64,188.015,69.772,180.904,72.625z M95.499,65.762
	c0.852,3.998,1.857,8.154,2.779,12.056c0.312,1.307,0.438,2.741,1.215,3.803c0-5.597,0-11.191,0-16.785c-0.064,0-0.134,0-0.191,0
	C98.087,65.187,96.771,65.454,95.499,65.762z M100.969,79.484c0,1.457-0.286,3.231,0,4.456c0.108,0.436,0.655,1.021,1.024,1.574
	c0.808,1.218,1.431,2.013,2.13,3.062c0.356,0.534,0.592,1.374,1.024,1.294c0.133-2.169,1.247-4.166,1.202-6.303
	c-0.032-1.399-0.655-3.094-1.018-4.637c-1.1-4.678-2.607-9.14-4.363-12.701C100.969,70.504,100.969,75.185,100.969,79.484z
	 M130.365,69.102c-2.772,4.709-5.883,9.073-8.439,14.002c4.108-3.874,8.09-7.861,11.97-11.963
	C132.675,70.504,131.708,69.617,130.365,69.102z M113.308,79.58c-0.433,1.011-1.323,2.293-1.394,3.155
	c-0.044,0.486,0.255,1.157,0.369,1.758c0.375,2.026,0.572,3.737,1.024,5.568c0.668-0.944,1.965-2.092,2.41-3.435
	c0.521-1.567,0.585-3.911,0.923-6.21c0.496-3.362,1.253-6.99,0.839-10.571C116.188,72.679,114.656,76.377,113.308,79.58z
	 M84.184,72.625c-0.395-0.254-0.624-0.671-1.011-0.925c-1.336,1.043-2.703,2.054-4.083,3.056c1.151,1.641,2.34,3.32,3.619,5.009
	c2.067,2.741,3.873,5.66,7.047,7.143C87.949,82.089,85.965,77.465,84.184,72.625z M66.941,87.833
	c0.89-1.333,1.634-2.821,2.595-4.083c-0.553-1.04-1.787-1.412-2.779-1.848c-3.275-1.44-6.5-2.738-9.737-4.175
	c-4.344-1.927-8.72-3.883-12.981-5.473C51.747,77.379,59.175,82.767,66.941,87.833z M127.58,79.672
	c-0.916,0.919-2.035,1.949-3.148,3.062c-0.884,0.877-2.678,2.277-3.065,3.151c-0.445,1.043-0.427,2.455-0.643,3.616
	c-0.223,1.189-0.49,2.344-0.744,3.613c1.978-1.082,3.676-2.442,5.565-3.613c3.084-5.076,6.531-10.285,8.439-16.225
	C131.931,75.185,129.984,77.271,127.58,79.672z M91.886,88.386c2.105,1.479,4.198,2.977,6.392,4.366
	c-0.388-1.272-0.159-2.665-0.643-3.994c-0.261-0.715-1.221-1.74-1.857-2.592c-2.869-3.876-5.565-7.75-8.905-10.758
	C88.439,79.841,90.321,83.953,91.886,88.386z M149.745,84.862c-0.451,0.079,0.268,0.483-0.185,0.562
	c-2.627,2.239-5.94,4.077-8.618,6.396c-1.38,1.183-2.665,2.754-3.898,3.984c-0.382,0.379-1.075,0.709-1.024,1.304
	c1.068-0.404,2.493-0.229,3.715-0.652c1.049-0.372,2.22-1.559,3.333-2.318c7.969-5.444,16.192-10.558,23.552-15.952
	C161.035,80.448,155.399,82.668,149.745,84.862z M143.627,79.765c-1.47,1.218-3.275,2.5-5.006,3.803
	c-2.722,2.039-5.533,3.73-6.958,6.856c4.814-1.797,9.438-3.791,14.278-5.562c0.255-0.391,0.675-0.624,0.929-1.015
	C145.726,82.544,144.905,80.928,143.627,79.765z M109.593,83.94c0.782-0.569,0.916-2.125,0.369-3.062
	C109.86,81.914,109.58,82.779,109.593,83.94z M78.905,90.895c0.922,0.925,1.953,1.953,3.06,3.059
	c0.928,0.925,2.162,2.633,3.155,3.056c1.03,0.448,2.359,0.515,3.523,0.741c1.145,0.235,2.347,0.385,3.612,0.652
	c-0.343-0.945-1.081-1.721-1.666-2.599c-0.585-0.871-1.05-1.994-1.769-2.69c-0.896-0.865-2.512-1.511-3.803-2.312
	c-1.253-0.795-2.544-1.641-3.797-2.417c-2.449-1.517-6.322-2.859-8.618-3.797C74.478,86.602,76.552,88.542,78.905,90.895z
	 M70.554,84.773c-0.655,1.164-1.456,2.188-2.035,3.432c3.327,2.213,6.748,4.239,10.106,6.303c1.139,0.7,2.232,1.651,3.613,1.95
	C78.65,92.634,74.536,88.516,70.554,84.773z M111.45,88.112c-0.299-0.878-0.293-2.058-0.648-2.878
	C110.146,86.134,111.101,87.677,111.45,88.112z M102.177,88.386c-0.432-0.525-0.731-1.183-1.208-1.667
	C100.803,87.788,101.814,88.16,102.177,88.386z M117.2,87.645c0.019-0.286,0.54-0.566,0.279-0.833
	C117.403,87.053,116.901,87.346,117.2,87.645z M106.438,91.636c0.483-1.151,1.329-3.021,0.744-4.363
	C106.96,88.694,106.4,90.262,106.438,91.636z M99.213,88.297c-0.07-0.34,0.02-0.821-0.375-0.833
	C98.901,87.807,98.908,88.198,99.213,88.297z M129.812,98.311c0.712-0.258,1.736-1.215,2.595-1.854
	c3.867-2.872,7.747-5.568,10.755-8.904c-0.095,0-0.185,0-0.273,0c-4.191,1.727-8.389,3.418-12.707,5.008
	c-1.482,2.112-2.971,4.201-4.357,6.396C127.084,98.565,128.483,98.794,129.812,98.311z M119.146,89.871
	c0-0.709,0.432-1.485,0.273-2.039C118.86,87.982,119.019,89.336,119.146,89.871z M110.521,94.326
	c0.331-0.541,0.77-0.963,1.018-1.574c-0.648-1.577-1.183-3.263-1.946-4.735C108.804,89.918,110.165,92.386,110.521,94.326z
	 M30.593,99.516c10.322-0.063,20.893,0.124,31.063-0.089c-6.786-2.926-13.496-5.785-20.212-8.723
	c-0.973-0.423-1.921-1.015-2.875-1.294c-1.959-0.585-3.842-0.496-5.75-1.113C31.985,91.944,31.317,95.754,30.593,99.516z
	 M91.333,90.984c-0.134-1.294-1.12-2.22-2.048-2.407C90.029,89.317,90.417,90.412,91.333,90.984z M104.219,94.879
	c-0.006-0.709,0.273-1.145,0.273-1.854c-1.075-1.154-2.188-2.267-3.333-3.336C101.401,92.199,102.979,93.369,104.219,94.879z
	 M115.896,95.903c0.642-0.261,1.068-0.738,1.672-1.024c-0.063-1.609,0.128-3.463-0.089-4.917
	C116.239,91.232,116.259,93.748,115.896,95.903z M127.58,92.008c1.297-0.13,2.22-1.119,2.417-2.045
	C129.253,90.704,128.152,91.095,127.58,92.008z M154.197,95.251c0.478,1.59,0.643,3.499,1.298,4.91
	c2.379-0.337,4.516-1.479,6.678-2.318c6.494-2.515,13.064-5.06,19.101-7.692C172.317,91.925,163.165,93.5,154.197,95.251z
	 M160.596,100.162c8.873,0,17.739,0,26.611,0c-0.61-3.307-1.037-6.812-1.946-9.827C177.018,93.598,168.674,96.743,160.596,100.162z
	 M62.763,98.311c0.191-0.251,0.013-0.43,0.471-0.28c5.59,0.843,11.009,1.844,17.802,1.485c-0.992-0.61-2.194-2.039-3.435-2.506
	c-1.107-0.417-2.665-0.483-3.988-0.741c-9.242-1.787-19.042-3.819-27.902-5.285C51.467,93.356,57.039,95.91,62.763,98.311z
	 M95.499,92.653c-0.853-0.41-1.647-1.38-2.5-1.485C93.285,92.151,94.697,92.498,95.499,92.653z M109.224,95.433
	c-0.388-1.027-0.439-2.401-0.929-3.333c-0.038,0.82-0.254,1.472-0.28,2.318C108.34,94.774,108.843,95.439,109.224,95.433z
	 M120.074,94.972c1.47-0.318,2.455-1.132,3.34-2.039c-0.013-0.111-0.032-0.222-0.191-0.181
	C122.243,93.56,121.067,94.177,120.074,94.972z M125.913,96.177c0.42-0.855,1.381-1.647,1.488-2.502
	C126.409,93.954,126.092,95.388,125.913,96.177z M94.481,94.879c1.578,0.951,3.091,1.981,4.732,2.872
	c-0.013-0.696-0.235-1.183-0.28-1.848c-1.583-0.62-3.256-1.628-4.821-1.949C94.284,94.215,94.398,94.53,94.481,94.879z
	 M123.688,95.159c-0.936,1.603-1.946,3.113-2.875,4.729c0.699-0.013,1.195-0.235,1.857-0.28c0.61-1.584,1.628-3.256,1.946-4.818
	C124.355,94.959,124.037,95.077,123.688,95.159z M114.421,95.713c-0.032-0.251,0.267-0.649,0-0.833
	C114.229,95.102,114.173,95.506,114.421,95.713z M110.896,96.269c0.141,0.318,0.064,0.859,0.369,1.021
	c0.318-0.852,1.037-1.316,1.209-2.318C111.711,95.172,111.501,95.916,110.896,96.269z M94.386,98.584
	c-0.496-1.352-1.164-3.028-2.411-3.333C92.834,96.247,93.597,97.837,94.386,98.584z M102.915,95.805
	c-0.166-0.137-0.223-0.385-0.458-0.461C102.399,95.649,102.769,96.015,102.915,95.805z M105.98,97.29
	c0.178-0.286,0.35-1.068,0.185-1.387C106.152,96.339,105.312,97.055,105.98,97.29z M140.663,98.867
	c-1.266,0.299-2.665,0.468-3.619,1.294c5.597,0,11.188,0,16.784,0c-0.158-0.658-0.299-1.425-0.471-2.13
	c-0.158-0.709-0.19-1.574-0.731-1.946C148.753,97.074,144.581,97.942,140.663,98.867z M107.647,97.57
	c0.057-0.254,0.388-0.235,0.369-0.56c-0.159-0.08-0.146-0.34-0.369-0.366C107.755,97.004,107.367,97.334,107.647,97.57z
	 M100.969,98.957c0.394,0.013,0.451,0.359,0.833,0.372c-0.083-0.932-0.369-1.66-0.553-2.5c-0.089,0-0.178,0-0.28,0
	C100.969,97.538,100.969,98.247,100.969,98.957z M119.051,98.123c0.063,0.528-0.121,1.298,0.096,1.67
	c0.483-0.999,1.412-2.048,1.666-2.964C120.259,97.29,119.681,97.732,119.051,98.123z M112.563,97.942
	c0.286,0.006,0.445-0.118,0.648-0.191c-0.083-0.162-0.031-0.461-0.185-0.553C112.875,97.452,112.678,97.656,112.563,97.942z
	 M97.356,99.427c0.42,0.07,1.272,0.2,1.667,0c-0.91-0.483-1.896-1.38-2.779-1.584C96.605,98.377,97.063,98.82,97.356,99.427z
	 M103.29,98.775c0.076-0.204,0.242-0.318,0.185-0.652c-0.134-0.044-0.229-0.137-0.369-0.181
	C103.099,98.285,103.144,98.578,103.29,98.775z M115.533,98.867c0.407-0.209,1.139-0.588,1.107-0.925
	C116.328,98.305,115.406,98.066,115.533,98.867z M89.845,99.427c-0.954-0.099-2.112-0.49-2.875-0.471
	C87.211,99.771,88.973,99.551,89.845,99.427z M104.772,99.516c0.166-0.051,0.547,0.111,0.56-0.089
	c-0.165-0.086-0.273-0.229-0.464-0.28C104.887,99.322,104.759,99.348,104.772,99.516z M113.587,99.888
	c0.013-0.267,0.007-0.509-0.279-0.461C113.116,99.608,113.371,99.825,113.587,99.888z M130.365,99.793
	c0.293-0.054,0.706,0.025,0.738-0.277C130.906,99.653,130.416,99.503,130.365,99.793z M116.551,100.162c0.185,0,0.369,0,0.561,0
	c-0.025-0.156,0.261-0.461,0-0.553C116.983,99.856,116.551,99.793,116.551,100.162z M4.903,101.275c0,5.444,0,10.882,0,16.327
	c7.944,0,15.895,0,23.832,0c0.267-0.191-0.197-0.909,0-1.018c13.064-2.519,26.382-4.783,39.319-7.429
	c-13.07-2.506-26.058-5.092-39.128-7.601c-0.445,0.105,0.089-0.767-0.464-0.56c-7.823,0-15.646,0-23.457,0
	C4.891,101.014,4.897,101.145,4.903,101.275z M61.656,106.375c0.242-1.796,0.56-3.517,0.738-5.38
	c-9.298,0.066-18.845-0.115-27.998,0.099C43.472,102.865,52.503,104.684,61.656,106.375z M68.798,102.48
	c-1.634-0.684-3.015-1.517-4.917-1.485c-0.121,1.832-0.528,3.368-0.648,5.199c5.374,0.292,10.927,2.598,16.041,0.925
	C75.966,105.724,72.201,103.92,68.798,102.48z M78.905,105.269c1.011,0.423,2.29,1.323,3.155,1.386
	c0.49,0.039,1.158-0.261,1.755-0.372c2.022-0.378,3.74-0.572,5.572-1.014c-0.948-0.671-2.093-1.969-3.435-2.417
	c-1.571-0.515-3.905-0.585-6.214-0.925c-3.358-0.493-6.99-1.244-10.571-0.833C71.998,102.381,75.699,103.914,78.905,105.269z
	 M86.874,101.367c-0.197-0.08-0.547-0.496-0.737-0.273C86.365,101.145,86.626,101.641,86.874,101.367z M95.13,102.671
	c-0.191-0.703-0.674-1.123-1.018-1.676c-1.577,0.066-3.403-0.115-4.828,0.099C90.493,102.356,93.05,102.28,95.13,102.671z
	 M99.493,102.019c0-0.248,0-0.496,0-0.744c-0.306,0.06-0.439-0.057-0.655-0.089C98.959,101.561,99.124,101.889,99.493,102.019z
	 M119.33,102.48c0.726-0.324,1.819-0.286,2.411-0.741C120.857,101.479,119.025,101.555,119.33,102.48z M129.997,103.04
	c0.604-0.505,1.36-0.858,1.939-1.393C130.703,101.459,130.321,102.623,129.997,103.04z M134.627,101.647
	c-1.521,1.1-3.32,2.207-4.814,3.25c-0.465,0.318-1.107,0.601-1.298,1.106c2.035,0.025,3.912,1.148,5.935,1.116
	c1.418-0.022,3.167-0.744,4.726-1.116c4.833-1.138,9.547-2.449,13.172-4.356C146.438,101.647,140.535,101.647,134.627,101.647z
	 M155.959,101.834c-0.433,0.302,0.337,1.266,0.089,1.669c-5.463,1.425-11.436,2.35-15.951,4.729c1.807,0.13,3.638,1.021,5.482,1.021
	c1.526-0.007,3.353-0.611,5.095-0.932c11.836-2.156,24.042-4.427,35.509-6.675C176.172,101.771,165.665,101.405,155.959,101.834z
	 M189.064,101.927c0.178,0.137,0.013,0.607,0.178,0.744c-13.191,2.474-26.497,4.837-39.586,7.416
	c12.962,2.547,25.956,5.072,38.943,7.604c0.509-0.14,0.013,0.726,0.554,0.56c7.944,0,15.888,0,23.832,0c0-5.533,0-11.066,0-16.603
	c-7.944,0-15.888,0-23.832,0C189.052,101.666,189.058,101.796,189.064,101.927z M123.503,104.989
	c0.585,0.149,1.247,0.235,1.857,0.369c0.916-0.786,1.939-1.94,2.779-2.779c0.261-0.261,0.808-0.509,0.648-0.839
	C126.333,102.124,125.131,103.771,123.503,104.989z M98.189,103.04c-0.209-0.41-0.585-1.138-0.922-1.113
	C97.629,102.248,97.388,103.164,98.189,103.04z M122.766,103.596c0.165-0.235,0.534-0.261,0.648-0.557
	C122.969,102.944,122.587,103.38,122.766,103.596z M119.699,103.965c0.21,0.105,0.471,0.156,0.655,0.28
	c0.108-0.194,0.255-0.363,0.369-0.56C120.297,103.698,119.916,103.746,119.699,103.965z M95.035,104.156
	c-0.267,0.013-0.719-0.261-0.922,0C94.379,104.306,94.787,104.442,95.035,104.156z M98.743,105.078c0,0.13,0.044,0.204,0.095,0.28
	c0.286,0.042,0.261-0.232,0.375-0.369C98.997,104.958,98.851,105.002,98.743,105.078z M96.523,105.45
	c0.083,0.347,0.483,0.378,0.744,0.553C97.248,105.45,97.076,105.288,96.523,105.45z M96.701,107.399
	c-0.871-0.359-1.386-1.081-2.404-1.297C94.704,106.872,95.601,108.185,96.701,107.399z M121.276,106.474c0,0.089,0,0.181,0,0.273
	c0.445,0,1.05,0.312,1.394,0.096C122.18,106.779,121.779,106.22,121.276,106.474z M91.975,107.027
	c-1.488,0.703-3.206,1.18-4.636,1.946c1.882,1.03,4.255-0.591,6.404-0.741C93.267,107.711,92.707,107.288,91.975,107.027z
	 M84.559,107.769c0.897,0.658,2.442-0.292,2.875-0.649C86.556,107.419,85.38,107.419,84.559,107.769z M130.734,108.048
	c-0.737-0.436-2.258-0.585-3.053-0.649C128.451,107.854,129.507,108.036,130.734,108.048z M80.202,108.602
	c1.031,0.111,1.902,0.385,3.06,0.372C82.696,108.191,81.137,108.061,80.202,108.602z M121.557,108.694
	c0.114-0.137,0.382-0.105,0.369-0.372c-0.362,0.111-0.693-0.28-0.929,0C121.251,108.382,121.232,108.713,121.557,108.694z
	 M123.223,109.807c0.948-0.35,2.182-0.417,3.066-0.833C124.966,108.544,123.325,108.7,123.223,109.807z M91.702,110.271
	c1.272,0.403,2.449,0.232,2.964-0.744C93.648,109.75,92.58,109.918,91.702,110.271z M126.747,110.459
	c-0.954,0.229-1.934,0.359-2.589,0.744c0.643,0.245,0.998,0.785,1.666,1.018c1.584-0.648,3.257-1.195,4.726-1.949
	C129.424,109.508,128.184,110.122,126.747,110.459z M71.762,110.087c-12.905,2.598-27.152,4.805-40.057,7.515
	c7.543,0,15.563,0,23.088,0c2.639,0,5.349,0.279,7.416-0.375c0.083-0.63-0.414-1.101-0.185-1.578
	c5.521-1.24,11.257-2.276,15.671-4.636C75.852,111.019,73.441,109.75,71.762,110.087z M137.692,110.641
	c-1.036-0.108-1.901-0.382-3.065-0.369C135.193,111.051,136.751,111.19,137.692,110.641z M95.689,110.831
	c0.312,0.058,0.935,0.293,1.202,0.092c-0.273-0.133-0.375-0.433-0.648-0.556C96.147,110.608,95.811,110.615,95.689,110.831z
	 M87.154,111.292c0.604,0.293,2.436,0.652,3.339,0.652C89.616,111.547,88.369,111.044,87.154,111.292z M130.461,112.125
	c0.871-0.299,2.048-0.292,2.875-0.648C132.439,110.824,130.894,111.775,130.461,112.125z M138.621,112.125
	c3.454,1.47,7.003,3.174,10.481,4.637c1.654,0.7,2.945,1.508,4.91,1.488c0.121-1.832,0.528-3.371,0.649-5.202
	C149.281,112.755,143.729,110.452,138.621,112.125z M121.366,111.846c0.775,0.4,1.438,0.922,2.232,1.304
	C123.185,112.449,122.371,111.085,121.366,111.846z M83.173,112.221c-1.476,0.089-3.123,0.744-4.637,1.106
	c-4.726,1.151-9.375,2.328-12.981,4.274c4.249,0,8.752,0,12.981,0c1.374,0,3.148,0.279,4.356,0c0.426-0.102,1.107-0.648,1.667-1.018
	c1.215-0.827,2.093-1.526,3.148-2.227c0.502-0.337,1.196-0.547,1.399-1.119C87.078,113.193,85.157,112.1,83.173,112.221z
	 M96.612,112.59c-0.286-0.185-1.068-0.356-1.387-0.185C95.664,112.411,96.376,113.264,96.612,112.59z M142.233,115.369
	c-2.169-0.948-4.388-2.252-6.493-2.779c-0.025-0.007-0.063,0-0.089,0c-1.069-0.02-2.417,0.515-3.613,0.737
	c-1.246,0.242-2.474,0.293-3.625,0.751c1.177,0.534,2.169,1.863,3.523,2.314c1.686,0.554,4.014,0.599,6.214,0.929
	c3.492,0.509,6.717,1.228,10.577,0.84C146.75,117.22,144.518,116.374,142.233,115.369z M155.495,118.25
	c9.209-0.063,18.667,0.121,27.724-0.089c-8.942-1.787-17.98-3.473-26.891-5.292C155.896,114.504,155.736,116.418,155.495,118.25z
	 M120.812,113.887c0.203-0.133,0.693,0.013,0.744-0.279c-0.4-0.121-0.648-0.395-1.024-0.56
	C120.539,113.423,120.742,113.595,120.812,113.887z M98.558,113.607c0.133,0,0.204,0.051,0.28,0.096
	c-0.051-0.134,0.114-0.484-0.095-0.465C98.743,113.423,98.495,113.353,98.558,113.607z M92.439,113.982
	c-1.196,1.177-2.474,2.283-3.523,3.619c2.544-0.4,3.797-2.086,5.47-3.339C93.661,114.243,93.177,113.989,92.439,113.982z
	 M122.854,115.096c0.35,0.076,0.788,0.076,1.112,0.185C123.929,114.828,123.108,114.815,122.854,115.096z M97.165,115.648
	c0.318-0.146,0.865-0.063,1.024-0.368c-0.209-0.096-0.464-0.159-0.642-0.28C97.438,115.235,97.203,115.344,97.165,115.648z
	 M85.672,117.602c1.762,0.185,2.258-1.393,2.868-2.042C87.638,116.291,86.556,116.838,85.672,117.602z M94.386,116.304
	c0.401,0,0.948-0.343,0.744-0.655C94.914,115.896,94.52,115.974,94.386,116.304z M120.635,117.321
	c-0.204-0.33-0.338-0.725-0.471-1.112c-0.153,0-0.306,0-0.465,0C119.909,116.622,120.291,117.347,120.635,117.321z M123.599,118.25
	c1.698-0.063,3.645,0.121,5.189-0.089c-1.316-1.374-4.255-1.132-6.398-1.679C122.708,117.156,123.07,117.792,123.599,118.25z
	 M96.147,117.602c0.744,0,1.488,0,2.232,0c0.032-0.28,0.553-0.547,0.273-0.84C97.947,117.169,96.656,116.997,96.147,117.602z
	 M118.402,117.971c0.178,0.019,0.616,0.241,0.744,0c-0.331-0.166-0.318-0.675-0.744-0.744
	C118.402,117.475,118.402,117.723,118.402,117.971z M32.45,128.91c8.402-3.155,16.689-6.424,24.843-9.827
	c-8.834,0-17.675,0-26.516,0C31.038,122.282,31.973,125.615,32.45,128.91z M55.906,121.31c-6.5,2.525-13.159,5.133-19.284,7.791
	c8.993-1.825,18.33-3.308,27.26-5.202c-0.471-1.533-0.738-3.27-1.208-4.815C60.199,119.306,58.075,120.464,55.906,121.31z
	 M65.18,123.16c4.427-1.132,9.521-1.972,13.91-3.243c0.636-0.185,1.469-0.382,1.297-0.834c-5.374,0-10.755,0-16.136,0
	C64.499,120.502,64.894,121.78,65.18,123.16z M100.415,119.917c0.268-0.318,0.789-0.382,0.929-0.834c-0.273,0-0.553,0-0.839,0
	C100.46,119.293,100.218,119.776,100.415,119.917z M95.225,119.637c-0.617,1.577-1.628,3.257-1.946,4.821
	c0.324-0.197,0.712-0.331,1.106-0.458c0.999-1.488,1.851-3.104,2.881-4.548c-0.019-0.108-0.032-0.223-0.191-0.185
	C96.542,119.472,95.855,119.535,95.225,119.637z M121.468,121.31c-0.388-0.853-1.043-1.927-2.417-1.482
	C119.853,120.323,120.647,120.826,121.468,121.31z M130.926,120.285c-0.28-0.864-2.232-0.56-3.155-0.458
	C128.858,119.885,129.939,120.432,130.926,120.285z M140.472,122.327c1.151,0.407,2.659,0.489,3.994,0.744
	c9.306,1.8,19.17,3.778,27.998,5.381c-5.763-2.531-11.537-5.037-17.338-7.518c-0.19,0.254-0.013,0.426-0.464,0.279
	c-5.598-0.839-11.01-1.845-17.809-1.481C137.902,120.375,139.155,121.856,140.472,122.327z M176.637,128.63
	c0.947,0.42,1.952,1.024,2.874,1.304c1.832,0.547,3.606,0.465,5.375,1.012c0.636-3.816,1.45-7.454,2.137-11.213
	c-10.228,0.057-20.709-0.121-30.783,0.095C162.942,122.728,169.958,125.673,176.637,128.63z M97.445,122.143
	c0.725-0.337,1.628-1.45,1.208-2.315C98.374,120.654,97.49,121.38,97.445,122.143z M116.92,122.416c0-0.731,0-1.481,0-2.22
	c-0.279,0.025-0.496-0.489-0.744-0.19C116.545,120.699,116.456,121.838,116.92,122.416z M114.318,121.029
	c0.235,0.051,0.496,0.554,0.744,0.28c-0.223-0.273-0.146-0.84-0.362-1.113C114.535,120.438,114.478,120.781,114.318,121.029z
	 M88.083,120.935c-0.693,0.254-1.73,1.215-2.595,1.856c-2.557,1.896-5.489,3.905-7.696,5.75c-0.82,0.687-1.609,1.705-2.322,2.404
	c-0.204,0.203-0.667,0.382-0.553,0.744c4.261-1.666,8.44-3.428,12.791-5.006c1.1-1.507,2.309-3.319,3.345-4.82
	c0.344-0.496,0.91-1.031,0.833-1.578C90.716,120.725,89.323,120.489,88.083,120.935z M101.249,121.31
	c0.324-0.204,0.725-0.331,1.113-0.464C102.457,119.827,101.153,121.163,101.249,121.31z M126.842,123.16
	c0.528,0.802,0.929,1.87,1.571,2.506c0.4,0.382,1.284,0.795,1.952,1.209c4.401,2.684,10.209,6.424,14.935,7.784
	c-2.761-2.785-6.233-6.328-9.28-9.362c-0.909-0.915-2.258-2.557-3.243-2.97c-2.22-0.935-4.796-0.668-7.416-1.481
	C125.646,121.71,126.308,122.365,126.842,123.16z M104.683,121.494c0.133,0.203-0.013,0.687,0.273,0.737
	c0.184-0.343,0.401-0.648,0.56-1.018C105.154,121.214,104.976,121.418,104.683,121.494z M118.962,123.352
	c1.577,0.61,3.256,1.628,4.821,1.945c-0.197-0.33-0.331-0.725-0.465-1.119c-1.597-0.813-3.104-2.213-4.732-2.684
	C118.796,122.028,118.854,122.709,118.962,123.352z M109.688,122.231c0.083,0.293,0.229,0.521,0.464,0.655
	c0.058-0.324,0.293-0.935,0.09-1.202C110.102,121.901,109.911,122.092,109.688,122.231z M125.265,123.631
	c-0.407-0.687-0.814-1.349-1.298-1.946C124.171,122.55,124.73,123.071,125.265,123.631z M105.427,124.273
	c0.757-0.286,1.125-0.974,1.667-1.482c-0.102-0.279,0-0.737-0.28-0.839C106.375,122.753,105.859,123.472,105.427,124.273z
	 M111.73,123.352c0.057-0.49,0.623-0.897,0.368-1.399c-0.089,0-0.185,0-0.279,0C111.825,122.397,111.508,122.995,111.73,123.352z
	 M77.696,122.887c-1.049,0.4-2.213,1.546-3.339,2.321c-7.467,5.082-14.947,9.992-22.254,14.922
	c-0.509,0.343-1.151,0.648-1.482,1.208c5.775-2.385,11.665-4.668,17.522-6.958c0.458-0.076-0.267-0.471,0.19-0.554
	c4.465-3.415,9.643-6.805,13.261-11.035c0.051-0.063,0.719-0.534,0.185-0.648C80.743,122.575,78.803,122.474,77.696,122.887z
	 M147.424,134.57c0.725-1.17,1.494-2.289,2.137-3.529c-3.104-1.991-6.379-4.09-9.553-6.023c-1.387-0.853-2.658-1.851-4.268-2.131
	c-0.051,0-0.108,0.013-0.089,0.089C139.651,126.767,143.354,130.85,147.424,134.57z M90.493,125.577
	c0.986-0.28,1.311-1.717,1.482-2.506C91.568,123.924,90.595,124.712,90.493,125.577z M101.993,123.256
	c-0.019-0.076-0.077-0.108-0.191-0.096c-0.356,0.547-1.228,0.445-1.476,1.202c-0.445,1.342,0.254,3.695,0.089,5.101
	C101.738,128.197,101.585,125.443,101.993,123.256z M115.718,124.273c-0.038-0.217-0.152-0.35-0.095-0.643
	c-0.306,0.076-0.465-0.458-0.649-0.19C115.234,123.707,115.361,124.102,115.718,124.273z M103.379,124.737
	c0.287-0.21,0.414-0.922,0.096-1.208C103.475,123.911,103.214,124.496,103.379,124.737z M31.706,131.505
	c-0.502,0.159-0.089-0.585-0.553-0.464c-7.302,3.027-14.769,5.883-22.166,8.809c2.067,5.164,3.988,10.481,6.214,15.493
	c7.2-2.913,14.292-5.711,21.326-8.535c2.397-0.967,4.98-1.628,7.231-2.779c1.247-0.643,2.455-1.673,3.708-2.513
	c8.796-5.863,17.745-12.014,26.338-17.796c-0.006-0.063-0.013-0.114-0.096-0.089C59.78,126.328,45.635,128.809,31.706,131.505z
	 M109.593,126.684c0.477-1.157,0.095-2.099-0.643-2.684C109.129,124.929,109.313,125.851,109.593,126.684z M113.116,125.939
	c0.885,0.923,1.984,2.08,2.882,2.971c0.273,0.273,0.623,0.725,0.922,0.648c-0.395-2.602-2.245-3.752-3.435-5.559
	C113.391,124.661,113.219,125.271,113.116,125.939z M179.047,148.754c0.451,0.254-0.344,0.534,0.096,0.744
	c7.378,3.027,14.488,6.341,21.885,9.369c2.227-5.038,4.428-10.101,6.577-15.214c-6.92-3.009-14.279-6.208-21.319-9.185
	c-2.398-1.005-4.682-2.417-7.054-3.148c-2.812-0.871-5.935-1.074-8.898-1.666c-8.93-1.794-17.604-3.53-26.611-5.196
	c-0.006-0.051-0.013-0.108-0.095-0.096C155.278,132.649,167.185,140.677,179.047,148.754z M95.035,126.035
	c0.407-0.534,1.997-1.106,1.857-1.482C96.198,124.916,95.143,125.399,95.035,126.035z M106.35,126.499
	c0.642,1.584,1.189,3.257,1.946,4.726c0.197-0.419,0.382-0.852,0.56-1.291c-0.579-1.621-0.731-3.656-1.393-5.196
	C107.151,125.387,106.616,125.807,106.35,126.499z M95.225,127.612c-0.757,0.503-1.743,0.967-2.315,1.577
	c-0.897,0.941-1.609,2.672-2.417,3.988c-2.315,3.784-5.368,8.466-6.583,12.797c2.773-2.735,6.227-6.145,9.267-9.185
	c0.833-0.826,2.621-2.271,2.97-3.148c0.433-1.068,0.515-2.442,0.744-3.618c0.235-1.215,0.407-2.462,0.655-3.804
	C96.732,126.519,95.995,127.104,95.225,127.612z M120.259,130.487c0.255,0.699,1.209,1.724,1.852,2.595
	c1.901,2.563,3.898,5.482,5.749,7.696c0.681,0.813,1.718,1.622,2.411,2.315c0.21,0.209,0.388,0.687,0.744,0.56
	c-1.667-4.262-3.429-8.446-5.006-12.797c-2.105-1.476-4.204-2.971-6.398-4.357C119.992,127.714,119.788,129.177,120.259,130.487z
	 M124.89,128.077c-0.286-0.974-1.698-1.33-2.5-1.482C123.242,127.008,124.037,127.969,124.89,128.077z M87.898,129.279
	c0.744-0.738,1.838-1.126,2.41-2.036C89.011,127.371,88.089,128.356,87.898,129.279z M98.1,131.785
	c1.107-0.344,0.738-2.652,0.643-3.899C98.596,129.196,98.087,130.627,98.1,131.785z M128.604,130.678
	c-0.744-0.744-1.125-1.844-2.035-2.416C126.689,129.559,127.682,130.48,128.604,130.678z M71.858,134.469
	c-0.229,0.369-0.611,0.572-0.833,0.935c1.043,1.336,2.048,2.703,3.053,4.077c1.615-1.132,3.32-2.34,5.012-3.612
	c2.741-2.067,5.782-3.925,7.047-7.047C81.385,130.717,76.603,132.573,71.858,134.469z M110.617,130.945
	c0.108-0.655,0.407-1.615,0.369-2.124C110.688,129.292,110.509,130.386,110.617,130.945z M102.177,132.624
	c-0.553,1.673-0.604,4.007-0.928,6.208c-0.515,3.485-1.228,6.717-0.833,10.57c1.336-3.002,2.812-6.455,4.179-9.642
	c0.433-1.03,1.311-2.328,1.387-3.244c0.057-0.775-0.401-2.289-0.649-3.625c-0.273-1.45-0.547-3.078-0.839-3.791
	C103.964,130.265,102.622,131.264,102.177,132.624z M111.45,134.659c0.045,1.463,0.738,3.244,1.113,4.821
	c1.164,4.91,2.379,9.858,4.356,13.541c0-5.781,0-11.562,0-17.344c-1.532-2.087-2.792-4.439-4.445-6.398
	C112.379,131.085,111.393,132.828,111.45,134.659z M116.92,132.892c0.166-1.794-1.443-2.321-2.131-2.958
	C115.559,130.862,116.062,132.052,116.92,132.892z M134.817,135.124c0.503,0.515,1.394,0.884,2.131,1.393
	c10.653,7.34,21.688,14.953,32.088,22.07c0.095,0.038,0.223,0.108,0.089,0c-5.19-5.502-10.666-10.762-15.945-16.047
	c-1.781-1.774-3.409-3.816-5.565-5.19c-0.572,0.166-0.502,0.979-1.023,1.202c-4.72-2.849-9.127-6.004-14.743-7.976
	C132.948,131.943,133.564,133.833,134.817,135.124z M107.094,134.011c0.648-0.891-0.293-2.442-0.655-2.875
	C106.737,132.014,106.737,133.19,107.094,134.011z M151.138,131.505c-0.992,1.336-1.812,2.83-2.69,4.274
	c1.781,1.373,4.033,2.124,6.125,3.053c2.105,0.935,4.249,1.87,6.393,2.786c4.312,1.844,8.637,3.784,12.893,5.367
	C166.225,141.897,158.796,136.58,151.138,131.505z M132.776,144.117c0.483,1.253,0.808,2.685,1.952,3.429
	c1.336-1.044,2.703-2.055,4.077-3.054c-1.157-1.641-2.347-3.319-3.619-5.012c-2.061-2.741-3.873-5.66-7.047-7.136
	C129.596,136.25,131.319,140.339,132.776,144.117z M83.351,135.588c-0.49,0.496-0.967,1.399-1.482,2.138
	c-7.416,10.621-14.857,21.847-21.885,32.17c6.341-6.201,12.638-12.632,18.833-18.826c0.872-0.878,2.073-1.654,2.404-2.964
	c-0.242-0.465-0.903-0.521-1.202-0.929c2.97-4.541,5.928-9.096,7.969-14.553C86.639,133.667,84.534,134.405,83.351,135.588z
	 M107.927,138.367c0-0.973,0.648-2.245,0.191-3.059C107.628,136.122,107.348,137.42,107.927,138.367z M56.282,140.689
	c-5.731,2.296-12.129,4.083-16.327,7.695c2.175,3.11,4.268,6.303,6.404,9.451c7.403-7.174,14.699-14.463,21.879-21.879
	c0.051,0,0.108-0.07,0-0.089C64.436,137.389,60.352,139.048,56.282,140.689z M69.912,136.415
	c-5.985,6.029-12.313,12.402-18.273,18.368c-0.375,0.375-1.062,0.751-0.922,1.106c7.429-5.088,14.915-10.119,22.439-15.111
	C72.15,139.252,71.062,137.802,69.912,136.415z M93.368,140.874c0.839-1.381,1.921-2.545,2.22-4.173
	c-0.019-0.07,0-0.185-0.089-0.185c-3.81,3.854-7.83,7.505-11.404,11.589c1.278,0.578,2.239,1.463,3.524,2.035
	C89.628,147.177,91.479,143.958,93.368,140.874z M122.205,140.969c0.376,1.024,1.591,2.245,2.315,3.333
	c5.432,8.147,10.762,16.085,16.143,23.927c-2.232-6.029-4.688-11.816-6.958-17.809c-0.076-0.445-0.478,0.268-0.554-0.178
	c-3.625-4.853-7.028-9.916-11.684-13.726C121.9,137.84,121.684,139.519,122.205,140.969z M96.147,141.338
	c-0.433,1.132-0.566,2.646-0.833,3.981c-1.883,9.388-3.721,19.386-5.375,28.29c2.563-5.94,5.165-11.843,7.696-17.809
	c-0.254-0.19-0.433-0.013-0.28-0.458c0.795-5.577,1.965-11.264,1.387-17.897C98.106,138.832,96.688,139.926,96.147,141.338z
	 M46.633,160.438c-0.375,0.229-0.178-0.197-0.553-0.185c-5.552,5.629-11.156,11.227-16.785,16.778
	c3.81,4.045,7.734,7.976,11.779,11.779c5.642-5.635,11.378-11.182,16.874-16.969c-0.292-0.204-0.7-0.293-0.833-0.649
	c7.613-10.965,15.456-22.19,22.712-33.2C68.792,145.497,57.604,152.862,46.633,160.438z M118.402,154.408
	c1.456-0.242,2.754-0.655,4.179-0.922c-0.439-2.315-1.095-4.682-1.673-7.143c-0.643-2.69-1.094-6.532-2.506-8.25
	C118.402,143.532,118.402,148.97,118.402,154.408z M159.572,171.842c0.337,0.305-0.389,0.292-0.09,0.553
	c5.756,5.56,11.227,11.398,17.064,16.887c3.791-4,7.874-7.709,11.582-11.785c-5.629-5.648-11.175-11.379-16.963-16.874
	c-0.209,0.293-0.292,0.699-0.648,0.833c-10.984-7.689-22.082-15.252-33.2-22.808c-0.051,0.007-0.102,0.013-0.089,0.089
	C144.733,149.708,152.117,160.812,159.572,171.842z M101.802,149.962c-0.7,1.642-1.596,2.812-1.476,4.726
	c1.825,0.121,3.365,0.528,5.19,0.655c0.292-5.381,2.602-10.939,0.922-16.04C104.963,142.546,103.322,146.426,101.802,149.962z
	 M171.077,158.212c1.832-2.767,3.829-5.375,5.56-8.25c-8.122-3.536-16.257-7.047-24.386-10.57
	C158.408,145.777,164.679,152.049,171.077,158.212z M109.224,145.975c0.025,1.507,0.598,3.377,0.928,5.095
	c2.258,11.868,4.49,24.321,6.768,35.795c0-7.537,0-15.43,0-22.903c0-2.506,0.223-5.082-0.279-7.416
	c-0.445-0.299-1.164,0.344-1.578,0.09c-1.215-5.737-2.455-11.449-4.82-16.041C110.197,142.368,109.199,144.143,109.224,145.975z
	 M69.81,179.722c-0.241,0.452-0.534-0.343-0.737,0.096c-3.028,7.384-6.341,14.488-9.362,21.879
	c5.037,2.239,10.087,4.439,15.207,6.59c3.517-7.925,7.054-16.499,10.571-24.475c0.509-1.157,1.234-2.315,1.577-3.435
	c0.414-1.374,0.535-2.97,0.833-4.458c2.099-10.419,4.159-21.275,6.023-31.427C85.914,156.259,77.773,167.898,69.81,179.722z
	 M130.83,186.864c0.159,0.496-0.592,0.089-0.465,0.56c3.027,7.302,5.877,14.763,8.81,22.159c5.164-2.073,10.481-3.994,15.487-6.207
	c-3.199-7.964-6.494-16.162-9.554-24.118c-0.534-1.387-0.96-2.805-1.577-4.084c-0.566-1.163-1.564-2.2-2.321-3.332
	c-6.081-9.089-12.047-18.051-18.076-26.892c-0.006-0.057-0.013-0.107-0.089-0.089C125.551,158.943,128.184,172.91,130.83,186.864z
	 M139.919,145.415c-1.311,1.164-2.882,2.066-4.179,3.25c6.004,5.864,12.186,12.187,18.088,18.075
	c0.395,0.401,0.872,0.986,1.202,0.929C149.936,160.316,145.07,152.717,139.919,145.415z M82.982,149.123
	c-0.006-0.051-0.013-0.108-0.089-0.089c-1.03,0.954-1.476,2.378-2.13,3.892c-1.374,3.148-2.69,6.259-3.994,9.273
	c-1.864,4.312-3.791,8.421-5.19,12.333c5.126-7.702,10.513-15.144,15.576-22.903C85.723,150.834,84.438,149.898,82.982,149.123z
	 M100.791,189.37c0,0.528-0.521,0.114-0.464,0.554c0,7.912,0,15.824,0,23.742c5.527,0,11.066,0,16.594,0c0-7.95,0-15.888,0-23.838
	c-0.185-0.317-1.03,0.337-1.023-0.089c-2.57-13.153-4.821-26.643-7.505-39.688C105.904,163.204,103.246,176.18,100.791,189.37z
	 M140.008,162.295c2.238,5.578,4.064,11.881,7.416,16.136c3.313-1.984,6.31-4.268,9.56-6.31c-3.384-3.854-7.149-7.326-10.762-10.939
	c-3.632-3.638-7.155-7.371-10.939-10.851c0-0.051-0.083-0.102-0.096,0C136.726,154.147,138.373,158.218,140.008,162.295z
	 M60.358,171.753c2.773,1.831,5.368,3.835,8.249,5.559c3.46-8.104,7.232-16.384,10.482-24.386
	C72.825,159.172,66.471,165.342,60.358,171.753z M119.33,159.509c2.965,7.55,6.068,15.284,9.083,22.445
	c-1.769-8.955-3.339-18.107-5.095-27.082c-1.736,0.268-3.301,0.726-4.916,1.113C118.364,157.238,118.898,158.396,119.33,159.509z
	 M100.415,183.341c1.686-8.821,3.492-17.528,5.101-26.427c-1.654-0.293-3.365-0.527-5.101-0.744
	C100.263,165.011,100.263,174.5,100.415,183.341z M90.958,174.806c-1.438,3.396-3.015,6.589-3.428,10.856
	c3.74,0.77,7.543,1.47,11.309,2.22c-0.063-10.291,0.127-20.836-0.095-30.968C96.269,163.026,93.47,168.878,90.958,174.806z
	 M118.402,187.882c3.364-0.496,6.506-1.221,9.833-1.755c-3.155-8.408-6.424-16.702-9.833-24.856
	C118.402,170.144,118.402,179.016,118.402,187.882z"/>
<rect y="88.112" fill="#FFFFFF" width="218" height="41.524"/>
<text transform="matrix(1 0 0 1 11.8501 117.4473)" fill="#429544" font-family="'HelveticaLT-Condensed-Bold'" font-size="25.0843">VIEW ALL RECIPES</text>
</svg>
