<?xml version="1.0" encoding="utf-8"?>
<!-- Generator: Adobe Illustrator 16.0.0, SVG Export Plug-In . SVG Version: 6.00 Build 0)  -->
<!DOCTYPE svg PUBLIC "-//W3C//DTD SVG 1.1//EN" "http://www.w3.org/Graphics/SVG/1.1/DTD/svg11.dtd">
<svg version="1.1" id="Layer_1" xmlns="http://www.w3.org/2000/svg" xmlns:xlink="http://www.w3.org/1999/xlink" x="0px" y="0px"
	 width="218px" height="125px" viewBox="0 0 218 125" enable-background="new 0 0 218 125" xml:space="preserve">
<path fill-rule="evenodd" clip-rule="evenodd" fill="#429544" d="M61.376-31.642c6.106-2.309,12.116-4.704,18.082-7.14
	c3.263,7.925,6.348,16.028,9.553,24.013c3.524-0.553,6.831-1.323,10.38-1.857c0.216-8.402,0.038-17.214,0.102-25.778
	c6.519,0,13.038,0,19.558,0c0,8.599,0,17.188,0,25.778c4.134,0.907,8.428,1.654,12.612,2.509c0.438,0.013-0.032,0.362,0.096,0.652
	c3.574-7.928,6.951-16.05,10.475-24.022c5.992,2.541,11.862,5.2,17.898,7.699c-3.302,7.979-6.78,15.789-10.196,23.641
	c2.697,2.223,5.846,3.982,8.619,6.122c5.762-5.451,11.391-11.293,17.159-17.062c0.344-0.347,1.075-1.106,1.106-1.116
	c0.235-0.006,1.336,1.329,1.763,1.768c4.032,4.029,8.236,8.023,12.059,12.145c-6.087,6.064-12.25,12.049-18.178,18.27
	c1.68,2.78,3.715,5.569,5.565,8.342c0.598,0.906,1.316,1.791,1.577,2.69c8.046-3.146,15.958-6.421,24.111-9.458
	c2.297,6.103,4.694,12.116,7.137,18.083c-7.932,3.263-16.028,6.347-24.017,9.553c0.554,3.523,1.329,6.831,1.857,10.383
	c8.402,0.213,17.211,0.032,25.771,0.089c0,6.526,0,13.045,0,19.571c-8.618,0-17.242,0-25.867,0
	c-0.985,4.179-1.679,8.644-2.595,12.892c7.74,3.536,15.741,6.818,23.546,10.291c-2.531,5.991-5.196,11.855-7.689,17.897
	c-7.982-3.307-15.793-6.779-23.647-10.201c-2.214,2.696-3.981,5.852-6.125,8.624c5.45,5.75,11.302,11.385,17.064,17.147
	c0.344,0.35,1.113,1.081,1.113,1.113c0.013,0.235-1.329,1.335-1.762,1.762c-4.026,4.032-8.021,8.236-12.148,12.059
	c-6.062-6.08-12.04-12.25-18.26-18.178c-3.683,2.449-7.385,4.859-10.946,7.416c3.142,7.926,6.354,15.773,9.368,23.832
	c-6.112,2.309-12.122,4.7-18.088,7.143c-3.257-7.931-6.348-16.027-9.547-24.016c-3.536,0.604-7.028,1.259-10.481,1.945
	c0,8.562,0,17.122,0,25.689c-6.52,0-13.045,0-19.564,0c0-8.567,0-17.128,0-25.689c-4.198-0.992-8.65-1.723-12.975-2.595
	c-3.492,7.702-6.768,15.614-10.208,23.368c-5.991-2.532-11.862-5.203-17.891-7.696c3.294-7.982,6.773-15.793,10.202-23.647
	c-2.697-2.213-5.858-3.981-8.625-6.118c-5.756,5.45-11.391,11.296-17.153,17.058c-0.35,0.35-1.075,1.119-1.113,1.119
	c-0.248,0.014-1.31-1.31-1.768-1.768c-4.013-4.007-8.084-8.026-12.046-11.957c5.871-6.239,12.116-12.11,18.076-18.267
	c-2.506-3.677-4.91-7.461-7.505-11.035c-7.817,3.098-15.633,6.188-23.463,9.267c-2.64-5.832-4.777-12.161-7.327-18.076
	c7.925-3.256,16.028-6.354,24.016-9.553c-0.553-3.523-1.323-6.837-1.851-10.386c-8.408-0.21-17.224-0.032-25.784-0.09
	c0-6.525,0-13.044,0-19.567c8.529,0,17.064,0,25.593,0c0.776-3.66,1.603-7.744,2.322-11.5c0.083-0.436-0.058-1.237,0.553-1.39
	c-7.747-3.536-15.742-6.824-23.552-10.297c2.538-5.992,5.196-11.859,7.696-17.888c7.982,3.294,15.786,6.773,23.641,10.199
	c2.213-2.703,3.981-5.849,6.125-8.625C40.349,7.76,34.504,2.125,28.735-3.638c-0.343-0.347-1.106-1.075-1.106-1.113
	c-0.013-0.248,1.31-1.31,1.755-1.765c4.02-4.013,8.026-8.084,11.97-12.056c6.233,5.88,12.104,12.125,18.26,18.085
	C62.426-2.2,65.122-4.21,67.87-6.048c0.884-0.591,1.787-1.243,2.779-1.583c-0.07,0.254,0.185,0.191,0.185,0.372
	C67.959-15.283,64.372-23.418,61.376-31.642 M100.969-40.638c0,7.848,0,15.703,0,23.552c0.19,0.273,0.909-0.197,1.024,0
	c2.474,12.946,4.745,26.096,7.327,38.947c2.595-12.857,5.044-25.864,7.601-38.759c0.076-0.324,0.668,0.318,0.648-0.188
	c0-7.941,0-15.885,0-23.832c-5.501,0-11.003,0-16.498,0C100.956-40.899,100.962-40.769,100.969-40.638z M63.233-30.621
	c3.015,7.432,5.89,14.766,8.809,22.067c0.967,2.417,1.717,5.222,2.875,7.416c0.649,1.231,1.679,2.484,2.5,3.714
	c5.623,8.427,11.258,17.011,16.969,25.218c0.134,0.194,0.324,0.604,0.649,0.56c-2.735-14.075-5.241-28.392-7.97-42.471
	c-0.165-0.502,0.585-0.092,0.464-0.563c-3.084-7.273-5.813-14.892-8.904-22.156C73.543-34.717,68.194-32.856,63.233-30.621z
	 M136.573-20.791c-1.501,3.444-3.187,7.384-4.726,10.847c-0.541,1.218-1.253,2.509-1.577,3.616c-0.389,1.355-0.56,2.938-0.833,4.357
	c-1.991,10.434-3.912,20.264-5.935,30.694c8.186-11.534,16.46-23.784,24.576-35.703c0.254-0.448,0.534,0.347,0.744-0.089
	c3.027-7.388,6.341-14.492,9.362-21.886c-4.993-2.239-10.088-4.376-15.118-6.583C140.904-30.939,138.831-25.924,136.573-20.791z
	 M57.948,0.812c-0.019-0.328,0.433-0.185,0.369-0.554c-5.68-5.543-11.194-11.248-16.874-16.785
	c-3.924,3.902-7.919,7.718-11.684,11.776C35.395,0.894,40.94,6.634,46.722,12.123c0.21-0.286,0.292-0.696,0.655-0.833
	c10.819,7.6,21.822,15.02,32.73,22.534C72.825,22.713,65.338,11.812,57.948,0.812z M176.82-16.065
	c-5.647,5.635-11.378,11.185-16.873,16.966c0.292,0.21,0.699,0.296,0.833,0.652c-7.512,10.844-15.296,21.917-22.438,32.825
	c10.914-7.413,21.93-14.73,32.824-22.162c0.223,0.089,0.153,0.467,0.465,0.467C177.247,6.984,182.901,1.33,188.6-4.29
	C184.79-8.328,180.866-12.256,176.82-16.065z M89.66-13.375c3.155,8.402,6.424,16.692,9.833,24.846c0-8.24,0-16.985,0-25.126
	c0-0.41,0.242-1.199-0.28-1.485C96.027-14.545,92.872-13.929,89.66-13.375z M119.146,15.834c2.524-5.737,4.808-11.375,7.32-17.061
	c1.584-3.559,3.205-7.079,3.625-11.684c-3.632-0.731-7.282-1.44-10.945-2.13C118.993-4.967,118.993,5.753,119.146,15.834z
	 M100.969,8.879c0,2.509-0.216,5.075,0.28,7.419c0.414,0.194,1.253-0.404,1.667-0.191c1.469,5.219,2.156,11.204,4.547,15.491
	c0.114-1.838,1.037-3.695,1.024-5.565c-0.013-1.542-0.617-3.32-0.935-5.005c-2.188-11.738-4.299-23.857-6.583-35.144
	C100.969-6.551,100.969,1.371,100.969,8.879z M112.01,15.834c1.902,0.197,3.632,0.569,5.559,0.738
	c-0.063-9.515,0.128-19.284-0.089-28.649C115.642-2.785,113.873,6.574,112.01,15.834z M94.577,17.965
	c1.609-0.461,3.511-0.626,4.917-1.294c-0.273-2.417-1.482-4.535-2.328-6.678c-2.557-6.506-4.98-13.149-7.689-19.198
	C91.244-0.219,92.847,8.937,94.577,17.965z M82.708,22.414c-0.057,0-0.115-0.013-0.096-0.092
	c-2.149-5.568-4.522-11.423-6.678-16.966c-0.75-1.927-1.348-4.003-2.226-5.75c-0.954-1.902-2.646-3.412-3.523-5.289
	c-3.269,1.988-6.335,4.182-9.458,6.31C67.793,7.648,75.553,15.764,82.708,22.414z M149.281-4.569
	c-3.53,8.128-7.048,16.263-10.571,24.392c6.393-6.163,12.663-12.435,18.826-18.823C154.764-0.846,152.156-2.836,149.281-4.569z
	 M130.734,21.027c1.521,0.795,2.83,1.803,4.363,2.598c1.38-1.784,2.131-4.032,3.053-6.122c0.948-2.118,1.87-4.262,2.792-6.405
	c1.839-4.309,3.778-8.634,5.368-12.886C141.178,5.877,135.88,13.366,130.734,21.027z M120.259,16.944
	c0.248,0.188,0.427,0.013,0.273,0.468c-0.833,5.587-1.838,11.006-1.481,17.799c0.566-0.89,1.896-2.025,2.315-3.151
	c0.426-1.113,0.496-2.671,0.744-3.985c1.742-9.203,3.841-18.928,5.291-27.727C125.067,5.928,122.6,11.373,120.259,16.944z
	 M141.865,18.89c-1.781,1.784-3.816,3.406-5.19,5.568c0.185,0.614,1.037,0.566,1.298,1.113c-2.71,4.671-5.985,8.787-7.881,14.275
	c0.764-0.474,1.616-0.951,2.404-1.485c0.738-0.493,1.743-0.989,2.321-1.574c0.465-0.464,0.903-1.422,1.387-2.131
	c7.251-10.571,14.89-21.539,21.701-31.808C152.48,8.145,147.156,13.595,141.865,18.89z M77.601,27.422
	c1.641-0.982,3.104-2.156,4.547-3.336C75.356,17.431,68.722,10.619,61.93,3.963C67.049,11.888,72.456,19.529,77.601,27.422z
	 M84.184,22.322c0.083,0.455,0.483-0.267,0.56,0.191c2.245,2.624,4.077,5.937,6.398,8.621c1.183,1.374,2.754,2.659,3.988,3.896
	c0.382,0.378,0.706,1.068,1.304,1.015c-0.203-1.25-0.515-2.388-0.655-3.705C89.654,23.476,83.764,14.371,77.601,5.54
	C79.757,11.179,82.034,16.689,84.184,22.322z M10.284,29.089C18.4,32.6,27.107,36.378,35.229,39.939
	c1.202,0.534,2.449,1.212,3.613,1.577c1.38,0.436,2.989,0.554,4.458,0.833c10.469,2.032,20.524,4.07,30.968,6.029
	c-11.468-8.154-23.647-16.365-35.427-24.388c-0.445-0.248,0.356-0.534-0.089-0.738c-7.384-3.034-14.489-6.344-21.886-9.366
	C14.641,18.922,12.434,23.975,10.284,29.089z M67.501,32.984c0.872,0.878,1.647,2.083,2.964,2.417
	c0.382,0.006,0.528-1.024,1.024-1.205c4.611,2.617,8.854,6.103,14.184,7.689c-1.292-1.282-1.838-3.313-3.155-4.637
	c-1.043-1.04-2.843-1.896-4.261-2.872c-9.846-6.754-20.009-13.916-29.588-20.216C54.87,20.5,61.306,26.796,67.501,32.984z
	 M46.824,14.534c-1.844,2.767-3.835,5.38-5.571,8.252c8.128,3.53,16.263,7.044,24.391,10.567
	C59.481,26.965,53.209,20.693,46.824,14.534z M160.507,25.845c-3.454,3.454-7.899,7.613-10.851,11.032
	c3.638-1.482,7.639-3.065,11.588-4.63c5.731-2.277,12.181-4.201,16.314-7.886c-2.017-3.139-4.134-6.186-6.201-9.267
	C167.693,18.442,164.189,22.159,160.507,25.845z M144.645,31.967c1.132,1.435,2.144,2.989,3.346,4.357
	c6.544-6.745,13.617-13.455,19.933-20.118C160.176,21.476,152.296,26.608,144.645,31.967z M112.372,17.412
	c-0.292,5.375-2.595,10.93-0.922,16.041c1.463-3.457,3.174-7,4.637-10.479c0.699-1.654,1.501-2.958,1.481-4.917
	C115.743,17.939,114.204,17.529,112.372,17.412z M180.904,26.125c-2.43,0.977-5.051,1.663-7.327,2.783
	c-1.222,0.598-2.468,1.654-3.715,2.5c-8.472,5.835-17.096,11.28-25.396,17.064c-0.171,0.118-0.616,0.331-0.565,0.652
	c14.113-2.611,28.246-5.199,42.282-7.88c0.503-0.162,0.096,0.585,0.561,0.461c7.301-3.021,14.769-5.88,22.165-8.812
	c-2.022-5.146-4.007-10.335-6.125-15.389C195.679,20.14,188.015,23.272,180.904,26.125z M95.499,19.262
	c0.852,3.998,1.857,8.154,2.779,12.056c0.312,1.307,0.438,2.741,1.215,3.803c0-5.597,0-11.191,0-16.785c-0.064,0-0.134,0-0.191,0
	C98.087,18.687,96.771,18.954,95.499,19.262z M100.969,32.984c0,1.457-0.286,3.231,0,4.456c0.108,0.436,0.655,1.021,1.024,1.574
	c0.808,1.218,1.431,2.013,2.13,3.062c0.356,0.534,0.592,1.374,1.024,1.294c0.133-2.169,1.247-4.166,1.202-6.303
	c-0.032-1.399-0.655-3.094-1.018-4.637c-1.1-4.678-2.607-9.14-4.363-12.701C100.969,24.004,100.969,28.685,100.969,32.984z
	 M130.365,22.602c-2.772,4.709-5.883,9.073-8.439,14.002c4.108-3.874,8.09-7.861,11.97-11.963
	C132.675,24.004,131.708,23.117,130.365,22.602z M113.308,33.08c-0.433,1.011-1.323,2.293-1.394,3.155
	c-0.044,0.486,0.255,1.157,0.369,1.758c0.375,2.026,0.572,3.737,1.024,5.568c0.668-0.944,1.965-2.092,2.41-3.435
	c0.521-1.567,0.585-3.911,0.923-6.21c0.496-3.362,1.253-6.99,0.839-10.571C116.188,26.179,114.656,29.877,113.308,33.08z
	 M84.184,26.125c-0.395-0.254-0.624-0.671-1.011-0.925c-1.336,1.043-2.703,2.054-4.083,3.056c1.151,1.641,2.34,3.32,3.619,5.009
	c2.067,2.741,3.873,5.66,7.047,7.143C87.949,35.589,85.965,30.965,84.184,26.125z M66.941,41.333
	c0.89-1.333,1.634-2.821,2.595-4.083c-0.553-1.04-1.787-1.412-2.779-1.848c-3.275-1.44-6.5-2.738-9.737-4.175
	c-4.344-1.927-8.72-3.883-12.981-5.473C51.747,30.879,59.175,36.267,66.941,41.333z M127.58,33.172
	c-0.916,0.919-2.035,1.949-3.148,3.062c-0.884,0.877-2.678,2.277-3.065,3.151c-0.445,1.043-0.427,2.455-0.643,3.616
	c-0.223,1.189-0.49,2.344-0.744,3.613c1.978-1.082,3.676-2.442,5.565-3.613c3.084-5.076,6.531-10.285,8.439-16.225
	C131.931,28.685,129.984,30.771,127.58,33.172z M91.886,41.886c2.105,1.479,4.198,2.977,6.392,4.366
	c-0.388-1.272-0.159-2.665-0.643-3.994c-0.261-0.715-1.221-1.74-1.857-2.592c-2.869-3.876-5.565-7.75-8.905-10.758
	C88.439,33.341,90.321,37.453,91.886,41.886z M149.745,38.362c-0.451,0.079,0.268,0.483-0.185,0.562
	c-2.627,2.239-5.94,4.077-8.618,6.396c-1.38,1.183-2.665,2.754-3.898,3.984c-0.382,0.379-1.075,0.709-1.024,1.304
	c1.068-0.404,2.493-0.229,3.715-0.652c1.049-0.372,2.22-1.559,3.333-2.318c7.969-5.444,16.192-10.558,23.552-15.952
	C161.035,33.948,155.399,36.168,149.745,38.362z M143.627,33.265c-1.47,1.218-3.275,2.5-5.006,3.803
	c-2.722,2.039-5.533,3.73-6.958,6.856c4.814-1.797,9.438-3.791,14.278-5.562c0.255-0.391,0.675-0.624,0.929-1.015
	C145.726,36.044,144.905,34.428,143.627,33.265z M109.593,37.44c0.782-0.569,0.916-2.125,0.369-3.062
	C109.86,35.414,109.58,36.279,109.593,37.44z M78.905,44.395c0.922,0.925,1.953,1.953,3.06,3.059
	c0.928,0.925,2.162,2.633,3.155,3.056c1.03,0.448,2.359,0.515,3.523,0.741c1.145,0.235,2.347,0.385,3.612,0.652
	c-0.343-0.945-1.081-1.721-1.666-2.599c-0.585-0.871-1.05-1.994-1.769-2.69c-0.896-0.865-2.512-1.511-3.803-2.312
	c-1.253-0.795-2.544-1.641-3.797-2.417c-2.449-1.517-6.322-2.859-8.618-3.797C74.478,40.102,76.552,42.042,78.905,44.395z
	 M70.554,38.273c-0.655,1.164-1.456,2.188-2.035,3.432c3.327,2.213,6.748,4.239,10.106,6.303c1.139,0.7,2.232,1.651,3.613,1.95
	C78.65,46.134,74.536,42.016,70.554,38.273z M111.45,41.612c-0.299-0.878-0.293-2.058-0.648-2.878
	C110.146,39.634,111.101,41.177,111.45,41.612z M102.177,41.886c-0.432-0.525-0.731-1.183-1.208-1.667
	C100.803,41.288,101.814,41.66,102.177,41.886z M117.2,41.145c0.019-0.286,0.54-0.566,0.279-0.833
	C117.403,40.553,116.901,40.846,117.2,41.145z M106.438,45.136c0.483-1.151,1.329-3.021,0.744-4.363
	C106.96,42.194,106.4,43.762,106.438,45.136z M99.213,41.797c-0.07-0.34,0.02-0.821-0.375-0.833
	C98.901,41.307,98.908,41.698,99.213,41.797z M129.812,51.811c0.712-0.258,1.736-1.215,2.595-1.854
	c3.867-2.872,7.747-5.568,10.755-8.904c-0.095,0-0.185,0-0.273,0c-4.191,1.727-8.389,3.418-12.707,5.008
	c-1.482,2.112-2.971,4.201-4.357,6.396C127.084,52.065,128.483,52.294,129.812,51.811z M119.146,43.371
	c0-0.709,0.432-1.485,0.273-2.039C118.86,41.482,119.019,42.836,119.146,43.371z M110.521,47.826
	c0.331-0.541,0.77-0.963,1.018-1.574c-0.648-1.577-1.183-3.263-1.946-4.735C108.804,43.418,110.165,45.886,110.521,47.826z
	 M30.593,53.016c10.322-0.063,20.893,0.124,31.063-0.089c-6.786-2.926-13.496-5.785-20.212-8.723
	c-0.973-0.423-1.921-1.015-2.875-1.294c-1.959-0.585-3.842-0.496-5.75-1.113C31.985,45.444,31.317,49.254,30.593,53.016z
	 M91.333,44.484c-0.134-1.294-1.12-2.22-2.048-2.407C90.029,42.817,90.417,43.912,91.333,44.484z M104.219,48.379
	c-0.006-0.709,0.273-1.145,0.273-1.854c-1.075-1.154-2.188-2.267-3.333-3.336C101.401,45.699,102.979,46.869,104.219,48.379z
	 M115.896,49.403c0.642-0.261,1.068-0.738,1.672-1.024c-0.063-1.609,0.128-3.463-0.089-4.917
	C116.239,44.732,116.259,47.248,115.896,49.403z M127.58,45.508c1.297-0.13,2.22-1.119,2.417-2.045
	C129.253,44.204,128.152,44.595,127.58,45.508z M154.197,48.751c0.478,1.59,0.643,3.499,1.298,4.91
	c2.379-0.337,4.516-1.479,6.678-2.318c6.494-2.515,13.064-5.06,19.101-7.692C172.317,45.425,163.165,47,154.197,48.751z
	 M160.596,53.662c8.873,0,17.739,0,26.611,0c-0.61-3.307-1.037-6.812-1.946-9.827C177.018,47.098,168.674,50.243,160.596,53.662z
	 M62.763,51.811c0.191-0.251,0.013-0.43,0.471-0.28c5.59,0.843,11.009,1.844,17.802,1.485c-0.992-0.61-2.194-2.039-3.435-2.506
	c-1.107-0.417-2.665-0.483-3.988-0.741c-9.242-1.787-19.042-3.819-27.902-5.285C51.467,46.856,57.039,49.41,62.763,51.811z
	 M95.499,46.153c-0.853-0.41-1.647-1.38-2.5-1.485C93.285,45.651,94.697,45.998,95.499,46.153z M109.224,48.933
	c-0.388-1.027-0.439-2.401-0.929-3.333c-0.038,0.82-0.254,1.472-0.28,2.318C108.34,48.274,108.843,48.939,109.224,48.933z
	 M120.074,48.472c1.47-0.318,2.455-1.132,3.34-2.039c-0.013-0.111-0.032-0.222-0.191-0.181
	C122.243,47.06,121.067,47.677,120.074,48.472z M125.913,49.677c0.42-0.855,1.381-1.647,1.488-2.502
	C126.409,47.454,126.092,48.888,125.913,49.677z M94.481,48.379c1.578,0.951,3.091,1.981,4.732,2.872
	c-0.013-0.696-0.235-1.183-0.28-1.848c-1.583-0.62-3.256-1.628-4.821-1.949C94.284,47.715,94.398,48.03,94.481,48.379z
	 M123.688,48.659c-0.936,1.603-1.946,3.113-2.875,4.729c0.699-0.013,1.195-0.235,1.857-0.28c0.61-1.584,1.628-3.256,1.946-4.818
	C124.355,48.459,124.037,48.577,123.688,48.659z M114.421,49.213c-0.032-0.251,0.267-0.649,0-0.833
	C114.229,48.602,114.173,49.006,114.421,49.213z M110.896,49.769c0.141,0.318,0.064,0.859,0.369,1.021
	c0.318-0.852,1.037-1.316,1.209-2.318C111.711,48.672,111.501,49.416,110.896,49.769z M94.386,52.084
	c-0.496-1.352-1.164-3.028-2.411-3.333C92.834,49.747,93.597,51.337,94.386,52.084z M102.915,49.305
	c-0.166-0.137-0.223-0.385-0.458-0.461C102.399,49.149,102.769,49.515,102.915,49.305z M105.98,50.79
	c0.178-0.286,0.35-1.068,0.185-1.387C106.152,49.839,105.312,50.555,105.98,50.79z M140.663,52.367
	c-1.266,0.299-2.665,0.468-3.619,1.294c5.597,0,11.188,0,16.784,0c-0.158-0.658-0.299-1.425-0.471-2.13
	c-0.158-0.709-0.19-1.574-0.731-1.946C148.753,50.574,144.581,51.442,140.663,52.367z M107.647,51.07
	c0.057-0.254,0.388-0.235,0.369-0.56c-0.159-0.08-0.146-0.34-0.369-0.366C107.755,50.504,107.367,50.834,107.647,51.07z
	 M100.969,52.457c0.394,0.013,0.451,0.359,0.833,0.372c-0.083-0.932-0.369-1.66-0.553-2.5c-0.089,0-0.178,0-0.28,0
	C100.969,51.038,100.969,51.747,100.969,52.457z M119.051,51.623c0.063,0.528-0.121,1.298,0.096,1.67
	c0.483-0.999,1.412-2.048,1.666-2.964C120.259,50.79,119.681,51.232,119.051,51.623z M112.563,51.442
	c0.286,0.006,0.445-0.118,0.648-0.191c-0.083-0.162-0.031-0.461-0.185-0.553C112.875,50.952,112.678,51.156,112.563,51.442z
	 M97.356,52.927c0.42,0.07,1.272,0.2,1.667,0c-0.91-0.483-1.896-1.38-2.779-1.584C96.605,51.877,97.063,52.32,97.356,52.927z
	 M103.29,52.275c0.076-0.204,0.242-0.318,0.185-0.652c-0.134-0.044-0.229-0.137-0.369-0.181
	C103.099,51.785,103.144,52.078,103.29,52.275z M115.533,52.367c0.407-0.209,1.139-0.588,1.107-0.925
	C116.328,51.805,115.406,51.566,115.533,52.367z M89.845,52.927c-0.954-0.099-2.112-0.49-2.875-0.471
	C87.211,53.271,88.973,53.051,89.845,52.927z M104.772,53.016c0.166-0.051,0.547,0.111,0.56-0.089
	c-0.165-0.086-0.273-0.229-0.464-0.28C104.887,52.822,104.759,52.848,104.772,53.016z M113.587,53.388
	c0.013-0.267,0.007-0.509-0.279-0.461C113.116,53.108,113.371,53.325,113.587,53.388z M130.365,53.293
	c0.293-0.054,0.706,0.025,0.738-0.277C130.906,53.153,130.416,53.003,130.365,53.293z M116.551,53.662c0.185,0,0.369,0,0.561,0
	c-0.025-0.156,0.261-0.461,0-0.553C116.983,53.356,116.551,53.293,116.551,53.662z M4.903,54.775c0,5.444,0,10.882,0,16.327
	c7.944,0,15.895,0,23.832,0c0.267-0.191-0.197-0.909,0-1.018c13.064-2.519,26.382-4.783,39.319-7.429
	c-13.07-2.506-26.058-5.092-39.128-7.601c-0.445,0.105,0.089-0.767-0.464-0.56c-7.823,0-15.646,0-23.457,0
	C4.891,54.514,4.897,54.645,4.903,54.775z M61.656,59.875c0.242-1.796,0.56-3.517,0.738-5.38
	c-9.298,0.066-18.845-0.115-27.998,0.099C43.472,56.365,52.503,58.184,61.656,59.875z M68.798,55.98
	c-1.634-0.684-3.015-1.517-4.917-1.485c-0.121,1.832-0.528,3.368-0.648,5.199c5.374,0.292,10.927,2.598,16.041,0.925
	C75.966,59.224,72.201,57.42,68.798,55.98z M78.905,58.769c1.011,0.423,2.29,1.323,3.155,1.386c0.49,0.039,1.158-0.261,1.755-0.372
	c2.022-0.378,3.74-0.572,5.572-1.014c-0.948-0.671-2.093-1.969-3.435-2.417c-1.571-0.515-3.905-0.585-6.214-0.925
	c-3.358-0.493-6.99-1.244-10.571-0.833C71.998,55.881,75.699,57.414,78.905,58.769z M86.874,54.867
	c-0.197-0.08-0.547-0.496-0.737-0.273C86.365,54.645,86.626,55.141,86.874,54.867z M95.13,56.171
	c-0.191-0.703-0.674-1.123-1.018-1.676c-1.577,0.066-3.403-0.115-4.828,0.099C90.493,55.856,93.05,55.78,95.13,56.171z
	 M99.493,55.519c0-0.248,0-0.496,0-0.744c-0.306,0.06-0.439-0.057-0.655-0.089C98.959,55.061,99.124,55.389,99.493,55.519z
	 M119.33,55.98c0.726-0.324,1.819-0.286,2.411-0.741C120.857,54.979,119.025,55.055,119.33,55.98z M129.997,56.54
	c0.604-0.505,1.36-0.858,1.939-1.393C130.703,54.959,130.321,56.123,129.997,56.54z M134.627,55.147
	c-1.521,1.1-3.32,2.207-4.814,3.25c-0.465,0.318-1.107,0.601-1.298,1.106c2.035,0.025,3.912,1.148,5.935,1.116
	c1.418-0.022,3.167-0.744,4.726-1.116c4.833-1.138,9.547-2.449,13.172-4.356C146.438,55.147,140.535,55.147,134.627,55.147z
	 M155.959,55.334c-0.433,0.302,0.337,1.266,0.089,1.669c-5.463,1.425-11.436,2.35-15.951,4.729c1.807,0.13,3.638,1.021,5.482,1.021
	c1.526-0.007,3.353-0.611,5.095-0.932c11.836-2.156,24.042-4.427,35.509-6.675C176.172,55.271,165.665,54.905,155.959,55.334z
	 M189.064,55.427c0.178,0.137,0.013,0.607,0.178,0.744c-13.191,2.474-26.497,4.837-39.586,7.416
	c12.962,2.547,25.956,5.072,38.943,7.604c0.509-0.14,0.013,0.726,0.554,0.56c7.944,0,15.888,0,23.832,0c0-5.533,0-11.066,0-16.603
	c-7.944,0-15.888,0-23.832,0C189.052,55.166,189.058,55.296,189.064,55.427z M123.503,58.489c0.585,0.149,1.247,0.235,1.857,0.369
	c0.916-0.786,1.939-1.94,2.779-2.779c0.261-0.261,0.808-0.509,0.648-0.839C126.333,55.624,125.131,57.271,123.503,58.489z
	 M98.189,56.54c-0.209-0.41-0.585-1.138-0.922-1.113C97.629,55.748,97.388,56.664,98.189,56.54z M122.766,57.096
	c0.165-0.235,0.534-0.261,0.648-0.557C122.969,56.444,122.587,56.88,122.766,57.096z M119.699,57.465
	c0.21,0.105,0.471,0.156,0.655,0.28c0.108-0.194,0.255-0.363,0.369-0.56C120.297,57.198,119.916,57.246,119.699,57.465z
	 M95.035,57.656c-0.267,0.013-0.719-0.261-0.922,0C94.379,57.806,94.787,57.942,95.035,57.656z M98.743,58.578
	c0,0.13,0.044,0.204,0.095,0.28c0.286,0.042,0.261-0.232,0.375-0.369C98.997,58.458,98.851,58.502,98.743,58.578z M96.523,58.95
	c0.083,0.347,0.483,0.378,0.744,0.553C97.248,58.95,97.076,58.788,96.523,58.95z M96.701,60.899
	c-0.871-0.359-1.386-1.081-2.404-1.297C94.704,60.372,95.601,61.685,96.701,60.899z M121.276,59.974c0,0.089,0,0.181,0,0.273
	c0.445,0,1.05,0.312,1.394,0.096C122.18,60.279,121.779,59.72,121.276,59.974z M91.975,60.527c-1.488,0.703-3.206,1.18-4.636,1.946
	c1.882,1.03,4.255-0.591,6.404-0.741C93.267,61.211,92.707,60.788,91.975,60.527z M84.559,61.269
	c0.897,0.658,2.442-0.292,2.875-0.649C86.556,60.919,85.38,60.919,84.559,61.269z M130.734,61.548
	c-0.737-0.436-2.258-0.585-3.053-0.649C128.451,61.354,129.507,61.536,130.734,61.548z M80.202,62.102
	c1.031,0.111,1.902,0.385,3.06,0.372C82.696,61.691,81.137,61.561,80.202,62.102z M121.557,62.194
	c0.114-0.137,0.382-0.105,0.369-0.372c-0.362,0.111-0.693-0.28-0.929,0C121.251,61.882,121.232,62.213,121.557,62.194z
	 M123.223,63.307c0.948-0.35,2.182-0.417,3.066-0.833C124.966,62.044,123.325,62.2,123.223,63.307z M91.702,63.771
	c1.272,0.403,2.449,0.232,2.964-0.744C93.648,63.25,92.58,63.418,91.702,63.771z M126.747,63.959
	c-0.954,0.229-1.934,0.359-2.589,0.744c0.643,0.245,0.998,0.785,1.666,1.018c1.584-0.648,3.257-1.195,4.726-1.949
	C129.424,63.008,128.184,63.622,126.747,63.959z M71.762,63.587c-12.905,2.598-27.152,4.805-40.057,7.515c7.543,0,15.563,0,23.088,0
	c2.639,0,5.349,0.279,7.416-0.375c0.083-0.63-0.414-1.101-0.185-1.578c5.521-1.24,11.257-2.276,15.671-4.636
	C75.852,64.519,73.441,63.25,71.762,63.587z M137.692,64.141c-1.036-0.108-1.901-0.382-3.065-0.369
	C135.193,64.551,136.751,64.69,137.692,64.141z M95.689,64.331c0.312,0.058,0.935,0.293,1.202,0.092
	c-0.273-0.133-0.375-0.433-0.648-0.556C96.147,64.108,95.811,64.115,95.689,64.331z M87.154,64.792
	c0.604,0.293,2.436,0.652,3.339,0.652C89.616,65.047,88.369,64.544,87.154,64.792z M130.461,65.625
	c0.871-0.299,2.048-0.292,2.875-0.648C132.439,64.324,130.894,65.275,130.461,65.625z M138.621,65.625
	c3.454,1.47,7.003,3.174,10.481,4.637c1.654,0.7,2.945,1.508,4.91,1.488c0.121-1.832,0.528-3.371,0.649-5.202
	C149.281,66.255,143.729,63.952,138.621,65.625z M121.366,65.346c0.775,0.4,1.438,0.922,2.232,1.304
	C123.185,65.949,122.371,64.585,121.366,65.346z M83.173,65.721c-1.476,0.089-3.123,0.744-4.637,1.106
	c-4.726,1.151-9.375,2.328-12.981,4.274c4.249,0,8.752,0,12.981,0c1.374,0,3.148,0.279,4.356,0C83.319,71,84,70.453,84.559,70.084
	c1.215-0.827,2.093-1.526,3.148-2.227c0.502-0.337,1.196-0.547,1.399-1.119C87.078,66.693,85.157,65.6,83.173,65.721z M96.612,66.09
	c-0.286-0.185-1.068-0.356-1.387-0.185C95.664,65.911,96.376,66.764,96.612,66.09z M142.233,68.869
	c-2.169-0.948-4.388-2.252-6.493-2.779c-0.025-0.007-0.063,0-0.089,0c-1.069-0.02-2.417,0.515-3.613,0.737
	c-1.246,0.242-2.474,0.293-3.625,0.751c1.177,0.534,2.169,1.863,3.523,2.314c1.686,0.554,4.014,0.599,6.214,0.929
	c3.492,0.509,6.717,1.228,10.577,0.84C146.75,70.72,144.518,69.874,142.233,68.869z M155.495,71.75
	c9.209-0.063,18.667,0.121,27.724-0.089c-8.942-1.787-17.98-3.473-26.891-5.292C155.896,68.004,155.736,69.918,155.495,71.75z
	 M120.812,67.387c0.203-0.133,0.693,0.013,0.744-0.279c-0.4-0.121-0.648-0.395-1.024-0.56
	C120.539,66.923,120.742,67.095,120.812,67.387z M98.558,67.107c0.133,0,0.204,0.051,0.28,0.096
	c-0.051-0.134,0.114-0.484-0.095-0.465C98.743,66.923,98.495,66.853,98.558,67.107z M92.439,67.482
	c-1.196,1.177-2.474,2.283-3.523,3.619c2.544-0.4,3.797-2.086,5.47-3.339C93.661,67.743,93.177,67.489,92.439,67.482z
	 M122.854,68.596c0.35,0.076,0.788,0.076,1.112,0.185C123.929,68.328,123.108,68.315,122.854,68.596z M97.165,69.148
	c0.318-0.146,0.865-0.063,1.024-0.368c-0.209-0.096-0.464-0.159-0.642-0.28C97.438,68.735,97.203,68.844,97.165,69.148z
	 M85.672,71.102c1.762,0.185,2.258-1.393,2.868-2.042C87.638,69.791,86.556,70.338,85.672,71.102z M94.386,69.804
	c0.401,0,0.948-0.343,0.744-0.655C94.914,69.396,94.52,69.474,94.386,69.804z M120.635,70.821c-0.204-0.33-0.338-0.725-0.471-1.112
	c-0.153,0-0.306,0-0.465,0C119.909,70.122,120.291,70.847,120.635,70.821z M123.599,71.75c1.698-0.063,3.645,0.121,5.189-0.089
	c-1.316-1.374-4.255-1.132-6.398-1.679C122.708,70.656,123.07,71.292,123.599,71.75z M96.147,71.102c0.744,0,1.488,0,2.232,0
	c0.032-0.28,0.553-0.547,0.273-0.84C97.947,70.669,96.656,70.497,96.147,71.102z M118.402,71.471c0.178,0.019,0.616,0.241,0.744,0
	c-0.331-0.166-0.318-0.675-0.744-0.744C118.402,70.975,118.402,71.223,118.402,71.471z M32.45,82.41
	c8.402-3.155,16.689-6.424,24.843-9.827c-8.834,0-17.675,0-26.516,0C31.038,75.782,31.973,79.115,32.45,82.41z M55.906,74.81
	c-6.5,2.525-13.159,5.133-19.284,7.791c8.993-1.825,18.33-3.308,27.26-5.202c-0.471-1.533-0.738-3.27-1.208-4.815
	C60.199,72.806,58.075,73.964,55.906,74.81z M65.18,76.66c4.427-1.132,9.521-1.972,13.91-3.243c0.636-0.185,1.469-0.382,1.297-0.834
	c-5.374,0-10.755,0-16.136,0C64.499,74.002,64.894,75.28,65.18,76.66z M100.415,73.417c0.268-0.318,0.789-0.382,0.929-0.834
	c-0.273,0-0.553,0-0.839,0C100.46,72.793,100.218,73.276,100.415,73.417z M95.225,73.137c-0.617,1.577-1.628,3.257-1.946,4.821
	c0.324-0.197,0.712-0.331,1.106-0.458c0.999-1.488,1.851-3.104,2.881-4.548c-0.019-0.108-0.032-0.223-0.191-0.185
	C96.542,72.972,95.855,73.035,95.225,73.137z M121.468,74.81c-0.388-0.853-1.043-1.927-2.417-1.482
	C119.853,73.823,120.647,74.326,121.468,74.81z M130.926,73.785c-0.28-0.864-2.232-0.56-3.155-0.458
	C128.858,73.385,129.939,73.932,130.926,73.785z M140.472,75.827c1.151,0.407,2.659,0.489,3.994,0.744
	c9.306,1.8,19.17,3.778,27.998,5.381c-5.763-2.531-11.537-5.037-17.338-7.518c-0.19,0.254-0.013,0.426-0.464,0.279
	c-5.598-0.839-11.01-1.845-17.809-1.481C137.902,73.875,139.155,75.356,140.472,75.827z M176.637,82.13
	c0.947,0.42,1.952,1.024,2.874,1.304c1.832,0.547,3.606,0.465,5.375,1.012c0.636-3.816,1.45-7.454,2.137-11.213
	c-10.228,0.057-20.709-0.121-30.783,0.095C162.942,76.228,169.958,79.173,176.637,82.13z M97.445,75.643
	c0.725-0.337,1.628-1.45,1.208-2.315C98.374,74.154,97.49,74.88,97.445,75.643z M116.92,75.916c0-0.731,0-1.481,0-2.22
	c-0.279,0.025-0.496-0.489-0.744-0.19C116.545,74.199,116.456,75.338,116.92,75.916z M114.318,74.529
	c0.235,0.051,0.496,0.554,0.744,0.28c-0.223-0.273-0.146-0.84-0.362-1.113C114.535,73.938,114.478,74.281,114.318,74.529z
	 M88.083,74.435c-0.693,0.254-1.73,1.215-2.595,1.856c-2.557,1.896-5.489,3.905-7.696,5.75c-0.82,0.687-1.609,1.705-2.322,2.404
	c-0.204,0.203-0.667,0.382-0.553,0.744c4.261-1.666,8.44-3.428,12.791-5.006c1.1-1.507,2.309-3.319,3.345-4.82
	c0.344-0.496,0.91-1.031,0.833-1.578C90.716,74.225,89.323,73.989,88.083,74.435z M101.249,74.81
	c0.324-0.204,0.725-0.331,1.113-0.464C102.457,73.327,101.153,74.663,101.249,74.81z M126.842,76.66
	c0.528,0.802,0.929,1.87,1.571,2.506c0.4,0.382,1.284,0.795,1.952,1.209c4.401,2.684,10.209,6.424,14.935,7.784
	c-2.761-2.785-6.233-6.328-9.28-9.362c-0.909-0.915-2.258-2.557-3.243-2.97c-2.22-0.935-4.796-0.668-7.416-1.481
	C125.646,75.21,126.308,75.865,126.842,76.66z M104.683,74.994c0.133,0.203-0.013,0.687,0.273,0.737
	c0.184-0.343,0.401-0.648,0.56-1.018C105.154,74.714,104.976,74.918,104.683,74.994z M118.962,76.852
	c1.577,0.61,3.256,1.628,4.821,1.945c-0.197-0.33-0.331-0.725-0.465-1.119c-1.597-0.813-3.104-2.213-4.732-2.684
	C118.796,75.528,118.854,76.209,118.962,76.852z M109.688,75.731c0.083,0.293,0.229,0.521,0.464,0.655
	c0.058-0.324,0.293-0.935,0.09-1.202C110.102,75.401,109.911,75.592,109.688,75.731z M125.265,77.131
	c-0.407-0.687-0.814-1.349-1.298-1.946C124.171,76.05,124.73,76.571,125.265,77.131z M105.427,77.773
	c0.757-0.286,1.125-0.974,1.667-1.482c-0.102-0.279,0-0.737-0.28-0.839C106.375,76.253,105.859,76.972,105.427,77.773z
	 M111.73,76.852c0.057-0.49,0.623-0.897,0.368-1.399c-0.089,0-0.185,0-0.279,0C111.825,75.897,111.508,76.495,111.73,76.852z
	 M77.696,76.387c-1.049,0.4-2.213,1.546-3.339,2.321C66.891,83.79,59.411,88.7,52.103,93.63c-0.509,0.343-1.151,0.648-1.482,1.208
	c5.775-2.385,11.665-4.668,17.522-6.958c0.458-0.076-0.267-0.471,0.19-0.554c4.465-3.415,9.643-6.805,13.261-11.035
	c0.051-0.063,0.719-0.534,0.185-0.648C80.743,76.075,78.803,75.974,77.696,76.387z M147.424,88.07
	c0.725-1.17,1.494-2.289,2.137-3.529c-3.104-1.991-6.379-4.09-9.553-6.023c-1.387-0.853-2.658-1.851-4.268-2.131
	c-0.051,0-0.108,0.013-0.089,0.089C139.651,80.267,143.354,84.35,147.424,88.07z M90.493,79.077c0.986-0.28,1.311-1.717,1.482-2.506
	C91.568,77.424,90.595,78.212,90.493,79.077z M101.993,76.756c-0.019-0.076-0.077-0.108-0.191-0.096
	c-0.356,0.547-1.228,0.445-1.476,1.202c-0.445,1.342,0.254,3.695,0.089,5.101C101.738,81.697,101.585,78.943,101.993,76.756z
	 M115.718,77.773c-0.038-0.217-0.152-0.35-0.095-0.643c-0.306,0.076-0.465-0.458-0.649-0.19
	C115.234,77.207,115.361,77.602,115.718,77.773z M103.379,78.237c0.287-0.21,0.414-0.922,0.096-1.208
	C103.475,77.411,103.214,77.996,103.379,78.237z M31.706,85.005c-0.502,0.159-0.089-0.585-0.553-0.464
	c-7.302,3.027-14.769,5.883-22.166,8.809c2.067,5.164,3.988,10.481,6.214,15.493c7.2-2.913,14.292-5.711,21.326-8.535
	c2.397-0.967,4.98-1.628,7.231-2.779c1.247-0.643,2.455-1.673,3.708-2.513c8.796-5.863,17.745-12.014,26.338-17.796
	c-0.006-0.063-0.013-0.114-0.096-0.089C59.78,79.828,45.635,82.309,31.706,85.005z M109.593,80.184
	c0.477-1.157,0.095-2.099-0.643-2.684C109.129,78.429,109.313,79.351,109.593,80.184z M113.116,79.439
	c0.885,0.923,1.984,2.08,2.882,2.971c0.273,0.273,0.623,0.725,0.922,0.648c-0.395-2.602-2.245-3.752-3.435-5.559
	C113.391,78.161,113.219,78.771,113.116,79.439z M179.047,102.254c0.451,0.254-0.344,0.534,0.096,0.744
	c7.378,3.027,14.488,6.341,21.885,9.369c2.227-5.038,4.428-10.101,6.577-15.214c-6.92-3.009-14.279-6.208-21.319-9.185
	c-2.398-1.005-4.682-2.417-7.054-3.148c-2.812-0.871-5.935-1.074-8.898-1.666c-8.93-1.794-17.604-3.53-26.611-5.196
	c-0.006-0.051-0.013-0.108-0.095-0.096C155.278,86.149,167.185,94.177,179.047,102.254z M95.035,79.535
	c0.407-0.534,1.997-1.106,1.857-1.482C96.198,78.416,95.143,78.899,95.035,79.535z M106.35,79.999
	c0.642,1.584,1.189,3.257,1.946,4.726c0.197-0.419,0.382-0.852,0.56-1.291c-0.579-1.621-0.731-3.656-1.393-5.196
	C107.151,78.887,106.616,79.307,106.35,79.999z M95.225,81.112c-0.757,0.503-1.743,0.967-2.315,1.577
	c-0.897,0.941-1.609,2.672-2.417,3.988c-2.315,3.784-5.368,8.466-6.583,12.797c2.773-2.735,6.227-6.145,9.267-9.185
	c0.833-0.826,2.621-2.271,2.97-3.148c0.433-1.068,0.515-2.442,0.744-3.618c0.235-1.215,0.407-2.462,0.655-3.804
	C96.732,80.019,95.995,80.604,95.225,81.112z M120.259,83.987c0.255,0.699,1.209,1.724,1.852,2.595
	c1.901,2.563,3.898,5.482,5.749,7.696c0.681,0.813,1.718,1.622,2.411,2.315c0.21,0.209,0.388,0.687,0.744,0.56
	c-1.667-4.262-3.429-8.446-5.006-12.797c-2.105-1.476-4.204-2.971-6.398-4.357C119.992,81.214,119.788,82.677,120.259,83.987z
	 M124.89,81.577c-0.286-0.974-1.698-1.33-2.5-1.482C123.242,80.508,124.037,81.469,124.89,81.577z M87.898,82.779
	c0.744-0.738,1.838-1.126,2.41-2.036C89.011,80.871,88.089,81.856,87.898,82.779z M98.1,85.285c1.107-0.344,0.738-2.652,0.643-3.899
	C98.596,82.696,98.087,84.127,98.1,85.285z M128.604,84.178c-0.744-0.744-1.125-1.844-2.035-2.416
	C126.689,83.059,127.682,83.98,128.604,84.178z M71.858,87.969c-0.229,0.369-0.611,0.572-0.833,0.935
	c1.043,1.336,2.048,2.703,3.053,4.077c1.615-1.132,3.32-2.34,5.012-3.612c2.741-2.067,5.782-3.925,7.047-7.047
	C81.385,84.217,76.603,86.073,71.858,87.969z M110.617,84.445c0.108-0.655,0.407-1.615,0.369-2.124
	C110.688,82.792,110.509,83.886,110.617,84.445z M102.177,86.124c-0.553,1.673-0.604,4.007-0.928,6.208
	c-0.515,3.485-1.228,6.717-0.833,10.57c1.336-3.002,2.812-6.455,4.179-9.642c0.433-1.03,1.311-2.328,1.387-3.244
	c0.057-0.775-0.401-2.289-0.649-3.625c-0.273-1.45-0.547-3.078-0.839-3.791C103.964,83.765,102.622,84.764,102.177,86.124z
	 M111.45,88.159c0.045,1.463,0.738,3.244,1.113,4.821c1.164,4.91,2.379,9.858,4.356,13.541c0-5.781,0-11.562,0-17.344
	c-1.532-2.087-2.792-4.439-4.445-6.398C112.379,84.585,111.393,86.328,111.45,88.159z M116.92,86.392
	c0.166-1.794-1.443-2.321-2.131-2.958C115.559,84.362,116.062,85.552,116.92,86.392z M134.817,88.624
	c0.503,0.515,1.394,0.884,2.131,1.393c10.653,7.34,21.688,14.953,32.088,22.07c0.095,0.038,0.223,0.108,0.089,0
	c-5.19-5.502-10.666-10.762-15.945-16.047c-1.781-1.774-3.409-3.816-5.565-5.19c-0.572,0.166-0.502,0.979-1.023,1.202
	c-4.72-2.849-9.127-6.004-14.743-7.976C132.948,85.443,133.564,87.333,134.817,88.624z M107.094,87.511
	c0.648-0.891-0.293-2.442-0.655-2.875C106.737,85.514,106.737,86.69,107.094,87.511z M151.138,85.005
	c-0.992,1.336-1.812,2.83-2.69,4.274c1.781,1.373,4.033,2.124,6.125,3.053c2.105,0.935,4.249,1.87,6.393,2.786
	c4.312,1.844,8.637,3.784,12.893,5.367C166.225,95.397,158.796,90.08,151.138,85.005z M132.776,97.617
	c0.483,1.253,0.808,2.685,1.952,3.429c1.336-1.044,2.703-2.055,4.077-3.054c-1.157-1.641-2.347-3.319-3.619-5.012
	c-2.061-2.741-3.873-5.66-7.047-7.136C129.596,89.75,131.319,93.839,132.776,97.617z M83.351,89.088
	c-0.49,0.496-0.967,1.399-1.482,2.138c-7.416,10.621-14.857,21.847-21.885,32.17c6.341-6.201,12.638-12.632,18.833-18.826
	c0.872-0.878,2.073-1.654,2.404-2.964c-0.242-0.465-0.903-0.521-1.202-0.929c2.97-4.541,5.928-9.096,7.969-14.553
	C86.639,87.167,84.534,87.905,83.351,89.088z M107.927,91.867c0-0.973,0.648-2.245,0.191-3.059
	C107.628,89.622,107.348,90.92,107.927,91.867z M56.282,94.189c-5.731,2.296-12.129,4.083-16.327,7.695
	c2.175,3.11,4.268,6.303,6.404,9.451c7.403-7.174,14.699-14.463,21.879-21.879c0.051,0,0.108-0.07,0-0.089
	C64.436,90.889,60.352,92.548,56.282,94.189z M69.912,89.915c-5.985,6.029-12.313,12.402-18.273,18.368
	c-0.375,0.375-1.062,0.751-0.922,1.106c7.429-5.088,14.915-10.119,22.439-15.111C72.15,92.752,71.062,91.302,69.912,89.915z
	 M93.368,94.374c0.839-1.381,1.921-2.545,2.22-4.173c-0.019-0.07,0-0.185-0.089-0.185c-3.81,3.854-7.83,7.505-11.404,11.589
	c1.278,0.578,2.239,1.463,3.524,2.035C89.628,100.677,91.479,97.458,93.368,94.374z M122.205,94.469
	c0.376,1.024,1.591,2.245,2.315,3.333c5.432,8.147,10.762,16.085,16.143,23.927c-2.232-6.029-4.688-11.816-6.958-17.809
	c-0.076-0.445-0.478,0.268-0.554-0.178c-3.625-4.853-7.028-9.916-11.684-13.726C121.9,91.34,121.684,93.019,122.205,94.469z
	 M96.147,94.838c-0.433,1.132-0.566,2.646-0.833,3.981c-1.883,9.388-3.721,19.386-5.375,28.29c2.563-5.94,5.165-11.843,7.696-17.809
	c-0.254-0.19-0.433-0.013-0.28-0.458c0.795-5.577,1.965-11.264,1.387-17.897C98.106,92.332,96.688,93.426,96.147,94.838z
	 M46.633,113.938c-0.375,0.229-0.178-0.197-0.553-0.185c-5.552,5.629-11.156,11.227-16.785,16.778
	c3.81,4.045,7.734,7.976,11.779,11.779c5.642-5.635,11.378-11.182,16.874-16.969c-0.292-0.204-0.7-0.293-0.833-0.649
	c7.613-10.965,15.456-22.19,22.712-33.2C68.792,98.997,57.604,106.362,46.633,113.938z M118.402,107.908
	c1.456-0.242,2.754-0.655,4.179-0.922c-0.439-2.315-1.095-4.682-1.673-7.143c-0.643-2.69-1.094-6.532-2.506-8.25
	C118.402,97.032,118.402,102.47,118.402,107.908z M159.572,125.342c0.337,0.305-0.389,0.292-0.09,0.553
	c5.756,5.56,11.227,11.398,17.064,16.887c3.791-4,7.874-7.709,11.582-11.785c-5.629-5.648-11.175-11.379-16.963-16.874
	c-0.209,0.293-0.292,0.699-0.648,0.833c-10.984-7.689-22.082-15.252-33.2-22.808c-0.051,0.007-0.102,0.013-0.089,0.089
	C144.733,103.208,152.117,114.312,159.572,125.342z M101.802,103.462c-0.7,1.642-1.596,2.812-1.476,4.726
	c1.825,0.121,3.365,0.528,5.19,0.655c0.292-5.381,2.602-10.939,0.922-16.04C104.963,96.046,103.322,99.926,101.802,103.462z
	 M171.077,111.712c1.832-2.767,3.829-5.375,5.56-8.25c-8.122-3.536-16.257-7.047-24.386-10.57
	C158.408,99.277,164.679,105.549,171.077,111.712z M109.224,99.475c0.025,1.507,0.598,3.377,0.928,5.095
	c2.258,11.868,4.49,24.321,6.768,35.795c0-7.537,0-15.43,0-22.903c0-2.506,0.223-5.082-0.279-7.416
	c-0.445-0.299-1.164,0.344-1.578,0.09c-1.215-5.737-2.455-11.449-4.82-16.041C110.197,95.868,109.199,97.643,109.224,99.475z
	 M69.81,133.222c-0.241,0.452-0.534-0.343-0.737,0.096c-3.028,7.384-6.341,14.488-9.362,21.879
	c5.037,2.239,10.087,4.439,15.207,6.59c3.517-7.925,7.054-16.499,10.571-24.475c0.509-1.157,1.234-2.315,1.577-3.435
	c0.414-1.374,0.535-2.97,0.833-4.458c2.099-10.419,4.159-21.275,6.023-31.427C85.914,109.759,77.773,121.398,69.81,133.222z
	 M130.83,140.364c0.159,0.496-0.592,0.089-0.465,0.56c3.027,7.302,5.877,14.763,8.81,22.159c5.164-2.073,10.481-3.994,15.487-6.207
	c-3.199-7.964-6.494-16.162-9.554-24.118c-0.534-1.387-0.96-2.805-1.577-4.084c-0.566-1.163-1.564-2.2-2.321-3.332
	c-6.081-9.089-12.047-18.051-18.076-26.892c-0.006-0.057-0.013-0.107-0.089-0.089C125.551,112.443,128.184,126.41,130.83,140.364z
	 M139.919,98.915c-1.311,1.164-2.882,2.066-4.179,3.25c6.004,5.864,12.186,12.187,18.088,18.075
	c0.395,0.401,0.872,0.986,1.202,0.929C149.936,113.816,145.07,106.217,139.919,98.915z M82.982,102.623
	c-0.006-0.051-0.013-0.108-0.089-0.089c-1.03,0.954-1.476,2.378-2.13,3.892c-1.374,3.148-2.69,6.259-3.994,9.273
	c-1.864,4.312-3.791,8.421-5.19,12.333c5.126-7.702,10.513-15.144,15.576-22.903C85.723,104.334,84.438,103.398,82.982,102.623z
	 M100.791,142.87c0,0.528-0.521,0.114-0.464,0.554c0,7.912,0,15.824,0,23.742c5.527,0,11.066,0,16.594,0c0-7.95,0-15.888,0-23.838
	c-0.185-0.317-1.03,0.337-1.023-0.089c-2.57-13.153-4.821-26.643-7.505-39.688C105.904,116.704,103.246,129.68,100.791,142.87z
	 M140.008,115.795c2.238,5.578,4.064,11.881,7.416,16.136c3.313-1.984,6.31-4.268,9.56-6.31c-3.384-3.854-7.149-7.326-10.762-10.939
	c-3.632-3.638-7.155-7.371-10.939-10.851c0-0.051-0.083-0.102-0.096,0C136.726,107.647,138.373,111.718,140.008,115.795z
	 M60.358,125.253c2.773,1.831,5.368,3.835,8.249,5.559c3.46-8.104,7.232-16.384,10.482-24.386
	C72.825,112.672,66.471,118.842,60.358,125.253z M119.33,113.009c2.965,7.55,6.068,15.284,9.083,22.445
	c-1.769-8.955-3.339-18.107-5.095-27.082c-1.736,0.268-3.301,0.726-4.916,1.113C118.364,110.738,118.898,111.896,119.33,113.009z
	 M100.415,136.841c1.686-8.821,3.492-17.528,5.101-26.427c-1.654-0.293-3.365-0.527-5.101-0.744
	C100.263,118.511,100.263,128,100.415,136.841z M90.958,128.306c-1.438,3.396-3.015,6.589-3.428,10.856
	c3.74,0.77,7.543,1.47,11.309,2.22c-0.063-10.291,0.127-20.836-0.095-30.968C96.269,116.526,93.47,122.378,90.958,128.306z
	 M118.402,141.382c3.364-0.496,6.506-1.221,9.833-1.755c-3.155-8.408-6.424-16.702-9.833-24.856
	C118.402,123.644,118.402,132.516,118.402,141.382z"/>
<rect y="41.612" fill="#FFFFFF" width="218" height="41.524"/>
<text transform="matrix(1 0 0 1 11.8501 70.9473)" fill="#429544" font-family="'HelveticaLT-Condensed-Bold'" font-size="25.0843">VIEW ALL RECIPES</text>
</svg>
