<?xml version="1.0" encoding="UTF-8" standalone="no"?>
<!-- Generator: Adobe Illustrator 16.0.0, SVG Export Plug-In . SVG Version: 6.00 Build 0)  -->
<!DOCTYPE svg  PUBLIC '-//W3C//DTD SVG 1.1//EN'  'http://www.w3.org/Graphics/SVG/1.1/DTD/svg11.dtd'>
<svg id="Layer_1" xmlns="http://www.w3.org/2000/svg" xml:space="preserve" height="218px" viewBox="0 0 218 218" width="218px" version="1.1" y="0px" x="0px" xmlns:xlink="http://www.w3.org/1999/xlink" enable-background="new 0 0 218 218">
<path d="m61.376 14.858c6.106-2.309 12.116-4.704 18.082-7.14 3.263 7.925 6.348 16.028 9.553 24.013 3.524-0.553 6.831-1.323 10.38-1.857 0.216-8.402 0.038-17.214 0.102-25.778h19.558v25.778c4.135 0.907 8.428 1.654 12.612 2.509 0.438 0.013-0.032 0.362 0.096 0.652 3.574-7.928 6.951-16.05 10.476-24.022 5.992 2.541 11.861 5.2 17.897 7.699-3.302 7.979-6.78 15.789-10.196 23.641 2.697 2.223 5.847 3.982 8.619 6.122 5.762-5.451 11.391-11.293 17.159-17.062 0.345-0.347 1.075-1.106 1.106-1.116 0.234-0.006 1.336 1.329 1.763 1.768 4.032 4.029 8.235 8.023 12.06 12.145-6.088 6.064-12.25 12.049-18.179 18.27 1.681 2.78 3.716 5.569 5.565 8.342 0.598 0.906 1.316 1.791 1.576 2.69 8.047-3.146 15.959-6.421 24.111-9.458 2.297 6.103 4.694 12.116 7.137 18.083-7.932 3.263-16.027 6.347-24.017 9.553 0.554 3.523 1.329 6.831 1.856 10.383 8.402 0.213 17.211 0.032 25.771 0.089v19.57h-25.867c-0.984 4.18-1.679 8.645-2.595 12.893 7.74 3.536 15.741 6.818 23.546 10.291-2.531 5.991-5.195 11.855-7.689 17.896-7.981-3.307-15.793-6.778-23.646-10.201-2.214 2.697-3.98 5.853-6.125 8.625 5.45 5.75 11.303 11.385 17.064 17.146 0.344 0.35 1.113 1.081 1.113 1.113 0.012 0.234-1.33 1.335-1.763 1.762-4.026 4.032-8.021 8.236-12.147 12.059-6.062-6.08-12.041-12.25-18.26-18.178-3.684 2.449-7.386 4.859-10.947 7.416 3.143 7.926 6.354 15.773 9.369 23.832-6.113 2.31-12.123 4.7-18.088 7.144-3.258-7.931-6.349-16.027-9.548-24.017-3.536 0.604-7.028 1.26-10.481 1.945v25.689h-19.563v-25.689c-4.198-0.992-8.65-1.723-12.975-2.595-3.492 7.702-6.768 15.614-10.208 23.368-5.991-2.532-11.862-5.203-17.891-7.696 3.294-7.981 6.773-15.793 10.202-23.647-2.697-2.213-5.858-3.98-8.625-6.117-5.756 5.449-11.391 11.295-17.153 17.058-0.35 0.351-1.075 1.119-1.113 1.119-0.248 0.014-1.31-1.31-1.768-1.769-4.013-4.007-8.084-8.025-12.046-11.957 5.871-6.238 12.116-12.109 18.076-18.267-2.506-3.677-4.91-7.461-7.505-11.035-7.817 3.099-15.633 6.188-23.463 9.267-2.64-5.832-4.777-12.16-7.327-18.076 7.925-3.256 16.028-6.354 24.016-9.553-0.553-3.522-1.323-6.836-1.851-10.386-8.408-0.21-17.224-0.032-25.784-0.09v-19.567h25.593c0.776-3.66 1.603-7.744 2.322-11.5 0.083-0.436-0.058-1.237 0.553-1.39-7.747-3.536-15.742-6.824-23.552-10.297 2.538-5.992 5.196-11.859 7.696-17.888 7.982 3.294 15.786 6.773 23.641 10.199 2.213-2.703 3.981-5.849 6.125-8.625-5.451-5.756-11.296-11.391-17.064-17.153-0.343-0.347-1.106-1.075-1.106-1.113-0.013-0.248 1.31-1.31 1.755-1.765 4.02-4.013 8.026-8.084 11.97-12.056 6.233 5.88 12.104 12.125 18.26 18.085 2.812-1.714 5.508-3.724 8.256-5.562 0.884-0.591 1.787-1.243 2.779-1.583-0.07 0.254 0.185 0.191 0.185 0.372-2.876-8-6.463-16.135-9.459-24.359m39.594-8.996v23.552c0.19 0.273 0.909-0.197 1.024 0 2.474 12.946 4.745 26.096 7.327 38.947 2.595-12.857 5.043-25.864 7.601-38.759 0.076-0.324 0.668 0.318 0.647-0.188v-23.832h-16.498c-0.11 0.019-0.11 0.149-0.1 0.28zm-37.737 10.017c3.015 7.432 5.89 14.766 8.809 22.067 0.967 2.417 1.717 5.222 2.875 7.416 0.649 1.231 1.679 2.484 2.5 3.714 5.623 8.427 11.258 17.011 16.969 25.218 0.134 0.194 0.324 0.604 0.649 0.56-2.735-14.075-5.241-28.392-7.97-42.471-0.165-0.502 0.585-0.092 0.464-0.563-3.084-7.273-5.813-14.892-8.904-22.156-5.082 2.119-10.431 3.98-15.392 6.215zm73.337 9.83c-1.501 3.444-3.187 7.384-4.726 10.847-0.541 1.218-1.254 2.509-1.578 3.616-0.389 1.355-0.56 2.938-0.832 4.357-1.992 10.434-3.912 20.264-5.936 30.694 8.186-11.534 16.46-23.784 24.576-35.703 0.254-0.448 0.533 0.347 0.744-0.089 3.027-7.388 6.341-14.492 9.361-21.886-4.992-2.239-10.088-4.376-15.117-6.583-2.15 4.599-4.22 9.614-6.48 14.747zm-78.622 21.603c-0.019-0.328 0.433-0.185 0.369-0.554-5.68-5.543-11.194-11.248-16.874-16.785-3.924 3.902-7.919 7.718-11.684 11.776 5.635 5.645 11.181 11.385 16.963 16.874 0.21-0.286 0.292-0.696 0.655-0.833 10.819 7.6 21.822 15.02 32.73 22.534-7.282-11.111-14.769-22.012-22.159-33.012zm118.87-16.877c-5.647 5.635-11.379 11.185-16.873 16.966 0.292 0.21 0.699 0.296 0.832 0.652-7.512 10.844-15.295 21.917-22.438 32.825 10.914-7.413 21.93-14.73 32.824-22.162 0.223 0.089 0.152 0.467 0.465 0.467 5.616-5.699 11.271-11.353 16.969-16.972-3.8-4.039-7.72-7.967-11.77-11.776zm-87.16 2.69c3.155 8.402 6.424 16.692 9.833 24.846v-25.126c0-0.41 0.242-1.199-0.28-1.485-3.186 0.595-6.341 1.211-9.553 1.765zm29.49 29.209c2.523-5.737 4.808-11.375 7.319-17.061 1.584-3.559 3.205-7.079 3.625-11.684-3.632-0.731-7.282-1.44-10.944-2.13-0.17 10.074-0.17 20.794-0.01 30.875zm-18.18-6.955c0 2.509-0.216 5.075 0.28 7.419 0.414 0.194 1.253-0.404 1.667-0.191 1.469 5.219 2.156 11.204 4.547 15.491 0.114-1.838 1.037-3.695 1.024-5.565-0.013-1.542-0.617-3.32-0.935-5.005-2.188-11.738-4.299-23.857-6.583-35.144-0.01 7.565-0.01 15.487-0.01 22.995zm11.04 6.955c1.902 0.197 3.633 0.569 5.559 0.738-0.062-9.515 0.129-19.284-0.088-28.649-1.84 9.292-3.61 18.651-5.47 27.911zm-17.433 2.131c1.609-0.461 3.511-0.626 4.917-1.294-0.273-2.417-1.482-4.535-2.328-6.678-2.557-6.506-4.98-13.149-7.689-19.198 1.767 8.986 3.37 18.142 5.1 27.17zm-11.869 4.449c-0.057 0-0.115-0.013-0.096-0.092-2.149-5.568-4.522-11.423-6.678-16.966-0.75-1.927-1.348-4.003-2.226-5.75-0.954-1.902-2.646-3.412-3.523-5.289-3.269 1.988-6.335 4.182-9.458 6.31 7.066 7.021 14.826 15.137 21.981 21.787zm66.572-26.983c-3.53 8.128-7.049 16.263-10.571 24.392 6.394-6.163 12.663-12.435 18.826-18.823-2.78-1.846-5.38-3.836-8.26-5.569zm-18.55 25.596c1.521 0.795 2.83 1.803 4.363 2.598 1.379-1.784 2.131-4.032 3.053-6.122 0.947-2.118 1.869-4.262 2.791-6.405 1.84-4.309 3.779-8.634 5.369-12.886-5.12 7.665-10.42 15.154-15.57 22.815zm-10.47-4.083c0.248 0.188 0.427 0.013 0.273 0.468-0.833 5.587-1.839 11.006-1.481 17.799 0.566-0.89 1.896-2.025 2.315-3.151 0.426-1.113 0.495-2.671 0.743-3.985 1.742-9.203 3.842-18.928 5.291-27.727-2.32 5.58-4.79 11.025-7.13 16.596zm21.6 1.946c-1.781 1.784-3.816 3.406-5.19 5.568 0.185 0.614 1.037 0.566 1.298 1.113-2.709 4.671-5.984 8.787-7.881 14.275 0.764-0.474 1.616-0.951 2.404-1.485 0.738-0.493 1.743-0.989 2.32-1.574 0.466-0.464 0.904-1.422 1.388-2.131 7.251-10.571 14.89-21.539 21.7-31.808-5.42 5.297-10.74 10.747-16.04 16.042zm-64.259 8.532c1.641-0.982 3.104-2.156 4.547-3.336-6.792-6.656-13.426-13.468-20.219-20.124 5.12 7.926 10.527 15.567 15.672 23.46zm6.583-5.1c0.083 0.455 0.483-0.267 0.56 0.191 2.245 2.624 4.077 5.937 6.398 8.621 1.183 1.374 2.754 2.659 3.988 3.896 0.382 0.378 0.706 1.068 1.304 1.015-0.203-1.25-0.515-2.388-0.655-3.705-6.125-8.863-12.015-17.968-18.178-26.799 2.156 5.638 4.433 11.148 6.583 16.781zm-73.9 6.767c8.116 3.511 16.823 7.289 24.945 10.85 1.202 0.534 2.449 1.212 3.613 1.577 1.38 0.436 2.989 0.554 4.458 0.833 10.469 2.032 20.524 4.07 30.968 6.029-11.468-8.154-23.647-16.365-35.427-24.388-0.445-0.248 0.356-0.534-0.089-0.738-7.384-3.034-14.489-6.344-21.886-9.366-2.225 5.036-4.432 10.089-6.582 15.203zm57.217 3.895c0.872 0.878 1.647 2.083 2.964 2.417 0.382 0.006 0.528-1.024 1.024-1.205 4.611 2.617 8.854 6.103 14.184 7.689-1.292-1.282-1.838-3.313-3.155-4.637-1.043-1.04-2.843-1.896-4.261-2.872-9.846-6.754-20.009-13.916-29.588-20.216 6.201 6.34 12.637 12.636 18.832 18.824zm-20.677-18.45c-1.844 2.767-3.835 5.38-5.571 8.252 8.128 3.53 16.263 7.044 24.391 10.567-6.163-6.388-12.435-12.66-18.82-18.819zm113.69 11.311c-3.454 3.454-7.899 7.613-10.851 11.032 3.638-1.482 7.639-3.065 11.588-4.63 5.73-2.277 12.181-4.201 16.314-7.886-2.018-3.139-4.135-6.186-6.201-9.267-3.67 3.348-7.17 7.065-10.85 10.751zm-15.87 6.122c1.133 1.435 2.145 2.989 3.347 4.357 6.544-6.745 13.616-13.455 19.933-20.118-7.74 5.27-15.62 10.402-23.28 15.761zm-32.27-14.555c-0.292 5.375-2.595 10.93-0.922 16.041 1.463-3.457 3.174-7 4.637-10.479 0.699-1.654 1.501-2.958 1.481-4.917-1.83-0.118-3.37-0.528-5.2-0.645zm68.53 8.713c-2.43 0.977-5.051 1.663-7.327 2.783-1.222 0.598-2.468 1.654-3.716 2.5-8.471 5.835-17.096 11.28-25.396 17.064-0.171 0.118-0.616 0.331-0.565 0.652 14.113-2.611 28.246-5.199 42.283-7.88 0.502-0.162 0.096 0.585 0.561 0.461 7.301-3.021 14.77-5.88 22.165-8.812-2.022-5.146-4.007-10.335-6.125-15.389-7.08 2.636-14.74 5.768-21.86 8.621zm-85.401-6.863c0.852 3.998 1.857 8.154 2.779 12.056 0.312 1.307 0.438 2.741 1.215 3.803v-16.785h-0.191c-1.215 0.351-2.531 0.618-3.803 0.926zm5.471 13.722c0 1.457-0.286 3.231 0 4.456 0.108 0.436 0.655 1.021 1.024 1.574 0.808 1.218 1.431 2.013 2.13 3.062 0.356 0.534 0.592 1.374 1.024 1.294 0.133-2.169 1.247-4.166 1.202-6.303-0.032-1.399-0.655-3.094-1.018-4.637-1.1-4.678-2.607-9.14-4.363-12.701 0.01 4.275 0.01 8.956 0.01 13.255zm29.39-10.382c-2.772 4.709-5.883 9.073-8.439 14.002 4.108-3.874 8.09-7.861 11.971-11.963-1.21-0.637-2.18-1.524-3.53-2.039zm-17.05 10.478c-0.434 1.011-1.324 2.293-1.395 3.155-0.044 0.486 0.255 1.157 0.369 1.758 0.375 2.026 0.572 3.737 1.023 5.568 0.668-0.944 1.965-2.092 2.41-3.435 0.521-1.567 0.586-3.911 0.924-6.21 0.496-3.362 1.252-6.99 0.838-10.571-1.29 2.834-2.82 6.532-4.17 9.735zm-29.126-6.955c-0.395-0.254-0.624-0.671-1.011-0.925-1.336 1.043-2.703 2.054-4.083 3.056 1.151 1.641 2.34 3.32 3.619 5.009 2.067 2.741 3.873 5.66 7.047 7.143-1.807-4.819-3.791-9.443-5.572-14.283zm-17.243 15.208c0.89-1.333 1.634-2.821 2.595-4.083-0.553-1.04-1.787-1.412-2.779-1.848-3.275-1.44-6.5-2.738-9.737-4.175-4.344-1.927-8.72-3.883-12.981-5.473 7.708 5.125 15.136 10.513 22.902 15.579zm60.639-8.161c-0.916 0.919-2.035 1.949-3.148 3.062-0.884 0.877-2.678 2.277-3.064 3.151-0.445 1.043-0.428 2.455-0.643 3.616-0.224 1.189-0.49 2.344-0.744 3.613 1.978-1.082 3.676-2.442 5.564-3.613 3.084-5.076 6.531-10.285 8.439-16.225-2.06 1.909-4.01 3.995-6.41 6.396zm-35.694 8.714c2.105 1.479 4.198 2.977 6.392 4.366-0.388-1.272-0.159-2.665-0.643-3.994-0.261-0.715-1.221-1.74-1.857-2.592-2.869-3.876-5.565-7.75-8.905-10.758 1.566 4.433 3.448 8.545 5.013 12.978zm57.854-3.524c-0.451 0.079 0.269 0.483-0.185 0.562-2.627 2.239-5.94 4.077-8.619 6.396-1.379 1.183-2.664 2.754-3.897 3.984-0.382 0.379-1.075 0.709-1.024 1.304 1.068-0.404 2.494-0.229 3.715-0.652 1.05-0.372 2.221-1.559 3.334-2.318 7.969-5.444 16.191-10.558 23.552-15.952-5.58 2.262-11.22 4.482-16.88 6.676zm-6.11-5.097c-1.47 1.218-3.275 2.5-5.006 3.803-2.723 2.039-5.533 3.73-6.958 6.856 4.813-1.797 9.438-3.791 14.278-5.562 0.254-0.391 0.675-0.624 0.929-1.015-1.14-1.303-1.97-2.919-3.24-4.082zm-34.04 4.175c0.782-0.569 0.916-2.125 0.369-3.062-0.1 1.036-0.38 1.901-0.37 3.062zm-30.685 6.955c0.922 0.925 1.953 1.953 3.06 3.059 0.928 0.925 2.162 2.633 3.155 3.056 1.03 0.448 2.359 0.515 3.523 0.741 1.145 0.235 2.347 0.385 3.612 0.652-0.343-0.945-1.081-1.721-1.666-2.599-0.585-0.871-1.05-1.994-1.769-2.69-0.896-0.865-2.512-1.511-3.803-2.312-1.253-0.795-2.544-1.641-3.797-2.417-2.449-1.517-6.322-2.859-8.618-3.797 1.876 2.014 3.95 3.954 6.303 6.307zm-8.351-6.122c-0.655 1.164-1.456 2.188-2.035 3.432 3.327 2.213 6.748 4.239 10.106 6.303 1.139 0.7 2.232 1.651 3.613 1.95-3.588-3.824-7.702-7.942-11.684-11.685zm40.896 3.339c-0.3-0.878-0.293-2.058-0.648-2.878-0.65 0.9 0.3 2.443 0.65 2.878zm-9.27 0.274c-0.432-0.525-0.731-1.183-1.208-1.667-0.17 1.069 0.84 1.441 1.21 1.667zm15.02-0.741c0.019-0.286 0.54-0.566 0.278-0.833-0.08 0.241-0.58 0.534-0.28 0.833zm-10.76 3.991c0.483-1.151 1.329-3.021 0.744-4.363-0.22 1.421-0.78 2.989-0.74 4.363zm-7.227-3.339c-0.07-0.34 0.02-0.821-0.375-0.833 0.063 0.343 0.07 0.734 0.375 0.833zm30.597 10.014c0.711-0.258 1.735-1.215 2.595-1.854 3.866-2.872 7.747-5.568 10.755-8.904h-0.273c-4.19 1.727-8.389 3.418-12.707 5.008-1.481 2.112-2.971 4.201-4.356 6.396 1.26-0.392 2.66-0.163 3.99-0.646zm-10.66-8.44c0-0.709 0.432-1.485 0.272-2.039-0.56 0.15-0.4 1.504-0.27 2.039zm-8.63 4.455c0.33-0.541 0.77-0.963 1.018-1.574-0.648-1.577-1.184-3.263-1.946-4.735-0.79 1.901 0.57 4.369 0.93 6.309zm-79.927 5.19c10.322-0.063 20.893 0.124 31.063-0.089-6.786-2.926-13.496-5.785-20.212-8.723-0.973-0.423-1.921-1.015-2.875-1.294-1.959-0.585-3.842-0.496-5.75-1.113-0.834 3.647-1.502 7.457-2.226 11.219zm60.74-8.532c-0.134-1.294-1.12-2.22-2.048-2.407 0.744 0.74 1.132 1.835 2.048 2.407zm12.887 3.895c-0.006-0.709 0.273-1.145 0.273-1.854-1.075-1.154-2.188-2.267-3.333-3.336 0.24 2.51 1.82 3.68 3.06 5.19zm11.68 1.024c0.642-0.261 1.067-0.738 1.672-1.024-0.063-1.609 0.127-3.463-0.09-4.917-1.24 1.27-1.22 3.786-1.58 5.941zm11.68-3.895c1.297-0.13 2.22-1.119 2.417-2.045-0.75 0.741-1.85 1.132-2.42 2.045zm26.62 3.243c0.478 1.59 0.643 3.499 1.298 4.91 2.379-0.337 4.517-1.479 6.678-2.318 6.494-2.515 13.063-5.06 19.101-7.692-8.96 1.775-18.12 3.35-27.08 5.101zm6.4 4.909h26.611c-0.609-3.307-1.037-6.812-1.945-9.827-8.24 3.265-16.59 6.41-24.66 9.827zm-97.837-1.849c0.191-0.251 0.013-0.43 0.471-0.28 5.59 0.843 11.009 1.844 17.802 1.485-0.992-0.61-2.194-2.039-3.435-2.506-1.107-0.417-2.665-0.483-3.988-0.741-9.242-1.787-19.042-3.819-27.902-5.285 5.756 2.372 11.328 4.926 17.052 7.327zm32.736-5.658c-0.853-0.41-1.647-1.38-2.5-1.485 0.286 0.983 1.698 1.33 2.5 1.485zm13.721 2.78c-0.388-1.027-0.439-2.401-0.929-3.333-0.038 0.82-0.254 1.472-0.28 2.318 0.33 0.356 0.83 1.021 1.21 1.015zm10.85-0.461c1.47-0.318 2.455-1.132 3.34-2.039-0.014-0.111-0.032-0.222-0.191-0.181-0.98 0.808-2.15 1.425-3.15 2.22zm5.84 1.205c0.42-0.855 1.381-1.647 1.487-2.502-0.99 0.279-1.31 1.713-1.49 2.502zm-31.429-1.298c1.578 0.951 3.091 1.981 4.732 2.872-0.013-0.696-0.235-1.183-0.28-1.848-1.583-0.62-3.256-1.628-4.821-1.949 0.172 0.261 0.286 0.576 0.369 0.925zm29.209 0.28c-0.936 1.603-1.945 3.113-2.875 4.729 0.699-0.013 1.195-0.235 1.857-0.28 0.609-1.584 1.628-3.256 1.946-4.818-0.27 0.169-0.59 0.287-0.94 0.369zm-9.27 0.554c-0.032-0.251 0.267-0.649 0-0.833-0.19 0.222-0.25 0.626 0 0.833zm-3.52 0.556c0.141 0.318 0.063 0.859 0.369 1.021 0.317-0.852 1.037-1.316 1.209-2.318-0.77 0.2-0.98 0.944-1.58 1.297zm-16.514 2.315c-0.496-1.352-1.164-3.028-2.411-3.333 0.859 0.996 1.622 2.586 2.411 3.333zm8.534-2.779c-0.166-0.137-0.223-0.385-0.458-0.461-0.06 0.305 0.31 0.671 0.46 0.461zm3.06 1.485c0.178-0.286 0.35-1.068 0.185-1.387-0.01 0.436-0.85 1.152-0.18 1.387zm34.68 1.577c-1.267 0.299-2.665 0.468-3.619 1.294h16.784c-0.158-0.658-0.299-1.425-0.471-2.13-0.158-0.709-0.19-1.574-0.731-1.946-3.87 0.99-8.04 1.858-11.96 2.783zm-33.01-1.297c0.057-0.254 0.388-0.235 0.369-0.56-0.159-0.08-0.146-0.34-0.369-0.366 0.11 0.36-0.28 0.69 0 0.926zm-6.68 1.387c0.394 0.013 0.451 0.359 0.833 0.372-0.083-0.932-0.369-1.66-0.553-2.5h-0.28v2.128zm18.08-0.834c0.062 0.528-0.121 1.298 0.096 1.67 0.483-0.999 1.412-2.048 1.666-2.964-0.56 0.461-1.14 0.903-1.77 1.294zm-6.49-0.181c0.287 0.006 0.445-0.118 0.648-0.191-0.083-0.162-0.031-0.461-0.186-0.553-0.14 0.254-0.34 0.458-0.46 0.744zm-15.204 1.485c0.42 0.07 1.272 0.2 1.667 0-0.91-0.483-1.896-1.38-2.779-1.584 0.361 0.534 0.819 0.977 1.112 1.584zm5.934-0.652c0.076-0.204 0.242-0.318 0.185-0.652-0.134-0.044-0.229-0.137-0.369-0.181-0.01 0.343 0.03 0.636 0.18 0.833zm12.24 0.092c0.406-0.209 1.139-0.588 1.107-0.925-0.31 0.363-1.23 0.124-1.11 0.925zm-25.685 0.56c-0.954-0.099-2.112-0.49-2.875-0.471 0.241 0.815 2.003 0.595 2.875 0.471zm14.925 0.089c0.166-0.051 0.547 0.111 0.56-0.089-0.165-0.086-0.273-0.229-0.464-0.28 0.02 0.175-0.11 0.201-0.1 0.369zm8.82 0.372c0.013-0.267 0.007-0.509-0.278-0.461-0.19 0.181 0.06 0.398 0.28 0.461zm16.77-0.095c0.293-0.054 0.705 0.025 0.738-0.277-0.19 0.137-0.68-0.013-0.74 0.277zm-13.81 0.367h0.561c-0.024-0.156 0.262-0.461 0-0.553-0.13 0.249-0.56 0.186-0.56 0.553zm-111.65 1.12v16.327h23.832c0.267-0.19-0.197-0.908 0-1.018 13.064-2.52 26.382-4.783 39.319-7.429-13.07-2.506-26.058-5.092-39.128-7.601-0.445 0.105 0.089-0.767-0.464-0.56h-23.457c-0.114 0.01-0.108 0.14-0.102 0.28zm56.753 5.1c0.242-1.796 0.56-3.517 0.738-5.38-9.298 0.066-18.845-0.115-27.998 0.099 9.076 1.76 18.107 3.58 27.26 5.28zm7.142-3.9c-1.634-0.684-3.015-1.517-4.917-1.485-0.121 1.832-0.528 3.368-0.648 5.199 5.374 0.292 10.927 2.598 16.041 0.925-3.308-1.4-7.073-3.2-10.476-4.64zm10.107 2.79c1.011 0.423 2.29 1.323 3.155 1.386 0.49 0.039 1.158-0.261 1.755-0.372 2.022-0.378 3.74-0.572 5.572-1.014-0.948-0.671-2.093-1.969-3.435-2.417-1.571-0.515-3.905-0.585-6.214-0.925-3.358-0.493-6.99-1.244-10.571-0.833 2.831 1.27 6.532 2.8 9.738 4.16zm7.969-3.9c-0.197-0.08-0.547-0.496-0.737-0.273 0.228 0.04 0.489 0.54 0.737 0.27zm8.256 1.3c-0.191-0.703-0.674-1.123-1.018-1.676-1.577 0.066-3.403-0.115-4.828 0.099 1.209 1.27 3.766 1.19 5.846 1.58zm4.363-0.65v-0.744c-0.306 0.06-0.439-0.057-0.655-0.089 0.121 0.37 0.286 0.7 0.655 0.83zm19.837 0.46c0.727-0.324 1.818-0.286 2.411-0.741-0.88-0.26-2.72-0.18-2.41 0.74zm10.67 0.56c0.604-0.505 1.36-0.858 1.938-1.393-1.24-0.19-1.62 0.97-1.94 1.39zm4.63-1.39c-1.521 1.1-3.32 2.207-4.814 3.25-0.465 0.318-1.106 0.601-1.297 1.106 2.034 0.025 3.911 1.148 5.935 1.116 1.418-0.022 3.167-0.744 4.726-1.116 4.833-1.138 9.547-2.449 13.172-4.356h-17.73zm21.33 0.18c-0.434 0.302 0.337 1.266 0.089 1.669-5.463 1.425-11.437 2.35-15.95 4.729 1.807 0.13 3.637 1.021 5.481 1.021 1.526-0.007 3.353-0.611 5.095-0.932 11.836-2.156 24.042-4.427 35.51-6.675-10.02 0.13-20.53-0.24-30.23 0.19zm33.1 0.1c0.178 0.137 0.013 0.607 0.178 0.744-13.191 2.474-26.497 4.837-39.586 7.416 12.962 2.547 25.955 5.072 38.943 7.604 0.508-0.141 0.012 0.726 0.553 0.56h23.832v-16.603h-23.832c-0.09 0.02-0.08 0.15-0.08 0.28zm-65.56 3.06c0.585 0.149 1.247 0.235 1.856 0.369 0.916-0.786 1.939-1.94 2.779-2.779 0.262-0.261 0.809-0.509 0.648-0.839-2.46 0.38-3.66 2.03-5.29 3.25zm-25.311-1.95c-0.209-0.41-0.585-1.138-0.922-1.113 0.362 0.32 0.121 1.23 0.922 1.11zm24.581 0.56c0.166-0.235 0.534-0.261 0.648-0.557-0.45-0.1-0.83 0.34-0.65 0.56zm-3.07 0.36c0.21 0.105 0.471 0.156 0.654 0.28 0.108-0.194 0.256-0.363 0.369-0.56-0.42 0.02-0.8 0.07-1.02 0.28zm-24.665 0.2c-0.267 0.013-0.719-0.261-0.922 0 0.266 0.15 0.674 0.28 0.922 0zm3.708 0.92c0 0.13 0.044 0.204 0.095 0.28 0.286 0.042 0.261-0.232 0.375-0.369-0.216-0.03-0.362 0.01-0.47 0.09zm-2.22 0.37c0.083 0.347 0.483 0.378 0.744 0.553-0.019-0.55-0.191-0.71-0.744-0.55zm0.178 1.95c-0.871-0.359-1.386-1.081-2.404-1.297 0.407 0.77 1.304 2.08 2.404 1.3zm24.579-0.93v0.273c0.445 0 1.051 0.312 1.395 0.096-0.5-0.06-0.9-0.62-1.4-0.37zm-29.305 0.56c-1.488 0.703-3.206 1.18-4.636 1.946 1.882 1.03 4.255-0.591 6.404-0.741-0.476-0.53-1.036-0.95-1.768-1.21zm-7.416 0.74c0.897 0.658 2.442-0.292 2.875-0.649-0.878 0.3-2.054 0.3-2.875 0.65zm46.171 0.28c-0.737-0.436-2.258-0.585-3.053-0.649 0.77 0.45 1.83 0.64 3.05 0.65zm-50.528 0.55c1.031 0.111 1.902 0.385 3.06 0.372-0.566-0.78-2.125-0.91-3.06-0.37zm41.358 0.09c0.114-0.137 0.383-0.105 0.369-0.372-0.361 0.111-0.693-0.28-0.929 0 0.25 0.06 0.23 0.39 0.56 0.37zm1.66 1.12c0.948-0.35 2.182-0.417 3.066-0.833-1.32-0.44-2.97-0.28-3.07 0.83zm-31.518 0.46c1.272 0.402 2.449 0.231 2.964-0.744-1.018 0.22-2.086 0.39-2.964 0.74zm35.048 0.19c-0.954 0.229-1.935 0.359-2.589 0.744 0.643 0.245 0.998 0.785 1.666 1.018 1.584-0.647 3.257-1.195 4.726-1.949-1.14-0.76-2.38-0.15-3.81 0.19zm-54.988-0.37c-12.905 2.599-27.152 4.806-40.057 7.515h23.088c2.639 0 5.349 0.279 7.416-0.375 0.083-0.629-0.414-1.101-0.185-1.578 5.521-1.239 11.257-2.275 15.671-4.635-1.843 0.02-4.254-1.25-5.933-0.91zm65.928 0.55c-1.035-0.107-1.9-0.382-3.064-0.369 0.56 0.78 2.12 0.92 3.06 0.37zm-42.001 0.19c0.312 0.058 0.935 0.293 1.202 0.092-0.273-0.133-0.375-0.433-0.648-0.556-0.096 0.25-0.432 0.26-0.554 0.47zm-8.535 0.46c0.604 0.293 2.436 0.651 3.339 0.651-0.877-0.39-2.124-0.9-3.339-0.65zm43.306 0.83c0.871-0.299 2.048-0.292 2.875-0.648-0.9-0.65-2.44 0.31-2.88 0.65zm8.16 0c3.454 1.471 7.003 3.174 10.48 4.637 1.654 0.7 2.945 1.508 4.91 1.488 0.121-1.832 0.528-3.371 0.649-5.202-5.38-0.29-10.93-2.6-16.04-0.93zm-17.25-0.27c0.774 0.4 1.438 0.922 2.231 1.305-0.41-0.71-1.23-2.08-2.23-1.31zm-38.197 0.37c-1.476 0.09-3.123 0.744-4.637 1.106-4.726 1.151-9.375 2.327-12.981 4.274h12.981c1.374 0 3.148 0.278 4.356 0 0.426-0.103 1.107-0.648 1.667-1.019 1.215-0.827 2.093-1.526 3.148-2.228 0.502-0.336 1.196-0.547 1.399-1.119-2.028-0.04-3.949-1.13-5.933-1.01zm13.439 0.37c-0.286-0.186-1.068-0.355-1.387-0.186 0.439 0.01 1.151 0.86 1.387 0.19zm45.618 2.78c-2.168-0.948-4.387-2.252-6.492-2.779-0.025-0.007-0.063 0-0.09 0-1.068-0.02-2.416 0.516-3.612 0.737-1.246 0.241-2.474 0.293-3.625 0.751 1.177 0.533 2.169 1.863 3.522 2.314 1.687 0.553 4.015 0.599 6.215 0.928 3.492 0.51 6.717 1.229 10.576 0.841-1.99-0.94-4.22-1.79-6.51-2.79zm13.27 2.88c9.209-0.062 18.667 0.121 27.724-0.089-8.941-1.787-17.98-3.474-26.891-5.292-0.43 1.63-0.59 3.55-0.83 5.38zm-34.69-4.36c0.203-0.133 0.692 0.014 0.744-0.279-0.4-0.121-0.648-0.395-1.024-0.56 0.01 0.37 0.21 0.55 0.28 0.84zm-22.252-0.28c0.133 0 0.204 0.051 0.28 0.096-0.051-0.135 0.114-0.484-0.095-0.465 0 0.18-0.248 0.11-0.185 0.37zm-6.119 0.37c-1.196 1.177-2.474 2.283-3.523 3.619 2.544-0.4 3.797-2.086 5.47-3.34-0.725-0.02-1.209-0.27-1.947-0.28zm30.411 1.12c0.351 0.076 0.789 0.076 1.112 0.186-0.03-0.46-0.85-0.48-1.11-0.19zm-25.685 0.55c0.318-0.146 0.865-0.063 1.024-0.369-0.209-0.096-0.464-0.158-0.642-0.279-0.109 0.23-0.344 0.34-0.382 0.65zm-11.493 1.95c1.762 0.186 2.258-1.393 2.868-2.041-0.902 0.73-1.984 1.28-2.868 2.04zm8.714-1.3c0.401 0 0.948-0.344 0.744-0.656-0.216 0.26-0.61 0.34-0.744 0.66zm26.254 1.02c-0.203-0.329-0.338-0.725-0.471-1.111h-0.465c0.21 0.41 0.59 1.14 0.94 1.11zm2.96 0.93c1.697-0.062 3.645 0.121 5.188-0.089-1.315-1.374-4.255-1.132-6.397-1.679 0.32 0.68 0.68 1.31 1.21 1.77zm-27.453-0.65h2.232c0.032-0.279 0.553-0.547 0.273-0.84-0.705 0.41-1.996 0.24-2.505 0.84zm22.253 0.37c0.178 0.02 0.615 0.241 0.744 0-0.332-0.166-0.318-0.675-0.744-0.744v0.74zm-85.95 10.94c8.402-3.155 16.689-6.424 24.843-9.827h-26.516c0.261 3.2 1.196 6.54 1.673 9.83zm23.456-7.6c-6.5 2.524-13.159 5.133-19.284 7.791 8.993-1.826 18.33-3.309 27.26-5.203-0.471-1.532-0.738-3.27-1.208-4.814-2.475 0.22-4.599 1.37-6.768 2.22zm9.274 1.85c4.427-1.133 9.521-1.973 13.91-3.243 0.636-0.185 1.469-0.382 1.297-0.834h-16.136c0.248 1.41 0.643 2.69 0.929 4.07zm35.24-3.24c0.268-0.317 0.789-0.382 0.929-0.834h-0.839c-0.05 0.2-0.29 0.69-0.09 0.83zm-5.195-0.28c-0.617 1.577-1.628 3.258-1.946 4.821 0.324-0.197 0.712-0.331 1.106-0.458 0.999-1.488 1.851-3.104 2.881-4.548-0.019-0.108-0.032-0.224-0.191-0.185-0.533 0.21-1.22 0.28-1.85 0.38zm26.245 1.67c-0.388-0.854-1.043-1.928-2.417-1.482 0.8 0.49 1.6 1 2.42 1.48zm9.46-1.03c-0.279-0.864-2.232-0.561-3.154-0.458 1.08 0.06 2.16 0.61 3.15 0.46zm9.54 2.05c1.15 0.407 2.658 0.489 3.993 0.743 9.306 1.801 19.171 3.779 27.998 5.382-5.763-2.531-11.537-5.037-17.338-7.519-0.19 0.254-0.013 0.426-0.464 0.279-5.598-0.839-11.01-1.845-17.809-1.48 1.05 0.65 2.3 2.13 3.62 2.6zm36.17 6.3c0.947 0.42 1.952 1.024 2.874 1.304 1.832 0.547 3.606 0.465 5.375 1.012 0.636-3.815 1.45-7.453 2.138-11.213-10.229 0.058-20.709-0.121-30.783 0.096 6.7 2.9 13.72 5.84 20.4 8.8zm-79.195-6.49c0.725-0.336 1.628-1.449 1.208-2.314-0.279 0.82-1.163 1.55-1.208 2.31zm19.475 0.28v-2.221c-0.279 0.025-0.496-0.488-0.744-0.189 0.36 0.69 0.28 1.83 0.74 2.41zm-2.6-1.39c0.234 0.051 0.496 0.554 0.744 0.279-0.224-0.272-0.146-0.84-0.362-1.113-0.16 0.24-0.22 0.58-0.38 0.83zm-26.237-0.09c-0.693 0.254-1.73 1.215-2.595 1.855-2.557 1.896-5.489 3.904-7.696 5.75-0.82 0.688-1.609 1.705-2.322 2.404-0.204 0.203-0.667 0.382-0.553 0.744 4.261-1.666 8.44-3.428 12.791-5.006 1.1-1.508 2.309-3.319 3.345-4.82 0.344-0.496 0.91-1.031 0.833-1.578-1.17 0.44-2.563 0.21-3.803 0.66zm13.167 0.37c0.324-0.205 0.725-0.332 1.113-0.465 0.1-1.01-1.21 0.32-1.11 0.47zm25.59 1.85c0.528 0.802 0.93 1.869 1.571 2.506 0.399 0.382 1.284 0.795 1.952 1.209 4.4 2.684 10.209 6.424 14.935 7.784-2.761-2.785-6.233-6.328-9.28-9.362-0.908-0.915-2.258-2.557-3.242-2.97-2.221-0.935-4.797-0.668-7.416-1.481 0.29 0.86 0.95 1.51 1.48 2.31zm-22.16-1.67c0.133 0.203-0.013 0.688 0.273 0.736 0.184-0.342 0.401-0.647 0.56-1.018-0.36 0-0.53 0.21-0.83 0.28zm14.28 1.86c1.577 0.61 3.256 1.629 4.821 1.945-0.197-0.33-0.331-0.725-0.465-1.119-1.598-0.812-3.104-2.213-4.732-2.684 0.21 0.53 0.26 1.21 0.37 1.85zm-9.27-1.12c0.084 0.293 0.229 0.521 0.465 0.655 0.058-0.323 0.293-0.935 0.09-1.202-0.15 0.22-0.34 0.41-0.56 0.55zm15.58 1.4c-0.408-0.688-0.814-1.349-1.299-1.945 0.2 0.87 0.76 1.39 1.3 1.95zm-19.84 0.64c0.757-0.287 1.125-0.975 1.667-1.482-0.102-0.279 0-0.736-0.28-0.839-0.44 0.8-0.96 1.52-1.39 2.32zm6.3-0.92c0.057-0.49 0.623-0.896 0.367-1.398h-0.279c0 0.45-0.31 1.05-0.09 1.4zm-34.034-0.46c-1.049 0.4-2.213 1.547-3.339 2.321-7.467 5.08-14.947 9.99-22.254 14.92-0.509 0.343-1.151 0.647-1.482 1.208 5.775-2.385 11.665-4.668 17.522-6.958 0.458-0.075-0.267-0.471 0.19-0.554 4.465-3.415 9.643-6.805 13.261-11.035 0.051-0.062 0.719-0.534 0.185-0.648-1.036 0.43-2.976 0.33-4.083 0.74zm69.724 11.68c0.725-1.17 1.494-2.289 2.137-3.529-3.104-1.991-6.379-4.09-9.553-6.023-1.387-0.853-2.658-1.851-4.268-2.131-0.051 0-0.108 0.014-0.09 0.09 4 3.79 7.7 7.87 11.77 11.59zm-56.927-8.99c0.986-0.28 1.311-1.718 1.482-2.507-0.407 0.85-1.38 1.64-1.482 2.51zm11.497-2.32c-0.019-0.076-0.077-0.107-0.191-0.096-0.356 0.547-1.228 0.445-1.476 1.201-0.445 1.343 0.254 3.695 0.089 5.102 1.33-1.26 1.17-4.02 1.58-6.2zm13.73 1.01c-0.038-0.217-0.151-0.351-0.095-0.644-0.307 0.076-0.465-0.458-0.648-0.19 0.26 0.27 0.39 0.66 0.75 0.83zm-12.34 0.47c0.287-0.209 0.414-0.922 0.096-1.207 0 0.38-0.27 0.97-0.1 1.21zm-71.674 6.76c-0.502 0.159-0.089-0.585-0.553-0.464-7.302 3.027-14.769 5.883-22.166 8.809 2.067 5.164 3.988 10.481 6.214 15.493 7.2-2.913 14.292-5.711 21.326-8.534 2.397-0.968 4.98-1.629 7.231-2.779 1.247-0.644 2.455-1.674 3.708-2.514 8.796-5.863 17.745-12.014 26.338-17.795-0.006-0.063-0.013-0.115-0.096-0.09-13.928 2.7-28.073 5.18-42.002 7.87zm77.884-4.82c0.478-1.156 0.095-2.099-0.643-2.684 0.18 0.93 0.36 1.85 0.64 2.68zm3.53-0.74c0.885 0.922 1.983 2.08 2.882 2.971 0.273 0.273 0.623 0.725 0.922 0.648-0.395-2.603-2.245-3.752-3.436-5.56-0.09 0.66-0.26 1.27-0.36 1.94zm65.93 22.81c0.451 0.254-0.344 0.534 0.096 0.744 7.379 3.027 14.488 6.341 21.885 9.369 2.228-5.038 4.429-10.102 6.578-15.215-6.92-3.008-14.279-6.207-21.319-9.185-2.397-1.005-4.683-2.417-7.054-3.147-2.812-0.871-5.936-1.074-8.898-1.666-8.93-1.795-17.604-3.53-26.611-5.196-0.006-0.051-0.013-0.108-0.095-0.097 11.64 8.31 23.55 16.34 35.41 24.41zm-84.015-22.71c0.407-0.534 1.997-1.105 1.857-1.482-0.694 0.36-1.749 0.84-1.857 1.48zm11.315 0.46c0.642 1.584 1.189 3.257 1.946 4.726 0.197-0.418 0.382-0.852 0.56-1.291-0.579-1.621-0.731-3.656-1.393-5.195-0.32 0.65-0.85 1.07-1.12 1.76zm-11.125 1.11c-0.757 0.504-1.743 0.968-2.315 1.578-0.897 0.94-1.609 2.672-2.417 3.987-2.315 3.784-5.368 8.466-6.583 12.798 2.773-2.735 6.227-6.146 9.267-9.186 0.833-0.826 2.621-2.271 2.97-3.148 0.433-1.067 0.515-2.441 0.744-3.617 0.235-1.215 0.407-2.463 0.655-3.805-0.814 0.3-1.551 0.88-2.321 1.39zm25.035 2.88c0.255 0.699 1.209 1.725 1.853 2.596 1.9 2.562 3.897 5.482 5.748 7.695 0.682 0.813 1.719 1.623 2.412 2.315 0.209 0.209 0.388 0.687 0.744 0.56-1.668-4.262-3.43-8.445-5.007-12.797-2.104-1.476-4.204-2.971-6.397-4.356 0.39 1.21 0.19 2.68 0.66 3.99zm4.63-2.41c-0.287-0.974-1.699-1.33-2.5-1.481 0.85 0.41 1.65 1.37 2.5 1.48zm-36.992 1.2c0.744-0.738 1.838-1.127 2.41-2.036-1.297 0.13-2.219 1.12-2.41 2.04zm10.202 2.5c1.107-0.344 0.738-2.652 0.643-3.899-0.147 1.32-0.656 2.75-0.643 3.9zm30.5-1.1c-0.744-0.744-1.125-1.844-2.035-2.416 0.13 1.3 1.12 2.22 2.04 2.42zm-56.742 3.79c-0.229 0.369-0.611 0.572-0.833 0.936 1.043 1.336 2.048 2.703 3.053 4.076 1.615-1.131 3.32-2.34 5.012-3.611 2.741-2.067 5.782-3.926 7.047-7.047-4.752 1.89-9.534 3.74-14.279 5.64zm38.762-3.53c0.107-0.655 0.406-1.615 0.369-2.125-0.3 0.47-0.48 1.57-0.37 2.12zm-8.44 1.68c-0.553 1.673-0.604 4.007-0.928 6.208-0.515 3.484-1.228 6.717-0.833 10.57 1.336-3.002 2.812-6.455 4.179-9.643 0.433-1.029 1.311-2.328 1.387-3.244 0.057-0.774-0.401-2.289-0.649-3.625-0.273-1.449-0.547-3.078-0.839-3.791-0.54 1.16-1.88 2.15-2.32 3.51zm9.27 2.04c0.045 1.463 0.737 3.243 1.112 4.821 1.164 4.91 2.379 9.857 4.356 13.541v-17.345c-1.532-2.087-2.792-4.438-4.444-6.397-0.1 1.8-1.09 3.55-1.03 5.38zm5.47-1.77c0.166-1.795-1.443-2.322-2.131-2.959 0.77 0.93 1.27 2.12 2.13 2.96zm17.9 2.23c0.504 0.515 1.395 0.884 2.132 1.394 10.653 7.34 21.688 14.953 32.088 22.069 0.095 0.038 0.223 0.108 0.089 0-5.189-5.502-10.666-10.762-15.945-16.047-1.781-1.774-3.408-3.815-5.564-5.19-0.572 0.166-0.502 0.979-1.023 1.202-4.72-2.849-9.127-6.004-14.742-7.976 1.09 1.38 1.7 3.27 2.96 4.56zm-27.73-1.11c0.648-0.891-0.293-2.442-0.655-2.875 0.3 0.87 0.3 2.05 0.65 2.87zm44.05-2.51c-0.992 1.336-1.812 2.83-2.69 4.274 1.78 1.373 4.032 2.123 6.125 3.053 2.104 0.936 4.249 1.87 6.393 2.786 4.312 1.844 8.638 3.784 12.894 5.366-7.64-5.08-15.06-10.4-22.72-15.48zm-18.36 12.62c0.483 1.253 0.809 2.685 1.953 3.429 1.336-1.044 2.703-2.055 4.076-3.054-1.156-1.641-2.347-3.319-3.619-5.012-2.061-2.741-3.873-5.66-7.047-7.137 1.46 3.9 3.18 7.99 4.64 11.77zm-49.429-8.53c-0.49 0.496-0.967 1.398-1.482 2.139-7.416 10.621-14.857 21.847-21.885 32.17 6.341-6.201 12.638-12.633 18.833-18.826 0.872-0.879 2.073-1.654 2.404-2.965-0.242-0.465-0.903-0.521-1.202-0.929 2.97-4.541 5.928-9.096 7.969-14.553-1.349 1.05-3.454 1.78-4.637 2.97zm24.579 2.78c0-0.973 0.648-2.245 0.191-3.059-0.49 0.81-0.77 2.11-0.19 3.06zm-51.648 2.32c-5.731 2.295-12.129 4.082-16.327 7.694 2.175 3.11 4.268 6.304 6.404 9.451 7.403-7.174 14.699-14.463 21.879-21.879 0.051 0 0.108-0.07 0-0.089-3.802 1.53-7.886 3.19-11.956 4.83zm13.63-4.27c-5.985 6.028-12.313 12.401-18.273 18.368-0.375 0.375-1.062 0.751-0.922 1.105 7.429-5.088 14.915-10.119 22.439-15.111-1.006-1.54-2.094-2.99-3.244-4.37zm23.456 4.45c0.839-1.381 1.921-2.545 2.22-4.173-0.019-0.07 0-0.186-0.089-0.186-3.81 3.854-7.83 7.506-11.404 11.59 1.278 0.578 2.239 1.463 3.524 2.035 2.009-2.96 3.86-6.18 5.749-9.27zm28.832 0.1c0.376 1.024 1.591 2.245 2.314 3.333 5.433 8.147 10.763 16.085 16.144 23.927-2.231-6.028-4.688-11.815-6.958-17.809-0.076-0.445-0.479 0.268-0.555-0.178-3.625-4.854-7.027-9.916-11.684-13.727 0.44 1.33 0.22 3.01 0.74 4.46zm-26.053 0.37c-0.433 1.133-0.566 2.646-0.833 3.98-1.883 9.389-3.721 19.387-5.375 28.291 2.563-5.94 5.165-11.844 7.696-17.81-0.254-0.19-0.433-0.013-0.28-0.458 0.795-5.576 1.965-11.264 1.387-17.896-0.636 1.39-2.054 2.49-2.595 3.9zm-49.514 19.1c-0.375 0.229-0.178-0.196-0.553-0.185-5.552 5.629-11.156 11.228-16.785 16.778 3.81 4.045 7.734 7.976 11.779 11.779 5.642-5.636 11.378-11.183 16.874-16.97-0.292-0.204-0.7-0.293-0.833-0.649 7.613-10.965 15.456-22.189 22.712-33.199-11.035 7.5-22.223 14.86-33.194 22.44zm71.767-6.03c1.455-0.242 2.754-0.655 4.179-0.922-0.438-2.315-1.095-4.682-1.673-7.144-0.643-2.69-1.094-6.532-2.506-8.25v16.31zm41.17 17.43c0.337 0.305-0.389 0.292-0.09 0.553 5.756 5.561 11.227 11.398 17.063 16.888 3.791-4 7.874-7.709 11.582-11.785-5.629-5.647-11.175-11.379-16.963-16.874-0.209 0.293-0.292 0.699-0.647 0.833-10.984-7.688-22.082-15.252-33.201-22.808-0.051 0.006-0.102 0.013-0.088 0.088 7.51 10.97 14.9 22.07 22.35 33.1zm-57.77-21.88c-0.7 1.642-1.596 2.812-1.476 4.726 1.825 0.121 3.365 0.528 5.19 0.655 0.292-5.381 2.602-10.938 0.922-16.04-1.47 3.25-3.11 7.13-4.63 10.66zm69.28 8.25c1.832-2.767 3.829-5.375 5.56-8.25-8.121-3.536-16.257-7.047-24.386-10.569 6.16 6.39 12.43 12.66 18.83 18.82zm-61.86-12.23c0.025 1.508 0.598 3.377 0.928 5.096 2.258 11.867 4.49 24.32 6.768 35.795v-22.903c0-2.506 0.223-5.082-0.279-7.416-0.445-0.299-1.164 0.345-1.578 0.09-1.215-5.737-2.455-11.448-4.819-16.04-0.04 1.76-1.04 3.53-1.02 5.37zm-39.41 33.74c-0.241 0.451-0.534-0.344-0.737 0.096-3.028 7.384-6.341 14.488-9.362 21.879 5.037 2.238 10.087 4.438 15.207 6.59 3.517-7.926 7.054-16.499 10.571-24.475 0.509-1.158 1.234-2.315 1.577-3.436 0.414-1.374 0.535-2.97 0.833-4.458 2.099-10.419 4.159-21.274 6.023-31.427-8.008 11.77-16.149 23.41-24.112 35.23zm61.02 7.14c0.158 0.495-0.592 0.089-0.465 0.56 3.027 7.303 5.877 14.764 8.81 22.159 5.164-2.073 10.481-3.994 15.487-6.207-3.199-7.964-6.494-16.162-9.555-24.118-0.533-1.387-0.959-2.805-1.576-4.084-0.566-1.163-1.564-2.199-2.321-3.332-6.081-9.089-12.047-18.051-18.076-26.892-0.006-0.058-0.013-0.107-0.089-0.089 2.52 14.08 5.15 28.05 7.8 42zm9.09-41.44c-1.312 1.164-2.882 2.065-4.179 3.25 6.004 5.864 12.186 12.187 18.088 18.075 0.395 0.4 0.872 0.986 1.201 0.929-5.09-7.35-9.96-14.95-15.11-22.25zm-56.938 3.7c-0.006-0.051-0.013-0.107-0.089-0.089-1.03 0.954-1.476 2.378-2.13 3.892-1.374 3.148-2.69 6.26-3.994 9.273-1.864 4.312-3.791 8.421-5.19 12.333 5.126-7.702 10.513-15.144 15.576-22.903-1.432-0.79-2.717-1.72-4.173-2.5zm17.808 40.25c0 0.528-0.521 0.114-0.464 0.554v23.742h16.594v-23.838c-0.185-0.317-1.03 0.337-1.022-0.089-2.57-13.153-4.821-26.644-7.505-39.688-2.5 13.16-5.15 26.14-7.61 39.33zm39.22-27.07c2.238 5.578 4.064 11.881 7.416 16.137 3.312-1.984 6.311-4.269 9.561-6.311-3.385-3.854-7.149-7.326-10.762-10.939-3.633-3.638-7.156-7.371-10.939-10.851 0-0.051-0.083-0.103-0.096 0 1.54 3.81 3.18 7.88 4.82 11.96zm-79.652 9.45c2.773 1.831 5.368 3.835 8.249 5.56 3.46-8.104 7.232-16.385 10.482-24.387-6.264 6.25-12.618 12.42-18.731 18.83zm58.972-12.24c2.965 7.55 6.068 15.284 9.083 22.445-1.769-8.955-3.339-18.106-5.095-27.082-1.736 0.269-3.301 0.726-4.916 1.112-0.04 1.25 0.5 2.41 0.93 3.52zm-18.91 23.83c1.686-8.821 3.492-17.528 5.101-26.427-1.654-0.293-3.365-0.527-5.101-0.744-0.16 8.84-0.16 18.33 0 27.17zm-9.462-8.53c-1.438 3.396-3.015 6.588-3.428 10.855 3.74 0.77 7.543 1.47 11.309 2.22-0.063-10.291 0.127-20.836-0.095-30.968-2.475 6.11-5.274 11.97-7.786 17.9zm27.442 13.07c3.363-0.496 6.506-1.221 9.832-1.755-3.154-8.408-6.424-16.702-9.832-24.855v26.62z" fill="#429544"/>
<rect y="88.112" width="218" height="41.524" fill="#fff"/>
<g enable-background="new    " fill="#429544">
	<path d="m21.532 98.634h3.763l-4.064 18.813h-4.69l-4.164-18.813h3.763l2.208 12.065c0.1 0.536 0.184 1.07 0.25 1.605 0.067 0.536 0.125 1.07 0.176 1.605 0.033 0.251 0.066 0.506 0.1 0.766 0.034 0.259 0.05 0.522 0.05 0.79h0.05c0-0.268 0.017-0.531 0.05-0.79 0.033-0.26 0.066-0.515 0.1-0.766 0.05-0.535 0.108-1.069 0.176-1.605 0.066-0.535 0.15-1.069 0.25-1.605l1.982-12.066z"/>
	<path d="m27.527 117.45v-18.816h3.512v18.813h-3.512z"/>
	<path d="m34.375 117.45v-18.816h9.883v2.76h-6.372v4.74h5.87v2.76h-5.87v5.795h6.372v2.759h-9.883z"/>
	<path d="m59.108 108.37c0.184 0.953 0.326 2.006 0.426 3.16 0.101 1.154 0.217 2.333 0.352 3.537h0.05c0.033-0.234 0.054-0.46 0.063-0.678 0.008-0.217 0.029-0.442 0.062-0.677 0.067-0.803 0.138-1.605 0.213-2.408s0.179-1.605 0.313-2.408l1.405-10.26h3.637l-3.487 18.813h-4.214l-1.404-7.425c-0.185-1.004-0.322-2.003-0.414-2.998-0.092-0.994-0.205-1.994-0.339-2.997h-0.05c-0.134 1.003-0.247 2.003-0.339 2.997-0.092 0.995-0.23 1.994-0.414 2.998l-1.254 7.425h-4.214l-3.587-18.813h3.637l1.58 10.26c0.134 0.803 0.238 1.605 0.314 2.408 0.075 0.803 0.146 1.605 0.213 2.408 0.034 0.234 0.054 0.46 0.063 0.677 0.008 0.218 0.021 0.443 0.038 0.678h0.05c0.133-1.204 0.254-2.383 0.363-3.537s0.255-2.207 0.439-3.16l1.706-9.733h2.91l1.882 9.733z"/>
	<path d="m72.704 117.45l4.49-18.813h4.741l4.265 18.813h-3.763l-0.928-4.766h-4.114l-0.928 4.766h-3.763zm5.242-7.53h3.01l-0.953-5.343c-0.084-0.435-0.15-0.869-0.201-1.305-0.05-0.435-0.101-0.869-0.15-1.304-0.017-0.218-0.034-0.431-0.05-0.64-0.017-0.209-0.042-0.414-0.075-0.615h-0.05c-0.034 0.201-0.059 0.406-0.075 0.615-0.017 0.209-0.034 0.422-0.05 0.64-0.05 0.435-0.1 0.869-0.15 1.304-0.05 0.436-0.117 0.87-0.201 1.305l-1.055 5.34z"/>
	<path d="m88.13 117.45v-18.816h3.512v16.055h6.521v2.759h-10.033z"/>
	<path d="m100.67 117.45v-18.816h3.512v16.055h6.522v2.759h-10.03z"/>
	<path d="m122.95 109.34v8.103h-3.512v-18.806h6.647c0.753 0 1.455 0.071 2.107 0.214 0.651 0.142 1.216 0.389 1.692 0.739 0.477 0.352 0.854 0.815 1.129 1.393 0.276 0.577 0.414 1.301 0.414 2.17 0 0.519-0.041 1.028-0.125 1.53-0.084 0.501-0.23 0.962-0.439 1.379-0.209 0.419-0.502 0.774-0.877 1.066-0.377 0.293-0.857 0.481-1.443 0.564v0.05c1.037 0.135 1.748 0.511 2.133 1.129 0.385 0.619 0.576 1.38 0.576 2.283v0.677c0 0.318 0.004 0.682 0.014 1.092 0.008 0.409 0.024 0.84 0.05 1.291 0.024 0.452 0.062 0.874 0.112 1.268 0.051 0.393 0.121 0.739 0.213 1.041 0.092 0.301 0.214 0.493 0.364 0.576v0.352h-3.862c-0.102-0.301-0.176-0.66-0.227-1.079-0.05-0.417-0.088-0.848-0.113-1.291-0.024-0.443-0.037-0.874-0.037-1.292s0-0.786 0-1.104c0-0.284-0.008-0.59-0.025-0.916s-0.062-0.636-0.138-0.928c-0.075-0.293-0.192-0.552-0.351-0.778-0.16-0.226-0.389-0.38-0.69-0.464-0.485-0.134-0.978-0.209-1.479-0.226s-1.004-0.025-1.506-0.025h-0.6zm0-2.75h2.76c0.568-0.033 1.053-0.259 1.455-0.678 0.4-0.418 0.602-1.095 0.602-2.031 0-0.519-0.055-0.941-0.163-1.267s-0.259-0.577-0.451-0.753-0.423-0.297-0.69-0.364c-0.268-0.066-0.568-0.1-0.902-0.1h-2.609v5.19z"/>
	<path d="m134.71 117.45v-18.816h9.883v2.76h-6.371v4.74h5.87v2.76h-5.87v5.795h6.371v2.759h-9.88z"/>
	<path d="m158.49 110.75c-0.017 0.184-0.029 0.363-0.037 0.539-0.009 0.176-0.021 0.355-0.038 0.539-0.05 0.854-0.167 1.652-0.351 2.396-0.185 0.744-0.477 1.389-0.878 1.932-0.401 0.544-0.929 0.97-1.581 1.279-0.651 0.31-1.463 0.464-2.433 0.464-1.438 0-2.567-0.217-3.387-0.651-0.819-0.436-1.434-1.037-1.844-1.807-0.41-0.769-0.664-1.685-0.765-2.747s-0.15-2.22-0.15-3.474v-2.685c0.033-1.203 0.108-2.315 0.226-3.336 0.117-1.02 0.38-1.902 0.79-2.646 0.409-0.743 1.016-1.325 1.818-1.743s1.906-0.627 3.312-0.627c3.177 0.05 4.892 1.672 5.143 4.866 0.033 0.234 0.058 0.473 0.075 0.715 0.017 0.243 0.017 0.481 0 0.715h-3.462c-0.034-0.301-0.062-0.652-0.088-1.054s-0.088-0.777-0.188-1.129c-0.1-0.351-0.263-0.651-0.488-0.902-0.227-0.251-0.557-0.377-0.991-0.377-0.686 0-1.204 0.181-1.556 0.54-0.351 0.359-0.598 0.79-0.739 1.292-0.143 0.501-0.218 1.02-0.227 1.555-0.008 0.535-0.012 0.987-0.012 1.354v5.218c0 0.385 0.021 0.815 0.062 1.292s0.142 0.924 0.301 1.342 0.409 0.765 0.753 1.041c0.342 0.276 0.814 0.414 1.417 0.414 0.484 0 0.844-0.167 1.078-0.502 0.234-0.334 0.401-0.735 0.502-1.204 0.101-0.468 0.154-0.944 0.163-1.43 0.009-0.484 0.021-0.878 0.038-1.179h3.54z"/>
	<path d="m161.33 117.45v-18.816h3.512v18.813h-3.51z"/>
	<path d="m168.28 117.45v-18.816h7.174c0.836 0 1.534 0.155 2.095 0.464 0.56 0.311 1.012 0.716 1.354 1.217 0.343 0.502 0.585 1.075 0.728 1.719 0.142 0.644 0.213 1.292 0.213 1.943 0 0.401-0.029 0.812-0.088 1.229s-0.154 0.824-0.288 1.217-0.313 0.761-0.539 1.104c-0.227 0.343-0.507 0.648-0.841 0.916-0.552 0.435-1.175 0.735-1.869 0.902-0.693 0.168-1.384 0.243-2.069 0.226h-2.357v7.877h-3.49zm3.51-10.64h1.881c0.77 0 1.388-0.205 1.856-0.614 0.468-0.41 0.702-1.184 0.702-2.32 0-0.535-0.055-0.966-0.163-1.292s-0.28-0.577-0.514-0.753c-0.234-0.176-0.527-0.292-0.878-0.351-0.352-0.059-0.778-0.088-1.279-0.088h-1.605v5.41z"/>
	<path d="m182.12 117.45v-18.816h9.883v2.76h-6.371v4.74h5.87v2.76h-5.87v5.795h6.371v2.759h-9.88z"/>
	<path d="m201.94 104.35c0-0.418-0.017-0.828-0.05-1.229-0.034-0.401-0.117-0.756-0.251-1.066-0.135-0.309-0.339-0.56-0.615-0.752-0.275-0.192-0.656-0.289-1.141-0.289-0.586 0-1.054 0.135-1.405 0.401-0.351 0.269-0.526 0.72-0.526 1.355 0 0.351 0.054 0.656 0.163 0.915 0.108 0.26 0.251 0.489 0.426 0.689 0.176 0.201 0.385 0.39 0.628 0.564 0.242 0.176 0.505 0.348 0.79 0.515 0.284 0.185 0.622 0.401 1.016 0.652 0.393 0.251 0.79 0.519 1.191 0.803s0.781 0.568 1.142 0.853c0.359 0.284 0.665 0.544 0.915 0.777 0.603 0.586 1.017 1.184 1.242 1.794s0.339 1.325 0.339 2.145c0 0.887-0.143 1.668-0.427 2.346-0.284 0.677-0.682 1.241-1.191 1.693-0.511 0.451-1.121 0.794-1.831 1.028-0.711 0.233-1.493 0.351-2.346 0.351-1.054 0-1.944-0.142-2.671-0.426-0.728-0.284-1.317-0.678-1.769-1.18-0.452-0.501-0.778-1.104-0.979-1.806s-0.301-1.472-0.301-2.308v-1.38h3.512v1.104c-0.034 0.92 0.108 1.677 0.426 2.271s0.912 0.891 1.781 0.891c1.455 0 2.183-0.736 2.183-2.208 0-0.552-0.122-1.023-0.364-1.417-0.242-0.393-0.589-0.748-1.041-1.066-0.451-0.351-0.928-0.689-1.43-1.016-0.501-0.326-0.999-0.656-1.492-0.99-0.493-0.335-0.966-0.69-1.417-1.066-0.452-0.376-0.854-0.799-1.204-1.267-0.603-0.887-0.903-1.848-0.903-2.885 0-1.622 0.451-2.855 1.354-3.7 0.903-0.844 2.291-1.267 4.164-1.267 0.937 0 1.719 0.108 2.346 0.326s1.145 0.506 1.555 0.865 0.719 0.761 0.929 1.204c0.209 0.443 0.359 0.895 0.451 1.354s0.146 0.903 0.163 1.329c0.017 0.427 0.025 0.791 0.025 1.092h-3.38z"/>
</g>
</svg>
