<?xml version="1.0" encoding="UTF-8" standalone="no"?>
<!-- Generator: Adobe Illustrator 16.0.0, SVG Export Plug-In . SVG Version: 6.00 Build 0)  -->
<!DOCTYPE svg  PUBLIC '-//W3C//DTD SVG 1.1//EN'  'http://www.w3.org/Graphics/SVG/1.1/DTD/svg11.dtd'>
<svg xmlns="http://www.w3.org/2000/svg" xml:space="preserve" height="408.06px" width="402px" version="1.1" y="0px" x="0px" xmlns:xlink="http://www.w3.org/1999/xlink" viewBox="527.75 1223.69 402 408.06" enable-background="new 527.75 1223.69 402 408.06">
<g id="Layer_2" display="none">
	<rect height="592" width="1316" y="1133.8" x="165.75" display="inline" fill="#5BBA47"/>
</g>
<g id="Layer_1" opacity=".2">
	<path d="m926.09 1223.7c1.138 1.126 2.265 0 3.402 0 5.654 10.183 12.436 16.964 21.481 23.745 7.919 5.655 18.103 12.447 29.412 15.839 3.391 1.126 7.907 1.126 11.31 2.264 3.391 1.127 6.781 2.265 10.172 2.265 11.31 1.126 26.01-2.265 35.066-5.655 4.518-1.138 9.046-3.401 13.563-6.793 3.401-2.264 10.183-7.919 12.447-6.781 4.517 1.127 3.391 4.518 4.517 9.046 2.265 7.919 6.793 16.965 11.311 22.619 5.654 7.919 13.573 18.092 21.492 23.746 3.391 2.265 7.919 4.528 11.31 6.793 3.392 2.264 6.782 4.517 10.184 6.781 3.391 2.264 7.908 4.528 11.31 6.792 3.391 2.253 6.781 5.655 10.172 7.908 10.184 6.792 30.539 12.447 48.63 11.31 5.655 0 11.31-1.126 16.965-2.253 3.401 2.253 1.138 6.781 1.138 11.31-3.391 19.218 2.264 37.32 7.919 50.894 2.253 5.655 5.654 10.172 9.045 14.7 10.173 15.827 29.401 29.401 52.021 33.93 3.391 1.126 6.793 0 9.046 2.264 0 1.127 1.138 2.254 1.138 2.254 0 1.137-4.528 9.057-6.793 12.447-2.253 4.517-4.518 10.172-5.654 14.7-1.127 7.919-3.391 22.619-1.127 35.056 1.127 3.401 2.264 7.919 3.391 11.31 2.265 7.919 4.528 16.965 5.655 24.884 1.138 4.528 1.138 9.045 2.264 13.573 2.265 10.184 10.184 23.746 15.838 31.665 2.253 3.391 6.781 7.919 11.31 12.447 3.392 3.391 12.437 7.908 12.437 10.173 1.127 4.528-4.528 5.654-7.919 7.919-13.574 10.183-23.746 24.883-29.4 42.975-2.265 2.264-2.265 6.792-3.391 10.183-1.138 4.518-2.265 7.919-2.265 12.437-1.138 9.046 1.127 20.355 3.391 29.412 2.265 9.045 5.655 16.965 10.184 22.619 1.126 1.127 6.781 6.781 5.654 9.046-1.138 4.517-3.401 3.391-9.057 4.517-9.045 2.265-16.964 6.793-23.746 11.311-7.919 5.654-18.091 14.711-23.745 22.619-2.265 3.401-4.528 7.919-6.793 12.447-4.518 7.919-9.046 14.7-14.7 22.619-2.265 3.391-5.655 6.781-6.781 11.31-5.655 12.437-11.31 28.274-9.057 46.366 0 4.527 1.138 10.183 2.264 14.7-1.126 0-1.126 1.138-2.264 2.264-1.127 1.138-5.655 0-9.046-1.126-19.229-3.391-37.319 2.264-50.894 7.919-5.655 2.253-10.172 6.781-14.7 10.172-15.838 11.31-29.401 29.412-33.93 50.894-1.126 3.391-1.126 6.793-2.264 10.184-3.391 3.391-5.655 0-11.31-3.391-14.701-7.92-40.711-14.712-61.066-7.92-7.919 2.265-15.838 3.392-23.757 5.655-7.919 2.265-16.965 2.265-24.884 4.518-16.964 5.654-32.791 16.964-42.975 30.538-3.391 3.391-4.517 7.919-6.781 7.919-4.528 1.127-4.528-2.264-6.792-6.781-4.518-6.792-11.311-12.447-16.965-16.965-7.908-5.654-18.091-12.447-29.401-15.838-3.391-1.126-7.919-1.126-11.31-2.264-3.391-1.127-7.919-2.265-11.31-2.265-20.355-1.126-39.584 5.655-52.021 14.712-2.264 2.253-4.528 3.391-7.919 5.654 0-1.138-1.138 0-2.264-1.138-1.127-1.126-2.265-7.919-3.391-11.31-3.391-11.31-10.184-21.481-16.965-28.274-4.528-5.654-9.046-11.31-15.838-14.7-5.655-4.528-12.437-6.781-19.229-11.31-5.655-4.528-12.437-7.919-18.092-12.437-6.781-4.528-11.31-6.792-20.354-10.183-11.311-3.391-23.758-6.781-39.584-4.528-3.391 0-10.184 2.264-11.311 1.138 0 0 0-1.138-2.264-2.265 5.655-21.493 1.127-47.503-7.919-63.33 0-4.528-5.655-11.31-9.046-15.838-7.919-10.183-21.492-19.229-35.056-24.884-3.401-1.126-6.792-3.391-11.31-3.391-3.401-1.126-7.919-1.126-12.447-2.264 0-2.265-1.127-2.265-1.127-2.265 0-2.253 4.518-9.045 6.782-12.436 5.654-12.437 10.183-32.803 6.792-50.895-1.138-4.528-3.401-10.183-4.528-14.7-2.264-10.183-4.528-20.355-6.781-31.665-2.265-14.711-11.31-28.274-19.229-38.457-2.265-3.391-5.655-5.655-10.184-9.046-3.391-2.264-10.172-6.792-10.172-7.919 0-5.654 4.518-5.654 7.908-9.046 6.792-4.528 12.447-11.31 16.964-16.964 5.655-7.919 13.574-19.229 15.839-29.412 1.126-6.781 2.264-14.7 3.391-21.481v-1.138c1.138-18.092-4.518-37.32-11.311-48.63-2.264-4.518-5.654-6.781-7.919-12.437 1.138 0 1.138-1.138 1.138-2.264 1.127 0 3.391 0 7.919-1.127 9.046-2.264 16.965-6.792 23.746-11.31 7.919-5.654 18.092-13.574 23.746-22.619 2.265-3.402 3.402-7.919 6.793-12.447 2.264-3.391 4.517-6.781 6.781-11.31 2.264-3.391 4.528-7.919 6.792-11.311 2.253-3.391 5.655-6.781 7.908-10.172 5.655-11.31 11.31-29.412 10.184-47.503 0-5.654-1.127-10.183-2.265-15.838 1.138 0 1.138-1.127 2.265-2.264 2.264-1.127 11.31 1.137 15.838 2.264 18.091 1.138 35.056-3.391 47.491-10.172 5.655-3.402 12.447-7.919 16.965-12.447 4.528-2.265 9.057-9.046 13.574-14.7 5.654-9.046 11.31-18.092 14.7-30.539 1.138-3.391 1.138-7.919 2.264-11.31 1.138 0 2.265-1.127 2.265-1.127 2.264 0 9.046 4.518 12.437 6.782 12.447 5.654 32.803 10.183 50.894 7.919 4.528-1.127 9.057-3.391 14.711-4.528 10.173-2.253 20.355-4.518 31.665-6.781 5.655-1.127 10.173-2.265 14.701-4.528 18.27-8 30.72-19.3 40.89-35.1m1.14 7.9c-11.31 16.964-28.274 28.273-48.63 36.193 12.437 2.253 23.746 5.654 32.792 10.172 13.574-7.919 30.538-13.574 50.894-15.827-13.57-8-24.88-18.2-35.05-30.6zm134.57 23.8c-11.31 9.046-27.137 13.574-44.102 16.965 13.574 5.655 23.746 12.447 33.93 22.619 2.264 2.265 6.781 7.92 9.045 9.046h4.528c10.173 0 21.482 0 30.527 2.265-15.7-13.6-28.1-29.5-33.8-50.9zm-318.92 56.5c13.562-5.654 31.665-9.045 52.02-7.919 9.046-9.046 16.965-16.965 27.148-23.746-24.884 2.265-44.112-3.391-59.95-12.436-2.25 18-11.31 31.6-19.22 44zm273.72-33.9c-14.7-6.781-33.929-10.172-54.284-9.046-16.965 1.127-30.538 6.781-42.975 12.437 24.884 14.711 45.239 33.929 57.675 59.95 20.366-16.965 44.112-30.538 75.777-36.193-9.1-11.4-21.5-21.6-36.2-27.2zm-159.5-4.5c-23.746 2.253-41.849 18.091-54.285 31.665 23.746 3.391 42.976 13.574 59.939 23.746 11.31-19.229 26.011-35.056 44.112-47.503-13.57-5.7-30.54-10.2-49.77-7.9zm10.19 58.8c22.62 18.103 41.837 41.848 59.939 64.468 6.781-9.046 13.574-18.092 21.481-27.137 7.919-9.057 15.839-15.838 23.758-24.884-14.701-26.01-33.93-46.376-59.939-59.939-18.11 12.3-32.81 28.1-45.24 47.4zm-152.68 3.4c-16.965 12.437-28.274 31.665-35.067 52.021 23.758-7.919 61.077-6.781 83.696 1.127 1.127-33.93 13.574-57.676 27.137-79.168-35.06-2.2-55.42 10.2-75.77 26.1zm375.49 32.8c18.102-4.518 45.238-6.781 64.468-2.265-3.392-10.172-9.046-18.091-14.701-26.01-5.654-7.919-12.436-15.827-20.355-20.355-6.792-4.528-15.838-6.781-24.883-9.045-9.046-2.265-20.355-3.391-31.665-2.265 12.5 17 21.5 37.3 27.2 60zm-320.08 21.4c22.619 7.919 42.975 16.964 63.341 27.137 5.654-31.665 14.7-58.802 27.137-84.823-16.965-11.31-36.193-20.355-61.066-23.746-16.96 21.5-27.15 47.5-29.41 81.4zm287.28-80.3c-31.665 5.654-57.686 18.102-76.903 37.331 9.045 19.217 18.091 40.71 24.872 63.329 24.884-14.7 49.768-30.538 79.168-39.584-5.7-24.8-14.8-45.1-27.2-61zm-192.28 27.2c-3.391 4.528-6.793 12.437-9.046 19.229-7.919 19.229-13.574 41.849-18.103 64.468 20.355 11.31 38.458 26.01 54.285 40.711 7.919-22.62 19.229-41.849 31.676-59.939-16.97-23.8-36.2-45.3-58.82-64.5zm296.28 31.7c16.965 4.528 31.665 12.447 41.837 21.493 2.265 1.126 3.402 3.391 4.528 3.391-4.528-12.437-6.781-30.539-3.391-46.365-22.619 4.517-44.112-1.138-59.939-9.057 6.9 7.9 12.5 19.2 17 30.6zm-462.53-26.1s-1.13 0 0 0c-13.574 4.528-31.665 6.781-47.503 3.391 3.391 22.619-1.127 44.112-9.046 59.938 9.046-6.781 19.229-12.436 31.665-16.964 4.53-18 13.58-33.8 24.89-46.3zm277.09 8c-15.838 15.826-31.665 32.791-44.112 50.894 10.183 14.7 19.229 29.4 27.147 47.503 6.781-5.655 13.574-12.447 20.355-18.103 6.792-5.654 14.7-11.31 21.492-16.965-6.85-22.6-15.9-44.1-24.94-63.3zm114.24 23.7c3.401 29.412 1.138 62.204-3.391 88.214 21.492-3.391 44.112-4.518 68.995-4.518 9.046-22.619 9.046-62.203 1.127-84.822-19.2-4.5-47.5-3.4-66.7 1.1zm72.4 84.8c33.929 1.138 57.675 13.574 79.168 27.147 1.126-31.665-9.046-54.284-22.62-71.249-13.573-18.102-30.538-32.802-55.422-39.584h-1.126c7.8 22.7 6.6 60-0.1 83.7zm-156.1-41.8c5.655 20.366 9.046 42.985 10.172 66.731 19.229-9.046 40.722-15.838 65.605-20.355 4.518-26.01 6.781-58.812 3.391-88.214-29.4 11.4-55.5 24.9-79.2 41.9zm-327.99-23.8c-4.528 19.229-3.391 47.503 1.126 65.594 29.412-3.391 62.204-1.127 88.214 3.391-3.391-21.481-4.518-44.102-4.518-68.984-21.49-7.9-61.07-7.9-84.82 0zm-6.79 2.3c-9.045 3.391-18.091 9.046-26.01 14.7-6.781 5.655-14.7 12.437-19.229 20.355-4.518 6.793-6.781 15.838-9.046 24.884-2.264 9.046-3.391 19.229-2.264 31.665 16.964-11.31 36.193-20.355 59.95-24.884-5.65-20.4-6.79-47.6-3.4-66.8zm98.4 1.1c0 24.884 1.138 46.376 4.528 67.858 19.229 3.391 36.193 7.919 53.157 14.7 0-20.355 1.127-37.32 4.518-54.284-19.24-12.4-40.72-21.5-62.21-28.3zm157.21 10.2c-12.447 18.092-22.619 37.32-30.538 58.813 9.045 10.172 18.091 20.354 26.01 31.664 9.046-16.964 20.355-30.538 31.665-44.112-7.9-15.9-15.82-32.8-27.13-46.4zm33.93 48.6c6.782 14.7 11.311 32.803 14.701 50.894 11.31-6.781 22.619-14.7 35.056-20.355 0-24.883-3.391-47.503-9.046-66.731-14.73 11.4-29.43 22.7-40.74 36.2zm-127.8 26c16.965 6.793 32.791 15.838 47.492 26.011 2.264-13.563 5.654-27.137 10.183-38.446-15.838-15.839-33.929-29.412-53.158-40.722-3.39 15.8-5.65 33.9-4.51 53.1zm412.84 9.1c9.045 7.919 16.964 15.838 23.745 26.021-2.264-24.884 4.528-45.239 12.437-59.95-18.091-2.254-31.665-11.311-42.975-19.218 5.7 13.6 9.1 32.8 6.9 53.2zm-685.41-2.3c9.046 12.437 13.574 27.137 16.965 45.238 5.655-13.573 12.447-24.883 22.619-33.929 2.265-2.265 9.046-7.919 9.046-9.057v-4.518c0-9.045 1.138-23.757 2.265-30.538-13.59 14.7-28.29 27.2-50.91 32.8zm365.3 14.7c5.655 10.172 12.447 20.355 16.965 32.792 3.401-2.254 6.792-6.782 10.183-10.173s7.919-6.792 10.184-10.183c2.253-1.127 6.781-3.391 6.781-5.655 1.127-2.264-1.126-9.045-2.264-13.573-2.265-12.437-7.919-29.401-11.311-37.32-11.31 14.8-22.62 28.4-30.54 44.2zm-244.29-37.3c10.184 29.4 24.884 55.41 40.711 78.03 20.366-5.655 42.985-9.046 66.731-10.173-9.046-19.229-15.838-40.722-20.355-65.604-24.87-3.3-58.8-5.6-87.08-2.2zm404.9 3.4c-3.391 19.229-7.919 36.193-14.701 53.157 20.355 0 37.32 1.127 54.285 4.518 11.31-19.229 20.354-39.584 27.147-62.203-23.7-1.1-46.4 1.1-66.7 4.5zm46.4 57.7c31.665 5.654 58.802 14.7 84.823 27.147 11.31-16.965 20.354-36.193 23.746-59.939-19.229-15.838-46.366-27.147-80.295-29.411-9 21.5-18.1 43-28.2 62.2zm-518.03-32.8c5.654 31.665 18.102 57.676 37.331 75.767 19.217-9.046 40.71-18.091 63.329-24.872-13.573-21.493-26.01-44.112-36.193-67.858-1.126-3.402-2.264-7.919-4.517-11.31-23.75 5.7-44.11 14.7-59.95 28.3zm180.96 40.7c14.712 0 27.147 2.264 40.722 3.391-4.528-15.827-7.919-33.929-7.919-53.158-15.838-6.781-32.803-11.31-52.021-14.7 3.39 23.8 10.17 45.3 19.22 64.5zm220.57-44.1c0 14.712-2.253 27.147-3.391 40.722 15.838-4.528 33.93-7.919 53.158-7.919 6.781-15.838 11.31-32.803 14.7-52.021h-1.127c-23.8 3.4-45.3 10.1-63.4 19.2zm-131.22 20.4c7.919 5.655 14.7 13.562 22.619 20.355 2.264-10.184 7.919-18.103 11.31-27.147-6.781-11.311-15.838-21.482-24.884-30.539-3.4 11.1-6.79 23.6-9.05 37.2zm-42.98 29.4c2.265 0 4.518 1.126 6.782 1.126s2.264 0 4.528 1.138c7.919 3.391 15.826 4.518 23.745 7.919-1.126-9.057 1.138-20.366-1.126-28.274 2.264-1.138 1.126-5.654 2.264-7.919-13.573-10.183-29.411-19.229-46.376-26.01 2.27 19.3 5.67 36.2 10.19 52.1zm167.4-47.5c-7.919 3.392-18.091 10.184-26.01 15.839-2.265 1.126-6.793 4.517-7.919 5.654 0 1.127 0 4.518 1.126 6.781 1.138 7.919 0 14.701 1.138 22.62 9.046-4.518 18.092-7.919 27.137-11.311 3.4-12.5 5.6-26.1 4.5-39.6zm-399.24 4.5c-16.965 13.574-28.274 32.792-33.929 58.813-5.655 26.01-2.265 55.41 10.172 74.64 14.711-24.884 33.929-45.239 59.95-57.676-18.1-20.3-30.54-44-36.19-75.7zm610.74 59.9c19.229 11.31 35.056 26.011 47.503 44.112 5.654-15.838 12.437-35.066 7.908-55.422-3.391-18.091-20.355-39.584-31.665-48.63-3.4 23.7-12.4 43-23.7 59.9zm-308.77-21.5c2.253 3.401 4.517 6.792 6.781 9.057 1.127-4.528 2.264-10.184 3.391-15.839 1.138-6.781 4.528-15.838 0-19.229-3.39 7.8-6.78 16.9-10.17 25.9zm-19.23-1.1c3.391 4.528 5.654 10.184 10.172 12.437 0-4.518 3.401-6.781 2.264-10.173 0-1.137-3.391-3.391-4.517-5.654-4.528-4.528-12.447-12.447-16.965-14.7 0.01 8 5.67 13.7 9.06 18.2zm76.9-17c-5.654 7.919-5.654 21.493-7.919 33.93 3.391-1.127 5.655-3.391 10.184-5.655 0.01-8.9 1.13-20.2-2.26-28.2zm99.5 10.2c-7.919 16.965-15.827 32.791-26.01 47.492 13.573 2.264 27.147 5.654 38.457 10.183 15.827-14.7 29.4-33.929 40.711-53.158-15.9-3.3-35.1-5.6-53.2-4.5zm-58.8 9.1c0 1.127-1.127 3.392-1.127 4.518v3.402c0 1.126-1.126 2.253-2.264 2.253-3.391 7.919-4.518 15.838-7.919 23.757 9.057-1.138 20.366 1.126 28.273-1.138 1.138 2.264 5.655 1.138 7.92 2.264 10.183-13.573 19.229-29.4 26.01-45.238-18.1 2.1-36.2 5.4-50.9 10zm-74.63 7.9c1.126-1.138 2.264-1.138 2.264-2.265-2.264-4.528-3.391-9.046-5.654-12.447 1.13 4.5 2.27 9 3.39 14.7zm152.73 41.8c22.619 7.919 41.849 19.229 59.939 31.676 23.757-18.103 46.376-37.331 64.468-59.95-24.884-12.437-53.158-20.355-83.696-27.137-12.5 21.5-26 39.6-40.7 55.4zm-142.54-40.7c3.391-3.391 6.781-9.046 7.908-13.574-2.26 4.6-10.18 6.8-7.91 13.6zm-22.62 4.5c1.127 2.253 3.391 3.391 3.391 5.655 2.265-2.265 3.391-4.528 4.518-6.793-2.253-4.517-2.253-11.31-4.518-16.965-1.14 6.8-2.27 12.5-3.39 18.1zm24.87 3.4c1.138 2.265 1.138 4.518 2.265 6.781 1.138 0 4.528-3.391 6.792-4.517 0-5.655 1.127-12.447 2.254-16.965-4.52 4.6-7.91 9.1-11.31 14.7zm29.41-3.4c0 4.518-1.138 6.781-1.138 11.31 5.655-2.264 10.184-5.654 14.712-9.057 4.518-3.391 10.172-6.781 12.437-12.436-9.01 1.2-18.06 5.7-25.98 10.2zm-252.2-1.1c11.31 14.7 22.619 28.274 36.183 40.722 14.711-6.792 32.802-11.31 50.894-14.711-6.781-11.311-14.701-22.62-20.355-35.056-26.01 0.1-47.5 3.5-66.72 9.1zm88.21 17c1.126 2.264 4.517 6.792 5.654 7.919 1.127 0 4.518 0 6.781-1.127 7.919-1.138 14.701-1.138 22.62-1.138-4.518-9.045-7.919-18.091-11.311-27.136-12.436-2.265-24.883-4.528-39.584-4.528 4.53 7.8 10.19 16.8 15.84 25.9zm70.12-12.5c1.127 1.127 2.253 1.127 3.391 2.265-1.138-5.655-2.264-11.31-3.391-15.838-1.13 4.5 0 9 0 13.5zm9.05 5.7c2.264 1.126 4.517 2.264 6.781 3.391 0-2.265 1.138-4.528 1.138-7.919-3.402-4.518-7.919-9.046-11.31-13.574 1.12 5.6 3.39 11.3 3.39 18.1zm14.7-5.7c2.264 2.265 4.528 4.518 6.781 6.781 1.138-3.391 2.264-5.654 2.264-7.919-2.264-3.391-4.517-6.781-6.781-9.045-1.14 2.2-2.26 5.6-2.26 10.1zm-52.02 19.3c4.518 0 6.781 1.127 11.31 1.127-2.264-5.655-5.654-10.184-9.057-14.7-3.391-4.528-6.781-10.184-12.436-12.447h-1.127c3.4 9 6.79 16.9 11.32 26zm82.56-21.5c1.127 1.126 1.127 2.264 1.127 3.391 1.138 0 2.264-2.265 2.264-2.265-1.126-1.126 0-3.391-2.264-3.391-0.01 1.1-1.13 1.1-1.13 2.3zm-219.42-1.2c-22.619 6.781-42.975 14.7-63.329 23.746 15.826 16.965 32.791 31.665 50.894 45.239 14.7-10.184 29.4-19.229 47.503-27.148-11.3-13.5-23.74-27.1-35.06-41.8zm159.48 10.2v-3.391c-4.528-1.126-9.057-4.528-12.447-4.528 4.53 2.3 7.92 5.7 12.45 7.9zm92.73-6.8c-3.391 2.265-6.781 3.391-9.046 5.655v9.045c3.391-1.126 5.655-2.264 9.046-3.391-1.13-3.3 1.14-9 0-11.3zm-52.02 10.2c0 1.138 2.264 2.265 3.391 3.402 1.138-2.265 2.265-3.402 2.265-5.655-1.127-1.138-1.127-3.401-3.392-4.528-1.13 3.4-1.13 5.7-2.26 6.8zm12.43 0c2.264 0 5.654-4.517 2.264-5.654-1.12 1.2-3.38 2.3-2.26 5.7zm-57.67 10.2c2.265 0 4.528 1.127 6.782 1.127 0-2.254-1.127-4.518-1.127-6.782-5.655-2.264-10.184-6.781-15.838-9.045 4.54 4.5 7.93 10.2 10.19 14.7zm101.79-5.7c0 2.265-1.127 4.528-1.127 6.782 2.253 0 4.518-1.127 6.781-1.127 2.265-5.655 6.781-10.184 9.046-15.838-4.52 4.5-10.17 6.7-14.7 10.1zm-33.93-6.7c1.127 1.127 1.127 3.391 2.265 3.391 0-1.138 1.126-1.138 1.126-1.138-1.126-1.126 0-4.517-2.264-5.654-0.01 2.2-1.14 2.2-1.14 3.4zm47.5 11.3h3.391c1.127-4.528 4.528-9.057 4.528-12.447-2.26 3.3-5.65 7.8-7.92 12.4zm-104.05-8c1.126 0 2.264 1.127 3.391 2.265v-3.402c-1.127-1.126-2.265-1.126-3.391-2.253-1.13 1.2 0 1.2 0 3.4zm20.35 1.2c2.265 1.138 2.265 2.264 4.528 3.391 0-1.127 1.127-2.253 1.127-3.391l-5.655-5.655c-0.01 2.3-0.01 4.5-0.01 5.7zm247.67 56.5c9.046 6.792 18.091 13.573 27.137 21.492 9.057 7.919 15.838 15.827 24.884 23.746 26.01-14.7 46.376-33.929 59.938-59.939-12.436-18.091-28.273-33.929-47.491-45.238-18 22.6-40.6 40.7-64.4 59.9zm-197.9-58.8c-3.391 1.138-5.655 5.655-2.265 9.057 1.127-1.138 2.265-1.138 3.391-1.138-1.13-2.3 0-6.9-1.13-8zm-59.94 5.7c1.127 0 2.253 1.138 4.518 2.264 0-3.391-3.391-3.391-4.518-4.517-1.14-0.1 0 1 0 2.2zm41.84 1.1c0-1.138 1.138-1.138 2.265-1.138 0-1.127-1.127-2.253-2.265-3.391-1.13 2.2-3.39 3.4 0 4.5zm-21.48 2.3c1.126 1.127 2.264 0 2.264-1.138-1.138 0-1.138-1.126-2.264-1.126v2.2zm-26.01 4.5v-4.518c-1.138 0-1.138-1.138-3.402-1.138 1.13 2.2 0 6.7 3.4 5.6zm72.37-2.3v3.401c1.138 0 3.391-1.138 5.655-1.138 0-2.264 1.138-3.391 1.138-5.655-2.27 1.2-4.53 2.3-6.8 3.4zm309.92 31.7c7.919 14.7 13.574 30.527 15.827 50.894 7.919-14.712 18.102-27.147 30.538-36.193-16.965-11.31-28.274-28.274-36.193-48.63-2.2 13.5-4.5 23.7-10.1 33.9zm-376.64-27.2h2.253v-2.265c-1.126 0-2.253-1.127-3.391-1.127 1.14 1.2 1.14 2.3 1.14 3.4zm-245.42-2.2c-26.01 13.574-46.376 33.929-59.939 59.939 12.437 18.102 28.274 33.929 47.492 45.238 18.103-22.619 41.848-41.837 64.468-59.938-19.23-13.6-35.06-30.5-52.02-45.2zm304.22 1.1c0 1.127 1.138 2.253 2.264 1.127 0-1.127 1.138-2.265-1.126-2.265 0.01 1.2-1.13 0.1-1.13 1.2zm-131.18 0c2.265 4.518 9.046 4.518 15.838 5.655 5.655 1.126 12.437 2.253 18.092 2.253-1.127-3.391-3.391-5.655-5.655-10.173-9.06 1.1-19.24 1.1-28.28 2.2zm173.03 0c-1.127 1.127-1.127 2.253-2.265 3.391 5.655-1.138 11.31-2.264 15.838-3.391-4.5-1.1-9.1-1.1-13.59 0zm-131.19 9.1h9.045c-1.126-3.391-2.264-5.655-3.391-9.046-3.391 0-6.792-1.138-11.31-1.138 1.14 4.4 3.4 7.8 5.66 10.1zm157.18-5.7c-6.781 4.518-14.7 10.172-19.218 14.7 3.391 0 6.781 2.265 10.172 2.265 6.793-6.793 13.574-13.574 19.229-21.493-4.5 1.1-6.8 2.2-10.2 4.5zm-37.3-2.3c0 1.126-1.126 2.264-2.264 3.391h3.401c1.127-1.127 1.127-2.265 2.253-3.391-1.12-1.1-1.12 0-3.39 0zm-152.68 18.1c-3.391-3.391-6.781-7.908-10.172-10.172-1.138-2.265-3.402-7.919-6.793-6.793-15.827 2.265-36.193 7.919-48.629 13.574 2.264 3.391 5.654 5.654 9.045 9.045 10.184 7.919 21.493 15.839 33.93 21.493 10.183-5.654 20.354-12.437 32.802-16.965-2.27-4.4-6.8-6.7-10.19-10.1zm206.98-18.1c-5.655 7.919-13.563 14.7-20.355 22.619 10.183 2.264 18.102 7.919 27.147 11.31 5.655-3.391 11.31-7.919 15.827-12.437 5.654-4.528 11.31-7.919 14.711-12.447-11.2-3.4-23.6-7.9-37.2-9.1zm-158.35 8h3.401c0-1.138-1.138-3.391-1.138-5.655-2.264 0-3.391-1.138-5.655-1.138 1.14 2.2 2.26 4.5 3.39 6.8zm91.62-3.4h4.517c0-1.138 1.138-1.138 1.138-3.402-2.27 1.1-5.66 0-5.66 3.4zm19.23 3.4c-1.138 2.264-2.265 4.517-3.402 6.781 2.265 0 4.528 1.138 7.92 1.138 3.391-2.265 7.919-5.655 11.31-7.919 1.138-1.138 3.391-2.265 2.264-2.265-6.8 1.1-12.45 1.1-18.1 2.3zm-99.54 21.4c-2.253 7.919-3.391 13.574-1.127 20.366 2.265 11.31 12.437 23.746 23.746 27.137 21.493 7.919 41.848-6.781 47.503-22.619 9.046-27.137-12.437-50.894-36.193-49.756-16.97 1.2-29.4 12.5-33.93 24.9zm-355.12 12.5c7.919 6.781 14.7 13.574 21.481 21.481 5.655 7.919 11.31 16.965 14.712 27.148 2.253-12.437 5.654-23.746 10.172-32.803-7.919-13.562-13.574-30.527-15.827-50.894-7.91 13.6-16.95 27.2-30.53 35.1zm443.35-32.8c0 1.138-1.138 2.265-2.265 4.528 3.391 0 3.391-3.391 4.518-4.528 0 0 0 1.1-2.25 0zm-10.19 3.4h2.265c0-1.126 1.126-2.253 1.126-3.391-2.26 0-3.39 1.1-3.39 3.4zm82.6 24.9c16.965 9.046 30.539 20.355 44.112 31.665 16.965-7.908 31.665-15.827 46.365-26.01-16.964-13.574-37.319-22.62-58.812-31.665-10.2 9-20.4 18-31.7 26zm-193.43-15.9c2.265-1.138 4.518-1.138 6.781-2.264 0-1.138-3.391-4.528-4.517-6.793-6.793 0-12.447-1.126-16.965-2.253 4.53 5.8 10.18 8 14.71 11.4zm24.88-5.6c1.127 0 2.253-1.138 1.127-2.265h-2.265c0 1.1 0 2.3 1.13 2.3zm-5.65 2.2c-1.138-1.127-1.138-2.253-1.138-3.391h-7.919c1.14 3.4 5.66 5.7 9.06 3.4zm-27.15 5.7c-3.391-3.391-9.046-6.781-13.574-7.907 4.52 2.2 7.92 10.2 13.57 7.9zm-91.6-6.8c-15.838 6.781-32.802 15.838-46.376 26.011 18.103 12.447 37.319 22.619 58.812 30.538 10.184-9.046 20.355-18.091 31.665-26.01-16.96-7.9-30.53-19.2-44.09-30.5zm220.54 7.9c1.126 0 2.253 1.127 3.391 1.127 2.264-2.265 3.391-3.391 5.654-5.655-5.65-1-7.92 1.2-9.04 4.6zm15.82-2.2c-2.265 2.264-4.518 4.528-6.782 6.781 3.391 1.138 5.655 2.264 7.919 2.264 3.391-2.264 6.782-4.517 9.046-6.781-2.3-1.2-5.7-2.3-10.19-2.3zm-131.19 3.4c0 1.138 1.126 2.264 2.264 2.264 1.127-1.126 3.391-1.126 3.391-2.264 0.01-2.3-2.25 0-5.65 0zm149.28 1.1c-2.264 2.253-5.654 4.517-7.919 6.781 4.518 1.127 10.172 2.264 15.827 3.391 6.792 1.138 15.838 4.528 19.229 0-9-4.6-18-8-27.1-10.2zm-160.58 2.2c1.126 1.138 2.264 2.264 3.391 2.264 1.126-1.126 2.264-1.126 3.391-1.126-1.13-2.3-3.4-2.3-6.78-1.2zm124.4 3.4c0-1.138 1.127-1.138 1.127-2.264-1.127 0-1.127-1.138-2.265-1.138 0 1.2 0 3.4 1.14 3.4zm-106.31 0c1.138 2.254 3.391 3.391 4.528 1.127-1.138 0-1.138-2.265-2.265-2.265-0.01 0.1-0.01 1.2-2.27 1.2zm-37.33 4.6c5.655-1.127 11.311-2.264 15.839-3.391-4.52-4.6-11.31 1.1-15.84 3.4zm148.16-1.2c2.264 1.127 3.401 2.265 5.654 2.265 1.138-1.138 3.402-1.138 4.528-3.401-4.53 0-7.92-3.4-10.18 1.1zm227.36 55.5c16.964 20.366 30.538 44.112 36.193 74.651 15.826-11.311 28.273-32.803 33.929-56.549 5.655-26.01 2.253-57.687-9.057-75.777-16.9 23.6-36.1 44-61 57.6zm-346.11-55.5c1.138 1.127 4.528 4.518 5.654 2.265-1.12-2.3-3.39-4.5-5.65-2.3zm-7.91 2.3c-5.654 1.127-11.31 2.253-16.965 4.518 5.655 1.138 11.311 2.264 16.965 4.528 2.253-2.265 4.518-2.265 5.655-4.528-1.14-2.2-3.41-3.4-5.66-4.5zm143.62 0c-1.127 1.127-3.391 2.253-5.655 3.391 2.265 2.265 4.528 3.391 6.792 4.518 4.518-2.253 11.311-2.253 16.965-4.518-6.8-1.1-12.4-2.3-18.1-3.4zm81.4 24.9c-10.172-7.907-21.481-15.826-32.791-22.619h-1.138c-10.173 5.655-20.355 12.447-32.792 16.965 2.253 3.401 6.781 6.792 10.172 10.183s6.793 7.919 10.184 10.184c1.127 2.253 3.391 6.781 5.654 6.781 3.392 1.127 9.046-1.126 13.574-2.264 13.562-3.391 27.137-6.782 37.32-11.311-3.5-3.5-6.9-5.8-10.3-8zm-260.09-18.1c-3.391 0-4.518 0-5.655 2.265 7.919 3.391 16.965 6.781 26.011 10.172 3.401-2.253 6.792-4.518 9.057-6.781-7.93-2.3-20.37-4.6-29.42-5.7zm-113.1 1.1c-23.746 15.838-46.365 37.331-65.594 59.95 24.884 12.437 53.158 20.355 83.696 27.137 12.437-20.355 26.01-38.446 40.711-54.284-21.49-8.9-40.71-20.2-58.82-32.7zm156.08 2.3c2.264 1.138 4.528 1.138 6.792 2.265 1.127 0 2.265-2.265 3.391-3.391-4.53-1.2-7.92-2.3-10.18 1.1zm122.15-1.2c1.127 1.126 3.391 3.391 5.655 2.264 0-2.3-3.41-5.6-5.66-2.3zm162.86-1.1c-14.7 9.057-30.538 19.229-47.503 26.021 5.654 6.782 12.447 13.563 18.102 20.355 5.655 6.781 11.311 14.7 16.965 21.482 22.619-6.782 42.975-14.701 62.203-23.746-14.7-17-31.7-31.7-49.8-44.2zm-142.5 4.5c1.127 0 1.127 2.264 2.265 2.264 4.517-2.264 9.045-3.391 12.436-5.654-5.7 1.2-10.2 2.3-14.7 3.4zm-27.15 1.2c1.138 0 1.138 1.138 1.138 2.265 1.126 0 1.126-1.127 3.391-1.127-1.138-2.264-2.265-2.264-3.391-3.391 0 1-1.14 1-1.14 2.2zm-170.77-1.2c-7.919 5.654-16.965 12.436-23.757 18.091-2.253 2.264-4.518 4.528-6.781 6.792 12.436 3.392 23.746 6.782 38.457 9.046 5.655-7.919 13.562-14.7 20.355-22.619-10.19-2.2-18.11-7.9-28.28-11.3zm67.85 3.4c1.126 0 1.126 1.138 2.264 1.138 0 0 0-1.138 1.127-1.138 0-1.127-1.127-1.127-2.265-2.265 0 1.2-1.13 1.2-1.13 2.3zm-19.23-1.1c-2.265 2.265-5.655 4.518-7.919 6.781 3.391 1.138 6.792 2.265 11.31 2.265 2.264-2.265 4.528-4.528 6.792-6.781-4.52 0-6.78-2.3-10.18-2.3zm137.99 1.1c0 1.138 2.264 2.264 2.264 2.264 1.127 0 2.254-1.126 3.391-1.126-1.1-2.3-2.22-3.4-5.61-1.2zm-11.31 4.6c1.126 0 1.126 1.126 1.126 1.126 2.265 0 3.391-1.126 5.655-1.126-1.13-3.4-4.52-2.3-6.78 0zm-116.49 5.6c2.253 0 3.391 1.127 5.655 1.127 1.126-2.265 2.253-2.265 3.391-4.518-4.52-4.5-6.79 1.1-9.04 3.4zm150.41 4.5c-4.528-2.253-6.792-10.172-13.573-7.908 3.4 3.4 9.1 6.8 13.6 7.9zm-28.27-4.5c0 1.127 3.391 4.518 4.518 6.781 6.792 0 12.447 2.265 16.965 1.138-5.655-2.264-10.173-6.792-14.7-9.057-2.25 0.1-4.5 1.2-6.77 1.2zm-410.54 54.3c2.253 10.183 7.908 19.229 12.437 27.147 5.654 7.908 11.31 15.827 19.229 21.481 3.391-23.746 13.574-42.975 23.746-59.939-19.229-11.31-35.056-26.01-47.503-44.112-5.67 14.7-11.32 36.2-7.92 55.4zm264.64-54.3c-6.781 6.781-13.574 13.574-19.229 21.482 6.792 0 11.31-4.518 15.838-7.908 4.528-3.401 10.184-6.793 13.574-11.31-4.52 0-6.79-1.2-10.18-2.3zm133.45 2.3c1.138 1.126 1.138 2.253 1.138 3.391h7.919c0-3.4-4.53-5.7-9.06-3.4zm-6.78 4.5h2.265c0-1.126 0-2.264-1.138-2.264 0.01 0-1.12 0-1.12 2.3zm-108.57-2.3c-4.528 3.401-9.057 7.919-13.574 11.31 5.655-1.126 11.31-2.253 16.965-3.391 1.126-2.264 2.264-4.518 3.391-6.781-2.26 0.1-4.52-1.1-6.78-1.1zm10.18 6.8h3.391c0-1.137 1.138-2.264 2.264-4.528-4.52-1.1-4.52 2.3-5.65 4.5zm10.18-1.1h3.392v-2.254c-2.26-1.1-3.39 0-3.39 2.3zm212.61 1.1c-15.838 6.782-32.803 11.311-50.894 14.701 6.781 11.31 14.7 22.619 20.354 35.056 24.884 0 47.503-3.391 66.732-9.046-11.3-15.9-22.6-29.5-36.2-40.8zm-109.7 9.1c3.391 0 6.793 1.127 11.311 1.127-1.127-3.391-3.392-6.781-5.655-10.173h-9.046c1.13 3.4 2.27 6.8 3.39 9.1zm-13.57-8c1.138 1.138 1.138 3.391 2.264 5.655 2.265 0 3.391 1.138 5.655 1.138 0-2.265-2.265-4.528-2.265-6.793-3.39 0-5.65-1.1-5.65 0zm31.67 10.2c10.172 0 20.355 0 28.274-1.138-2.265-4.518-9.057-4.518-14.712-5.655-5.654-1.126-13.562-2.253-19.218-2.253 2.22 2.3 4.52 5.7 5.62 9.1zm-270.3 46.4c16.965 2.264 35.056 4.528 54.284 3.391 6.793-16.965 15.838-32.792 26.011-47.492-13.563-2.264-27.137-5.654-38.446-10.183-16.96 17-30.53 33.9-41.84 54.3zm144.76-49.8c2.265-1.138 5.655 0 5.655-3.402-3.4 0-5.66 0-5.66 3.4zm-9.04-2.2c-1.127 1.127-1.127 2.265-2.265 3.391h4.528c0-1.126 1.127-2.264 2.265-3.391h-4.54zm-22.62 5.6h13.573c1.127-1.138 1.127-2.265 2.265-3.391-5.66 0-11.32 1.2-15.84 3.4zm53.15 0c1.127 0 2.265 0 2.265-1.138v-1.127h-2.265c-0.01 1.1-0.01 1.1-0.01 2.2zm58.82 0c1.127 0 2.254 1.126 3.391 1.126v-3.391c-2.27 0.1-4.53 0.1-3.39 2.3zm-70.13 0c0 2.264-1.138 3.391-1.138 5.654 2.265 0 4.528-2.264 6.793-2.264 0-1.127 1.126-3.391-1.138-4.528-1.12 0-2.24 1.1-4.51 1.1zm78.03 4.6c1.138 0 1.138 1.138 3.402 1.138 0-2.264-1.138-3.391-1.138-5.654-1.127 0-1.127-1.138-2.265 0 0.01 1.2 0.01 2.3 0.01 4.6zm-91.6-1.2c-2.264 5.654-6.781 10.183-9.045 15.838 4.517-3.402 10.172-6.793 14.7-9.057 0-2.253 1.127-4.518 1.127-6.781-2.25-1-3.39 0.1-6.78 0.1zm101.79 5.7c5.654 2.265 10.183 6.781 15.838 9.046-3.402-4.518-6.793-10.172-9.057-14.7-2.253 0-4.518-1.127-6.781-1.127-1.13 2.3 0 3.4 0 6.8zm-148.16-3.4c-1.138-2.264-5.654-1.138-7.919-2.264-10.183 13.573-19.229 29.4-27.147 45.238 19.229-1.126 36.193-4.528 52.031-9.045 0-2.265 1.127-4.528 1.127-6.793 0-2.253 0-2.253 1.126-4.518 3.402-7.919 4.528-15.838 7.919-23.757-6.78 2.3-19.23 0.1-27.14 1.2zm213.8 5.6c-1.127-2.265-4.518-7.919-6.781-6.793-7.919 1.138-18.103 1.138-28.274 2.265 4.518 9.045 7.919 18.102 11.31 27.147 12.437 2.265 24.884 4.518 39.584 4.518-4.5-10.1-10.2-19.1-15.8-27.1zm-183.27 6.8c2.265-4.518 5.655-7.919 7.919-13.574h-3.391c-1.13 4.6-3.39 9.1-4.53 13.6zm79.17-12.4c1.138 0 1.138 1.127 2.265 1.127 0-1.127 1.138-1.127 1.138-2.265-1.14-1.1-3.4 0.1-3.4 1.2zm52.03 0c3.391 4.518 5.655 10.172 9.046 14.7s6.781 10.184 12.437 12.437c-3.391-9.045-6.781-18.091-11.31-26.01-3.38-1.1-6.77-2.2-10.16-1.1v0zm-89.35 0v7.919c3.391-1.138 5.654-5.654 3.391-9.057-1.13 1.2-2.25 1.2-3.39 1.2zm16.96 2.3c0 1.126 1.138 1.126 1.138 3.391 2.254-1.138 3.391-3.391 1.127-4.528-1.13-0.1-2.27-0.1-2.27 1.1zm39.59 0c2.265 1.126 3.392 2.253 4.528 2.253v-3.391c-1.137 0-2.264-1.127-4.528-2.265v3.4zm-12.44 3.3l5.654 5.654c0-2.264 1.127-3.391 1.127-5.654-2.265-1.138-2.265-2.265-4.518-3.391-1.13 1.2-2.26 2.3-2.26 3.4zm259.01-3.3c-19.218 9.045-40.71 18.091-63.33 24.872 14.701 24.884 29.401 49.768 39.584 79.168 23.746-5.654 45.239-13.562 59.939-27.137-4.5-32.9-17-59-36.2-77zm-317.82 4.5c0 3.391-1.127 6.793-1.127 11.311 3.391-1.127 6.781-3.392 10.172-5.655v-9.046c-3.39 0-6.78 2.2-9.04 3.4zm46.36 3.4c1.138 1.138 1.138 3.402 3.401 4.528 1.127-2.264 1.127-4.528 2.253-6.781 0-1.138-2.253-2.264-3.391-3.401-1.12 2.3-2.26 3.4-2.26 5.7zm35.07-1.2c1.127 1.126 2.265 1.126 3.391 2.264v-4.528c-1.126 0-2.264-1.126-3.391-2.264v4.5zm-56.55-2.2c0 2.265 1.127 3.391 1.127 5.655 1.138 0 2.264-1.127 2.264-2.265-1.126-1.126-1.126-3.391-2.264-3.391h-1.13zm11.31 6.8c2.265-1.138 2.265-2.265 3.392-4.528 0 0 0-1.127-1.127-1.127-2.26 2.2-4.52 3.3-2.26 5.6zm32.79 3.4c3.401 4.518 7.919 9.046 11.31 13.574-1.126-5.655-2.253-11.311-3.391-16.965-2.264-1.138-4.518-2.265-6.781-3.402 0 1.1-1.14 3.4-1.14 6.8zm-75.76-5.7c-4.528 3.391-10.183 6.782-14.711 10.173-4.518 3.401-10.172 5.654-12.437 12.447 10.184-3.391 18.091-6.793 27.147-11.311-1.14-4.5 1.12-9 0-11.3zm111.96 7.9c-4.518-2.264-7.919-5.654-13.574-7.919v3.391c4.52 1.1 9.05 3.4 13.57 4.5zm-91.61-3.4c0 6.792-1.138 12.447-2.264 16.965 3.391-4.518 6.781-10.173 10.183-14.7-1.138-2.265-1.138-5.655-2.264-6.782-1.14 2.3-3.39 3.4-5.66 4.5zm39.59 4.5c2.265 3.391 4.518 6.781 6.781 9.046 1.138-3.391 2.265-6.782 2.265-11.31-2.265-2.265-4.528-4.518-6.781-6.782 0 3.5-1.14 5.8-2.26 9.1zm-14.7 1.2c2.253 4.528 2.253 11.31 4.518 16.964 1.138-5.654 2.264-11.31 4.528-16.964-2.265-2.254-2.265-4.518-4.528-5.655-2.27 2.3-3.4 3.4-4.52 5.7zm48.63 10.2v-13.573c-1.138-1.127-2.265-1.127-3.391-2.265 0 5.7 1.12 11.3 3.39 15.9zm-58.82-12.5c0 1.127 1.127 2.254 1.127 3.391 1.138-1.137 2.264-2.264 2.264-3.391-1.126-1.137 0-3.401-2.264-3.401 0 2.3 0 2.3-1.13 3.4zm-298.58 58.8c20.366 16.965 46.376 27.148 80.306 29.412 7.919-22.619 16.964-42.975 27.137-63.341-30.527-5.655-58.802-14.7-83.686-27.137-11.31 16.9-19.23 37.3-23.76 61zm275.96-39.6c1.127-5.654 2.265-12.436 2.265-18.091-3.391 2.264-5.655 3.391-9.046 5.655 0 10.183 0 20.354 1.127 28.273 3.39-3.4 4.53-10.2 5.65-15.9zm87.09-16.9c1.127 9.057-1.138 20.366 1.127 27.147-2.265 1.126-1.127 5.654-2.265 7.919 13.574 10.172 29.412 19.229 46.377 27.137-1.138-19.218-4.528-36.183-9.046-52.021-2.264 0-5.654-1.126-6.792-2.264h-2.265c-1.126 0-1.126-1.127-2.253-2.265-9.05-1-16.96-2.1-24.88-5.5zm-28.27 12.4c0 1.126 3.391 3.391 4.518 5.654 4.528 4.518 11.31 11.31 15.838 14.7 0-6.781-4.528-11.31-6.781-15.838-3.401-4.517-6.793-9.045-10.184-13.562h-1.126c1.12 3.4-2.27 5.6-2.27 9zm-48.63 5.7c2.253-4.528 10.172-6.792 7.907-13.573-3.4 3.4-5.66 9-7.91 13.6zm15.82-9.1c2.265 4.517 3.392 9.045 5.655 12.436-1.127-5.654-2.264-11.31-3.391-15.838-1.13 1.2-2.27 2.3-2.27 3.4zm15.84 14.7c-1.138 5.654-3.391 12.437 1.126 16.964 3.391-7.919 6.793-16.964 10.184-26.01-2.265-3.401-4.528-5.654-6.793-9.057-2.25 5.7-3.39 12.5-4.52 18.1zm-82.56-5.6c-2.265 12.437-4.528 24.884-4.528 39.584 9.045-4.528 18.091-9.045 26.01-14.7 2.264-1.138 6.792-4.528 7.919-6.792 0-1.127 0-4.518-1.127-6.782-1.138-6.792-1.138-18.102-1.138-22.619-7.91 4.5-18.08 7.9-27.13 11.3zm215.98-1.2c9.046 19.229 15.838 40.722 20.355 65.605 26.01 4.518 58.812 6.781 88.213 3.391-10.172-29.412-24.872-55.422-40.71-78.041-20.4 4.5-43 7.9-67.9 9zm-38.4 48.7c15.839 6.781 32.803 11.31 52.031 14.7-4.527-23.757-11.31-45.238-20.354-64.467-14.712 0-27.148-2.265-40.722-3.391 5.7 15.8 9.1 33.9 9.1 53.2zm-135.74-31.7c-2.253 2.265-6.781 3.401-6.781 5.655-1.127 3.401 2.264 10.183 2.264 13.573 3.391 13.574 6.781 26.011 11.31 37.32 3.391-2.253 5.655-5.655 9.046-9.046 7.919-10.172 15.838-21.481 21.493-33.929-6.793-10.173-11.311-21.482-16.965-32.792-5.65 4.4-13.57 14.6-20.36 19.1zm364.14 18.1c-2.265 2.264-9.046 6.781-9.046 9.045v4.528c0 10.173 0 21.482-2.264 30.527 13.573-14.7 28.274-27.137 50.894-32.791-9.046-12.447-13.574-27.147-16.965-45.239-5.6 11.4-13.5 25-22.6 34zm-320.03-4.5c5.654 9.045 12.436 16.964 18.091 23.757 2.264 2.253 3.401 5.654 6.792 6.781 3.392-12.437 6.782-23.746 9.046-38.457-7.919-5.655-14.7-13.563-22.619-20.355-2.26 10.2-6.78 18.1-11.31 28.3zm-145.9-19.3c-6.781 15.839-11.31 33.93-14.7 52.031 23.757-4.527 45.239-11.31 64.468-20.354 0-14.712 2.264-27.148 3.391-40.722h-1.127c-14.7 5.8-32.8 8-52.03 9.1zm-88.21 58.9c24.884 0 46.376-1.127 67.858-4.518 3.391-19.229 7.919-36.193 14.7-53.158-20.355 0-37.32-1.138-54.284-4.528-11.32 18.1-21.49 39.5-28.28 62.2zm-84.82 26c-5.654-13.562-9.045-31.665-7.919-52.021-9.046-7.919-16.965-15.838-23.746-26.01 2.265 24.884-3.391 44.102-12.436 59.939 19.22 1.1 31.67 10.2 44.11 18.1zm262.38-69c-11.31 7.919-21.493 14.7-35.056 20.354 0 24.884 3.391 47.503 9.046 66.732 14.7-11.311 28.273-22.62 40.71-36.193-6.78-15.9-10.17-32.8-14.7-50.9zm85.95 38.4c14.712 15.827 33.93 29.4 53.158 40.711 2.264-16.965 4.528-35.056 3.391-54.285-16.965-6.792-32.792-15.838-47.492-26.01-1.12 14.8-4.51 27.2-9.04 39.6zm-64.45 14.7c7.907 16.965 15.826 31.665 26.01 46.365 13.574-16.964 22.619-37.319 31.665-58.812-9.046-10.172-18.091-20.355-26.01-31.665-7.93 15.9-19.24 30.6-31.67 44.1zm-286.15-31.6c-1.127 31.665 10.183 53.147 22.619 71.249 13.574 18.092 30.538 32.792 55.422 39.584-7.919-23.757-6.781-61.076 1.127-83.696-33.93-2.3-57.68-14.7-79.17-27.1v0zm593.73 74.6c7.919-5.654 15.838-12.436 20.366-20.355 4.518-6.792 6.781-15.838 9.045-24.883 2.265-9.046 3.392-19.229 2.265-30.539-16.965 11.311-36.193 20.355-59.95 26.011 4.528 18.102 6.792 45.238 2.264 64.468 10.1-3.4 18-9 25.9-14.7zm-369.79-73.5c-19.229 9.046-40.722 15.838-65.604 20.355-4.518 26.01-6.781 58.812-3.391 88.213 29.411-10.172 55.422-24.872 78.041-40.71-4.53-20.4-7.92-43-9.05-67.9zm185.49 59.9c19.229 11.31 39.584 20.354 62.204 27.147 0-24.884-1.127-46.377-4.518-67.858-19.229-3.391-36.193-7.919-53.158-14.7 0 20.5-2.2 38.6-4.5 55.5zm-324.6-35c-9.045 22.619-9.045 62.203-1.126 84.822 19.229 4.518 47.503 3.391 65.594-1.138-2.264-21.481-1.127-48.629 1.138-70.111 1.127-6.792 2.253-12.447 2.253-18.102-20.35 4.5-42.97 5.6-67.85 4.5zm387.9-4.5c2.253 20.354 4.517 44.112 4.517 68.995 22.62 9.046 62.204 9.046 84.823 1.127 4.528-19.229 3.391-47.503-1.127-65.594-29.4 2.2-62.2 0-88.2-4.5zm-156.06 62.2c18.102 23.757 37.331 46.376 59.95 64.468 12.437-24.884 20.355-53.158 26.01-83.696-20.355-12.437-38.457-26.011-54.284-40.711-7.92 21.4-19.23 40.6-31.68 59.9zm-33.92-47.5c-12.436 13.574-27.137 24.884-41.837 36.193 6.781 22.619 14.7 42.975 23.746 62.203 16.965-15.827 31.665-32.791 45.239-50.894-11.32-14.7-19.24-31.7-27.15-47.5zm125.58 30.5c-5.655 31.665-14.7 58.812-27.147 84.823 16.964 11.31 36.192 20.355 59.938 23.757 16.965-20.366 27.148-46.376 29.412-80.306-21.5-7.9-43-18.1-62.2-28.3zm-251.12 47.5c5.655 23.746 13.574 45.239 27.147 59.939 31.665-5.654 57.676-18.091 75.767-37.319-9.046-18.092-18.091-39.584-23.746-62.204h-1.126c-23.75 15.9-48.64 30.6-78.04 39.6zm409.42-19.2c-4.528 16.965-12.447 31.665-21.493 41.849-1.127 2.264-3.391 3.391-3.391 4.528 12.437-4.528 30.538-6.793 46.365-3.402-4.518-22.619 1.138-44.102 9.057-59.939-8 7.9-18.2 13.6-30.6 17zm-253.35-6.8c-6.782 9.046-14.701 18.091-22.62 27.137-7.919 7.919-15.826 15.838-22.619 24.884 14.7 26.01 33.929 46.376 59.939 59.938 18.102-12.436 33.929-28.273 45.238-47.491-23.74-18-41.83-40.7-59.94-64.4zm-277.08 50.9c22.619-4.528 44.112 1.127 59.938 9.046-5.654-9.046-12.436-19.229-15.826-30.539-19.229-4.517-33.93-13.573-47.503-24.883 4.52 11.3 6.78 29.4 3.39 46.4zm441.03-41.9c-1.1 0-1.1 0 0 0-2.264 33.929-13.573 57.675-27.137 79.168 31.665 1.126 54.284-9.046 72.376-22.62 18.102-13.573 32.803-31.665 39.584-55.422-24.9 6.8-62.2 5.6-84.9-1.2zm-324.55 27.2c-1.126-3.402 0-9.057-3.391-7.919-18.091 4.517-42.975 6.781-63.33 2.264 3.391 9.046 9.046 18.092 14.7 26.011 5.655 6.781 12.437 15.826 20.355 20.354 6.793 4.528 15.838 6.782 24.884 9.046 9.046 2.265 19.229 3.391 31.665 2.265-10.15-14.8-19.21-32.9-24.87-52.1zm110.85 19.2c-19.229 16.964-44.112 30.538-74.65 36.193 12.447 16.964 32.803 28.274 57.687 33.929 26.01 5.655 57.675 2.265 75.766-10.172-26.02-14.7-45.25-33.9-58.81-59.9zm114.22 12.4c-12.436 18.091-26.01 35.056-44.112 47.503 14.712 5.654 35.067 12.437 55.423 7.908 9.045-2.254 19.229-7.908 27.147-12.437 7.908-5.655 15.827-12.437 21.481-19.229-23.7-3.4-42.9-12.4-59.88-23.8zm66.78 24.9c-7.919 9.045-15.838 16.964-26.021 23.745 24.884-2.264 45.239 4.528 59.95 12.437 2.253-18.091 11.31-31.665 19.218-42.975-13.7 5.8-31.8 9.2-53.2 6.9zm-265.82 48.7c12.437-7.919 27.137-13.573 45.238-16.965-13.573-5.654-23.757-12.447-33.929-22.619-2.265-2.264-6.793-9.045-9.057-9.045h-4.518c-9.045 0-22.619 0-30.538-2.265 14.7 13.5 28.28 28.2 32.81 50.9zm149.28-22.7c-13.562 9.046-30.527 13.574-50.894 15.827 14.711 7.919 27.147 16.964 36.193 30.538 5.654-7.919 13.573-14.7 21.492-21.481 7.919-5.655 16.965-11.31 27.137-14.712-13.57-2.1-23.75-5.5-33.93-10.1z" fill="#fff"/>
</g>
</svg>
