<?xml version="1.0" encoding="utf-8"?>
<!-- Generator: Adobe Illustrator 16.0.0, SVG Export Plug-In . SVG Version: 6.00 Build 0)  -->
<!DOCTYPE svg PUBLIC "-//W3C//DTD SVG 1.1//EN" "http://www.w3.org/Graphics/SVG/1.1/DTD/svg11.dtd">
<svg version="1.1" xmlns="http://www.w3.org/2000/svg" xmlns:xlink="http://www.w3.org/1999/xlink" x="0px" y="0px" width="402px"
	 height="408.06px" viewBox="527.75 1223.69 402 408.06" enable-background="new 527.75 1223.69 402 408.06" xml:space="preserve">
<g id="Layer_2" display="none">
	<rect x="165.75" y="1133.75" display="inline" fill="#5BBA47" width="1316" height="592"/>
</g>
<g id="Layer_1" opacity="0.2">
	<path fill="#FFFFFF" d="M926.09,1223.69c1.138,1.126,2.265,0,3.402,0c5.654,10.183,12.436,16.964,21.481,23.745
		c7.919,5.655,18.103,12.447,29.412,15.839c3.391,1.126,7.907,1.126,11.31,2.264c3.391,1.127,6.781,2.265,10.172,2.265
		c11.31,1.126,26.01-2.265,35.066-5.655c4.518-1.138,9.046-3.401,13.563-6.793c3.401-2.264,10.183-7.919,12.447-6.781
		c4.517,1.127,3.391,4.518,4.517,9.046c2.265,7.919,6.793,16.965,11.311,22.619c5.654,7.919,13.573,18.092,21.492,23.746
		c3.391,2.265,7.919,4.528,11.31,6.793c3.392,2.264,6.782,4.517,10.184,6.781c3.391,2.264,7.908,4.528,11.31,6.792
		c3.391,2.253,6.781,5.655,10.172,7.908c10.184,6.792,30.539,12.447,48.63,11.31c5.655,0,11.31-1.126,16.965-2.253
		c3.401,2.253,1.138,6.781,1.138,11.31c-3.391,19.218,2.264,37.32,7.919,50.894c2.253,5.655,5.654,10.172,9.045,14.7
		c10.173,15.827,29.401,29.401,52.021,33.93c3.391,1.126,6.793,0,9.046,2.264c0,1.127,1.138,2.254,1.138,2.254
		c0,1.137-4.528,9.057-6.793,12.447c-2.253,4.517-4.518,10.172-5.654,14.7c-1.127,7.919-3.391,22.619-1.127,35.056
		c1.127,3.401,2.264,7.919,3.391,11.31c2.265,7.919,4.528,16.965,5.655,24.884c1.138,4.528,1.138,9.045,2.264,13.573
		c2.265,10.184,10.184,23.746,15.838,31.665c2.253,3.391,6.781,7.919,11.31,12.447c3.392,3.391,12.437,7.908,12.437,10.173
		c1.127,4.528-4.528,5.654-7.919,7.919c-13.574,10.183-23.746,24.883-29.4,42.975c-2.265,2.264-2.265,6.792-3.391,10.183
		c-1.138,4.518-2.265,7.919-2.265,12.437c-1.138,9.046,1.127,20.355,3.391,29.412c2.265,9.045,5.655,16.965,10.184,22.619
		c1.126,1.127,6.781,6.781,5.654,9.046c-1.138,4.517-3.401,3.391-9.057,4.517c-9.045,2.265-16.964,6.793-23.746,11.311
		c-7.919,5.654-18.091,14.711-23.745,22.619c-2.265,3.401-4.528,7.919-6.793,12.447c-4.518,7.919-9.046,14.7-14.7,22.619
		c-2.265,3.391-5.655,6.781-6.781,11.31c-5.655,12.437-11.31,28.274-9.057,46.366c0,4.527,1.138,10.183,2.264,14.7
		c-1.126,0-1.126,1.138-2.264,2.264c-1.127,1.138-5.655,0-9.046-1.126c-19.229-3.391-37.319,2.264-50.894,7.919
		c-5.655,2.253-10.172,6.781-14.7,10.172c-15.838,11.31-29.401,29.412-33.93,50.894c-1.126,3.391-1.126,6.793-2.264,10.184
		c-3.391,3.391-5.655,0-11.31-3.391c-14.701-7.92-40.711-14.712-61.066-7.92c-7.919,2.265-15.838,3.392-23.757,5.655
		c-7.919,2.265-16.965,2.265-24.884,4.518c-16.964,5.654-32.791,16.964-42.975,30.538c-3.391,3.391-4.517,7.919-6.781,7.919
		c-4.528,1.127-4.528-2.264-6.792-6.781c-4.518-6.792-11.311-12.447-16.965-16.965c-7.908-5.654-18.091-12.447-29.401-15.838
		c-3.391-1.126-7.919-1.126-11.31-2.264c-3.391-1.127-7.919-2.265-11.31-2.265c-20.355-1.126-39.584,5.655-52.021,14.712
		c-2.264,2.253-4.528,3.391-7.919,5.654c0-1.138-1.138,0-2.264-1.138c-1.127-1.126-2.265-7.919-3.391-11.31
		c-3.391-11.31-10.184-21.481-16.965-28.274c-4.528-5.654-9.046-11.31-15.838-14.7c-5.655-4.528-12.437-6.781-19.229-11.31
		c-5.655-4.528-12.437-7.919-18.092-12.437c-6.781-4.528-11.31-6.792-20.354-10.183c-11.311-3.391-23.758-6.781-39.584-4.528
		c-3.391,0-10.184,2.264-11.311,1.138c0,0,0-1.138-2.264-2.265c5.655-21.493,1.127-47.503-7.919-63.33
		c0-4.528-5.655-11.31-9.046-15.838c-7.919-10.183-21.492-19.229-35.056-24.884c-3.401-1.126-6.792-3.391-11.31-3.391
		c-3.401-1.126-7.919-1.126-12.447-2.264c0-2.265-1.127-2.265-1.127-2.265c0-2.253,4.518-9.045,6.782-12.436
		c5.654-12.437,10.183-32.803,6.792-50.895c-1.138-4.528-3.401-10.183-4.528-14.7c-2.264-10.183-4.528-20.355-6.781-31.665
		c-2.265-14.711-11.31-28.274-19.229-38.457c-2.265-3.391-5.655-5.655-10.184-9.046c-3.391-2.264-10.172-6.792-10.172-7.919
		c0-5.654,4.518-5.654,7.908-9.046c6.792-4.528,12.447-11.31,16.964-16.964c5.655-7.919,13.574-19.229,15.839-29.412
		c1.126-6.781,2.264-14.7,3.391-21.481c0,0,0,0,0-1.138c1.138-18.092-4.518-37.32-11.311-48.63
		c-2.264-4.518-5.654-6.781-7.919-12.437c1.138,0,1.138-1.138,1.138-2.264c1.127,0,3.391,0,7.919-1.127
		c9.046-2.264,16.965-6.792,23.746-11.31c7.919-5.654,18.092-13.574,23.746-22.619c2.265-3.402,3.402-7.919,6.793-12.447
		c2.264-3.391,4.517-6.781,6.781-11.31c2.264-3.391,4.528-7.919,6.792-11.311c2.253-3.391,5.655-6.781,7.908-10.172
		c5.655-11.31,11.31-29.412,10.184-47.503c0-5.654-1.127-10.183-2.265-15.838c1.138,0,1.138-1.127,2.265-2.264
		c2.264-1.127,11.31,1.137,15.838,2.264c18.091,1.138,35.056-3.391,47.491-10.172c5.655-3.402,12.447-7.919,16.965-12.447
		c4.528-2.265,9.057-9.046,13.574-14.7c5.654-9.046,11.31-18.092,14.7-30.539c1.138-3.391,1.138-7.919,2.264-11.31
		c1.138,0,2.265-1.127,2.265-1.127c2.264,0,9.046,4.518,12.437,6.782c12.447,5.654,32.803,10.183,50.894,7.919
		c4.528-1.127,9.057-3.391,14.711-4.528c10.173-2.253,20.355-4.518,31.665-6.781c5.655-1.127,10.173-2.265,14.701-4.528
		C903.471,1250.838,915.918,1239.528,926.09,1223.69 M927.228,1231.609c-11.31,16.964-28.274,28.273-48.63,36.193
		c12.437,2.253,23.746,5.654,32.792,10.172c13.574-7.919,30.538-13.574,50.894-15.827
		C948.709,1254.229,937.399,1244.045,927.228,1231.609z M1061.807,1255.354c-11.31,9.046-27.137,13.574-44.102,16.965
		c13.574,5.655,23.746,12.447,33.93,22.619c2.264,2.265,6.781,7.92,9.045,9.046c1.127,0,3.391,0,4.528,0
		c10.173,0,21.482,0,30.527,2.265C1079.908,1292.675,1067.461,1276.848,1061.807,1255.354z M742.882,1311.903
		c13.562-5.654,31.665-9.045,52.02-7.919c9.046-9.046,16.965-16.965,27.148-23.746c-24.884,2.265-44.112-3.391-59.95-12.436
		C759.846,1285.894,750.789,1299.467,742.882,1311.903z M1016.567,1277.975c-14.7-6.781-33.929-10.172-54.284-9.046
		c-16.965,1.127-30.538,6.781-42.975,12.437c24.884,14.711,45.239,33.929,57.675,59.95c20.366-16.965,44.112-30.538,75.777-36.193
		C1043.716,1293.812,1031.279,1283.629,1016.567,1277.975z M857.105,1273.457c-23.746,2.253-41.849,18.091-54.285,31.665
		c23.746,3.391,42.976,13.574,59.939,23.746c11.31-19.229,26.011-35.056,44.112-47.503
		C893.299,1275.71,876.334,1271.193,857.105,1273.457z M867.288,1332.259c22.62,18.103,41.837,41.848,59.939,64.468
		c6.781-9.046,13.574-18.092,21.481-27.137c7.919-9.057,15.839-15.838,23.758-24.884c-14.701-26.01-33.93-46.376-59.939-59.939
		C894.425,1297.203,879.725,1313.041,867.288,1332.259z M714.607,1335.66c-16.965,12.437-28.274,31.665-35.067,52.021
		c23.758-7.919,61.077-6.781,83.696,1.127c1.127-33.93,13.574-57.676,27.137-79.168
		C755.317,1307.387,734.963,1319.822,714.607,1335.66z M1090.081,1368.452c18.102-4.518,45.238-6.781,64.468-2.265
		c-3.392-10.172-9.046-18.091-14.701-26.01c-5.654-7.919-12.436-15.827-20.355-20.355c-6.792-4.528-15.838-6.781-24.883-9.045
		c-9.046-2.265-20.355-3.391-31.665-2.265C1075.381,1325.478,1084.426,1345.833,1090.081,1368.452z M770.019,1389.945
		c22.619,7.919,42.975,16.964,63.341,27.137c5.654-31.665,14.7-58.802,27.137-84.823c-16.965-11.31-36.193-20.355-61.066-23.746
		C782.466,1330.006,772.282,1356.016,770.019,1389.945z M1057.289,1309.64c-31.665,5.654-57.686,18.102-76.903,37.331
		c9.045,19.217,18.091,40.71,24.872,63.329c24.884-14.7,49.768-30.538,79.168-39.584
		C1078.771,1345.833,1069.726,1325.478,1057.289,1309.64z M865.024,1336.787c-3.391,4.528-6.793,12.437-9.046,19.229
		c-7.919,19.229-13.574,41.849-18.103,64.468c20.355,11.31,38.458,26.01,54.285,40.711c7.919-22.62,19.229-41.849,31.676-59.939
		C906.872,1377.498,887.644,1356.016,865.024,1336.787z M1161.341,1368.452c16.965,4.528,31.665,12.447,41.837,21.493
		c2.265,1.126,3.402,3.391,4.528,3.391c-4.528-12.437-6.781-30.539-3.391-46.365c-22.619,4.517-44.112-1.138-59.939-9.057l0,0
		C1151.157,1345.833,1156.812,1357.143,1161.341,1368.452z M698.77,1342.442C698.77,1342.442,697.643,1342.442,698.77,1342.442
		c-13.574,4.528-31.665,6.781-47.503,3.391c3.391,22.619-1.127,44.112-9.046,59.938c9.046-6.781,19.229-12.436,31.665-16.964
		C678.414,1370.716,687.46,1354.878,698.77,1342.442z M975.857,1350.361c-15.838,15.826-31.665,32.791-44.112,50.894
		c10.183,14.7,19.229,29.4,27.147,47.503c6.781-5.655,13.574-12.447,20.355-18.103c6.792-5.654,14.7-11.31,21.492-16.965
		C993.948,1391.071,984.902,1369.59,975.857,1350.361z M1090.081,1374.106c3.401,29.412,1.138,62.204-3.391,88.214
		c21.492-3.391,44.112-4.518,68.995-4.518c9.046-22.619,9.046-62.203,1.127-84.822
		C1137.584,1368.452,1109.31,1369.59,1090.081,1374.106z M1162.468,1458.93c33.929,1.138,57.675,13.574,79.168,27.147
		c1.126-31.665-9.046-54.284-22.62-71.249c-13.573-18.102-30.538-32.802-55.422-39.584h-1.126
		C1170.387,1397.864,1169.249,1435.184,1162.468,1458.93z M1006.396,1417.082c5.655,20.366,9.046,42.985,10.172,66.731
		c19.229-9.046,40.722-15.838,65.605-20.355c4.518-26.01,6.781-58.812,3.391-88.214l0,0
		C1056.151,1386.555,1030.142,1400.117,1006.396,1417.082z M678.414,1393.336c-4.528,19.229-3.391,47.503,1.126,65.594
		c29.412-3.391,62.204-1.127,88.214,3.391c-3.391-21.481-4.518-44.102-4.518-68.984
		C741.744,1385.417,702.16,1385.417,678.414,1393.336z M671.621,1395.6c-9.045,3.391-18.091,9.046-26.01,14.7
		c-6.781,5.655-14.7,12.437-19.229,20.355c-4.518,6.793-6.781,15.838-9.046,24.884c-2.264,9.046-3.391,19.229-2.264,31.665
		c16.964-11.31,36.193-20.355,59.95-24.884C669.368,1441.965,668.23,1414.828,671.621,1395.6z M770.019,1396.727
		c0,24.884,1.138,46.376,4.528,67.858c19.229,3.391,36.193,7.919,53.157,14.7c0-20.355,1.127-37.32,4.518-54.284
		C812.993,1412.564,791.511,1403.519,770.019,1396.727z M927.228,1406.909c-12.447,18.092-22.619,37.32-30.538,58.813
		c9.045,10.172,18.091,20.354,26.01,31.664c9.046-16.964,20.355-30.538,31.665-44.112
		C946.456,1437.448,938.537,1420.483,927.228,1406.909z M961.156,1455.539c6.782,14.7,11.311,32.803,14.701,50.894
		c11.31-6.781,22.619-14.7,35.056-20.355c0-24.883-3.391-47.503-9.046-66.731C987.167,1430.655,972.467,1441.965,961.156,1455.539z
		 M833.359,1481.549c16.965,6.793,32.791,15.838,47.492,26.011c2.264-13.563,5.654-27.137,10.183-38.446
		c-15.838-15.839-33.929-29.412-53.158-40.722C834.485,1444.229,832.222,1462.32,833.359,1481.549z M1246.164,1490.595
		c9.045,7.919,16.964,15.838,23.745,26.021c-2.264-24.884,4.528-45.239,12.437-59.95c-18.091-2.254-31.665-11.311-42.975-19.218
		C1245.026,1451.011,1248.417,1470.239,1246.164,1490.595z M560.788,1488.342c9.046,12.437,13.574,27.137,16.965,45.238
		c5.655-13.573,12.447-24.883,22.619-33.929c2.265-2.265,9.046-7.919,9.046-9.057c0-1.127,0-3.391,0-4.518
		c0-9.045,1.138-23.757,2.265-30.538C598.108,1470.239,583.408,1482.687,560.788,1488.342z M926.09,1503.042
		c5.655,10.172,12.447,20.355,16.965,32.792c3.401-2.254,6.792-6.782,10.183-10.173s7.919-6.792,10.184-10.183
		c2.253-1.127,6.781-3.391,6.781-5.655c1.127-2.264-1.126-9.045-2.264-13.573c-2.265-12.437-7.919-29.401-11.311-37.32
		C945.318,1473.63,934.009,1487.204,926.09,1503.042z M681.805,1465.723c10.184,29.4,24.884,55.41,40.711,78.03
		c20.366-5.655,42.985-9.046,66.731-10.173c-9.046-19.229-15.838-40.722-20.355-65.604
		C744.008,1464.585,710.079,1462.32,681.805,1465.723z M1086.69,1469.113c-3.391,19.229-7.919,36.193-14.701,53.157
		c20.355,0,37.32,1.127,54.285,4.518c11.31-19.229,20.354-39.584,27.147-62.203
		C1129.665,1463.458,1107.045,1465.723,1086.69,1469.113z M1133.066,1526.788c31.665,5.654,58.802,14.7,84.823,27.147
		c11.31-16.965,20.354-36.193,23.746-59.939c-19.229-15.838-46.366-27.147-80.295-29.411
		C1152.284,1486.077,1143.238,1507.56,1133.066,1526.788z M615.073,1493.996c5.654,31.665,18.102,57.676,37.331,75.767
		c19.217-9.046,40.71-18.091,63.329-24.872c-13.573-21.493-26.01-44.112-36.193-67.858c-1.126-3.402-2.264-7.919-4.517-11.31
		C651.267,1471.377,630.911,1480.423,615.073,1493.996z M796.028,1534.707c14.712,0,27.147,2.264,40.722,3.391
		c-4.528-15.827-7.919-33.929-7.919-53.158c-15.838-6.781-32.803-11.31-52.021-14.7
		C780.201,1493.996,786.982,1515.479,796.028,1534.707z M1016.567,1490.595c0,14.712-2.253,27.147-3.391,40.722
		c15.838-4.528,33.93-7.919,53.158-7.919c6.781-15.838,11.31-32.803,14.7-52.021c0,0,0,0-1.127,0
		C1056.151,1474.768,1034.67,1481.549,1016.567,1490.595z M885.38,1510.961c7.919,5.655,14.7,13.562,22.619,20.355
		c2.264-10.184,7.919-18.103,11.31-27.147c-6.781-11.311-15.838-21.482-24.884-30.539
		C891.034,1484.939,887.644,1497.387,885.38,1510.961z M842.404,1540.362c2.265,0,4.518,1.126,6.782,1.126
		c2.264,0,2.264,0,4.528,1.138c7.919,3.391,15.826,4.518,23.745,7.919c-1.126-9.057,1.138-20.366-1.126-28.274
		c2.264-1.138,1.126-5.654,2.264-7.919c-13.573-10.183-29.411-19.229-46.376-26.01
		C834.485,1507.56,837.876,1524.523,842.404,1540.362z M1009.786,1492.858c-7.919,3.392-18.091,10.184-26.01,15.839
		c-2.265,1.126-6.793,4.517-7.919,5.654c0,1.127,0,4.518,1.126,6.781c1.138,7.919,0,14.701,1.138,22.62
		c9.046-4.518,18.092-7.919,27.137-11.311C1008.66,1520.007,1010.913,1506.433,1009.786,1492.858z M610.556,1497.387
		c-16.965,13.574-28.274,32.792-33.929,58.813c-5.655,26.01-2.265,55.41,10.172,74.64c14.711-24.884,33.929-45.239,59.95-57.676
		C628.646,1552.798,616.211,1529.052,610.556,1497.387z M1221.28,1557.326c19.229,11.31,35.056,26.011,47.503,44.112
		c5.654-15.838,12.437-35.066,7.908-55.422c-3.391-18.091-20.355-39.584-31.665-48.63
		C1241.636,1521.133,1232.59,1540.362,1221.28,1557.326z M912.527,1535.834c2.253,3.401,4.517,6.792,6.781,9.057
		c1.127-4.528,2.264-10.184,3.391-15.839c1.138-6.781,4.528-15.838,0-19.229C919.309,1517.742,915.918,1526.788,912.527,1535.834z
		 M893.299,1534.707c3.391,4.528,5.654,10.184,10.172,12.437c0-4.518,3.401-6.781,2.264-10.173c0-1.137-3.391-3.391-4.517-5.654
		c-4.528-4.528-12.447-12.447-16.965-14.7C884.253,1524.523,889.908,1530.179,893.299,1534.707z M970.202,1517.742
		c-5.654,7.919-5.654,21.493-7.919,33.93c3.391-1.127,5.655-3.391,10.184-5.655C972.467,1536.971,973.593,1525.661,970.202,1517.742
		z M1069.726,1527.926c-7.919,16.965-15.827,32.791-26.01,47.492c13.573,2.264,27.147,5.654,38.457,10.183
		c15.827-14.7,29.4-33.929,40.711-53.158C1107.045,1529.052,1087.828,1526.788,1069.726,1527.926z M1010.913,1536.971
		c0,1.127-1.127,3.392-1.127,4.518c0,1.138,0,3.402,0,3.402c0,1.126-1.126,2.253-2.264,2.253
		c-3.391,7.919-4.518,15.838-7.919,23.757c9.057-1.138,20.366,1.126,28.273-1.138c1.138,2.264,5.655,1.138,7.92,2.264
		c10.183-13.573,19.229-29.4,26.01-45.238C1043.716,1529.052,1025.624,1532.442,1010.913,1536.971z M936.273,1544.891
		c1.126-1.138,2.264-1.138,2.264-2.265c-2.264-4.528-3.391-9.046-5.654-12.447C934.009,1534.707,935.146,1539.235,936.273,1544.891z
		 M1088.954,1586.728c22.619,7.919,41.849,19.229,59.939,31.676c23.757-18.103,46.376-37.331,64.468-59.95
		c-24.884-12.437-53.158-20.355-83.696-27.137C1117.229,1552.798,1103.654,1570.9,1088.954,1586.728z M946.456,1546.017
		c3.391-3.391,6.781-9.046,7.908-13.574C952.111,1536.971,944.192,1539.235,946.456,1546.017z M923.837,1550.545
		c1.127,2.253,3.391,3.391,3.391,5.655c2.265-2.265,3.391-4.528,4.518-6.793c-2.253-4.517-2.253-11.31-4.518-16.965
		C926.09,1539.235,924.964,1544.891,923.837,1550.545z M948.709,1553.936c1.138,2.265,1.138,4.518,2.265,6.781
		c1.138,0,4.528-3.391,6.792-4.517c0-5.655,1.127-12.447,2.254-16.965C955.502,1543.753,952.111,1548.281,948.709,1553.936z
		 M978.121,1550.545c0,4.518-1.138,6.781-1.138,11.31c5.655-2.264,10.184-5.654,14.712-9.057
		c4.518-3.391,10.172-6.781,12.437-12.436C995.086,1541.488,986.04,1546.017,978.121,1550.545z M725.917,1549.407
		c11.31,14.7,22.619,28.274,36.183,40.722c14.711-6.792,32.802-11.31,50.894-14.711c-6.781-11.311-14.701-22.62-20.355-35.056
		C766.628,1540.362,745.135,1543.753,725.917,1549.407z M814.131,1566.372c1.126,2.264,4.517,6.792,5.654,7.919
		c1.127,0,4.518,0,6.781-1.127c7.919-1.138,14.701-1.138,22.62-1.138c-4.518-9.045-7.919-18.091-11.311-27.136
		c-12.436-2.265-24.883-4.528-39.584-4.528C802.82,1548.281,808.476,1557.326,814.131,1566.372z M884.253,1553.936
		c1.127,1.127,2.253,1.127,3.391,2.265c-1.138-5.655-2.264-11.31-3.391-15.838C883.115,1544.891,884.253,1549.407,884.253,1553.936z
		 M893.299,1559.591c2.264,1.126,4.517,2.264,6.781,3.391c0-2.265,1.138-4.528,1.138-7.919c-3.402-4.518-7.919-9.046-11.31-13.574
		C891.034,1547.144,893.299,1552.798,893.299,1559.591z M907.999,1553.936c2.264,2.265,4.528,4.518,6.781,6.781
		c1.138-3.391,2.264-5.654,2.264-7.919c-2.264-3.391-4.517-6.781-6.781-9.045C909.125,1546.017,907.999,1549.407,907.999,1553.936z
		 M855.979,1573.164c4.518,0,6.781,1.127,11.31,1.127c-2.264-5.655-5.654-10.184-9.057-14.7
		c-3.391-4.528-6.781-10.184-12.436-12.447c0,0,0,0-1.127,0C848.06,1556.2,851.45,1564.107,855.979,1573.164z M938.537,1551.672
		c1.127,1.126,1.127,2.264,1.127,3.391c1.138,0,2.264-2.265,2.264-2.265c-1.126-1.126,0-3.391-2.264-3.391
		C939.664,1550.545,938.537,1550.545,938.537,1551.672z M719.124,1550.545L719.124,1550.545
		c-22.619,6.781-42.975,14.7-63.329,23.746c15.826,16.965,32.791,31.665,50.894,45.239c14.7-10.184,29.4-19.229,47.503-27.148
		C742.882,1578.819,730.435,1565.245,719.124,1550.545z M878.598,1560.717c0-1.126,0-2.264,0-3.391
		c-4.528-1.126-9.057-4.528-12.447-4.528C870.679,1555.062,874.069,1558.453,878.598,1560.717z M971.329,1553.936
		c-3.391,2.265-6.781,3.391-9.046,5.655c0,3.391,0,5.654,0,9.045c3.391-1.126,5.655-2.264,9.046-3.391
		C970.202,1561.854,972.467,1556.2,971.329,1553.936z M919.309,1564.107c0,1.138,2.264,2.265,3.391,3.402
		c1.138-2.265,2.265-3.402,2.265-5.655c-1.127-1.138-1.127-3.401-3.392-4.528C920.436,1560.717,920.436,1562.981,919.309,1564.107z
		 M931.745,1564.107c2.264,0,5.654-4.517,2.264-5.654C932.883,1559.591,930.618,1560.717,931.745,1564.107z M874.069,1574.291
		c2.265,0,4.528,1.127,6.782,1.127c0-2.254-1.127-4.518-1.127-6.782c-5.655-2.264-10.184-6.781-15.838-9.045
		C868.415,1564.107,871.806,1569.763,874.069,1574.291z M975.857,1568.636c0,2.265-1.127,4.528-1.127,6.782
		c2.253,0,4.518-1.127,6.781-1.127c2.265-5.655,6.781-10.184,9.046-15.838C986.04,1562.981,980.386,1565.245,975.857,1568.636z
		 M941.928,1561.854c1.127,1.127,1.127,3.391,2.265,3.391c0-1.138,1.126-1.138,1.126-1.138c-1.126-1.126,0-4.517-2.264-5.654
		C943.055,1560.717,941.928,1560.717,941.928,1561.854z M989.431,1573.164c1.127,0,2.265,0,3.391,0
		c1.127-4.528,4.528-9.057,4.528-12.447C995.086,1564.107,991.695,1568.636,989.431,1573.164z M885.38,1565.245
		c1.126,0,2.264,1.127,3.391,2.265c0-1.138,0-2.265,0-3.402c-1.127-1.126-2.265-1.126-3.391-2.253
		C884.253,1562.981,885.38,1562.981,885.38,1565.245z M905.734,1566.372c2.265,1.138,2.265,2.264,4.528,3.391
		c0-1.127,1.127-2.253,1.127-3.391c-2.265-2.265-3.391-3.391-5.655-5.655C905.734,1562.981,905.734,1565.245,905.734,1566.372z
		 M1153.422,1622.921c9.046,6.792,18.091,13.573,27.137,21.492c9.057,7.919,15.838,15.827,24.884,23.746
		c26.01-14.7,46.376-33.929,59.938-59.939c-12.436-18.091-28.273-33.929-47.491-45.238
		C1199.787,1585.601,1177.168,1603.691,1153.422,1622.921z M955.502,1564.107c-3.391,1.138-5.655,5.655-2.265,9.057
		c1.127-1.138,2.265-1.138,3.391-1.138C955.502,1569.763,956.628,1565.245,955.502,1564.107z M895.562,1569.763
		c1.127,0,2.253,1.138,4.518,2.264c0-3.391-3.391-3.391-4.518-4.517C894.425,1567.51,895.562,1568.636,895.562,1569.763z
		 M937.399,1570.9c0-1.138,1.138-1.138,2.265-1.138c0-1.127-1.127-2.253-2.265-3.391
		C936.273,1568.636,934.009,1569.763,937.399,1570.9z M915.918,1573.164c1.126,1.127,2.264,0,2.264-1.138
		c-1.138,0-1.138-1.126-2.264-1.126C915.918,1570.9,915.918,1572.026,915.918,1573.164z M889.908,1577.682c0-1.127,0-3.391,0-4.518
		c-1.138,0-1.138-1.138-3.402-1.138C887.644,1574.291,886.506,1578.819,889.908,1577.682z M962.283,1575.418
		c0,1.137,0,2.264,0,3.401c1.138,0,3.391-1.138,5.655-1.138c0-2.264,1.138-3.391,1.138-5.655
		C966.812,1573.164,964.548,1574.291,962.283,1575.418z M1272.174,1607.094c7.919,14.7,13.574,30.527,15.827,50.894
		c7.919-14.712,18.102-27.147,30.538-36.193c-16.965-11.31-28.274-28.274-36.193-48.63
		C1280.093,1586.728,1277.828,1596.91,1272.174,1607.094z M895.562,1579.946c1.127,0,1.127,0,2.253,0c0-1.127,0-1.127,0-2.265
		c-1.126,0-2.253-1.127-3.391-1.127C895.562,1577.682,895.562,1578.819,895.562,1579.946z M650.14,1577.682
		c-26.01,13.574-46.376,33.929-59.939,59.939c12.437,18.102,28.274,33.929,47.492,45.238c18.103-22.619,41.848-41.837,64.468-59.938
		C682.932,1609.347,667.104,1592.382,650.14,1577.682z M954.364,1578.819c0,1.127,1.138,2.253,2.264,1.127
		c0-1.127,1.138-2.265-1.126-2.265C955.502,1578.819,954.364,1577.682,954.364,1578.819z M823.176,1578.819
		c2.265,4.518,9.046,4.518,15.838,5.655c5.655,1.126,12.437,2.253,18.092,2.253c-1.127-3.391-3.391-5.655-5.655-10.173
		C842.404,1577.682,832.222,1577.682,823.176,1578.819z M996.213,1578.819c-1.127,1.127-1.127,2.253-2.265,3.391
		c5.655-1.138,11.31-2.264,15.838-3.391C1005.258,1577.682,1000.74,1577.682,996.213,1578.819z M865.024,1587.865
		c3.391,0,5.654,0,9.045,0c-1.126-3.391-2.264-5.655-3.391-9.046c-3.391,0-6.792-1.138-11.31-1.138
		C860.496,1582.21,862.76,1585.601,865.024,1587.865z M1022.223,1582.21c-6.781,4.518-14.7,10.172-19.218,14.7
		c3.391,0,6.781,2.265,10.172,2.265c6.793-6.793,13.574-13.574,19.229-21.493C1027.877,1578.819,1025.624,1579.946,1022.223,1582.21
		z M984.902,1579.946c0,1.126-1.126,2.264-2.264,3.391c1.138,0,2.264,0,3.401,0c1.127-1.127,1.127-2.265,2.253-3.391
		C987.167,1578.819,987.167,1579.946,984.902,1579.946z M832.222,1598.037c-3.391-3.391-6.781-7.908-10.172-10.172
		c-1.138-2.265-3.402-7.919-6.793-6.793c-15.827,2.265-36.193,7.919-48.629,13.574c2.264,3.391,5.654,5.654,9.045,9.045
		c10.184,7.919,21.493,15.839,33.93,21.493c10.183-5.654,20.354-12.437,32.802-16.965
		C840.141,1603.691,835.612,1601.438,832.222,1598.037z M1039.188,1579.946c-5.655,7.919-13.563,14.7-20.355,22.619
		c10.183,2.264,18.102,7.919,27.147,11.31c5.655-3.391,11.31-7.919,15.827-12.437c5.654-4.528,11.31-7.919,14.711-12.447
		C1065.208,1585.601,1052.761,1581.072,1039.188,1579.946z M880.852,1587.865c1.137,0,2.264,0,3.401,0
		c0-1.138-1.138-3.391-1.138-5.655c-2.264,0-3.391-1.138-5.655-1.138C878.598,1583.337,879.725,1585.601,880.852,1587.865z
		 M972.467,1584.475c1.126,0,2.264,0,4.517,0c0-1.138,1.138-1.138,1.138-3.402C975.857,1582.21,972.467,1581.072,972.467,1584.475z
		 M991.695,1587.865c-1.138,2.264-2.265,4.517-3.402,6.781c2.265,0,4.528,1.138,7.92,1.138c3.391-2.265,7.919-5.655,11.31-7.919
		c1.138-1.138,3.391-2.265,2.264-2.265C1003.005,1586.728,997.35,1586.728,991.695,1587.865z M892.161,1609.347
		c-2.253,7.919-3.391,13.574-1.127,20.366c2.265,11.31,12.437,23.746,23.746,27.137c21.493,7.919,41.848-6.781,47.503-22.619
		c9.046-27.137-12.437-50.894-36.193-49.756C909.125,1585.601,896.689,1596.91,892.161,1609.347z M537.043,1621.794
		c7.919,6.781,14.7,13.574,21.481,21.481c5.655,7.919,11.31,16.965,14.712,27.148c2.253-12.437,5.654-23.746,10.172-32.803
		c-7.919-13.562-13.574-30.527-15.827-50.894C559.662,1600.301,550.616,1613.875,537.043,1621.794z M980.386,1588.991
		c0,1.138-1.138,2.265-2.265,4.528c3.391,0,3.391-3.391,4.518-4.528C982.639,1588.991,982.639,1590.129,980.386,1588.991z
		 M970.202,1592.382c1.127,0,1.127,0,2.265,0c0-1.126,1.126-2.253,1.126-3.391C971.329,1588.991,970.202,1590.129,970.202,1592.382z
		 M1052.761,1617.266c16.965,9.046,30.539,20.355,44.112,31.665c16.965-7.908,31.665-15.827,46.365-26.01
		c-16.964-13.574-37.319-22.62-58.812-31.665C1074.254,1600.301,1064.07,1609.347,1052.761,1617.266z M859.369,1601.438
		c2.265-1.138,4.518-1.138,6.781-2.264c0-1.138-3.391-4.528-4.517-6.793c-6.793,0-12.447-1.126-16.965-2.253
		C849.187,1595.784,854.841,1598.037,859.369,1601.438z M884.253,1595.784c1.127,0,2.253-1.138,1.127-2.265
		c-1.127,0-1.127,0-2.265,0C883.115,1594.646,883.115,1595.784,884.253,1595.784z M878.598,1598.037
		c-1.138-1.127-1.138-2.253-1.138-3.391c-2.264,0-5.654,0-7.919,0C870.679,1598.037,875.196,1600.301,878.598,1598.037z
		 M851.45,1603.691c-3.391-3.391-9.046-6.781-13.574-7.907C842.404,1598.037,845.796,1605.956,851.45,1603.691z M759.846,1596.91
		c-15.838,6.781-32.802,15.838-46.376,26.011c18.103,12.447,37.319,22.619,58.812,30.538c10.184-9.046,20.355-18.091,31.665-26.01
		C786.982,1619.53,773.409,1608.22,759.846,1596.91z M980.386,1604.829c1.126,0,2.253,1.127,3.391,1.127
		c2.264-2.265,3.391-3.391,5.654-5.655C983.776,1599.175,981.512,1601.438,980.386,1604.829z M996.213,1602.565
		c-2.265,2.264-4.518,4.528-6.782,6.781c3.391,1.138,5.655,2.264,7.919,2.264c3.391-2.264,6.782-4.517,9.046-6.781
		C1004.132,1603.691,1000.74,1602.565,996.213,1602.565z M865.024,1605.956c0,1.138,1.126,2.264,2.264,2.264
		c1.127-1.126,3.391-1.126,3.391-2.264C870.679,1603.691,868.415,1605.956,865.024,1605.956z M1014.314,1607.094
		c-2.264,2.253-5.654,4.517-7.919,6.781c4.518,1.127,10.172,2.264,15.827,3.391c6.792,1.138,15.838,4.528,19.229,0
		C1032.405,1612.748,1023.36,1609.347,1014.314,1607.094z M853.715,1609.347c1.126,1.138,2.264,2.264,3.391,2.264
		c1.126-1.126,2.264-1.126,3.391-1.126C859.369,1608.22,857.105,1608.22,853.715,1609.347z M978.121,1612.748
		c0-1.138,1.127-1.138,1.127-2.264c-1.127,0-1.127-1.138-2.265-1.138C976.983,1610.484,976.983,1612.748,978.121,1612.748z
		 M871.806,1612.748c1.138,2.254,3.391,3.391,4.528,1.127c-1.138,0-1.138-2.265-2.265-2.265
		C874.069,1611.61,874.069,1612.748,871.806,1612.748z M834.485,1617.266c5.655-1.127,11.311-2.264,15.839-3.391
		C845.796,1609.347,839.014,1615.002,834.485,1617.266z M982.639,1616.139c2.264,1.127,3.401,2.265,5.654,2.265
		c1.138-1.138,3.402-1.138,4.528-3.401C988.293,1615.002,984.902,1611.61,982.639,1616.139z M1209.971,1671.55
		c16.964,20.366,30.538,44.112,36.193,74.651c15.826-11.311,28.273-32.803,33.929-56.549c5.655-26.01,2.253-57.687-9.057-75.777l0,0
		C1254.071,1637.621,1234.854,1657.987,1209.971,1671.55z M863.887,1616.139c1.138,1.127,4.528,4.518,5.654,2.265
		C868.415,1616.139,866.15,1613.875,863.887,1616.139z M855.979,1618.403c-5.654,1.127-11.31,2.253-16.965,4.518
		c5.655,1.138,11.311,2.264,16.965,4.528c2.253-2.265,4.518-2.265,5.655-4.528C860.496,1620.656,858.231,1619.53,855.979,1618.403z
		 M999.604,1618.403c-1.127,1.127-3.391,2.253-5.655,3.391c2.265,2.265,4.528,3.391,6.792,4.518
		c4.518-2.253,11.311-2.253,16.965-4.518C1010.913,1620.656,1005.258,1619.53,999.604,1618.403z M1081.035,1643.275
		c-10.172-7.907-21.481-15.826-32.791-22.619c0,0,0,0-1.138,0c-10.173,5.655-20.355,12.447-32.792,16.965
		c2.253,3.401,6.781,6.792,10.172,10.183s6.793,7.919,10.184,10.184c1.127,2.253,3.391,6.781,5.654,6.781
		c3.392,1.127,9.046-1.126,13.574-2.264c13.562-3.391,27.137-6.782,37.32-11.311
		C1087.828,1647.804,1084.426,1645.54,1081.035,1643.275z M820.912,1625.185c-3.391,0-4.518,0-5.655,2.265
		c7.919,3.391,16.965,6.781,26.011,10.172c3.401-2.253,6.792-4.518,9.057-6.781C842.404,1628.575,829.957,1626.312,820.912,1625.185
		z M707.814,1626.312c-23.746,15.838-46.365,37.331-65.594,59.95c24.884,12.437,53.158,20.355,83.696,27.137
		c12.437-20.355,26.01-38.446,40.711-54.284C745.135,1650.068,725.917,1638.759,707.814,1626.312z M863.887,1628.575
		c2.264,1.138,4.528,1.138,6.792,2.265c1.127,0,2.265-2.265,3.391-3.391C869.541,1626.312,866.15,1625.185,863.887,1628.575z
		 M986.04,1627.449c1.127,1.126,3.391,3.391,5.655,2.264C991.695,1627.449,988.293,1624.059,986.04,1627.449z M1148.894,1626.312
		c-14.7,9.057-30.538,19.229-47.503,26.021c5.654,6.782,12.447,13.563,18.102,20.355c5.655,6.781,11.311,14.7,16.965,21.482
		c22.619-6.782,42.975-14.701,62.203-23.746C1183.96,1653.459,1166.996,1638.759,1148.894,1626.312z M1006.396,1630.84
		c1.127,0,1.127,2.264,2.265,2.264c4.517-2.264,9.045-3.391,12.436-5.654C1015.441,1628.575,1010.913,1629.713,1006.396,1630.84z
		 M979.248,1631.966c1.138,0,1.138,1.138,1.138,2.265c1.126,0,1.126-1.127,3.391-1.127c-1.138-2.264-2.265-2.264-3.391-3.391
		C980.386,1630.84,979.248,1630.84,979.248,1631.966z M808.476,1630.84c-7.919,5.654-16.965,12.436-23.757,18.091
		c-2.253,2.264-4.518,4.528-6.781,6.792c12.436,3.392,23.746,6.782,38.457,9.046c5.655-7.919,13.562-14.7,20.355-22.619
		C826.566,1639.885,818.647,1634.23,808.476,1630.84z M876.334,1634.23c1.126,0,1.126,1.138,2.264,1.138c0,0,0-1.138,1.127-1.138
		c0-1.127-1.127-1.127-2.265-2.265C877.46,1633.104,876.334,1633.104,876.334,1634.23z M857.105,1633.104
		c-2.265,2.265-5.655,4.518-7.919,6.781c3.391,1.138,6.792,2.265,11.31,2.265c2.264-2.265,4.528-4.528,6.792-6.781
		C862.76,1635.368,860.496,1633.104,857.105,1633.104z M995.086,1634.23c0,1.138,2.264,2.264,2.264,2.264
		c1.127,0,2.254-1.126,3.391-1.126C999.604,1633.104,998.477,1631.966,995.086,1634.23z M983.776,1638.759
		c1.126,0,1.126,1.126,1.126,1.126c2.265,0,3.391-1.126,5.655-1.126C989.431,1635.368,986.04,1636.494,983.776,1638.759z
		 M867.288,1644.413c2.253,0,3.391,1.127,5.655,1.127c1.126-2.265,2.253-2.265,3.391-4.518
		C871.806,1636.494,869.541,1642.149,867.288,1644.413z M1017.705,1648.931c-4.528-2.253-6.792-10.172-13.573-7.908
		C1007.522,1644.413,1013.177,1647.804,1017.705,1648.931z M989.431,1644.413c0,1.127,3.391,4.518,4.518,6.781
		c6.792,0,12.447,2.265,16.965,1.138c-5.655-2.264-10.173-6.792-14.7-9.057C993.948,1643.275,991.695,1644.413,989.431,1644.413z
		 M578.891,1698.698c2.253,10.183,7.908,19.229,12.437,27.147c5.654,7.908,11.31,15.827,19.229,21.481
		c3.391-23.746,13.574-42.975,23.746-59.939c-19.229-11.31-35.056-26.01-47.503-44.112
		C581.144,1657.987,575.489,1679.469,578.891,1698.698z M843.531,1644.413c-6.781,6.781-13.574,13.574-19.229,21.482
		c6.792,0,11.31-4.518,15.838-7.908c4.528-3.401,10.184-6.793,13.574-11.31C849.187,1646.678,846.922,1645.54,843.531,1644.413z
		 M976.983,1646.678c1.138,1.126,1.138,2.253,1.138,3.391c2.265,0,5.655,0,7.919,0
		C986.04,1646.678,981.512,1644.413,976.983,1646.678z M970.202,1651.194c1.127,0,1.127,0,2.265,0c0-1.126,0-2.264-1.138-2.264
		C971.329,1648.931,970.202,1648.931,970.202,1651.194z M861.634,1648.931c-4.528,3.401-9.057,7.919-13.574,11.31
		c5.655-1.126,11.31-2.253,16.965-3.391c1.126-2.264,2.264-4.518,3.391-6.781C866.15,1650.068,863.887,1648.931,861.634,1648.931z
		 M871.806,1655.723c1.138,0,2.264,0,3.391,0c0-1.137,1.138-2.264,2.264-4.528C872.943,1650.068,872.943,1653.459,871.806,1655.723z
		 M881.988,1654.586c1.127,0,3.392,0,3.392,0c0-1.127,0-1.127,0-2.254C883.115,1651.194,881.988,1652.332,881.988,1654.586z
		 M1094.609,1655.723c-15.838,6.782-32.803,11.311-50.894,14.701c6.781,11.31,14.7,22.619,20.354,35.056
		c24.884,0,47.503-3.391,66.732-9.046C1119.492,1680.606,1108.183,1667.033,1094.609,1655.723z M984.902,1664.769
		c3.391,0,6.793,1.127,11.311,1.127c-1.127-3.391-3.392-6.781-5.655-10.173c-3.391,0-5.655,0-9.046,0
		C982.639,1659.114,983.776,1662.505,984.902,1664.769z M971.329,1656.85c1.138,1.138,1.138,3.391,2.264,5.655
		c2.265,0,3.391,1.138,5.655,1.138c0-2.265-2.265-4.528-2.265-6.793C973.593,1656.85,971.329,1655.723,971.329,1656.85z
		 M1003.005,1667.033c10.172,0,20.355,0,28.274-1.138c-2.265-4.518-9.057-4.518-14.712-5.655
		c-5.654-1.126-13.562-2.253-19.218-2.253C999.604,1660.24,1001.867,1663.643,1003.005,1667.033z M732.698,1713.398
		c16.965,2.264,35.056,4.528,54.284,3.391c6.793-16.965,15.838-32.792,26.011-47.492c-13.563-2.264-27.137-5.654-38.446-10.183
		C757.582,1676.078,744.008,1693.043,732.698,1713.398z M877.46,1663.643c2.265-1.138,5.655,0,5.655-3.402
		C879.725,1660.24,877.46,1660.24,877.46,1663.643z M868.415,1661.378c-1.127,1.127-1.127,2.265-2.265,3.391
		c2.265,0,2.265,0,4.528,0c0-1.126,1.127-2.264,2.265-3.391C870.679,1661.378,869.541,1661.378,868.415,1661.378z M845.796,1667.033
		c4.528,0,9.045,0,13.573,0c1.127-1.138,1.127-2.265,2.265-3.391C855.979,1663.643,850.324,1664.769,845.796,1667.033z
		 M898.953,1667.033c1.127,0,2.265,0,2.265-1.138c0,0,0,0,0-1.127c0,0-1.138,0-2.265,0
		C898.953,1665.896,898.953,1665.896,898.953,1667.033z M957.766,1667.033c1.127,0,2.254,1.126,3.391,1.126c0-1.126,0-2.264,0-3.391
		C958.893,1664.769,956.628,1664.769,957.766,1667.033z M887.644,1667.033c0,2.264-1.138,3.391-1.138,5.654
		c2.265,0,4.528-2.264,6.793-2.264c0-1.127,1.126-3.391-1.138-4.528C891.034,1665.896,889.908,1667.033,887.644,1667.033z
		 M965.674,1671.55c1.138,0,1.138,1.138,3.402,1.138c0-2.264-1.138-3.391-1.138-5.654c-1.127,0-1.127-1.138-2.265,0
		C965.674,1668.159,965.674,1669.297,965.674,1671.55z M874.069,1670.424c-2.264,5.654-6.781,10.183-9.045,15.838
		c4.517-3.402,10.172-6.793,14.7-9.057c0-2.253,1.127-4.518,1.127-6.781C878.598,1669.297,877.46,1670.424,874.069,1670.424z
		 M975.857,1676.078c5.654,2.265,10.183,6.781,15.838,9.046c-3.402-4.518-6.793-10.172-9.057-14.7c-2.253,0-4.518-1.127-6.781-1.127
		C974.73,1671.55,975.857,1672.688,975.857,1676.078z M827.704,1672.688c-1.138-2.264-5.654-1.138-7.919-2.264
		c-10.183,13.573-19.229,29.4-27.147,45.238c19.229-1.126,36.193-4.528,52.031-9.045c0-2.265,1.127-4.528,1.127-6.793
		c0-2.253,0-2.253,1.126-4.518c3.402-7.919,4.528-15.838,7.919-23.757C848.06,1673.814,835.612,1671.55,827.704,1672.688z
		 M1041.451,1678.343c-1.127-2.265-4.518-7.919-6.781-6.793c-7.919,1.138-18.103,1.138-28.274,2.265
		c4.518,9.045,7.919,18.102,11.31,27.147c12.437,2.265,24.884,4.518,39.584,4.518
		C1052.761,1695.307,1047.106,1686.262,1041.451,1678.343z M858.231,1685.124c2.265-4.518,5.655-7.919,7.919-13.574
		c-1.126,0-2.264,0-3.391,0C861.634,1676.078,859.369,1680.606,858.231,1685.124z M937.399,1672.688
		c1.138,0,1.138,1.127,2.265,1.127c0-1.127,1.138-1.127,1.138-2.265C939.664,1670.424,937.399,1671.55,937.399,1672.688z
		 M989.431,1672.688c3.391,4.518,5.655,10.172,9.046,14.7s6.781,10.184,12.437,12.437c-3.391-9.045-6.781-18.091-11.31-26.01
		C996.213,1672.688,992.821,1671.55,989.431,1672.688C989.431,1671.55,989.431,1671.55,989.431,1672.688z M900.08,1672.688
		c0,2.265,0,5.655,0,7.919c3.391-1.138,5.654-5.654,3.391-9.057C902.344,1672.688,901.218,1672.688,900.08,1672.688z
		 M917.044,1674.952c0,1.126,1.138,1.126,1.138,3.391c2.254-1.138,3.391-3.391,1.127-4.528
		C918.182,1673.814,917.044,1673.814,917.044,1674.952z M956.628,1674.952c2.265,1.126,3.392,2.253,4.528,2.253
		c0-1.127,0-2.253,0-3.391c-1.137,0-2.264-1.127-4.528-2.265C956.628,1673.814,956.628,1674.952,956.628,1674.952z
		 M944.192,1678.343c2.264,2.264,3.391,3.391,5.654,5.654c0-2.264,1.127-3.391,1.127-5.654c-2.265-1.138-2.265-2.265-4.518-3.391
		C945.318,1676.078,944.192,1677.205,944.192,1678.343z M1203.178,1674.952c-19.218,9.045-40.71,18.091-63.33,24.872
		c14.701,24.884,29.401,49.768,39.584,79.168c23.746-5.654,45.239-13.562,59.939-27.137
		C1234.854,1719.053,1222.406,1693.043,1203.178,1674.952z M885.38,1679.469c0,3.391-1.127,6.793-1.127,11.311
		c3.391-1.127,6.781-3.392,10.172-5.655c0-3.391,0-5.655,0-9.046C891.034,1676.078,887.644,1678.343,885.38,1679.469z
		 M931.745,1682.859c1.138,1.138,1.138,3.402,3.401,4.528c1.127-2.264,1.127-4.528,2.253-6.781c0-1.138-2.253-2.264-3.391-3.401
		C932.883,1679.469,931.745,1680.606,931.745,1682.859z M966.812,1681.733c1.127,1.126,2.265,1.126,3.391,2.264
		c0-2.264,0-2.264,0-4.528c-1.126,0-2.264-1.126-3.391-2.264C966.812,1679.469,966.812,1680.606,966.812,1681.733z
		 M910.263,1679.469c0,2.265,1.127,3.391,1.127,5.655c1.138,0,2.264-1.127,2.264-2.265c-1.126-1.126-1.126-3.391-2.264-3.391
		C911.39,1679.469,911.39,1679.469,910.263,1679.469z M921.572,1686.262c2.265-1.138,2.265-2.265,3.392-4.528
		c0,0,0-1.127-1.127-1.127C921.572,1682.859,919.309,1683.997,921.572,1686.262z M954.364,1689.652
		c3.401,4.518,7.919,9.046,11.31,13.574c-1.126-5.655-2.253-11.311-3.391-16.965c-2.264-1.138-4.518-2.265-6.781-3.402
		C955.502,1683.997,954.364,1686.262,954.364,1689.652z M878.598,1683.997c-4.528,3.391-10.183,6.782-14.711,10.173
		c-4.518,3.401-10.172,5.654-12.437,12.447c10.184-3.391,18.091-6.793,27.147-11.311
		C877.46,1690.779,879.725,1686.262,878.598,1683.997z M990.558,1691.916c-4.518-2.264-7.919-5.654-13.574-7.919
		c0,1.127,0,2.265,0,3.391C981.512,1688.515,986.04,1690.779,990.558,1691.916z M898.953,1688.515
		c0,6.792-1.138,12.447-2.264,16.965c3.391-4.518,6.781-10.173,10.183-14.7c-1.138-2.265-1.138-5.655-2.264-6.782
		C903.471,1686.262,901.218,1687.388,898.953,1688.515z M938.537,1693.043c2.265,3.391,4.518,6.781,6.781,9.046
		c1.138-3.391,2.265-6.782,2.265-11.31c-2.265-2.265-4.528-4.518-6.781-6.782C940.802,1687.388,939.664,1689.652,938.537,1693.043z
		 M923.837,1694.17c2.253,4.528,2.253,11.31,4.518,16.964c1.138-5.654,2.264-11.31,4.528-16.964
		c-2.265-2.254-2.265-4.518-4.528-5.655C926.09,1690.779,924.964,1691.916,923.837,1694.17z M972.467,1704.353
		c0-4.528,0-9.046,0-13.573c-1.138-1.127-2.265-1.127-3.391-2.265C969.076,1694.17,970.202,1699.824,972.467,1704.353z
		 M913.653,1691.916c0,1.127,1.127,2.254,1.127,3.391c1.138-1.137,2.264-2.264,2.264-3.391c-1.126-1.137,0-3.401-2.264-3.401
		C914.78,1690.779,914.78,1690.779,913.653,1691.916z M615.073,1750.718c20.366,16.965,46.376,27.148,80.306,29.412
		c7.919-22.619,16.964-42.975,27.137-63.341c-30.527-5.655-58.802-14.7-83.686-27.137
		C627.521,1706.617,619.602,1726.972,615.073,1750.718z M891.034,1711.134c1.127-5.654,2.265-12.436,2.265-18.091l0,0
		c-3.391,2.264-5.655,3.391-9.046,5.655c0,10.183,0,20.354,1.127,28.273C888.771,1723.581,889.908,1716.789,891.034,1711.134z
		 M978.121,1694.17c1.127,9.057-1.138,20.366,1.127,27.147c-2.265,1.126-1.127,5.654-2.265,7.919
		c13.574,10.172,29.412,19.229,46.377,27.137c-1.138-19.218-4.528-36.183-9.046-52.021c-2.264,0-5.654-1.126-6.792-2.264
		c-1.127,0-2.265,0-2.265,0c-1.126,0-1.126-1.127-2.253-2.265C993.948,1698.698,986.04,1697.571,978.121,1694.17L978.121,1694.17
		L978.121,1694.17z M949.847,1706.617c0,1.126,3.391,3.391,4.518,5.654c4.528,4.518,11.31,11.31,15.838,14.7
		c0-6.781-4.528-11.31-6.781-15.838c-3.401-4.517-6.793-9.045-10.184-13.562c0,0,0,0-1.126,0
		C953.237,1700.962,949.847,1703.227,949.847,1706.617z M901.218,1712.271c2.253-4.528,10.172-6.792,7.907-13.573
		C905.734,1702.089,903.471,1707.743,901.218,1712.271z M917.044,1703.227c2.265,4.517,3.392,9.045,5.655,12.436
		c-1.127-5.654-2.264-11.31-3.391-15.838C918.182,1700.962,917.044,1702.089,917.044,1703.227z M932.883,1717.927
		c-1.138,5.654-3.391,12.437,1.126,16.964c3.391-7.919,6.793-16.964,10.184-26.01c-2.265-3.401-4.528-5.654-6.793-9.057
		C935.146,1705.479,934.009,1712.271,932.883,1717.927z M850.324,1712.271c-2.265,12.437-4.528,24.884-4.528,39.584
		c9.045-4.528,18.091-9.045,26.01-14.7c2.264-1.138,6.792-4.528,7.919-6.792c0-1.127,0-4.518-1.127-6.782
		c-1.138-6.792-1.138-18.102-1.138-22.619C869.541,1705.479,859.369,1708.881,850.324,1712.271z M1066.335,1711.134
		c9.046,19.229,15.838,40.722,20.355,65.605c26.01,4.518,58.812,6.781,88.213,3.391c-10.172-29.412-24.872-55.422-40.71-78.041
		C1113.838,1706.617,1091.219,1710.008,1066.335,1711.134z M1027.877,1759.774c15.839,6.781,32.803,11.31,52.031,14.7
		c-4.527-23.757-11.31-45.238-20.354-64.467c-14.712,0-27.148-2.265-40.722-3.391
		C1024.486,1722.443,1027.877,1740.546,1027.877,1759.774z M892.161,1728.099c-2.253,2.265-6.781,3.401-6.781,5.655
		c-1.127,3.401,2.264,10.183,2.264,13.573c3.391,13.574,6.781,26.011,11.31,37.32c3.391-2.253,5.655-5.655,9.046-9.046
		c7.919-10.172,15.838-21.481,21.493-33.929c-6.793-10.173-11.311-21.482-16.965-32.792
		C906.872,1713.398,898.953,1723.581,892.161,1728.099z M1256.336,1746.201c-2.265,2.264-9.046,6.781-9.046,9.045
		c0,1.127,0,3.391,0,4.528c0,10.173,0,21.482-2.264,30.527c13.573-14.7,28.274-27.137,50.894-32.791
		c-9.046-12.447-13.574-27.147-16.965-45.239C1273.301,1723.581,1265.381,1737.155,1256.336,1746.201z M936.273,1741.673
		c5.654,9.045,12.436,16.964,18.091,23.757c2.264,2.253,3.401,5.654,6.792,6.781c3.392-12.437,6.782-23.746,9.046-38.457
		c-7.919-5.655-14.7-13.563-22.619-20.355C945.318,1723.581,940.802,1731.5,936.273,1741.673z M790.373,1722.443
		c-6.781,15.839-11.31,33.93-14.7,52.031c23.757-4.527,45.239-11.31,64.468-20.354c0-14.712,2.264-27.148,3.391-40.722
		c0,0,0,0-1.127,0C827.704,1719.053,809.603,1721.317,790.373,1722.443z M702.16,1781.257c24.884,0,46.376-1.127,67.858-4.518
		c3.391-19.229,7.919-36.193,14.7-53.158c-20.355,0-37.32-1.138-54.284-4.528C719.124,1737.155,708.952,1758.637,702.16,1781.257z
		 M617.337,1807.267c-5.654-13.562-9.045-31.665-7.919-52.021c-9.046-7.919-16.965-15.838-23.746-26.01
		c2.265,24.884-3.391,44.102-12.436,59.939C592.453,1790.302,604.9,1799.358,617.337,1807.267z M879.725,1738.282
		c-11.31,7.919-21.493,14.7-35.056,20.354c0,24.884,3.391,47.503,9.046,66.732c14.7-11.311,28.273-22.62,40.71-36.193
		C887.644,1773.338,884.253,1756.373,879.725,1738.282z M965.674,1776.739c14.712,15.827,33.93,29.4,53.158,40.711
		c2.264-16.965,4.528-35.056,3.391-54.285c-16.965-6.792-32.792-15.838-47.492-26.01
		C973.593,1751.855,970.202,1764.292,965.674,1776.739z M901.218,1791.439c7.907,16.965,15.826,31.665,26.01,46.365
		c13.574-16.964,22.619-37.319,31.665-58.812c-9.046-10.172-18.091-20.355-26.01-31.665
		C924.964,1763.165,913.653,1777.866,901.218,1791.439z M615.073,1759.774c-1.127,31.665,10.183,53.147,22.619,71.249
		c13.574,18.092,30.538,32.792,55.422,39.584c-7.919-23.757-6.781-61.076,1.127-83.696
		C660.312,1784.647,636.565,1772.211,615.073,1759.774C615.073,1758.637,615.073,1759.774,615.073,1759.774z M1208.833,1834.414
		c7.919-5.654,15.838-12.436,20.366-20.355c4.518-6.792,6.781-15.838,9.045-24.883c2.265-9.046,3.392-19.229,2.265-30.539l0,0
		c-16.965,11.311-36.193,20.355-59.95,26.011c4.528,18.102,6.792,45.238,2.264,64.468
		C1193.006,1845.724,1200.925,1840.069,1208.833,1834.414z M839.014,1760.901c-19.229,9.046-40.722,15.838-65.604,20.355
		c-4.518,26.01-6.781,58.812-3.391,88.213c29.411-10.172,55.422-24.872,78.041-40.71
		C843.531,1808.404,840.141,1785.785,839.014,1760.901z M1024.486,1820.841c19.229,11.31,39.584,20.354,62.204,27.147
		c0-24.884-1.127-46.377-4.518-67.858c-19.229-3.391-36.193-7.919-53.158-14.7
		C1029.015,1785.785,1026.751,1803.876,1024.486,1820.841z M699.896,1785.785c-9.045,22.619-9.045,62.203-1.126,84.822
		c19.229,4.518,47.503,3.391,65.594-1.138c-2.264-21.481-1.127-48.629,1.138-70.111c1.127-6.792,2.253-12.447,2.253-18.102
		C747.398,1785.785,724.779,1786.911,699.896,1785.785z M1087.828,1781.257c2.253,20.354,4.517,44.112,4.517,68.995
		c22.62,9.046,62.204,9.046,84.823,1.127c4.528-19.229,3.391-47.503-1.127-65.594
		C1146.629,1788.049,1113.838,1785.785,1087.828,1781.257z M931.745,1843.46c18.102,23.757,37.331,46.376,59.95,64.468
		c12.437-24.884,20.355-53.158,26.01-83.696c-20.355-12.437-38.457-26.011-54.284-40.711
		C955.502,1805.014,944.192,1824.231,931.745,1843.46z M897.815,1795.957c-12.436,13.574-27.137,24.884-41.837,36.193
		c6.781,22.619,14.7,42.975,23.746,62.203c16.965-15.827,31.665-32.791,45.239-50.894
		C913.653,1828.76,905.734,1811.795,897.815,1795.957z M1023.36,1826.495c-5.655,31.665-14.7,58.812-27.147,84.823
		c16.964,11.31,36.192,20.355,59.938,23.757c16.965-20.366,27.148-46.376,29.412-80.306
		C1064.07,1846.851,1042.589,1836.679,1023.36,1826.495z M772.282,1873.998c5.655,23.746,13.574,45.239,27.147,59.939
		c31.665-5.654,57.676-18.091,75.767-37.319c-9.046-18.092-18.091-39.584-23.746-62.204c0,0,0,0-1.126,0
		C826.566,1850.252,801.684,1864.953,772.282,1873.998z M1181.696,1854.77c-4.528,16.965-12.447,31.665-21.493,41.849
		c-1.127,2.264-3.391,3.391-3.391,4.528c12.437-4.528,30.538-6.793,46.365-3.402c-4.518-22.619,1.138-44.102,9.057-59.939l0,0
		C1204.315,1845.724,1194.133,1851.379,1181.696,1854.77z M928.354,1847.988c-6.782,9.046-14.701,18.091-22.62,27.137
		c-7.919,7.919-15.826,15.838-22.619,24.884c14.7,26.01,33.929,46.376,59.939,59.938c18.102-12.436,33.929-28.273,45.238-47.491
		C964.548,1894.354,946.456,1871.734,928.354,1847.988z M651.267,1898.882c22.619-4.528,44.112,1.127,59.938,9.046
		c-5.654-9.046-12.436-19.229-15.826-30.539c-19.229-4.517-33.93-13.573-47.503-24.883
		C652.404,1863.815,654.657,1881.917,651.267,1898.882z M1092.345,1857.034C1091.219,1857.034,1091.219,1857.034,1092.345,1857.034
		c-2.264,33.929-13.573,57.675-27.137,79.168c31.665,1.126,54.284-9.046,72.376-22.62c18.102-13.573,32.803-31.665,39.584-55.422
		C1152.284,1864.953,1114.965,1863.815,1092.345,1857.034z M767.754,1884.182c-1.126-3.402,0-9.057-3.391-7.919
		c-18.091,4.517-42.975,6.781-63.33,2.264c3.391,9.046,9.046,18.092,14.7,26.011c5.655,6.781,12.437,15.826,20.355,20.354
		c6.793,4.528,15.838,6.782,24.884,9.046c9.046,2.265,19.229,3.391,31.665,2.265
		C782.466,1921.501,773.409,1903.399,767.754,1884.182z M878.598,1903.399c-19.229,16.964-44.112,30.538-74.65,36.193
		c12.447,16.964,32.803,28.274,57.687,33.929c26.01,5.655,57.675,2.265,75.766-10.172
		C911.39,1948.638,892.161,1929.42,878.598,1903.399z M992.821,1915.847c-12.436,18.091-26.01,35.056-44.112,47.503
		c14.712,5.654,35.067,12.437,55.423,7.908c9.045-2.254,19.229-7.908,27.147-12.437c7.908-5.655,15.827-12.437,21.481-19.229
		C1029.015,1936.202,1009.786,1927.156,992.821,1915.847z M1059.554,1940.73c-7.919,9.045-15.838,16.964-26.021,23.745
		c24.884-2.264,45.239,4.528,59.95,12.437c2.253-18.091,11.31-31.665,19.218-42.975
		C1099.138,1939.593,1081.035,1942.983,1059.554,1940.73z M793.775,1989.359c12.437-7.919,27.137-13.573,45.238-16.965
		c-13.573-5.654-23.757-12.447-33.929-22.619c-2.265-2.264-6.793-9.045-9.057-9.045c-1.127,0-3.391,0-4.518,0
		c-9.045,0-22.619,0-30.538-2.265C775.673,1952.04,789.247,1966.74,793.775,1989.359z M943.055,1966.74
		c-13.562,9.046-30.527,13.574-50.894,15.827c14.711,7.919,27.147,16.964,36.193,30.538c5.654-7.919,13.573-14.7,21.492-21.481
		c7.919-5.655,16.965-11.31,27.137-14.712C963.421,1974.659,953.237,1971.258,943.055,1966.74z"/>
</g>
</svg>
