<?xml version="1.0" encoding="UTF-8" standalone="no"?>
<!-- Generator: Adobe Illustrator 16.0.0, SVG Export Plug-In . SVG Version: 6.00 Build 0)  -->
<!DOCTYPE svg  PUBLIC '-//W3C//DTD SVG 1.1//EN'  'http://www.w3.org/Graphics/SVG/1.1/DTD/svg11.dtd'>
<svg id="Layer_1" xmlns="http://www.w3.org/2000/svg" xml:space="preserve" height="40px" viewBox="0 0 168.333 40" width="168.33px" version="1.1" y="0px" x="0px" xmlns:xlink="http://www.w3.org/1999/xlink" enable-background="new 0 0 168.333 40">
<g fill="#fff">
	<path d="m16.619 19.46v-0.615l1.693-0.308-0.616-2.311-0.924-2.771h-4.928l-1.078 2.618-0.616 2.311 1.847 0.307v0.616h-5.08v-0.617l1.849-0.307 1.078-2.311 4.465-12.319h1.078l4.312 12.319 1.078 2.311 1.694 0.307v0.616h-5.851v0.154zm-2.311-13.396l-2.156 6.313h4.466l-2.31-6.313z"/>
	<polygon points="37.561 7.604 37.1 5.139 34.79 4.986 32.941 4.986 32.941 16.073 33.096 18.384 35.097 18.69 35.097 19.46 28.938 19.46 28.938 18.69 30.94 18.384 31.094 16.073 31.094 4.986 29.246 4.986 26.936 5.139 26.32 7.604 25.396 7.604 25.704 4.061 38.332 4.061 38.485 7.604"/>
	<polygon points="55.424 7.604 54.963 5.139 52.653 4.986 50.805 4.986 50.805 16.073 50.958 18.384 52.96 18.69 52.96 19.46 46.8 19.46 46.8 18.69 48.803 18.384 49.111 16.073 49.111 4.986 47.109 4.986 44.799 5.139 44.336 7.604 43.413 7.604 43.566 4.061 56.194 4.061 56.349 7.604"/>
	<polygon points="72.825 19.46 61.738 19.46 61.738 18.69 63.739 18.384 63.894 16.073 63.894 7.449 63.739 4.986 61.738 4.677 61.738 4.061 72.518 4.061 72.672 7.911 71.748 7.911 71.285 5.294 69.129 4.986 65.588 4.986 65.588 10.99 67.589 10.99 69.438 10.837 69.746 8.836 70.515 8.836 70.515 14.225 69.746 14.225 69.438 12.224 67.589 11.916 65.588 11.916 65.588 16.073 65.896 18.075 67.744 18.537 69.592 18.537 71.594 18.075 72.209 15.765 73.133 15.765"/>
	<polygon points="92.383 4.986 92.074 7.449 92.074 19.768 90.842 19.768 88.533 16.073 82.064 6.064 82.064 16.073 82.219 18.384 84.221 18.845 84.221 19.46 78.985 19.46 78.985 18.845 80.833 18.384 81.141 16.073 81.141 7.449 80.833 4.986 78.985 4.677 78.985 4.061 82.989 4.061 84.837 7.449 91.151 16.997 91.151 7.449 90.996 4.986 88.994 4.677 88.994 4.061 94.384 4.061 94.384 4.677"/>
	<polygon points="111.78 7.604 111.32 5.139 109.01 4.986 107.01 4.986 107.01 16.073 107.32 18.384 109.32 18.69 109.32 19.46 103.16 19.46 103.16 18.69 105.16 18.384 105.32 16.073 105.32 4.986 103.47 4.986 101.01 5.139 100.54 7.604 99.621 7.604 99.928 4.061 112.4 4.061 112.71 7.604"/>
	<polygon points="118.1 19.46 118.1 18.69 119.95 18.384 120.26 16.073 120.26 7.449 119.95 4.986 118.1 4.677 118.1 4.061 124.1 4.061 124.1 4.677 122.26 4.986 121.95 7.449 121.95 16.073 122.26 18.384 124.1 18.69 124.1 19.46"/>
	<polygon points="142.89 4.986 141.81 7.449 138.89 16.073 137.81 19.768 136.42 19.768 135.19 16.073 132.11 7.449 131.19 4.986 129.34 4.677 129.34 4.061 135.04 4.061 135.04 4.677 133.34 4.986 133.96 7.449 137.5 17.459 140.74 7.449 141.35 4.986 139.35 4.677 139.35 4.061 144.74 4.061 144.74 4.677"/>
	<polygon points="161.06 19.46 149.98 19.46 149.98 18.69 151.82 18.384 152.13 16.073 152.13 7.449 151.82 4.986 149.98 4.677 149.98 4.061 160.6 4.061 160.91 7.911 159.98 7.911 159.52 5.294 157.21 4.986 153.83 4.986 153.83 10.99 155.67 10.99 157.68 10.837 157.83 8.836 158.6 8.836 158.6 14.225 157.83 14.225 157.68 12.224 155.67 11.916 153.83 11.916 153.83 16.073 154.13 18.075 155.98 18.537 157.83 18.537 159.83 18.075 160.29 15.765 161.22 15.765"/>
	<polygon points="45.26 36.246 44.491 36.246 44.491 24.85 45.26 24.85 45.26 30.086 50.343 30.086 50.343 24.85 51.113 24.85 51.113 36.246 50.343 36.246 50.343 30.856 45.26 30.856"/>
	<polygon points="65.588 25.621 61.123 25.621 61.123 30.086 64.973 30.086 64.973 30.856 61.123 30.856 61.123 35.476 65.742 35.476 65.742 36.246 60.353 36.246 60.353 24.85 65.588 24.85"/>
	<path d="m81.603 36.246h-0.923l-1.078-3.696h-3.697l-1.077 3.696h-0.924l3.389-11.549h0.923l3.387 11.549zm-3.85-10.318l-1.694 5.852h3.388l-1.694-5.852z"/>
	<polygon points="90.996 24.85 90.996 35.476 95.616 35.476 95.616 36.246 90.226 36.246 90.226 24.85"/>
	<polygon points="102.24 25.621 102.24 24.85 108.55 24.85 108.55 25.621 105.78 25.621 105.78 36.246 105.01 36.246 105.01 25.621"/>
	<polygon points="117.94 36.246 117.18 36.246 117.18 24.85 117.94 24.85 117.94 30.086 122.87 30.086 122.87 24.85 123.64 24.85 123.64 36.246 122.87 36.246 122.87 30.856 117.94 30.856"/>
</g>
</svg>
