<?xml version="1.0" encoding="UTF-8" standalone="no"?>
<!-- Generator: Adobe Illustrator 16.0.0, SVG Export Plug-In . SVG Version: 6.00 Build 0)  -->
<!DOCTYPE svg  PUBLIC '-//W3C//DTD SVG 1.1//EN'  'http://www.w3.org/Graphics/SVG/1.1/DTD/svg11.dtd'>
<svg id="Layer_1" xmlns="http://www.w3.org/2000/svg" xml:space="preserve" height="40px" viewBox="0 0 168.333 40" width="168.33px" version="1.1" y="0px" x="0px" xmlns:xlink="http://www.w3.org/1999/xlink" enable-background="new 0 0 168.333 40">
<g fill="#020202">
	<path d="m14.87 19.446v-0.631l1.737-0.316-0.632-2.37-0.948-2.843h-5.054l-1.106 2.686-0.632 2.37 1.895 0.314v0.632h-5.213v-0.632l1.896-0.314 1.105-2.37 4.582-12.639h1.106l4.423 12.639 1.106 2.37 1.738 0.314v0.632h-6.003v0.158zm-2.37-13.743l-2.211 6.477h4.582l-2.371-6.477z"/>
	<polygon points="36.355 7.282 35.882 4.754 33.512 4.597 31.616 4.597 31.616 15.972 31.774 18.342 33.828 18.656 33.828 19.446 27.508 19.446 27.508 18.656 29.562 18.342 29.721 15.972 29.721 4.597 27.824 4.597 25.455 4.754 24.823 7.282 23.875 7.282 24.191 3.648 37.146 3.648 37.303 7.282"/>
	<polygon points="54.682 7.282 54.208 4.754 51.838 4.597 49.942 4.597 49.942 15.972 50.1 18.342 52.154 18.656 52.154 19.446 45.834 19.446 45.834 18.656 47.889 18.342 48.205 15.972 48.205 4.597 46.151 4.597 43.781 4.754 43.307 7.282 42.359 7.282 42.517 3.648 55.472 3.648 55.63 7.282"/>
	<polygon points="72.534 19.446 61.159 19.446 61.159 18.656 63.212 18.342 63.371 15.972 63.371 7.124 63.212 4.597 61.159 4.28 61.159 3.648 72.219 3.648 72.377 7.598 71.428 7.598 70.954 4.913 68.742 4.597 65.109 4.597 65.109 10.757 67.162 10.757 69.059 10.6 69.375 8.546 70.164 8.546 70.164 14.075 69.375 14.075 69.059 12.022 67.162 11.706 65.109 11.706 65.109 15.972 65.425 18.025 67.321 18.499 69.217 18.499 71.271 18.025 71.902 15.655 72.85 15.655"/>
	<polygon points="92.598 4.597 92.282 7.124 92.282 19.762 91.018 19.762 88.649 15.972 82.013 5.703 82.013 15.972 82.171 18.342 84.225 18.815 84.225 19.446 78.853 19.446 78.853 18.815 80.75 18.342 81.065 15.972 81.065 7.124 80.75 4.597 78.853 4.28 78.853 3.648 82.961 3.648 84.857 7.124 91.334 16.919 91.334 7.124 91.176 4.597 89.122 4.28 89.122 3.648 94.652 3.648 94.652 4.28"/>
	<polygon points="112.5 7.282 112.03 4.754 109.66 4.597 107.61 4.597 107.61 15.972 107.92 18.342 109.98 18.656 109.98 19.446 103.66 19.446 103.66 18.656 105.71 18.342 105.87 15.972 105.87 4.597 103.97 4.597 101.44 4.754 100.97 7.282 100.02 7.282 100.34 3.648 113.14 3.648 113.45 7.282"/>
	<polygon points="118.98 19.446 118.98 18.656 120.88 18.342 121.19 15.972 121.19 7.124 120.88 4.597 118.98 4.28 118.98 3.648 125.14 3.648 125.14 4.28 123.25 4.597 122.93 7.124 122.93 15.972 123.25 18.342 125.14 18.656 125.14 19.446"/>
	<polygon points="144.42 4.597 143.31 7.124 140.31 15.972 139.2 19.762 137.78 19.762 136.52 15.972 133.36 7.124 132.41 4.597 130.52 4.28 130.52 3.648 136.36 3.648 136.36 4.28 134.62 4.597 135.25 7.124 138.89 17.393 142.21 7.124 142.84 4.597 140.78 4.28 140.78 3.648 146.31 3.648 146.31 4.28"/>
	<polygon points="163.06 19.446 151.68 19.446 151.68 18.656 153.58 18.342 153.9 15.972 153.9 7.124 153.58 4.597 151.68 4.28 151.68 3.648 162.58 3.648 162.9 7.598 161.95 7.598 161.48 4.913 159.11 4.597 155.64 4.597 155.64 10.757 157.53 10.757 159.58 10.6 159.74 8.546 160.53 8.546 160.53 14.075 159.74 14.075 159.58 12.022 157.53 11.706 155.64 11.706 155.64 15.972 155.95 18.025 157.85 18.499 159.74 18.499 161.8 18.025 162.27 15.655 163.22 15.655"/>
	<polygon points="44.254 36.667 43.465 36.667 43.465 24.976 44.254 24.976 44.254 30.348 49.469 30.348 49.469 24.976 50.259 24.976 50.259 36.667 49.469 36.667 49.469 31.138 44.254 31.138"/>
	<polygon points="65.109 25.766 60.528 25.766 60.528 30.348 64.478 30.348 64.478 31.138 60.528 31.138 60.528 35.877 65.267 35.877 65.267 36.667 59.738 36.667 59.738 24.976 65.109 24.976"/>
	<path d="m81.539 36.667h-0.947l-1.105-3.792h-3.793l-1.105 3.792h-0.949l3.477-11.849h0.947l3.475 11.849zm-3.949-10.585l-1.738 6.003h3.476l-1.738-6.003z"/>
	<polygon points="91.176 24.976 91.176 35.877 95.915 35.877 95.915 36.667 90.386 36.667 90.386 24.976"/>
	<polygon points="102.71 25.766 102.71 24.976 109.19 24.976 109.19 25.766 106.34 25.766 106.34 36.667 105.55 36.667 105.55 25.766"/>
	<polygon points="118.82 36.667 118.03 36.667 118.03 24.976 118.82 24.976 118.82 30.348 123.88 30.348 123.88 24.976 124.67 24.976 124.67 36.667 123.88 36.667 123.88 31.138 118.82 31.138"/>
</g>
</svg>
