<?xml version="1.0" encoding="utf-8"?>
<!-- Generator: Adobe Illustrator 16.0.0, SVG Export Plug-In . SVG Version: 6.00 Build 0)  -->
<!DOCTYPE svg PUBLIC "-//W3C//DTD SVG 1.1//EN" "http://www.w3.org/Graphics/SVG/1.1/DTD/svg11.dtd">
<svg version="1.1" id="career" xmlns="http://www.w3.org/2000/svg" xmlns:xlink="http://www.w3.org/1999/xlink" x="0px" y="0px"
	 width="180px" height="180px" viewBox="0 0 180 180" enable-background="new 0 0 180 180" xml:space="preserve">
<path fill-rule="evenodd" clip-rule="evenodd" fill="#998B7D" d="M69.484,112.359v8.917h-0.075
	C69.457,118.329,69.3,115.177,69.484,112.359"/>
<path fill-rule="evenodd" clip-rule="evenodd" fill="#998B7D" d="M69.403,150.149h0.081v15.387
	C69.3,160.567,69.457,155.26,69.403,150.149"/>
<path fill-rule="evenodd" clip-rule="evenodd" fill="#998B7D" d="M-66.921,105.808c-5.149-5.039-10.162-10.206-15.321-15.243
	c4.114-4.346,8.416-8.499,12.655-12.723c-4.156,4.224-8.353,8.413-12.571,12.571C-77.203,95.667-71.944,100.622-66.921,105.808"/>
<path fill-rule="evenodd" clip-rule="evenodd" fill="#998B7D" d="M56.544,108.889c3.951-3.702,7.695-7.609,11.522-11.438h0.076
	c-2.695,2.805-5.726,5.72-8.681,8.679C58.601,106.988,57.33,108.501,56.544,108.889"/>
<path fill-rule="evenodd" clip-rule="evenodd" fill="#998B7D" d="M57.178,110.23c3.593-3.664,7.225-7.293,10.889-10.888v0.077
	C64.392,102.977,60.853,106.673,57.178,110.23"/>
<path fill-rule="evenodd" clip-rule="evenodd" fill="#998B7D" d="M-66.461,104.512c-4.72-4.601-9.305-9.339-14.024-13.947
	c3.706-3.941,7.6-7.687,11.432-11.502c-3.753,3.815-7.538,7.6-11.359,11.351C-75.88,95.238-71.056,99.755-66.461,104.512"/>
<path fill-rule="evenodd" clip-rule="evenodd" fill="#998B7D" d="M68.142,122.695c-0.071,0.139-0.179,0.245-0.314,0.314
	c-0.011,0.278,0.265,0.263,0.314,0.475h-0.076c-0.049-0.212-0.336-0.196-0.32-0.475c0.141-0.069,0.244-0.176,0.32-0.314H68.142z"/>
<path fill-rule="evenodd" clip-rule="evenodd" fill="#998B7D" d="M59.938,138.56c2.598,2.845,5.396,5.485,8.123,8.203v0.075
	c-1.948-1.921-4.134-4.059-6.229-6.157C61.193,140.052,60.143,139.066,59.938,138.56"/>
<path fill-rule="evenodd" clip-rule="evenodd" fill="#998B7D" d="M69.403,148.181v-4.185c0-1.439-0.265-3.051,0-4.184
	c0.049-0.184,0.006-0.21,0.162,0c-0.189,2.631-0.027,5.607-0.081,8.368H69.403z"/>
<path fill-rule="evenodd" clip-rule="evenodd" fill="#998B7D" d="M59.461,140.052c2.928,2.856,5.818,5.753,8.681,8.681h-0.076
	C65.241,145.794,62.281,142.989,59.461,140.052"/>
<path fill-rule="evenodd" clip-rule="evenodd" fill="#998B7D" d="M69.484,98c0.049,3.42-0.108,7.049,0.076,10.337
	c-0.038,0.094-0.119,0.194-0.151,0.078c-0.195-0.622,0-1.771,0-2.601V98H69.484z"/>
<path fill-rule="evenodd" clip-rule="evenodd" fill="#998B7D" d="M69.484,124.904v11.673c-0.184-3.734-0.027-7.803-0.075-11.673
	H69.484z"/>
<path fill-rule="evenodd" clip-rule="evenodd" fill="#998B7D" d="M69.484,84.43v11.597h-0.075
	C69.457,92.188,69.3,88.137,69.484,84.43"/>
<g>
	<path fill-rule="evenodd" clip-rule="evenodd" fill="#998B7D" d="M47.553,28.652c4.973-0.184,10.288-0.027,15.386-0.078v0.078
		H47.553z"/>
	<path fill-rule="evenodd" clip-rule="evenodd" fill="#998B7D" d="M91.815,28.652v-0.078c2.949,0.051,6.099-0.106,8.914,0.078
		H91.815z"/>
	<path fill-rule="evenodd" clip-rule="evenodd" fill="#998B7D" d="M89.294,29.521h0.076c-0.048,3.762,0.103,7.731-0.076,11.359
		V29.521z"/>
	<path fill-rule="evenodd" clip-rule="evenodd" fill="#998B7D" d="M90.631,29.521h0.081V40.25
		C90.528,36.829,90.69,33.073,90.631,29.521"/>
	<path fill-rule="evenodd" clip-rule="evenodd" fill="#998B7D" d="M70.196,45.142h1.504v0.079
		C71.224,45.169,70.542,45.326,70.196,45.142"/>
	<path fill-rule="evenodd" clip-rule="evenodd" fill="#998B7D" d="M73.67,45.22v-0.079h6.549
		C78.189,45.326,75.824,45.171,73.67,45.22"/>
	<path fill-rule="evenodd" clip-rule="evenodd" fill="#998B7D" d="M89.294,46.484c0.13,2.232,0.13,5.02,0,7.26V46.484z"/>
	<path fill-rule="evenodd" clip-rule="evenodd" fill="#998B7D" d="M90.712,46.484c0.054,2.157-0.108,4.521,0.076,6.551
		c0,0.076-0.092,0.059-0.157,0.076C90.685,50.927,90.528,48.535,90.712,46.484"/>
	<path fill-rule="evenodd" clip-rule="evenodd" fill="#998B7D" d="M74.065,56.661c0.098,0.024,0.076,0.157,0,0.162
		c-1.764-0.057-3.739,0.106-5.369-0.084C70.461,56.69,72.437,56.845,74.065,56.661"/>
	<path fill-rule="evenodd" clip-rule="evenodd" fill="#998B7D" d="M62.073,56.82v-0.078h5.207
		C65.699,56.926,63.777,56.769,62.073,56.82"/>
	<path fill-rule="evenodd" clip-rule="evenodd" fill="#998B7D" d="M82.822,56.739c-1.261,0.136-3.074,0.136-4.341,0h0.082H82.822z"
		/>
	<path fill-rule="evenodd" clip-rule="evenodd" fill="#998B7D" d="M95.686,56.739h5.438C99.496,56.875,97.309,56.875,95.686,56.739"
		/>
	<path fill-rule="evenodd" clip-rule="evenodd" fill="#998B7D" d="M110.67,56.739h7.264v0.079
		C115.541,56.769,112.933,56.923,110.67,56.739"/>
	<path fill-rule="evenodd" clip-rule="evenodd" fill="#998B7D" d="M119.896,56.82v-0.078h1.669
		C121.169,56.926,120.428,56.769,119.896,56.82"/>
	<path fill-rule="evenodd" clip-rule="evenodd" fill="#998B7D" d="M57.495,57.689c0.184,0.392,0.027,1.128,0.076,1.656h-0.076
		V57.689z"/>
	<path fill-rule="evenodd" clip-rule="evenodd" fill="#998B7D" d="M57.495,61.317h0.076c-0.049,2.392,0.108,4.998-0.076,7.26V61.317
		z"/>
	<path fill-rule="evenodd" clip-rule="evenodd" fill="#998B7D" d="M122.431,61.317h0.074v5.209
		C122.321,64.946,122.479,63.024,122.431,61.317"/>
	<path fill-rule="evenodd" clip-rule="evenodd" fill="#998B7D" d="M122.505,67.944c0.055,1.762-0.097,3.734,0.082,5.366
		c-0.011,0.076-0.098,0.059-0.151,0.076C122.479,71.603,122.321,69.6,122.505,67.944"/>
	<path fill-rule="evenodd" clip-rule="evenodd" fill="#998B7D" d="M122.505,82.066c-0.123-1.264-0.123-3.074,0-4.337v0.075V82.066z"
		/>
	<path fill-rule="evenodd" clip-rule="evenodd" fill="#998B7D" d="M57.495,78.124c0.135,1.629,0.135,3.813,0,5.441V78.124z"/>
	<path fill-rule="evenodd" clip-rule="evenodd" fill="#998B7D" d="M53.787,88.458c0.098,0.021,0.076,0.154,0,0.16
		c-2.153-0.055-4.524,0.099-6.548-0.081C49.393,88.484,51.764,88.642,53.787,88.458"/>
	<path fill-rule="evenodd" clip-rule="evenodd" fill="#998B7D" d="M30.273,88.617v-0.079h10.731
		C37.584,88.723,33.824,88.561,30.273,88.617"/>
	<path fill-rule="evenodd" clip-rule="evenodd" fill="#998B7D" d="M30.273,89.956v-0.075c3.767,0.048,7.733-0.105,11.365,0.075
		H30.273z"/>
	<path fill-rule="evenodd" clip-rule="evenodd" fill="#998B7D" d="M47.239,89.956c2.23-0.131,5.027-0.131,7.257,0H47.239z"/>
	<path fill-rule="evenodd" clip-rule="evenodd" fill="#998B7D" d="M58.836,89.956c4.21-0.18,8.757-0.026,13.102-0.075v0.075H58.912
		H58.836z"/>
	<path fill-rule="evenodd" clip-rule="evenodd" fill="#998B7D" d="M110.833,89.956v-0.075c3.42,0.048,7.046-0.105,10.33,0.075
		h-0.069H110.833z"/>
	<path fill-rule="evenodd" clip-rule="evenodd" fill="#998B7D" d="M122.505,94.926v5.448
		C122.382,98.74,122.382,96.554,122.505,94.926"/>
	<path fill-rule="evenodd" clip-rule="evenodd" fill="#998B7D" d="M57.495,96.423c0.135,1.268,0.135,3.079,0,4.341v-0.076V96.423z"
		/>
	<path fill-rule="evenodd" clip-rule="evenodd" fill="#998B7D" d="M45.897,99.031c0.184,2.024,0.027,4.39,0.076,6.55h-0.076V99.031z
		"/>
	<path fill-rule="evenodd" clip-rule="evenodd" fill="#998B7D" d="M57.414,105.185c0.021-0.102,0.162-0.081,0.162,0
		c-0.054,1.759,0.108,3.734-0.081,5.364C57.44,108.783,57.597,106.814,57.414,105.185"/>
	<path fill-rule="evenodd" clip-rule="evenodd" fill="#998B7D" d="M45.897,107.55h0.076c-0.048,0.476,0.108,1.153-0.076,1.505
		V107.55z"/>
	<path fill-rule="evenodd" clip-rule="evenodd" fill="#998B7D" d="M122.505,109.92v7.258h-0.069
		C122.479,114.779,122.321,112.183,122.505,109.92"/>
	<path fill-rule="evenodd" clip-rule="evenodd" fill="#998B7D" d="M57.495,111.967c0.184,1.579,0.027,3.5,0.076,5.211h-0.076
		V111.967z"/>
	<path fill-rule="evenodd" clip-rule="evenodd" fill="#998B7D" d="M122.431,119.153h0.074v1.656
		C122.321,120.413,122.479,119.673,122.431,119.153"/>
	<path fill-rule="evenodd" clip-rule="evenodd" fill="#998B7D" d="M58.441,121.751c0.4-0.18,1.131-0.021,1.656-0.076v0.076H58.441z"
		/>
	<path fill-rule="evenodd" clip-rule="evenodd" fill="#998B7D" d="M62.073,121.751v-0.076c2.392,0.055,4.995-0.104,7.257,0.076
		H62.073z"/>
	<path fill-rule="evenodd" clip-rule="evenodd" fill="#998B7D" d="M78.876,121.751c1.629-0.131,3.815-0.131,5.444,0H78.876z"/>
	<path fill-rule="evenodd" clip-rule="evenodd" fill="#998B7D" d="M97.185,121.751c1.261-0.131,3.073-0.131,4.334,0h-0.069H97.185z"
		/>
	<path fill-rule="evenodd" clip-rule="evenodd" fill="#998B7D" d="M111.304,121.751c-1.765,0.053-3.733-0.103-5.368,0.081
		c-0.07,0-0.054-0.093-0.07-0.157C107.645,121.729,109.647,121.571,111.304,121.751"/>
	<path fill-rule="evenodd" clip-rule="evenodd" fill="#998B7D" d="M112.727,121.751c1.575-0.18,3.491-0.021,5.207-0.076v0.076
		H112.727z"/>
	<path fill-rule="evenodd" clip-rule="evenodd" fill="#998B7D" d="M90.712,124.754v7.258
		C90.577,129.771,90.577,126.984,90.712,124.754"/>
	<path fill-rule="evenodd" clip-rule="evenodd" fill="#998B7D" d="M89.213,125.458c0.016-0.097,0.157-0.077,0.157,0
		c-0.054,2.159,0.103,4.523-0.081,6.554C89.24,129.852,89.397,127.492,89.213,125.458"/>
	<path fill-rule="evenodd" clip-rule="evenodd" fill="#998B7D" d="M99.782,133.348c2.023-0.178,4.399-0.021,6.548-0.076v0.076
		H99.782z"/>
	<path fill-rule="evenodd" clip-rule="evenodd" fill="#998B7D" d="M108.306,133.348v-0.076c0.481,0.055,1.158-0.102,1.505,0.076
		H108.306z"/>
	<path fill-rule="evenodd" clip-rule="evenodd" fill="#998B7D" d="M90.631,148.977c0.059-3.767-0.103-7.732,0.081-11.364v11.364
		H90.631z"/>
	<path fill-rule="evenodd" clip-rule="evenodd" fill="#998B7D" d="M89.294,138.239c0.179,3.422,0.027,7.187,0.076,10.737h-0.076
		V138.239z"/>
	<path fill-rule="evenodd" clip-rule="evenodd" fill="#998B7D" d="M79.271,149.843h8.913v0.076
		C85.24,149.871,82.085,150.026,79.271,149.843"/>
	<path fill-rule="evenodd" clip-rule="evenodd" fill="#998B7D" d="M117.062,149.919v-0.076h15.392
		C127.474,150.026,122.165,149.871,117.062,149.919"/>
	<path fill-rule="evenodd" clip-rule="evenodd" fill="#998B7D" d="M74.141,17.528C79.358,12.198,84.71,7,89.927,1.667
		c4.498,4.256,8.804,8.713,13.172,13.102c-3.756-3.717-7.562-7.487-11.44-11.367c-0.331-0.325-1.386-1.634-1.581-1.656
		c-0.303-0.022-1.596,1.439-2.045,1.894C83.498,8.174,78.617,13.166,74.141,17.528"/>
	<path fill-rule="evenodd" clip-rule="evenodd" fill="#998B7D" d="M76.906,163.73c4.373,4.301,8.708,8.643,13.016,13.014
		c5.438-5.136,10.575-10.579,15.943-15.774c-5.212,5.324-10.575,10.52-15.781,15.852C85.576,172.573,81.279,168.112,76.906,163.73"
		/>
	<path fill-rule="evenodd" clip-rule="evenodd" fill="#998B7D" d="M75.483,18.001c4.768-4.889,9.67-9.633,14.438-14.52
		c4.086,3.834,7.96,7.874,11.911,11.836C98.45,11.959,95.02,8.58,91.502,5.062c-0.314-0.311-1.267-1.485-1.418-1.496
		C89.771,3.536,88.585,4.9,88.185,5.3C83.996,9.489,79.705,13.9,75.483,18.001"/>
	<path fill-rule="evenodd" clip-rule="evenodd" fill="#998B7D" d="M104.198,15.712c3.707,3.951,7.614,7.698,11.446,11.521v0.079
		c-2.804-2.696-5.727-5.726-8.682-8.678C106.103,17.769,104.588,16.495,104.198,15.712"/>
	<path fill-rule="evenodd" clip-rule="evenodd" fill="#998B7D" d="M64.357,27.231c2.943-2.819,5.742-5.78,8.68-8.599
		c-2.857,2.925-5.753,5.818-8.68,8.677V27.231z"/>
	<path fill-rule="evenodd" clip-rule="evenodd" fill="#998B7D" d="M102.86,16.343c3.67,3.597,7.29,7.228,10.884,10.891h-0.075
		C110.113,23.56,106.417,20.018,102.86,16.343"/>
	<path fill-rule="evenodd" clip-rule="evenodd" fill="#998B7D" d="M66.251,27.231c1.986-2.1,4.151-4.146,6.234-6.234
		c0.666-0.663,1.234-1.48,2.051-1.894c-2.847,2.598-5.493,5.404-8.204,8.128H66.251z"/>
	<path fill-rule="evenodd" clip-rule="evenodd" fill="#998B7D" d="M89.608,27.231c0.141-0.07,0.244-0.176,0.314-0.314
		c0.281-0.019,0.26,0.266,0.471,0.314v0.078c-0.265-0.338-0.514-0.338-0.785,0V27.231z"/>
	<path fill-rule="evenodd" clip-rule="evenodd" fill="#998B7D" d="M29.489,49.087c-0.303,0.016-0.152-0.593-0.163-1.025
		c-0.097-6.272,0.076-13.151,0-19.49c5.58,0.057,11.365-0.104,16.809,0.078H29.407C29.461,35.438,29.305,42.431,29.489,49.087"/>
	<path fill-rule="evenodd" clip-rule="evenodd" fill="#998B7D" d="M53.944,37.725c2.955-3.068,6.04-5.999,8.995-9.07v-0.083
		c-0.493,0.903-1.386,1.547-2.127,2.289C58.577,33.092,56.271,35.515,53.944,37.725"/>
	<path fill-rule="evenodd" clip-rule="evenodd" fill="#998B7D" d="M57.576,35.991c0.747-1.042,2.473-2.468,3.55-3.708
		c1.309-1.193,2.479-2.521,3.783-3.707v0.076C62.435,31.063,59.984,33.512,57.576,35.991"/>
	<path fill-rule="evenodd" clip-rule="evenodd" fill="#998B7D" d="M64.909,28.574h4.183c1.445,0,3.058-0.265,4.184,0
		c0.184,0.043,0.216,0.005,0,0.16c-2.63-0.187-5.607-0.027-8.367-0.082V28.574z"/>
	<path fill-rule="evenodd" clip-rule="evenodd" fill="#998B7D" d="M78.719,38.198c3.112-3.231,6.359-6.315,9.465-9.546v-0.078
		c-0.574,0.898-1.418,1.656-2.203,2.443C83.622,33.366,81.123,35.828,78.719,38.198"/>
	<path fill-rule="evenodd" clip-rule="evenodd" fill="#998B7D" d="M91.815,28.652c2.452,2.571,5.05,5.003,7.496,7.577
		c-1.823-1.713-3.761-3.764-5.678-5.683c-0.627-0.625-1.661-1.418-1.818-1.973V28.652z"/>
	<path fill-rule="evenodd" clip-rule="evenodd" fill="#998B7D" d="M120.926,34.57c-1.672-1.929-3.902-3.991-5.828-5.918v-0.078
		c1.282,1.264,3.084,3.009,4.648,4.579C119.968,33.366,121.439,34.808,120.926,34.57"/>
	<path fill-rule="evenodd" clip-rule="evenodd" fill="#998B7D" d="M117.062,28.652c2.295,2.411,4.736,4.689,7.025,7.1
		c-1.668-1.637-3.567-3.487-5.369-5.287c-0.574-0.571-1.499-1.437-1.656-1.892V28.652z"/>
	<path fill-rule="evenodd" clip-rule="evenodd" fill="#998B7D" d="M80.143,38.75c0.509-0.915,1.418-1.578,2.208-2.365
		c1.542-1.548,3.063-3.146,4.654-4.732c0.774-0.776,1.504-1.591,2.365-2.135h-0.081C86.22,32.579,83.076,35.565,80.143,38.75"/>
	<path fill-rule="evenodd" clip-rule="evenodd" fill="#998B7D" d="M90.631,29.521c1.271,0.836,2.506,2.39,3.706,3.553
		c1.272,1.202,2.506,2.438,3.703,3.707c-2.479-2.373-4.833-4.89-7.328-7.26H90.631z"/>
	<path fill-rule="evenodd" clip-rule="evenodd" fill="#998B7D" d="M100.42,37.173c1.824,2.019,3.734,3.94,5.759,5.758
		c-0.969-0.652-1.938-1.697-3.004-2.76C102.25,39.246,100.854,37.917,100.42,37.173"/>
	<path fill-rule="evenodd" clip-rule="evenodd" fill="#998B7D" d="M118.014,45.063c4.362,0.184,9.065,0.027,13.567,0.078v0.076
		H121.32C120.189,45.217,118.69,45.348,118.014,45.063"/>
	<path fill-rule="evenodd" clip-rule="evenodd" fill="#998B7D" d="M123.377,36.856c1.424,1.31,2.782,2.785,4.184,4.187
		c1.392,1.391,2.933,2.687,4.021,4.178v-0.079C128.897,42.333,126.062,39.668,123.377,36.856"/>
	<path fill-rule="evenodd" clip-rule="evenodd" fill="#998B7D" d="M107.202,43.959c0.259,0.503,0.708,0.809,1.098,1.185v0.079
		C107.948,44.839,107.229,44.409,107.202,43.959"/>
	<path fill-rule="evenodd" clip-rule="evenodd" fill="#998B7D" d="M108.306,45.142h8.285v-0.078c0.075,0,0.07,0.094,0.075,0.157
		h-8.36V45.142z"/>
	<path fill-rule="evenodd" clip-rule="evenodd" fill="#998B7D" d="M71.695,45.142c2.019-1.9,3.902-3.939,5.921-5.833
		c-1.938,1.999-3.913,3.972-5.921,5.912V45.142z"/>
	<path fill-rule="evenodd" clip-rule="evenodd" fill="#998B7D" d="M48.419,45.22c0.774-1.174,2.002-2.162,3.079-3.236
		c1.083-1.08,2.127-2.244,3.236-3.231c-2.056,2.173-4.259,4.213-6.315,6.388V45.22z"/>
	<path fill-rule="evenodd" clip-rule="evenodd" fill="#998B7D" d="M90.712,42.617c-0.125-0.154-0.173-0.909,0.076-0.947
		C90.642,41.862,90.739,42.306,90.712,42.617"/>
	<path fill-rule="evenodd" clip-rule="evenodd" fill="#998B7D" d="M99.073,37.804c2.213,2.151,4.394,4.334,6.548,6.55
		C103.402,42.206,101.227,40.022,99.073,37.804"/>
	<path fill-rule="evenodd" clip-rule="evenodd" fill="#998B7D" d="M73.67,45.22c0.644-0.958,1.662-1.899,2.604-2.841
		c0.941-0.938,1.877-1.957,2.835-2.601c-1.921,1.672-3.642,3.559-5.439,5.363V45.22z"/>
	<path fill-rule="evenodd" clip-rule="evenodd" fill="#998B7D" d="M38.797,52.715c2.322-2.073,4.779-4.687,7.1-7.021h0.082
		c-2.262,2.029-4.827,5.249-7.106,7.178C38.721,53.005,38.635,52.854,38.797,52.715"/>
	<path fill-rule="evenodd" clip-rule="evenodd" fill="#998B7D" d="M45.897,45.694v-0.552h0.552v0.082
		c-0.406-0.095-0.563,0.067-0.477,0.471H45.897z"/>
	<path fill-rule="evenodd" clip-rule="evenodd" fill="#998B7D" d="M46.449,45.142c1.494-1.48,3.269-3.098,4.502-4.579
		c0.493-0.227-0.617,0.85-0.872,1.11c-1.152,1.147-2.679,2.622-3.631,3.547V45.142z"/>
	<path fill-rule="evenodd" clip-rule="evenodd" fill="#998B7D" d="M88.19,45.142c0.33-0.398,0.703-0.771,1.098-1.101
		C88.958,44.438,88.585,44.809,88.19,45.142"/>
	<path fill-rule="evenodd" clip-rule="evenodd" fill="#998B7D" d="M91.815,45.142c-0.329-0.287-1.087-0.952-1.028-1.101
		C91.086,44.454,91.519,44.725,91.815,45.142"/>
	<path fill-rule="evenodd" clip-rule="evenodd" fill="#998B7D" d="M91.815,45.142c0.607-0.048,1.418,0.106,1.896-0.078h0.155
		C93.516,45.369,92.297,45.226,91.815,45.142"/>
	<path fill-rule="evenodd" clip-rule="evenodd" fill="#998B7D" d="M29.407,62.184c2.408-2.295,4.687-4.728,7.101-7.02
		c-1.634,1.662-3.485,3.566-5.282,5.363c-0.579,0.576-1.439,1.502-1.894,1.656H29.407z"/>
	<path fill-rule="evenodd" clip-rule="evenodd" fill="#998B7D" d="M64.281,52.637c1.759-1.824,3.54-3.607,5.363-5.363
		C67.89,49.092,66.105,50.881,64.281,52.637"/>
	<path fill-rule="evenodd" clip-rule="evenodd" fill="#998B7D" d="M71.305,47.588c-0.027-0.392,0.639-0.776,0.947-1.102
		C71.993,46.912,71.495,47.096,71.305,47.588"/>
	<path fill-rule="evenodd" clip-rule="evenodd" fill="#998B7D" d="M81.717,51.611c1.635-1.756,3.415-3.375,5.049-5.125
		C85.354,48.148,83.39,49.95,81.717,51.611"/>
	<path fill-rule="evenodd" clip-rule="evenodd" fill="#998B7D" d="M93.239,46.484c1.163,1.28,2.462,2.427,3.62,3.707
		C95.664,49,94.181,47.674,93.239,46.484"/>
	<path fill-rule="evenodd" clip-rule="evenodd" fill="#998B7D" d="M111.222,50.034c-1.108-1.231-2.354-2.322-3.463-3.553
		C108.885,47.596,110.492,49.057,111.222,50.034"/>
	<path fill-rule="evenodd" clip-rule="evenodd" fill="#998B7D" d="M109.652,46.484c1.495,1.623,3.14,3.109,4.649,4.733
		C112.754,49.688,110.925,48.013,109.652,46.484"/>
	<path fill-rule="evenodd" clip-rule="evenodd" fill="#998B7D" d="M37.612,55.873c1.31-1.426,2.782-2.781,4.178-4.186
		c1.396-1.391,2.695-2.936,4.183-4.021h-0.076C43.088,50.359,40.415,53.184,37.612,55.873"/>
	<path fill-rule="evenodd" clip-rule="evenodd" fill="#998B7D" d="M45.897,47.667h0.076c-0.097,4.418,0.211,9.3-0.151,13.573
		C46,56.872,45.843,52.161,45.897,47.667"/>
	<path fill-rule="evenodd" clip-rule="evenodd" fill="#998B7D" d="M68.069,50.824c0.032,0.043-0.06,0.1-0.082,0.075
		c-0.184-0.181,1.938-2.148,2.289-2.365c0.011,0.095-0.016,0.138-0.076,0.16C69.574,49.122,68.497,50.196,68.069,50.824"/>
	<path fill-rule="evenodd" clip-rule="evenodd" fill="#998B7D" d="M97.969,51.138c1.109,1.413,2.533,2.517,3.707,3.87
		C100.458,53.749,98.856,52.458,97.969,51.138"/>
	<path fill-rule="evenodd" clip-rule="evenodd" fill="#998B7D" d="M75.564,56.739c0.26-0.054,0.547,0.079,0.871,0
		c0.677-0.159,1.629-1.471,2.127-1.972c0.763-0.763,1.386-1.497,2.051-2.049c-0.72,0.836-2.062,2.065-3.079,3.074
		C77.026,56.304,76.625,57.156,75.564,56.739"/>
	<path fill-rule="evenodd" clip-rule="evenodd" fill="#998B7D" d="M113.517,52.242c1.424,1.464,3.264,2.988,4.417,4.579v-0.084
		C116.51,55.197,114.94,53.79,113.517,52.242"/>
	<path fill-rule="evenodd" clip-rule="evenodd" fill="#998B7D" d="M62.073,56.82c0.655-1.088,2.013-2.141,2.999-3.155
		c-0.953,1.071-2.046,2.002-2.999,3.077V56.82z"/>
	<path fill-rule="evenodd" clip-rule="evenodd" fill="#998B7D" d="M116.591,53.427c1.071,1.136,2.176,2.243,3.306,3.315v0.076
		C118.831,55.76,117.272,54.353,116.591,53.427"/>
	<path fill-rule="evenodd" clip-rule="evenodd" fill="#998B7D" d="M60.098,56.82c-0.422-0.068-1.834,0.154-1.494-0.162
		c0.341,0.189,1.018,0.027,1.494,0.084V56.82z"/>
	<path fill-rule="evenodd" clip-rule="evenodd" fill="#998B7D" d="M60.098,56.739c0.482-0.414,0.925-0.857,1.342-1.339
		c-0.033,0.26-0.915,1.025-1.342,1.418V56.739z"/>
	<path fill-rule="evenodd" clip-rule="evenodd" fill="#998B7D" d="M89.294,55.873c0.179,0.16,0.027,0.652,0.076,0.947
		c-0.903-0.216-2.689,0.292-3.393,0c0.005,0,0.098-0.2,0.157-0.162c0.871,0.189,2.078,0.03,3.079,0.084
		C89.391,56.604,89.24,56.138,89.294,55.873"/>
	<path fill-rule="evenodd" clip-rule="evenodd" fill="#998B7D" d="M90.712,56.347v0.392c0.265-0.048,0.729,0.1,0.871-0.078
		c0.633,0.228-0.633,0.146-0.952,0.157C90.679,56.68,90.539,56.358,90.712,56.347"/>
	<path fill-rule="evenodd" clip-rule="evenodd" fill="#998B7D" d="M54.183,62.657c1.136-1.069,2.246-2.176,3.312-3.312h0.081
		C56.515,60.419,55.108,61.978,54.183,62.657"/>
	<path fill-rule="evenodd" clip-rule="evenodd" fill="#998B7D" d="M122.431,59.345h0.074c0.418,0.482,0.855,0.925,1.343,1.339
		C123.583,60.652,122.831,59.77,122.431,59.345"/>
	<path fill-rule="evenodd" clip-rule="evenodd" fill="#998B7D" d="M122.431,59.345c0.07-0.422-0.152-1.834,0.156-1.502
		c-0.184,0.344-0.027,1.026-0.082,1.502H122.431z"/>
	<path fill-rule="evenodd" clip-rule="evenodd" fill="#998B7D" d="M29.326,64.156c1.981-1.994,4.097-4.267,6.078-5.993
		c0.016,0.092-0.016,0.138-0.082,0.154c-1.926,1.677-3.988,3.901-5.915,5.839H29.326z"/>
	<path fill-rule="evenodd" clip-rule="evenodd" fill="#998B7D" d="M71.067,62.264c1.229-1.298,2.495-2.562,3.783-3.785
		C73.627,59.77,72.361,61.033,71.067,62.264"/>
	<path fill-rule="evenodd" clip-rule="evenodd" fill="#998B7D" d="M104.836,58.16h0.071c0.936,1.05,2.002,1.951,2.922,2.998
		C106.802,60.195,105.795,59.191,104.836,58.16"/>
	<path fill-rule="evenodd" clip-rule="evenodd" fill="#998B7D" d="M47.239,69.6c1.624-1.507,3.106-3.147,4.73-4.654
		C50.443,66.491,48.765,68.32,47.239,69.6"/>
	<path fill-rule="evenodd" clip-rule="evenodd" fill="#998B7D" d="M74.141,17.528c4.476-4.359,9.357-9.36,13.892-13.887
		c0.454-0.455,1.742-1.924,2.045-1.894c0.195,0.016,1.25,1.329,1.581,1.656c3.874,3.881,7.69,7.642,11.44,11.359
		c5.688-2.538,11.218-5.236,16.884-7.806c3.123,6.781,6.267,13.559,9.472,20.275c7.311,0.238,15.169-0.076,22.486,0.157v13.886
		c0,1.57-0.299,3.358,0,4.654c0,0.011,0.139-0.005,0.156,0c5.73,2.129,11.543,4.186,17.28,6.312
		c-2.539,7.065-5.175,14.033-7.658,21.146c5.201,5.372,10.645,10.501,15.78,15.938c-4.372,4.308-8.713,8.646-13.015,13.018
		c2.537,5.693,5.232,11.225,7.804,16.884c-6.782,3.129-13.557,6.272-20.273,9.466c-0.184,7.338-0.026,15.018-0.074,22.492h-7.264
		h-11.283c-0.055,0.01-0.093,0.064-0.076,0.151c-2.138,5.736-4.183,11.542-6.316,17.278c-7.056-2.531-14.021-5.168-21.137-7.651
		c-5.375,5.201-10.505,10.645-15.943,15.78c-4.308-4.367-8.648-8.707-13.021-13.014c-5.682,2.537-11.218,5.237-16.885,7.803
		c-3.123-6.786-6.266-13.556-9.465-20.273c-6.267-0.146-13.259-0.074-19.72-0.074c-0.736,0-2.587,0.129-2.766-0.081
		c-0.097-0.113,0-1.814,0-2.289c0-5.456,0.125-11.322-0.157-16.252c-5.742-2.127-11.543-4.184-17.28-6.314
		c2.533-7.063,5.174-14.023,7.658-21.146C13.081,99.734,7.636,94.608,2.5,89.167c4.373-4.305,8.719-8.646,13.021-13.018
		c-2.538-5.69-5.239-11.222-7.809-16.885c6.787-3.125,13.557-6.267,20.278-9.465c0.238-7.313-0.082-15.18,0.151-22.489h13.887
		c1.569,0,3.361,0.3,4.659,0c0.011,0-0.01-0.143,0-0.154c2.127-5.736,4.183-11.543,6.311-17.279
		C60.06,12.409,67.03,15.047,74.141,17.528 M101.833,15.318c-3.944-3.962-7.831-8.001-11.911-11.836
		c-4.768,4.887-9.671,9.636-14.438,14.517c0.016,0.062,0.07,0.095,0.157,0.079c2.765,1.052,5.645,2.1,8.523,3.158
		c0.736,0.273,2.208,1.055,2.917,1.025c0.314-0.011,1.169-0.493,1.813-0.785C93.065,19.547,98.169,17.109,101.833,15.318
		 M127.944,27.231c-2.809-6.24-5.73-12.353-8.588-18.541c-5.114,2.276-10.098,4.692-15.153,7.021c0.385,0.785,1.899,2.054,2.76,2.92
		c2.955,2.952,5.878,5.985,8.675,8.677C119.719,27.261,124,27.416,127.944,27.231 M73.042,18.632
		c-6.327-2.495-12.875-4.754-19.336-7.101c-1.792,5.277-3.799,10.348-5.596,15.624c-0.022-0.011-0.065,0.011-0.087,0
		c0.769,0.471,2.63,0.154,3.945,0.154h4.107h8.28C67.284,24.45,70.174,21.558,73.042,18.632 M102.86,16.343
		c-4.637,2.227-9.47,4.262-13.967,6.627c4.026,1.369,7.874,2.912,11.917,4.262c4.129,0.135,8.816,0.135,12.934,0
		C110.15,23.57,106.53,19.939,102.86,16.343 M74.536,19.103c-0.817,0.417-1.385,1.231-2.051,1.894
		c-2.083,2.092-4.248,4.135-6.234,6.234c3.182,0.135,6.916,0.135,10.104,0c1.553-0.663,3.042-1.339,4.573-2.048
		c1.488-0.692,3.02-1.353,4.34-2.213C81.653,21.72,78.157,20.35,74.536,19.103 M96.703,27.231c-3.091-1.291-6.392-2.387-9.623-3.55
		c-2.451,1.175-4.941,2.316-7.414,3.475c-0.33,0.265,1.737,0.154,2.371,0.154h7.571c0.271-0.338,0.52-0.338,0.79,0h4.968
		C95.853,27.31,96.838,27.373,96.703,27.231 M46.135,28.652c-5.444-0.184-11.235-0.03-16.809-0.078
		c0.081,6.334-0.097,13.218,0,19.49c0.006,0.433-0.135,1.042,0.163,1.026c3.777-1.643,7.387-3.453,11.121-5.133
		C42.406,38.81,44.322,33.788,46.135,28.652 M47.553,28.652c-1.732,4.787-3.713,9.752-5.206,14.517
		c3.826-1.856,7.739-3.617,11.597-5.441c2.327-2.21,4.633-4.632,6.868-6.865c0.747-0.75,1.634-1.391,2.127-2.289
		C57.841,28.622,52.526,28.468,47.553,28.652 M64.909,28.574c-1.304,1.19-2.474,2.517-3.783,3.707
		c-1.077,1.242-2.804,2.665-3.55,3.707c2.008-0.825,3.885-1.789,5.839-2.682c0.157-0.133,0.119-0.455,0.314-0.549
		c0.173,0.089,0.324,0.2,0.628,0.157c2.922-1.448,5.942-2.795,8.918-4.186c0.216-0.154,0.184-0.111,0-0.154
		c-1.126-0.265-2.739,0-4.178,0H64.909z M76.512,28.652c-3.518,1.646-7.133,3.18-10.499,4.971c4.27,1.497,8.415,3.109,12.707,4.576
		c2.403-2.37,4.903-4.83,7.257-7.182c0.79-0.787,1.634-1.544,2.208-2.443C84.32,28.622,80.246,28.468,76.512,28.652 M91.815,28.574
		c0.162,0.554,1.191,1.348,1.818,1.973c1.911,1.918,3.859,3.967,5.672,5.679c3.322-1.466,6.592-2.979,9.79-4.575
		c-2.825-0.966-5.525-2.051-8.361-2.999C97.914,28.468,94.765,28.622,91.815,28.574 M115.098,28.574h-7.821
		c-0.833,0-1.979-0.195-2.597,0c-0.118,0.032-0.017,0.116,0.075,0.154c2.009,0.688,3.924,1.442,5.915,2.135
		c0.232,0.181,0.368-0.222,0.71-0.163c0.074,0.252,0.081,0.555,0.395,0.555c3.047,1.12,6.066,2.251,9.151,3.315
		c0.514,0.238-0.958-1.201-1.18-1.417C118.182,31.583,116.38,29.837,115.098,28.574 M117.062,28.574
		c0.157,0.455,1.082,1.318,1.65,1.894c1.808,1.797,3.707,3.647,5.375,5.287c3.16,1.047,6.347,2.489,9.465,3.315
		c-1.685-3.42-3.253-6.949-4.888-10.418C124.952,28.468,120.91,28.622,117.062,28.574 M130.158,28.728
		c1.645,3.78,3.458,7.387,5.131,11.129c5.14,1.794,10.173,3.712,15.303,5.525c0.19-5.45,0.028-11.235,0.082-16.809h-20.586
		C130.104,28.636,130.088,28.728,130.158,28.728 M89.37,29.521c-0.86,0.544-1.597,1.358-2.365,2.13
		c-1.591,1.583-3.112,3.19-4.654,4.732c-0.791,0.793-1.694,1.451-2.214,2.371c2.571,0.952,5.201,1.851,7.733,2.838
		c0.503-0.205,1.007-0.411,1.418-0.708C89.478,37.251,89.315,33.279,89.37,29.521 M90.636,29.521
		c0.049,3.548-0.108,7.312,0.076,10.729c2.473-1.131,4.994-2.211,7.333-3.469c-1.202-1.269-2.436-2.505-3.701-3.712
		C93.143,31.904,91.896,30.356,90.636,29.521 M106.179,42.931c1.196-3.375,2.483-6.665,3.632-10.096
		c-3.183,1.402-6.257,2.898-9.391,4.341c0.434,0.741,1.83,2.07,2.755,2.998C104.247,41.237,105.204,42.279,106.179,42.931
		 M123.377,36.859c-3.668-1.31-7.245-2.696-10.975-3.945c1.812,4.11,3.771,8.061,5.611,12.152c0.672,0.276,2.176,0.154,3.312,0.154
		h10.255c-1.093-1.491-2.629-2.787-4.021-4.184C126.159,39.641,124.801,38.166,123.377,36.859 M116.591,45.066
		c-1.824-3.939-3.599-7.92-5.525-11.76c-1.31,3.526-2.614,7.065-3.858,10.65c0.027,0.449,0.747,0.882,1.093,1.264h8.366
		C116.661,45.161,116.666,45.066,116.591,45.066 M77.61,39.302c-3.951-1.675-8.226-3.025-12.306-4.579
		c1.624,3.486,3.193,7.017,4.893,10.42c0.346,0.182,1.028,0.027,1.504,0.076C73.703,43.28,75.672,41.307,77.61,39.302
		 M59.156,45.144c1.131-3.36,2.625-6.789,3.545-10.103c-2.636,1.258-5.277,2.511-7.972,3.712c-1.099,0.987-2.148,2.151-3.231,3.231
		c-1.071,1.074-2.311,2.062-3.079,3.236C51.969,45.171,55.735,45.326,59.156,45.144 M68.702,45.144
		c-1.542-3.277-2.955-6.678-4.659-9.787c-1.099,3.295-2.354,6.435-3.469,9.708c-0.021-0.011-0.065,0.011-0.081,0
		c0.763,0.471,2.841-0.027,4.026,0.154C65.888,45.171,67.458,45.326,68.702,45.144 M99.067,37.806
		c-2.765,1.286-5.52,2.57-8.274,3.861c-0.254,0.046-0.2,0.798-0.081,0.95c2.364,0.82,4.654,1.705,7.019,2.527
		c2.366,0.133,5.281,0.133,7.652,0c0.054-0.294,0.195-0.5,0.238-0.792C103.467,42.138,101.286,39.957,99.067,37.806 M126.532,38.039
		c-0.017-0.062-0.069-0.089-0.163-0.079c2.128,2.373,4.796,4.89,7.183,7.26c0.4-0.089,0.562,0.067,0.481,0.471
		c0.92,0.96,2.393,2.483,3.545,3.631c0.259,0.26,1.33,1.364,1.104,0.869c-1.418-3.158-2.918-6.234-4.34-9.387
		C131.651,39.962,129.189,38.91,126.532,38.039 M79.115,39.778c-0.958,0.644-1.9,1.662-2.841,2.601
		c-0.942,0.942-1.964,1.883-2.608,2.841c2.165-0.049,4.529,0.105,6.554-0.076c2.019-0.928,4.102-1.791,5.996-2.843
		C83.796,41.508,81.528,40.572,79.115,39.778 M50.946,40.566c-3.155,1.418-6.234,2.919-9.389,4.337
		c-0.839,2.684-1.894,5.155-2.76,7.814c-0.157,0.138-0.076,0.29,0.082,0.157c2.273-1.929,4.843-5.149,7.094-7.184
		c-0.086-0.404,0.07-0.561,0.477-0.471c0.958-0.931,2.479-2.4,3.626-3.553C50.335,41.413,51.438,40.339,50.946,40.566 M150.592,46.8
		c-4.777-1.734-9.75-3.712-14.508-5.209c1.846,3.824,3.609,7.742,5.439,11.598c2.213,2.321,4.632,4.632,6.861,6.868
		c0.747,0.741,1.391,1.634,2.289,2.127C150.62,57.08,150.782,51.771,150.592,46.8 M89.289,44.035
		c0.179,0.016,0.038-0.276,0.081-0.393c-1.277-1.166-2.191-0.273-3.625,0.393c-0.948,0.444-1.9,0.804-2.29,1.109
		c1.077,0.127,3.388,0.133,4.73,0C88.591,44.806,88.958,44.438,89.289,44.035 M90.793,44.035c-0.065,0.154,0.693,0.82,1.022,1.109
		c0.481,0.082,1.7,0.225,2.051-0.078h-0.155C92.729,44.728,91.815,44.33,90.793,44.035 M36.508,55.162
		c1.05-3.158,2.489-6.351,3.317-9.47c-3.42,1.691-6.948,3.26-10.418,4.895c-0.184,3.707-0.021,7.757-0.081,11.598
		c0.455-0.154,1.321-1.08,1.899-1.656C33.017,58.73,34.868,56.831,36.508,55.162 M48.262,46.484
		c1.504,1.756,3.783,3.858,5.683,5.758c0.46,0.46,1.705,1.984,1.97,1.734c0.947-2.47,1.812-5.025,2.76-7.492H48.262z M69.644,47.271
		c0.032-0.371-0.266-0.417-0.233-0.788h-9.395c-1.017,2.949-2.143,5.796-3.149,8.756c0.211,0.148,0.395,0.338,0.547,0.554
		c2.322-1.02,4.541-2.151,6.867-3.16C66.105,50.883,67.89,49.095,69.644,47.271 M72.247,46.484
		c-0.298,0.328-0.969,0.708-0.947,1.104v0.16c0.357,0.465,1.163,0.471,1.655,0.787c1.478-0.66,2.966-1.296,4.341-2.051H72.247z
		 M86.767,46.484c-2.267,0.232-4.622-0.328-6.31,0c-1.001,0.189-1.986,0.942-2.847,1.342c-0.99,0.465-1.954,0.768-2.76,1.418
		c2.349,0.681,4.67,1.807,6.867,2.367C83.39,49.947,85.354,48.148,86.767,46.484 M88.742,46.484
		c-1.932,1.862-3.821,3.753-5.683,5.68c0.076,0,0.092,0.062,0.157,0.078c1.764,0.625,3.486,1.307,5.287,1.894
		c0.228-0.17,0.59-0.197,0.785-0.392c0.135-2.238,0.135-5.025,0-7.26H88.742z M90.793,53.035c1.623-0.693,3.198-1.432,4.729-2.211
		c-1.146-1.402-2.841-2.938-4.259-4.34h-0.552c-0.184,2.051-0.027,4.445-0.076,6.629C90.696,53.094,90.793,53.108,90.793,53.035
		 M93.239,46.484c0.937,1.19,2.425,2.517,3.626,3.707c1.585-0.73,3.312-1.312,4.653-2.289c-1.266-0.244-2.505-1.207-3.944-1.418
		C96.216,46.284,94.868,46.627,93.239,46.484 M104.836,46.484c-1.049,0.052-2.321-0.105-3.235,0.078
		C102.705,47.155,103.895,47.326,104.836,46.484 M107.759,46.484c-0.52,0.046-1.202-0.095-1.58,0.078
		c-0.179,0.758,0.417,1.28,0.628,1.895c1.478,0.517,2.9,1.093,4.415,1.58C110.492,49.054,108.885,47.593,107.759,46.484
		 M109.652,46.484c1.278,1.529,3.106,3.204,4.645,4.733c2.1,0.692,4.107,1.48,6.158,2.21c-0.969-2.392-2.153-4.581-3.154-6.943
		H109.652z M131.738,46.484h-13.026c1.115,2.57,2.382,4.992,3.479,7.576c0.494,0.144,0.878,0.376,1.424,0.471
		c0.492-0.195,1.478-1.242,2.127-1.897C127.804,50.581,130.033,48.351,131.738,46.484 M152.098,47.35
		c0.011-0.016-0.018-0.057,0-0.078c-0.471,0.765-0.156,2.622-0.156,3.945v4.102v8.283c2.856,2.927,5.746,5.82,8.674,8.68
		c2.489-6.318,4.752-12.864,7.1-19.331C162.439,51.163,157.363,49.154,152.098,47.35 M47.239,47.51v13.018
		c2.57-1.11,5-2.368,7.576-3.469c0.141-0.487,0.379-0.882,0.471-1.426c-1.04-1.434-2.565-2.725-3.945-4.099
		C49.956,50.142,48.619,48.63,47.239,47.51 M132.762,47.51c-1.754,1.501-3.849,3.78-5.76,5.679c-0.459,0.46-1.979,1.708-1.73,1.973
		c2.479,0.95,5.027,1.807,7.49,2.76V47.51z M45.973,47.664c-1.488,1.087-2.787,2.633-4.177,4.029
		c-1.402,1.396-2.874,2.754-4.184,4.178c-1.299,3.669-2.69,7.249-3.945,10.967c4.113-1.805,8.063-3.767,12.155-5.602
		C46.184,56.964,45.875,52.083,45.973,47.664 M134.033,47.664c0.043,3.553-0.113,7.316,0.07,10.734
		c3.382,1.199,6.673,2.484,10.103,3.632c-1.201-2.717-2.516-5.325-3.706-8.053c-1.045-1.109-2.121-2.189-3.236-3.23
		C136.219,49.736,135.143,48.346,134.033,47.664 M70.196,48.694c0.064-0.021,0.097-0.064,0.081-0.16
		c-0.357,0.216-2.479,2.178-2.289,2.365c0.027,0.025,0.114-0.032,0.082-0.075c0.601-0.195,1.028-0.549,1.656-0.709
		C69.855,49.609,70.088,49.211,70.196,48.694 M101.676,55.002c0.801-1.718,1.64-4.103,2.295-6.229
		c-1.028-0.243-1.997,0.514-2.922,0.947c-1.007,0.465-2.203,0.971-3.004,1.417h-0.069C98.856,52.458,100.453,53.749,101.676,55.002
		 M109.172,56.658c-0.86-1.905-1.802-3.945-2.685-5.834c-0.266-0.582-0.482-1.448-1.261-1.58c-0.785,2.283-1.646,4.51-2.447,6.789
		c0.109,0.344,0.4,0.492,0.633,0.709c1.792,0.184,3.919,0.026,5.84,0.078C109.23,56.758,109.252,56.663,109.172,56.658
		 M80.608,52.718c-0.017-0.059-0.065-0.094-0.152-0.083c-1.245-0.552-2.636-0.937-3.945-1.417c-1.288-0.471-2.566-1.302-3.945-1.102
		c0.763,2.126,2.023,4.438,2.998,6.627c1.061,0.411,1.461-0.438,1.97-0.948C78.552,54.78,79.889,53.549,80.608,52.718
		 M113.517,52.242c-2.018-0.671-3.944-1.417-5.92-2.126c0.968,2.254,2.03,4.438,3.073,6.627c2.263,0.184,4.871,0.026,7.264,0.078
		C116.774,55.229,114.935,53.706,113.517,52.242 M74.065,56.658c-0.926-1.989-1.748-4.089-2.841-5.913
		c-0.79,0.576-1.055,1.762-1.418,2.76c-0.395,1.064-0.768,2.3-1.104,3.237c1.629,0.184,3.599,0.026,5.363,0.078
		C74.141,56.82,74.168,56.68,74.065,56.658 M27.99,51.295c-6.24,2.809-12.355,5.747-18.546,8.599
		c2.284,5.112,4.697,10.087,7.024,15.153c0.785-0.39,2.057-1.902,2.917-2.765c2.96-2.955,5.985-5.869,8.681-8.68
		C28.017,59.529,28.168,55.24,27.99,51.295 M96.633,51.85c-1.295,0.454-3.204,1.407-4.578,2.048
		c-0.51,0.238-1.159,0.374-1.419,0.872c0.64,0.587,1.587,0.708,2.44,1.025c0.845,0.312,1.813,0.758,2.609,0.948
		c1.628,0.126,3.811,0.126,5.433,0c0.012-0.049,0.021-0.095,0.087-0.084c-0.033-0.133,0.119-0.198,0-0.233
		C99.717,54.87,98.186,53.34,96.633,51.85 M67.279,56.742c0.595-1.619,1.245-3.174,1.737-4.893c-1.353,0.571-2.63,1.207-3.945,1.81
		c-0.98,1.02-2.349,2.073-2.999,3.161C63.777,56.769,65.704,56.926,67.279,56.742 M82.188,53.268
		c-0.016-0.062-0.064-0.089-0.151-0.079c-1.224,1.153-2.403,2.333-3.556,3.553c1.267,0.126,3.08,0.126,4.341,0
		c1.331-0.593,2.754-1.091,3.869-1.895C85.138,54.369,83.736,53.744,82.188,53.268 M116.591,53.427
		c0.682,0.925,2.235,2.333,3.312,3.393c0.525-0.052,1.261,0.105,1.663-0.078c0.15-0.022,0.146-0.217,0.312-0.238
		c-0.103-0.555-0.416-0.898-0.552-1.418C119.696,54.58,118.226,53.922,116.591,53.427 M61.44,55.4
		c-1.023,0.344-1.862,0.876-2.842,1.258c-0.335,0.316,1.083,0.094,1.504,0.162C60.525,56.425,61.402,55.662,61.44,55.4
		 M89.289,55.871c-1.066-0.741-2.122,0.528-3.155,0.788c-0.065-0.033-0.152,0.162-0.157,0.162c0.709,0.298,2.484-0.216,3.393,0
		C89.321,56.525,89.473,56.033,89.289,55.871 M131.977,68.889c0.341,0.032,0.411-0.222,0.714-0.233
		c0.179-2.977,0.017-6.289,0.071-9.392c-2.95-1.021-5.792-2.146-8.762-3.152c-0.125,0.254-0.412,0.371-0.541,0.631
		c1.07,2.237,2.132,4.489,3.155,6.783C128.361,65.349,130.158,67.138,131.977,68.889 M90.712,56.35
		c-0.179,0.005-0.033,0.33-0.076,0.471c0.314-0.011,1.587,0.07,0.941-0.162C91.291,56.552,91.01,56.436,90.712,56.35 M143.265,56.82
		c0.78,1.994,1.787,3.777,2.593,5.758c0.124,0.22,0.498,0.187,0.639,0.398c-0.092,0.17-0.2,0.322-0.168,0.625
		c1.451,2.922,2.804,5.936,4.189,8.918c0.255,0.398,0.156-1.421,0.156-1.973v-6.392c-1.189-1.307-2.51-2.476-3.707-3.785
		C145.717,59.296,144.305,57.567,143.265,56.82 M57.495,57.689c-0.021-0.16-0.217-0.154-0.238-0.316
		c-0.552,0.1-0.898,0.417-1.417,0.549c-0.504,1.629-1.164,3.098-1.656,4.738c0.926-0.682,2.333-2.243,3.393-3.312
		C57.521,58.814,57.679,58.084,57.495,57.689 M122.587,57.846c-0.314-0.338-0.086,1.079-0.151,1.501
		c0.396,0.419,1.152,1.301,1.412,1.339C123.502,59.661,122.972,58.825,122.587,57.846 M35.322,58.317
		c0.065-0.02,0.098-0.062,0.082-0.157c-1.98,1.729-4.097,4.008-6.078,5.996v7.814c0,0.831-0.194,1.979,0,2.598
		c0.044,0.116,0.119,0.019,0.163-0.076c0.682-2.002,1.434-3.929,2.126-5.918c0.184-0.222-0.222-0.368-0.157-0.712
		c0.238-0.027,0.4-0.127,0.552-0.238C33.044,64.456,34.272,61.474,35.322,58.317 M60.65,58.16c-0.163,0.101-0.292,0.227-0.396,0.395
		c0.996,1.02,2.354,2.438,3.475,3.55c0.303,0.305,1.207,1.293,1.261,0.949c0.579-1.607,1.196-3.171,1.737-4.816
		c0.038,0.043,0.119-0.144,0.081-0.154c-0.714-0.247-1.997,0-3.079,0C62.598,58.084,61.488,58.021,60.65,58.16 M68.145,58.16
		c-0.644,2.089-1.705,4.186-2.132,6.234c0.801,0.1,1.602-0.56,2.452-0.947c0.882-0.409,1.905-0.803,2.603-1.185
		c1.299-1.231,2.555-2.489,3.783-3.785c-0.011-0.116,0.032-0.292-0.076-0.317C72.745,58.027,70.169,58.027,68.145,58.16
		 M79.667,58.238c0.06,0.022,0.222-0.168,0.232-0.154c-0.541-0.295-3.631,0.005-3.387,0.63c0.064,0.3,0.232,0.498,0.314,0.787
		C77.88,59.191,78.725,58.666,79.667,58.238 M82.984,58.16c-1.889,0.798-3.647,1.718-5.525,2.527
		c3.864,8.54,7.831,16.99,11.83,25.403c0.184-4.21,0.027-9.438,0.081-13.886c-0.054-4.679,0.108-9.571-0.081-14.12
		C87.216,58.133,84.927,57.979,82.984,58.16 M90.712,58.084c-0.141,7.373-0.076,16.176-0.076,23.982c0,0.898-0.103,3.869,0.157,3.16
		c3.057-8.518,6.196-16.941,9.232-25.487c-1.472-0.527-2.896-1.104-4.421-1.58C94.132,57.979,92.313,58.133,90.712,58.084
		 M100.577,58.238c0.32-0.282-1.655-0.2-0.871,0c0.249,0.089,0.465,0.216,0.784,0.238C100.507,58.376,100.594,58.365,100.577,58.238
		 M101.99,58.16c-0.044,0.322-0.267,0.465-0.232,0.871c1.006,0.249,1.812,0.709,2.836,0.942c0.021,0.068,0.069,0.095,0.161,0.084
		C104.106,59.518,103.511,57.833,101.99,58.16 M104.836,58.16c0.959,1.031,1.96,2.035,2.993,2.998
		c1.315,0.555,2.701,1.042,4.103,1.502c-0.611-1.572-1.364-2.999-2.052-4.5C108.387,58.027,106.336,58.027,104.836,58.16
		 M119.356,58.16c-2.533-0.181-5.396-0.027-8.053-0.076c0.017,0.059,0,0.154,0.076,0.154c0.746,1.756,1.579,3.425,2.364,5.13
		c0.352,0,0.703,0.4,0.953,0.233c1.716-1.646,3.404-3.329,5.049-5.047C119.648,58.387,119.524,58.26,119.356,58.16 M51.969,64.943
		c0.698-2.088,1.483-4.094,2.213-6.15c-2.397,0.968-4.579,2.154-6.943,3.152v7.652C48.765,68.317,50.443,66.488,51.969,64.943
		 M58.912,59.894c-0.178,2.527-0.027,5.393-0.076,8.047c0.06-0.016,0.157,0,0.157-0.079c1.753-0.741,3.425-1.572,5.13-2.365
		c0-0.344,0.406-0.698,0.233-0.947c-1.646-1.713-3.329-3.398-5.049-5.049C59.14,59.602,59.015,59.729,58.912,59.894 M120.693,59.501
		c-1.023,0.994-2.392,2.316-3.475,3.391c-0.38,0.379-1.31,1.22-1.022,1.342c1.596,0.582,3.177,1.19,4.811,1.734
		c-0.044,0.043,0.151,0.122,0.156,0.084c0.244-0.717,0-1.997,0-3.077c0-1.126,0.066-2.243-0.069-3.082
		C120.99,59.729,120.861,59.602,120.693,59.501 M75.564,59.818c-0.195-0.127-0.969,0.641-0.714,0.709v-0.079
		C75.202,60.375,75.813,60.232,75.564,59.818 M134.185,59.818c0.011-0.024-0.016-0.062,0-0.079c-0.471,0.76,0.021,2.838-0.151,4.024
		c0.043,1.369-0.113,2.941,0.07,4.178c3.269-1.534,6.684-2.949,9.784-4.654C140.597,62.189,137.459,60.93,134.185,59.818
		 M107.12,62.346c-1.942-0.744-3.875-1.491-5.915-2.135c-3.068,8.845-6.391,17.434-9.465,26.274
		c-0.044,0.192,0.655-0.506,1.099-0.95c6.212-6.21,12.652-12.761,18.697-18.698C110.179,65.225,108.619,63.823,107.12,62.346
		 M57.576,61.32c-1.591,1.153-3.117,2.993-4.578,4.417c-0.671,2.01-1.413,3.945-2.127,5.917c2.246-0.979,4.443-2.026,6.625-3.079
		C57.679,66.312,57.521,63.707,57.576,61.32 M122.436,61.32c0.043,1.705-0.114,3.623,0.069,5.204
		c1.619,0.598,3.173,1.245,4.898,1.734c-0.567-1.353-1.218-2.627-1.818-3.939C124.567,63.336,123.513,61.967,122.436,61.32
		 M87.638,85.936c-0.108-0.609-0.866-2.135-1.342-3.161c-3.328-7.151-6.808-14.49-10.022-21.455
		c-1.537,0.614-2.993,1.318-4.422,2.048c-1.147,1.137-2.37,2.2-3.387,3.469C74.899,73.156,81.198,79.612,87.638,85.936
		 M45.821,62.66c-3.939,1.818-7.917,3.601-11.76,5.52c3.529,1.312,7.062,2.616,10.656,3.869c0.444-0.029,0.877-0.755,1.255-1.109
		v-8.28C45.973,62.578,45.837,62.56,45.821,62.66 M110.351,63.525c0.055-0.067-0.15-0.083-0.15-0.079
		c0.064,0.793,1.894,1.629,2.294,2.368h0.07C114.085,64.532,111.515,63.823,110.351,63.525 M139.942,76.857
		c1.678-3.957,3.021-8.229,4.573-12.307c-3.479,1.624-7.009,3.19-10.412,4.893c-0.184,0.344-0.027,1.025-0.07,1.496
		C135.971,72.944,137.939,74.917,139.942,76.857 M68.145,65.103c-0.4,0.073-0.719,0.227-0.947,0.474
		c0.162,0.021,0.157,0.214,0.319,0.238C67.734,65.663,68.312,65.117,68.145,65.103 M121.094,67.393
		c-2.095-0.647-4.184-1.713-6.24-2.132c-0.104,0.792,0.552,1.601,0.942,2.449c0.41,0.882,0.806,1.905,1.195,2.605
		c1.223,1.291,2.484,2.554,3.777,3.783c0.119-0.016,0.298,0.03,0.325-0.076C121.218,71.992,121.218,69.416,121.094,67.393
		 M150.592,75.756c-1.639-3.516-3.181-7.127-4.962-10.496c-1.51,4.261-3.112,8.412-4.588,12.707c2.375,2.4,4.837,4.903,7.181,7.26
		c0.801,0.787,1.553,1.629,2.451,2.205C150.62,83.562,150.782,79.49,150.592,75.756 M27.99,65.498
		c-3.664,3.596-7.295,7.225-10.894,10.889c2.23,4.638,4.265,9.47,6.629,13.965c1.369-4.024,2.912-7.875,4.265-11.914
		C28.12,74.309,28.12,69.627,27.99,65.498 M152.016,65.498c-0.129,3.179-0.129,6.916,0,10.095c0.666,1.559,1.348,3.05,2.052,4.579
		c0.703,1.507,1.374,3.058,2.208,4.34c1.256-3.609,2.619-7.11,3.869-10.729c-0.416-0.819-1.224-1.385-1.889-2.051
		C156.167,69.644,154.11,67.481,152.016,65.498 M66.57,66.761v-0.078c-1.282-1.523-1.991,1.047-2.289,2.206
		c-0.07-0.054-0.086,0.162-0.081,0.162C64.995,68.989,65.829,67.154,66.57,66.761 M114.145,67.393
		c-0.069-0.404-0.232-0.72-0.471-0.948c-0.021,0.16-0.211,0.154-0.237,0.316C113.588,66.979,114.134,67.56,114.145,67.393
		 M130.56,69.443c0.016,0.062,0.059,0.094,0.15,0.078c-0.703-0.549-1.574-2.224-2.365-2.446c0.027,0.008-0.01,0.195,0.081,0.157
		c0.142,0.677,0.559,1.074,0.71,1.74C129.645,69.1,130.033,69.327,130.56,69.443 M61.911,71.416c0.558-1.312,1.044-2.692,1.504-4.1
		c-1.575,0.609-2.999,1.367-4.503,2.048c-0.13,1.497-0.13,3.547,0,5.049C59.946,73.451,60.947,72.447,61.911,71.416 M87.005,87.432
		c0,0.133,0.216,0.043,0.232,0.16c0.114-0.233-0.2-0.438-0.314-0.555c-6.234-6.61-13.167-12.771-19.33-19.328
		c-1.608,1.358-3.015,2.925-4.492,4.416c-0.747,1.946-1.493,3.88-2.137,5.921C69.73,81.086,78.254,84.372,87.005,87.432
		 M115.877,71.099c-1.137-1.153-2.192-2.37-3.475-3.39c-6.305,6.434-12.767,12.733-19.088,19.168
		c-0.091-0.016-0.049,0.132,0.082,0.084c4.021-1.665,8.079-3.813,12.225-5.764c4.161-1.951,8.355-3.78,12.312-5.68
		C117.311,73.981,116.606,72.525,115.877,71.099 M50.79,68.025c-0.98,0.73-2.441,2.343-3.55,3.469
		c0.043,0.509-0.098,1.196,0.076,1.578c1.84,0.116,2.132-1.25,2.685-2.757C50.313,69.443,50.648,68.55,50.79,68.025 M122.587,73.31
		c1.992-0.931,4.086-1.75,5.92-2.842c-0.578-0.792-1.77-1.052-2.765-1.417c-1.066-0.395-2.301-0.766-3.237-1.109
		c-0.184,1.656-0.026,3.658-0.069,5.447C122.489,73.372,122.582,73.383,122.587,73.31 M43.689,73.072
		c-3.377-1.202-6.667-2.481-10.099-3.628c1.401,3.174,2.901,6.25,4.34,9.387c0.741-0.431,2.072-1.835,2.998-2.76
		C41.99,75.006,43.034,74.038,43.689,73.072 M57.414,70.074c-1.889,0.86-3.967,1.812-5.834,2.684
		c-0.596,0.276-1.461,0.498-1.58,1.264c2.321,0.779,4.519,1.683,6.867,2.443c0.244-0.178,0.455-0.39,0.628-0.633
		c0.184-1.761,0.027-3.861,0.081-5.758C57.576,69.992,57.435,69.976,57.414,70.074 M36.979,79.939
		c-1.466-3.32-2.977-6.595-4.573-9.788c-0.969,2.822-2.051,5.521-2.999,8.364c-0.184,2.814-0.021,5.972-0.081,8.916
		c0.558-0.162,1.353-1.193,1.975-1.812C33.217,83.701,35.274,81.763,36.979,79.939 M131.663,70.547
		c-0.715,0.165-0.574,1.169-0.953,1.656c0.655,1.475,1.299,2.965,2.052,4.337v-5.047C132.432,71.194,132.052,70.523,131.663,70.547
		 M126.532,79.855c0.06-0.016,0.086-0.065,0.082-0.154c0.551-1.242,0.93-2.633,1.417-3.945c0.476-1.286,1.305-2.56,1.104-3.946
		c-2.134,0.764-4.443,2.027-6.631,2.999c-0.405,1.063,0.439,1.461,0.954,1.972C124.465,77.793,125.698,79.136,126.532,79.855
		 M134.033,72.912c0.043,2.157-0.113,4.527,0.07,6.551c0.925,2.021,1.796,4.099,2.847,5.996c0.784-2.417,1.731-4.684,2.521-7.1
		c-0.645-0.958-1.661-1.9-2.604-2.842C135.927,74.573,134.979,73.556,134.033,72.912 M45.112,73.626
		c-2.219,2.146-4.399,4.329-6.554,6.545c1.288,2.765,2.571,5.525,3.864,8.286c0.043,0.255,0.801,0.197,0.947,0.075
		c0.822-2.358,1.715-4.653,2.527-7.018c0.136-2.368,0.136-5.287,0-7.655C45.578,73.843,45.453,73.621,45.112,73.626 M119.432,74.809
		c0.098-0.312-0.487-0.623-0.72-0.872c0.055,0.144,0.055,0.333,0.163,0.398c0.098,0.227,0.103,0.533,0.395,0.549
		C119.356,74.885,119.362,74.825,119.432,74.809 M132.762,86.014c-0.228-2.267,0.329-4.616,0-6.312
		c-0.195-0.993-0.942-1.989-1.343-2.844c-0.471-0.996-0.753-1.967-1.418-2.76c-0.676,2.352-1.802,4.668-2.364,6.868
		C129.298,82.637,131.1,84.599,132.762,86.014 M58.912,77.252c0.325,0.049,0.466,0.276,0.872,0.238
		c0.216-0.999,0.953-2.3,0.942-2.998C60.13,75.367,58.593,75.721,58.912,77.252 M47.239,74.414c0.054,1.053-0.108,2.311,0.076,3.236
		C47.911,76.541,48.083,75.35,47.239,74.414 M161.249,74.73c-0.071,0.016-0.098,0.065-0.076,0.154
		c-1.444,3.801-2.846,7.625-4.188,11.521c2.354,4.85,4.524,9.899,6.938,14.671c4-3.87,7.848-7.876,11.847-11.751
		C171.044,84.35,166.107,79.574,161.249,74.73 M55.757,77.566c-1.721-0.803-4.102-1.629-6.229-2.281
		c-0.244,1.018,0.514,1.994,0.947,2.914c0.465,1.004,0.969,2.206,1.418,2.999v0.078C53.214,80.388,54.502,78.786,55.757,77.566
		 M120.536,75.756c-0.304,0.064-0.509,0.232-0.79,0.313c0.309,1.055,0.833,1.902,1.261,2.838c-0.027,0.062,0.168,0.222,0.156,0.238
		C121.451,78.603,121.158,75.507,120.536,75.756 M121.094,82.223c-0.807-1.886-1.731-3.642-2.533-5.52
		c-8.54,3.867-16.998,7.831-25.402,11.829c8.875,0.136,18.99,0.136,28.005,0C121.11,86.46,121.271,84.174,121.094,82.223
		 M16.073,77.412c-3.961,3.951-8.004,7.832-11.835,11.915c4.886,4.765,9.633,9.673,14.52,14.437
		c0.059-0.019,0.092-0.066,0.076-0.151c1.055-2.772,2.105-5.65,3.16-8.527c0.271-0.736,1.05-2.21,1.023-2.92
		c-0.011-0.312-0.493-1.169-0.785-1.812C20.3,86.179,17.864,81.07,16.073,77.412 M50.946,82.383c-0.73-1.586-1.315-3.32-2.289-4.654
		c-0.238,1.269-1.207,2.508-1.418,3.945c-0.2,1.363,0.141,2.703,0,4.34C48.43,85.069,49.756,83.587,50.946,82.383 M122.505,77.729
		c-0.129,1.263-0.129,3.073,0,4.337c0.591,1.331,1.095,2.754,1.896,3.869c0.48-1.553,1.104-2.955,1.58-4.5
		c0.064-0.017,0.092-0.068,0.075-0.16C124.908,80.062,123.724,78.876,122.505,77.729 M57.181,78.045
		c-1.559,1.488-3.084,3.014-4.579,4.575c0.46,1.286,1.413,3.199,2.051,4.573c0.238,0.514,0.379,1.159,0.872,1.423
		c0.584-0.641,0.708-1.591,1.022-2.449c0.314-0.841,0.758-1.807,0.947-2.605c0.129-1.629,0.129-3.812,0-5.441
		C57.392,78.132,57.203,77.855,57.181,78.045 M58.994,78.676c-0.282-0.328-0.2,1.65,0,0.863c0.086-0.254,0.216-0.465,0.238-0.785
		C59.128,78.749,59.118,78.654,58.994,78.676 M152.098,78.908c-0.266-0.327-0.156,1.74-0.156,2.368v7.574
		c0.048,0.184,0.253,0.217,0.312,0.4c-0.06,0.182-0.265,0.208-0.312,0.393v4.971c0,0.48-0.066,1.47,0.074,1.344
		c1.288-3.105,2.393-6.398,3.545-9.629C154.387,83.874,153.25,81.379,152.098,78.908 M85.977,88.458
		c-8.518-3.055-16.938-6.208-25.484-9.232c-0.525,1.48-1.109,2.892-1.581,4.421c-0.178,1.469-0.027,3.285-0.076,4.886
		c7.376,0.148,16.176,0.085,23.985,0.085C83.72,88.617,86.691,88.712,85.977,88.458 M140.5,79.384
		c-0.952,2.606-1.895,5.204-2.853,7.81c0.276,0.424,0.412,0.968,0.72,1.338c3.627,0.19,7.599,0.03,11.365,0.085
		c-0.547-0.863-1.358-1.597-2.137-2.37c-1.587-1.586-3.189-3.11-4.731-4.657C142.08,80.802,141.414,79.896,140.5,79.384
		 M37.536,81.198c-1.272,1.207-2.506,2.443-3.712,3.707c-1.164,1.207-2.711,2.443-3.55,3.712c3.55-0.055,7.311,0.105,10.731-0.085
		C39.874,86.063,38.792,83.541,37.536,81.198 M27.99,82.537c-1.293,3.104-2.392,6.397-3.556,9.627
		c1.174,2.455,2.316,4.952,3.474,7.419c0.157,0.213,0.114,0.185,0.157,0c0.325-1.373,0-3.268,0-4.97v-4.971
		c-0.049-0.216-0.33-0.2-0.319-0.476c0.146-0.068,0.249-0.173,0.319-0.317v-4.971C28.065,83.397,28.125,82.41,27.99,82.537
		 M132.762,87.986c-1.856-1.929-3.751-3.826-5.678-5.682c0,0.079-0.069,0.095-0.082,0.157c-0.621,1.767-1.298,3.485-1.894,5.288
		c0.168,0.222,0.195,0.592,0.401,0.784c2.225,0.136,5.021,0.136,7.252,0V87.986z M134.104,82.699c-0.125,1.08-0.125,3.391,0,4.732
		c0.33,0.398,0.703,0.771,1.108,1.101c-0.016,0.174,0.277,0.042,0.391,0.085c1.175-1.28,0.275-2.195-0.391-3.628
		C134.77,84.039,134.406,83.091,134.104,82.699 M51.58,83.725c-1.402,1.153-2.938,2.847-4.34,4.262v0.546
		c2.024,0.184,4.395,0.03,6.548,0.085c0.082-0.006,0.098-0.138,0-0.16C53.09,86.839,52.364,85.248,51.58,83.725 M122.587,85.381
		c0.038-0.068-0.168-0.154-0.151-0.154c-0.303,0.703,0.205,2.481,0,3.391c0.287-0.048,0.784,0.099,0.941-0.085
		C124.113,87.48,122.857,86.401,122.587,85.381 M45.897,87.432c0.13-0.294,0.157-2.527-0.076-1.896
		c-0.335,0.982-0.736,1.896-1.028,2.922C44.945,88.516,45.61,87.759,45.897,87.432 M57.105,88.532
		c0.725,0.724,0.503-1.633,0.309-0.862C57.316,87.956,57.197,88.235,57.105,88.532 M162.898,102.106
		c-2.224-4.639-4.252-9.472-6.623-13.966c-1.369,4.024-2.912,7.872-4.26,11.915c-0.129,4.129-0.129,8.81,0,12.939
		C155.686,109.4,159.306,105.769,162.898,102.106 M30.273,89.875c0.292,0.599,1.466,1.707,2.213,2.449
		c1.634,1.634,3.133,3.13,4.648,4.656c0.785,0.778,1.516,1.586,2.371,2.128c0.958-2.57,1.851-5.193,2.841-7.73
		c-0.206-0.504-0.412-1.009-0.709-1.418C38.007,89.776,34.04,89.93,30.273,89.875 M44.793,89.96
		c-0.011-0.18-0.335-0.037-0.476-0.085c-1.017,1.303-0.141,2.384,0.476,3.713c0.396,0.849,0.758,1.617,1.104,2.208
		c0.13-1.082,0.136-3.394,0-4.736C45.567,90.664,45.194,90.291,44.793,89.96 M47.239,89.96v0.546
		c1.553,1.67,3.469,3.477,5.049,5.052c0.167,0.174,0.378,0.703,0.709,0.477c0.627-1.77,1.31-3.481,1.894-5.288
		c-0.173-0.223-0.2-0.594-0.395-0.786C52.262,89.827,49.474,89.827,47.239,89.96 M56.629,89.96c-0.747,1.062,0.53,2.121,0.785,3.152
		c-0.033,0.066,0.162,0.153,0.162,0.158c0.298-0.702-0.216-2.485,0-3.396C57.278,89.93,56.786,89.776,56.629,89.96 M58.836,89.96
		c0.049,2.077-0.103,4.357,0.076,6.311c0.801,1.885,1.727,3.639,2.528,5.521c8.523-3.836,16.884-7.837,25.327-11.756
		c0.216-0.154,0.189-0.112,0-0.16c-1.006-0.239-2.505,0-3.707,0H71.933C67.593,89.93,63.042,89.776,58.836,89.96 M110.833,89.875
		H95.686c-0.4,0-2.203-0.042-1.656,0.085c8.394,3.195,16.955,6.236,25.483,9.31c0.525-1.472,1.099-2.899,1.581-4.424
		c0.178-1.469,0.017-3.284,0.069-4.886C117.879,89.776,114.253,89.93,110.833,89.875 M122.505,89.875
		c-0.166,0.15-0.113,1.634,0.082,0.946c0.099-0.321,0.271-0.57,0.319-0.946H122.505z M127.403,95.877
		c-0.46-1.29-1.412-3.203-2.062-4.578c-0.233-0.51-0.367-1.158-0.861-1.424c-0.589,0.645-0.708,1.592-1.021,2.449
		c-0.314,0.841-0.764,1.813-0.954,2.606c-0.129,1.627-0.129,3.81,0,5.443c0.05,0,0.094,0.01,0.082,0.076
		c0.136-0.032,0.205,0.118,0.232,0C124.384,98.956,125.91,97.43,127.403,95.877 M132.762,89.96c-2.052-0.184-4.443-0.03-6.619-0.085
		c0.017,0.061,0,0.16,0.081,0.16c0.682,1.623,1.418,3.203,2.202,4.731c1.402-1.152,2.939-2.845,4.336-4.261V89.96z M135.212,90.035
		c-0.155-0.059-0.822,0.697-1.108,1.024c-0.081,0.481-0.233,1.703,0.081,2.053v-0.155C134.521,91.976,134.921,91.06,135.212,90.035
		 M137.497,89.96c-0.104-0.101-0.888-0.212-0.871,0.075c-0.862,2.295-1.7,4.61-2.522,6.945c-0.125,2.366-0.125,5.288,0,7.652
		c0.292,0.048,0.498,0.189,0.801,0.238c2.202-2.147,4.395-4.336,6.538-6.554C140.122,95.537,138.882,92.678,137.497,89.96
		 M139.002,89.96c1.125,2.469,2.208,4.99,3.463,7.334c2.478-2.416,4.931-4.859,7.338-7.334
		C146.382,89.827,142.411,89.827,139.002,89.96 M92.762,90.985c-0.193-0.04,0.504,0.657,0.949,1.1
		c6.212,6.21,12.76,12.65,18.691,18.7c1.618-1.362,3.025-2.928,4.508-4.416c0.736-1.941,1.482-3.885,2.132-5.919
		C110.2,97.375,101.601,94.059,92.762,90.985 M29.326,91.06c0.06,3.871-0.103,7.939,0.081,11.674
		c1.646,3.519,3.177,7.132,4.968,10.499c1.504-4.265,3.117-8.41,4.579-12.701c-2.371-2.398-4.828-4.909-7.182-7.261
		C30.982,92.485,30.225,91.637,29.326,91.06 M150.674,91.06c-0.763,0.36-1.276,1.121-1.894,1.735
		c-1.933,1.929-3.935,3.817-5.759,5.761c1.479,3.312,2.977,6.597,4.574,9.785c0.962-2.825,2.061-5.515,2.996-8.361
		C150.782,97.158,150.62,94.01,150.674,91.06 M86.691,91.616c-0.612,0.105-2.132,0.865-3.161,1.341
		c-7.154,3.326-14.492,6.806-21.458,10.016c0.617,1.536,1.32,2.996,2.051,4.42c1.061,1.175,2.257,2.214,3.312,3.393
		C73.968,104.509,80.289,98.026,86.691,91.616 M88.271,92.009c0.076,0,0.092-0.14,0-0.16c-6.575,6.643-13.172,13.238-19.807,19.805
		c1.364,1.611,2.922,3.019,4.416,4.501c1.943,0.736,3.88,1.484,5.921,2.127C81.869,109.433,85.187,100.851,88.271,92.009
		 M90.712,92.402c-0.13,8.882-0.13,18.983,0,28.007c2.078-0.049,4.367,0.106,6.314-0.077c1.879-0.801,3.644-1.721,5.516-2.521
		C98.683,109.265,94.712,100.818,90.712,92.402 M47.239,92.481c0.233,2.269-0.325,4.625,0,6.313
		c0.189,0.994,0.942,1.985,1.342,2.841c0.465,0.988,0.768,1.963,1.418,2.76c0.676-2.355,1.807-4.661,2.365-6.869
		C50.703,95.854,48.901,93.893,47.239,92.481 M92.368,92.562c0.103,0.603,0.865,2.129,1.343,3.158
		c3.328,7.154,6.812,14.486,10.021,21.457c1.536-0.623,2.992-1.314,4.416-2.051c1.18-1.062,2.214-2.263,3.388-3.318
		C105.259,105.277,98.776,98.956,92.368,92.562 M132.762,92.481c-1.191,0.94-2.512,2.427-3.703,3.628
		c0.72,1.617,1.359,3.322,2.279,4.729c0.216-1.314,1.212-2.564,1.424-4.02C132.967,95.454,132.62,94.126,132.762,92.481
		 M57.495,96.423c-0.59-1.329-1.083-2.746-1.894-3.86c-0.476,1.547-1.099,2.952-1.58,4.495c0.01,0.536,1.098,1.33,1.656,1.898
		c0.682,0.676,1.245,1.347,1.818,1.808C57.624,99.498,57.624,97.69,57.495,96.423 M45.897,99.031
		c-0.92-2.024-1.786-4.107-2.841-5.998c-0.796,2.417-1.732,4.689-2.522,7.102c0.396,0.704,1.706,1.943,2.604,2.838
		c0.985,0.99,1.927,2.001,2.835,2.608C45.924,103.427,46.081,101.056,45.897,99.031 M89.289,120.409
		c0.146-7.371,0.081-16.177,0.081-23.986c0-0.898,0.103-3.866-0.157-3.152c-3.058,8.511-6.202,16.937-9.228,25.482
		c1.467,0.529,2.89,1.104,4.417,1.579C85.874,120.516,87.687,120.36,89.289,120.409 M27.99,102.896
		c-0.666-1.558-1.342-3.046-2.051-4.578c-0.687-1.482-1.358-3.009-2.213-4.335c-1.245,3.621-2.614,7.105-3.864,10.727
		c0.201,0.514,1.261,1.499,1.895,2.127c2.094,2.1,4.281,4.236,6.234,6.158C28.12,109.812,28.12,106.078,27.99,102.896
		 M128.106,97.22c-1.325,0.881-2.603,2.482-3.863,3.706c1.721,0.801,4.102,1.63,6.234,2.289c0.243-1.033-0.515-1.996-0.947-2.922
		c-0.472-1.001-0.974-2.202-1.424-2.999V97.22z M53.474,98.637c-0.06,0.017-0.097,0.064-0.087,0.158
		c-0.552,1.239-0.936,2.635-1.417,3.938c-0.471,1.288-1.304,2.566-1.099,3.951c2.344-0.867,4.405-2.014,6.625-2.999
		c0.184-0.161,0.027-0.654,0.081-0.952C56.239,101.338,54.87,99.974,53.474,98.637 M121.007,99.815c0.292,0.332,0.206-1.649,0-0.859
		c-0.092,0.249-0.211,0.465-0.238,0.778C120.871,99.747,120.883,99.838,121.007,99.815 M58.994,99.583
		c0.027-0.059-0.168-0.221-0.157-0.236c-0.287,0.54,0.005,3.642,0.633,3.387c0.298-0.064,0.498-0.227,0.785-0.313
		C59.94,101.371,59.432,100.516,58.994,99.583 M142.075,99.66c-1.012,0.691-2.003,1.77-2.999,2.76
		c-1.001,0.995-2.062,1.992-2.76,2.997c3.377,1.203,6.673,2.491,10.093,3.632C145.014,105.872,143.515,102.798,142.075,99.66
		 M132.762,104.076c-0.055-1.05,0.107-2.305-0.071-3.237C132.085,101.955,131.922,103.145,132.762,104.076 M121.094,101.239
		c-0.325-0.049-0.471-0.269-0.871-0.236c-0.223,1.069-0.921,2.076-0.953,3.073v-0.077
		C119.87,103.124,121.413,102.772,121.094,101.239 M40.058,101.636c-1.667,3.955-3.025,8.229-4.573,12.307
		c3.48-1.62,7.003-3.199,10.412-4.894c0.184-0.34,0.027-1.023,0.076-1.499C44.036,105.549,42.06,103.579,40.058,101.636
		 M48.343,107.944H48.5c0.465-0.346,0.471-1.162,0.79-1.656c-0.66-1.476-1.299-2.964-2.051-4.333v5.043
		C47.564,107.302,47.948,107.973,48.343,107.944 M122.587,108.416c1.91-0.866,3.945-1.796,5.839-2.684
		c0.585-0.271,1.446-0.478,1.575-1.262c-2.284-0.791-4.507-1.64-6.781-2.44c-0.347,0.097-0.497,0.4-0.715,0.629
		c-0.184,1.789-0.026,3.916-0.069,5.833C122.489,108.48,122.582,108.492,122.587,108.416 M163.538,103.447
		c-1.062,0.742-1.976,1.743-2.923,2.686c-2.922,2.916-5.817,5.872-8.674,8.756c0.048,4.074-0.109,8.361,0.074,12.312
		c6.24-2.815,12.355-5.749,18.547-8.601C168.278,113.487,165.87,108.513,163.538,103.447 M61.126,104.157
		c-0.086-0.229-0.098-0.536-0.4-0.546c-0.076,0-0.087,0.053-0.152,0.074c-0.103,0.31,0.482,0.617,0.709,0.866
		C61.234,104.412,61.245,104.228,61.126,104.157 M150.674,114.336v-7.815c0-0.833,0.195-1.979,0-2.596
		c-0.037-0.119-0.124-0.017-0.156,0.074c-0.688,1.97-1.386,3.93-2.133,5.834c-0.179,0.326,0.195,0.4,0.168,0.797
		c-0.25,0.07-0.562,0.081-0.562,0.395c-1.114,3.031-2.246,6.062-3.312,9.151c-0.232,0.514,1.201-0.964,1.424-1.185
		C147.66,117.433,149.407,115.624,150.674,114.336 M121.094,104.076c-1.039,0.973-2.035,1.97-3.004,2.997
		c-0.557,1.316-1.044,2.695-1.499,4.112c1.569-0.616,2.992-1.373,4.503-2.056C121.218,107.631,121.218,105.581,121.094,104.076
		 M59.232,104.396c-0.12,0.017-0.292-0.028-0.32,0.075c-0.13,2.03-0.13,4.606,0,6.63c2.084,0.653,4.2,1.693,6.235,2.132
		c0.103-0.791-0.558-1.602-0.947-2.447c-0.4-0.888-0.801-1.904-1.185-2.608C61.792,106.889,60.525,105.623,59.232,104.396
		 M57.414,105.181c-1.992,0.93-4.091,1.753-5.916,2.845c0.58,0.791,1.77,1.052,2.76,1.42c1.066,0.388,2.305,0.762,3.236,1.104
		c0.184-1.624,0.027-3.605,0.081-5.368C57.576,105.104,57.435,105.087,57.414,105.181 M132.762,106.998
		c-0.033-0.51,0.097-1.197-0.071-1.581c-0.769-0.172-1.288,0.423-1.894,0.635c-0.52,1.488-1.099,2.906-1.58,4.414
		C130.196,109.736,131.651,108.124,132.762,106.998 M29.489,105.969c-0.157-0.21-0.114-0.184-0.163,0c-0.265,1.127,0,2.74,0,4.184
		v4.184c2.381,2.393,5.179,5.343,7.414,7.339c-0.784-1.996-1.786-3.777-2.597-5.759c-0.119-0.221-0.498-0.188-0.633-0.395
		c0.092-0.178,0.2-0.33,0.157-0.633C32.222,111.967,30.875,108.958,29.489,105.969 M19.385,106.214
		c-2.495,6.314-4.746,12.862-7.095,19.331c5.282,1.785,10.342,3.798,15.618,5.595c-0.01,0.022,0.011,0.059,0,0.081
		c0.471-0.762,0.157-2.624,0.157-3.945v-4.103v-8.284C25.203,111.967,22.313,109.071,19.385,106.214 M135.289,106.446
		c-0.45,0.026-0.883,0.752-1.256,1.104v8.366c0.054-0.021,0.151-0.005,0.151-0.075c3.939-1.83,7.917-3.609,11.755-5.53
		C142.411,109,138.876,107.696,135.289,106.446 M127.002,112.757c0.667-2.014,1.424-3.947,2.134-5.921
		c-2.257,0.985-4.443,2.028-6.631,3.084c-0.184,2.263-0.026,4.865-0.069,7.258c0.596-0.298,1.624-1.396,2.365-2.132
		C125.591,114.249,126.321,113.471,127.002,112.757 M132.762,108.893c-1.532,1.282-3.199,3.112-4.73,4.653
		c-0.693,2.089-1.478,4.097-2.208,6.153c2.397-0.969,4.573-2.153,6.938-3.154V108.893z M49.447,109.049
		c-0.021-0.059-0.065-0.091-0.157-0.081c0.217,0.357,2.181,2.479,2.365,2.295c0.021-0.022-0.027-0.119-0.076-0.077
		c-0.2-0.594-0.53-1.06-0.709-1.66C50.362,109.391,49.967,109.162,49.447,109.049 M115.719,109.606
		c0.071-0.022,0.099-0.07,0.077-0.161c-0.894,0.648-1.586,1.504-2.359,2.282C114.615,113.416,115.46,110.775,115.719,109.606
		 M48.024,109.606c-0.368-0.032-0.417,0.259-0.785,0.227v9.395c2.95,1.02,5.807,2.134,8.756,3.157
		c0.151-0.217,0.335-0.4,0.552-0.549c-1.017-2.325-2.143-4.533-3.161-6.873C51.639,113.146,49.848,111.359,48.024,109.606
		 M57.495,111.967c-1.613-0.597-3.171-1.246-4.893-1.733c0.574,1.353,1.212,2.631,1.813,3.945c1.018,0.98,2.078,2.344,3.161,2.999
		C57.521,115.467,57.679,113.546,57.495,111.967 M45.897,110.549c-3.274,1.541-6.678,2.954-9.779,4.653
		c3.291,1.104,6.429,2.359,9.703,3.474c-0.011,0.022,0.011,0.061,0,0.077c0.471-0.759-0.021-2.837,0.151-4.026
		C45.924,113.361,46.081,111.786,45.897,110.549 M121.007,110.63c-1.753,0.74-3.415,1.575-5.13,2.364
		c-0.017,0.325-0.239,0.444-0.239,0.79c0.358,0.746,1.608,1.76,2.452,2.603c0.915,0.916,1.742,1.862,2.604,2.604
		c0.168-0.099,0.297-0.229,0.4-0.391c0.178-2.501,0.017-5.346,0.069-7.971C121.163,110.549,121.023,110.526,121.007,110.63
		 M66.57,111.728c-0.151-0.216-0.698-0.794-0.714-0.627c0.076,0.4,0.228,0.721,0.477,0.946
		C66.359,111.89,66.548,111.89,66.57,111.728 M142.395,122.621c1.305-3.668,2.689-7.245,3.934-10.968
		c-4.102,1.806-8.062,3.765-12.144,5.605c-0.368,4.271-0.055,9.151-0.151,13.567c0.584-0.195,1.478-1.32,2.121-1.969
		C138.271,126.733,140.49,124.635,142.395,122.621 M58.994,112.522c0.011-0.021-0.011-0.059,0-0.081
		c-0.325,0.52-0.086,2.085-0.157,2.999c0.049,1.027-0.103,2.263,0.076,3.16c0.103,0.162,0.228,0.292,0.396,0.391
		c1.022-0.991,2.44-2.355,3.555-3.47c0.303-0.308,1.288-1.207,0.947-1.26C62.203,113.675,60.644,113.059,58.994,112.522
		 M67.517,112.681h-0.081c-1.521,1.277,1.05,1.991,2.208,2.282c0.021,0.067,0.064,0.094,0.162,0.083
		C69.152,114.146,68.296,113.448,67.517,112.681 M112.494,112.681c-0.217,0.151-0.801,0.697-0.633,0.709
		c0.395-0.07,0.713-0.229,0.941-0.471C112.646,112.896,112.646,112.702,112.494,112.681 M111.861,120.332
		c0.648-2.083,1.688-4.188,2.127-6.234c-0.801-0.097-1.602,0.564-2.452,0.948c-0.876,0.404-1.904,0.805-2.597,1.186
		c-1.295,1.233-2.561,2.489-3.789,3.787c0.012,0.119-0.027,0.293,0.076,0.313C107.261,120.463,109.827,120.463,111.861,120.332
		 M65.466,114.889c-0.963,0.562-1.743,1.579-2.603,2.446c-0.876,0.876-1.823,1.709-2.608,2.603c0.103,0.168,0.233,0.297,0.396,0.395
		c1.136,0.142,2.527,0.077,3.945,0.077c1.375,0,2.993,0.28,4.021,0c0.081-0.017,0.108-0.12,0-0.152
		c-0.742-1.759-1.57-3.432-2.365-5.13C65.932,115.104,65.807,114.889,65.466,114.889 M119.746,119.938
		c-0.99-1.023-2.312-2.392-3.394-3.474c-0.379-0.374-1.212-1.316-1.341-1.023c-0.574,1.602-1.191,3.171-1.738,4.816
		c-0.017-0.01-0.054,0.011-0.07,0c0.514,0.319,2.078,0.081,2.993,0.152c1.022-0.049,2.262,0.106,3.16-0.077
		C119.524,120.234,119.648,120.105,119.746,119.938 M72.171,117.335c-1.314-0.552-2.695-1.039-4.102-1.494
		c0.611,1.563,1.369,2.986,2.051,4.491c1.494,0.131,3.545,0.131,5.049,0C74.206,119.305,73.199,118.298,72.171,117.335
		 M125.823,115.841c-0.926,0.671-2.337,2.234-3.388,3.312c0.043,0.525-0.114,1.256,0.069,1.656c0.028,0.161,0.218,0.151,0.245,0.312
		c0.552-0.103,0.892-0.422,1.417-0.552C124.665,118.942,125.326,117.475,125.823,115.841 M29.326,116.306
		c0.06,5.11-0.103,10.418,0.081,15.387c4.79,1.73,9.752,3.712,14.52,5.207c-1.862-3.822-3.62-7.741-5.444-11.593
		c-2.213-2.328-4.632-4.639-6.868-6.867C30.869,117.691,30.225,116.804,29.326,116.306 M150.674,116.306
		c-0.683,0.368-1.239,1.007-1.812,1.581c-1.812,1.809-3.621,3.664-5.369,5.444c-1.108,3.154-2.3,6.224-3.393,9.389
		c3.609-1.505,6.977-3.235,10.492-4.817C150.782,124.202,150.62,120.147,150.674,116.306 M45.897,120.096
		c-3.355-1.137-6.781-2.631-10.104-3.551c1.267,2.635,2.505,5.281,3.712,7.971c0.99,1.104,2.154,2.153,3.23,3.231
		c1.083,1.075,2.068,2.312,3.236,3.079C45.924,127.275,46.081,123.509,45.897,120.096 M56.158,117.811
		c0.352,1.007,0.872,1.856,1.256,2.837c0.313,0.336,0.092-1.084,0.162-1.494C57.181,118.725,56.417,117.843,56.158,117.811
		 M104.441,118.676c0.206,0.184,0.995-0.817,0.709-0.633C104.799,118.113,104.193,118.259,104.441,118.676 M132.762,130.982v-13.021
		c-2.565,1.114-4.995,2.37-7.577,3.474c-0.136,0.487-0.378,0.878-0.472,1.424c0.195,0.493,1.251,1.479,1.901,2.127
		C128.675,127.043,130.894,129.29,132.762,130.982 M75.408,118.521c-0.017-0.065-0.065-0.094-0.163-0.081
		c0.649,0.535,1.255,2.218,2.765,1.893c0.043-0.323,0.271-0.465,0.233-0.865C77.236,119.212,76.436,118.753,75.408,118.521
		 M103.5,119.78c-0.075-0.304-0.238-0.498-0.325-0.789c-1.044,0.313-1.894,0.833-2.836,1.266c-0.026-0.022-0.162,0.087-0.162,0.075
		C100.274,120.561,103.635,120.615,103.5,119.78 M80.294,120.257c-0.249-0.093-0.466-0.216-0.785-0.238
		c-0.005,0.097-0.103,0.109-0.081,0.238C79.104,120.538,81.079,120.451,80.294,120.257 M54.815,123.331
		c-2.549-0.898-5.065-1.83-7.576-2.761v10.412c1.9-1.64,3.907-3.826,5.758-5.676C53.652,124.646,54.431,124.115,54.815,123.331
		 M58.441,121.751c-0.157,0.021-0.151,0.217-0.314,0.237c0.098,0.563,0.417,0.899,0.547,1.423c1.629,0.498,3.101,1.159,4.741,1.656
		c-0.682-0.93-2.246-2.337-3.312-3.393C59.567,121.723,58.836,121.567,58.441,121.751 M62.073,121.675
		c0.292,0.606,1.396,1.634,2.127,2.365c0.801,0.801,1.575,1.525,2.29,2.209c2.013,0.669,3.945,1.417,5.92,2.131
		c-0.979-2.257-2.029-4.438-3.079-6.629C67.068,121.567,64.459,121.723,62.073,121.675 M76.587,121.751
		c-1.586,0.166-4.216-0.482-5.758-0.076c-0.076,0.022-0.103,0.119,0,0.161c0.872,1.901,1.808,3.945,2.684,5.83
		c0.276,0.595,0.482,1.45,1.261,1.579c0.796-2.283,1.64-4.507,2.446-6.78C77.118,122.119,76.82,121.968,76.587,121.751
		 M78.876,121.751c0,0.049-0.011,0.098-0.076,0.085c0.032,0.132-0.12,0.196,0,0.229c1.488,1.563,3.014,3.09,4.573,4.578
		c1.288-0.448,3.199-1.407,4.573-2.05c0.514-0.239,1.158-0.368,1.423-0.868c-0.633-0.588-1.591-0.714-2.446-1.027
		c-0.839-0.309-1.807-0.758-2.603-0.946C82.686,121.62,80.511,121.62,78.876,121.751 M89.289,122.151
		c0.72-0.735-1.634-0.509-0.866-0.315C88.715,121.939,88.991,122.053,89.289,122.151 M93.866,121.836
		c0.065,0.033,0.151-0.161,0.163-0.161c-0.709-0.291-2.489,0.216-3.394,0c0.049,0.293-0.108,0.784,0.076,0.946
		C91.777,123.363,92.833,122.098,93.866,121.836 M97.185,121.751c-1.332,0.595-2.754,1.093-3.87,1.894
		c1.549,0.48,2.944,1.104,4.497,1.581c0.536-0.013,1.332-1.088,1.895-1.656c0.688-0.682,1.353-1.233,1.812-1.818
		C100.264,121.62,98.445,121.62,97.185,121.751 M104.441,121.751c-0.157-0.174-0.654-0.028-0.941-0.076
		c-1.412,1.336-2.771,2.701-4.107,4.106c0.021,0.061,0.064,0.087,0.157,0.077c1.238,0.552,2.636,0.937,3.95,1.417
		c1.282,0.472,2.56,1.299,3.935,1.104C106.676,126.249,105.41,123.941,104.441,121.751 M105.936,121.836
		c0.925,1.988,1.748,4.087,2.846,5.911c0.791-0.568,1.056-1.76,1.419-2.761c0.395-1.065,0.763-2.299,1.104-3.235
		c-1.651-0.184-3.659-0.028-5.438-0.076C105.882,121.735,105.865,121.826,105.936,121.836 M112.732,121.751
		c-0.606,1.618-1.25,3.177-1.743,4.892c1.353-0.562,2.625-1.207,3.945-1.813c0.979-1.018,2.338-2.066,2.999-3.154
		C116.223,121.723,114.297,121.567,112.732,121.751 M119.902,121.675c-0.427,0.4-1.304,1.152-1.342,1.417
		c1.018-0.352,1.867-0.871,2.847-1.256C121.743,121.517,120.325,121.739,119.902,121.675 M110.351,131.221
		c-0.017,1.033,1.05,0.785,2.052,0.785h7.581c1.014-2.944,2.144-5.792,3.155-8.756c-0.216-0.146-0.399-0.336-0.552-0.553
		c-2.316,1.018-4.534,2.154-6.868,3.161C113.907,127.611,112.109,129.396,110.351,131.221 M78.324,123.488
		c-0.806,1.721-1.634,4.101-2.284,6.234c1.018,0.236,1.992-0.51,2.912-0.942c0.985-0.465,2.208-0.984,2.998-1.428h0.087
		C81.144,126.03,79.542,124.744,78.324,123.488 M56.385,123.964c-1.434,1.033-2.722,2.569-4.097,3.938
		c-1.391,1.397-2.906,2.729-4.027,4.104h13.021c-1.109-2.564-2.371-4.989-3.469-7.577C57.327,124.289,56.932,124.057,56.385,123.964
		 M96.784,126.249c-1.765-0.623-3.48-1.301-5.282-1.896c-0.222,0.172-0.595,0.2-0.79,0.395c-0.13,2.236-0.13,5.027,0,7.258h0.552
		c1.666-1.543,3.474-3.464,5.049-5.044C96.48,126.788,97.017,126.578,96.784,126.249 M131.738,132.006
		c-1.498-1.754-3.782-3.853-5.683-5.757c-0.455-0.455-1.699-1.982-1.969-1.733c-0.942,2.469-1.814,5.027-2.761,7.49H131.738z
		 M65.704,127.275c-2.095-0.693-4.102-1.481-6.158-2.208c0.968,2.398,2.154,4.574,3.155,6.938h7.658
		C69.07,130.479,67.241,128.803,65.704,127.275 M89.213,125.462c-1.613,0.693-3.215,1.413-4.735,2.204
		c1.153,1.407,2.852,2.944,4.265,4.34h0.546c0.189-2.024,0.027-4.385,0.081-6.544C89.37,125.381,89.235,125.361,89.213,125.462
		 M141.21,125.781c0.054-0.02,0.091-0.068,0.074-0.161c-2.376,2.121-4.886,4.794-7.251,7.182v0.47h-0.481
		c-0.666,0.639-1.494,1.407-2.44,2.365c-0.574,0.568-2.24,1.996-2.134,2.364c0-0.021,0.007-0.053,0-0.075
		c3.231-1.368,6.284-2.922,9.472-4.339C139.293,130.901,140.343,128.435,141.21,125.781 M98.282,126.886
		c-1.666,1.656-3.631,3.464-5.043,5.12c2.267-0.227,4.622,0.329,6.311,0c0.989-0.185,1.986-0.942,2.841-1.343
		c0.996-0.466,1.954-0.769,2.76-1.418C102.807,128.563,100.48,127.438,98.282,126.886 M111.932,127.666
		c-0.579,0.204-1.039,0.53-1.651,0.714c-0.13,0.504-0.362,0.897-0.47,1.424c-0.065,0.016-0.098,0.064-0.087,0.155
		c0.362-0.216,2.479-2.18,2.289-2.37C111.985,127.569,111.899,127.621,111.932,127.666 M45.973,132.802
		c-0.741-0.867-1.623-1.587-2.365-2.452c-0.428-0.356-0.817-0.752-1.185-1.179c-0.254-0.142-0.374-0.413-0.627-0.553
		c-0.076-0.163-0.661-0.726-0.477-0.396c1.369,3.231,2.928,6.285,4.34,9.466c2.69,0.846,5.152,1.895,7.815,2.767
		c0.141,0.161,0.287,0.081,0.157-0.081c-1.932-2.273-5.152-4.839-7.181-7.102C46.043,133.358,45.886,133.207,45.973,132.802
		 M83.135,128.305c-1.618,0.725-3.317,1.363-4.73,2.283c1.326,0.206,2.571,1.211,4.021,1.418c1.37,0.206,2.701-0.14,4.34,0
		C85.825,130.814,84.342,129.494,83.135,128.305 M68.778,128.461c0.731,0.98,2.343,2.44,3.469,3.545
		c0.508-0.043,1.196,0.097,1.58-0.075c0.119-1.847-1.25-2.127-2.76-2.686C70.196,128.926,69.309,128.597,68.778,128.461
		 M150.518,129.403c-3.777,1.64-7.387,3.451-11.127,5.136c-1.797,5.141-3.707,10.173-5.521,15.304
		c3.182,0.184,6.7,0.028,10.018,0.076c2.24-0.048,4.682,0.107,6.786-0.076v-10.337v-5.205v-2.608v-1.267
		C150.62,130.144,150.81,129.19,150.518,129.403 M108.7,130.901v-0.151c-0.352-0.465-1.158-0.472-1.656-0.791
		c-1.466,0.661-2.965,1.294-4.339,2.047h5.054C108.051,131.682,108.728,131.302,108.7,130.901 M75.169,132.006
		c1.05-0.049,2.316,0.108,3.236-0.075C77.296,131.334,76.105,131.166,75.169,132.006 M29.407,133.12
		c-0.184,5.439-0.021,11.225-0.081,16.799c6.84-0.055,13.887,0.107,20.597-0.076c-1.726-3.756-3.496-7.445-5.206-11.207
		C39.56,136.845,34.543,134.924,29.407,133.12 M48.419,133.271c0.206,0.51,1.267,1.504,1.895,2.127
		c2.132,2.138,4.345,4.297,6.315,6.234c3.664,1.311,7.246,2.695,10.964,3.945c-1.808-4.113-3.767-8.062-5.602-12.155
		C57.716,133.061,52.835,133.381,48.419,133.271 M63.415,133.423c1.824,3.941,3.604,7.923,5.52,11.767
		c1.315-3.528,2.614-7.069,3.87-10.65c-0.033-0.455-0.758-0.888-1.104-1.268h-8.286C63.333,133.271,63.312,133.413,63.415,133.423
		 M74.612,133.348c-0.011,0.26-0.173,0.353-0.152,0.634c-0.064,0.016-0.097,0.07-0.081,0.157c2.153,2.219,4.335,4.404,6.548,6.548
		c2.766-1.288,5.531-2.57,8.286-3.864c0.254-0.043,0.206-0.795,0.076-0.946c-2.36-0.817-4.654-1.705-7.019-2.528
		C79.899,133.219,76.988,133.219,74.612,133.348 M88.185,133.348c-0.292-0.129-2.527-0.151-1.889,0.075
		c0.979,0.342,1.889,0.742,2.917,1.033C89.272,134.301,88.515,133.64,88.185,133.348 M91.815,133.348
		c-0.4,0.34-0.768,0.704-1.104,1.108c-0.179,0.006-0.033,0.332-0.076,0.472c1.293,1.017,2.376,0.147,3.708-0.472
		c0.849-0.395,1.623-0.752,2.202-1.108C95.469,133.219,93.158,133.219,91.815,133.348 M99.782,133.348
		c-2.024,0.931-4.103,1.792-5.991,2.848c2.425,0.784,4.682,1.73,7.1,2.521c0.699-0.396,1.943-1.705,2.842-2.604
		c0.984-0.988,2.003-1.931,2.604-2.841C104.182,133.326,101.806,133.164,99.782,133.348 M108.3,133.271
		c-2.002,1.939-3.973,3.912-5.909,5.921c3.95,1.672,8.23,3.021,12.307,4.578c-1.619-3.484-3.188-7.02-4.887-10.423
		C109.464,133.164,108.781,133.32,108.3,133.271 M111.304,133.348c1.537,3.28,2.949,6.678,4.664,9.785
		c1.083-3.292,2.344-6.43,3.464-9.71c0.044,0.055,0.119-0.136,0.081-0.151c-0.995-0.336-2.727,0-4.107,0
		C113.879,133.271,112.456,133.207,111.304,133.348 M120.855,133.348c-1.137,3.361-2.642,6.787-3.555,10.104
		c2.641-1.262,5.281-2.511,7.971-3.708c1.109-0.995,2.148-2.153,3.235-3.235c1.066-1.072,2.307-2.062,3.074-3.237
		C128.031,133.326,124.271,133.164,120.855,133.348 M132.453,149.843c1.731-4.784,3.701-9.763,5.194-14.519
		c-3.82,1.855-7.728,3.619-11.592,5.449c-1.559,1.488-3.079,3.009-4.578,4.567c-1.467,1.509-3.296,3.029-4.416,4.578
		C122.159,149.871,127.474,150.026,132.453,149.843 M73.827,135.561c-1.196,3.373-2.484,6.673-3.631,10.094
		c3.176-1.396,6.25-2.896,9.389-4.335c-0.692-1.011-1.764-2.002-2.759-2.999C75.835,137.332,74.839,136.254,73.827,135.561
		 M99.868,139.744c-2.57-0.957-5.205-1.856-7.739-2.845c-0.503,0.204-1.006,0.41-1.417,0.713c-0.184,3.626-0.027,7.598-0.076,11.358
		c0.59-0.287,1.7-1.466,2.44-2.202c1.636-1.646,3.14-3.138,4.654-4.658C98.515,141.329,99.333,140.6,99.868,139.744 M89.289,138.239
		c-2.473,1.137-4.995,2.215-7.338,3.475c1.153,1.268,2.468,2.463,3.712,3.712c1.234,1.229,2.376,2.621,3.707,3.545
		C89.315,145.426,89.478,141.661,89.289,138.239 M55.915,142.743c-3.139-1.12-6.219-2.302-9.384-3.399
		c1.499,3.605,3.231,6.982,4.811,10.499c3.707,0.184,7.755,0.028,11.598,0.076c-0.363-0.684-1.001-1.245-1.581-1.813
		C59.551,146.294,57.695,144.486,55.915,142.743 M101.286,140.296c-1.64,1.569-3.241,3.173-4.815,4.811
		c-0.861,0.742-1.586,1.624-2.441,2.366c-0.645,0.861-1.835,1.591-2.214,2.446c3.87-0.048,7.945,0.107,11.685-0.076
		c3.512-1.645,7.121-3.181,10.488-4.973C109.739,143.359,105.578,141.769,101.286,140.296 M80.695,142.266
		c-3.323,1.472-6.597,2.982-9.79,4.58c2.819,0.969,5.531,2.044,8.367,2.997c2.814,0.184,5.969,0.028,8.913,0.076
		c-0.357-0.769-1.12-1.277-1.732-1.895C84.521,146.098,82.632,144.09,80.695,142.266 M122.436,142.504
		c-1.997,0.791-3.794,1.786-5.77,2.603c-0.221,0.126-0.184,0.493-0.389,0.635c-0.174-0.099-0.319-0.206-0.64-0.163
		c-2.905,1.451-5.931,2.792-8.901,4.189c-0.222,0.151-0.195,0.107,0,0.151c1.12,0.266,2.728,0,4.172,0h4.189
		C117.489,147.543,120.438,144.745,122.436,142.504 M59.069,143.922c-0.016-0.059-0.06-0.085-0.157-0.075
		c1.732,1.979,4.01,4.091,5.997,6.072h7.814c0.833,0,1.98,0.194,2.608,0c0.114-0.032,0.011-0.119-0.086-0.151
		c-1.992-0.693-3.929-1.439-5.915-2.138c-0.222-0.18-0.362,0.221-0.714,0.162c-0.065-0.249-0.076-0.558-0.39-0.558
		C65.19,146.12,62.165,144.983,59.069,143.922 M52.05,151.26c2.809,6.24,5.747,12.352,8.6,18.541
		c5.108-2.273,10.087-4.691,15.152-7.019c-0.741-1.06-1.737-1.976-2.684-2.922c-2.917-2.916-5.877-5.824-8.762-8.675
		C60.282,151.228,55.996,151.076,52.05,151.26 M66.251,151.26c3.599,3.66,7.225,7.296,10.889,10.889
		c3.474-1.601,7.062-3.289,10.499-4.891c1.158-0.542,2.381-0.975,3.393-1.733c-3.961-1.411-7.831-2.912-11.841-4.265
		C75.061,151.131,70.38,151.131,66.251,151.26 M89.608,151.186c-1.705,0.361-4.849-0.488-6.392,0
		c-0.119,0.032-0.016,0.112,0.082,0.151c3.214,1.152,6.375,2.359,9.622,3.474c2.451-1.175,4.946-2.315,7.419-3.474
		c0.211-0.151,0.185-0.109,0-0.151c-1.369-0.33-3.273,0-4.973,0h-4.968c-0.216,0.042-0.2,0.329-0.476,0.312
		C89.846,151.359,89.743,151.256,89.608,151.186 M103.651,151.26c-1.563,0.672-3.048,1.343-4.584,2.047
		c-1.478,0.693-3.015,1.362-4.33,2.218c3.622,1.246,7.101,2.621,10.728,3.864c0.508-0.204,1.498-1.256,2.132-1.893
		c2.089-2.095,4.226-4.276,6.147-6.236C110.567,151.131,106.834,151.131,103.651,151.26 M115.638,151.186
		c-2.922,2.856-5.811,5.746-8.675,8.675c6.321,2.495,12.869,4.758,19.332,7.099c1.79-5.275,3.798-10.351,5.606-15.622
		c0.016,0.01,0.06-0.011,0.075,0c-0.763-0.472-2.619-0.151-3.945-0.151h-4.103H115.638z M104.522,160.493
		c-0.016-0.065-0.07-0.098-0.168-0.075c-2.765-1.05-5.633-2.111-8.522-3.16c-0.731-0.271-2.203-1.056-2.912-1.029
		c-0.313,0.012-1.169,0.497-1.812,0.797c-4.173,1.921-9.282,4.355-12.94,6.152c3.875,3.982,7.885,7.836,11.754,11.83
		C94.9,170.284,99.674,165.354,104.522,160.493"/>
	<path fill-rule="evenodd" clip-rule="evenodd" fill="#998B7D" d="M52.998,65.733c1.461-1.423,2.987-3.258,4.578-4.416h-0.081
		C55.953,62.744,54.545,64.31,52.998,65.733"/>
	<path fill-rule="evenodd" clip-rule="evenodd" fill="#998B7D" d="M122.431,61.317c1.082,0.652,2.137,2.016,3.154,2.999
		c-1.077-0.953-2.008-2.046-3.08-2.999H122.431z"/>
	<path fill-rule="evenodd" clip-rule="evenodd" fill="#998B7D" d="M44.717,72.046c0.503-0.254,0.807-0.714,1.18-1.101h0.082
		C45.589,71.299,45.161,72.02,44.717,72.046"/>
	<path fill-rule="evenodd" clip-rule="evenodd" fill="#998B7D" d="M45.821,62.657c0.016-0.098,0.151-0.076,0.151,0v8.285h-0.076
		C45.849,68.204,46,65.263,45.821,62.657"/>
	<path fill-rule="evenodd" clip-rule="evenodd" fill="#998B7D" d="M110.351,63.525c0.434,0.73,1.511,1.491,2.138,2.289
		c-0.395-0.738-2.229-1.575-2.288-2.368C110.2,63.442,110.411,63.458,110.351,63.525"/>
	<path fill-rule="evenodd" clip-rule="evenodd" fill="#998B7D" d="M67.517,65.814c0.157-0.284,0.471-0.428,0.627-0.708
		C68.312,65.117,67.734,65.663,67.517,65.814"/>
	<path fill-rule="evenodd" clip-rule="evenodd" fill="#998B7D" d="M116.991,70.312c1.288,1.229,2.55,2.493,3.777,3.783
		C119.476,72.872,118.221,71.608,116.991,70.312"/>
	<path fill-rule="evenodd" clip-rule="evenodd" fill="#998B7D" d="M64.281,68.891c0.73-0.428,1.488-1.507,2.289-2.13
		c-0.736,0.396-1.575,2.23-2.365,2.29C64.2,69.051,64.216,68.834,64.281,68.891"/>
	<path fill-rule="evenodd" clip-rule="evenodd" fill="#998B7D" d="M113.43,66.761c0.287,0.16,0.428,0.471,0.71,0.631
		C114.134,67.557,113.588,66.975,113.43,66.761"/>
	<path fill-rule="evenodd" clip-rule="evenodd" fill="#998B7D" d="M58.918,74.333c1.044-0.925,1.948-1.989,2.998-2.919
		c-0.969,1.037-1.97,2.035-2.998,2.998V74.333z"/>
	<path fill-rule="evenodd" clip-rule="evenodd" fill="#998B7D" d="M47.239,71.494c1.109-1.126,2.57-2.738,3.55-3.469
		C49.561,69.132,48.468,70.379,47.239,71.494"/>
	<path fill-rule="evenodd" clip-rule="evenodd" fill="#998B7D" d="M37.931,78.833c2.013-1.824,3.94-3.742,5.758-5.758
		c-0.655,0.958-1.7,1.935-2.76,2.999C40.003,76.993,38.672,78.394,37.931,78.833"/>
	<path fill-rule="evenodd" clip-rule="evenodd" fill="#998B7D" d="M29.407,87.432c2.571-2.449,5.006-5.043,7.577-7.498
		c-1.715,1.829-3.767,3.769-5.683,5.679c-0.627,0.628-1.417,1.659-1.969,1.818H29.407z"/>
	<path fill-rule="evenodd" clip-rule="evenodd" fill="#998B7D" d="M122.505,74.809c0.055,0.26-0.069,0.546,0,0.863
		c0.168,0.682,1.468,1.634,1.982,2.135c0.762,0.763,1.493,1.385,2.05,2.048c-0.843-0.72-2.066-2.06-3.078-3.074
		C122.939,76.27,122.1,75.873,122.505,74.809"/>
	<path fill-rule="evenodd" clip-rule="evenodd" fill="#998B7D" d="M38.559,80.172c2.149-2.216,4.335-4.399,6.548-6.548
		C42.958,75.84,40.777,78.023,38.559,80.172"/>
	<path fill-rule="evenodd" clip-rule="evenodd" fill="#998B7D" d="M42.423,88.458c0.189,0.148,0.639,0.048,0.953,0.079
		C43.218,88.658,42.466,88.712,42.423,88.458"/>
	<path fill-rule="evenodd" clip-rule="evenodd" fill="#998B7D" d="M51.894,81.276c1.413-1.106,2.521-2.53,3.869-3.707
		C54.502,78.79,53.214,80.391,51.894,81.276"/>
	<path fill-rule="evenodd" clip-rule="evenodd" fill="#998B7D" d="M47.239,86.011c1.282-1.164,2.424-2.465,3.707-3.628
		C49.761,83.584,48.43,85.069,47.239,86.011"/>
	<path fill-rule="evenodd" clip-rule="evenodd" fill="#998B7D" d="M30.273,88.617c0.839-1.269,2.386-2.506,3.55-3.708
		c1.207-1.269,2.44-2.505,3.712-3.709c-2.371,2.489-4.887,4.843-7.263,7.338V88.617z"/>
	<path fill-rule="evenodd" clip-rule="evenodd" fill="#998B7D" d="M44.793,88.458c0.417-0.295,0.688-0.731,1.104-1.026
		C45.61,87.759,44.95,88.516,44.793,88.458"/>
	<path fill-rule="evenodd" clip-rule="evenodd" fill="#998B7D" d="M45.821,85.538c0.228-0.63,0.2,1.602,0.076,1.894
		C45.849,86.828,46,86.014,45.821,85.538"/>
	<path fill-rule="evenodd" clip-rule="evenodd" fill="#998B7D" d="M122.587,85.381c0.157,0.433-0.47,2.628-0.082,3.077
		c0.207,0.239,0.564-0.011,0.872,0.075c-0.162,0.184-0.659,0.037-0.941,0.085c0.211-0.909-0.303-2.688,0-3.391
		C122.425,85.227,122.631,85.313,122.587,85.381"/>
	<path fill-rule="evenodd" clip-rule="evenodd" fill="#998B7D" d="M57.414,87.667c0.194-0.769,0.411,1.585-0.314,0.871h0.395
		C57.44,88.273,57.597,87.802,57.414,87.667"/>
	<path fill-rule="evenodd" clip-rule="evenodd" fill="#998B7D" d="M30.273,89.956c3.058,3.071,6.045,6.214,9.232,9.158
		c-0.855-0.548-1.585-1.355-2.371-2.14c-1.515-1.521-3.014-3.011-4.648-4.65c-0.747-0.744-1.921-1.851-2.213-2.443V89.956z"/>
	<path fill-rule="evenodd" clip-rule="evenodd" fill="#998B7D" d="M44.793,89.956c0.401,0.333,0.769,0.704,1.104,1.104
		C45.497,90.729,45.128,90.356,44.793,89.956"/>
	<path fill-rule="evenodd" clip-rule="evenodd" fill="#998B7D" d="M56.629,89.956c0.157-0.18,0.654-0.026,0.947-0.075
		c-0.222,0.9,0.292,2.687,0,3.389c0-0.005-0.2-0.094-0.162-0.158c0.189-0.867,0.026-2.072,0.086-3.077
		C57.359,89.857,56.894,90.008,56.629,89.956"/>
	<path fill-rule="evenodd" clip-rule="evenodd" fill="#998B7D" d="M122.587,90.825c-0.188,0.688-0.248-0.805-0.082-0.948
		C122.56,90.17,122.408,90.664,122.587,90.825"/>
	<path fill-rule="evenodd" clip-rule="evenodd" fill="#998B7D" d="M29.326,91.06c0.898,0.577,1.656,1.426,2.446,2.211
		c2.349,2.352,4.811,4.862,7.182,7.261c-3.231-3.111-6.316-6.361-9.547-9.472H29.326z"/>
	<path fill-rule="evenodd" clip-rule="evenodd" fill="#998B7D" d="M47.239,92.481c1.662,1.411,3.463,3.373,5.125,5.045
		C50.61,95.893,48.993,94.115,47.239,92.481"/>
	<path fill-rule="evenodd" clip-rule="evenodd" fill="#998B7D" d="M40.534,100.135c1.678,1.922,3.556,3.648,5.363,5.446h0.076
		c-0.909-0.601-1.845-1.614-2.835-2.608C42.239,102.072,40.924,100.835,40.534,100.135"/>
	<path fill-rule="evenodd" clip-rule="evenodd" fill="#998B7D" d="M124.243,100.926c1.261-1.224,2.543-2.825,3.863-3.713
		C126.695,98.323,125.591,99.747,124.243,100.926"/>
	<path fill-rule="evenodd" clip-rule="evenodd" fill="#998B7D" d="M53.474,98.631c1.401,1.343,2.766,2.707,4.097,4.103
		c-0.049,0.298,0.108,0.791-0.076,0.952c0.141-1.488-1.169-2.11-1.976-2.915C54.681,99.919,53.971,99.162,53.474,98.631"/>
	<path fill-rule="evenodd" clip-rule="evenodd" fill="#998B7D" d="M40.058,101.636c2.008,1.943,3.983,3.913,5.921,5.914h-0.082
		C43.998,105.536,41.963,103.653,40.058,101.636"/>
	<path fill-rule="evenodd" clip-rule="evenodd" fill="#998B7D" d="M47.239,106.998c0.428,0.259,0.612,0.759,1.104,0.952
		C47.948,107.973,47.569,107.302,47.239,106.998"/>
	<path fill-rule="evenodd" clip-rule="evenodd" fill="#998B7D" d="M118.09,107.079c0.969-1.033,1.965-2.034,3.004-2.999v0.077
		C120.038,105.083,119.128,106.153,118.09,107.079"/>
	<path fill-rule="evenodd" clip-rule="evenodd" fill="#998B7D" d="M59.232,104.396c1.298,1.228,2.554,2.493,3.783,3.781
		C61.727,106.956,60.46,105.688,59.232,104.396"/>
	<path fill-rule="evenodd" clip-rule="evenodd" fill="#998B7D" d="M29.326,114.336h0.081c2.414,2.479,4.86,4.924,7.333,7.339
		C34.505,119.683,31.708,116.729,29.326,114.336"/>
	<path fill-rule="evenodd" clip-rule="evenodd" fill="#998B7D" d="M122.505,117.178c1.549-1.434,2.961-2.993,4.504-4.421
		c-0.682,0.714-1.418,1.492-2.208,2.293c-0.741,0.732-1.77,1.83-2.365,2.128H122.505z"/>
	<path fill-rule="evenodd" clip-rule="evenodd" fill="#998B7D" d="M51.58,111.182c0.043-0.038,0.097,0.053,0.076,0.075
		c-0.189,0.19-2.148-1.927-2.365-2.289c0.092-0.01,0.136,0.022,0.157,0.087C49.875,109.672,50.952,110.753,51.58,111.182"/>
	<path fill-rule="evenodd" clip-rule="evenodd" fill="#998B7D" d="M113.43,111.734c0.774-0.785,1.468-1.641,2.366-2.289
		c0.017,0.097-0.011,0.139-0.07,0.161C114.994,110.029,114.226,111.105,113.43,111.734"/>
	<path fill-rule="evenodd" clip-rule="evenodd" fill="#998B7D" d="M48.029,109.606c1.818,1.753,3.604,3.539,5.363,5.356
		C51.568,113.21,49.783,111.425,48.029,109.606"/>
	<path fill-rule="evenodd" clip-rule="evenodd" fill="#998B7D" d="M54.415,114.179c1.077,0.952,2.008,2.04,3.08,2.999h0.076
		C56.488,116.522,55.438,115.159,54.415,114.179"/>
	<path fill-rule="evenodd" clip-rule="evenodd" fill="#998B7D" d="M65.861,111.101c0.01-0.163,0.557,0.417,0.708,0.634
		C66.283,111.57,66.142,111.269,65.861,111.101"/>
	<path fill-rule="evenodd" clip-rule="evenodd" fill="#998B7D" d="M67.517,112.681c0.779,0.768,1.635,1.466,2.289,2.365
		c-0.098,0.011-0.141-0.016-0.162-0.076C69.216,114.239,68.14,113.481,67.517,112.681"/>
	<path fill-rule="evenodd" clip-rule="evenodd" fill="#998B7D" d="M111.861,113.39c-0.168-0.012,0.416-0.558,0.627-0.709
		C112.321,112.961,112.019,113.107,111.861,113.39"/>
	<path fill-rule="evenodd" clip-rule="evenodd" fill="#998B7D" d="M105.15,120.019c1.229-1.298,2.494-2.56,3.794-3.787
		C107.71,117.523,106.443,118.785,105.15,120.019"/>
	<path fill-rule="evenodd" clip-rule="evenodd" fill="#998B7D" d="M72.171,117.335c1.034,0.963,2.03,1.97,2.999,2.997h-0.076
		C74.163,119.282,73.097,118.385,72.171,117.335"/>
	<path fill-rule="evenodd" clip-rule="evenodd" fill="#998B7D" d="M122.431,119.153c1.056-1.082,2.467-2.635,3.393-3.318
		c-1.136,1.067-2.246,2.182-3.318,3.318H122.431z"/>
	<path fill-rule="evenodd" clip-rule="evenodd" fill="#998B7D" d="M29.326,116.306c0.898,0.498,1.542,1.386,2.289,2.134
		c2.235,2.229,4.655,4.539,6.868,6.867c-3.074-2.961-6.007-6.047-9.076-9.001H29.326z"/>
	<path fill-rule="evenodd" clip-rule="evenodd" fill="#998B7D" d="M39.506,124.516c2.181,2.057,4.21,4.248,6.391,6.311h0.076
		c-1.168-0.768-2.154-2.004-3.23-3.073C41.654,126.665,40.496,125.62,39.506,124.516"/>
	<path fill-rule="evenodd" clip-rule="evenodd" fill="#998B7D" d="M57.414,120.647c0.184-0.342,0.026-1.023,0.081-1.501h0.081
		C57.511,119.563,57.727,120.987,57.414,120.647"/>
	<path fill-rule="evenodd" clip-rule="evenodd" fill="#998B7D" d="M56.152,117.811c0.26,0.032,1.028,0.91,1.418,1.343h-0.076
		C57.078,118.666,56.634,118.223,56.152,117.811"/>
	<path fill-rule="evenodd" clip-rule="evenodd" fill="#998B7D" d="M63.409,125.067c-1.066-1.136-2.175-2.246-3.312-3.316v-0.076
		C61.174,122.73,62.728,124.142,63.409,125.067"/>
	<path fill-rule="evenodd" clip-rule="evenodd" fill="#998B7D" d="M62.073,121.751c1.429,1.547,2.993,2.959,4.417,4.498
		c-0.709-0.684-1.494-1.408-2.29-2.209c-0.73-0.735-1.829-1.765-2.127-2.365V121.751z"/>
	<path fill-rule="evenodd" clip-rule="evenodd" fill="#998B7D" d="M88.423,121.832c-0.769-0.196,1.585-0.406,0.871,0.319v-0.396
		C89.029,121.804,88.563,121.652,88.423,121.832"/>
	<path fill-rule="evenodd" clip-rule="evenodd" fill="#998B7D" d="M90.712,122.621c-0.184-0.162-0.027-0.653-0.081-0.946
		c0.909,0.216,2.689-0.291,3.394,0c-0.007,0-0.093,0.194-0.158,0.161c-0.865-0.193-2.078-0.032-3.079-0.085
		C90.609,121.891,90.76,122.356,90.712,122.621"/>
	<path fill-rule="evenodd" clip-rule="evenodd" fill="#998B7D" d="M99.393,125.777c1.331-1.401,2.699-2.772,4.102-4.103
		c0.286,0.055,0.785-0.104,0.947,0.076h-0.871C102.055,122.969,100.843,124.493,99.393,125.777"/>
	<path fill-rule="evenodd" clip-rule="evenodd" fill="#998B7D" d="M114.94,124.829c0.952-1.071,2.04-2.002,2.986-3.073v-0.081
		C117.278,122.763,115.919,123.812,114.94,124.829"/>
	<path fill-rule="evenodd" clip-rule="evenodd" fill="#998B7D" d="M118.561,123.098c0.038-0.265,0.915-1.028,1.342-1.423v0.076
		C119.432,122.172,118.978,122.61,118.561,123.098"/>
	<path fill-rule="evenodd" clip-rule="evenodd" fill="#998B7D" d="M119.896,121.675c0.429,0.064,1.841-0.158,1.511,0.161
		c-0.356-0.188-1.023-0.032-1.511-0.085V121.675z"/>
	<path fill-rule="evenodd" clip-rule="evenodd" fill="#998B7D" d="M110.351,131.221c1.759-1.824,3.551-3.609,5.375-5.362
		C113.966,127.676,112.175,129.462,110.351,131.221"/>
	<path fill-rule="evenodd" clip-rule="evenodd" fill="#998B7D" d="M78.324,123.488c1.212,1.256,2.819,2.542,3.707,3.868
		C80.917,125.945,79.499,124.835,78.324,123.488"/>
	<path fill-rule="evenodd" clip-rule="evenodd" fill="#998B7D" d="M65.699,127.275c1.547,1.527,3.377,3.203,4.66,4.73
		C68.848,130.382,67.208,128.899,65.699,127.275"/>
	<path fill-rule="evenodd" clip-rule="evenodd" fill="#998B7D" d="M93.239,132.012c1.412-1.662,3.371-3.464,5.043-5.137
		C96.648,128.635,94.873,130.252,93.239,132.012"/>
	<path fill-rule="evenodd" clip-rule="evenodd" fill="#998B7D" d="M109.811,129.797c0.616-0.422,1.698-1.504,2.126-2.131
		c-0.037-0.045,0.054-0.097,0.082-0.077c0.184,0.19-1.933,2.154-2.295,2.37C109.713,129.868,109.739,129.819,109.811,129.797"/>
	<path fill-rule="evenodd" clip-rule="evenodd" fill="#998B7D" d="M53.474,140.447c-2.072-2.314-4.692-4.777-7.024-7.093v-0.083
		c2.029,2.263,5.249,4.828,7.176,7.102C53.76,140.528,53.614,140.609,53.474,140.447"/>
	<path fill-rule="evenodd" clip-rule="evenodd" fill="#998B7D" d="M45.897,132.796h0.076c-0.086,0.411,0.07,0.568,0.477,0.476v0.083
		h-0.552V132.796z"/>
	<path fill-rule="evenodd" clip-rule="evenodd" fill="#998B7D" d="M41.324,128.222c-0.184-0.329,0.395,0.233,0.471,0.396
		c0.26,0.136,0.373,0.411,0.627,0.553c0.363,0.427,0.757,0.822,1.191,1.179c0.741,0.865,1.623,1.585,2.365,2.452h-0.082
		C44.404,131.243,42.877,129.723,41.324,128.222"/>
	<path fill-rule="evenodd" clip-rule="evenodd" fill="#998B7D" d="M83.141,128.305c1.201,1.189,2.684,2.51,3.625,3.701
		C85.603,130.729,84.299,129.581,83.141,128.305"/>
	<path fill-rule="evenodd" clip-rule="evenodd" fill="#998B7D" d="M68.778,128.455c1.115,1.235,2.359,2.327,3.475,3.557
		C71.121,130.896,69.509,129.441,68.778,128.455"/>
	<path fill-rule="evenodd" clip-rule="evenodd" fill="#998B7D" d="M107.759,132.012c0.249-0.429,0.747-0.613,0.941-1.104
		C108.728,131.302,108.051,131.682,107.759,132.012"/>
	<path fill-rule="evenodd" clip-rule="evenodd" fill="#998B7D" d="M29.407,133.115v14.671c0,0.477-0.059,1.991,0,2.057
		c0.146,0.146,1.959,0,2.604,0h17.913c-6.705,0.18-13.757,0.021-20.591,0.076C29.38,144.345,29.224,138.553,29.407,133.115"/>
	<path fill-rule="evenodd" clip-rule="evenodd" fill="#998B7D" d="M48.419,133.271v0.076c2.689,2.815,5.52,5.482,8.21,8.285
		c-1.97-1.938-4.183-4.097-6.311-6.234C49.691,134.775,48.625,133.781,48.419,133.271"/>
	<path fill-rule="evenodd" clip-rule="evenodd" fill="#998B7D" d="M48.419,133.348v-0.076c4.416,0.109,9.303-0.204,13.573,0.157
		C57.624,133.245,52.922,133.402,48.419,133.348"/>
	<path fill-rule="evenodd" clip-rule="evenodd" fill="#998B7D" d="M71.695,133.271c0.357,0.38,1.077,0.812,1.104,1.268
		c-0.254-0.51-0.714-0.812-1.104-1.191V133.271z"/>
	<path fill-rule="evenodd" clip-rule="evenodd" fill="#998B7D" d="M74.379,134.139c2.219,2.153,4.399,4.333,6.554,6.548
		C78.714,138.543,76.528,136.357,74.379,134.139"/>
	<path fill-rule="evenodd" clip-rule="evenodd" fill="#998B7D" d="M89.294,135.876c0.119,0.155,0.167,0.903-0.081,0.946
		C89.365,136.628,89.261,136.184,89.294,135.876"/>
	<path fill-rule="evenodd" clip-rule="evenodd" fill="#998B7D" d="M89.213,134.456c-0.292-0.416-0.73-0.686-1.028-1.102
		C88.515,133.64,89.272,134.301,89.213,134.456"/>
	<path fill-rule="evenodd" clip-rule="evenodd" fill="#998B7D" d="M86.296,133.429c-0.633-0.232,1.602-0.206,1.895-0.081
		C87.579,133.402,86.772,133.245,86.296,133.429"/>
	<path fill-rule="evenodd" clip-rule="evenodd" fill="#998B7D" d="M90.712,134.456c0.329-0.404,0.703-0.772,1.104-1.102
		C91.48,133.748,91.118,134.116,90.712,134.456"/>
	<path fill-rule="evenodd" clip-rule="evenodd" fill="#998B7D" d="M100.891,138.717c1.921-1.679,3.654-3.561,5.439-5.369v-0.076
		c-0.595,0.91-1.617,1.853-2.604,2.837C102.828,137.006,101.595,138.32,100.891,138.717"/>
	<path fill-rule="evenodd" clip-rule="evenodd" fill="#998B7D" d="M102.386,139.192c1.941-2.009,3.906-3.981,5.914-5.921v0.076
		C106.287,135.253,104.409,137.287,102.386,139.192"/>
	<path fill-rule="evenodd" clip-rule="evenodd" fill="#998B7D" d="M117.062,149.919c1.12-1.549,2.949-3.069,4.416-4.578
		c1.499-1.559,3.02-3.079,4.578-4.567c-2.949,3.067-6.033,5.995-8.994,9.069V149.919z"/>
	<path fill-rule="evenodd" clip-rule="evenodd" fill="#998B7D" d="M73.827,135.561c1.012,0.699,2.002,1.771,2.999,2.76
		c0.995,0.997,2.067,1.988,2.759,2.999C77.762,139.301,75.846,137.384,73.827,135.561"/>
	<path fill-rule="evenodd" clip-rule="evenodd" fill="#998B7D" d="M90.712,148.977c3.068-3.063,6.213-6.044,9.152-9.232
		c-0.536,0.85-1.35,1.581-2.134,2.359c-1.515,1.527-3.014,3.025-4.654,4.659c-0.74,0.742-1.851,1.921-2.445,2.214H90.712z"/>
	<path fill-rule="evenodd" clip-rule="evenodd" fill="#998B7D" d="M81.956,141.714c2.495,2.376,4.843,4.887,7.333,7.263h0.081
		c-1.331-0.93-2.473-2.314-3.707-3.555C84.418,144.183,83.103,142.981,81.956,141.714"/>
	<path fill-rule="evenodd" clip-rule="evenodd" fill="#998B7D" d="M55.919,142.743c1.775,1.743,3.632,3.551,5.439,5.362
		c0.58,0.578,1.218,1.137,1.581,1.813v-0.076C60.644,147.43,58.214,145.151,55.919,142.743"/>
	<path fill-rule="evenodd" clip-rule="evenodd" fill="#998B7D" d="M91.815,149.919c0.374-0.855,1.575-1.585,2.209-2.446
		c0.86-0.736,1.585-1.624,2.45-2.36c1.57-1.644,3.172-3.247,4.812-4.816c-3.11,3.226-6.364,6.315-9.471,9.547V149.919z"/>
	<path fill-rule="evenodd" clip-rule="evenodd" fill="#998B7D" d="M80.695,142.266c1.937,1.824,3.826,3.832,5.752,5.759
		c0.617,0.617,1.375,1.131,1.743,1.895v-0.076C85.733,147.272,83.141,144.838,80.695,142.266"/>
	<path fill-rule="evenodd" clip-rule="evenodd" fill="#998B7D" d="M115.098,149.919h-4.183c-1.451,0-3.059,0.266-4.185,0
		c-0.189-0.044-0.222,0,0-0.151c2.625,0.178,5.602,0.021,8.367,0.075V149.919z"/>
	<path fill-rule="evenodd" clip-rule="evenodd" fill="#998B7D" d="M115.098,149.843c2.473-2.413,4.925-4.859,7.333-7.339
		c-1.992,2.241-4.941,5.033-7.333,7.415V149.843z"/>
	<path fill-rule="evenodd" clip-rule="evenodd" fill="#998B7D" d="M64.909,149.919c-1.986-1.981-4.265-4.093-5.997-6.072
		c0.098-0.01,0.141,0.017,0.157,0.075c1.677,1.927,3.902,3.993,5.839,5.921V149.919z"/>
	<path fill-rule="evenodd" clip-rule="evenodd" fill="#998B7D" d="M64.357,151.186c2.889,2.851,5.844,5.759,8.756,8.675
		c0.947,0.946,1.948,1.862,2.689,2.917c-3.701-3.951-7.608-7.695-11.445-11.518V151.186z"/>
	<path fill-rule="evenodd" clip-rule="evenodd" fill="#998B7D" d="M66.251,151.26h0.081c3.555,3.681,7.251,7.215,10.808,10.889
		C73.476,158.556,69.85,154.924,66.251,151.26"/>
	<path fill-rule="evenodd" clip-rule="evenodd" fill="#998B7D" d="M89.608,151.186c0.141,0.064,0.244,0.174,0.314,0.312
		c0.281,0.017,0.26-0.271,0.471-0.312v0.074c-0.211,0.051-0.189,0.332-0.471,0.315c-0.07-0.142-0.173-0.244-0.314-0.315V151.186z"/>
	<path fill-rule="evenodd" clip-rule="evenodd" fill="#998B7D" d="M105.465,159.389c2.852-2.597,5.492-5.401,8.209-8.129h0.07
		c-1.922,1.955-4.059,4.136-6.147,6.236C106.963,158.129,105.973,159.185,105.465,159.389"/>
	<path fill-rule="evenodd" clip-rule="evenodd" fill="#998B7D" d="M106.963,159.866c2.864-2.935,5.759-5.824,8.675-8.681v0.074
		C112.705,154.081,109.896,157.041,106.963,159.866"/>
	<path fill-rule="evenodd" clip-rule="evenodd" fill="#998B7D" d="M78.167,163.178c3.988,3.875,7.841,7.879,11.83,11.755
		c4.887-4.769,9.638-9.678,14.525-14.439c-4.854,4.86-9.627,9.795-14.601,14.515C86.047,171.014,82.042,167.166,78.167,163.178"/>
	<path fill-rule="evenodd" clip-rule="evenodd" fill="#998B7D" d="M117.062,28.574c3.849,0.054,7.891-0.106,11.597,0.078h-11.597
		V28.574z"/>
	<path fill-rule="evenodd" clip-rule="evenodd" fill="#998B7D" d="M115.098,28.652c-3.421,0.057-7.053-0.105-10.343,0.079
		c-0.097-0.041-0.193-0.122-0.075-0.157c0.617-0.192,1.764,0,2.597,0h7.821V28.652z"/>
	<path fill-rule="evenodd" clip-rule="evenodd" fill="#998B7D" d="M48.419,45.142H59.15c-3.42,0.184-7.176,0.027-10.731,0.079
		V45.142z"/>
	<path fill-rule="evenodd" clip-rule="evenodd" fill="#998B7D" d="M90.788,85.224c-0.254,0.709-0.152-2.256-0.152-3.157
		c0-7.804-0.07-16.609,0.076-23.985v0.076C90.76,67.151,90.609,76.357,90.788,85.224"/>
	<path fill-rule="evenodd" clip-rule="evenodd" fill="#998B7D" d="M89.294,58.081c0.179,4.551,0.027,9.444,0.076,14.119
		c-0.048,4.451,0.103,9.682-0.076,13.89V58.16V58.081z"/>
	<path fill-rule="evenodd" clip-rule="evenodd" fill="#998B7D" d="M85.977,88.458c0.709,0.255-2.257,0.16-3.155,0.16
		c-7.804,0-16.609,0.063-23.985-0.081h0.082C67.912,88.484,77.118,88.642,85.977,88.458"/>
	<path fill-rule="evenodd" clip-rule="evenodd" fill="#998B7D" d="M89.213,93.271c0.254-0.71,0.157,2.261,0.157,3.158
		c0,7.804,0.065,16.609-0.081,23.984v-0.081C89.24,111.338,89.397,102.127,89.213,93.271"/>
	<path fill-rule="evenodd" clip-rule="evenodd" fill="#998B7D" d="M122.505,102.659v5.757h0.082
		c-0.011,0.076-0.098,0.064-0.151,0.087C122.479,106.575,122.321,104.448,122.505,102.659"/>
	<path fill-rule="evenodd" clip-rule="evenodd" fill="#998B7D" d="M45.821,118.676c0.179-2.548,0.027-5.443,0.076-8.127
		c0.184,1.237,0.027,2.812,0.076,4.178c-0.178,1.189,0.314,3.268-0.151,4.026C45.833,118.736,45.805,118.698,45.821,118.676"/>
	<path fill-rule="evenodd" clip-rule="evenodd" fill="#998B7D" d="M70.829,121.832c-0.103-0.032-0.07-0.135,0-0.157
		c1.542-0.411,4.172,0.238,5.758,0.081C74.698,121.804,72.588,121.652,70.829,121.832"/>
	<path fill-rule="evenodd" clip-rule="evenodd" fill="#998B7D" d="M111.304,133.348c1.152-0.141,2.575-0.076,4.102-0.076
		c1.381,0,3.112-0.336,4.107,0c0.033,0.012-0.037,0.2-0.081,0.157C116.878,133.245,113.988,133.402,111.304,133.348"/>
	<path fill-rule="evenodd" clip-rule="evenodd" fill="#998B7D" d="M75.25,149.762c0.092,0.038,0.189,0.125,0.076,0.157
		c-0.623,0.194-1.77,0-2.608,0h-7.804v-0.076C68.334,149.788,71.96,149.945,75.25,149.762"/>
	<path fill-rule="evenodd" clip-rule="evenodd" fill="#998B7D" d="M91.815,149.843h11.679c-3.733,0.184-7.809,0.028-11.679,0.076
		V149.843z"/>
	<path fill-rule="evenodd" clip-rule="evenodd" fill="#998B7D" d="M60.574,45.063c2.549,0.184,5.439,0.027,8.128,0.078
		c-1.239,0.182-2.814,0.027-4.183,0.076c-1.186-0.176-3.263,0.317-4.026-0.154C60.509,45.074,60.552,45.052,60.574,45.063"/>
	<path fill-rule="evenodd" clip-rule="evenodd" fill="#998B7D" d="M83.455,45.142h4.73C86.848,45.274,84.537,45.274,83.455,45.142"
		/>
	<path fill-rule="evenodd" clip-rule="evenodd" fill="#998B7D" d="M97.73,45.142h7.652C103.019,45.274,100.097,45.274,97.73,45.142"
		/>
	<path fill-rule="evenodd" clip-rule="evenodd" fill="#998B7D" d="M45.897,73.862c0.136,2.365,0.136,5.288,0,7.652V73.862z"/>
	<path fill-rule="evenodd" clip-rule="evenodd" fill="#998B7D" d="M45.897,91.06c0.136,1.343,0.13,3.654,0,4.736V91.06z"/>
	<path fill-rule="evenodd" clip-rule="evenodd" fill="#998B7D" d="M45.897,120.096c0.184,3.419,0.027,7.18,0.076,10.73h-0.076
		V120.096z"/>
	<path fill-rule="evenodd" clip-rule="evenodd" fill="#998B7D" d="M63.409,133.429c-0.097-0.016-0.076-0.157,0-0.157h8.286v0.076
		h-8.286V133.429z"/>
	<path fill-rule="evenodd" clip-rule="evenodd" fill="#998B7D" d="M74.617,133.348c2.365-0.129,5.288-0.129,7.652,0H74.617z"/>
	<path fill-rule="evenodd" clip-rule="evenodd" fill="#998B7D" d="M91.815,133.348c1.348-0.129,3.658-0.129,4.73,0H91.815z"/>
	<path fill-rule="evenodd" clip-rule="evenodd" fill="#998B7D" d="M120.851,133.348c3.42-0.178,7.181-0.021,10.73-0.076v0.076
		H120.851z"/>
	<path fill-rule="evenodd" clip-rule="evenodd" fill="#998B7D" d="M76.512,28.652c3.734-0.184,7.809-0.027,11.673-0.078v0.078
		H76.512z"/>
	<path fill-rule="evenodd" clip-rule="evenodd" fill="#998B7D" d="M103.412,56.739h5.76v-0.076c0.08,0,0.064,0.092,0.08,0.155
		C107.331,56.769,105.21,56.923,103.412,56.739"/>
	<path fill-rule="evenodd" clip-rule="evenodd" fill="#998B7D" d="M57.414,70.074c0.021-0.098,0.162-0.076,0.162,0
		c-0.054,1.896,0.108,3.997-0.081,5.758C57.44,73.943,57.597,71.838,57.414,70.074"/>
	<path fill-rule="evenodd" clip-rule="evenodd" fill="#998B7D" d="M93.158,88.537h27.936h0.069
		C112.148,88.668,102.033,88.668,93.158,88.537"/>
	<path fill-rule="evenodd" clip-rule="evenodd" fill="#998B7D" d="M90.712,92.402v27.93v0.077
		C90.577,111.393,90.577,101.284,90.712,92.402"/>
	<path fill-rule="evenodd" clip-rule="evenodd" fill="#998B7D" d="M51.341,149.843h11.598v0.076
		C59.102,149.871,55.048,150.026,51.341,149.843"/>
</g>
</svg>
