<?xml version="1.0" encoding="UTF-8" standalone="no"?>
<!-- Generator: Adobe Illustrator 16.0.0, SVG Export Plug-In . SVG Version: 6.00 Build 0)  -->
<!DOCTYPE svg  PUBLIC '-//W3C//DTD SVG 1.1//EN'  'http://www.w3.org/Graphics/SVG/1.1/DTD/svg11.dtd'>
<svg id="career" xmlns="http://www.w3.org/2000/svg" xml:space="preserve" height="180px" viewBox="0 0 180 180" width="180px" version="1.1" y="0px" x="0px" xmlns:xlink="http://www.w3.org/1999/xlink" enable-background="new 0 0 180 180">
<path fill="#998B7D" clip-rule="evenodd" d="m69.484 112.36v8.917h-0.075c0.048-2.95-0.109-6.1 0.075-8.92" fill-rule="evenodd"/>
<path fill="#998B7D" clip-rule="evenodd" d="m69.403 150.15h0.081v15.387c-0.184-4.97-0.027-10.28-0.081-15.39" fill-rule="evenodd"/>
<path fill="#998B7D" clip-rule="evenodd" d="m-66.921 105.81c-5.149-5.039-10.162-10.206-15.321-15.243 4.114-4.346 8.416-8.499 12.655-12.723-4.156 4.224-8.353 8.413-12.571 12.571 4.955 5.252 10.214 10.205 15.237 15.395" fill-rule="evenodd"/>
<path fill="#998B7D" clip-rule="evenodd" d="m56.544 108.89c3.951-3.702 7.695-7.609 11.522-11.438h0.076c-2.695 2.805-5.726 5.72-8.681 8.679-0.86 0.86-2.131 2.37-2.917 2.76" fill-rule="evenodd"/>
<path fill="#998B7D" clip-rule="evenodd" d="m57.178 110.23c3.593-3.664 7.225-7.293 10.889-10.888v0.077c-3.675 3.561-7.214 7.251-10.889 10.811" fill-rule="evenodd"/>
<path fill="#998B7D" clip-rule="evenodd" d="m-66.461 104.51c-4.72-4.601-9.305-9.339-14.024-13.947 3.706-3.941 7.6-7.687 11.432-11.502-3.753 3.815-7.538 7.6-11.359 11.351 4.532 4.826 9.356 9.343 13.951 14.098" fill-rule="evenodd"/>
<path fill="#998B7D" clip-rule="evenodd" d="m68.142 122.7c-0.071 0.139-0.179 0.245-0.314 0.314-0.011 0.278 0.265 0.263 0.314 0.475h-0.076c-0.049-0.212-0.336-0.196-0.32-0.475 0.141-0.069 0.244-0.176 0.32-0.314h0.076z" fill-rule="evenodd"/>
<path fill="#998B7D" clip-rule="evenodd" d="m59.938 138.56c2.598 2.845 5.396 5.485 8.123 8.203v0.075c-1.948-1.921-4.134-4.059-6.229-6.157-0.639-0.63-1.689-1.61-1.894-2.12" fill-rule="evenodd"/>
<path fill="#998B7D" clip-rule="evenodd" d="m69.403 148.18v-4.185c0-1.439-0.265-3.051 0-4.184 0.049-0.184 0.006-0.21 0.162 0-0.189 2.631-0.027 5.607-0.081 8.368h-0.081z" fill-rule="evenodd"/>
<path fill="#998B7D" clip-rule="evenodd" d="m59.461 140.05c2.928 2.856 5.818 5.753 8.681 8.681h-0.076c-2.825-2.94-5.785-5.74-8.605-8.68" fill-rule="evenodd"/>
<path fill="#998B7D" clip-rule="evenodd" d="m69.484 98c0.049 3.42-0.108 7.049 0.076 10.337-0.038 0.094-0.119 0.194-0.151 0.078-0.195-0.622 0-1.771 0-2.601v-7.82h0.075z" fill-rule="evenodd"/>
<path fill="#998B7D" clip-rule="evenodd" d="m69.484 124.9v11.673c-0.184-3.734-0.027-7.803-0.075-11.673h0.075z" fill-rule="evenodd"/>
<path fill="#998B7D" clip-rule="evenodd" d="m69.484 84.43v11.597h-0.075c0.048-3.839-0.109-7.89 0.075-11.597" fill-rule="evenodd"/>
<g fill="#998B7D" clip-rule="evenodd" fill-rule="evenodd">
	<path d="m47.553 28.652c4.973-0.184 10.288-0.027 15.386-0.078v0.078h-15.386z"/>
	<path d="m91.815 28.652v-0.078c2.949 0.051 6.099-0.106 8.914 0.078h-8.915z"/>
	<path d="m89.294 29.521h0.076c-0.048 3.762 0.103 7.731-0.076 11.359v-11.359z"/>
	<path d="m90.631 29.521h0.081v10.729c-0.184-3.421-0.022-7.177-0.081-10.729"/>
	<path d="m70.196 45.142h1.504v0.079c-0.476-0.052-1.158 0.105-1.504-0.079"/>
	<path d="m73.67 45.22v-0.079h6.549c-2.03 0.185-4.395 0.03-6.549 0.079"/>
	<path d="m89.294 46.484c0.13 2.232 0.13 5.02 0 7.26v-7.26z"/>
	<path d="m90.712 46.484c0.054 2.157-0.108 4.521 0.076 6.551 0 0.076-0.092 0.059-0.157 0.076 0.054-2.184-0.103-4.576 0.081-6.627"/>
	<path d="m74.065 56.661c0.098 0.024 0.076 0.157 0 0.162-1.764-0.057-3.739 0.106-5.369-0.084 1.765-0.049 3.741 0.106 5.369-0.078"/>
	<path d="m62.073 56.82v-0.078h5.207c-1.581 0.184-3.503 0.027-5.207 0.078"/>
	<path d="m82.822 56.739c-1.261 0.136-3.074 0.136-4.341 0h4.341z"/>
	<path d="m95.686 56.739h5.438c-1.624 0.136-3.811 0.136-5.434 0"/>
	<path d="m110.67 56.739h7.264v0.079c-2.39-0.049-5 0.105-7.26-0.079"/>
	<path d="m119.9 56.82v-0.078h1.669c-0.4 0.184-1.14 0.027-1.67 0.078"/>
	<path d="m57.495 57.689c0.184 0.392 0.027 1.128 0.076 1.656h-0.076v-1.656z"/>
	<path d="m57.495 61.317h0.076c-0.049 2.392 0.108 4.998-0.076 7.26v-7.26z"/>
	<path d="m122.43 61.317h0.074v5.209c-0.18-1.58-0.02-3.502-0.07-5.209"/>
	<path d="m122.5 67.944c0.055 1.762-0.097 3.734 0.082 5.366-0.011 0.076-0.098 0.059-0.151 0.076 0.05-1.783-0.11-3.786 0.07-5.442"/>
	<path d="m122.5 82.066c-0.123-1.264-0.123-3.074 0-4.337v4.337z"/>
	<path d="m57.495 78.124c0.135 1.629 0.135 3.813 0 5.441v-5.441z"/>
	<path d="m53.787 88.458c0.098 0.021 0.076 0.154 0 0.16-2.153-0.055-4.524 0.099-6.548-0.081 2.154-0.053 4.525 0.105 6.548-0.079"/>
	<path d="m30.273 88.617v-0.079h10.731c-3.42 0.185-7.18 0.023-10.731 0.079"/>
	<path d="m30.273 89.956v-0.075c3.767 0.048 7.733-0.105 11.365 0.075h-11.365z"/>
	<path d="m47.239 89.956c2.23-0.131 5.027-0.131 7.257 0h-7.257z"/>
	<path d="m58.836 89.956c4.21-0.18 8.757-0.026 13.102-0.075v0.075h-13.102z"/>
	<path d="m110.83 89.956v-0.075c3.42 0.048 7.046-0.105 10.33 0.075h-10.329z"/>
	<path d="m122.5 94.926v5.448c-0.12-1.63-0.12-3.816 0-5.444"/>
	<path d="m57.495 96.423c0.135 1.268 0.135 3.079 0 4.341v-4.333z"/>
	<path d="m45.897 99.031c0.184 2.024 0.027 4.39 0.076 6.55h-0.076v-6.549z"/>
	<path d="m57.414 105.18c0.021-0.102 0.162-0.081 0.162 0-0.054 1.759 0.108 3.734-0.081 5.364-0.055-1.76 0.102-3.73-0.081-5.36"/>
	<path d="m45.897 107.55h0.076c-0.048 0.476 0.108 1.153-0.076 1.505v-1.51z"/>
	<path d="m122.5 109.92v7.258h-0.069c0.05-2.4-0.11-5 0.07-7.26"/>
	<path d="m57.495 111.97c0.184 1.579 0.027 3.5 0.076 5.211h-0.076v-5.21z"/>
	<path d="m122.43 119.15h0.074v1.656c-0.18-0.4-0.02-1.14-0.07-1.66"/>
	<path d="m58.441 121.75c0.4-0.18 1.131-0.021 1.656-0.076v0.076h-1.656z"/>
	<path d="m62.073 121.75v-0.076c2.392 0.055 4.995-0.104 7.257 0.076h-7.257z"/>
	<path d="m78.876 121.75c1.629-0.131 3.815-0.131 5.444 0h-5.444z"/>
	<path d="m97.185 121.75c1.261-0.131 3.073-0.131 4.334 0h-4.334z"/>
	<path d="m111.3 121.75c-1.765 0.053-3.733-0.103-5.368 0.081-0.07 0-0.054-0.093-0.07-0.157 1.78 0.06 3.79-0.1 5.44 0.08"/>
	<path d="m112.73 121.75c1.575-0.18 3.491-0.021 5.207-0.076v0.076h-5.21z"/>
	<path d="m90.712 124.75v7.258c-0.135-2.24-0.135-5.03 0-7.26"/>
	<path d="m89.213 125.46c0.016-0.097 0.157-0.077 0.157 0-0.054 2.159 0.103 4.523-0.081 6.554-0.049-2.16 0.108-4.52-0.076-6.55"/>
	<path d="m99.782 133.35c2.023-0.178 4.399-0.021 6.548-0.076v0.076h-6.548z"/>
	<path d="m108.31 133.35v-0.076c0.481 0.055 1.158-0.102 1.505 0.076h-1.51z"/>
	<path d="m90.631 148.98c0.059-3.767-0.103-7.732 0.081-11.364v11.364h-0.081z"/>
	<path d="m89.294 138.24c0.179 3.422 0.027 7.187 0.076 10.737h-0.076v-10.74z"/>
	<path d="m79.271 149.84h8.913v0.076c-2.944-0.05-6.099 0.11-8.913-0.08"/>
	<path d="m117.06 149.92v-0.076h15.392c-4.98 0.19-10.29 0.03-15.39 0.08"/>
	<path d="m74.141 17.528c5.217-5.33 10.569-10.528 15.786-15.861 4.498 4.256 8.804 8.713 13.172 13.102-3.756-3.717-7.562-7.487-11.44-11.367-0.331-0.325-1.386-1.634-1.581-1.656-0.303-0.022-1.596 1.439-2.045 1.894-4.536 4.534-9.417 9.526-13.893 13.888"/>
	<path d="m76.906 163.73c4.373 4.301 8.708 8.643 13.016 13.014 5.438-5.136 10.575-10.579 15.943-15.774-5.212 5.324-10.575 10.52-15.781 15.852-4.503-4.25-8.8-8.71-13.173-13.09"/>
	<path d="m75.483 18.001c4.768-4.889 9.67-9.633 14.438-14.52 4.086 3.834 7.96 7.874 11.911 11.836-3.38-3.358-6.81-6.737-10.328-10.255-0.314-0.311-1.267-1.485-1.418-1.496-0.313-0.03-1.499 1.334-1.899 1.734-4.189 4.189-8.48 8.6-12.702 12.701"/>
	<path d="m104.2 15.712c3.707 3.951 7.614 7.698 11.446 11.521v0.079c-2.804-2.696-5.727-5.726-8.682-8.678-0.87-0.865-2.38-2.139-2.77-2.922"/>
	<path d="m64.357 27.231c2.943-2.819 5.742-5.78 8.68-8.599-2.857 2.925-5.753 5.818-8.68 8.677v-0.078z"/>
	<path d="m102.86 16.343c3.67 3.597 7.29 7.228 10.884 10.891h-0.075c-3.55-3.674-7.24-7.216-10.8-10.891"/>
	<path d="m66.251 27.231c1.986-2.1 4.151-4.146 6.234-6.234 0.666-0.663 1.234-1.48 2.051-1.894-2.847 2.598-5.493 5.404-8.204 8.128h-0.081z"/>
	<path d="m89.608 27.231c0.141-0.07 0.244-0.176 0.314-0.314 0.281-0.019 0.26 0.266 0.471 0.314v0.078c-0.265-0.338-0.514-0.338-0.785 0v-0.078z"/>
	<path d="m29.489 49.087c-0.303 0.016-0.152-0.593-0.163-1.025-0.097-6.272 0.076-13.151 0-19.49 5.58 0.057 11.365-0.104 16.809 0.078h-16.728c0.054 6.788-0.102 13.781 0.082 20.437"/>
	<path d="m53.944 37.725c2.955-3.068 6.04-5.999 8.995-9.07v-0.083c-0.493 0.903-1.386 1.547-2.127 2.289-2.235 2.231-4.541 4.654-6.868 6.864"/>
	<path d="m57.576 35.991c0.747-1.042 2.473-2.468 3.55-3.708 1.309-1.193 2.479-2.521 3.783-3.707v0.076c-2.474 2.411-4.925 4.86-7.333 7.339"/>
	<path d="m64.909 28.574h4.183c1.445 0 3.058-0.265 4.184 0 0.184 0.043 0.216 0.005 0 0.16-2.63-0.187-5.607-0.027-8.367-0.082v-0.078z"/>
	<path d="m78.719 38.198c3.112-3.231 6.359-6.315 9.465-9.546v-0.078c-0.574 0.898-1.418 1.656-2.203 2.443-2.359 2.349-4.858 4.811-7.262 7.181"/>
	<path d="m91.815 28.652c2.452 2.571 5.05 5.003 7.496 7.577-1.823-1.713-3.761-3.764-5.678-5.683-0.627-0.625-1.661-1.418-1.818-1.973v0.079z"/>
	<path d="m120.93 34.57c-1.672-1.929-3.902-3.991-5.828-5.918v-0.078c1.282 1.264 3.084 3.009 4.648 4.579 0.22 0.213 1.69 1.655 1.18 1.417"/>
	<path d="m117.06 28.652c2.295 2.411 4.736 4.689 7.025 7.1-1.668-1.637-3.567-3.487-5.369-5.287-0.574-0.571-1.499-1.437-1.656-1.892v0.079z"/>
	<path d="m80.143 38.75c0.509-0.915 1.418-1.578 2.208-2.365 1.542-1.548 3.063-3.146 4.654-4.732 0.774-0.776 1.504-1.591 2.365-2.135h-0.081c-3.069 3.061-6.213 6.047-9.146 9.232"/>
	<path d="m90.631 29.521c1.271 0.836 2.506 2.39 3.706 3.553 1.272 1.202 2.506 2.438 3.703 3.707-2.479-2.373-4.833-4.89-7.328-7.26h-0.081z"/>
	<path d="m100.42 37.173c1.824 2.019 3.734 3.94 5.759 5.758-0.969-0.652-1.938-1.697-3.004-2.76-0.93-0.925-2.33-2.254-2.76-2.998"/>
	<path d="m118.01 45.063c4.362 0.184 9.065 0.027 13.567 0.078v0.076h-10.26c-1.13 0-2.63 0.131-3.31-0.154"/>
	<path d="m123.38 36.856c1.424 1.31 2.782 2.785 4.184 4.187 1.392 1.391 2.933 2.687 4.021 4.178v-0.079c-2.68-2.809-5.52-5.474-8.2-8.286"/>
	<path d="m107.2 43.959c0.259 0.503 0.708 0.809 1.098 1.185v0.079c-0.35-0.384-1.07-0.814-1.1-1.264"/>
	<path d="m108.31 45.142h8.285v-0.078c0.075 0 0.07 0.094 0.075 0.157h-8.36v-0.079z"/>
	<path d="m71.695 45.142c2.019-1.9 3.902-3.939 5.921-5.833-1.938 1.999-3.913 3.972-5.921 5.912v-0.079z"/>
	<path d="m48.419 45.22c0.774-1.174 2.002-2.162 3.079-3.236 1.083-1.08 2.127-2.244 3.236-3.231-2.056 2.173-4.259 4.213-6.315 6.388v0.079z"/>
	<path d="m90.712 42.617c-0.125-0.154-0.173-0.909 0.076-0.947-0.146 0.192-0.049 0.636-0.076 0.947"/>
	<path d="m99.073 37.804c2.213 2.151 4.394 4.334 6.548 6.55-2.22-2.148-4.39-4.332-6.547-6.55"/>
	<path d="m73.67 45.22c0.644-0.958 1.662-1.899 2.604-2.841 0.941-0.938 1.877-1.957 2.835-2.601-1.921 1.672-3.642 3.559-5.439 5.363v0.079z"/>
	<path d="m38.797 52.715c2.322-2.073 4.779-4.687 7.1-7.021h0.082c-2.262 2.029-4.827 5.249-7.106 7.178-0.152 0.133-0.238-0.018-0.076-0.157"/>
	<path d="m45.897 45.694v-0.552h0.552v0.082c-0.406-0.095-0.563 0.067-0.477 0.471h-0.075z"/>
	<path d="m46.449 45.142c1.494-1.48 3.269-3.098 4.502-4.579 0.493-0.227-0.617 0.85-0.872 1.11-1.152 1.147-2.679 2.622-3.631 3.547v-0.078z"/>
	<path d="m88.19 45.142c0.33-0.398 0.703-0.771 1.098-1.101-0.33 0.397-0.703 0.768-1.098 1.101"/>
	<path d="m91.815 45.142c-0.329-0.287-1.087-0.952-1.028-1.101 0.299 0.413 0.732 0.684 1.028 1.101"/>
	<path d="m91.815 45.142c0.607-0.048 1.418 0.106 1.896-0.078h0.155c-0.35 0.305-1.569 0.162-2.051 0.078"/>
	<path d="m29.407 62.184c2.408-2.295 4.687-4.728 7.101-7.02-1.634 1.662-3.485 3.566-5.282 5.363-0.579 0.576-1.439 1.502-1.894 1.656h0.075z"/>
	<path d="m64.281 52.637c1.759-1.824 3.54-3.607 5.363-5.363-1.754 1.818-3.539 3.607-5.363 5.363"/>
	<path d="m71.305 47.588c-0.027-0.392 0.639-0.776 0.947-1.102-0.259 0.426-0.757 0.61-0.947 1.102"/>
	<path d="m81.717 51.611c1.635-1.756 3.415-3.375 5.049-5.125-1.412 1.662-3.376 3.464-5.049 5.125"/>
	<path d="m93.239 46.484c1.163 1.28 2.462 2.427 3.62 3.707-1.195-1.191-2.678-2.517-3.62-3.707"/>
	<path d="m111.22 50.034c-1.108-1.231-2.354-2.322-3.463-3.553 1.12 1.115 2.73 2.576 3.46 3.553"/>
	<path d="m109.65 46.484c1.495 1.623 3.14 3.109 4.649 4.733-1.55-1.529-3.38-3.204-4.65-4.733"/>
	<path d="m37.612 55.873c1.31-1.426 2.782-2.781 4.178-4.186 1.396-1.391 2.695-2.936 4.183-4.021h-0.076c-2.809 2.693-5.482 5.518-8.285 8.207"/>
	<path d="m45.897 47.667h0.076c-0.097 4.418 0.211 9.3-0.151 13.573 0.178-4.368 0.021-9.079 0.075-13.573"/>
	<path d="m68.069 50.824c0.032 0.043-0.06 0.1-0.082 0.075-0.184-0.181 1.938-2.148 2.289-2.365 0.011 0.095-0.016 0.138-0.076 0.16-0.626 0.428-1.703 1.502-2.131 2.13"/>
	<path d="m97.969 51.138c1.109 1.413 2.533 2.517 3.707 3.87-1.22-1.259-2.824-2.55-3.711-3.87"/>
	<path d="m75.564 56.739c0.26-0.054 0.547 0.079 0.871 0 0.677-0.159 1.629-1.471 2.127-1.972 0.763-0.763 1.386-1.497 2.051-2.049-0.72 0.836-2.062 2.065-3.079 3.074-0.508 0.512-0.909 1.364-1.97 0.947"/>
	<path d="m113.52 52.242c1.424 1.464 3.264 2.988 4.417 4.579v-0.084c-1.43-1.54-3-2.947-4.42-4.495"/>
	<path d="m62.073 56.82c0.655-1.088 2.013-2.141 2.999-3.155-0.953 1.071-2.046 2.002-2.999 3.077v0.078z"/>
	<path d="m116.59 53.427c1.071 1.136 2.176 2.243 3.306 3.315v0.076c-1.07-1.058-2.63-2.465-3.31-3.391"/>
	<path d="m60.098 56.82c-0.422-0.068-1.834 0.154-1.494-0.162 0.341 0.189 1.018 0.027 1.494 0.084v0.078z"/>
	<path d="m60.098 56.739c0.482-0.414 0.925-0.857 1.342-1.339-0.033 0.26-0.915 1.025-1.342 1.418v-0.079z"/>
	<path d="m89.294 55.873c0.179 0.16 0.027 0.652 0.076 0.947-0.903-0.216-2.689 0.292-3.393 0 0.005 0 0.098-0.2 0.157-0.162 0.871 0.189 2.078 0.03 3.079 0.084 0.178-0.138 0.027-0.604 0.081-0.869"/>
	<path d="m90.712 56.347v0.392c0.265-0.048 0.729 0.1 0.871-0.078 0.633 0.228-0.633 0.146-0.952 0.157 0.048-0.138-0.092-0.46 0.081-0.471"/>
	<path d="m54.183 62.657c1.136-1.069 2.246-2.176 3.312-3.312h0.081c-1.061 1.074-2.468 2.633-3.393 3.312"/>
	<path d="m122.43 59.345h0.074c0.418 0.482 0.855 0.925 1.343 1.339-0.26-0.032-1.01-0.914-1.41-1.339"/>
	<path d="m122.43 59.345c0.07-0.422-0.152-1.834 0.156-1.502-0.184 0.344-0.027 1.026-0.082 1.502h-0.08z"/>
	<path d="m29.326 64.156c1.981-1.994 4.097-4.267 6.078-5.993 0.016 0.092-0.016 0.138-0.082 0.154-1.926 1.677-3.988 3.901-5.915 5.839h-0.081z"/>
	<path d="m71.067 62.264c1.229-1.298 2.495-2.562 3.783-3.785-1.223 1.291-2.489 2.554-3.783 3.785"/>
	<path d="m104.84 58.16h0.071c0.936 1.05 2.002 1.951 2.922 2.998-1.03-0.963-2.03-1.967-2.99-2.998"/>
	<path d="m47.239 69.6c1.624-1.507 3.106-3.147 4.73-4.654-1.526 1.545-3.204 3.374-4.73 4.654"/>
	<path d="m74.141 17.528c4.476-4.359 9.357-9.36 13.892-13.887 0.454-0.455 1.742-1.924 2.045-1.894 0.195 0.016 1.25 1.329 1.581 1.656 3.874 3.881 7.69 7.642 11.44 11.359 5.688-2.538 11.218-5.236 16.884-7.806 3.123 6.781 6.267 13.559 9.472 20.275 7.311 0.238 15.169-0.076 22.486 0.157v13.886c0 1.57-0.299 3.358 0 4.654 0 0.011 0.139-0.005 0.156 0 5.73 2.129 11.543 4.186 17.28 6.312-2.539 7.065-5.175 14.033-7.658 21.146 5.201 5.372 10.645 10.501 15.78 15.938-4.372 4.308-8.713 8.646-13.015 13.018 2.537 5.693 5.232 11.225 7.804 16.884-6.782 3.129-13.557 6.272-20.273 9.466-0.184 7.338-0.026 15.018-0.074 22.492h-18.547c-0.055 0.01-0.093 0.064-0.076 0.151-2.138 5.736-4.183 11.542-6.316 17.278-7.056-2.531-14.021-5.168-21.137-7.651-5.375 5.201-10.505 10.645-15.943 15.78-4.308-4.367-8.648-8.707-13.021-13.014-5.682 2.537-11.218 5.237-16.885 7.803-3.123-6.786-6.266-13.556-9.465-20.273-6.267-0.146-13.259-0.074-19.72-0.074-0.736 0-2.587 0.129-2.766-0.081-0.097-0.113 0-1.814 0-2.289 0-5.456 0.125-11.322-0.157-16.252-5.742-2.127-11.543-4.184-17.28-6.314 2.533-7.063 5.174-14.023 7.658-21.146-5.2-5.376-10.645-10.502-15.781-15.943 4.373-4.305 8.719-8.646 13.021-13.018-2.538-5.69-5.239-11.222-7.809-16.885 6.787-3.125 13.557-6.267 20.278-9.465 0.238-7.313-0.082-15.18 0.151-22.489h13.887c1.569 0 3.361 0.3 4.659 0 0.011 0-0.01-0.143 0-0.154 2.127-5.736 4.183-11.543 6.311-17.279 7.062 2.532 14.032 5.17 21.143 7.651m27.689-2.21c-3.944-3.962-7.831-8.001-11.911-11.836-4.768 4.887-9.671 9.636-14.438 14.517 0.016 0.062 0.07 0.095 0.157 0.079 2.765 1.052 5.645 2.1 8.523 3.158 0.736 0.273 2.208 1.055 2.917 1.025 0.314-0.011 1.169-0.493 1.813-0.785 4.174-1.929 9.278-4.367 12.939-6.158m26.11 11.913c-2.809-6.24-5.73-12.353-8.588-18.541-5.114 2.276-10.098 4.692-15.153 7.021 0.385 0.785 1.899 2.054 2.76 2.92 2.955 2.952 5.878 5.985 8.675 8.677 4.08-0.047 8.36 0.108 12.3-0.077m-54.898-8.599c-6.327-2.495-12.875-4.754-19.336-7.101-1.792 5.277-3.799 10.348-5.596 15.624-0.022-0.011-0.065 0.011-0.087 0 0.769 0.471 2.63 0.154 3.945 0.154h12.387c2.929-2.859 5.819-5.751 8.687-8.677m29.818-2.289c-4.637 2.227-9.47 4.262-13.967 6.627 4.026 1.369 7.874 2.912 11.917 4.262 4.129 0.135 8.816 0.135 12.934 0-3.59-3.662-7.21-7.293-10.88-10.889m-28.324 2.76c-0.817 0.417-1.385 1.231-2.051 1.894-2.083 2.092-4.248 4.135-6.234 6.234 3.182 0.135 6.916 0.135 10.104 0 1.553-0.663 3.042-1.339 4.573-2.048 1.488-0.692 3.02-1.353 4.34-2.213-3.615-1.25-7.111-2.62-10.732-3.867m22.167 8.128c-3.091-1.291-6.392-2.387-9.623-3.55-2.451 1.175-4.941 2.316-7.414 3.475-0.33 0.265 1.737 0.154 2.371 0.154h7.571c0.271-0.338 0.52-0.338 0.79 0h4.968c0.487 0 1.472 0.063 1.337-0.079m-50.568 1.421c-5.444-0.184-11.235-0.03-16.809-0.078 0.081 6.334-0.097 13.218 0 19.49 0.006 0.433-0.135 1.042 0.163 1.026 3.777-1.643 7.387-3.453 11.121-5.133 1.796-5.147 3.712-10.169 5.525-15.305m1.418 0c-1.732 4.787-3.713 9.752-5.206 14.517 3.826-1.856 7.739-3.617 11.597-5.441 2.327-2.21 4.633-4.632 6.868-6.865 0.747-0.75 1.634-1.391 2.127-2.289-5.098 0.048-10.413-0.106-15.386 0.078m17.356-0.078c-1.304 1.19-2.474 2.517-3.783 3.707-1.077 1.242-2.804 2.665-3.55 3.707 2.008-0.825 3.885-1.789 5.839-2.682 0.157-0.133 0.119-0.455 0.314-0.549 0.173 0.089 0.324 0.2 0.628 0.157 2.922-1.448 5.942-2.795 8.918-4.186 0.216-0.154 0.184-0.111 0-0.154-1.126-0.265-2.739 0-4.178 0h-4.188zm11.603 0.078c-3.518 1.646-7.133 3.18-10.499 4.971 4.27 1.497 8.415 3.109 12.707 4.576 2.403-2.37 4.903-4.83 7.257-7.182 0.79-0.787 1.634-1.544 2.208-2.443-3.865 0.048-7.939-0.106-11.673 0.078m15.303-0.078c0.162 0.554 1.191 1.348 1.818 1.973 1.911 1.918 3.859 3.967 5.672 5.679 3.322-1.466 6.592-2.979 9.79-4.575-2.825-0.966-5.525-2.051-8.361-2.999-2.826-0.184-5.975-0.03-8.925-0.078m23.285 0h-7.821c-0.833 0-1.979-0.195-2.597 0-0.118 0.032-0.017 0.116 0.075 0.154 2.009 0.688 3.924 1.442 5.915 2.135 0.232 0.181 0.368-0.222 0.71-0.163 0.074 0.252 0.081 0.555 0.395 0.555 3.047 1.12 6.066 2.251 9.151 3.315 0.514 0.238-0.958-1.201-1.18-1.417-1.57-1.57-3.37-3.316-4.65-4.579m1.96 0c0.157 0.455 1.082 1.318 1.65 1.894 1.808 1.797 3.707 3.647 5.375 5.287 3.16 1.047 6.347 2.489 9.465 3.315-1.685-3.42-3.253-6.949-4.888-10.418-3.7-0.184-7.74-0.03-11.59-0.078m13.1 0.154c1.645 3.78 3.458 7.387 5.131 11.129 5.14 1.794 10.173 3.712 15.303 5.525 0.19-5.45 0.028-11.235 0.082-16.809h-20.586c0.02 0.063 0.01 0.155 0.08 0.155m-40.79 0.793c-0.86 0.544-1.597 1.358-2.365 2.13-1.591 1.583-3.112 3.19-4.654 4.732-0.791 0.793-1.694 1.451-2.214 2.371 2.571 0.952 5.201 1.851 7.733 2.838 0.503-0.205 1.007-0.411 1.418-0.708 0.19-3.633 0.027-7.605 0.082-11.363m1.266 0c0.049 3.548-0.108 7.312 0.076 10.729 2.473-1.131 4.994-2.211 7.333-3.469-1.202-1.269-2.436-2.505-3.701-3.712-1.201-1.165-2.448-2.713-3.708-3.548m15.544 13.41c1.196-3.375 2.483-6.665 3.632-10.096-3.183 1.402-6.257 2.898-9.391 4.341 0.434 0.741 1.83 2.07 2.755 2.998 1.07 1.063 2.02 2.105 3 2.757m17.2-6.072c-3.668-1.31-7.245-2.696-10.975-3.945 1.812 4.11 3.771 8.061 5.611 12.152 0.672 0.276 2.176 0.154 3.312 0.154h10.255c-1.093-1.491-2.629-2.787-4.021-4.184-1.4-1.395-2.76-2.87-4.18-4.177m-6.79 8.207c-1.824-3.939-3.599-7.92-5.525-11.76-1.31 3.526-2.614 7.065-3.858 10.65 0.027 0.449 0.747 0.882 1.093 1.264h8.366c0-0.059 0.01-0.154-0.07-0.154m-38.98-5.764c-3.951-1.675-8.226-3.025-12.306-4.579 1.624 3.486 3.193 7.017 4.893 10.42 0.346 0.182 1.028 0.027 1.504 0.076 2.002-1.939 3.971-3.912 5.909-5.917m-18.454 5.842c1.131-3.36 2.625-6.789 3.545-10.103-2.636 1.258-5.277 2.511-7.972 3.712-1.099 0.987-2.148 2.151-3.231 3.231-1.071 1.074-2.311 2.062-3.079 3.236 3.55-0.049 7.316 0.106 10.737-0.076m9.546 0c-1.542-3.277-2.955-6.678-4.659-9.787-1.099 3.295-2.354 6.435-3.469 9.708-0.021-0.011-0.065 0.011-0.081 0 0.763 0.471 2.841-0.027 4.026 0.154 1.369-0.048 2.939 0.107 4.183-0.075m30.365-7.338c-2.765 1.286-5.52 2.57-8.274 3.861-0.254 0.046-0.2 0.798-0.081 0.95 2.364 0.82 4.654 1.705 7.019 2.527 2.366 0.133 5.281 0.133 7.652 0 0.054-0.294 0.195-0.5 0.238-0.792-2.15-2.214-4.33-4.395-6.553-6.546m27.463 0.233c-0.017-0.062-0.069-0.089-0.163-0.079 2.128 2.373 4.796 4.89 7.183 7.26 0.4-0.089 0.562 0.067 0.481 0.471 0.92 0.96 2.393 2.483 3.545 3.631 0.259 0.26 1.33 1.364 1.104 0.869-1.418-3.158-2.918-6.234-4.34-9.387-2.69-0.842-5.15-1.894-7.81-2.765m-47.415 1.739c-0.958 0.644-1.9 1.662-2.841 2.601-0.942 0.942-1.964 1.883-2.608 2.841 2.165-0.049 4.529 0.105 6.554-0.076 2.019-0.928 4.102-1.791 5.996-2.843-2.42-0.793-4.688-1.729-7.101-2.523m-28.169 0.788c-3.155 1.418-6.234 2.919-9.389 4.337-0.839 2.684-1.894 5.155-2.76 7.814-0.157 0.138-0.076 0.29 0.082 0.157 2.273-1.929 4.843-5.149 7.094-7.184-0.086-0.404 0.07-0.561 0.477-0.471 0.958-0.931 2.479-2.4 3.626-3.553 0.259-0.253 1.362-1.327 0.87-1.1m99.644 6.234c-4.777-1.734-9.75-3.712-14.508-5.209 1.846 3.824 3.609 7.742 5.439 11.598 2.213 2.321 4.632 4.632 6.861 6.868 0.747 0.741 1.391 1.634 2.289 2.127-0.05-5.104 0.11-10.413-0.08-15.384m-61.301-2.765c0.179 0.016 0.038-0.276 0.081-0.393-1.277-1.166-2.191-0.273-3.625 0.393-0.948 0.444-1.9 0.804-2.29 1.109 1.077 0.127 3.388 0.133 4.73 0 0.406-0.338 0.773-0.706 1.104-1.109m1.504 0c-0.065 0.154 0.693 0.82 1.022 1.109 0.481 0.082 1.7 0.225 2.051-0.078h-0.155c-0.982-0.338-1.896-0.736-2.918-1.031m-54.285 11.127c1.05-3.158 2.489-6.351 3.317-9.47-3.42 1.691-6.948 3.26-10.418 4.895-0.184 3.707-0.021 7.757-0.081 11.598 0.455-0.154 1.321-1.08 1.899-1.656 1.792-1.799 3.643-3.698 5.283-5.367m11.754-8.678c1.504 1.756 3.783 3.858 5.683 5.758 0.46 0.46 1.705 1.984 1.97 1.734 0.947-2.47 1.812-5.025 2.76-7.492h-10.413zm21.382 0.787c0.032-0.371-0.266-0.417-0.233-0.788h-9.395c-1.017 2.949-2.143 5.796-3.149 8.756 0.211 0.148 0.395 0.338 0.547 0.554 2.322-1.02 4.541-2.151 6.867-3.16 1.824-1.75 3.609-3.538 5.363-5.362m2.603-0.787c-0.298 0.328-0.969 0.708-0.947 1.104v0.16c0.357 0.465 1.163 0.471 1.655 0.787 1.478-0.66 2.966-1.296 4.341-2.051h-5.049zm14.52 0c-2.267 0.232-4.622-0.328-6.31 0-1.001 0.189-1.986 0.942-2.847 1.342-0.99 0.465-1.954 0.768-2.76 1.418 2.349 0.681 4.67 1.807 6.867 2.367 1.673-1.664 3.637-3.463 5.05-5.127m1.975 0c-1.932 1.862-3.821 3.753-5.683 5.68 0.076 0 0.092 0.062 0.157 0.078 1.764 0.625 3.486 1.307 5.287 1.894 0.228-0.17 0.59-0.197 0.785-0.392 0.135-2.238 0.135-5.025 0-7.26h-0.546zm2.051 6.551c1.623-0.693 3.198-1.432 4.729-2.211-1.146-1.402-2.841-2.938-4.259-4.34h-0.552c-0.184 2.051-0.027 4.445-0.076 6.629 0.061-0.019 0.158-0.005 0.158-0.078m2.446-6.551c0.937 1.19 2.425 2.517 3.626 3.707 1.585-0.73 3.312-1.312 4.653-2.289-1.266-0.244-2.505-1.207-3.944-1.418-1.36-0.2-2.708 0.143-4.337 0m11.601 0c-1.049 0.052-2.321-0.105-3.235 0.078 1.1 0.593 2.3 0.764 3.24-0.078m2.92 0c-0.52 0.046-1.202-0.095-1.58 0.078-0.179 0.758 0.417 1.28 0.628 1.895 1.478 0.517 2.9 1.093 4.415 1.58-0.73-0.983-2.34-2.444-3.46-3.553m1.89 0c1.278 1.529 3.106 3.204 4.645 4.733 2.1 0.692 4.107 1.48 6.158 2.21-0.969-2.392-2.153-4.581-3.154-6.943h-7.66zm22.09 0h-13.026c1.115 2.57 2.382 4.992 3.479 7.576 0.494 0.144 0.878 0.376 1.424 0.471 0.492-0.195 1.478-1.242 2.127-1.897 2.06-2.053 4.29-4.283 6-6.15m20.36 0.866c0.011-0.016-0.018-0.057 0-0.078-0.471 0.765-0.156 2.622-0.156 3.945v12.385c2.856 2.927 5.746 5.82 8.674 8.68 2.489-6.318 4.752-12.864 7.1-19.331-5.27-1.788-10.35-3.797-15.61-5.601m-104.86 0.16v13.018c2.57-1.11 5-2.368 7.576-3.469 0.141-0.487 0.379-0.882 0.471-1.426-1.04-1.434-2.565-2.725-3.945-4.099-1.385-1.392-2.722-2.904-4.102-4.024m85.521 0c-1.754 1.501-3.849 3.78-5.76 5.679-0.459 0.46-1.979 1.708-1.73 1.973 2.479 0.95 5.027 1.807 7.49 2.76v-10.412zm-86.787 0.154c-1.488 1.087-2.787 2.633-4.177 4.029-1.402 1.396-2.874 2.754-4.184 4.178-1.299 3.669-2.69 7.249-3.945 10.967 4.113-1.805 8.063-3.767 12.155-5.602 0.362-4.272 0.053-9.153 0.151-13.572m88.057 0c0.043 3.553-0.113 7.316 0.07 10.734 3.382 1.199 6.673 2.484 10.103 3.632-1.201-2.717-2.516-5.325-3.706-8.053-1.045-1.109-2.121-2.189-3.236-3.23-1.03-1.011-2.11-2.401-3.22-3.083m-63.834 1.03c0.064-0.021 0.097-0.064 0.081-0.16-0.357 0.216-2.479 2.178-2.289 2.365 0.027 0.025 0.114-0.032 0.082-0.075 0.601-0.195 1.028-0.549 1.656-0.709 0.129-0.506 0.362-0.904 0.47-1.421m31.484 6.308c0.801-1.718 1.64-4.103 2.295-6.229-1.028-0.243-1.997 0.514-2.922 0.947-1.007 0.465-2.203 0.971-3.004 1.417h-0.069c0.869 1.321 2.463 2.612 3.693 3.865m7.49 1.656c-0.86-1.905-1.802-3.945-2.685-5.834-0.266-0.582-0.482-1.448-1.261-1.58-0.785 2.283-1.646 4.51-2.447 6.789 0.109 0.344 0.4 0.492 0.633 0.709 1.792 0.184 3.919 0.026 5.84 0.078-0.01-0.062 0.01-0.157-0.07-0.162m-28.562-3.94c-0.017-0.059-0.065-0.094-0.152-0.083-1.245-0.552-2.636-0.937-3.945-1.417-1.288-0.471-2.566-1.302-3.945-1.102 0.763 2.126 2.023 4.438 2.998 6.627 1.061 0.411 1.461-0.438 1.97-0.948 1.018-1.015 2.355-2.246 3.074-3.077m32.912-0.476c-2.018-0.671-3.944-1.417-5.92-2.126 0.968 2.254 2.03 4.438 3.073 6.627 2.263 0.184 4.871 0.026 7.264 0.078-1.16-1.592-2.99-3.115-4.41-4.579m-39.455 4.416c-0.926-1.989-1.748-4.089-2.841-5.913-0.79 0.576-1.055 1.762-1.418 2.76-0.395 1.064-0.768 2.3-1.104 3.237 1.629 0.184 3.599 0.026 5.363 0.078 0.076 0 0.103-0.14 0-0.162m-46.075-5.363c-6.24 2.809-12.355 5.747-18.546 8.599 2.284 5.112 4.697 10.087 7.024 15.153 0.785-0.39 2.057-1.902 2.917-2.765 2.96-2.955 5.985-5.869 8.681-8.68-0.049-4.073 0.102-8.362-0.076-12.307m68.643 0.555c-1.295 0.454-3.204 1.407-4.578 2.048-0.51 0.238-1.159 0.374-1.419 0.872 0.64 0.587 1.587 0.708 2.44 1.025 0.845 0.312 1.813 0.758 2.609 0.948 1.628 0.126 3.811 0.126 5.433 0 0.012-0.049 0.021-0.095 0.087-0.084-0.033-0.133 0.119-0.198 0-0.233-1.493-1.556-3.024-3.086-4.577-4.576m-29.354 4.892c0.595-1.619 1.245-3.174 1.737-4.893-1.353 0.571-2.63 1.207-3.945 1.81-0.98 1.02-2.349 2.073-2.999 3.161 1.705-0.051 3.632 0.106 5.207-0.078m14.909-3.474c-0.016-0.062-0.064-0.089-0.151-0.079-1.224 1.153-2.403 2.333-3.556 3.553 1.267 0.126 3.08 0.126 4.341 0 1.331-0.593 2.754-1.091 3.869-1.895-1.553-0.478-2.955-1.103-4.503-1.579m34.402 0.159c0.682 0.925 2.235 2.333 3.312 3.393 0.525-0.052 1.261 0.105 1.663-0.078 0.15-0.022 0.146-0.217 0.312-0.238-0.103-0.555-0.416-0.898-0.552-1.418-1.62-0.506-3.09-1.164-4.73-1.659m-55.15 1.973c-1.023 0.344-1.862 0.876-2.842 1.258-0.335 0.316 1.083 0.094 1.504 0.162 0.423-0.395 1.3-1.158 1.338-1.42m27.849 0.471c-1.066-0.741-2.122 0.528-3.155 0.788-0.065-0.033-0.152 0.162-0.157 0.162 0.709 0.298 2.484-0.216 3.393 0-0.049-0.296 0.103-0.788-0.081-0.95m42.691 13.018c0.341 0.032 0.411-0.222 0.714-0.233 0.179-2.977 0.017-6.289 0.071-9.392-2.95-1.021-5.792-2.146-8.762-3.152-0.125 0.254-0.412 0.371-0.541 0.631 1.07 2.237 2.132 4.489 3.155 6.783 1.74 1.823 3.54 3.612 5.36 5.363m-41.268-12.539c-0.179 0.005-0.033 0.33-0.076 0.471 0.314-0.011 1.587 0.07 0.941-0.162-0.286-0.107-0.567-0.223-0.865-0.309m52.548 0.47c0.78 1.994 1.787 3.777 2.593 5.758 0.124 0.22 0.498 0.187 0.639 0.398-0.092 0.17-0.2 0.322-0.168 0.625 1.451 2.922 2.804 5.936 4.189 8.918 0.255 0.398 0.156-1.421 0.156-1.973v-6.392c-1.189-1.307-2.51-2.476-3.707-3.785-1.24-1.073-2.66-2.802-3.7-3.549m-85.765 0.869c-0.021-0.16-0.217-0.154-0.238-0.316-0.552 0.1-0.898 0.417-1.417 0.549-0.504 1.629-1.164 3.098-1.656 4.738 0.926-0.682 2.333-2.243 3.393-3.312-0.056-0.534 0.102-1.264-0.082-1.659m65.095 0.157c-0.314-0.338-0.086 1.079-0.151 1.501 0.396 0.419 1.152 1.301 1.412 1.339-0.35-1.025-0.88-1.861-1.26-2.84m-87.268 0.471c0.065-0.02 0.098-0.062 0.082-0.157-1.98 1.729-4.097 4.008-6.078 5.996v7.814c0 0.831-0.194 1.979 0 2.598 0.044 0.116 0.119 0.019 0.163-0.076 0.682-2.002 1.434-3.929 2.126-5.918 0.184-0.222-0.222-0.368-0.157-0.712 0.238-0.027 0.4-0.127 0.552-0.238 1.034-3.168 2.262-6.15 3.312-9.307m25.328-0.157c-0.163 0.101-0.292 0.227-0.396 0.395 0.996 1.02 2.354 2.438 3.475 3.55 0.303 0.305 1.207 1.293 1.261 0.949 0.579-1.607 1.196-3.171 1.737-4.816 0.038 0.043 0.119-0.144 0.081-0.154-0.714-0.247-1.997 0-3.079 0-1.131 0-2.241-0.063-3.079 0.076m7.495 0c-0.644 2.089-1.705 4.186-2.132 6.234 0.801 0.1 1.602-0.56 2.452-0.947 0.882-0.409 1.905-0.803 2.603-1.185 1.299-1.231 2.555-2.489 3.783-3.785-0.011-0.116 0.032-0.292-0.076-0.317-2.03-0.133-4.606-0.133-6.63 0m11.522 0.078c0.06 0.022 0.222-0.168 0.232-0.154-0.541-0.295-3.631 0.005-3.387 0.63 0.064 0.3 0.232 0.498 0.314 0.787 1.054-0.31 1.899-0.835 2.841-1.263m3.317-0.078c-1.889 0.798-3.647 1.718-5.525 2.527 3.864 8.54 7.831 16.99 11.83 25.403 0.184-4.21 0.027-9.438 0.081-13.886-0.054-4.679 0.108-9.571-0.081-14.12-2.073 0.049-4.362-0.105-6.305 0.076m7.728-0.076c-0.141 7.373-0.076 16.176-0.076 23.982 0 0.898-0.103 3.869 0.157 3.16 3.057-8.518 6.196-16.941 9.232-25.487-1.472-0.527-2.896-1.104-4.421-1.58-1.467-0.18-3.286-0.026-4.887-0.075m9.868 0.154c0.32-0.282-1.655-0.2-0.871 0 0.249 0.089 0.465 0.216 0.784 0.238 0.02-0.1 0.1-0.111 0.09-0.238m1.41-0.078c-0.044 0.322-0.267 0.465-0.232 0.871 1.006 0.249 1.812 0.709 2.836 0.942 0.021 0.068 0.069 0.095 0.161 0.084-0.65-0.539-1.25-2.224-2.77-1.897m2.85 0c0.959 1.031 1.96 2.035 2.993 2.998 1.315 0.555 2.701 1.042 4.103 1.502-0.611-1.572-1.364-2.999-2.052-4.5-1.49-0.133-3.54-0.133-5.04 0m14.52 0c-2.533-0.181-5.396-0.027-8.053-0.076 0.017 0.059 0 0.154 0.076 0.154 0.746 1.756 1.579 3.425 2.364 5.13 0.352 0 0.703 0.4 0.953 0.233 1.716-1.646 3.404-3.329 5.049-5.047-0.1-0.167-0.23-0.294-0.39-0.394m-67.391 6.783c0.698-2.088 1.483-4.094 2.213-6.15-2.397 0.968-4.579 2.154-6.943 3.152v7.652c1.526-1.28 3.204-3.109 4.73-4.654m6.943-5.049c-0.178 2.527-0.027 5.393-0.076 8.047 0.06-0.016 0.157 0 0.157-0.079 1.753-0.741 3.425-1.572 5.13-2.365 0-0.344 0.406-0.698 0.233-0.947-1.646-1.713-3.329-3.398-5.049-5.049-0.167 0.101-0.292 0.228-0.395 0.393m61.778-0.393c-1.023 0.994-2.392 2.316-3.475 3.391-0.38 0.379-1.31 1.22-1.022 1.342 1.596 0.582 3.177 1.19 4.811 1.734-0.044 0.043 0.151 0.122 0.156 0.084 0.244-0.717 0-1.997 0-3.077 0-1.126 0.066-2.243-0.069-3.082-0.11-0.164-0.24-0.291-0.41-0.392m-45.126 0.317c-0.195-0.127-0.969 0.641-0.714 0.709v-0.079c0.352-0.073 0.963-0.216 0.714-0.63m58.616 0c0.011-0.024-0.016-0.062 0-0.079-0.471 0.76 0.021 2.838-0.151 4.024 0.043 1.369-0.113 2.941 0.07 4.178 3.269-1.534 6.684-2.949 9.784-4.654-3.28-1.098-6.42-2.357-9.7-3.469m-27.06 2.528c-1.942-0.744-3.875-1.491-5.915-2.135-3.068 8.845-6.391 17.434-9.465 26.274-0.044 0.192 0.655-0.506 1.099-0.95 6.212-6.21 12.652-12.761 18.697-18.698-1.35-1.612-2.91-3.014-4.41-4.491m-49.544-1.026c-1.591 1.153-3.117 2.993-4.578 4.417-0.671 2.01-1.413 3.945-2.127 5.917 2.246-0.979 4.443-2.026 6.625-3.079 0.183-2.263 0.025-4.868 0.08-7.255m64.864 0c0.043 1.705-0.114 3.623 0.069 5.204 1.619 0.598 3.173 1.245 4.898 1.734-0.567-1.353-1.218-2.627-1.818-3.939-1.02-0.983-2.08-2.352-3.15-2.999m-34.802 24.616c-0.108-0.609-0.866-2.135-1.342-3.161-3.328-7.151-6.808-14.49-10.022-21.455-1.537 0.614-2.993 1.318-4.422 2.048-1.147 1.137-2.37 2.2-3.387 3.469 6.434 6.319 12.733 12.775 19.173 19.099m-41.817-23.276c-3.939 1.818-7.917 3.601-11.76 5.52 3.529 1.312 7.062 2.616 10.656 3.869 0.444-0.029 0.877-0.755 1.255-1.109v-8.28c0.001-0.082-0.135-0.1-0.151 0m64.529 0.865c0.055-0.067-0.15-0.083-0.15-0.079 0.064 0.793 1.894 1.629 2.294 2.368h0.07c1.52-1.282-1.04-1.991-2.21-2.289m29.59 13.332c1.678-3.957 3.021-8.229 4.573-12.307-3.479 1.624-7.009 3.19-10.412 4.893-0.184 0.344-0.027 1.025-0.07 1.496 1.94 2.005 3.91 3.978 5.91 5.918m-71.795-11.754c-0.4 0.073-0.719 0.227-0.947 0.474 0.162 0.021 0.157 0.214 0.319 0.238 0.217-0.152 0.795-0.698 0.628-0.712m52.945 2.29c-2.095-0.647-4.184-1.713-6.24-2.132-0.104 0.792 0.552 1.601 0.942 2.449 0.41 0.882 0.806 1.905 1.195 2.605 1.223 1.291 2.484 2.554 3.777 3.783 0.119-0.016 0.298 0.03 0.325-0.076 0.14-2.03 0.14-4.606 0.01-6.629m29.5 8.363c-1.639-3.516-3.181-7.127-4.962-10.496-1.51 4.261-3.112 8.412-4.588 12.707 2.375 2.4 4.837 4.903 7.181 7.26 0.801 0.787 1.553 1.629 2.451 2.205-0.05-3.87 0.11-7.942-0.08-11.676m-122.6-10.258c-3.664 3.596-7.295 7.225-10.894 10.889 2.23 4.638 4.265 9.47 6.629 13.965 1.369-4.024 2.912-7.875 4.265-11.914 0.13-4.129 0.13-8.811 0-12.94m124.03 0c-0.129 3.179-0.129 6.916 0 10.095 0.666 1.559 1.348 3.05 2.052 4.579 0.703 1.507 1.374 3.058 2.208 4.34 1.256-3.609 2.619-7.11 3.869-10.729-0.416-0.819-1.224-1.385-1.889-2.051-2.09-2.088-4.15-4.251-6.24-6.234m-85.45 1.263v-0.078c-1.282-1.523-1.991 1.047-2.289 2.206-0.07-0.054-0.086 0.162-0.081 0.162 0.795-0.062 1.629-1.897 2.37-2.29m47.57 0.632c-0.069-0.404-0.232-0.72-0.471-0.948-0.021 0.16-0.211 0.154-0.237 0.316 0.16 0.218 0.7 0.799 0.71 0.632m16.42 2.05c0.016 0.062 0.059 0.094 0.15 0.078-0.703-0.549-1.574-2.224-2.365-2.446 0.027 0.008-0.01 0.195 0.081 0.157 0.142 0.677 0.559 1.074 0.71 1.74 0.51 0.128 0.9 0.355 1.43 0.471m-68.649 1.973c0.558-1.312 1.044-2.692 1.504-4.1-1.575 0.609-2.999 1.367-4.503 2.048-0.13 1.497-0.13 3.547 0 5.049 1.034-0.962 2.035-1.966 2.999-2.997m25.094 16.016c0 0.133 0.216 0.043 0.232 0.16 0.114-0.233-0.2-0.438-0.314-0.555-6.234-6.61-13.167-12.771-19.33-19.328-1.608 1.358-3.015 2.925-4.492 4.416-0.747 1.946-1.493 3.88-2.137 5.921 8.766 3.04 17.29 6.326 26.041 9.386m28.875-16.333c-1.137-1.153-2.192-2.37-3.475-3.39-6.305 6.434-12.767 12.733-19.088 19.168-0.091-0.016-0.049 0.132 0.082 0.084 4.021-1.665 8.079-3.813 12.225-5.764 4.161-1.951 8.355-3.78 12.312-5.68-0.62-1.536-1.32-2.992-2.05-4.418m-65.09-3.074c-0.98 0.73-2.441 2.343-3.55 3.469 0.043 0.509-0.098 1.196 0.076 1.578 1.84 0.116 2.132-1.25 2.685-2.757 0.312-0.872 0.647-1.765 0.789-2.29m71.8 5.285c1.992-0.931 4.086-1.75 5.92-2.842-0.578-0.792-1.77-1.052-2.765-1.417-1.066-0.395-2.301-0.766-3.237-1.109-0.184 1.656-0.026 3.658-0.069 5.447 0.06-0.017 0.15-0.006 0.16-0.079m-78.901-0.238c-3.377-1.202-6.667-2.481-10.099-3.628 1.401 3.174 2.901 6.25 4.34 9.387 0.741-0.431 2.072-1.835 2.998-2.76 1.062-1.065 2.106-2.033 2.761-2.999m13.725-2.998c-1.889 0.86-3.967 1.812-5.834 2.684-0.596 0.276-1.461 0.498-1.58 1.264 2.321 0.779 4.519 1.683 6.867 2.443 0.244-0.178 0.455-0.39 0.628-0.633 0.184-1.761 0.027-3.861 0.081-5.758 0-0.082-0.141-0.098-0.162 0m-20.435 9.865c-1.466-3.32-2.977-6.595-4.573-9.788-0.969 2.822-2.051 5.521-2.999 8.364-0.184 2.814-0.021 5.972-0.081 8.916 0.558-0.162 1.353-1.193 1.975-1.812 1.916-1.918 3.973-3.856 5.678-5.68m94.681-9.392c-0.715 0.165-0.574 1.169-0.953 1.656 0.655 1.475 1.299 2.965 2.052 4.337v-5.047c-0.33-0.299-0.71-0.97-1.1-0.946m-5.13 9.308c0.06-0.016 0.086-0.065 0.082-0.154 0.551-1.242 0.93-2.633 1.417-3.945 0.476-1.286 1.305-2.56 1.104-3.946-2.134 0.764-4.443 2.027-6.631 2.999-0.405 1.063 0.439 1.461 0.954 1.972 1.01 1.012 2.25 2.355 3.08 3.074m7.5-6.943c0.043 2.157-0.113 4.527 0.07 6.551 0.925 2.021 1.796 4.099 2.847 5.996 0.784-2.417 1.731-4.684 2.521-7.1-0.645-0.958-1.661-1.9-2.604-2.842-0.94-0.944-1.89-1.961-2.84-2.605m-88.918 0.714c-2.219 2.146-4.399 4.329-6.554 6.545 1.288 2.765 2.571 5.525 3.864 8.286 0.043 0.255 0.801 0.197 0.947 0.075 0.822-2.358 1.715-4.653 2.527-7.018 0.136-2.368 0.136-5.287 0-7.655-0.318-0.016-0.443-0.238-0.784-0.233m74.318 1.183c0.098-0.312-0.487-0.623-0.72-0.872 0.055 0.144 0.055 0.333 0.163 0.398 0.098 0.227 0.103 0.533 0.395 0.549 0.1 0.001 0.1-0.059 0.17-0.075m13.33 11.205c-0.228-2.267 0.329-4.616 0-6.312-0.195-0.993-0.942-1.989-1.343-2.844-0.471-0.996-0.753-1.967-1.418-2.76-0.676 2.352-1.802 4.668-2.364 6.868 1.66 1.671 3.46 3.633 5.12 5.048m-73.848-8.762c0.325 0.049 0.466 0.276 0.872 0.238 0.216-0.999 0.953-2.3 0.942-2.998-0.596 0.875-2.133 1.229-1.814 2.76m-11.673-2.838c0.054 1.053-0.108 2.311 0.076 3.236 0.596-1.109 0.768-2.3-0.076-3.236m114.01 0.316c-0.071 0.016-0.098 0.065-0.076 0.154-1.444 3.801-2.846 7.625-4.188 11.521 2.354 4.85 4.524 9.899 6.938 14.671 4-3.87 7.848-7.876 11.847-11.751-4.73-4.979-9.66-9.755-14.52-14.599m-105.49 2.836c-1.721-0.803-4.102-1.629-6.229-2.281-0.244 1.018 0.514 1.994 0.947 2.914 0.465 1.004 0.969 2.206 1.418 2.999v0.078c1.321-0.888 2.609-2.49 3.864-3.71m64.783-1.81c-0.304 0.064-0.509 0.232-0.79 0.313 0.309 1.055 0.833 1.902 1.261 2.838-0.027 0.062 0.168 0.222 0.156 0.238 0.28-0.542-0.01-3.638-0.63-3.389m0.55 6.467c-0.807-1.886-1.731-3.642-2.533-5.52-8.54 3.867-16.998 7.831-25.402 11.829 8.875 0.136 18.99 0.136 28.005 0-0.05-2.072 0.11-4.358-0.07-6.309m-105.02-4.811c-3.961 3.951-8.004 7.832-11.835 11.915 4.886 4.765 9.633 9.673 14.52 14.437 0.059-0.019 0.092-0.066 0.076-0.151 1.055-2.772 2.105-5.65 3.16-8.527 0.271-0.736 1.05-2.21 1.023-2.92-0.011-0.312-0.493-1.169-0.785-1.812-1.932-4.172-4.368-9.281-6.159-12.939m34.873 4.971c-0.73-1.586-1.315-3.32-2.289-4.654-0.238 1.269-1.207 2.508-1.418 3.945-0.2 1.363 0.141 2.703 0 4.34 1.191-0.945 2.517-2.427 3.707-3.631m71.554-4.654c-0.129 1.263-0.129 3.073 0 4.337 0.591 1.331 1.095 2.754 1.896 3.869 0.48-1.553 1.104-2.955 1.58-4.5 0.064-0.017 0.092-0.068 0.075-0.16-1.15-1.213-2.34-2.399-3.56-3.546m-65.319 0.316c-1.559 1.488-3.084 3.014-4.579 4.575 0.46 1.286 1.413 3.199 2.051 4.573 0.238 0.514 0.379 1.159 0.872 1.423 0.584-0.641 0.708-1.591 1.022-2.449 0.314-0.841 0.758-1.807 0.947-2.605 0.129-1.629 0.129-3.812 0-5.441-0.102 0.011-0.291-0.266-0.313-0.076m1.813 0.631c-0.282-0.328-0.2 1.65 0 0.863 0.086-0.254 0.216-0.465 0.238-0.785-0.104-0.005-0.114-0.1-0.238-0.078m93.106 0.232c-0.266-0.327-0.156 1.74-0.156 2.368v7.574c0.048 0.184 0.253 0.217 0.312 0.4-0.06 0.182-0.265 0.208-0.312 0.393v4.971c0 0.48-0.066 1.47 0.074 1.344 1.288-3.105 2.393-6.398 3.545-9.629-1.17-2.455-2.31-4.95-3.46-7.421m-66.123 9.55c-8.518-3.055-16.938-6.208-25.484-9.232-0.525 1.48-1.109 2.892-1.581 4.421-0.178 1.469-0.027 3.285-0.076 4.886 7.376 0.148 16.176 0.085 23.985 0.085 0.899-0.001 3.87 0.094 3.156-0.16m54.523-9.074c-0.952 2.606-1.895 5.204-2.853 7.81 0.276 0.424 0.412 0.968 0.72 1.338 3.627 0.19 7.599 0.03 11.365 0.085-0.547-0.863-1.358-1.597-2.137-2.37-1.587-1.586-3.189-3.11-4.731-4.657-0.79-0.788-1.46-1.694-2.37-2.206m-102.96 1.814c-1.272 1.207-2.506 2.443-3.712 3.707-1.164 1.207-2.711 2.443-3.55 3.712 3.55-0.055 7.311 0.105 10.731-0.085-1.131-2.469-2.213-4.991-3.469-7.334m-9.546 1.339c-1.293 3.104-2.392 6.397-3.556 9.627 1.174 2.455 2.316 4.952 3.474 7.419 0.157 0.213 0.114 0.185 0.157 0 0.325-1.373 0-3.268 0-4.97v-4.971c-0.049-0.216-0.33-0.2-0.319-0.476 0.146-0.068 0.249-0.173 0.319-0.317v-4.971c0-0.481 0.06-1.468-0.075-1.341m104.77 5.449c-1.856-1.929-3.751-3.826-5.678-5.682 0 0.079-0.069 0.095-0.082 0.157-0.621 1.767-1.298 3.485-1.894 5.288 0.168 0.222 0.195 0.592 0.401 0.784 2.225 0.136 5.021 0.136 7.252 0v-0.547zm1.34-5.287c-0.125 1.08-0.125 3.391 0 4.732 0.33 0.398 0.703 0.771 1.108 1.101-0.016 0.174 0.277 0.042 0.391 0.085 1.175-1.28 0.275-2.195-0.391-3.628-0.44-0.95-0.8-1.898-1.11-2.29m-82.52 1.026c-1.402 1.153-2.938 2.847-4.34 4.262v0.546c2.024 0.184 4.395 0.03 6.548 0.085 0.082-0.006 0.098-0.138 0-0.16-0.698-1.619-1.424-3.21-2.208-4.733m71.01 1.656c0.038-0.068-0.168-0.154-0.151-0.154-0.303 0.703 0.205 2.481 0 3.391 0.287-0.048 0.784 0.099 0.941-0.085 0.73-1.053-0.52-2.132-0.79-3.152m-76.693 2.051c0.13-0.294 0.157-2.527-0.076-1.896-0.335 0.982-0.736 1.896-1.028 2.922 0.152 0.058 0.817-0.699 1.104-1.026m11.208 1.1c0.725 0.724 0.503-1.633 0.309-0.862-0.098 0.286-0.217 0.565-0.309 0.862m105.8 13.578c-2.224-4.639-4.252-9.472-6.623-13.966-1.369 4.024-2.912 7.872-4.26 11.915-0.129 4.129-0.129 8.81 0 12.939 3.67-3.6 7.29-7.23 10.88-10.89m-132.63-12.235c0.292 0.599 1.466 1.707 2.213 2.449 1.634 1.634 3.133 3.13 4.648 4.656 0.785 0.778 1.516 1.586 2.371 2.128 0.958-2.57 1.851-5.193 2.841-7.73-0.206-0.504-0.412-1.009-0.709-1.418-3.63-0.184-7.597-0.03-11.364-0.085m14.52 0.085c-0.011-0.18-0.335-0.037-0.476-0.085-1.017 1.303-0.141 2.384 0.476 3.713 0.396 0.849 0.758 1.617 1.104 2.208 0.13-1.082 0.136-3.394 0-4.736-0.33-0.396-0.703-0.769-1.104-1.1m2.446 0v0.546c1.553 1.67 3.469 3.477 5.049 5.052 0.167 0.174 0.378 0.703 0.709 0.477 0.627-1.77 1.31-3.481 1.894-5.288-0.173-0.223-0.2-0.594-0.395-0.786-2.234-0.134-5.022-0.134-7.257-0.001m9.39 0c-0.747 1.062 0.53 2.121 0.785 3.152-0.033 0.066 0.162 0.153 0.162 0.158 0.298-0.702-0.216-2.485 0-3.396-0.298 0.056-0.79-0.098-0.947 0.086m2.207 0c0.049 2.077-0.103 4.357 0.076 6.311 0.801 1.885 1.727 3.639 2.528 5.521 8.523-3.836 16.884-7.837 25.327-11.756 0.216-0.154 0.189-0.112 0-0.16-1.006-0.239-2.505 0-3.707 0h-11.127c-4.34 0.056-8.891-0.098-13.097 0.086m51.994-0.085h-15.144c-0.4 0-2.203-0.042-1.656 0.085 8.394 3.195 16.955 6.236 25.483 9.31 0.525-1.472 1.099-2.899 1.581-4.424 0.178-1.469 0.017-3.284 0.069-4.886-3.28-0.184-6.91-0.03-10.33-0.085m11.67 0c-0.166 0.15-0.113 1.634 0.082 0.946 0.099-0.321 0.271-0.57 0.319-0.946h-0.4zm4.9 6.002c-0.46-1.29-1.412-3.203-2.062-4.578-0.233-0.51-0.367-1.158-0.861-1.424-0.589 0.645-0.708 1.592-1.021 2.449-0.314 0.841-0.764 1.813-0.954 2.606-0.129 1.627-0.129 3.81 0 5.443 0.05 0 0.094 0.01 0.082 0.076 0.136-0.032 0.205 0.118 0.232 0 1.56-1.494 3.09-3.02 4.58-4.573m5.36-5.917c-2.052-0.184-4.443-0.03-6.619-0.085 0.017 0.061 0 0.16 0.081 0.16 0.682 1.623 1.418 3.203 2.202 4.731 1.402-1.152 2.939-2.845 4.336-4.261v-0.545zm2.45 0.075c-0.155-0.059-0.822 0.697-1.108 1.024-0.081 0.481-0.233 1.703 0.081 2.053v-0.155c0.34-0.981 0.74-1.897 1.03-2.922m2.29-0.075c-0.104-0.101-0.888-0.212-0.871 0.075-0.862 2.295-1.7 4.61-2.522 6.945-0.125 2.366-0.125 5.288 0 7.652 0.292 0.048 0.498 0.189 0.801 0.238 2.202-2.147 4.395-4.336 6.538-6.554-1.33-2.779-2.57-5.638-3.95-8.356m1.5 0c1.125 2.469 2.208 4.99 3.463 7.334 2.478-2.416 4.931-4.859 7.338-7.334-3.42-0.133-7.39-0.133-10.8 0m-46.238 1.025c-0.193-0.04 0.504 0.657 0.949 1.1 6.212 6.21 12.76 12.65 18.691 18.7 1.618-1.362 3.025-2.928 4.508-4.416 0.736-1.941 1.482-3.885 2.132-5.919-8.84-3.065-17.44-6.381-26.278-9.455m-63.436 0.075c0.06 3.871-0.103 7.939 0.081 11.674 1.646 3.519 3.177 7.132 4.968 10.499 1.504-4.265 3.117-8.41 4.579-12.701-2.371-2.398-4.828-4.909-7.182-7.261-0.79-0.784-1.547-1.632-2.446-2.209m121.34 0c-0.763 0.36-1.276 1.121-1.894 1.735-1.933 1.929-3.935 3.817-5.759 5.761 1.479 3.312 2.977 6.597 4.574 9.785 0.962-2.825 2.061-5.515 2.996-8.361 0.19-2.821 0.03-5.969 0.08-8.919m-63.979 0.556c-0.612 0.105-2.132 0.865-3.161 1.341-7.154 3.326-14.492 6.806-21.458 10.016 0.617 1.536 1.32 2.996 2.051 4.42 1.061 1.175 2.257 2.214 3.312 3.393 6.533-6.27 12.854-12.754 19.256-19.164m1.58 0.393c0.076 0 0.092-0.14 0-0.16-6.575 6.643-13.172 13.238-19.807 19.805 1.364 1.611 2.922 3.019 4.416 4.501 1.943 0.736 3.88 1.484 5.921 2.127 3.068-8.85 6.386-17.43 9.47-26.271m2.441 0.393c-0.13 8.882-0.13 18.983 0 28.007 2.078-0.049 4.367 0.106 6.314-0.077 1.879-0.801 3.644-1.721 5.516-2.521-3.857-8.55-7.828-16.99-11.828-25.408m-43.473 0.079c0.233 2.269-0.325 4.625 0 6.313 0.189 0.994 0.942 1.985 1.342 2.841 0.465 0.988 0.768 1.963 1.418 2.76 0.676-2.355 1.807-4.661 2.365-6.869-1.661-1.677-3.463-3.638-5.125-5.05m45.129 0.081c0.103 0.603 0.865 2.129 1.343 3.158 3.328 7.154 6.812 14.486 10.021 21.457 1.536-0.623 2.992-1.314 4.416-2.051 1.18-1.062 2.214-2.263 3.388-3.318-6.28-6.53-12.764-12.854-19.172-19.248m40.392-0.081c-1.191 0.94-2.512 2.427-3.703 3.628 0.72 1.617 1.359 3.322 2.279 4.729 0.216-1.314 1.212-2.564 1.424-4.02 0.21-1.366-0.14-2.694 0-4.339m-75.265 3.942c-0.59-1.329-1.083-2.746-1.894-3.86-0.476 1.547-1.099 2.952-1.58 4.495 0.01 0.536 1.098 1.33 1.656 1.898 0.682 0.676 1.245 1.347 1.818 1.808 0.129-1.262 0.129-3.07 0-4.337m-11.598 2.608c-0.92-2.024-1.786-4.107-2.841-5.998-0.796 2.417-1.732 4.689-2.522 7.102 0.396 0.704 1.706 1.943 2.604 2.838 0.985 0.99 1.927 2.001 2.835 2.608-0.049-2.16 0.108-4.53-0.076-6.559m43.392 21.379c0.146-7.371 0.081-16.177 0.081-23.986 0-0.898 0.103-3.866-0.157-3.152-3.058 8.511-6.202 16.937-9.228 25.482 1.467 0.529 2.89 1.104 4.417 1.579 1.472 0.19 3.285 0.03 4.887 0.08m-61.299-17.51c-0.666-1.558-1.342-3.046-2.051-4.578-0.687-1.482-1.358-3.009-2.213-4.335-1.245 3.621-2.614 7.105-3.864 10.727 0.201 0.514 1.261 1.499 1.895 2.127 2.094 2.1 4.281 4.236 6.234 6.158 0.129-3.19 0.129-6.92-0.001-10.1m100.12-5.68c-1.325 0.881-2.603 2.482-3.863 3.706 1.721 0.801 4.102 1.63 6.234 2.289 0.243-1.033-0.515-1.996-0.947-2.922-0.472-1.001-0.974-2.202-1.424-2.999v-0.081zm-74.636 1.417c-0.06 0.017-0.097 0.064-0.087 0.158-0.552 1.239-0.936 2.635-1.417 3.938-0.471 1.288-1.304 2.566-1.099 3.951 2.344-0.867 4.405-2.014 6.625-2.999 0.184-0.161 0.027-0.654 0.081-0.952-1.338-1.39-2.707-2.756-4.103-4.093m67.536 1.178c0.292 0.332 0.206-1.649 0-0.859-0.092 0.249-0.211 0.465-0.238 0.778 0.1 0.013 0.11 0.104 0.24 0.081m-62.016-0.232c0.027-0.059-0.168-0.221-0.157-0.236-0.287 0.54 0.005 3.642 0.633 3.387 0.298-0.064 0.498-0.227 0.785-0.313-0.315-1.05-0.823-1.9-1.261-2.837m83.086 0.077c-1.012 0.691-2.003 1.77-2.999 2.76-1.001 0.995-2.062 1.992-2.76 2.997 3.377 1.203 6.673 2.491 10.093 3.632-1.4-3.18-2.89-6.25-4.33-9.39m-9.32 4.42c-0.055-1.05 0.107-2.305-0.071-3.237-0.61 1.12-0.77 2.3 0.07 3.24m-11.67-2.84c-0.325-0.049-0.471-0.269-0.871-0.236-0.223 1.069-0.921 2.076-0.953 3.073v-0.077c0.6-0.87 2.14-1.22 1.82-2.75m-81.032 0.4c-1.667 3.955-3.025 8.229-4.573 12.307 3.48-1.62 7.003-3.199 10.412-4.894 0.184-0.34 0.027-1.023 0.076-1.499-1.937-2.01-3.913-3.98-5.915-5.92m8.285 6.3h0.157c0.465-0.346 0.471-1.162 0.79-1.656-0.66-1.476-1.299-2.964-2.051-4.333v5.043c0.325 0.31 0.709 0.98 1.104 0.95m74.247 0.48c1.91-0.866 3.945-1.796 5.839-2.684 0.585-0.271 1.446-0.478 1.575-1.262-2.284-0.791-4.507-1.64-6.781-2.44-0.347 0.097-0.497 0.4-0.715 0.629-0.184 1.789-0.026 3.916-0.069 5.833 0.06-0.02 0.15-0.01 0.16-0.08m40.95-4.97c-1.062 0.742-1.976 1.743-2.923 2.686-2.922 2.916-5.817 5.872-8.674 8.756 0.048 4.074-0.109 8.361 0.074 12.312 6.24-2.815 12.355-5.749 18.547-8.601-2.29-5.12-4.7-10.1-7.03-15.16m-102.41 0.71c-0.086-0.229-0.098-0.536-0.4-0.546-0.076 0-0.087 0.053-0.152 0.074-0.103 0.31 0.482 0.617 0.709 0.866-0.049-0.14-0.038-0.32-0.157-0.39m89.544 10.18v-7.815c0-0.833 0.195-1.979 0-2.596-0.037-0.119-0.124-0.017-0.156 0.074-0.688 1.97-1.386 3.93-2.133 5.834-0.179 0.326 0.195 0.4 0.168 0.797-0.25 0.07-0.562 0.081-0.562 0.395-1.114 3.031-2.246 6.062-3.312 9.151-0.232 0.514 1.201-0.964 1.424-1.185 1.56-1.55 3.31-3.36 4.57-4.64m-29.58-10.26c-1.039 0.973-2.035 1.97-3.004 2.997-0.557 1.316-1.044 2.695-1.499 4.112 1.569-0.616 2.992-1.373 4.503-2.056 0.13-1.5 0.13-3.55 0-5.05m-61.858 0.32c-0.12 0.017-0.292-0.028-0.32 0.075-0.13 2.03-0.13 4.606 0 6.63 2.084 0.653 4.2 1.693 6.235 2.132 0.103-0.791-0.558-1.602-0.947-2.447-0.4-0.888-0.801-1.904-1.185-2.608-1.223-1.29-2.49-2.56-3.783-3.78m-1.818 0.78c-1.992 0.93-4.091 1.753-5.916 2.845 0.58 0.791 1.77 1.052 2.76 1.42 1.066 0.388 2.305 0.762 3.236 1.104 0.184-1.624 0.027-3.605 0.081-5.368 0.001-0.07-0.14-0.08-0.161 0.01m75.346 1.82c-0.033-0.51 0.097-1.197-0.071-1.581-0.769-0.172-1.288 0.423-1.894 0.635-0.52 1.488-1.099 2.906-1.58 4.414 0.98-0.73 2.43-2.35 3.54-3.47m-103.27-1.03c-0.157-0.21-0.114-0.184-0.163 0-0.265 1.127 0 2.74 0 4.184v4.184c2.381 2.393 5.179 5.343 7.414 7.339-0.784-1.996-1.786-3.777-2.597-5.759-0.119-0.221-0.498-0.188-0.633-0.395 0.092-0.178 0.2-0.33 0.157-0.633-1.445-2.92-2.792-5.93-4.178-8.92m-10.104 0.24c-2.495 6.314-4.746 12.862-7.095 19.331 5.282 1.785 10.342 3.798 15.618 5.595-0.01 0.022 0.011 0.059 0 0.081 0.471-0.762 0.157-2.624 0.157-3.945v-12.387c-2.862-2.93-5.752-5.83-8.68-8.69m115.9 0.24c-0.45 0.026-0.883 0.752-1.256 1.104v8.366c0.054-0.021 0.151-0.005 0.151-0.075 3.939-1.83 7.917-3.609 11.755-5.53-3.53-1.31-7.06-2.61-10.65-3.86m-8.29 6.31c0.667-2.014 1.424-3.947 2.134-5.921-2.257 0.985-4.443 2.028-6.631 3.084-0.184 2.263-0.026 4.865-0.069 7.258 0.596-0.298 1.624-1.396 2.365-2.132 0.79-0.8 1.52-1.58 2.2-2.29m5.76-3.87c-1.532 1.282-3.199 3.112-4.73 4.653-0.693 2.089-1.478 4.097-2.208 6.153 2.397-0.969 4.573-2.153 6.938-3.154v-7.65zm-83.313 0.16c-0.021-0.059-0.065-0.091-0.157-0.081 0.217 0.357 2.181 2.479 2.365 2.295 0.021-0.022-0.027-0.119-0.076-0.077-0.2-0.594-0.53-1.06-0.709-1.66-0.508-0.13-0.903-0.36-1.423-0.47m66.273 0.56c0.071-0.022 0.099-0.07 0.077-0.161-0.894 0.648-1.586 1.504-2.359 2.282 1.18 1.69 2.02-0.95 2.28-2.12m-67.696 0c-0.368-0.032-0.417 0.259-0.785 0.227v9.395c2.95 1.02 5.807 2.134 8.756 3.157 0.151-0.217 0.335-0.4 0.552-0.549-1.017-2.325-2.143-4.533-3.161-6.873-1.747-1.83-3.538-3.62-5.362-5.37m9.471 2.36c-1.613-0.597-3.171-1.246-4.893-1.733 0.574 1.353 1.212 2.631 1.813 3.945 1.018 0.98 2.078 2.344 3.161 2.999-0.055-1.71 0.103-3.63-0.081-5.21m-11.598-1.42c-3.274 1.541-6.678 2.954-9.779 4.653 3.291 1.104 6.429 2.359 9.703 3.474-0.011 0.022 0.011 0.061 0 0.077 0.471-0.759-0.021-2.837 0.151-4.026-0.048-1.36 0.109-2.93-0.075-4.17m75.113 0.08c-1.753 0.74-3.415 1.575-5.13 2.364-0.017 0.325-0.239 0.444-0.239 0.79 0.358 0.746 1.608 1.76 2.452 2.603 0.915 0.916 1.742 1.862 2.604 2.604 0.168-0.099 0.297-0.229 0.4-0.391 0.178-2.501 0.017-5.346 0.069-7.971 0-0.07-0.14-0.09-0.15 0.01m-54.44 1.1c-0.151-0.216-0.698-0.794-0.714-0.627 0.076 0.4 0.228 0.721 0.477 0.946 0.026-0.16 0.215-0.16 0.237-0.32m75.83 10.89c1.305-3.668 2.689-7.245 3.934-10.968-4.102 1.806-8.062 3.765-12.144 5.605-0.368 4.271-0.055 9.151-0.151 13.567 0.584-0.195 1.478-1.32 2.121-1.969 2.11-2.13 4.33-4.22 6.24-6.24m-83.406-10.1c0.011-0.021-0.011-0.059 0-0.081-0.325 0.52-0.086 2.085-0.157 2.999 0.049 1.027-0.103 2.263 0.076 3.16 0.103 0.162 0.228 0.292 0.396 0.391 1.022-0.991 2.44-2.355 3.555-3.47 0.303-0.308 1.288-1.207 0.947-1.26-1.608-0.58-3.167-1.2-4.817-1.74m8.523 0.16h-0.081c-1.521 1.277 1.05 1.991 2.208 2.282 0.021 0.067 0.064 0.094 0.162 0.083-0.654-0.89-1.51-1.59-2.289-2.36m44.973 0c-0.217 0.151-0.801 0.697-0.633 0.709 0.395-0.07 0.713-0.229 0.941-0.471-0.15-0.02-0.15-0.22-0.31-0.24m-0.63 7.65c0.648-2.083 1.688-4.188 2.127-6.234-0.801-0.097-1.602 0.564-2.452 0.948-0.876 0.404-1.904 0.805-2.597 1.186-1.295 1.233-2.561 2.489-3.789 3.787 0.012 0.119-0.027 0.293 0.076 0.313 2.03 0.12 4.6 0.12 6.63-0.01m-46.394-5.44c-0.963 0.562-1.743 1.579-2.603 2.446-0.876 0.876-1.823 1.709-2.608 2.603 0.103 0.168 0.233 0.297 0.396 0.395 1.136 0.142 2.527 0.077 3.945 0.077 1.375 0 2.993 0.28 4.021 0 0.081-0.017 0.108-0.12 0-0.152-0.742-1.759-1.57-3.432-2.365-5.13-0.32-0.04-0.445-0.25-0.786-0.25m54.284 5.05c-0.99-1.023-2.312-2.392-3.394-3.474-0.379-0.374-1.212-1.316-1.341-1.023-0.574 1.602-1.191 3.171-1.738 4.816-0.017-0.01-0.054 0.011-0.07 0 0.514 0.319 2.078 0.081 2.993 0.152 1.022-0.049 2.262 0.106 3.16-0.077 0.16-0.11 0.29-0.24 0.39-0.4m-47.579-2.6c-1.314-0.552-2.695-1.039-4.102-1.494 0.611 1.563 1.369 2.986 2.051 4.491 1.494 0.131 3.545 0.131 5.049 0-0.963-1.04-1.97-2.04-2.998-3m53.649-1.5c-0.926 0.671-2.337 2.234-3.388 3.312 0.043 0.525-0.114 1.256 0.069 1.656 0.028 0.161 0.218 0.151 0.245 0.312 0.552-0.103 0.892-0.422 1.417-0.552 0.5-1.63 1.17-3.09 1.66-4.73m-96.494 0.47c0.06 5.11-0.103 10.418 0.081 15.387 4.79 1.73 9.752 3.712 14.52 5.207-1.862-3.822-3.62-7.741-5.444-11.593-2.213-2.328-4.632-4.639-6.868-6.867-0.746-0.76-1.39-1.65-2.289-2.14m121.34 0c-0.683 0.368-1.239 1.007-1.812 1.581-1.812 1.809-3.621 3.664-5.369 5.444-1.108 3.154-2.3 6.224-3.393 9.389 3.609-1.505 6.977-3.235 10.492-4.817 0.19-3.7 0.03-7.75 0.08-11.59m-104.77 3.79c-3.355-1.137-6.781-2.631-10.104-3.551 1.267 2.635 2.505 5.281 3.712 7.971 0.99 1.104 2.154 2.153 3.23 3.231 1.083 1.075 2.068 2.312 3.236 3.079-0.047-3.55 0.11-7.32-0.074-10.73m10.261-2.29c0.352 1.007 0.872 1.856 1.256 2.837 0.313 0.336 0.092-1.084 0.162-1.494-0.395-0.44-1.159-1.32-1.418-1.35m48.282 0.87c0.206 0.184 0.995-0.817 0.709-0.633-0.35 0.06-0.96 0.21-0.71 0.63m28.32 12.3v-13.021c-2.565 1.114-4.995 2.37-7.577 3.474-0.136 0.487-0.378 0.878-0.472 1.424 0.195 0.493 1.251 1.479 1.901 2.127 2.07 2.06 4.28 4.31 6.15 6m-57.352-12.46c-0.017-0.065-0.065-0.094-0.163-0.081 0.649 0.535 1.255 2.218 2.765 1.893 0.043-0.323 0.271-0.465 0.233-0.865-1.007-0.25-1.807-0.71-2.835-0.94m28.092 1.26c-0.075-0.304-0.238-0.498-0.325-0.789-1.044 0.313-1.894 0.833-2.836 1.266-0.026-0.022-0.162 0.087-0.162 0.075 0.09 0.22 3.46 0.28 3.32-0.56m-23.206 0.48c-0.249-0.093-0.466-0.216-0.785-0.238-0.005 0.097-0.103 0.109-0.081 0.238-0.324 0.28 1.651 0.19 0.866 0m-25.479 3.07c-2.549-0.898-5.065-1.83-7.576-2.761v10.412c1.9-1.64 3.907-3.826 5.758-5.676 0.655-0.65 1.434-1.18 1.818-1.97m3.626-1.58c-0.157 0.021-0.151 0.217-0.314 0.237 0.098 0.563 0.417 0.899 0.547 1.423 1.629 0.498 3.101 1.159 4.741 1.656-0.682-0.93-2.246-2.337-3.312-3.393-0.536 0.04-1.267-0.11-1.662 0.07m3.632-0.07c0.292 0.606 1.396 1.634 2.127 2.365 0.801 0.801 1.575 1.525 2.29 2.209 2.013 0.669 3.945 1.417 5.92 2.131-0.979-2.257-2.029-4.438-3.079-6.629-2.263-0.18-4.872-0.03-7.258-0.07m14.514 0.07c-1.586 0.166-4.216-0.482-5.758-0.076-0.076 0.022-0.103 0.119 0 0.161 0.872 1.901 1.808 3.945 2.684 5.83 0.276 0.595 0.482 1.45 1.261 1.579 0.796-2.283 1.64-4.507 2.446-6.78-0.102-0.34-0.4-0.49-0.633-0.71m2.289 0c0 0.049-0.011 0.098-0.076 0.085 0.032 0.132-0.12 0.196 0 0.229 1.488 1.563 3.014 3.09 4.573 4.578 1.288-0.448 3.199-1.407 4.573-2.05 0.514-0.239 1.158-0.368 1.423-0.868-0.633-0.588-1.591-0.714-2.446-1.027-0.839-0.309-1.807-0.758-2.603-0.946-1.634-0.13-3.809-0.13-5.444 0m10.413 0.4c0.72-0.735-1.634-0.509-0.866-0.315 0.292 0.1 0.568 0.21 0.866 0.31m4.577-0.31c0.065 0.033 0.151-0.161 0.163-0.161-0.709-0.291-2.489 0.216-3.394 0 0.049 0.293-0.108 0.784 0.076 0.946 1.066 0.73 2.122-0.53 3.155-0.79m3.319-0.09c-1.332 0.595-2.754 1.093-3.87 1.894 1.549 0.48 2.944 1.104 4.497 1.581 0.536-0.013 1.332-1.088 1.895-1.656 0.688-0.682 1.353-1.233 1.812-1.818-1.26-0.12-3.075-0.12-4.335 0.01m7.255 0c-0.157-0.174-0.654-0.028-0.941-0.076-1.412 1.336-2.771 2.701-4.107 4.106 0.021 0.061 0.064 0.087 0.157 0.077 1.238 0.552 2.636 0.937 3.95 1.417 1.282 0.472 2.56 1.299 3.935 1.104-0.76-2.13-2.03-4.44-3-6.63m1.5 0.09c0.925 1.988 1.748 4.087 2.846 5.911 0.791-0.568 1.056-1.76 1.419-2.761 0.395-1.065 0.763-2.299 1.104-3.235-1.651-0.184-3.659-0.028-5.438-0.076 0.01 0.06-0.01 0.15 0.07 0.16m6.79-0.09c-0.606 1.618-1.25 3.177-1.743 4.892 1.353-0.562 2.625-1.207 3.945-1.813 0.979-1.018 2.338-2.066 2.999-3.154-1.72 0.04-3.64-0.11-5.21 0.07m7.17-0.07c-0.427 0.4-1.304 1.152-1.342 1.417 1.018-0.352 1.867-0.871 2.847-1.256 0.33-0.32-1.09-0.1-1.51-0.16m-9.55 9.54c-0.017 1.033 1.05 0.785 2.052 0.785h7.581c1.014-2.944 2.144-5.792 3.155-8.756-0.216-0.146-0.399-0.336-0.552-0.553-2.316 1.018-4.534 2.154-6.868 3.161-1.81 1.76-3.61 3.55-5.37 5.37m-32.026-7.73c-0.806 1.721-1.634 4.101-2.284 6.234 1.018 0.236 1.992-0.51 2.912-0.942 0.985-0.465 2.208-0.984 2.998-1.428h0.087c-0.893-1.32-2.495-2.61-3.713-3.86m-21.939 0.47c-1.434 1.033-2.722 2.569-4.097 3.938-1.391 1.397-2.906 2.729-4.027 4.104h13.021c-1.109-2.564-2.371-4.989-3.469-7.577-0.486-0.13-0.881-0.36-1.428-0.46m40.399 2.29c-1.765-0.623-3.48-1.301-5.282-1.896-0.222 0.172-0.595 0.2-0.79 0.395-0.13 2.236-0.13 5.027 0 7.258h0.552c1.666-1.543 3.474-3.464 5.049-5.044 0.167-0.17 0.704-0.38 0.471-0.71m34.956 5.76c-1.498-1.754-3.782-3.853-5.683-5.757-0.455-0.455-1.699-1.982-1.969-1.733-0.942 2.469-1.814 5.027-2.761 7.49h10.41zm-66.036-4.73c-2.095-0.693-4.102-1.481-6.158-2.208 0.968 2.398 2.154 4.574 3.155 6.938h7.658c-1.289-1.53-3.118-3.21-4.655-4.73m23.509-1.82c-1.613 0.693-3.215 1.413-4.735 2.204 1.153 1.407 2.852 2.944 4.265 4.34h0.546c0.189-2.024 0.027-4.385 0.081-6.544 0-0.08-0.135-0.1-0.157 0m51.997 0.32c0.054-0.02 0.091-0.068 0.074-0.161-2.376 2.121-4.886 4.794-7.251 7.182v0.47h-0.481c-0.666 0.639-1.494 1.407-2.44 2.365-0.574 0.568-2.24 1.996-2.134 2.364 0-0.021 0.007-0.053 0-0.075 3.231-1.368 6.284-2.922 9.472-4.339 0.84-2.68 1.89-5.14 2.76-7.8m-42.928 1.11c-1.666 1.656-3.631 3.464-5.043 5.12 2.267-0.227 4.622 0.329 6.311 0 0.989-0.185 1.986-0.942 2.841-1.343 0.996-0.466 1.954-0.769 2.76-1.418-2.34-0.69-4.67-1.81-6.868-2.36m13.648 0.78c-0.579 0.204-1.039 0.53-1.651 0.714-0.13 0.504-0.362 0.897-0.47 1.424-0.065 0.016-0.098 0.064-0.087 0.155 0.362-0.216 2.479-2.18 2.289-2.37-0.03-0.02-0.11 0.03-0.08 0.08m-65.957 5.13c-0.741-0.867-1.623-1.587-2.365-2.452-0.428-0.356-0.817-0.752-1.185-1.179-0.254-0.142-0.374-0.413-0.627-0.553-0.076-0.163-0.661-0.726-0.477-0.396 1.369 3.231 2.928 6.285 4.34 9.466 2.69 0.846 5.152 1.895 7.815 2.767 0.141 0.161 0.287 0.081 0.157-0.081-1.932-2.273-5.152-4.839-7.181-7.102-0.407 0.08-0.564-0.07-0.477-0.48m37.162-4.5c-1.618 0.725-3.317 1.363-4.73 2.283 1.326 0.206 2.571 1.211 4.021 1.418 1.37 0.206 2.701-0.14 4.34 0-0.941-1.19-2.424-2.51-3.631-3.7m-14.357 0.16c0.731 0.98 2.343 2.44 3.469 3.545 0.508-0.043 1.196 0.097 1.58-0.075 0.119-1.847-1.25-2.127-2.76-2.686-0.871-0.3-1.758-0.63-2.289-0.77m81.742 0.94c-3.777 1.64-7.387 3.451-11.127 5.136-1.797 5.141-3.707 10.173-5.521 15.304 3.182 0.184 6.7 0.028 10.018 0.076 2.24-0.048 4.682 0.107 6.786-0.076v-19.417c-0.06-0.28 0.13-1.23-0.16-1.02m-41.82 1.5v-0.151c-0.352-0.465-1.158-0.472-1.656-0.791-1.466 0.661-2.965 1.294-4.339 2.047h5.054c0.3-0.33 0.98-0.71 0.95-1.11m-33.531 1.11c1.05-0.049 2.316 0.108 3.236-0.075-1.109-0.61-2.3-0.77-3.236 0.07m-45.762 1.11c-0.184 5.439-0.021 11.225-0.081 16.799 6.84-0.055 13.887 0.107 20.597-0.076-1.726-3.756-3.496-7.445-5.206-11.207-5.157-1.79-10.174-3.71-15.31-5.51m19.012 0.15c0.206 0.51 1.267 1.504 1.895 2.127 2.132 2.138 4.345 4.297 6.315 6.234 3.664 1.311 7.246 2.695 10.964 3.945-1.808-4.113-3.767-8.062-5.602-12.155-4.275-0.36-9.156-0.04-13.572-0.15m14.996 0.15c1.824 3.941 3.604 7.923 5.52 11.767 1.315-3.528 2.614-7.069 3.87-10.65-0.033-0.455-0.758-0.888-1.104-1.268h-8.286c-0.082 0-0.103 0.14 0 0.15m11.197-0.07c-0.011 0.26-0.173 0.353-0.152 0.634-0.064 0.016-0.097 0.07-0.081 0.157 2.153 2.219 4.335 4.404 6.548 6.548 2.766-1.288 5.531-2.57 8.286-3.864 0.254-0.043 0.206-0.795 0.076-0.946-2.36-0.817-4.654-1.705-7.019-2.528-2.371-0.13-5.282-0.13-7.658 0m13.573 0c-0.292-0.129-2.527-0.151-1.889 0.075 0.979 0.342 1.889 0.742 2.917 1.033 0.059-0.15-0.698-0.81-1.028-1.1m3.63 0c-0.4 0.34-0.768 0.704-1.104 1.108-0.179 0.006-0.033 0.332-0.076 0.472 1.293 1.017 2.376 0.147 3.708-0.472 0.849-0.395 1.623-0.752 2.202-1.108-1.076-0.13-3.387-0.13-4.73 0m7.967 0c-2.024 0.931-4.103 1.792-5.991 2.848 2.425 0.784 4.682 1.73 7.1 2.521 0.699-0.396 1.943-1.705 2.842-2.604 0.984-0.988 2.003-1.931 2.604-2.841-2.15 0.05-4.52-0.12-6.548 0.07m8.518-0.08c-2.002 1.939-3.973 3.912-5.909 5.921 3.95 1.672 8.23 3.021 12.307 4.578-1.619-3.484-3.188-7.02-4.887-10.423-0.35-0.19-1.03-0.03-1.51-0.08m3 0.08c1.537 3.28 2.949 6.678 4.664 9.785 1.083-3.292 2.344-6.43 3.464-9.71 0.044 0.055 0.119-0.136 0.081-0.151-0.995-0.336-2.727 0-4.107 0-1.51-0.01-2.93-0.07-4.09 0.07m9.56 0c-1.137 3.361-2.642 6.787-3.555 10.104 2.641-1.262 5.281-2.511 7.971-3.708 1.109-0.995 2.148-2.153 3.235-3.235 1.066-1.072 2.307-2.062 3.074-3.237-3.54 0.07-7.3-0.1-10.71 0.09m11.59 16.49c1.731-4.784 3.701-9.763 5.194-14.519-3.82 1.855-7.728 3.619-11.592 5.449-1.559 1.488-3.079 3.009-4.578 4.567-1.467 1.509-3.296 3.029-4.416 4.578 5.11-0.05 10.42 0.11 15.4-0.08m-58.623-14.28c-1.196 3.373-2.484 6.673-3.631 10.094 3.176-1.396 6.25-2.896 9.389-4.335-0.692-1.011-1.764-2.002-2.759-2.999-0.991-0.99-1.987-2.07-2.999-2.76m26.041 4.18c-2.57-0.957-5.205-1.856-7.739-2.845-0.503 0.204-1.006 0.41-1.417 0.713-0.184 3.626-0.027 7.598-0.076 11.358 0.59-0.287 1.7-1.466 2.44-2.202 1.636-1.646 3.14-3.138 4.654-4.658 0.785-0.78 1.603-1.51 2.138-2.37m-10.579-1.5c-2.473 1.137-4.995 2.215-7.338 3.475 1.153 1.268 2.468 2.463 3.712 3.712 1.234 1.229 2.376 2.621 3.707 3.545-0.055-3.55 0.108-7.32-0.081-10.74m-33.374 4.5c-3.139-1.12-6.219-2.302-9.384-3.399 1.499 3.605 3.231 6.982 4.811 10.499 3.707 0.184 7.755 0.028 11.598 0.076-0.363-0.684-1.001-1.245-1.581-1.813-1.808-1.82-3.664-3.62-5.444-5.37m45.375-2.44c-1.64 1.569-3.241 3.173-4.815 4.811-0.861 0.742-1.586 1.624-2.441 2.366-0.645 0.861-1.835 1.591-2.214 2.446 3.87-0.048 7.945 0.107 11.685-0.076 3.512-1.645 7.121-3.181 10.488-4.973-4.25-1.52-8.41-3.11-12.7-4.58m-20.595 1.97c-3.323 1.472-6.597 2.982-9.79 4.58 2.819 0.969 5.531 2.044 8.367 2.997 2.814 0.184 5.969 0.028 8.913 0.076-0.357-0.769-1.12-1.277-1.732-1.895-1.932-1.94-3.821-3.95-5.758-5.77m41.745 0.23c-1.997 0.791-3.794 1.786-5.77 2.603-0.221 0.126-0.184 0.493-0.389 0.635-0.174-0.099-0.319-0.206-0.64-0.163-2.905 1.451-5.931 2.792-8.901 4.189-0.222 0.151-0.195 0.107 0 0.151 1.12 0.266 2.728 0 4.172 0h4.189c2.39-2.38 5.34-5.18 7.34-7.42m-63.371 1.42c-0.016-0.059-0.06-0.085-0.157-0.075 1.732 1.979 4.01 4.091 5.997 6.072h7.814c0.833 0 1.98 0.194 2.608 0 0.114-0.032 0.011-0.119-0.086-0.151-1.992-0.693-3.929-1.439-5.915-2.138-0.222-0.18-0.362 0.221-0.714 0.162-0.065-0.249-0.076-0.558-0.39-0.558-3.036-1.1-6.061-2.24-9.157-3.3m-7.019 7.34c2.809 6.24 5.747 12.352 8.6 18.541 5.108-2.273 10.087-4.691 15.152-7.019-0.741-1.06-1.737-1.976-2.684-2.922-2.917-2.916-5.877-5.824-8.762-8.675-4.074 0.05-8.36-0.1-12.306 0.08m14.201 0c3.599 3.66 7.225 7.296 10.889 10.889 3.474-1.601 7.062-3.289 10.499-4.891 1.158-0.542 2.381-0.975 3.393-1.733-3.961-1.411-7.831-2.912-11.841-4.265-4.13-0.13-8.811-0.13-12.94 0m23.357-0.07c-1.705 0.361-4.849-0.488-6.392 0-0.119 0.032-0.016 0.112 0.082 0.151 3.214 1.152 6.375 2.359 9.622 3.474 2.451-1.175 4.946-2.315 7.419-3.474 0.211-0.151 0.185-0.109 0-0.151-1.369-0.33-3.273 0-4.973 0h-4.968c-0.216 0.042-0.2 0.329-0.476 0.312-0.077-0.14-0.18-0.24-0.315-0.31m14.042 0.07c-1.563 0.672-3.048 1.343-4.584 2.047-1.478 0.693-3.015 1.362-4.33 2.218 3.622 1.246 7.101 2.621 10.728 3.864 0.508-0.204 1.498-1.256 2.132-1.893 2.089-2.095 4.226-4.276 6.147-6.236-3.17-0.13-6.91-0.13-10.09 0m11.99-0.07c-2.922 2.856-5.811 5.746-8.675 8.675 6.321 2.495 12.869 4.758 19.332 7.099 1.79-5.275 3.798-10.351 5.606-15.622 0.016 0.01 0.06-0.011 0.075 0-0.763-0.472-2.619-0.151-3.945-0.151h-12.403zm-11.12 9.3c-0.016-0.065-0.07-0.098-0.168-0.075-2.765-1.05-5.633-2.111-8.522-3.16-0.731-0.271-2.203-1.056-2.912-1.029-0.313 0.012-1.169 0.497-1.812 0.797-4.173 1.921-9.282 4.355-12.94 6.152 3.875 3.982 7.885 7.836 11.754 11.83 4.982-4.73 9.756-9.66 14.602-14.52"/>
	<path d="m52.998 65.733c1.461-1.423 2.987-3.258 4.578-4.416h-0.081c-1.542 1.427-2.95 2.993-4.497 4.416"/>
	<path d="m122.43 61.317c1.082 0.652 2.137 2.016 3.154 2.999-1.077-0.953-2.008-2.046-3.08-2.999h-0.07z"/>
	<path d="m44.717 72.046c0.503-0.254 0.807-0.714 1.18-1.101h0.082c-0.39 0.354-0.818 1.075-1.262 1.101"/>
	<path d="m45.821 62.657c0.016-0.098 0.151-0.076 0.151 0v8.285h-0.076c-0.047-2.738 0.104-5.679-0.075-8.285"/>
	<path d="m110.35 63.525c0.434 0.73 1.511 1.491 2.138 2.289-0.395-0.738-2.229-1.575-2.288-2.368 0-0.004 0.21 0.012 0.15 0.079"/>
	<path d="m67.517 65.814c0.157-0.284 0.471-0.428 0.627-0.708 0.168 0.011-0.41 0.557-0.627 0.708"/>
	<path d="m116.99 70.312c1.288 1.229 2.55 2.493 3.777 3.783-1.29-1.223-2.55-2.487-3.78-3.783"/>
	<path d="m64.281 68.891c0.73-0.428 1.488-1.507 2.289-2.13-0.736 0.396-1.575 2.23-2.365 2.29-0.005 0 0.011-0.217 0.076-0.16"/>
	<path d="m113.43 66.761c0.287 0.16 0.428 0.471 0.71 0.631-0.01 0.165-0.55-0.417-0.71-0.631"/>
	<path d="m58.918 74.333c1.044-0.925 1.948-1.989 2.998-2.919-0.969 1.037-1.97 2.035-2.998 2.998v-0.079z"/>
	<path d="m47.239 71.494c1.109-1.126 2.57-2.738 3.55-3.469-1.228 1.107-2.321 2.354-3.55 3.469"/>
	<path d="m37.931 78.833c2.013-1.824 3.94-3.742 5.758-5.758-0.655 0.958-1.7 1.935-2.76 2.999-0.926 0.919-2.257 2.32-2.998 2.759"/>
	<path d="m29.407 87.432c2.571-2.449 5.006-5.043 7.577-7.498-1.715 1.829-3.767 3.769-5.683 5.679-0.627 0.628-1.417 1.659-1.969 1.818h0.075z"/>
	<path d="m122.5 74.809c0.055 0.26-0.069 0.546 0 0.863 0.168 0.682 1.468 1.634 1.982 2.135 0.762 0.763 1.493 1.385 2.05 2.048-0.843-0.72-2.066-2.06-3.078-3.074-0.51-0.511-1.35-0.908-0.95-1.972"/>
	<path d="m38.559 80.172c2.149-2.216 4.335-4.399 6.548-6.548-2.149 2.216-4.33 4.399-6.548 6.548"/>
	<path d="m42.423 88.458c0.189 0.148 0.639 0.048 0.953 0.079-0.158 0.121-0.91 0.175-0.953-0.079"/>
	<path d="m51.894 81.276c1.413-1.106 2.521-2.53 3.869-3.707-1.261 1.221-2.549 2.822-3.869 3.707"/>
	<path d="m47.239 86.011c1.282-1.164 2.424-2.465 3.707-3.628-1.185 1.201-2.516 2.686-3.707 3.628"/>
	<path d="m30.273 88.617c0.839-1.269 2.386-2.506 3.55-3.708 1.207-1.269 2.44-2.505 3.712-3.709-2.371 2.489-4.887 4.843-7.263 7.338v0.079z"/>
	<path d="m44.793 88.458c0.417-0.295 0.688-0.731 1.104-1.026-0.287 0.327-0.947 1.084-1.104 1.026"/>
	<path d="m45.821 85.538c0.228-0.63 0.2 1.602 0.076 1.894-0.048-0.604 0.103-1.418-0.076-1.894"/>
	<path d="m122.59 85.381c0.157 0.433-0.47 2.628-0.082 3.077 0.207 0.239 0.564-0.011 0.872 0.075-0.162 0.184-0.659 0.037-0.941 0.085 0.211-0.909-0.303-2.688 0-3.391-0.02 0 0.19 0.086 0.15 0.154"/>
	<path d="m57.414 87.667c0.194-0.769 0.411 1.585-0.314 0.871h0.395c-0.055-0.265 0.102-0.736-0.081-0.871"/>
	<path d="m30.273 89.956c3.058 3.071 6.045 6.214 9.232 9.158-0.855-0.548-1.585-1.355-2.371-2.14-1.515-1.521-3.014-3.011-4.648-4.65-0.747-0.744-1.921-1.851-2.213-2.443v0.075z"/>
	<path d="m44.793 89.956c0.401 0.333 0.769 0.704 1.104 1.104-0.4-0.331-0.769-0.704-1.104-1.104"/>
	<path d="m56.629 89.956c0.157-0.18 0.654-0.026 0.947-0.075-0.222 0.9 0.292 2.687 0 3.389 0-0.005-0.2-0.094-0.162-0.158 0.189-0.867 0.026-2.072 0.086-3.077-0.141-0.178-0.606-0.027-0.871-0.079"/>
	<path d="m122.59 90.825c-0.188 0.688-0.248-0.805-0.082-0.948 0.05 0.293-0.1 0.787 0.08 0.948"/>
	<path d="m29.326 91.06c0.898 0.577 1.656 1.426 2.446 2.211 2.349 2.352 4.811 4.862 7.182 7.261-3.231-3.111-6.316-6.361-9.547-9.472h-0.081z"/>
	<path d="m47.239 92.481c1.662 1.411 3.463 3.373 5.125 5.045-1.754-1.633-3.371-3.411-5.125-5.045"/>
	<path d="m40.534 100.14c1.678 1.922 3.556 3.648 5.363 5.446h0.076c-0.909-0.601-1.845-1.614-2.835-2.608-0.899-0.91-2.214-2.14-2.604-2.84"/>
	<path d="m124.24 100.93c1.261-1.224 2.543-2.825 3.863-3.713-1.4 1.106-2.51 2.53-3.86 3.713"/>
	<path d="m53.474 98.631c1.401 1.343 2.766 2.707 4.097 4.103-0.049 0.298 0.108 0.791-0.076 0.952 0.141-1.488-1.169-2.11-1.976-2.915-0.838-0.841-1.548-1.598-2.045-2.129"/>
	<path d="m40.058 101.64c2.008 1.943 3.983 3.913 5.921 5.914h-0.082c-1.899-2.01-3.934-3.9-5.839-5.91"/>
	<path d="m47.239 107c0.428 0.259 0.612 0.759 1.104 0.952-0.395 0.02-0.774-0.65-1.104-0.95"/>
	<path d="m118.09 107.08c0.969-1.033 1.965-2.034 3.004-2.999v0.077c-1.05 0.92-1.96 1.99-3 2.92"/>
	<path d="m59.232 104.4c1.298 1.228 2.554 2.493 3.783 3.781-1.288-1.22-2.555-2.49-3.783-3.78"/>
	<path d="m29.326 114.34h0.081c2.414 2.479 4.86 4.924 7.333 7.339-2.235-2-5.032-4.95-7.414-7.34"/>
	<path d="m122.5 117.18c1.549-1.434 2.961-2.993 4.504-4.421-0.682 0.714-1.418 1.492-2.208 2.293-0.741 0.732-1.77 1.83-2.365 2.128h0.08z"/>
	<path d="m51.58 111.18c0.043-0.038 0.097 0.053 0.076 0.075-0.189 0.19-2.148-1.927-2.365-2.289 0.092-0.01 0.136 0.022 0.157 0.087 0.427 0.61 1.504 1.69 2.132 2.12"/>
	<path d="m113.43 111.73c0.774-0.785 1.468-1.641 2.366-2.289 0.017 0.097-0.011 0.139-0.07 0.161-0.74 0.43-1.5 1.5-2.3 2.13"/>
	<path d="m48.029 109.61c1.818 1.753 3.604 3.539 5.363 5.356-1.824-1.76-3.609-3.55-5.363-5.36"/>
	<path d="m54.415 114.18c1.077 0.952 2.008 2.04 3.08 2.999h0.076c-1.083-0.66-2.133-2.02-3.156-3"/>
	<path d="m65.861 111.1c0.01-0.163 0.557 0.417 0.708 0.634-0.286-0.16-0.427-0.46-0.708-0.63"/>
	<path d="m67.517 112.68c0.779 0.768 1.635 1.466 2.289 2.365-0.098 0.011-0.141-0.016-0.162-0.076-0.428-0.72-1.504-1.48-2.127-2.28"/>
	<path d="m111.86 113.39c-0.168-0.012 0.416-0.558 0.627-0.709-0.17 0.28-0.47 0.43-0.63 0.71"/>
	<path d="m105.15 120.02c1.229-1.298 2.494-2.56 3.794-3.787-1.23 1.29-2.5 2.55-3.79 3.79"/>
	<path d="m72.171 117.34c1.034 0.963 2.03 1.97 2.999 2.997h-0.076c-0.931-1.06-1.997-1.96-2.923-3"/>
	<path d="m122.43 119.15c1.056-1.082 2.467-2.635 3.393-3.318-1.136 1.067-2.246 2.182-3.318 3.318h-0.07z"/>
	<path d="m29.326 116.31c0.898 0.498 1.542 1.386 2.289 2.134 2.235 2.229 4.655 4.539 6.868 6.867-3.074-2.961-6.007-6.047-9.076-9.001h-0.081z"/>
	<path d="m39.506 124.52c2.181 2.057 4.21 4.248 6.391 6.311h0.076c-1.168-0.768-2.154-2.004-3.23-3.073-1.089-1.1-2.247-2.14-3.237-3.24"/>
	<path d="m57.414 120.65c0.184-0.342 0.026-1.023 0.081-1.501h0.081c-0.065 0.41 0.151 1.84-0.162 1.5"/>
	<path d="m56.152 117.81c0.26 0.032 1.028 0.91 1.418 1.343h-0.076c-0.416-0.48-0.86-0.93-1.342-1.34"/>
	<path d="m63.409 125.07c-1.066-1.136-2.175-2.246-3.312-3.316v-0.076c1.077 1.06 2.631 2.47 3.312 3.4"/>
	<path d="m62.073 121.75c1.429 1.547 2.993 2.959 4.417 4.498-0.709-0.684-1.494-1.408-2.29-2.209-0.73-0.735-1.829-1.765-2.127-2.365v0.07z"/>
	<path d="m88.423 121.83c-0.769-0.196 1.585-0.406 0.871 0.319v-0.396c-0.265 0.05-0.731-0.1-0.871 0.08"/>
	<path d="m90.712 122.62c-0.184-0.162-0.027-0.653-0.081-0.946 0.909 0.216 2.689-0.291 3.394 0-0.007 0-0.093 0.194-0.158 0.161-0.865-0.193-2.078-0.032-3.079-0.085-0.179 0.15-0.028 0.62-0.076 0.88"/>
	<path d="m99.393 125.78c1.331-1.401 2.699-2.772 4.102-4.103 0.286 0.055 0.785-0.104 0.947 0.076h-0.871c-1.52 1.21-2.74 2.73-4.187 4.02"/>
	<path d="m114.94 124.83c0.952-1.071 2.04-2.002 2.986-3.073v-0.081c-0.65 1.08-2.01 2.13-2.99 3.15"/>
	<path d="m118.56 123.1c0.038-0.265 0.915-1.028 1.342-1.423v0.076c-0.47 0.41-0.92 0.85-1.34 1.34"/>
	<path d="m119.9 121.68c0.429 0.064 1.841-0.158 1.511 0.161-0.356-0.188-1.023-0.032-1.511-0.085v-0.08z"/>
	<path d="m110.35 131.22c1.759-1.824 3.551-3.609 5.375-5.362-1.75 1.82-3.54 3.6-5.37 5.36"/>
	<path d="m78.324 123.49c1.212 1.256 2.819 2.542 3.707 3.868-1.114-1.42-2.532-2.52-3.707-3.87"/>
	<path d="m65.699 127.28c1.547 1.527 3.377 3.203 4.66 4.73-1.511-1.63-3.151-3.11-4.66-4.73"/>
	<path d="m93.239 132.01c1.412-1.662 3.371-3.464 5.043-5.137-1.634 1.77-3.409 3.38-5.043 5.14"/>
	<path d="m109.81 129.8c0.616-0.422 1.698-1.504 2.126-2.131-0.037-0.045 0.054-0.097 0.082-0.077 0.184 0.19-1.933 2.154-2.295 2.37-0.01-0.09 0.02-0.14 0.09-0.16"/>
	<path d="m53.474 140.45c-2.072-2.314-4.692-4.777-7.024-7.093v-0.083c2.029 2.263 5.249 4.828 7.176 7.102 0.134 0.15-0.012 0.23-0.152 0.07"/>
	<path d="m45.897 132.8h0.076c-0.086 0.411 0.07 0.568 0.477 0.476v0.083h-0.552v-0.56z"/>
	<path d="m41.324 128.22c-0.184-0.329 0.395 0.233 0.471 0.396 0.26 0.136 0.373 0.411 0.627 0.553 0.363 0.427 0.757 0.822 1.191 1.179 0.741 0.865 1.623 1.585 2.365 2.452h-0.082c-1.492-1.56-3.019-3.08-4.572-4.58"/>
	<path d="m83.141 128.3c1.201 1.189 2.684 2.51 3.625 3.701-1.163-1.27-2.467-2.42-3.625-3.7"/>
	<path d="m68.778 128.46c1.115 1.235 2.359 2.327 3.475 3.557-1.132-1.12-2.744-2.58-3.475-3.56"/>
	<path d="m107.76 132.01c0.249-0.429 0.747-0.613 0.941-1.104 0.03 0.39-0.65 0.77-0.94 1.1"/>
	<path d="m29.407 133.12v14.671c0 0.477-0.059 1.991 0 2.057 0.146 0.146 1.959 0 2.604 0h17.913c-6.705 0.18-13.757 0.021-20.591 0.076 0.047-5.59-0.109-11.38 0.074-16.81"/>
	<path d="m48.419 133.27v0.076c2.689 2.815 5.52 5.482 8.21 8.285-1.97-1.938-4.183-4.097-6.311-6.234-0.627-0.63-1.693-1.63-1.899-2.14"/>
	<path d="m48.419 133.35v-0.076c4.416 0.109 9.303-0.204 13.573 0.157-4.368-0.19-9.07-0.03-13.573-0.08"/>
	<path d="m71.695 133.27c0.357 0.38 1.077 0.812 1.104 1.268-0.254-0.51-0.714-0.812-1.104-1.191v-0.08z"/>
	<path d="m74.379 134.14c2.219 2.153 4.399 4.333 6.554 6.548-2.219-2.15-4.405-4.33-6.554-6.55"/>
	<path d="m89.294 135.88c0.119 0.155 0.167 0.903-0.081 0.946 0.152-0.2 0.048-0.65 0.081-0.95"/>
	<path d="m89.213 134.46c-0.292-0.416-0.73-0.686-1.028-1.102 0.33 0.28 1.087 0.94 1.028 1.1"/>
	<path d="m86.296 133.43c-0.633-0.232 1.602-0.206 1.895-0.081-0.612 0.05-1.419-0.11-1.895 0.08"/>
	<path d="m90.712 134.46c0.329-0.404 0.703-0.772 1.104-1.102-0.336 0.39-0.698 0.76-1.104 1.1"/>
	<path d="m100.89 138.72c1.921-1.679 3.654-3.561 5.439-5.369v-0.076c-0.595 0.91-1.617 1.853-2.604 2.837-0.9 0.9-2.13 2.21-2.84 2.61"/>
	<path d="m102.39 139.19c1.941-2.009 3.906-3.981 5.914-5.921v0.076c-2.01 1.9-3.89 3.94-5.91 5.84"/>
	<path d="m117.06 149.92c1.12-1.549 2.949-3.069 4.416-4.578 1.499-1.559 3.02-3.079 4.578-4.567-2.949 3.067-6.033 5.995-8.994 9.069v0.08z"/>
	<path d="m73.827 135.56c1.012 0.699 2.002 1.771 2.999 2.76 0.995 0.997 2.067 1.988 2.759 2.999-1.823-2.02-3.739-3.94-5.758-5.76"/>
	<path d="m90.712 148.98c3.068-3.063 6.213-6.044 9.152-9.232-0.536 0.85-1.35 1.581-2.134 2.359-1.515 1.527-3.014 3.025-4.654 4.659-0.74 0.742-1.851 1.921-2.445 2.214h0.081z"/>
	<path d="m81.956 141.71c2.495 2.376 4.843 4.887 7.333 7.263h0.081c-1.331-0.93-2.473-2.314-3.707-3.555-1.245-1.24-2.56-2.44-3.707-3.71"/>
	<path d="m55.919 142.74c1.775 1.743 3.632 3.551 5.439 5.362 0.58 0.578 1.218 1.137 1.581 1.813v-0.076c-2.295-2.4-4.725-4.68-7.02-7.09"/>
	<path d="m91.815 149.92c0.374-0.855 1.575-1.585 2.209-2.446 0.86-0.736 1.585-1.624 2.45-2.36 1.57-1.644 3.172-3.247 4.812-4.816-3.11 3.226-6.364 6.315-9.471 9.547v0.08z"/>
	<path d="m80.695 142.27c1.937 1.824 3.826 3.832 5.752 5.759 0.617 0.617 1.375 1.131 1.743 1.895v-0.076c-2.457-2.57-5.049-5-7.495-7.57"/>
	<path d="m115.1 149.92h-4.183c-1.451 0-3.059 0.266-4.185 0-0.189-0.044-0.222 0 0-0.151 2.625 0.178 5.602 0.021 8.367 0.075v0.08z"/>
	<path d="m115.1 149.84c2.473-2.413 4.925-4.859 7.333-7.339-1.992 2.241-4.941 5.033-7.333 7.415v-0.08z"/>
	<path d="m64.909 149.92c-1.986-1.981-4.265-4.093-5.997-6.072 0.098-0.01 0.141 0.017 0.157 0.075 1.677 1.927 3.902 3.993 5.839 5.921v0.08z"/>
	<path d="m64.357 151.19c2.889 2.851 5.844 5.759 8.756 8.675 0.947 0.946 1.948 1.862 2.689 2.917-3.701-3.951-7.608-7.695-11.445-11.518v-0.07z"/>
	<path d="m66.251 151.26h0.081c3.555 3.681 7.251 7.215 10.808 10.889-3.664-3.59-7.29-7.23-10.889-10.89"/>
	<path d="m89.608 151.19c0.141 0.064 0.244 0.174 0.314 0.312 0.281 0.017 0.26-0.271 0.471-0.312v0.074c-0.211 0.051-0.189 0.332-0.471 0.315-0.07-0.142-0.173-0.244-0.314-0.315v-0.07z"/>
	<path d="m105.46 159.39c2.852-2.597 5.492-5.401 8.209-8.129h0.07c-1.922 1.955-4.059 4.136-6.147 6.236-0.63 0.63-1.62 1.68-2.13 1.89"/>
	<path d="m106.96 159.87c2.864-2.935 5.759-5.824 8.675-8.681v0.074c-2.94 2.82-5.74 5.78-8.68 8.61"/>
	<path d="m78.167 163.18c3.988 3.875 7.841 7.879 11.83 11.755 4.887-4.769 9.638-9.678 14.525-14.439-4.854 4.86-9.627 9.795-14.601 14.515-3.872-4.01-7.877-7.85-11.752-11.84"/>
	<path d="m117.06 28.574c3.849 0.054 7.891-0.106 11.597 0.078h-11.597v-0.078z"/>
	<path d="m115.1 28.652c-3.421 0.057-7.053-0.105-10.343 0.079-0.097-0.041-0.193-0.122-0.075-0.157 0.617-0.192 1.764 0 2.597 0h7.821v0.078z"/>
	<path d="m48.419 45.142h10.731c-3.42 0.184-7.176 0.027-10.731 0.079v-0.079z"/>
	<path d="m90.788 85.224c-0.254 0.709-0.152-2.256-0.152-3.157 0-7.804-0.07-16.609 0.076-23.985v0.076c0.048 8.993-0.103 18.199 0.076 27.066"/>
	<path d="m89.294 58.081c0.179 4.551 0.027 9.444 0.076 14.119-0.048 4.451 0.103 9.682-0.076 13.89v-28.009z"/>
	<path d="m85.977 88.458c0.709 0.255-2.257 0.16-3.155 0.16-7.804 0-16.609 0.063-23.985-0.081h0.082c8.993-0.053 18.199 0.105 27.058-0.079"/>
	<path d="m89.213 93.271c0.254-0.71 0.157 2.261 0.157 3.158 0 7.804 0.065 16.609-0.081 23.984v-0.081c-0.049-8.99 0.108-18.2-0.076-27.059"/>
	<path d="m122.5 102.66v5.757h0.082c-0.011 0.076-0.098 0.064-0.151 0.087 0.05-1.93-0.11-4.06 0.07-5.85"/>
	<path d="m45.821 118.68c0.179-2.548 0.027-5.443 0.076-8.127 0.184 1.237 0.027 2.812 0.076 4.178-0.178 1.189 0.314 3.268-0.151 4.026 0.011-0.02-0.017-0.06-0.001-0.08"/>
	<path d="m70.829 121.83c-0.103-0.032-0.07-0.135 0-0.157 1.542-0.411 4.172 0.238 5.758 0.081-1.889 0.05-3.999-0.1-5.758 0.08"/>
	<path d="m111.3 133.35c1.152-0.141 2.575-0.076 4.102-0.076 1.381 0 3.112-0.336 4.107 0 0.033 0.012-0.037 0.2-0.081 0.157-2.55-0.19-5.44-0.03-8.13-0.08"/>
	<path d="m75.25 149.76c0.092 0.038 0.189 0.125 0.076 0.157-0.623 0.194-1.77 0-2.608 0h-7.804v-0.076c3.42-0.05 7.046 0.1 10.336-0.08"/>
	<path d="m91.815 149.84h11.679c-3.733 0.184-7.809 0.028-11.679 0.076v-0.08z"/>
	<path d="m60.574 45.063c2.549 0.184 5.439 0.027 8.128 0.078-1.239 0.182-2.814 0.027-4.183 0.076-1.186-0.176-3.263 0.317-4.026-0.154 0.016 0.011 0.059-0.011 0.081 0"/>
	<path d="m83.455 45.142h4.73c-1.337 0.132-3.648 0.132-4.73 0"/>
	<path d="m97.73 45.142h7.652c-2.36 0.132-5.28 0.132-7.65 0"/>
	<path d="m45.897 73.862c0.136 2.365 0.136 5.288 0 7.652v-7.652z"/>
	<path d="m45.897 91.06c0.136 1.343 0.13 3.654 0 4.736v-4.736z"/>
	<path d="m45.897 120.1c0.184 3.419 0.027 7.18 0.076 10.73h-0.076v-10.73z"/>
	<path d="m63.409 133.43c-0.097-0.016-0.076-0.157 0-0.157h8.286v0.076h-8.286v0.08z"/>
	<path d="m74.617 133.35c2.365-0.129 5.288-0.129 7.652 0h-7.652z"/>
	<path d="m91.815 133.35c1.348-0.129 3.658-0.129 4.73 0h-4.73z"/>
	<path d="m120.85 133.35c3.42-0.178 7.181-0.021 10.73-0.076v0.076h-10.73z"/>
	<path d="m76.512 28.652c3.734-0.184 7.809-0.027 11.673-0.078v0.078h-11.673z"/>
	<path d="m103.41 56.739h5.76v-0.076c0.08 0 0.064 0.092 0.08 0.155-1.92-0.049-4.04 0.105-5.84-0.079"/>
	<path d="m57.414 70.074c0.021-0.098 0.162-0.076 0.162 0-0.054 1.896 0.108 3.997-0.081 5.758-0.055-1.889 0.102-3.994-0.081-5.758"/>
	<path d="m93.158 88.537h28.005c-9.01 0.131-19.13 0.131-28.002 0"/>
	<path d="m90.712 92.402v28.007c-0.135-9.02-0.135-19.13 0-28.008"/>
	<path d="m51.341 149.84h11.598v0.076c-3.837-0.05-7.891 0.11-11.598-0.08"/>
</g>
</svg>
