<?xml version="1.0" encoding="utf-8"?>
<!-- Generator: Adobe Illustrator 16.0.0, SVG Export Plug-In . SVG Version: 6.00 Build 0)  -->
<!DOCTYPE svg PUBLIC "-//W3C//DTD SVG 1.1//EN" "http://www.w3.org/Graphics/SVG/1.1/DTD/svg11.dtd">
<svg version="1.1" id="Fitness" xmlns="http://www.w3.org/2000/svg" xmlns:xlink="http://www.w3.org/1999/xlink" x="0px" y="0px"
	 width="180px" height="180px" viewBox="0 0 180 180" enable-background="new 0 0 180 180" xml:space="preserve">
<path fill-rule="evenodd" clip-rule="evenodd" fill="#F0CC1A" d="M87.8,2h4.327c2.705,0.106,5.69,0.679,8.494,1.29
	c1.44,0.32,2.99,0.172,4.473,0.305c5.674,0.52,10.775,2.104,15.016,4.096c1.029,0.483,2.018,1.235,3.104,1.667
	c1.004,0.403,2.061,0.57,3.033,0.91c4.758,1.683,8.93,4.106,12.658,6.977c1.467,1.118,2.736,2.562,4.254,3.562
	c4.791,3.17,8.998,6.587,12.51,11.073c1.117,1.428,1.939,3.116,3.109,4.697c0.635,0.858,1.461,1.576,2.121,2.354
	c3.35,3.903,6.211,8.469,8.188,13.949c0.4,1.107,0.635,2.268,1.061,3.339c0.4,0.991,1.025,1.896,1.52,2.881
	c2.434,4.842,4.16,10.912,4.32,17.821c0.031,1.282,0.338,2.491,0.604,3.792c0.557,2.647,0.801,5.357,0.91,8.035v1.519
	c-0.104,3.13-0.504,6.5-1.283,9.703c-0.391,1.594-0.293,3.34-0.453,5.008c-0.65,6.496-2.43,11.939-5.008,16.68
	c-0.672,1.229-1.057,2.508-1.514,3.869c-1.748,5.129-4.4,9.83-7.812,13.871c-0.842,1.004-1.805,1.898-2.58,2.881
	c-0.791,1.016-1.383,2.211-2.121,3.262c-2.965,4.223-6.6,7.76-10.844,10.766c-1.062,0.76-2.268,1.373-3.262,2.199
	c-0.951,0.797-1.799,1.748-2.803,2.576c-4.053,3.359-8.852,6.027-13.949,7.738c-1.379,0.457-2.689,0.848-3.947,1.514
	c-4.65,2.48-10.1,4.369-16.68,5.008c-1.664,0.166-3.308,0.057-4.926,0.453c-3.182,0.775-6.459,1.055-9.709,1.211h-1.29
	c0-0.066-0.088-0.057-0.151-0.072c-3.37,0.047-6.496-0.484-9.554-1.217c-1.623-0.379-3.329-0.209-5.003-0.375
	c-6.376-0.639-11.795-2.58-16.534-5.008c-1.243-0.641-2.517-0.982-3.864-1.436c-6.413-2.148-12.04-5.939-16.679-10.24
	c-0.936-0.859-2.2-1.395-3.261-2.123c-5.305-3.641-9.409-8.363-12.966-13.875c-0.666-1.035-1.68-1.895-2.507-2.881
	c-3.334-4.006-6.039-8.469-7.879-13.576c-0.474-1.311-0.733-2.787-1.368-4.014c-2.423-4.648-4.535-9.861-5.305-16.227
	c-0.208-1.678-0.13-3.35-0.307-5.08c-0.146-1.482-0.671-2.957-0.91-4.475c-0.25-1.586-0.39-3.131-0.53-4.777v-4.324
	c0.109-2.689,0.676-5.662,1.29-8.415c0.322-1.454,0.166-2.98,0.301-4.473c0.525-5.757,2.055-10.742,4.093-15.088
	c0.489-1.027,1.232-2.002,1.669-3.11c0.421-1.061,0.64-2.189,0.983-3.186c1.748-4.98,4.338-9.367,7.438-13.192
	c1.232-1.527,2.637-2.848,3.713-4.554c3.745-5.932,8.592-10.516,14.635-14.326c0.801-0.51,1.467-1.23,2.195-1.896
	c4.358-4.004,9.539-7.104,15.696-9.102c1.092-0.351,2.044-0.606,3.038-1.134c5.346-2.866,11.733-4.969,19.488-5.31
	C80.54,3.365,84.128,1.979,87.8,2 M83.936,3.748c1.087,0.117,2.096,0.33,3.11,0.528c1.009,0.198,2.085,0.629,3.032,0.606
	C91.01,4.866,91.992,4.387,92.96,4.2c1.034-0.203,2.069-0.213,3.104-0.533C92.336,3.214,87.551,3.077,83.936,3.748 M79.843,4.733
	c-1.987-0.091-3.594,0.772-5.16,1.363c-1.415,0.533-2.756,1.157-3.864,1.742c2.361,0.198,4.452,0.473,6.522,0.91
	c0.635,0.141,1.54,0.507,2.044,0.458c0.494-0.046,1.342-0.712,1.898-0.983c2.101-1.045,3.979-1.817,6.137-2.58
	C84.997,5.139,82.417,4.85,79.843,4.733 M99.711,4.809c-2.43,0.112-4.978,0.244-7.131,0.91c2.195,0.676,4.166,1.505,6.143,2.504
	c0.588,0.292,1.383,0.941,1.898,0.983c0.499,0.039,1.331-0.317,1.971-0.458c2.174-0.463,4.291-0.634,6.517-0.985
	C106.373,6.761,103.258,4.642,99.711,4.809 M68.167,7.763c0.396-0.112,0.843-0.533,1.285-0.757c1.014-0.52,1.935-0.947,2.881-1.363
	c0.38-0.169,1.394-0.489,1.217-0.606c-4.254,0.645-8.191,1.618-11.525,3.186C64.079,7.578,66.191,8.322,68.167,7.763 M109.265,6.4
	c0.926,0.447,2.081,1.326,2.954,1.438c1.82,0.234,3.947,0.016,5.762,0.304c-3.473-1.305-7.27-2.691-11.524-2.957
	C107.366,5.505,108.287,5.927,109.265,6.4 M90,6.247c-3.167,0.905-6.106,2.033-8.717,3.487c3.136,1.032,6.09,2.252,8.717,3.791
	c2.601-1.516,5.451-2.79,8.644-3.71C96.195,8.194,93.096,7.219,90,6.247 M70.513,9.128c-0.608-0.021-1.909-0.096-2.195,0.078
	c-2.247,1.381-4.769,3.1-6.673,4.777c-0.275,0.242-0.728,0.598-0.603,0.757c3.354,0.156,6.444,0.583,9.169,1.362
	c2.32-2.176,4.894-4.104,7.51-5.983C75.464,9.713,72.91,9.234,70.513,9.128 M111.537,9.052c-0.156-0.091-0.275,0.07-0.379,0.076
	c-2.929,0.265-6.371,0.132-8.945,1.139c2.812,1.631,5.174,3.724,7.504,5.835c2.768-0.765,5.846-1.23,9.252-1.362
	C117.191,12.797,114.117,10.654,111.537,9.052 M57.323,10.496c-0.614,0.239-1.29,0.741-1.898,1.134
	c-1.867,1.23-3.682,2.632-5.081,4.021c2.569-0.596,5.393-0.931,8.571-0.91c2.117-2.055,4.447-3.893,6.902-5.612
	C62.794,9.601,59.789,9.521,57.323,10.496 M126.396,12.919c-1.029-0.752-2.6-1.982-3.713-2.424
	c-1.094-0.432-2.721-0.608-4.166-0.837c-1.539-0.239-3.084-0.442-4.328-0.453c0.027,0,0.047,0,0.072,0
	c1.754,1.184,3.48,2.616,5.166,4.096c0.514,0.453,1.211,1.316,1.664,1.438c0.551,0.156,1.367-0.021,1.898,0
	c2.209,0.101,4.441,0.491,6.59,0.837C128.764,14.789,127.619,13.809,126.396,12.919 M79.614,10.644
	c-2.85,1.706-5.56,3.542-7.734,5.918c3.35,0.92,6.278,2.262,9.024,3.792c2.252-2.377,5.003-4.252,7.733-6.147
	C85.824,12.828,82.938,11.518,79.614,10.644 M100.318,10.644c-0.03-0.011-0.129-0.005-0.155,0c-2.86,0.913-6.138,2.119-8.795,3.562
	c1.992,1.461,4.187,2.889,5.986,4.475c0.619,0.549,1.103,1.246,1.82,1.592c2.741-1.48,5.617-2.822,8.95-3.711
	C105.885,14.552,103.189,11.874,100.318,10.644 M130.037,14.207c0.76,0.65,1.523,1.625,2.352,2.052
	c0.863,0.437,2.012,0.666,2.953,0.985c0.988,0.335,1.883,0.666,2.809,0.986c-3.141-2.317-6.699-4.624-10.537-5.992
	C128.467,12.781,129.189,13.479,130.037,14.207 M41.929,18.229c0.946-0.37,1.815-0.741,2.73-1.061
	c0.962-0.341,2.101-0.447,2.959-0.91c0.786-0.427,1.477-1.347,2.195-1.971c0.796-0.687,1.514-1.368,2.356-1.896
	c0.016-0.096,0.115-0.153-0.078-0.153C48.367,13.899,44.867,15.785,41.929,18.229 M89.928,15.044
	c-2.84,1.784-5.622,3.633-7.807,6.067c2.933,1.662,5.451,3.742,7.807,5.991c2.471-2.231,5.107-4.298,7.963-6.142
	C95.44,18.783,92.934,16.659,89.928,15.044 M52.772,16.487c-1.332,0.203-3.334,0.401-4.322,0.905
	c-0.515,0.265-1.056,1.066-1.592,1.672c-1.508,1.688-3.484,4.127-4.244,5.763c2.782-0.728,5.95-1.069,9.398-1.139
	c1.373-2.429,3.183-4.847,4.93-6.823c0.26-0.296,0.718-0.606,0.609-0.835C55.882,16.115,54.275,16.258,52.772,16.487 M59.596,16.029
	c-2.341,2.231-4.307,4.842-6.064,7.658c3.589,0.127,6.818,0.611,9.783,1.363c1.415-2.509,3.339-5,5.154-7.05
	c0.255-0.289,0.733-0.619,0.608-0.832C66.248,16.456,63.153,16.009,59.596,16.029 M122.08,17.777
	c-0.469-0.533-1.244-1.61-1.748-1.748c-0.65-0.177-1.701,0.037-2.277,0.073c-2.393,0.167-5.154,0.476-7.277,1.066
	c2.217,2.413,4.156,5.092,5.992,7.882c2.865-0.798,6.121-1.209,9.627-1.363C125.18,21.6,123.691,19.628,122.08,17.777
	 M128.07,23.688c3.434,0,6.684,0.59,9.398,1.059c-1.764-2.629-3.703-5.092-5.836-7.354c-2.854-0.635-6.027-1.353-9.33-1.29
	C124.514,18.346,126.271,21.035,128.07,23.688 M70.742,17.548c-2.335,2.338-4.374,4.972-6.137,7.887
	c3.427,0.91,6.366,2.322,9.247,3.787c1.467-2.515,3.443-4.985,5.305-7.053c0.281-0.31,0.687-0.718,0.608-0.905
	C77.092,19.688,74.018,18.516,70.742,17.548 M109.182,17.548c-3.312,0.952-6.304,2.237-9.092,3.716
	c2.205,2.489,4.312,5.086,6.064,8.038c2.721-1.631,5.811-2.887,9.174-3.867C113.592,22.489,111.559,19.852,109.182,17.548
	 M37.986,21.641c-1.118,0.832-1.997,2.174-2.881,3.261c-0.92,1.139-1.877,2.247-2.501,3.487c2.465-1.277,5.154-2.333,8.113-3.11
	c1.258-2.221,2.902-4.522,4.473-6.369c0.208-0.239,0.567-0.447,0.536-0.757C43.114,19.379,40.113,20.06,37.986,21.641
	 M139.211,25.279c2.996,0.767,5.67,1.864,8.191,3.11c-0.729-1.214-1.596-2.374-2.506-3.487c-0.848-1.056-1.742-2.337-2.805-3.186
	c-0.945-0.762-2.438-1.266-3.785-1.896c-1.383-0.64-3.131-1.383-4.176-1.591C136.045,20.364,137.791,22.655,139.211,25.279
	 M81.133,22.021c-2.392,2.312-4.416,4.99-6.147,7.962c3.001,1.649,5.539,3.766,7.963,5.991c1.727-2.951,3.88-5.476,6.069-7.962
	C86.615,25.786,84.061,23.714,81.133,22.021 M98.801,22.021c-2.902,1.752-5.534,3.765-7.89,6.064c2.33,2.351,4.333,5.024,6.142,7.89
	c2.355-2.27,4.946-4.309,7.885-5.991C103.236,26.985,101.219,24.299,98.801,22.021 M25.099,33.167
	c1.539-1.321,3.282-2.429,5.076-3.487c0.988-1.823,2.403-3.612,3.417-5.157C30.456,27.047,27.288,29.95,25.099,33.167
	 M149.748,29.679c1.848,0.965,3.637,2.385,5.164,3.415c-2.48-3.139-5.34-6.291-8.57-8.42
	C147.637,26.179,148.744,27.885,149.748,29.679 M41.554,26.34c-1.477,2.8-2.866,5.682-3.792,9.026
	c2.959-0.702,6.179-1.149,9.778-1.214c0.795-2.876,1.939-5.814,3.183-8.191c0.161-0.296,0.494-0.626,0.385-0.985
	C47.618,25.131,44.508,25.659,41.554,26.34 M48.908,34.152c3.635,0.127,6.954,0.575,9.934,1.365
	c0.926-3.443,2.252-6.493,3.792-9.328c-3.021-0.647-6.158-1.175-9.783-1.214C51.139,27.638,49.907,30.782,48.908,34.152
	 M117.373,26.189c1.529,2.866,2.762,6.041,3.869,9.328c2.893-0.827,6.211-1.222,9.783-1.365c-0.873-3.451-2.299-6.348-3.791-9.177
	C123.572,25.009,120.4,25.523,117.373,26.189 M132.389,34.152c3.619-0.005,6.979,0.655,9.859,1.134
	c-1.051-3.217-2.33-6.215-3.869-8.945c-2.965-0.694-6.1-1.225-9.631-1.365C130.168,27.83,131.541,30.722,132.389,34.152
	 M63.996,26.569c-1.644,2.759-2.985,5.81-3.87,9.325c3.458,0.869,6.376,2.268,9.252,3.716c0.9-3.446,2.325-6.369,3.792-9.25
	C70.341,28.865,67.33,27.56,63.996,26.569 M116.01,26.645c-3.256,0.788-6.506,2.242-9.246,3.792
	c1.606,2.735,2.844,5.846,3.863,9.174c2.834-1.511,5.902-2.795,9.252-3.792C118.881,32.469,117.664,29.338,116.01,26.645
	 M31.163,30.589c-1.472,2.621-2.913,5.677-3.719,8.719c2.632-1.493,5.617-2.621,8.8-3.562c0.874-3.201,2.272-6.27,3.49-8.873
	C36.665,27.9,33.799,29.13,31.163,30.589 M143.684,35.746c3.205,0.84,6.211,2.283,8.873,3.412c-1.051-3.071-2.23-6.012-3.791-8.568
	c-2.631-1.363-5.477-2.913-8.57-3.562C141.65,29.64,142.801,32.561,143.684,35.746 M89.928,28.998
	c-2.179,2.465-4.348,4.951-5.992,7.96c2.325,2.301,4.203,5.05,6.143,7.733c1.648-2.954,3.792-5.404,5.986-7.812
	C94.255,34.019,92.289,31.31,89.928,28.998 M70.513,40.292c1.42,0.884,2.834,1.792,4.171,2.809c1.327,1.006,2.502,2.195,3.792,3.029
	c0.91-3.359,2.294-6.246,3.792-9.021c-2.444-2.231-5.024-4.325-7.962-6.067C72.822,33.902,71.444,36.875,70.513,40.292
	 M105.546,31.117c-2.854,1.799-5.612,3.69-7.812,6.145c1.565,2.678,2.85,5.646,3.791,8.948c2.278-2.052,5.134-4.171,7.891-5.992
	C108.443,36.87,107.252,33.738,105.546,31.117 M25.327,34.604c-1.066,0.869-2.387,1.802-3.188,2.881
	c-0.77,1.04-1.342,2.46-1.893,3.719c-0.572,1.282-1.103,2.652-1.519,4.096c1.847-1.625,4.577-3.734,7.053-5.082
	c0.707-2.988,2.039-5.747,3.032-8.191C27.667,32.885,26.451,33.689,25.327,34.604 M154.148,40.144
	c2.199,1.269,4.463,2.978,6.293,4.548c0.229,0.192,0.547,0.507,0.838,0.453c-0.812-2.06-1.566-4.09-2.502-5.911
	c-0.744-1.454-1.389-2.247-2.502-3.259c-1.498-1.36-3.807-3.094-5.236-3.867C152.344,34.513,153.379,37.205,154.148,40.144
	 M37.305,36.804c-0.733,3.009-1.249,6.236-1.368,9.858c3.084-0.661,6.226-1.251,10.012-1.214c-0.042-3.781,0.557-6.922,1.212-10.006
	C43.536,35.554,40.306,36.063,37.305,36.804 M47.233,45.448c3.75-0.031,6.881,0.554,9.934,1.214
	c0.021-3.724,0.614-6.875,1.295-9.934c-3.022-0.697-6.221-1.212-9.856-1.287C47.733,38.359,47.259,41.683,47.233,45.448
	 M121.471,36.729c0.77,2.993,1.232,6.296,1.363,9.934c3.043-0.676,6.193-1.235,9.934-1.214c-0.104-3.69-0.547-7.034-1.363-10.006
	C127.732,35.517,124.523,36.042,121.471,36.729 M134.057,45.448c3.74-0.026,6.881,0.549,9.93,1.214
	c-0.053-3.685-0.594-6.886-1.363-9.858c-2.984-0.751-6.236-1.246-9.855-1.362C133.512,38.461,133.979,41.758,134.057,45.448
	 M59.825,37.109c-0.905,2.865-1.316,6.215-1.362,9.931c3.37,0.923,6.397,2.195,9.169,3.719c0.088-3.659,0.604-6.881,1.368-9.858
	C66.17,39.41,63.159,38.094,59.825,37.109 M111.008,41.048c0.77,2.92,1.189,6.194,1.361,9.71c2.773-1.529,5.779-2.824,9.174-3.719
	c-0.107-3.653-0.514-7.013-1.361-9.931C116.848,38.146,113.613,39.293,111.008,41.048 M26.841,41.129
	c-0.666,2.923-1.337,6.246-1.285,9.629c2.699-1.571,5.763-2.78,9.096-3.719c0.068-3.594,0.51-6.815,1.212-9.777h-0.156
	C32.51,38.308,29.478,39.517,26.841,41.129 M145.275,47.04c2.924,0.731,5.789,1.998,8.191,3.186c0.334,0.167,0.645,0.432,0.982,0.38
	c-0.088-3.547-0.645-6.626-1.361-9.557c-2.762-1.433-5.773-3.019-9.02-3.711C144.828,40.213,145.26,43.425,145.275,47.04
	 M79.463,47.196c2.138,2.405,4.213,4.889,5.992,7.658c0.738-2.343,1.576-4.613,2.652-6.753c0.271-0.538,1.087-1.599,1.061-2.119
	c-0.021-0.39-0.967-1.646-1.29-2.125c-1.409-2.088-3.25-4.262-4.702-5.763C81.726,40.911,80.436,43.898,79.463,47.196
	 M97.354,50.834c1.02-1.285,2.236-2.418,3.11-3.638c-0.926-3.323-2.174-6.322-3.719-9.029c-2.309,2.291-4.238,4.964-5.986,7.814
	c1.451,2.77,2.777,5.667,3.797,8.873C95.445,53.502,96.34,52.121,97.354,50.834 M161.586,41.886
	c-0.094-0.112-0.131-0.473-0.385-0.377c0.832,1.724,1.477,3.625,1.977,5.687c1.518,1.308,2.844,3.222,4.088,4.548
	C165.787,48.208,163.785,44.634,161.586,41.886 M12.814,51.744c0.593-0.772,1.17-1.589,1.893-2.429
	c0.655-0.746,1.732-1.464,2.122-2.275c0.437-0.879,0.51-2.023,0.837-2.954c0.333-0.944,0.801-1.721,0.988-2.652
	C16.382,44.494,14.119,47.973,12.814,51.744 M68.921,51.44c2.335,1.534,4.92,3.206,6.901,5.006c0.234,0.213,0.437,0.751,0.832,0.608
	c0.083-3.43,0.655-6.376,1.295-9.252c-2.055-2.299-4.91-4.447-7.812-6.145C69.446,44.634,68.921,47.776,68.921,51.44
	 M109.717,41.657c-2.002,1.175-4.113,2.842-5.991,4.473c-0.437,0.385-1.664,1.199-1.742,1.672c-0.073,0.447,0.411,1.544,0.53,2.119
	c0.489,2.367,0.645,4.684,0.832,7.206c2.252-1.948,5.035-4.021,7.734-5.763C110.914,47.846,110.653,44.411,109.717,41.657
	 M21.307,44.915c-1.082,0.858-2.866,1.966-3.417,3.11c-0.557,1.183-0.682,2.855-0.905,4.325c-0.234,1.513-0.385,3.094-0.458,4.777
	c2.236-1.885,4.837-4.062,7.656-5.612c0-3.464,0.572-6.759,1.061-9.481C23.928,42.827,22.742,43.781,21.307,44.915 M155.74,51.44
	c2.318,1.464,4.857,3.175,6.828,4.933c0.256,0.229,0.453,0.697,0.832,0.601c-0.066-2.515-0.395-4.782-0.832-6.896
	c-0.15-0.705-0.191-1.594-0.457-2.125c-0.225-0.453-1.113-1.103-1.67-1.594c-1.795-1.581-3.979-3.243-5.758-4.325
	C155.262,44.941,155.766,47.929,155.74,51.44 M35.937,48.025c0.078,3.669,0.593,6.896,1.29,9.934
	c3.063-0.676,6.194-1.285,9.934-1.29c-0.65-3.063-1.248-6.184-1.212-9.931C42.163,46.72,38.979,47.302,35.937,48.025 M58.384,57.808
	c-0.754-2.907-1.212-6.119-1.217-9.783c-3.006-0.728-6.189-1.287-9.934-1.287c-0.005,3.747,0.577,6.912,1.29,9.931
	C52.216,56.596,55.555,57.278,58.384,57.808 M122.834,48.025c0,3.617-0.66,6.972-1.135,9.858c2.867-0.772,6.064-1.209,9.705-1.214
	c0.812-2.944,1.254-6.272,1.363-9.931C129.018,46.733,125.846,47.292,122.834,48.025 M134.131,46.738
	c-0.25,3.513-0.568,6.964-1.363,9.931c3.734,0.01,6.881,0.603,9.934,1.29c0.744-2.998,1.273-6.205,1.285-9.934
	C141.006,47.297,137.844,46.743,134.131,46.738 M86.365,56.446C87.8,58.95,88.976,61.714,90,64.632
	c0.962-3.003,2.21-5.726,3.64-8.259c-1.014-3.209-2.116-6.329-3.713-8.953C88.523,50.22,87.213,53.102,86.365,56.446 M25.473,52.274
	c0.073,3.643,0.5,6.936,1.29,9.853c2.767-1.581,5.83-2.858,9.252-3.786c-0.78-2.993-1.232-6.301-1.363-9.937h-0.156
	C31.23,49.432,28.183,50.688,25.473,52.274 M68.771,61.75c-0.712-2.824-1.118-5.96-1.139-9.476c-2.762-1.581-5.773-2.923-9.169-3.87
	c0.01,3.68,0.624,6.756,1.29,9.783C62.982,59.098,66.149,60.481,68.771,61.75 M112.369,52.196c-0.094,3.472-0.463,6.663-1.133,9.554
	c2.787-1.352,5.621-2.663,8.945-3.49c0.729-3.003,1.248-6.236,1.361-9.856h-0.145C118.102,49.383,115.143,50.699,112.369,52.196
	 M145.275,48.405c-0.031,3.711-0.613,6.871-1.289,9.937c3.416,0.939,6.449,2.25,9.252,3.786c0.686-3.003,1.238-6.145,1.211-9.853
	C151.693,50.688,148.693,49.346,145.275,48.405 M95.009,56.596c0.755,2.684,1.145,5.729,1.44,8.87
	c1.072-1.825,2.689-3.726,4.172-5.383c0.468-0.528,1.311-1.246,1.436-1.742c0.156-0.601-0.031-1.794-0.073-2.577
	c-0.125-2.423-0.692-5.352-1.14-6.977C98.701,51.195,96.715,53.757,95.009,56.596 M77.867,58.49c2.164,2.062,3.974,4.47,5.69,6.977
	c0.187-3.227,0.702-6.124,1.363-8.87c-1.686-2.834-3.594-5.45-5.835-7.733C78.314,51.713,78.002,55.007,77.867,58.49 M12.206,54.927
	c-0.385,0.598-0.968,1.22-1.212,1.823c-0.489,1.204-0.608,2.78-0.837,4.168c-0.229,1.428-0.463,2.881-0.453,4.395
	c1.155-1.742,2.528-3.674,4.015-5.305c0.51-0.549,1.378-1.145,1.519-1.667c0.141-0.51-0.026-1.108,0-1.745
	c0.099-2.122,0.598-5.263,0.837-6.823C14.728,51.307,13.365,53.143,12.206,54.927 M164.77,58.49
	c2.043,2.072,3.863,4.369,5.533,6.823c-0.141-1.581-0.219-3.074-0.457-4.473c-0.234-1.386-0.418-2.907-0.906-4.09
	c-0.494-1.188-1.529-2.418-2.355-3.568c-0.9-1.253-1.883-2.515-2.725-3.334C164.389,52.498,164.723,55.354,164.77,58.49
	 M18.191,57.431c-0.546,0.489-1.534,1.285-1.664,1.742c-0.187,0.692,0.021,1.831,0.073,2.577c0.203,2.546,0.536,4.842,1.066,6.901
	c2.319-1.955,4.961-4.233,7.89-5.835c-0.816-2.936-1.134-6.351-1.446-9.786C22.243,54.29,20.033,55.801,18.191,57.431
	 M70.289,62.661c2.268,1.336,4.619,2.999,6.522,4.629c0.239,0.203,0.442,0.564,0.759,0.528c-0.562-2.626-0.947-5.422-0.916-8.644
	c-2.241-2.376-4.878-4.374-7.733-6.142C69.02,56.596,69.561,59.722,70.289,62.661 M105.016,57.431
	c-0.562,0.502-1.545,1.3-1.67,1.742c-0.177,0.643-0.036,1.545-0.072,2.273c-0.125,2.312-0.453,4.356-0.91,6.371
	c0.354,0.112,0.525-0.33,0.754-0.528c2.008-1.727,4.374-3.227,6.527-4.702c0.738-2.824,1.42-6.111,1.285-9.557
	C109.035,54.368,106.856,55.791,105.016,57.431 M154.377,62.817c2.99,1.628,5.486,3.757,7.963,5.911
	c0.604-2.988,1.107-6.072,1.133-9.629c-2.293-2.301-4.861-4.335-7.732-6.067C155.668,56.674,155.162,59.881,154.377,62.817
	 M37.606,59.246c0.947,3.404,2.309,6.387,3.792,9.252c2.944-0.822,6.34-1.193,9.856-1.438c-1.571-2.707-2.772-5.768-3.713-9.102
	C43.795,57.954,40.592,58.498,37.606,59.246 M62.327,68.194c-1.545-2.652-2.653-5.736-3.641-8.948
	c-3.032-0.66-6.09-1.287-9.778-1.287c0.952,3.391,2.278,6.413,3.864,9.174C56.314,67.082,59.575,67.711,62.327,68.194
	 M121.242,59.246c-0.822,3.297-2.33,6.317-3.49,9.029c2.809-0.736,5.961-1.123,9.482-1.142c1.539-2.806,2.855-5.835,3.863-9.174
	C127.391,57.964,124.301,58.594,121.242,59.246 M128.748,67.133c3.625,0.091,6.844,0.588,9.781,1.365
	c1.52-2.834,2.893-5.801,3.793-9.252c-2.955-0.756-6.154-1.277-9.861-1.287C131.479,61.272,130.219,64.312,128.748,67.133
	 M85.075,62.736c-0.167,1.327-0.504,3.487-0.307,4.702c0.073,0.417,0.536,1.108,0.832,1.667c0.905,1.683,1.805,3.638,2.429,5.31
	c0.177-2.759,0.697-5.165,1.29-7.51c-0.957-3.056-1.992-6.043-3.49-8.563C85.611,59.738,85.268,61.186,85.075,62.736 M92.127,62.588
	c-0.447,1.139-1.435,3.199-1.445,4.397c0,0.512,0.25,1.152,0.385,1.742c0.4,1.831,0.635,3.638,0.983,5.534
	c0.354-1.142,0.863-2.25,1.44-3.49c0.432-0.916,1.508-2.45,1.664-3.334c0.131-0.687-0.021-1.597-0.072-2.429
	c-0.141-2.268-0.567-5.092-1.061-6.667C93.438,59.616,92.757,60.973,92.127,62.588 M139.82,68.881
	c3.463,0.879,6.381,2.307,9.246,3.786c1.541-2.806,2.871-5.82,3.793-9.25c-2.793-1.571-5.883-2.855-9.248-3.867
	C142.68,62.996,141.344,66.031,139.82,68.881 M27.064,63.498c0.993,3.329,2.299,6.348,3.796,9.169
	c2.876-1.469,5.804-2.886,9.248-3.786c-1.285-2.507-2.528-5.25-3.412-8.116c-0.12-0.377-0.114-0.926-0.53-1.134
	C32.837,60.622,29.743,61.847,27.064,63.498 M64.069,68.728c3.053,0.712,5.877,2.06,8.342,3.11
	c-1.311-2.509-2.398-5.234-3.188-8.267c-2.704-1.511-5.84-3.003-9.018-3.792C61.25,63.006,62.503,66.021,64.069,68.728
	 M110.777,63.498c-0.728,3.066-2.127,5.856-3.104,8.415c2.475-1.336,5.205-2.424,8.264-3.186c1.42-2.77,3-5.789,3.713-9.021
	C116.441,60.718,113.545,62.044,110.777,63.498 M9.553,68.046c0.177,3.284,0.343,6.582,1.212,9.174
	c1.644-2.801,3.75-5.149,5.835-7.508c-0.837-2.743-1.134-6.041-1.436-9.325C13.105,62.747,11.149,65.217,9.553,68.046 M163.4,69.713
	c2.092,2.406,4.166,4.834,5.914,7.583c0.582-2.881,1.045-5.879,1.061-9.325c-1.658-2.764-3.484-5.362-5.684-7.583
	C164.648,63.885,164.082,66.858,163.4,69.713 M78.86,67.513c0.156,0.751,0.182,1.602,0.452,2.125
	c0.229,0.447,0.858,0.895,1.29,1.363c1.316,1.427,2.486,2.931,3.562,4.4c-0.421-2.333-0.614-4.894-0.681-7.583
	c-1.675-2.621-3.417-5.178-5.534-7.357C77.997,62.89,78.423,65.49,78.86,67.513 M97.662,65.921
	c-0.453,0.682-1.098,1.516-1.213,2.125c-0.083,0.429,0.016,0.92,0,1.362c-0.088,1.992-0.426,4.522-0.607,5.992
	c0.951-1.428,2.355-3.136,3.562-4.473c0.436-0.486,1.092-0.954,1.289-1.365c0.244-0.515,0.317-1.378,0.453-2.049
	c0.463-2.226,0.743-4.39,0.837-6.896C100.49,62.005,98.961,63.971,97.662,65.921 M171.666,67.586
	c1.033,1.727,1.861,3.648,2.73,5.539c-0.562-4.387-1.629-8.275-3.184-11.679C171.494,63.363,171.66,65.399,171.666,67.586
	 M5.533,73.052c0.099,0.224,0.161-0.091,0.151-0.081c0.473-0.89,0.723-1.724,1.139-2.577c0.447-0.916,1.217-1.951,1.441-2.881
	c0.468-1.906-0.031-4.091,0.379-5.992C7.212,64.973,6.146,68.785,5.533,73.052 M18.046,70.319c0.994,3.253,2.2,6.296,3.719,9.021
	c2.314-2.049,5.149-4.244,7.958-6.064c-1.571-2.775-2.798-5.896-3.87-9.172C23.039,65.963,20.267,67.864,18.046,70.319
	 M153.998,64.179c-0.922,3.401-2.283,6.358-3.791,9.174c2.215,1.274,4.295,2.9,6.141,4.476c0.635,0.538,1.229,1.108,1.898,1.511
	c1.426-2.79,2.715-5.724,3.637-9.021C159.635,67.896,157.014,65.836,153.998,64.179 M105.244,67.362
	c-1.103,0.889-2.86,1.919-3.49,3.186c-0.473,0.955-0.723,2.265-1.133,3.409c-0.422,1.17-1.035,2.611-1.29,3.415
	c1.862-1.62,3.942-3.032,6.142-4.319c1.357-2.611,2.84-5.503,3.562-8.496C107.767,65.373,106.545,66.314,105.244,67.362
	 M74.533,73.125c1.924,0.991,3.88,2.439,5.461,3.719c0.187,0.143,0.442,0.458,0.681,0.377c-1.03-2.109-1.862-4.403-2.501-6.902
	c-2.257-2.06-4.53-4.111-7.276-5.687C71.797,67.773,73.134,70.485,74.533,73.125 M42.157,69.638
	c0.765,1.495,1.852,2.827,2.881,4.171c1.02,1.332,2.044,2.759,3.334,3.636c2.866-0.666,5.861-1.214,9.33-1.287
	c-1.919-2.252-4.119-4.878-5.689-7.734C48.31,68.413,45.148,68.941,42.157,69.638 M56.486,72.594
	c0.671,0.851,2.226,3.162,3.266,3.487c0.562,0.182,1.332,0.055,1.893,0.076c2.257,0.101,4.629,0.494,6.751,0.91
	c-1.732-2.135-3.745-4.65-5.237-7.282c-2.913-0.671-6.2-1.378-9.627-1.287C54.426,69.898,55.3,71.07,56.486,72.594 M116.77,69.786
	c-1.477,2.702-3.344,4.996-5.232,7.282c2.684-0.596,5.701-0.869,8.873-0.986c2.268-2.281,4.301-4.792,5.986-7.658
	C122.834,68.525,119.719,69.073,116.77,69.786 M128.07,68.423c-1.518,2.413-3.348,4.837-5.164,6.901
	c-0.238,0.278-0.65,0.65-0.525,0.833c3.406,0.127,6.502,0.575,9.252,1.368c2.439-2.263,4.416-4.985,6.217-7.887
	C134.854,68.961,131.732,68.423,128.07,68.423 M90,81.769c1.17-3.446,0.858-8.35-0.073-11.902
	C89.231,73.525,88.726,78.394,90,81.769 M45.189,76.157c-1.618-1.886-3.105-3.942-4.322-6.143h-0.151
	c-3.323,0.975-6.345,2.255-9.102,3.794c1.664,3.014,3.781,5.576,6.064,7.96c2.699-1.55,5.633-2.871,8.956-3.792
	C46.36,77.254,45.694,76.748,45.189,76.157 M139.139,70.015c-0.842,1.529-1.846,2.887-2.881,4.247
	c-0.994,1.298-2.08,2.491-2.959,3.716c3.359,0.915,6.277,2.265,9.023,3.792c2.262-2.416,4.348-5.001,6.064-7.96
	C145.562,72.285,142.561,70.943,139.139,70.015 M170.23,78.963c1.496,2.338,2.484,5.193,3.635,7.887
	c0.213-1.357,0.463-2.684,0.607-4.096c0.137-1.412,0.438-3.03,0.225-4.548c-0.178-1.261-0.863-2.77-1.363-4.096
	c-0.545-1.448-1.236-2.907-1.742-3.867C171.42,73.434,170.91,76.285,170.23,78.963 M6.594,74.339
	c-0.515,1.355-1.217,2.809-1.363,4.096c-0.161,1.448,0.146,3.017,0.302,4.395c0.167,1.438,0.25,2.822,0.681,4.096
	c0.635-2.221,1.519-4.155,2.507-6.14c0.286-0.593,0.947-1.456,0.983-1.971c0.026-0.437-0.312-1.219-0.452-1.896
	c-0.411-1.924-0.729-4.917-0.988-6.6C7.696,71.497,7.176,72.823,6.594,74.339 M70.819,77.676c2.59,0.569,5.014,1.703,7.131,2.501
	c-1.659-1.836-3.095-3.882-4.327-6.14c-2.626-1.396-5.586-2.86-8.566-3.643C66.747,73.052,68.713,75.437,70.819,77.676
	 M106.383,74.038c-1.18,2.203-2.912,4.265-4.17,6.14c1.555-0.772,3.338-1.428,5.002-1.971c0.588-0.198,1.354-0.281,1.82-0.53
	c0.557-0.299,1.088-1.087,1.592-1.669c1.602-1.826,3.059-3.625,4.244-5.612C111.719,71.289,108.994,72.605,106.383,74.038
	 M92.05,81.998c0.26-1.181,1.274-2.125,1.742-3.339c0.416-1.063,0.546-2.522,0.765-3.864c0.219-1.375,0.541-3.11,0.452-4.247
	C93.604,73.897,91.707,77.153,92.05,81.998 M88.029,82.073c0.068-4.92-1.534-8.176-3.11-11.45
	C85.138,75.257,86.074,79.176,88.029,82.073 M159.156,80.406c2.295,2.301,4.24,4.959,6.064,7.734
	c0.994-2.029,2.107-4.218,2.881-6.52c0.23-0.676,0.744-1.906,0.682-2.504c-0.057-0.541-0.863-1.415-1.289-2.049
	c-1.41-2.114-3.018-4.314-4.545-5.763C162.012,74.669,160.613,77.566,159.156,80.406 M16.907,71.38
	c-1.492,1.628-3.183,3.648-4.551,5.688c-0.369,0.564-1.186,1.677-1.211,2.125c-0.031,0.58,0.541,1.703,0.759,2.348
	c0.832,2.489,1.779,4.639,2.881,6.6c1.269-2.174,2.897-4.192,4.473-5.992c0.551-0.624,1.108-1.225,1.519-1.896
	C19.18,77.6,18.093,74.441,16.907,71.38 M93.87,82.83c0.587-1.113,1.815-1.737,2.579-2.8c0.719-1.012,1.279-2.434,1.815-3.644
	c0.567-1.264,1.093-2.572,1.446-3.867C97.328,75.471,94.682,78.565,93.87,82.83 M86.136,82.682
	c-0.712-2.881-1.956-4.949-3.412-6.977c-0.629-0.874-1.29-1.69-1.893-2.429c-0.167-0.192-0.312-0.58-0.609-0.528
	C81.632,76.568,83.328,80.507,86.136,82.682 M30.325,74.49c-2.788,1.885-5.638,3.711-7.807,6.22
	c1.758,2.842,3.766,5.432,5.992,7.807c2.46-2.236,5.102-4.299,7.962-6.14C34.091,80.081,32.239,77.26,30.325,74.49 M149.525,74.49
	c-1.68,2.993-3.875,5.474-5.992,8.035c2.117,1.241,4.223,2.712,6.07,4.325c0.229,0.198,1.502,1.693,1.82,1.667
	c0.279-0.021,1.346-1.454,1.664-1.82c1.689-1.94,3.15-4.023,4.4-6.143C155.053,78.313,152.484,76.209,149.525,74.49 M84.54,83.969
	c-0.889-0.895-1.212-2.104-1.966-3.11c-0.786-1.038-2.086-1.88-3.11-2.725c-1.103-0.918-2.169-1.854-3.333-2.429
	C78.418,78.921,80.935,82.317,84.54,83.969 M100.393,78.206c-1.004,0.812-2.206,1.646-2.955,2.58
	c-0.779,0.962-1.103,2.231-1.977,3.183c3.656-1.831,6.293-5.081,8.265-8.34C102.645,76.427,101.516,77.291,100.393,78.206
	 M62.249,80.326c-1.186-0.957-2.283-2.338-3.407-2.954c-0.213-0.117-1.654,0.062-1.971,0.073c-2.533,0.117-5.086,0.624-7.437,1.066
	c0.375,0.606,0.993,1.145,1.591,1.667c1.29,1.103,2.45,1.961,3.947,2.957c0.494,0.335,1.67,1.235,2.195,1.287
	c0.463,0.049,1.441-0.32,2.049-0.453c2.268-0.494,4.41-0.702,6.751-0.985C64.755,82.281,63.538,81.371,62.249,80.326
	 M114.039,83.059c2.424,0.138,4.566,0.463,6.672,0.91c0.65,0.138,1.645,0.518,2.123,0.453c0.531-0.062,1.623-0.952,2.127-1.287
	c0.801-0.539,1.41-1.017,1.967-1.438c1.393-1.05,2.734-2.002,3.566-3.186c-2.906-0.64-6.043-1.038-9.48-1.139
	C118.902,79.48,116.525,81.321,114.039,83.059 M64.677,80.481c0.967,0.708,2.668,2.226,3.792,2.502
	c1.16,0.283,2.626,0.122,3.864,0.229c1.279,0.102,2.408,0.31,3.562,0.38c-1.03-0.65-1.981-1.396-3.027-2.275
	c-0.806-0.676-1.935-2.085-2.809-2.502c-1.981-0.944-6.688-1.167-9.102-1.29C62.041,78.469,63.21,79.41,64.677,80.481
	 M111.918,78.357c-0.688,0.148-1.482,0.153-1.973,0.377c-0.447,0.208-0.904,0.869-1.361,1.295c-1.473,1.336-3.043,2.501-4.474,3.638
	c2.283-0.437,4.843-0.614,7.499-0.684c2.258-1.363,4.666-3.105,6.602-4.777c0.275-0.239,0.773-0.569,0.607-0.762
	C116.426,77.515,113.967,77.92,111.918,78.357 M47.769,78.963c-3.292,0.926-6.23,2.21-9.023,3.643
	c0.822,1.188,2.153,2.179,3.562,3.259c0.598,0.452,1.295,0.938,2.044,1.438c0.551,0.369,1.654,1.358,2.2,1.362
	c0.483,0.014,1.513-0.787,2.054-1.058c2.221-1.118,4.499-1.891,6.746-2.728C52.533,83.196,50.109,81.119,47.769,78.963
	 M132.158,78.963c-2.283,2.236-4.836,4.213-7.576,5.992c3.26,0.959,6.178,2.265,8.867,3.791c2.85-1.805,5.58-3.721,7.885-6.064
	C138.52,81.199,135.508,79.912,132.158,78.963 M83.255,85.56c-2.533-2.725-6.257-4.665-10.163-5.76
	C75.989,82.159,79.047,84.762,83.255,85.56 M102.972,81.238c-1.165,0.531-2.538,1.053-3.489,1.745
	c-1.062,0.772-1.805,1.929-2.736,2.652c2.84-0.728,4.945-1.88,6.979-3.334c0.858-0.611,1.69-1.266,2.429-1.896
	c0.197-0.172,0.578-0.382,0.531-0.682C105.483,80.234,104.204,80.677,102.972,81.238 M165.975,89.502
	c1.51,2.667,2.73,5.619,3.797,8.724c0.953-2.008,1.986-4.121,2.73-6.371c0.26-0.793,0.691-1.745,0.682-2.428
	c-0.016-0.611-0.422-1.5-0.682-2.273c-0.744-2.226-1.887-4.819-2.809-6.444C168.773,83.958,167.426,86.783,165.975,89.502
	 M6.75,89.427c0.937,3.155,1.95,6.239,3.562,8.719c0.905-3.238,2.242-6.043,3.714-8.719c-1.639-2.536-2.673-5.661-3.87-8.642
	C8.825,83.469,7.644,86.307,6.75,89.427 M152.334,89.502c2.33,2.343,4.311,5.039,6.141,7.888c2.242-2.406,4.287-5.012,5.992-7.963
	c-1.814-2.837-3.744-5.56-6.068-7.887C156.723,84.543,154.57,87.063,152.334,89.502 M21.458,81.621
	c-2.215,2.379-4.27,4.933-5.913,7.882c1.711,2.908,3.703,5.548,5.991,7.888c1.732-2.939,3.87-5.48,6.064-7.963
	C25.265,87.105,23.361,84.364,21.458,81.621 M174.547,89.502c0.557,1.921,0.879,4.076,1.217,6.22
	c0.494-3.898,0.639-8.67-0.078-12.435C175.498,85.555,175.035,87.542,174.547,89.502 M4.248,95.494
	c0.114-1.066,0.328-2.008,0.525-3.035c0.192-0.98,0.619-2.098,0.608-3.032c-0.01-0.931-0.5-1.922-0.681-2.881
	c-0.203-1.048-0.193-2.07-0.536-3.11C3.712,87.144,3.577,91.91,4.248,95.494 M37.378,83.436c-2.908,1.743-5.529,3.771-7.885,6.067
	c2.424,2.251,5.019,4.335,7.962,6.068c2.304-2.35,4.993-4.311,7.807-6.143C42.277,87.794,39.858,85.583,37.378,83.436
	 M148.615,91.094c0.373-0.322,1.84-1.255,1.82-1.667c-0.016-0.28-1.467-1.292-1.82-1.592c-1.895-1.625-4.141-3.349-6.064-4.4
	c-2.398,2.234-4.979,4.278-7.812,6.067c2.102,1.342,4.275,2.806,6.064,4.4c0.613,0.543,1.092,1.256,1.82,1.592
	C144.74,94.285,146.795,92.688,148.615,91.094 M69.608,85.103c-0.895-0.463-1.457-0.824-2.351-0.754
	c-2.834,0.224-5.851,0.234-8.415,1.058c1.945,1.017,4.036,1.896,6.288,2.658c0.733,0.244,1.617,0.73,2.278,0.756
	c0.515,0.021,1.144-0.324,1.742-0.452c1.904-0.411,3.729-0.624,5.763-0.91C73.129,86.941,71.194,85.94,69.608,85.103
	 M112.072,84.273c-0.17-0.026-0.229,0.102-0.307,0.148c-1.918,1.146-4.701,2.286-6.75,3.11c2.746,0.182,5.19,0.67,7.51,1.29
	c3.109-0.931,6.059-2.028,8.639-3.489C118.309,84.492,115.105,84.689,112.072,84.273 M82.574,87.458
	c-2.642-1.711-7.229-3.011-11.453-2.957C74.471,85.903,77.778,87.75,82.574,87.458 M100.922,85.636
	c-1.305,0.468-2.34,1.508-3.567,1.896c1.337-0.307,2.56,0.021,3.792-0.153c1.352-0.187,2.809-0.819,4.02-1.29
	c1.29-0.494,2.523-1.074,3.641-1.667C105.946,84.785,103.216,84.806,100.922,85.636 M60.813,87.835
	c-1.389-0.611-2.647-1.544-3.942-1.971c-0.031-0.011-0.13-0.011-0.156,0c-2.918,0.928-6.194,2.088-8.8,3.638
	c2.762,1.465,5.752,2.695,9.029,3.644c2.439-1.535,5.326-2.612,8.187-3.719C63.653,88.993,62.223,88.459,60.813,87.835
	 M122.99,85.865c-2.492,1.458-5.273,2.616-8.191,3.638c3.021,0.941,5.742,2.201,8.264,3.644c3.188-1.033,6.365-2.078,8.945-3.719
	C129.242,88,126.334,86.712,122.99,85.865 M78.704,88.665c-2.897-0.338-5.893,0.492-8.337,0.838
	c3.713,0.762,8.582,1.251,11.978-0.075C81.164,89.446,79.932,88.816,78.704,88.665 M97.662,89.502
	c1.217,0.041,2.47,0.682,3.791,0.838c2.777,0.316,5.746-0.562,8.113-0.913C105.91,88.709,101.042,88.241,97.662,89.502
	 M67.408,90.184c-0.536-0.062-1.737,0.479-2.351,0.682c-2.257,0.751-4.322,1.726-6.215,2.732c2.106,0.432,4.307,0.84,6.673,0.986
	c0.775,0.047,1.784,0.229,2.497,0.072c0.473-0.1,1.024-0.6,1.597-0.904c1.701-0.916,3.672-1.516,5.154-2.354
	C72.057,91.418,69.655,90.461,67.408,90.184 M116.998,91.627c-1.461-0.574-3.156-1.302-4.629-1.443
	c-0.488-0.042-1.223,0.346-1.742,0.457c-1.867,0.396-3.599,0.513-5.461,0.91c1.722,0.502,3.594,1.473,5.16,2.275
	c0.576,0.299,1.205,0.742,1.664,0.83c0.707,0.141,1.664-0.025,2.428-0.072c2.461-0.15,4.697-0.498,6.674-1.061
	C119.822,92.986,118.475,92.207,116.998,91.627 M46.552,90.264c-1.488,0.835-2.954,1.826-4.317,2.882
	c-1.295,0.994-2.621,1.98-3.49,3.186c2.028,1.068,4.192,2.049,6.595,2.875c0.551,0.189,1.909,0.84,2.429,0.76
	c0.463-0.072,1.249-1.16,1.742-1.592c1.919-1.678,3.901-3.008,5.841-4.4C52.076,93.076,49.277,91.713,46.552,90.264 M133.377,90.264
	c-2.658,1.486-5.508,2.781-8.723,3.71c1.98,1.393,3.9,2.846,5.762,4.477c0.479,0.418,1.42,1.469,1.898,1.516
	c0.475,0.049,1.857-0.559,2.424-0.76c2.449-0.857,4.691-1.875,6.596-3.031C138.863,94.02,136.377,91.885,133.377,90.264
	 M28.51,90.413c-2.195,2.455-4.333,4.974-5.992,7.962c2.372,2.307,4.952,4.4,7.963,6.066c1.669-2.977,3.792-5.508,5.991-7.961
	C33.487,94.787,30.976,92.623,28.51,90.413 M151.34,90.413c-2.314,2.361-5.014,4.33-7.879,6.142
	c2.334,2.314,4.291,5.012,6.064,7.887c2.98-1.721,5.637-3.77,7.963-6.141C155.656,95.457,153.717,92.719,151.34,90.413
	 M159.156,98.68c1.566,2.658,2.768,5.666,3.793,8.873c2.221-2.025,4.207-4.943,5.908-7.74c-1.016-3.221-2.145-6.342-3.709-9.02
	C163.484,93.756,161.283,96.186,159.156,98.68 M11.145,99.895c1.404,2.459,3.339,4.945,5.159,6.969
	c0.255,0.293,0.504,0.838,0.754,0.689c1.004-3.217,2.185-6.26,3.792-8.873c-2.252-2.398-4.244-5.061-6.142-7.814
	C13.287,93.645,12.002,96.549,11.145,99.895 M71.048,94.584c4.551-0.299,8.561-1.139,11.447-3.111
	C77.518,91.352,74.33,93.014,71.048,94.584 M100.844,93.293c2.361,0.891,5.259,0.916,8.041,1.215
	c-3.312-1.416-6.568-3.289-11.374-2.957C98.67,91.84,99.611,92.83,100.844,93.293 M5.46,96.25c-0.162,1.402-0.39,3.061-0.229,4.326
	c0.172,1.361,0.863,2.869,1.363,4.17c0.556,1.426,1.118,2.783,1.748,3.865c0.213-2.354,0.468-4.457,0.91-6.518
	c0.135-0.645,0.504-1.533,0.452-2.051c-0.047-0.443-0.687-1.227-0.983-1.816c-0.967-1.924-1.924-4.373-2.58-6.146
	C5.892,93.289,5.626,94.766,5.46,96.25 M170.23,100.117c0.773,2.557,1.076,5.592,1.436,8.568c0.52-1.145,1.117-2.443,1.668-3.867
	c0.5-1.295,1.207-2.801,1.363-4.17c0.354-3.041-0.535-5.842-0.904-8.568C172.82,94.984,171.588,97.613,170.23,100.117
	 M73.092,99.285c1.253-0.52,2.605-0.947,3.87-1.518c1.196-0.537,2.595-1.113,3.562-1.82c1.056-0.768,1.789-1.949,2.73-2.654
	C79.006,94.375,75.708,96.82,73.092,99.285 M97.354,93.975c0.728,0.641,1.482,1.535,2.2,2.053c0.973,0.697,2.371,1.203,3.562,1.74
	c1.274,0.57,2.569,1.15,3.791,1.439c-1.004-0.838-2.064-1.695-3.183-2.498c-0.999-0.721-2.314-1.816-3.407-2.275
	c-1.07-0.453-2.309-0.443-3.416-1.064C96.803,93.613,97.172,93.816,97.354,93.975 M57.167,94.508
	c-2.876,1.699-5.544,3.607-7.806,5.912c2.943,0.623,6.022,1.107,9.554,1.141c2.189-2.057,4.535-3.957,7.053-5.688
	C62.727,95.723,59.825,95.238,57.167,94.508 M122.834,94.584c-2.543,0.564-5.752,1.123-8.873,1.363
	c1.795,1.143,3.797,2.57,5.467,4.096c0.498,0.463,1.154,1.381,1.664,1.518c0.639,0.174,1.824-0.033,2.58-0.074
	c2.469-0.148,4.773-0.656,6.896-1.066C128.502,98.27,125.721,96.176,122.834,94.584 M97.438,98.146
	c0.77,1.033,2.076,1.896,3.105,2.732c1.117,0.906,2.184,1.816,3.339,2.422c-2.33-3.232-4.858-6.668-8.499-8.34
	C96.314,95.865,96.658,97.113,97.438,98.146 M81.284,96.932c-0.9,0.73-1.841,1.961-2.652,2.963c-0.916,1.117-1.94,2.551-2.429,3.406
	c3.204-2.246,6.61-4.713,8.191-8.34C83.525,95.873,82.256,96.148,81.284,96.932 M69.832,95.947c-0.416,0.02-0.941-0.092-1.363,0
	c-0.562,0.121-1.373,0.766-2.049,1.213c-1.742,1.168-3.198,2.318-4.624,3.562c-0.265,0.234-0.775,0.555-0.608,0.764
	c2.481-0.062,4.691-0.406,6.75-0.838c0.723-0.148,1.571-0.18,2.122-0.453c0.406-0.199,0.879-0.85,1.363-1.287
	c1.347-1.219,3.458-2.824,4.4-3.643C74.002,95.654,71.797,95.865,69.832,95.947 M108.5,98.828c0.5,0.451,0.879,1.133,1.373,1.367
	c0.551,0.268,1.414,0.305,2.117,0.453c2.221,0.475,4.389,0.775,6.9,0.838c-1.389-1.525-3.41-2.93-5.383-4.25
	c-0.695-0.463-1.393-1.152-2.043-1.289c-0.422-0.086-0.937,0.02-1.368,0c-2.007-0.086-4.634-0.428-6.069-0.607
	C105.546,96.379,107.122,97.572,108.5,98.828 M83.484,98.984c-0.702,0.977-1.212,2.314-1.742,3.486
	c-0.552,1.199-0.999,2.486-1.519,3.711c0.281,0.092,0.458-0.281,0.609-0.453c2.309-2.715,4.452-5.666,5.227-9.553
	C85.434,97.293,84.238,97.928,83.484,98.984 M94.932,99.812c0.229,0.555,0.759,1.174,1.133,1.748
	c0.988,1.49,1.986,2.918,3.037,4.168c0.188,0.225,0.541,0.721,0.682,0.533c-1.436-3.871-3.037-7.582-5.913-10.012
	C94.422,97.406,94.441,98.65,94.932,99.812 M86.136,100.42c-0.411,1.117-0.551,2.514-0.759,3.793
	c-0.218,1.309-0.479,2.699-0.38,4.096c1.41-3.328,3.277-6.676,2.959-11.451C87.681,98.115,86.615,99.133,86.136,100.42
	 M95.082,108.381c-0.442-2.869-0.406-5.697-1.29-8.035c-0.474-1.252-1.446-2.23-1.82-3.414
	C91.852,101.906,93.49,105.123,95.082,108.381 M89.168,100.805c-0.317,2.865,0.468,5.842,0.832,8.264
	c0.759-3.68,1.269-8.562-0.073-11.908C89.938,98.338,89.309,99.559,89.168,100.805 M37.679,97.236
	c-2.325,2.348-4.431,4.92-6.064,7.963c2.85,1.447,5.742,2.852,9.174,3.715c1.467-2.492,3.396-4.947,5.237-6.977
	c0.275-0.305,0.671-0.723,0.608-0.91C43.39,100.027,40.42,98.748,37.679,97.236 M142.248,97.236
	c-2.725,1.529-5.684,2.811-8.949,3.791c0.951,1.193,2.012,2.461,3.031,3.791c1.025,1.342,1.951,2.785,2.959,4.096
	c3.324-0.996,6.455-2.189,9.098-3.865C146.539,102.248,144.656,99.473,142.248,97.236 M70.897,101.256
	c-2.179,2.227-4.161,4.641-5.84,7.355c3.11-0.938,5.856-2.232,8.493-3.637c1.212-2.225,2.923-4.354,4.244-6.219
	C75.677,99.771,73.42,100.648,70.897,101.256 M106.383,104.975c2.668,1.369,5.383,2.699,8.488,3.637
	c-1.133-2.014-2.689-3.865-4.244-5.613c-0.52-0.586-1.024-1.453-1.592-1.742c-0.451-0.229-1.217-0.34-1.82-0.533
	c-1.7-0.533-3.895-1.428-5.158-1.895C103.715,100.66,105.114,102.75,106.383,104.975 M18.8,106.262
	c-0.198,0.561-0.749,1.998-0.682,2.424c0.078,0.479,1.295,1.348,1.748,1.748c1.956,1.725,3.921,3.137,6.064,4.393
	c0.973-3.396,2.288-6.455,3.869-9.25c-3.037-1.641-5.528-3.82-8.035-5.986C20.787,101.502,19.622,103.945,18.8,106.262
	 M158.096,99.59c-2.355,2.275-4.957,4.293-7.889,5.986c1.465,2.881,2.912,5.783,3.791,9.25c2.969-1.709,5.602-3.75,7.885-6.141
	C160.93,105.348,159.74,102.236,158.096,99.59 M42.157,109.291c2.897,0.797,6.226,1.164,9.783,1.291
	c1.44-2.398,3.24-4.885,5.003-6.902c0.26-0.299,0.739-0.588,0.609-0.832c-3.365-0.195-6.455-0.67-9.331-1.361
	C45.907,103.797,43.874,106.385,42.157,109.291 M133.377,103.229c-0.334-0.365-1.416-1.92-1.898-1.742
	c-2.471,0.889-5.832,1.045-9.176,1.361c1.457,1.686,2.996,3.582,4.395,5.689c0.369,0.547,1.004,1.906,1.447,2.045
	c0.207,0.07,0.66-0.07,0.832-0.076c2.896-0.143,6.24-0.428,8.795-1.215C136.6,107.201,134.967,105.002,133.377,103.229
	 M101.827,108.686c2.237,2.014,4.655,4.244,7.281,5.615c-0.972-3.043-2.263-5.773-3.636-8.416c-2.252-1.193-4.384-2.902-6.22-4.252
	C100.33,103.771,101.156,106.15,101.827,108.686 M74.533,105.885c-1.384,2.582-2.887,5.449-3.563,8.488
	c1.222-0.84,2.507-1.719,3.792-2.725c0.973-0.762,2.871-2.133,3.412-3.186c0.483-0.949,0.728-2.287,1.139-3.414
	c0.421-1.172,1.045-2.637,1.29-3.416C78.73,103.207,76.707,104.621,74.533,105.885 M164.92,107.477
	c-0.406,0.441-1.461,1.391-1.52,1.814c-0.057,0.459,0.334,1.51,0.459,2.129c0.447,2.24,0.832,4.498,0.832,7.125
	c1.533-1.408,3.057-3.531,4.395-5.535c0.479-0.711,1.164-1.459,1.289-2.123c0.131-0.662-0.031-1.6-0.072-2.424
	c-0.125-2.318-0.635-5.172-1.061-6.83C168.102,103.578,166.543,105.709,164.92,107.477 M9.553,110.961
	c1.353,2.385,3.209,4.779,4.931,6.746c0.218,0.258,0.379,0.74,0.754,0.686c0.177-3.338,0.635-6.395,1.363-9.174
	c-2.158-2.307-4.15-4.795-5.908-7.51C9.969,104.457,9.688,107.633,9.553,110.961 M59.596,102.848
	c-1.961,1.92-3.948,4.369-5.461,6.674c-0.192,0.299-0.479,0.645-0.453,0.984c3.547-0.066,6.616-0.611,9.476-1.361
	c1.503-2.619,3.531-5.113,5.237-7.279C65.775,102.508,62.794,102.791,59.596,102.848 M115.635,107.324
	c0.396,0.625,0.859,1.559,1.285,1.82c0.525,0.318,1.4,0.377,2.123,0.527c2.34,0.488,4.691,0.799,7.281,0.834
	c-1.104-2.119-2.668-4.029-4.328-5.91c-0.52-0.602-1.17-1.592-1.742-1.748c-0.619-0.168-1.58-0.031-2.346-0.072
	c-2.195-0.123-4.832-0.613-6.443-0.838C112.863,103.334,114.424,105.438,115.635,107.324 M96.449,111.039
	c1.395,2.318,3.126,4.793,4.854,6.748c0.218,0.25,0.613,0.742,0.754,0.605c-0.162-1.633-0.234-3.193-0.453-4.701
	c-0.177-1.209-0.41-3.307-0.91-4.324c-0.197-0.398-0.832-0.873-1.289-1.363c-1.233-1.336-2.84-3.418-3.641-4.398
	C96.236,105.842,96.434,108.346,96.449,111.039 M80.524,108.004c-0.416,0.459-1.092,1.018-1.285,1.443
	c-0.244,0.51-0.322,1.385-0.463,2.045c-0.458,2.236-0.691,4.395-0.827,6.9c2.06-1.91,3.9-4.689,5.534-7.277
	c0.016-2.643,0.359-5.348,0.603-7.51C83.094,105.139,81.772,106.635,80.524,108.004 M85.684,109.9
	c-0.322,0.602-0.832,1.16-0.915,1.666c-0.229,1.52,0.203,3.232,0.379,4.703c0.182,1.529,0.359,3.031,0.759,4.398
	c1.332-2.688,2.522-5.518,3.412-8.643c-0.661-2.297-1.02-4.9-1.363-7.51C87.364,106.258,86.547,108.26,85.684,109.9 M91.446,108.611
	c-0.218,1.182-0.78,2.412-0.765,3.414c0.016,0.682,0.438,1.549,0.687,2.275c0.78,2.283,1.665,4.426,2.73,6.293
	c0.63-2.779,1.03-5.795,1.056-9.174c-1.223-2.09-2.23-4.391-3.183-6.748C91.773,105.869,91.686,107.318,91.446,108.611
	 M173.111,108.768c-0.438,0.92-1.279,1.83-1.445,2.725c-0.068,0.391,0.014,0.826,0,1.215c-0.068,1.629-0.309,3.271-0.381,4.852
	c1.352-3.525,2.721-7.439,3.033-11.754C173.969,106.744,173.605,107.711,173.111,108.768 M8.721,117.482
	c-0.406-1.92-0.192-3.928-0.379-5.762c-0.099-0.979-0.968-1.959-1.441-2.953c-0.484-1.016-0.941-2.145-1.29-2.809
	C6.115,110.332,7.228,114.092,8.721,117.482 M30.861,106.262c-1.487,2.861-2.829,5.865-3.796,9.25
	c2.777,1.6,5.872,2.877,9.252,3.867c0.988-3.365,2.283-6.41,3.792-9.25C36.743,109.117,33.675,107.812,30.861,106.262
	 M148.994,106.262c-2.715,1.656-5.934,2.812-9.174,3.943c1.596,2.725,2.834,5.809,3.791,9.174c3.391-1.006,6.584-2.211,9.248-3.945
	C151.865,112.084,150.627,108.975,148.994,106.262 M110.777,115.434c2.752,1.496,5.639,2.855,8.945,3.793
	c-0.936-3.309-2.293-6.195-3.785-8.949c-3.043-0.777-5.949-2.088-8.42-3.184C108.891,109.592,109.926,112.426,110.777,115.434
	 M63.996,110.277c-1.451,2.795-2.824,5.672-3.792,8.949c3.344-0.926,6.22-2.318,9.018-3.793c0.692-3.078,2.055-5.885,3.11-8.34
	C69.753,108.355,67.033,109.475,63.996,110.277 M16.527,119.912c2.289,2.258,4.8,4.301,7.656,5.986
	c0.151-3.541,0.593-6.785,1.373-9.703c-2.876-1.758-5.529-3.729-7.89-5.99C17.053,113.209,16.491,116.258,16.527,119.912
	 M161.809,121.504c0.547-0.494,1.541-1.246,1.664-1.82c0.152-0.641-0.092-1.631-0.15-2.43c-0.15-2.373-0.52-5.33-1.055-6.977
	c-2.373,2.238-5.088,4.117-7.818,5.992c0.693,2.957,1.234,6.051,1.291,9.629C157.873,124.629,159.941,123.178,161.809,121.504
	 M37.606,119.758c3.048,0.697,6.278,1.205,9.934,1.289c0.884-3.441,2.241-6.4,3.713-9.25c-3.683-0.006-6.777-0.602-9.783-1.291
	C39.843,113.25,38.563,116.344,37.606,119.758 M128.748,111.797c1.342,2.678,2.793,5.9,3.713,9.25
	c3.635-0.084,6.844-0.586,9.861-1.289c-0.947-3.445-2.17-6.631-3.943-9.252C135.467,111.232,132.367,111.775,128.748,111.797
	 M52.7,111.871c-1.498,2.832-2.892,5.752-3.792,9.176c3.615-0.123,6.844-0.639,9.851-1.363c0.827-3.324,2.143-6.156,3.49-8.945
	h-0.151C59.299,111.451,56.096,111.76,52.7,111.871 M121.242,119.684c2.959,0.701,6.381,1.352,9.855,1.289
	c-1.029-3.291-2.303-6.336-3.863-9.102c-3.459-0.027-6.771-0.613-9.555-1.061C119.168,113.469,120.307,116.477,121.242,119.684
	 M70.289,116.27c-0.718,2.951-1.269,6.061-1.368,9.629c2.189-1.217,4.046-2.756,5.918-4.395c0.629-0.551,1.544-1.107,1.742-1.746
	c0.151-0.49,0.047-1.264,0.073-1.895c0.094-2.139,0.629-5.238,0.837-6.824C75.303,112.994,72.937,114.773,70.289,116.27
	 M109.645,116.344c-2.512-1.607-4.957-3.287-7.131-5.229c-0.005-0.08-0.099-0.061-0.078,0.074c0.562,2.625,0.89,5.484,0.91,8.643
	c1.898,2.01,4.332,3.945,6.673,5.463c0.302,0.188,0.63,0.547,0.989,0.457C110.924,122.236,110.42,119.156,109.645,116.344
	 M95.009,122.336c1.731,2.814,3.573,5.523,5.913,7.734c0.463-2.195,0.812-4.494,0.988-6.971c0.047-0.764,0.322-1.855,0.146-2.506
	c-0.104-0.402-0.983-1.17-1.436-1.672c-1.514-1.662-3.251-3.936-4.25-5.459C96.23,116.74,95.722,119.643,95.009,122.336
	 M79.312,118.922c-0.447,0.506-1.352,1.283-1.446,1.672c-0.135,0.613,0.104,1.717,0.156,2.424c0.182,2.568,0.504,4.811,0.983,6.979
	c1.186-0.826,2.138-2.174,3.188-3.566c0.416-0.553,0.905-1.172,1.436-1.967c0.359-0.535,1.243-1.643,1.29-2.205
	c0.042-0.438-0.312-1.381-0.453-2.047c-0.432-2.041-0.759-4.664-0.983-6.672C82.459,115.301,80.805,117.229,79.312,118.922
	 M10.156,118.092c0.234,1.434,0.39,2.965,0.837,4.094c0.244,0.623,0.827,1.232,1.212,1.82c1.045,1.592,2.049,3.068,3.188,4.398
	c0.192,0.219,0.53,0.719,0.681,0.531c-0.551-2.537-0.874-5.295-0.837-8.42c-2.07-2.025-3.973-4.619-5.606-6.824
	C9.771,115.199,9.927,116.686,10.156,118.092 M166.203,119.002c-0.508,0.559-1.295,1.098-1.434,1.592
	c-0.193,0.639-0.047,1.539-0.078,2.277c-0.1,2.227-0.475,4.188-0.832,6.211c0.973-0.854,1.777-2.061,2.652-3.256
	c0.832-1.154,1.887-2.346,2.428-3.719c0.947-2.43,1.035-5.342,1.291-8.416C169.148,115.328,167.66,117.4,166.203,119.002
	 M87.348,120.594c-0.317,0.635-0.952,1.529-0.983,1.971c-0.047,0.604,0.541,1.701,0.754,2.346c0.822,2.471,1.722,4.701,2.881,6.605
	c1.513-2.715,2.683-5.764,3.64-9.029c-1.539-2.424-2.621-5.311-3.713-8.186C89.351,116.467,88.315,118.662,87.348,120.594
	 M26.69,116.877c-0.661,3.004-1.175,6.156-1.217,9.781c2.736,1.617,5.752,2.949,9.18,3.869c0.13-3.609,0.567-6.912,1.363-9.859
	C32.614,119.693,29.587,118.352,26.69,116.877 M143.986,120.594c0.717,3.078,1.18,6.402,1.373,10.006
	c3.271-1.039,6.324-2.314,9.09-3.863c-0.016-3.699-0.426-7.006-1.283-9.859C150.373,118.383,147.414,119.715,143.986,120.594
	 M59.752,120.744c-0.655,3.033-1.285,6.102-1.29,9.783c3.422-0.947,6.537-2.205,9.169-3.947c-0.036-3.469,0.567-6.715,1.066-9.398
	C65.962,118.617,63.018,119.844,59.752,120.744 M112.369,126.736c2.793,1.555,5.82,2.871,9.174,3.863
	c-0.119-3.619-0.613-6.869-1.361-9.855c-3.25-0.924-6.211-2.133-8.945-3.562C111.887,120.094,112.281,123.262,112.369,126.736
	 M37.227,120.973c-0.692,3.043-1.212,6.268-1.29,9.93c2.98,0.816,6.324,1.258,10.012,1.367c-0.026-3.74,0.536-6.902,1.212-9.934
	C43.53,122.205,40.223,121.746,37.227,120.973 M142.701,121.047c-2.824,0.639-6.455,1.127-9.934,1.367
	c0.795,2.922,1.186,6.24,1.289,9.855c3.662-0.109,6.986-0.551,9.93-1.367C143.959,127.215,143.449,124.016,142.701,121.047
	 M48.523,122.336c-0.733,3-1.3,6.178-1.29,9.934c3.656-0.119,6.99-0.551,9.934-1.367c-0.042-3.684,0.551-6.736,1.139-9.781h-0.146
	C55.29,121.873,52.049,122.248,48.523,122.336 M122.834,130.98c3.059,0.68,6.262,1.221,9.934,1.289
	c-0.072-3.672-0.609-6.871-1.289-9.934c-3.625-0.057-6.855-0.525-9.857-1.215C122.309,124.125,122.771,127.355,122.834,130.98
	 M68.921,127.572c0.005,3.631,0.515,6.762,1.217,9.705c2.803-1.57,5.638-3.766,7.885-6.146c-0.853-2.768-1.165-6.055-1.441-9.404
	C74.33,123.975,71.6,125.752,68.921,127.572 M103.424,121.801c-0.021-0.09-0.083-0.043-0.15,0c0.01,2.412-0.411,4.986-0.838,7.135
	c-0.13,0.635-0.525,1.805-0.452,2.195c0.094,0.535,1.311,1.357,1.742,1.748c1.909,1.715,3.921,3.172,6.064,4.398
	c0.806-2.871,1.155-6.178,1.29-9.705C108.354,125.826,105.723,123.984,103.424,121.801 M17.365,128.854
	c0.146,0.727,0.203,1.633,0.452,2.127c0.266,0.525,1.181,1.102,1.748,1.59c1.867,1.639,3.693,3.271,5.763,4.244
	c-0.728-2.756-1.071-5.902-1.144-9.324c-2.777-1.664-5.3-3.594-7.656-5.689C16.569,124.1,16.943,126.834,17.365,128.854
	 M157.639,126.277c-0.562,0.369-1.764,0.988-1.898,1.369c-0.141,0.404,0.02,0.941,0,1.436c-0.109,2.537-0.625,5.496-0.982,7.811
	c1.887-1.289,3.941-2.652,5.684-4.244c0.562-0.51,1.43-1.164,1.67-1.668c0.473-1.004,0.592-2.699,0.838-4.322
	c0.254-1.695,0.555-3.641,0.373-4.857C161.773,123.402,159.688,124.91,157.639,126.277 M79.463,131.734
	c1.02,3.281,2.179,6.412,3.792,9.102c2.226-2.424,4.28-5.02,5.992-7.957c-1.633-2.596-2.757-5.691-3.87-8.801
	C83.733,126.959,81.58,129.33,79.463,131.734 M90.76,132.951c0.832,1.42,1.799,2.85,2.803,4.17c1.015,1.322,2.014,2.695,3.267,3.559
	c1.446-2.768,2.735-5.701,3.636-9.02c-2.216-2.309-4.172-4.877-5.992-7.582C93.594,127.396,92.186,130.184,90.76,132.951
	 M18.727,137.58c-0.733-1.873-1.503-3.703-1.971-5.846c-1.529-1.301-2.83-3.23-4.093-4.547
	C14.312,131.021,16.293,134.527,18.727,137.58 M167.191,127.188c-0.529,0.713-1.236,1.592-1.971,2.43
	c-0.697,0.795-1.654,1.561-2.043,2.346c-0.432,0.873-0.578,1.939-0.91,2.881c-0.338,0.947-0.738,1.811-0.988,2.736
	C163.551,134.568,165.934,130.74,167.191,127.188 M111.008,137.955c2.719,1.652,5.793,2.953,9.246,3.869
	c0.707-3.018,1.207-6.227,1.289-9.861c-3.359-0.982-6.463-2.227-9.252-3.787C112.291,131.863,111.709,134.969,111.008,137.955
	 M26.841,137.881c2.767,1.529,5.736,2.855,9.023,3.869c-0.681-3.01-1.16-6.219-1.212-9.859c-3.427-0.848-6.319-2.227-9.18-3.641
	C25.613,131.775,26.144,134.906,26.841,137.881 M67.559,128.25c-2.777,1.471-5.71,2.781-9.096,3.641c0,3.738,0.52,6.959,1.29,9.934
	c3.417-0.957,6.517-2.227,9.247-3.869C68.141,135.104,67.824,131.703,67.559,128.25 M144.143,141.75
	c3.225-1.049,6.25-2.299,8.945-3.869c0.732-2.934,1.279-6.053,1.361-9.631c-2.809,1.486-5.846,2.746-9.174,3.713
	C145.328,135.609,144.656,138.926,144.143,141.75 M37.305,142.125c2.975,0.76,6.173,1.307,9.855,1.363
	c-0.671-3.037-1.238-6.189-1.212-9.934c-3.688-0.078-6.99-0.541-10.012-1.285C36.057,135.889,36.551,139.141,37.305,142.125
	 M47.233,133.555c-0.005,3.754,0.562,6.928,1.29,9.934c3.724-0.021,6.933-0.547,9.939-1.291c-0.76-3.006-1.181-6.344-1.368-9.928
	C54.146,133.033,50.858,133.461,47.233,133.555 M121.471,142.197c3.021,0.729,6.211,1.275,9.934,1.291
	c0.816-2.943,1.26-6.268,1.363-9.934c-3.656-0.084-6.965-0.516-9.934-1.285C122.699,135.9,122.256,139.229,121.471,142.197
	 M134.057,133.555c-0.088,3.656-0.529,6.959-1.289,9.934c3.678-0.057,6.902-0.582,9.855-1.363c0.744-2.928,1.414-6.324,1.289-9.855
	C140.984,133.055,137.678,133.461,134.057,133.555 M70.513,138.641c0.967,3.406,2.221,6.527,3.87,9.248
	c2.871-1.811,5.581-3.777,7.884-6.139c-1.669-2.652-2.777-5.865-3.942-9.027C76.021,134.994,73.389,136.939,70.513,138.641
	 M97.734,141.824c2.346,2.299,4.987,4.311,7.885,6.064c1.555-2.768,2.876-5.773,3.797-9.176c-2.814-1.809-5.477-3.775-7.891-5.99
	C100.553,136.045,99.211,139,97.734,141.824 M20.319,137.799c0.583,1.311,1.087,2.787,1.82,3.723
	c0.869,1.092,2.184,1.92,3.261,2.805c1.124,0.92,2.21,1.928,3.49,2.5c-1.295-2.443-2.335-5.148-3.11-8.113
	c-2.663-1.404-4.889-3.244-7.125-5.08C19.04,135.025,19.689,136.395,20.319,137.799 M154.148,138.787
	c-0.656,2.984-2.029,5.646-2.955,8.113c1.145-0.791,2.279-1.66,3.412-2.574c1-0.807,2.445-1.811,3.189-2.805
	c1.408-1.908,2.662-5.668,3.406-7.889C159.109,135.609,156.707,137.277,154.148,138.787 M83.936,142.125
	c1.253,2.092,2.804,4.129,4.4,5.992c0.275,0.322,1.3,1.83,1.664,1.82c0.094,0,0.614-0.666,0.837-0.91
	c2.018-2.189,3.775-4.572,5.227-7.059c-2.371-2.236-4.265-4.977-6.137-7.729C88.269,137.211,86.042,139.607,83.936,142.125
	 M60.054,143.186c1.045,3.303,2.283,6.408,3.87,9.176c3.422-0.922,6.438-2.252,9.247-3.793c-1.54-2.834-2.845-5.902-3.87-9.252
	C66.534,140.924,63.346,142.109,60.054,143.186 M106.764,148.568c2.834,1.51,5.818,2.871,9.246,3.793
	c1.607-2.762,2.896-5.846,3.869-9.248c-3.406-0.947-6.449-2.246-9.252-3.797C109.649,142.719,108.318,145.756,106.764,148.568
	 M31.09,148.268c2.585,1.555,5.508,2.783,8.644,3.791c-1.357-2.766-2.585-5.658-3.49-8.873c-3.225-0.873-6.106-2.09-8.8-3.488
	C28.312,142.895,29.675,145.615,31.09,148.268 M143.684,143.186c-0.852,3.268-2.111,6.127-3.488,8.873
	c2.359-0.713,4.535-1.633,6.6-2.652c0.635-0.312,1.633-0.65,2.049-1.061c0.348-0.354,0.754-1.363,1.061-1.977
	c1.014-2.014,2.154-4.826,2.58-6.672C149.816,141.127,146.908,142.318,143.684,143.186 M82.875,142.963
	c-2.273,2.402-5.082,4.264-7.89,6.143c1.82,2.859,3.787,5.564,6.147,7.885c2.855-1.82,5.607-3.746,7.885-6.148
	C86.688,148.496,84.706,145.803,82.875,142.963 M92.58,149.105c-0.182,0.207-1.68,1.58-1.669,1.82
	c0.01,0.207,1.493,1.383,1.82,1.664c1.961,1.686,4.041,3.121,6.143,4.4c2.268-2.414,4.379-4.973,6.064-7.963
	c-2.918-1.754-5.549-3.807-7.957-6.064C95.852,144.971,94.161,147.254,92.58,149.105 M48.908,144.777
	c0.973,3.402,2.231,6.521,3.942,9.174c3.661-0.02,6.917-0.457,9.783-1.289c-0.863-1.332-1.472-2.84-2.127-4.395
	c-0.655-1.551-1.145-3.219-1.82-4.779C55.721,144.217,52.543,144.727,48.908,144.777 M117.373,152.74
	c2.984,0.707,6.146,1.232,9.861,1.211c1.549-2.791,2.859-5.83,3.863-9.174c-3.703-0.031-6.875-0.604-9.934-1.289
	C120.16,146.838,118.875,149.895,117.373,152.74 M41.554,152.59c2.943,0.717,6.048,1.273,9.627,1.361
	c-1.306-2.662-2.788-5.793-3.641-9.174c-3.651-0.016-6.85-0.479-9.778-1.217C38.667,146.932,40.062,149.807,41.554,152.59
	 M132.461,144.777c-0.967,3.328-2.232,6.367-3.713,9.174c3.578-0.088,6.697-0.633,9.631-1.361c1.52-2.699,3.002-5.852,3.791-9.029
	C139.273,144.311,136.086,144.762,132.461,144.777 M33.665,154.332c-1.337-1.514-2.45-3.262-3.49-5.082
	c-1.831-0.92-3.552-2.361-5.076-3.334C27.559,149.074,30.456,152.184,33.665,154.332 M149.748,149.25
	c-0.895,1.889-2.381,3.578-3.334,5.16c3.1-2.518,6.23-5.395,8.42-8.566C153.254,147.098,151.611,148.277,149.748,149.25
	 M76.811,154.029c-1.02-1.311-2.018-2.688-2.809-4.17c-0.073,0-0.088-0.057-0.151-0.078c-0.005-0.041-0.01-0.088-0.078-0.072
	c-2.741,1.549-5.726,2.865-9.096,3.795c1.654,3.012,3.719,5.633,6.142,7.881c3.297-0.916,6.226-2.217,9.024-3.637
	C78.938,156.531,77.82,155.336,76.811,154.029 M106.082,149.709c-1.686,2.975-3.803,5.508-5.992,7.961
	c2.772,1.52,5.764,2.83,9.175,3.715c2.282-2.367,4.39-4.91,6.063-7.881C111.865,152.621,108.963,151.176,106.082,149.709
	 M36.473,155.699c1.025,1.145,1.836,1.842,3.261,2.58c1.909,0.979,3.864,1.686,5.908,2.502c0.109-0.318-0.265-0.535-0.453-0.76
	c-1.644-1.945-3.256-4.129-4.473-6.371c-3.027-0.666-5.778-2.002-8.191-3.027C33.742,152.412,35.074,154.139,36.473,155.699
	 M139.289,153.65c-1.311,2.195-2.891,4.525-4.479,6.371c-0.197,0.234-0.592,0.432-0.523,0.76c1.352-0.541,2.73-1.025,4.02-1.592
	c1.238-0.557,2.689-1.123,3.709-1.898c0.986-0.744,1.924-2.039,2.807-3.109c0.973-1.17,2.039-2.664,2.502-3.559
	C144.834,151.814,142.248,152.922,139.289,153.65 M89.928,151.83c-2.325,2.361-5.024,4.338-7.89,6.148
	c2.439,2.205,5.029,4.27,7.962,5.98c2.855-1.789,5.591-3.709,7.89-6.059C94.904,156.199,92.388,154.045,89.928,151.83
	 M66.118,158.123c-1.014-1.332-1.939-2.74-2.803-4.172c-0.005-0.045-0.01-0.088-0.078-0.072c-2.845,0.869-6.251,1.186-9.705,1.436
	c1.321,2.061,2.762,4.047,4.4,5.918c0.463,0.531,1.238,1.613,1.737,1.744c0.416,0.107,0.926-0.059,1.29-0.074
	c2.699-0.119,5.716-0.473,8.191-1.061C68.271,160.619,67.117,159.434,66.118,158.123 M116.691,153.951
	c-1.736,2.861-3.797,5.41-5.914,7.891c2.945,0.619,6.033,1.092,9.555,1.135c2.32-2.279,4.375-4.822,6.064-7.734
	C122.781,155.195,119.709,154.607,116.691,153.951 M46.859,159.943c0.494,0.562,1.139,1.441,1.592,1.67
	c0.52,0.266,1.419,0.307,2.122,0.457c2.236,0.463,4.468,0.766,6.98,0.832c-1.888-2.262-3.963-4.986-5.69-7.66
	c-3.458,0.082-6.563-0.604-9.325-0.982C43.744,156.08,45.325,158.207,46.859,159.943 M127.156,162.451
	c1.305-0.199,3.275-0.338,4.322-0.838c0.498-0.234,1.174-1.129,1.668-1.67c1.66-1.82,2.996-3.807,4.25-5.762
	c-2.896,0.592-5.893,1.092-9.408,1.061c-1.395,2.396-3.184,4.82-4.926,6.828c-0.254,0.297-0.732,0.598-0.609,0.832
	C124.119,162.898,125.674,162.674,127.156,162.451 M80.832,158.654c-2.736,1.518-5.695,2.809-8.951,3.797
	c1.472,1.574,3.547,3.182,5.612,4.545c0.593,0.395,1.592,1.254,2.2,1.289c0.619,0.037,1.675-0.541,2.346-0.758
	c2.476-0.818,4.691-1.713,6.6-2.883C85.73,162.955,83.25,160.838,80.832,158.654 M99.102,158.654
	c-2.381,2.246-4.972,4.279-7.811,6.068c2.808,1.441,5.799,2.695,9.102,3.637c2.423-1.432,4.889-3.355,6.9-5.154
	c0.261-0.234,0.739-0.369,0.682-0.754C104.803,161.4,101.801,160.172,99.102,158.654 M47.691,162.674
	c-0.915-0.156-1.96-0.535-3.032-0.91c-0.994-0.348-2.216-1.035-2.73-0.982c0.026-0.006,0.052,0,0.078,0
	c2.949,2.402,6.563,4.551,10.309,5.914C50.645,165.488,49.085,164.166,47.691,162.674 M132.389,162.674
	c-1.557,1.404-3.086,2.834-4.775,4.094c3.869-1.561,7.609-3.656,10.381-6.064C136.277,161.504,134.375,162.139,132.389,162.674
	 M73.852,166.014c-1.232-0.984-2.309-2.295-3.641-3.111c-0.016-0.01-0.13-0.004-0.151,0c-2.522,0.65-5.622,1.244-9.102,1.285
	c1.378,1.529,3.474,3.09,5.461,4.4c0.708,0.467,1.488,1.154,2.122,1.289c0.708,0.15,1.69-0.035,2.507-0.072
	c2.481-0.115,4.728-0.594,6.746-1.066C76.4,167.9,75.126,167.027,73.852,166.014 M102.135,168.816
	c2.147,0.363,4.368,0.863,6.75,0.988c0.843,0.041,1.861,0.229,2.58,0.072c0.613-0.135,1.357-0.832,2.043-1.289
	c1.836-1.223,3.314-2.32,4.775-3.637c0.291-0.264,0.764-0.555,0.686-0.764c-3.494-0.041-6.418-0.656-9.324-1.285
	C107.361,165.092,104.854,167.068,102.135,168.816 M53.761,166.164c1.097,0.775,2.611,2.027,3.708,2.352
	c2.45,0.707,5.315,1.096,8.348,1.217c-1.826-1.035-3.573-2.57-5.232-4.025c-0.515-0.447-1.211-1.301-1.669-1.441
	c-0.593-0.172-1.529-0.041-2.272-0.078c-2.086-0.084-4.77-0.604-6.298-0.754C51.384,164.291,52.486,165.27,53.761,166.164
	 M121.014,164.266c-2.117,2.008-4.391,3.854-6.824,5.539c3.084-0.4,6.258-0.447,8.494-1.363c1.314-0.541,2.537-1.633,3.641-2.428
	c0.91-0.662,1.793-1.311,2.574-1.973c0.275-0.232,0.717-0.498,0.607-0.68C126.938,163.918,124.088,164.197,121.014,164.266
	 M89.928,165.477c-2.626,1.551-5.622,2.727-8.722,3.797c2.013,0.938,4.125,1.967,6.371,2.727c0.775,0.264,1.753,0.691,2.424,0.686
	c0.655-0.006,1.591-0.432,2.356-0.686c2.341-0.77,4.452-1.764,6.366-2.805C95.472,168.275,92.694,166.887,89.928,165.477
	 M79.385,169.732c-2.569,0.758-5.591,1.07-8.566,1.436c1.129,0.539,2.455,1.133,3.864,1.664c1.321,0.504,2.777,1.217,4.177,1.373
	c3,0.326,5.804-0.521,8.488-0.916C84.503,172.291,81.825,171.131,79.385,169.732 M100.543,169.732
	c-2.402,1.455-5.211,2.516-7.963,3.635c1.363,0.203,2.699,0.457,4.094,0.609c1.42,0.154,3.037,0.426,4.555,0.229
	c1.327-0.188,2.871-0.859,4.162-1.373c1.383-0.541,2.725-1.154,3.791-1.738C106.035,170.906,103.18,170.428,100.543,169.732
	 M73.623,173.82c-0.895-0.354-1.873-0.709-2.881-1.217c-0.895-0.447-1.883-1.27-2.73-1.436c-0.38-0.074-0.827,0.016-1.207,0
	c-1.638-0.068-3.287-0.303-4.852-0.375C65.426,172.166,69.353,173.486,73.623,173.82 M117.836,170.709
	c-1.592,0.266-3.146,0.391-4.707,0.459c-0.391,0.016-0.816-0.084-1.211,0c-0.859,0.182-1.821,1.018-2.736,1.436
	c-1.035,0.492-1.982,0.873-2.881,1.289c4.337-0.516,8.07-1.633,11.535-3.027c-0.01-0.113,0.447-0.109,0.072-0.156H117.836z
	 M89.928,174.049c-1.904,0.572-4.078,0.879-6.215,1.217c3.927,0.494,8.702,0.635,12.508-0.078
	C93.916,175.016,91.925,174.527,89.928,174.049"/>
<rect x="71.238" y="-91.057" fill="none" width="72.813" height="32.96"/>
</svg>
