<?xml version="1.0" encoding="UTF-8" standalone="no"?>
<!-- Generator: Adobe Illustrator 16.0.0, SVG Export Plug-In . SVG Version: 6.00 Build 0)  -->
<!DOCTYPE svg  PUBLIC '-//W3C//DTD SVG 1.1//EN'  'http://www.w3.org/Graphics/SVG/1.1/DTD/svg11.dtd'>
<svg id="Fitness" xmlns="http://www.w3.org/2000/svg" xml:space="preserve" height="180px" viewBox="0 0 180 180" width="180px" version="1.1" y="0px" x="0px" xmlns:xlink="http://www.w3.org/1999/xlink" enable-background="new 0 0 180 180">
<path fill="#F0CC1A" clip-rule="evenodd" d="m87.8 2h4.327c2.705 0.106 5.69 0.679 8.494 1.29 1.44 0.32 2.99 0.172 4.473 0.305 5.674 0.52 10.775 2.104 15.016 4.096 1.029 0.483 2.018 1.235 3.104 1.667 1.004 0.403 2.061 0.57 3.033 0.91 4.758 1.683 8.93 4.106 12.658 6.977 1.467 1.118 2.736 2.562 4.254 3.562 4.791 3.17 8.998 6.587 12.51 11.073 1.117 1.428 1.939 3.116 3.109 4.697 0.635 0.858 1.461 1.576 2.121 2.354 3.35 3.903 6.211 8.469 8.188 13.949 0.4 1.107 0.635 2.268 1.061 3.339 0.4 0.991 1.025 1.896 1.52 2.881 2.434 4.842 4.16 10.912 4.32 17.821 0.031 1.282 0.338 2.491 0.604 3.792 0.557 2.647 0.801 5.357 0.91 8.035v1.519c-0.104 3.13-0.504 6.5-1.283 9.703-0.391 1.594-0.293 3.34-0.453 5.008-0.65 6.496-2.43 11.939-5.008 16.68-0.672 1.229-1.057 2.508-1.514 3.869-1.748 5.129-4.4 9.83-7.812 13.871-0.842 1.004-1.805 1.898-2.58 2.881-0.791 1.016-1.383 2.211-2.121 3.262-2.965 4.223-6.6 7.76-10.844 10.766-1.062 0.76-2.268 1.373-3.262 2.199-0.951 0.797-1.799 1.748-2.803 2.576-4.053 3.359-8.852 6.027-13.949 7.738-1.379 0.457-2.689 0.848-3.947 1.514-4.65 2.48-10.1 4.369-16.68 5.008-1.664 0.166-3.308 0.057-4.926 0.453-3.182 0.775-6.459 1.055-9.709 1.211h-1.29c0-0.066-0.088-0.057-0.151-0.072-3.37 0.047-6.496-0.484-9.554-1.217-1.623-0.379-3.329-0.209-5.003-0.375-6.376-0.639-11.795-2.58-16.534-5.008-1.243-0.641-2.517-0.982-3.864-1.436-6.413-2.148-12.04-5.939-16.679-10.24-0.936-0.859-2.2-1.395-3.261-2.123-5.305-3.641-9.409-8.363-12.966-13.875-0.666-1.035-1.68-1.895-2.507-2.881-3.334-4.006-6.039-8.469-7.879-13.576-0.474-1.311-0.733-2.787-1.368-4.014-2.423-4.648-4.535-9.861-5.305-16.227-0.208-1.678-0.13-3.35-0.307-5.08-0.146-1.482-0.671-2.957-0.91-4.475-0.25-1.586-0.39-3.131-0.53-4.777v-4.324c0.109-2.689 0.676-5.662 1.29-8.415 0.322-1.454 0.166-2.98 0.301-4.473 0.525-5.757 2.055-10.742 4.093-15.088 0.489-1.027 1.232-2.002 1.669-3.11 0.421-1.061 0.64-2.189 0.983-3.186 1.748-4.98 4.338-9.367 7.438-13.192 1.232-1.527 2.637-2.848 3.713-4.554 3.745-5.932 8.592-10.516 14.635-14.326 0.801-0.51 1.467-1.23 2.195-1.896 4.358-4.004 9.539-7.104 15.696-9.102 1.092-0.351 2.044-0.606 3.038-1.134 5.346-2.866 11.733-4.969 19.488-5.31 3.498-0.153 7.086-1.539 10.758-1.518m-3.864 1.748c1.087 0.117 2.096 0.33 3.11 0.528 1.009 0.198 2.085 0.629 3.032 0.606 0.932-0.016 1.914-0.495 2.882-0.682 1.034-0.203 2.069-0.213 3.104-0.533-3.728-0.453-8.513-0.59-12.128 0.081m-4.093 0.985c-1.987-0.091-3.594 0.772-5.16 1.363-1.415 0.533-2.756 1.157-3.864 1.742 2.361 0.198 4.452 0.473 6.522 0.91 0.635 0.141 1.54 0.507 2.044 0.458 0.494-0.046 1.342-0.712 1.898-0.983 2.101-1.045 3.979-1.817 6.137-2.58-2.423-0.504-5.003-0.793-7.577-0.91m19.868 0.076c-2.43 0.112-4.978 0.244-7.131 0.91 2.195 0.676 4.166 1.505 6.143 2.504 0.588 0.292 1.383 0.941 1.898 0.983 0.499 0.039 1.331-0.317 1.971-0.458 2.174-0.463 4.291-0.634 6.517-0.985-2.74-1.002-5.85-3.121-9.399-2.954m-31.544 2.954c0.396-0.112 0.843-0.533 1.285-0.757 1.014-0.52 1.935-0.947 2.881-1.363 0.38-0.169 1.394-0.489 1.217-0.606-4.254 0.645-8.191 1.618-11.525 3.186 2.054-0.645 4.166 0.099 6.142-0.46m41.093-1.363c0.926 0.447 2.081 1.326 2.954 1.438 1.82 0.234 3.947 0.016 5.762 0.304-3.473-1.305-7.27-2.691-11.524-2.957 0.92 0.32 1.84 0.742 2.81 1.215m-19.26-0.153c-3.167 0.905-6.106 2.033-8.717 3.487 3.136 1.032 6.09 2.252 8.717 3.791 2.601-1.516 5.451-2.79 8.644-3.71-2.449-1.621-5.548-2.596-8.644-3.568m-19.487 2.881c-0.608-0.021-1.909-0.096-2.195 0.078-2.247 1.381-4.769 3.1-6.673 4.777-0.275 0.242-0.728 0.598-0.603 0.757 3.354 0.156 6.444 0.583 9.169 1.362 2.32-2.176 4.894-4.104 7.51-5.983-2.257-0.406-4.811-0.885-7.208-0.991m41.027-0.076c-0.156-0.091-0.275 0.07-0.379 0.076-2.929 0.265-6.371 0.132-8.945 1.139 2.812 1.631 5.174 3.724 7.504 5.835 2.768-0.765 5.846-1.23 9.252-1.362-1.78-1.943-4.85-4.086-7.43-5.688m-54.217 1.444c-0.614 0.239-1.29 0.741-1.898 1.134-1.867 1.23-3.682 2.632-5.081 4.021 2.569-0.596 5.393-0.931 8.571-0.91 2.117-2.055 4.447-3.893 6.902-5.612-3.023 0.472-6.028 0.392-8.494 1.367m69.077 2.423c-1.029-0.752-2.6-1.982-3.713-2.424-1.094-0.432-2.721-0.608-4.166-0.837-1.539-0.239-3.084-0.442-4.328-0.453h0.072c1.754 1.184 3.48 2.616 5.166 4.096 0.514 0.453 1.211 1.316 1.664 1.438 0.551 0.156 1.367-0.021 1.898 0 2.209 0.101 4.441 0.491 6.59 0.837-0.82-0.787-1.96-1.767-3.18-2.657m-46.786-2.275c-2.85 1.706-5.56 3.542-7.734 5.918 3.35 0.92 6.278 2.262 9.024 3.792 2.252-2.377 5.003-4.252 7.733-6.147-2.813-1.379-5.699-2.689-9.023-3.563m20.706 0c-0.03-0.011-0.129-0.005-0.155 0-2.86 0.913-6.138 2.119-8.795 3.562 1.992 1.461 4.187 2.889 5.986 4.475 0.619 0.549 1.103 1.246 1.82 1.592 2.741-1.48 5.617-2.822 8.95-3.711-2.24-2.01-4.93-4.688-7.8-5.918m29.72 3.563c0.76 0.65 1.523 1.625 2.352 2.052 0.863 0.437 2.012 0.666 2.953 0.985 0.988 0.335 1.883 0.666 2.809 0.986-3.141-2.317-6.699-4.624-10.537-5.992 0.86 0.543 1.58 1.241 2.43 1.969m-88.111 4.022c0.946-0.37 1.815-0.741 2.73-1.061 0.962-0.341 2.101-0.447 2.959-0.91 0.786-0.427 1.477-1.347 2.195-1.971 0.796-0.687 1.514-1.368 2.356-1.896 0.016-0.096 0.115-0.153-0.078-0.153-3.724 1.661-7.224 3.547-10.162 5.991m47.999-3.185c-2.84 1.784-5.622 3.633-7.807 6.067 2.933 1.662 5.451 3.742 7.807 5.991 2.471-2.231 5.107-4.298 7.963-6.142-2.451-2.177-4.957-4.301-7.963-5.916m-37.156 1.443c-1.332 0.203-3.334 0.401-4.322 0.905-0.515 0.265-1.056 1.066-1.592 1.672-1.508 1.688-3.484 4.127-4.244 5.763 2.782-0.728 5.95-1.069 9.398-1.139 1.373-2.429 3.183-4.847 4.93-6.823 0.26-0.296 0.718-0.606 0.609-0.835-1.669 0.085-3.276 0.228-4.779 0.457m6.824-0.458c-2.341 2.231-4.307 4.842-6.064 7.658 3.589 0.127 6.818 0.611 9.783 1.363 1.415-2.509 3.339-5 5.154-7.05 0.255-0.289 0.733-0.619 0.608-0.832-2.829-0.712-5.924-1.159-9.481-1.139m62.484 1.748c-0.469-0.533-1.244-1.61-1.748-1.748-0.65-0.177-1.701 0.037-2.277 0.073-2.393 0.167-5.154 0.476-7.277 1.066 2.217 2.413 4.156 5.092 5.992 7.882 2.865-0.798 6.121-1.209 9.627-1.363-1.21-2.087-2.7-4.059-4.31-5.91m5.99 5.911c3.434 0 6.684 0.59 9.398 1.059-1.764-2.629-3.703-5.092-5.836-7.354-2.854-0.635-6.027-1.353-9.33-1.29 2.21 2.243 3.97 4.932 5.77 7.585m-57.328-6.14c-2.335 2.338-4.374 4.972-6.137 7.887 3.427 0.91 6.366 2.322 9.247 3.787 1.467-2.515 3.443-4.985 5.305-7.053 0.281-0.31 0.687-0.718 0.608-0.905-2.673-1.576-5.747-2.748-9.023-3.716m38.438 0c-3.312 0.952-6.304 2.237-9.092 3.716 2.205 2.489 4.312 5.086 6.064 8.038 2.721-1.631 5.811-2.887 9.174-3.867-1.73-2.946-3.76-5.583-6.14-7.887m-71.194 4.093c-1.118 0.832-1.997 2.174-2.881 3.261-0.92 1.139-1.877 2.247-2.501 3.487 2.465-1.277 5.154-2.333 8.113-3.11 1.258-2.221 2.902-4.522 4.473-6.369 0.208-0.239 0.567-0.447 0.536-0.757-2.612 1.226-5.613 1.907-7.74 3.488m101.22 3.638c2.996 0.767 5.67 1.864 8.191 3.11-0.729-1.214-1.596-2.374-2.506-3.487-0.848-1.056-1.742-2.337-2.805-3.186-0.945-0.762-2.438-1.266-3.785-1.896-1.383-0.64-3.131-1.383-4.176-1.591 1.92 2.135 3.67 4.426 5.09 7.05m-58.077-3.258c-2.392 2.312-4.416 4.99-6.147 7.962 3.001 1.649 5.539 3.766 7.963 5.991 1.727-2.951 3.88-5.476 6.069-7.962-2.403-2.226-4.957-4.298-7.885-5.991m17.668 0c-2.902 1.752-5.534 3.765-7.89 6.064 2.33 2.351 4.333 5.024 6.142 7.89 2.355-2.27 4.946-4.309 7.885-5.991-1.7-2.999-3.72-5.685-6.139-7.963m-73.702 11.146c1.539-1.321 3.282-2.429 5.076-3.487 0.988-1.823 2.403-3.612 3.417-5.157-3.136 2.524-6.304 5.427-8.493 8.644m124.65-3.488c1.848 0.965 3.637 2.385 5.164 3.415-2.48-3.139-5.34-6.291-8.57-8.42 1.3 1.505 2.4 3.211 3.41 5.005m-108.2-3.339c-1.477 2.8-2.866 5.682-3.792 9.026 2.959-0.702 6.179-1.149 9.778-1.214 0.795-2.876 1.939-5.814 3.183-8.191 0.161-0.296 0.494-0.626 0.385-0.985-3.49 0.155-6.6 0.683-9.554 1.364m7.354 7.812c3.635 0.127 6.954 0.575 9.934 1.365 0.926-3.443 2.252-6.493 3.792-9.328-3.021-0.647-6.158-1.175-9.783-1.214-1.712 2.663-2.944 5.807-3.943 9.177m68.462-7.963c1.529 2.866 2.762 6.041 3.869 9.328 2.893-0.827 6.211-1.222 9.783-1.365-0.873-3.451-2.299-6.348-3.791-9.177-3.66 0.034-6.83 0.548-9.86 1.214m15.02 7.963c3.619-0.005 6.979 0.655 9.859 1.134-1.051-3.217-2.33-6.215-3.869-8.945-2.965-0.694-6.1-1.225-9.631-1.365 1.42 2.854 2.79 5.746 3.64 9.176m-68.394-7.583c-1.644 2.759-2.985 5.81-3.87 9.325 3.458 0.869 6.376 2.268 9.252 3.716 0.9-3.446 2.325-6.369 3.792-9.25-2.829-1.495-5.84-2.8-9.174-3.791m52.014 0.076c-3.256 0.788-6.506 2.242-9.246 3.792 1.606 2.735 2.844 5.846 3.863 9.174 2.834-1.511 5.902-2.795 9.252-3.792-0.99-3.35-2.21-6.481-3.86-9.174m-84.847 3.944c-1.472 2.621-2.913 5.677-3.719 8.719 2.632-1.493 5.617-2.621 8.8-3.562 0.874-3.201 2.272-6.27 3.49-8.873-3.069 1.027-5.935 2.257-8.571 3.716m112.52 5.157c3.205 0.84 6.211 2.283 8.873 3.412-1.051-3.071-2.23-6.012-3.791-8.568-2.631-1.363-5.477-2.913-8.57-3.562 1.46 2.612 2.61 5.533 3.49 8.718m-53.752-6.748c-2.179 2.465-4.348 4.951-5.992 7.96 2.325 2.301 4.203 5.05 6.143 7.733 1.648-2.954 3.792-5.404 5.986-7.812-1.81-2.86-3.776-5.569-6.137-7.881m-19.415 11.294c1.42 0.884 2.834 1.792 4.171 2.809 1.327 1.006 2.502 2.195 3.792 3.029 0.91-3.359 2.294-6.246 3.792-9.021-2.444-2.231-5.024-4.325-7.962-6.067-1.484 2.86-2.862 5.833-3.793 9.25m35.037-9.175c-2.854 1.799-5.612 3.69-7.812 6.145 1.565 2.678 2.85 5.646 3.791 8.948 2.278-2.052 5.134-4.171 7.891-5.992-0.98-3.348-2.17-6.48-3.87-9.101m-80.223 3.487c-1.066 0.869-2.387 1.802-3.188 2.881-0.77 1.04-1.342 2.46-1.893 3.719-0.572 1.282-1.103 2.652-1.519 4.096 1.847-1.625 4.577-3.734 7.053-5.082 0.707-2.988 2.039-5.747 3.032-8.191-1.145 0.858-2.361 1.662-3.485 2.577m128.82 5.54c2.199 1.269 4.463 2.978 6.293 4.548 0.229 0.192 0.547 0.507 0.838 0.453-0.812-2.06-1.566-4.09-2.502-5.911-0.744-1.454-1.389-2.247-2.502-3.259-1.498-1.36-3.807-3.094-5.236-3.867 1.3 2.405 2.34 5.097 3.11 8.036m-116.84-3.34c-0.733 3.009-1.249 6.236-1.368 9.858 3.084-0.661 6.226-1.251 10.012-1.214-0.042-3.781 0.557-6.922 1.212-10.006-3.625 0.112-6.855 0.621-9.856 1.362m9.928 8.644c3.75-0.031 6.881 0.554 9.934 1.214 0.021-3.724 0.614-6.875 1.295-9.934-3.022-0.697-6.221-1.212-9.856-1.287-0.873 2.918-1.347 6.242-1.373 10.007m74.237-8.719c0.77 2.993 1.232 6.296 1.363 9.934 3.043-0.676 6.193-1.235 9.934-1.214-0.104-3.69-0.547-7.034-1.363-10.006-3.67 0.074-6.88 0.599-9.93 1.286m12.59 8.719c3.74-0.026 6.881 0.549 9.93 1.214-0.053-3.685-0.594-6.886-1.363-9.858-2.984-0.751-6.236-1.246-9.855-1.362 0.73 3.019 1.2 6.316 1.28 10.006m-74.235-8.339c-0.905 2.865-1.316 6.215-1.362 9.931 3.37 0.923 6.397 2.195 9.169 3.719 0.088-3.659 0.604-6.881 1.368-9.858-2.83-1.491-5.841-2.807-9.175-3.792m51.185 3.939c0.77 2.92 1.189 6.194 1.361 9.71 2.773-1.529 5.779-2.824 9.174-3.719-0.107-3.653-0.514-7.013-1.361-9.931-3.33 1.038-6.57 2.185-9.17 3.94m-84.169 0.081c-0.666 2.923-1.337 6.246-1.285 9.629 2.699-1.571 5.763-2.78 9.096-3.719 0.068-3.594 0.51-6.815 1.212-9.777h-0.156c-3.198 1.046-6.23 2.255-8.867 3.867m118.44 5.911c2.924 0.731 5.789 1.998 8.191 3.186 0.334 0.167 0.645 0.432 0.982 0.38-0.088-3.547-0.645-6.626-1.361-9.557-2.762-1.433-5.773-3.019-9.02-3.711 0.76 2.875 1.19 6.087 1.21 9.702m-65.817 0.156c2.138 2.405 4.213 4.889 5.992 7.658 0.738-2.343 1.576-4.613 2.652-6.753 0.271-0.538 1.087-1.599 1.061-2.119-0.021-0.39-0.967-1.646-1.29-2.125-1.409-2.088-3.25-4.262-4.702-5.763-1.45 2.817-2.74 5.804-3.713 9.102m17.891 3.638c1.02-1.285 2.236-2.418 3.11-3.638-0.926-3.323-2.174-6.322-3.719-9.029-2.309 2.291-4.238 4.964-5.986 7.814 1.451 2.77 2.777 5.667 3.797 8.873 0.893-1.352 1.788-2.733 2.802-4.02m64.236-8.948c-0.094-0.112-0.131-0.473-0.385-0.377 0.832 1.724 1.477 3.625 1.977 5.687 1.518 1.308 2.844 3.222 4.088 4.548-1.48-3.536-3.49-7.11-5.68-9.858m-148.78 9.858c0.593-0.772 1.17-1.589 1.893-2.429 0.655-0.746 1.732-1.464 2.122-2.275 0.437-0.879 0.51-2.023 0.837-2.954 0.333-0.944 0.801-1.721 0.988-2.652-2.272 3.06-4.535 6.539-5.84 10.31m56.107-0.304c2.335 1.534 4.92 3.206 6.901 5.006 0.234 0.213 0.437 0.751 0.832 0.608 0.083-3.43 0.655-6.376 1.295-9.252-2.055-2.299-4.91-4.447-7.812-6.145-0.691 2.977-1.216 6.119-1.216 9.783m40.799-9.783c-2.002 1.175-4.113 2.842-5.991 4.473-0.437 0.385-1.664 1.199-1.742 1.672-0.073 0.447 0.411 1.544 0.53 2.119 0.489 2.367 0.645 4.684 0.832 7.206 2.252-1.948 5.035-4.021 7.734-5.763-0.17-3.518-0.43-6.953-1.36-9.707m-88.413 3.258c-1.082 0.858-2.866 1.966-3.417 3.11-0.557 1.183-0.682 2.855-0.905 4.325-0.234 1.513-0.385 3.094-0.458 4.777 2.236-1.885 4.837-4.062 7.656-5.612 0-3.464 0.572-6.759 1.061-9.481-1.316 0.793-2.502 1.747-3.937 2.881m134.43 6.525c2.318 1.464 4.857 3.175 6.828 4.933 0.256 0.229 0.453 0.697 0.832 0.601-0.066-2.515-0.395-4.782-0.832-6.896-0.15-0.705-0.191-1.594-0.457-2.125-0.225-0.453-1.113-1.103-1.67-1.594-1.795-1.581-3.979-3.243-5.758-4.325 0.58 2.907 1.09 5.895 1.06 9.406m-119.8-3.415c0.078 3.669 0.593 6.896 1.29 9.934 3.063-0.676 6.194-1.285 9.934-1.29-0.65-3.063-1.248-6.184-1.212-9.931-3.786-0.018-6.97 0.564-10.012 1.287m22.447 9.783c-0.754-2.907-1.212-6.119-1.217-9.783-3.006-0.728-6.189-1.287-9.934-1.287-0.005 3.747 0.577 6.912 1.29 9.931 3.693-0.073 7.032 0.609 9.861 1.139m64.446-9.783c0 3.617-0.66 6.972-1.135 9.858 2.867-0.772 6.064-1.209 9.705-1.214 0.812-2.944 1.254-6.272 1.363-9.931-3.74-0.005-6.91 0.554-9.93 1.287m11.3-1.287c-0.25 3.513-0.568 6.964-1.363 9.931 3.734 0.01 6.881 0.603 9.934 1.29 0.744-2.998 1.273-6.205 1.285-9.934-2.97-0.728-6.14-1.282-9.85-1.287m-47.765 9.708c1.435 2.504 2.611 5.268 3.635 8.186 0.962-3.003 2.21-5.726 3.64-8.259-1.014-3.209-2.116-6.329-3.713-8.953-1.404 2.8-2.714 5.682-3.562 9.026m-60.892-4.172c0.073 3.643 0.5 6.936 1.29 9.853 2.767-1.581 5.83-2.858 9.252-3.786-0.78-2.993-1.232-6.301-1.363-9.937h-0.156c-3.266 1.028-6.313 2.284-9.023 3.87m43.298 9.476c-0.712-2.824-1.118-5.96-1.139-9.476-2.762-1.581-5.773-2.923-9.169-3.87 0.01 3.68 0.624 6.756 1.29 9.783 3.229 0.911 6.396 2.294 9.018 3.563m43.599-9.554c-0.094 3.472-0.463 6.663-1.133 9.554 2.787-1.352 5.621-2.663 8.945-3.49 0.729-3.003 1.248-6.236 1.361-9.856h-0.145c-3.3 0.979-6.26 2.295-9.03 3.792m32.91-3.791c-0.031 3.711-0.613 6.871-1.289 9.937 3.416 0.939 6.449 2.25 9.252 3.786 0.686-3.003 1.238-6.145 1.211-9.853-2.76-1.587-5.76-2.929-9.17-3.87m-50.271 8.191c0.755 2.684 1.145 5.729 1.44 8.87 1.072-1.825 2.689-3.726 4.172-5.383 0.468-0.528 1.311-1.246 1.436-1.742 0.156-0.601-0.031-1.794-0.073-2.577-0.125-2.423-0.692-5.352-1.14-6.977-2.149 2.408-4.135 4.97-5.841 7.809m-17.142 1.894c2.164 2.062 3.974 4.47 5.69 6.977 0.187-3.227 0.702-6.124 1.363-8.87-1.686-2.834-3.594-5.45-5.835-7.733-0.771 2.849-1.083 6.143-1.218 9.626m-65.661-3.563c-0.385 0.598-0.968 1.22-1.212 1.823-0.489 1.204-0.608 2.78-0.837 4.168-0.229 1.428-0.463 2.881-0.453 4.395 1.155-1.742 2.528-3.674 4.015-5.305 0.51-0.549 1.378-1.145 1.519-1.667 0.141-0.51-0.026-1.108 0-1.745 0.099-2.122 0.598-5.263 0.837-6.823-1.347 1.534-2.71 3.37-3.869 5.154m152.56 3.563c2.043 2.072 3.863 4.369 5.533 6.823-0.141-1.581-0.219-3.074-0.457-4.473-0.234-1.386-0.418-2.907-0.906-4.09-0.494-1.188-1.529-2.418-2.355-3.568-0.9-1.253-1.883-2.515-2.725-3.334 0.53 2.65 0.86 5.506 0.91 8.642m-146.58-1.059c-0.546 0.489-1.534 1.285-1.664 1.742-0.187 0.692 0.021 1.831 0.073 2.577 0.203 2.546 0.536 4.842 1.066 6.901 2.319-1.955 4.961-4.233 7.89-5.835-0.816-2.936-1.134-6.351-1.446-9.786-1.867 1.26-4.077 2.771-5.919 4.401m52.098 5.23c2.268 1.336 4.619 2.999 6.522 4.629 0.239 0.203 0.442 0.564 0.759 0.528-0.562-2.626-0.947-5.422-0.916-8.644-2.241-2.376-4.878-4.374-7.733-6.142 0.099 3.564 0.64 6.69 1.368 9.629m34.731-5.23c-0.562 0.502-1.545 1.3-1.67 1.742-0.177 0.643-0.036 1.545-0.072 2.273-0.125 2.312-0.453 4.356-0.91 6.371 0.354 0.112 0.525-0.33 0.754-0.528 2.008-1.727 4.374-3.227 6.527-4.702 0.738-2.824 1.42-6.111 1.285-9.557-1.9 1.338-4.08 2.761-5.92 4.401m49.36 5.386c2.99 1.628 5.486 3.757 7.963 5.911 0.604-2.988 1.107-6.072 1.133-9.629-2.293-2.301-4.861-4.335-7.732-6.067-0.07 3.642-0.58 6.849-1.36 9.785m-116.77-3.571c0.947 3.404 2.309 6.387 3.792 9.252 2.944-0.822 6.34-1.193 9.856-1.438-1.571-2.707-2.772-5.768-3.713-9.102-3.746-0.004-6.949 0.54-9.935 1.288m24.721 8.948c-1.545-2.652-2.653-5.736-3.641-8.948-3.032-0.66-6.09-1.287-9.778-1.287 0.952 3.391 2.278 6.413 3.864 9.174 3.542-0.051 6.803 0.578 9.555 1.061m58.913-8.948c-0.822 3.297-2.33 6.317-3.49 9.029 2.809-0.736 5.961-1.123 9.482-1.142 1.539-2.806 2.855-5.835 3.863-9.174-3.7 0.005-6.79 0.635-9.85 1.287m7.51 7.887c3.625 0.091 6.844 0.588 9.781 1.365 1.52-2.834 2.893-5.801 3.793-9.252-2.955-0.756-6.154-1.277-9.861-1.287-0.98 3.313-2.24 6.353-3.71 9.174m-43.675-4.397c-0.167 1.327-0.504 3.487-0.307 4.702 0.073 0.417 0.536 1.108 0.832 1.667 0.905 1.683 1.805 3.638 2.429 5.31 0.177-2.759 0.697-5.165 1.29-7.51-0.957-3.056-1.992-6.043-3.49-8.563-0.218 1.396-0.561 2.844-0.754 4.394m7.052-0.148c-0.447 1.139-1.435 3.199-1.445 4.397 0 0.512 0.25 1.152 0.385 1.742 0.4 1.831 0.635 3.638 0.983 5.534 0.354-1.142 0.863-2.25 1.44-3.49 0.432-0.916 1.508-2.45 1.664-3.334 0.131-0.687-0.021-1.597-0.072-2.429-0.141-2.268-0.567-5.092-1.061-6.667-0.583 1.275-1.264 2.632-1.894 4.247m47.693 6.293c3.463 0.879 6.381 2.307 9.246 3.786 1.541-2.806 2.871-5.82 3.793-9.25-2.793-1.571-5.883-2.855-9.248-3.867-0.93 3.446-2.27 6.481-3.79 9.331m-112.76-5.383c0.993 3.329 2.299 6.348 3.796 9.169 2.876-1.469 5.804-2.886 9.248-3.786-1.285-2.507-2.528-5.25-3.412-8.116-0.12-0.377-0.114-0.926-0.53-1.134-3.329 0.991-6.423 2.216-9.102 3.867m37.005 5.23c3.053 0.712 5.877 2.06 8.342 3.11-1.311-2.509-2.398-5.234-3.188-8.267-2.704-1.511-5.84-3.003-9.018-3.792 1.045 3.227 2.298 6.242 3.864 8.949m46.711-5.23c-0.728 3.066-2.127 5.856-3.104 8.415 2.475-1.336 5.205-2.424 8.264-3.186 1.42-2.77 3-5.789 3.713-9.021-3.21 1.012-6.11 2.338-8.87 3.792m-101.23 4.548c0.177 3.284 0.343 6.582 1.212 9.174 1.644-2.801 3.75-5.149 5.835-7.508-0.837-2.743-1.134-6.041-1.436-9.325-2.059 2.36-4.015 4.83-5.611 7.659m153.85 1.667c2.092 2.406 4.166 4.834 5.914 7.583 0.582-2.881 1.045-5.879 1.061-9.325-1.658-2.764-3.484-5.362-5.684-7.583-0.04 3.497-0.61 6.47-1.29 9.325m-84.54-2.2c0.156 0.751 0.182 1.602 0.452 2.125 0.229 0.447 0.858 0.895 1.29 1.363 1.316 1.427 2.486 2.931 3.562 4.4-0.421-2.333-0.614-4.894-0.681-7.583-1.675-2.621-3.417-5.178-5.534-7.357 0.048 2.429 0.474 5.029 0.911 7.052m18.802-1.592c-0.453 0.682-1.098 1.516-1.213 2.125-0.083 0.429 0.016 0.92 0 1.362-0.088 1.992-0.426 4.522-0.607 5.992 0.951-1.428 2.355-3.136 3.562-4.473 0.436-0.486 1.092-0.954 1.289-1.365 0.244-0.515 0.317-1.378 0.453-2.049 0.463-2.226 0.743-4.39 0.837-6.896-1.49 1.388-3.019 3.354-4.318 5.304m74.008 1.665c1.033 1.727 1.861 3.648 2.73 5.539-0.562-4.387-1.629-8.275-3.184-11.679 0.27 1.917 0.44 3.953 0.45 6.14m-166.14 5.466c0.099 0.224 0.161-0.091 0.151-0.081 0.473-0.89 0.723-1.724 1.139-2.577 0.447-0.916 1.217-1.951 1.441-2.881 0.468-1.906-0.031-4.091 0.379-5.992-1.431 3.452-2.497 7.264-3.11 11.531m12.513-2.733c0.994 3.253 2.2 6.296 3.719 9.021 2.314-2.049 5.149-4.244 7.958-6.064-1.571-2.775-2.798-5.896-3.87-9.172-2.814 1.859-5.586 3.76-7.807 6.215m135.95-6.14c-0.922 3.401-2.283 6.358-3.791 9.174 2.215 1.274 4.295 2.9 6.141 4.476 0.635 0.538 1.229 1.108 1.898 1.511 1.426-2.79 2.715-5.724 3.637-9.021-2.25-2.423-4.88-4.483-7.89-6.14m-48.76 3.183c-1.103 0.889-2.86 1.919-3.49 3.186-0.473 0.955-0.723 2.265-1.133 3.409-0.422 1.17-1.035 2.611-1.29 3.415 1.862-1.62 3.942-3.032 6.142-4.319 1.357-2.611 2.84-5.503 3.562-8.496-1.26 0.816-2.49 1.757-3.79 2.805m-30.707 5.763c1.924 0.991 3.88 2.439 5.461 3.719 0.187 0.143 0.442 0.458 0.681 0.377-1.03-2.109-1.862-4.403-2.501-6.902-2.257-2.06-4.53-4.111-7.276-5.687 0.899 3.141 2.236 5.853 3.635 8.493m-32.376-3.487c0.765 1.495 1.852 2.827 2.881 4.171 1.02 1.332 2.044 2.759 3.334 3.636 2.866-0.666 5.861-1.214 9.33-1.287-1.919-2.252-4.119-4.878-5.689-7.734-3.703-0.011-6.865 0.517-9.856 1.214m14.329 2.956c0.671 0.851 2.226 3.162 3.266 3.487 0.562 0.182 1.332 0.055 1.893 0.076 2.257 0.101 4.629 0.494 6.751 0.91-1.732-2.135-3.745-4.65-5.237-7.282-2.913-0.671-6.2-1.378-9.627-1.287 0.894 1.4 1.768 2.572 2.954 4.096m60.284-2.808c-1.477 2.702-3.344 4.996-5.232 7.282 2.684-0.596 5.701-0.869 8.873-0.986 2.268-2.281 4.301-4.792 5.986-7.658-3.57 0.101-6.68 0.649-9.63 1.362m11.3-1.363c-1.518 2.413-3.348 4.837-5.164 6.901-0.238 0.278-0.65 0.65-0.525 0.833 3.406 0.127 6.502 0.575 9.252 1.368 2.439-2.263 4.416-4.985 6.217-7.887-3-0.677-6.12-1.215-9.78-1.215m-38.07 13.346c1.17-3.446 0.858-8.35-0.073-11.902-0.696 3.658-1.201 8.527 0.073 11.902m-44.811-5.612c-1.618-1.886-3.105-3.942-4.322-6.143h-0.151c-3.323 0.975-6.345 2.255-9.102 3.794 1.664 3.014 3.781 5.576 6.064 7.96 2.699-1.55 5.633-2.871 8.956-3.792-0.274-0.722-0.94-1.228-1.445-1.819m93.951-6.142c-0.842 1.529-1.846 2.887-2.881 4.247-0.994 1.298-2.08 2.491-2.959 3.716 3.359 0.915 6.277 2.265 9.023 3.792 2.262-2.416 4.348-5.001 6.064-7.96-2.82-1.525-5.82-2.867-9.24-3.795m31.09 8.948c1.496 2.338 2.484 5.193 3.635 7.887 0.213-1.357 0.463-2.684 0.607-4.096 0.137-1.412 0.438-3.03 0.225-4.548-0.178-1.261-0.863-2.77-1.363-4.096-0.545-1.448-1.236-2.907-1.742-3.867-0.18 3.191-0.69 6.042-1.37 8.72m-163.64-4.624c-0.515 1.355-1.217 2.809-1.363 4.096-0.161 1.448 0.146 3.017 0.302 4.395 0.167 1.438 0.25 2.822 0.681 4.096 0.635-2.221 1.519-4.155 2.507-6.14 0.286-0.593 0.947-1.456 0.983-1.971 0.026-0.437-0.312-1.219-0.452-1.896-0.411-1.924-0.729-4.917-0.988-6.6-0.568 1.178-1.088 2.504-1.67 4.02m64.225 3.337c2.59 0.569 5.014 1.703 7.131 2.501-1.659-1.836-3.095-3.882-4.327-6.14-2.626-1.396-5.586-2.86-8.566-3.643 1.69 2.658 3.656 5.043 5.762 7.282m35.561-3.638c-1.18 2.203-2.912 4.265-4.17 6.14 1.555-0.772 3.338-1.428 5.002-1.971 0.588-0.198 1.354-0.281 1.82-0.53 0.557-0.299 1.088-1.087 1.592-1.669 1.602-1.826 3.059-3.625 4.244-5.612-3.14 0.893-5.87 2.209-8.48 3.642m-14.33 7.96c0.26-1.181 1.274-2.125 1.742-3.339 0.416-1.063 0.546-2.522 0.765-3.864 0.219-1.375 0.541-3.11 0.452-4.247-1.405 3.349-3.302 6.605-2.959 11.45m-4.021 0.075c0.068-4.92-1.534-8.176-3.11-11.45 0.219 4.634 1.155 8.553 3.11 11.45m71.131-1.667c2.295 2.301 4.24 4.959 6.064 7.734 0.994-2.029 2.107-4.218 2.881-6.52 0.23-0.676 0.744-1.906 0.682-2.504-0.057-0.541-0.863-1.415-1.289-2.049-1.41-2.114-3.018-4.314-4.545-5.763-0.93 3.365-2.33 6.262-3.78 9.102m-142.25-9.026c-1.492 1.628-3.183 3.648-4.551 5.688-0.369 0.564-1.186 1.677-1.211 2.125-0.031 0.58 0.541 1.703 0.759 2.348 0.832 2.489 1.779 4.639 2.881 6.6 1.269-2.174 2.897-4.192 4.473-5.992 0.551-0.624 1.108-1.225 1.519-1.896-1.597-2.653-2.684-5.812-3.87-8.873m76.963 11.45c0.587-1.113 1.815-1.737 2.579-2.8 0.719-1.012 1.279-2.434 1.815-3.644 0.567-1.264 1.093-2.572 1.446-3.867-2.382 2.952-5.028 6.046-5.84 10.311m-7.734-0.148c-0.712-2.881-1.956-4.949-3.412-6.977-0.629-0.874-1.29-1.69-1.893-2.429-0.167-0.192-0.312-0.58-0.609-0.528 1.41 3.82 3.106 7.759 5.914 9.934m-55.811-8.192c-2.788 1.885-5.638 3.711-7.807 6.22 1.758 2.842 3.766 5.432 5.992 7.807 2.46-2.236 5.102-4.299 7.962-6.14-2.381-2.296-4.233-5.117-6.147-7.887m119.2 0c-1.68 2.993-3.875 5.474-5.992 8.035 2.117 1.241 4.223 2.712 6.07 4.325 0.229 0.198 1.502 1.693 1.82 1.667 0.279-0.021 1.346-1.454 1.664-1.82 1.689-1.94 3.15-4.023 4.4-6.143-2.43-2.241-5-4.345-7.96-6.064m-64.98 9.479c-0.889-0.895-1.212-2.104-1.966-3.11-0.786-1.038-2.086-1.88-3.11-2.725-1.103-0.918-2.169-1.854-3.333-2.429 2.287 3.216 4.804 6.612 8.409 8.264m15.85-5.763c-1.004 0.812-2.206 1.646-2.955 2.58-0.779 0.962-1.103 2.231-1.977 3.183 3.656-1.831 6.293-5.081 8.265-8.34-1.08 0.798-2.2 1.662-3.33 2.577m-38.141 2.12c-1.186-0.957-2.283-2.338-3.407-2.954-0.213-0.117-1.654 0.062-1.971 0.073-2.533 0.117-5.086 0.624-7.437 1.066 0.375 0.606 0.993 1.145 1.591 1.667 1.29 1.103 2.45 1.961 3.947 2.957 0.494 0.335 1.67 1.235 2.195 1.287 0.463 0.049 1.441-0.32 2.049-0.453 2.268-0.494 4.41-0.702 6.751-0.985-1.212-0.703-2.429-1.613-3.718-2.658m51.791 2.733c2.424 0.138 4.566 0.463 6.672 0.91 0.65 0.138 1.645 0.518 2.123 0.453 0.531-0.062 1.623-0.952 2.127-1.287 0.801-0.539 1.41-1.017 1.967-1.438 1.393-1.05 2.734-2.002 3.566-3.186-2.906-0.64-6.043-1.038-9.48-1.139-2.12 2.108-4.5 3.949-6.98 5.687m-49.363-2.578c0.967 0.708 2.668 2.226 3.792 2.502 1.16 0.283 2.626 0.122 3.864 0.229 1.279 0.102 2.408 0.31 3.562 0.38-1.03-0.65-1.981-1.396-3.027-2.275-0.806-0.676-1.935-2.085-2.809-2.502-1.981-0.944-6.688-1.167-9.102-1.29 1.084 0.944 2.253 1.885 3.72 2.956m47.243-2.124c-0.688 0.148-1.482 0.153-1.973 0.377-0.447 0.208-0.904 0.869-1.361 1.295-1.473 1.336-3.043 2.501-4.474 3.638 2.283-0.437 4.843-0.614 7.499-0.684 2.258-1.363 4.666-3.105 6.602-4.777 0.275-0.239 0.773-0.569 0.607-0.762-2.4 0.071-4.86 0.476-6.91 0.913m-64.151 0.606c-3.292 0.926-6.23 2.21-9.023 3.643 0.822 1.188 2.153 2.179 3.562 3.259 0.598 0.452 1.295 0.938 2.044 1.438 0.551 0.369 1.654 1.358 2.2 1.362 0.483 0.014 1.513-0.787 2.054-1.058 2.221-1.118 4.499-1.891 6.746-2.728-2.819-1.683-5.243-3.76-7.583-5.916m84.391 0c-2.283 2.236-4.836 4.213-7.576 5.992 3.26 0.959 6.178 2.265 8.867 3.791 2.85-1.805 5.58-3.721 7.885-6.064-2.82-1.483-5.83-2.77-9.18-3.719m-48.905 6.597c-2.533-2.725-6.257-4.665-10.163-5.76 2.897 2.359 5.955 4.962 10.163 5.76m19.715-4.322c-1.165 0.531-2.538 1.053-3.489 1.745-1.062 0.772-1.805 1.929-2.736 2.652 2.84-0.728 4.945-1.88 6.979-3.334 0.858-0.611 1.69-1.266 2.429-1.896 0.197-0.172 0.578-0.382 0.531-0.682-1.2 0.511-2.48 0.954-3.71 1.515m63.01 8.264c1.51 2.667 2.73 5.619 3.797 8.724 0.953-2.008 1.986-4.121 2.73-6.371 0.26-0.793 0.691-1.745 0.682-2.428-0.016-0.611-0.422-1.5-0.682-2.273-0.744-2.226-1.887-4.819-2.809-6.444-0.93 3.248-2.27 6.073-3.72 8.792m-159.23-0.075c0.937 3.155 1.95 6.239 3.562 8.719 0.905-3.238 2.242-6.043 3.714-8.719-1.639-2.536-2.673-5.661-3.87-8.642-1.331 2.684-2.512 5.522-3.406 8.642m145.58 0.075c2.33 2.343 4.311 5.039 6.141 7.888 2.242-2.406 4.287-5.012 5.992-7.963-1.814-2.837-3.744-5.56-6.068-7.887-1.67 3.003-3.82 5.523-6.06 7.962m-130.87-7.881c-2.215 2.379-4.27 4.933-5.913 7.882 1.711 2.908 3.703 5.548 5.991 7.888 1.732-2.939 3.87-5.48 6.064-7.963-2.335-2.323-4.239-5.064-6.142-7.807m153.09 7.881c0.557 1.921 0.879 4.076 1.217 6.22 0.494-3.898 0.639-8.67-0.078-12.435-0.19 2.268-0.65 4.255-1.14 6.215m-170.3 5.992c0.114-1.066 0.328-2.008 0.525-3.035 0.192-0.98 0.619-2.098 0.608-3.032-0.01-0.931-0.5-1.922-0.681-2.881-0.203-1.048-0.193-2.07-0.536-3.11-0.452 3.708-0.587 8.474 0.084 12.058m33.13-12.058c-2.908 1.743-5.529 3.771-7.885 6.067 2.424 2.251 5.019 4.335 7.962 6.068 2.304-2.35 4.993-4.311 7.807-6.143-2.985-1.634-5.404-3.845-7.884-5.992m111.24 7.658c0.373-0.322 1.84-1.255 1.82-1.667-0.016-0.28-1.467-1.292-1.82-1.592-1.895-1.625-4.141-3.349-6.064-4.4-2.398 2.234-4.979 4.278-7.812 6.067 2.102 1.342 4.275 2.806 6.064 4.4 0.613 0.543 1.092 1.256 1.82 1.592 2.11-1.209 4.17-2.806 5.99-4.4m-79.012-5.991c-0.895-0.463-1.457-0.824-2.351-0.754-2.834 0.224-5.851 0.234-8.415 1.058 1.945 1.017 4.036 1.896 6.288 2.658 0.733 0.244 1.617 0.73 2.278 0.756 0.515 0.021 1.144-0.324 1.742-0.452 1.904-0.411 3.729-0.624 5.763-0.91-1.784-0.518-3.719-1.519-5.305-2.356m42.462-0.83c-0.17-0.026-0.229 0.102-0.307 0.148-1.918 1.146-4.701 2.286-6.75 3.11 2.746 0.182 5.19 0.67 7.51 1.29 3.109-0.931 6.059-2.028 8.639-3.489-2.85-0.84-6.06-0.643-9.09-1.059m-29.496 3.185c-2.642-1.711-7.229-3.011-11.453-2.957 3.35 1.402 6.657 3.249 11.453 2.957m18.346-1.822c-1.305 0.468-2.34 1.508-3.567 1.896 1.337-0.307 2.56 0.021 3.792-0.153 1.352-0.187 2.809-0.819 4.02-1.29 1.29-0.494 2.523-1.074 3.641-1.667-2.85 0.363-5.58 0.384-7.88 1.214m-40.107 2.199c-1.389-0.611-2.647-1.544-3.942-1.971-0.031-0.011-0.13-0.011-0.156 0-2.918 0.928-6.194 2.088-8.8 3.638 2.762 1.465 5.752 2.695 9.029 3.644 2.439-1.535 5.326-2.612 8.187-3.719-1.478-0.434-2.908-0.968-4.318-1.592m62.177-1.97c-2.492 1.458-5.273 2.616-8.191 3.638 3.021 0.941 5.742 2.201 8.264 3.644 3.188-1.033 6.365-2.078 8.945-3.719-2.76-1.428-5.67-2.716-9.01-3.563m-44.286 2.8c-2.897-0.338-5.893 0.492-8.337 0.838 3.713 0.762 8.582 1.251 11.978-0.075-1.181 0.018-2.413-0.612-3.641-0.763m18.958 0.837c1.217 0.041 2.47 0.682 3.791 0.838 2.777 0.316 5.746-0.562 8.113-0.913-3.65-0.718-8.52-1.186-11.898 0.075m-30.254 0.682c-0.536-0.062-1.737 0.479-2.351 0.682-2.257 0.751-4.322 1.726-6.215 2.732 2.106 0.432 4.307 0.84 6.673 0.986 0.775 0.047 1.784 0.229 2.497 0.072 0.473-0.1 1.024-0.6 1.597-0.904 1.701-0.916 3.672-1.516 5.154-2.354-2.706 0.02-5.108-0.937-7.355-1.214m49.592 1.443c-1.461-0.574-3.156-1.302-4.629-1.443-0.488-0.042-1.223 0.346-1.742 0.457-1.867 0.396-3.599 0.513-5.461 0.91 1.722 0.502 3.594 1.473 5.16 2.275 0.576 0.299 1.205 0.742 1.664 0.83 0.707 0.141 1.664-0.025 2.428-0.072 2.461-0.15 4.697-0.498 6.674-1.061-1.27-0.537-2.61-1.316-4.09-1.896m-70.448-1.363c-1.488 0.835-2.954 1.826-4.317 2.882-1.295 0.994-2.621 1.98-3.49 3.186 2.028 1.068 4.192 2.049 6.595 2.875 0.551 0.189 1.909 0.84 2.429 0.76 0.463-0.072 1.249-1.16 1.742-1.592 1.919-1.678 3.901-3.008 5.841-4.4-3.276-0.899-6.075-2.262-8.8-3.711m86.828 0c-2.658 1.486-5.508 2.781-8.723 3.71 1.98 1.393 3.9 2.846 5.762 4.477 0.479 0.418 1.42 1.469 1.898 1.516 0.475 0.049 1.857-0.559 2.424-0.76 2.449-0.857 4.691-1.875 6.596-3.031-2.48-2.156-4.96-4.291-7.96-5.912m-104.87 0.149c-2.195 2.455-4.333 4.974-5.992 7.962 2.372 2.307 4.952 4.4 7.963 6.066 1.669-2.977 3.792-5.508 5.991-7.961-2.985-1.692-5.496-3.856-7.962-6.066m122.83 0c-2.314 2.361-5.014 4.33-7.879 6.142 2.334 2.314 4.291 5.012 6.064 7.887 2.98-1.721 5.637-3.77 7.963-6.141-1.82-2.842-3.76-5.58-6.14-7.886m7.82 8.267c1.566 2.658 2.768 5.666 3.793 8.873 2.221-2.025 4.207-4.943 5.908-7.74-1.016-3.221-2.145-6.342-3.709-9.02-1.67 2.966-3.87 5.396-5.99 7.89m-148.02 1.215c1.404 2.459 3.339 4.945 5.159 6.969 0.255 0.293 0.504 0.838 0.754 0.689 1.004-3.217 2.185-6.26 3.792-8.873-2.252-2.398-4.244-5.061-6.142-7.814-1.421 2.782-2.706 5.686-3.563 9.032m59.903-5.311c4.551-0.299 8.561-1.139 11.447-3.111-4.977-0.121-8.165 1.541-11.447 3.111m29.792-1.291c2.361 0.891 5.259 0.916 8.041 1.215-3.312-1.416-6.568-3.289-11.374-2.957 1.164 0.289 2.105 1.279 3.334 1.742m-95.38 2.957c-0.162 1.402-0.39 3.061-0.229 4.326 0.172 1.361 0.863 2.869 1.363 4.17 0.556 1.426 1.118 2.783 1.748 3.865 0.213-2.354 0.468-4.457 0.91-6.518 0.135-0.645 0.504-1.533 0.452-2.051-0.047-0.443-0.687-1.227-0.983-1.816-0.967-1.924-1.924-4.373-2.58-6.146-0.249 1.201-0.515 2.678-0.681 4.162m164.77 3.87c0.773 2.557 1.076 5.592 1.436 8.568 0.52-1.145 1.117-2.443 1.668-3.867 0.5-1.295 1.207-2.801 1.363-4.17 0.354-3.041-0.535-5.842-0.904-8.568-0.98 2.902-2.21 5.531-3.57 8.038m-97.138-0.835c1.253-0.52 2.605-0.947 3.87-1.518 1.196-0.537 2.595-1.113 3.562-1.82 1.056-0.768 1.789-1.949 2.73-2.654-4.248 1.082-7.546 3.527-10.162 5.992m24.262-5.31c0.728 0.641 1.482 1.535 2.2 2.053 0.973 0.697 2.371 1.203 3.562 1.74 1.274 0.57 2.569 1.15 3.791 1.439-1.004-0.838-2.064-1.695-3.183-2.498-0.999-0.721-2.314-1.816-3.407-2.275-1.07-0.453-2.309-0.443-3.416-1.064-0.101 0.243 0.268 0.446 0.45 0.605m-40.187 0.533c-2.876 1.699-5.544 3.607-7.806 5.912 2.943 0.623 6.022 1.107 9.554 1.141 2.189-2.057 4.535-3.957 7.053-5.688-3.241-0.149-6.143-0.634-8.801-1.364m65.663 0.076c-2.543 0.564-5.752 1.123-8.873 1.363 1.795 1.143 3.797 2.57 5.467 4.096 0.498 0.463 1.154 1.381 1.664 1.518 0.639 0.174 1.824-0.033 2.58-0.074 2.469-0.148 4.773-0.656 6.896-1.066-2.07-2.15-4.85-4.244-7.74-5.836m-25.392 3.562c0.77 1.033 2.076 1.896 3.105 2.732 1.117 0.906 2.184 1.816 3.339 2.422-2.33-3.232-4.858-6.668-8.499-8.34 0.933 0.905 1.277 2.153 2.057 3.186m-16.154-1.214c-0.9 0.73-1.841 1.961-2.652 2.963-0.916 1.117-1.94 2.551-2.429 3.406 3.204-2.246 6.61-4.713 8.191-8.34-0.869 0.913-2.138 1.188-3.11 1.972m-11.452-0.985c-0.416 0.02-0.941-0.092-1.363 0-0.562 0.121-1.373 0.766-2.049 1.213-1.742 1.168-3.198 2.318-4.624 3.562-0.265 0.234-0.775 0.555-0.608 0.764 2.481-0.062 4.691-0.406 6.75-0.838 0.723-0.148 1.571-0.18 2.122-0.453 0.406-0.199 0.879-0.85 1.363-1.287 1.347-1.219 3.458-2.824 4.4-3.643-1.821 0.394-4.026 0.605-5.991 0.687m38.668 2.881c0.5 0.451 0.879 1.133 1.373 1.367 0.551 0.268 1.414 0.305 2.117 0.453 2.221 0.475 4.389 0.775 6.9 0.838-1.389-1.525-3.41-2.93-5.383-4.25-0.695-0.463-1.393-1.152-2.043-1.289-0.422-0.086-0.937 0.02-1.368 0-2.007-0.086-4.634-0.428-6.069-0.607 1.52 1.035 3.09 2.228 4.47 3.484m-25.016 0.156c-0.702 0.977-1.212 2.314-1.742 3.486-0.552 1.199-0.999 2.486-1.519 3.711 0.281 0.092 0.458-0.281 0.609-0.453 2.309-2.715 4.452-5.666 5.227-9.553-0.625 1.116-1.821 1.751-2.575 2.807m11.448 0.828c0.229 0.555 0.759 1.174 1.133 1.748 0.988 1.49 1.986 2.918 3.037 4.168 0.188 0.225 0.541 0.721 0.682 0.533-1.436-3.871-3.037-7.582-5.913-10.012 0.551 1.158 0.57 2.402 1.061 3.564m-8.796 0.608c-0.411 1.117-0.551 2.514-0.759 3.793-0.218 1.309-0.479 2.699-0.38 4.096 1.41-3.328 3.277-6.676 2.959-11.451-0.275 1.256-1.341 2.274-1.82 3.561m8.946 7.96c-0.442-2.869-0.406-5.697-1.29-8.035-0.474-1.252-1.446-2.23-1.82-3.414-0.12 4.984 1.518 8.194 3.11 11.454m-5.914-7.58c-0.317 2.865 0.468 5.842 0.832 8.264 0.759-3.68 1.269-8.562-0.073-11.908 0.011 1.186-0.618 2.407-0.759 3.648m-51.489-3.564c-2.325 2.348-4.431 4.92-6.064 7.963 2.85 1.447 5.742 2.852 9.174 3.715 1.467-2.492 3.396-4.947 5.237-6.977 0.275-0.305 0.671-0.723 0.608-0.91-3.244-1-6.214-2.282-8.955-3.794m104.57 0c-2.725 1.529-5.684 2.811-8.949 3.791 0.951 1.193 2.012 2.461 3.031 3.791 1.025 1.342 1.951 2.785 2.959 4.096 3.324-0.996 6.455-2.189 9.098-3.865-1.85-2.81-3.73-5.587-6.14-7.824m-71.353 4.024c-2.179 2.227-4.161 4.641-5.84 7.355 3.11-0.938 5.856-2.232 8.493-3.637 1.212-2.225 2.923-4.354 4.244-6.219-2.117 1.01-4.374 1.889-6.897 2.499m35.483 3.72c2.668 1.369 5.383 2.699 8.488 3.637-1.133-2.014-2.689-3.865-4.244-5.613-0.52-0.586-1.024-1.453-1.592-1.742-0.451-0.229-1.217-0.34-1.82-0.533-1.7-0.533-3.895-1.428-5.158-1.895 1.66 1.815 3.05 3.905 4.32 6.135m-87.58 1.28c-0.198 0.561-0.749 1.998-0.682 2.424 0.078 0.479 1.295 1.348 1.748 1.748 1.956 1.725 3.921 3.137 6.064 4.393 0.973-3.396 2.288-6.455 3.869-9.25-3.037-1.641-5.528-3.82-8.035-5.986-0.977 1.916-2.142 4.356-2.964 6.676m139.3-6.67c-2.355 2.275-4.957 4.293-7.889 5.986 1.465 2.881 2.912 5.783 3.791 9.25 2.969-1.709 5.602-3.75 7.885-6.141-0.95-3.34-2.14-6.45-3.78-9.1m-115.94 9.7c2.897 0.797 6.226 1.164 9.783 1.291 1.44-2.398 3.24-4.885 5.003-6.902 0.26-0.299 0.739-0.588 0.609-0.832-3.365-0.195-6.455-0.67-9.331-1.361-2.314 2.31-4.347 4.89-6.064 7.8m91.223-6.06c-0.334-0.365-1.416-1.92-1.898-1.742-2.471 0.889-5.832 1.045-9.176 1.361 1.457 1.686 2.996 3.582 4.395 5.689 0.369 0.547 1.004 1.906 1.447 2.045 0.207 0.07 0.66-0.07 0.832-0.076 2.896-0.143 6.24-0.428 8.795-1.215-1.18-2.08-2.81-4.28-4.4-6.05m-31.55 5.46c2.237 2.014 4.655 4.244 7.281 5.615-0.972-3.043-2.263-5.773-3.636-8.416-2.252-1.193-4.384-2.902-6.22-4.252 1.08 2.14 1.91 4.52 2.58 7.06m-27.297-2.81c-1.384 2.582-2.887 5.449-3.563 8.488 1.222-0.84 2.507-1.719 3.792-2.725 0.973-0.762 2.871-2.133 3.412-3.186 0.483-0.949 0.728-2.287 1.139-3.414 0.421-1.172 1.045-2.637 1.29-3.416-1.873 1.59-3.896 3-6.07 4.26m90.387 1.6c-0.406 0.441-1.461 1.391-1.52 1.814-0.057 0.459 0.334 1.51 0.459 2.129 0.447 2.24 0.832 4.498 0.832 7.125 1.533-1.408 3.057-3.531 4.395-5.535 0.479-0.711 1.164-1.459 1.289-2.123 0.131-0.662-0.031-1.6-0.072-2.424-0.125-2.318-0.635-5.172-1.061-6.83-1.14 1.95-2.7 4.08-4.32 5.85m-155.37 3.48c1.353 2.385 3.209 4.779 4.931 6.746 0.218 0.258 0.379 0.74 0.754 0.686 0.177-3.338 0.635-6.395 1.363-9.174-2.158-2.307-4.15-4.795-5.908-7.51-0.724 2.74-1.005 5.91-1.14 9.24m50.043-8.11c-1.961 1.92-3.948 4.369-5.461 6.674-0.192 0.299-0.479 0.645-0.453 0.984 3.547-0.066 6.616-0.611 9.476-1.361 1.503-2.619 3.531-5.113 5.237-7.279-2.62 0.65-5.601 0.93-8.799 0.99m56.044 4.47c0.396 0.625 0.859 1.559 1.285 1.82 0.525 0.318 1.4 0.377 2.123 0.527 2.34 0.488 4.691 0.799 7.281 0.834-1.104-2.119-2.668-4.029-4.328-5.91-0.52-0.602-1.17-1.592-1.742-1.748-0.619-0.168-1.58-0.031-2.346-0.072-2.195-0.123-4.832-0.613-6.443-0.838 1.4 1.4 2.96 3.51 4.18 5.39m-19.191 3.72c1.395 2.318 3.126 4.793 4.854 6.748 0.218 0.25 0.613 0.742 0.754 0.605-0.162-1.633-0.234-3.193-0.453-4.701-0.177-1.209-0.41-3.307-0.91-4.324-0.197-0.398-0.832-0.873-1.289-1.363-1.233-1.336-2.84-3.418-3.641-4.398 0.476 2.22 0.674 4.73 0.689 7.42m-15.925-3.04c-0.416 0.459-1.092 1.018-1.285 1.443-0.244 0.51-0.322 1.385-0.463 2.045-0.458 2.236-0.691 4.395-0.827 6.9 2.06-1.91 3.9-4.689 5.534-7.277 0.016-2.643 0.359-5.348 0.603-7.51-0.992 1.55-2.314 3.05-3.562 4.41m5.16 1.9c-0.322 0.602-0.832 1.16-0.915 1.666-0.229 1.52 0.203 3.232 0.379 4.703 0.182 1.529 0.359 3.031 0.759 4.398 1.332-2.688 2.522-5.518 3.412-8.643-0.661-2.297-1.02-4.9-1.363-7.51-0.592 1.74-1.409 3.74-2.272 5.38m5.762-1.29c-0.218 1.182-0.78 2.412-0.765 3.414 0.016 0.682 0.438 1.549 0.687 2.275 0.78 2.283 1.665 4.426 2.73 6.293 0.63-2.779 1.03-5.795 1.056-9.174-1.223-2.09-2.23-4.391-3.183-6.748-0.198 1.2-0.285 2.65-0.525 3.94m81.664 0.16c-0.438 0.92-1.279 1.83-1.445 2.725-0.068 0.391 0.014 0.826 0 1.215-0.068 1.629-0.309 3.271-0.381 4.852 1.352-3.525 2.721-7.439 3.033-11.754-0.34 0.92-0.71 1.89-1.2 2.95m-164.39 8.71c-0.406-1.92-0.192-3.928-0.379-5.762-0.099-0.979-0.968-1.959-1.441-2.953-0.484-1.016-0.941-2.145-1.29-2.809 0.504 4.37 1.617 8.13 3.11 11.52m22.14-11.22c-1.487 2.861-2.829 5.865-3.796 9.25 2.777 1.6 5.872 2.877 9.252 3.867 0.988-3.365 2.283-6.41 3.792-9.25-3.366-1.01-6.434-2.32-9.248-3.87m118.13 0c-2.715 1.656-5.934 2.812-9.174 3.943 1.596 2.725 2.834 5.809 3.791 9.174 3.391-1.006 6.584-2.211 9.248-3.945-1-3.34-2.23-6.44-3.87-9.16m-38.21 9.17c2.752 1.496 5.639 2.855 8.945 3.793-0.936-3.309-2.293-6.195-3.785-8.949-3.043-0.777-5.949-2.088-8.42-3.184 1.37 2.5 2.41 5.34 3.26 8.34m-46.784-5.15c-1.451 2.795-2.824 5.672-3.792 8.949 3.344-0.926 6.22-2.318 9.018-3.793 0.692-3.078 2.055-5.885 3.11-8.34-2.579 1.26-5.299 2.38-8.336 3.18m-47.469 9.63c2.289 2.258 4.8 4.301 7.656 5.986 0.151-3.541 0.593-6.785 1.373-9.703-2.876-1.758-5.529-3.729-7.89-5.99-0.613 3-1.175 6.05-1.139 9.7m145.28 1.59c0.547-0.494 1.541-1.246 1.664-1.82 0.152-0.641-0.092-1.631-0.15-2.43-0.15-2.373-0.52-5.33-1.055-6.977-2.373 2.238-5.088 4.117-7.818 5.992 0.693 2.957 1.234 6.051 1.291 9.629 2.14-1.26 4.21-2.71 6.08-4.39m-124.2-1.74c3.048 0.697 6.278 1.205 9.934 1.289 0.884-3.441 2.241-6.4 3.713-9.25-3.683-0.006-6.777-0.602-9.783-1.291-1.627 2.74-2.907 5.83-3.864 9.25m91.144-7.96c1.342 2.678 2.793 5.9 3.713 9.25 3.635-0.084 6.844-0.586 9.861-1.289-0.947-3.445-2.17-6.631-3.943-9.252-2.91 0.72-6.01 1.27-9.63 1.29m-76.05 0.07c-1.498 2.832-2.892 5.752-3.792 9.176 3.615-0.123 6.844-0.639 9.851-1.363 0.827-3.324 2.143-6.156 3.49-8.945h-0.151c-2.799 0.71-6.002 1.02-9.398 1.13m68.54 7.81c2.959 0.701 6.381 1.352 9.855 1.289-1.029-3.291-2.303-6.336-3.863-9.102-3.459-0.027-6.771-0.613-9.555-1.061 1.49 2.66 2.63 5.67 3.56 8.87m-50.951-3.41c-0.718 2.951-1.269 6.061-1.368 9.629 2.189-1.217 4.046-2.756 5.918-4.395 0.629-0.551 1.544-1.107 1.742-1.746 0.151-0.49 0.047-1.264 0.073-1.895 0.094-2.139 0.629-5.238 0.837-6.824-2.188 1.95-4.554 3.73-7.202 5.23m39.351 0.07c-2.512-1.607-4.957-3.287-7.131-5.229-0.005-0.08-0.099-0.061-0.078 0.074 0.562 2.625 0.89 5.484 0.91 8.643 1.898 2.01 4.332 3.945 6.673 5.463 0.302 0.188 0.63 0.547 0.989 0.457-0.08-3.5-0.58-6.58-1.36-9.4m-14.631 6c1.731 2.814 3.573 5.523 5.913 7.734 0.463-2.195 0.812-4.494 0.988-6.971 0.047-0.764 0.322-1.855 0.146-2.506-0.104-0.402-0.983-1.17-1.436-1.672-1.514-1.662-3.251-3.936-4.25-5.459-0.14 3.28-0.648 6.18-1.361 8.88m-15.697-3.42c-0.447 0.506-1.352 1.283-1.446 1.672-0.135 0.613 0.104 1.717 0.156 2.424 0.182 2.568 0.504 4.811 0.983 6.979 1.186-0.826 2.138-2.174 3.188-3.566 0.416-0.553 0.905-1.172 1.436-1.967 0.359-0.535 1.243-1.643 1.29-2.205 0.042-0.438-0.312-1.381-0.453-2.047-0.432-2.041-0.759-4.664-0.983-6.672-1.024 1.78-2.678 3.71-4.171 5.4m-69.156-0.83c0.234 1.434 0.39 2.965 0.837 4.094 0.244 0.623 0.827 1.232 1.212 1.82 1.045 1.592 2.049 3.068 3.188 4.398 0.192 0.219 0.53 0.719 0.681 0.531-0.551-2.537-0.874-5.295-0.837-8.42-2.07-2.025-3.973-4.619-5.606-6.824 0.14 1.51 0.296 3 0.525 4.4m156.04 0.91c-0.508 0.559-1.295 1.098-1.434 1.592-0.193 0.639-0.047 1.539-0.078 2.277-0.1 2.227-0.475 4.188-0.832 6.211 0.973-0.854 1.777-2.061 2.652-3.256 0.832-1.154 1.887-2.346 2.428-3.719 0.947-2.43 1.035-5.342 1.291-8.416-1.08 1.65-2.57 3.72-4.03 5.32m-78.852 1.59c-0.317 0.635-0.952 1.529-0.983 1.971-0.047 0.604 0.541 1.701 0.754 2.346 0.822 2.471 1.722 4.701 2.881 6.605 1.513-2.715 2.683-5.764 3.64-9.029-1.539-2.424-2.621-5.311-3.713-8.186-0.576 2.17-1.612 4.36-2.579 6.29m-60.658-3.71c-0.661 3.004-1.175 6.156-1.217 9.781 2.736 1.617 5.752 2.949 9.18 3.869 0.13-3.609 0.567-6.912 1.363-9.859-3.402-0.98-6.429-2.32-9.326-3.79m117.3 3.71c0.717 3.078 1.18 6.402 1.373 10.006 3.271-1.039 6.324-2.314 9.09-3.863-0.016-3.699-0.426-7.006-1.283-9.859-2.8 1.5-5.76 2.84-9.18 3.71m-84.238 0.15c-0.655 3.033-1.285 6.102-1.29 9.783 3.422-0.947 6.537-2.205 9.169-3.947-0.036-3.469 0.567-6.715 1.066-9.398-2.735 1.45-5.679 2.67-8.945 3.57m52.618 6c2.793 1.555 5.82 2.871 9.174 3.863-0.119-3.619-0.613-6.869-1.361-9.855-3.25-0.924-6.211-2.133-8.945-3.562 0.65 2.91 1.04 6.08 1.13 9.56m-75.143-5.77c-0.692 3.043-1.212 6.268-1.29 9.93 2.98 0.816 6.324 1.258 10.012 1.367-0.026-3.74 0.536-6.902 1.212-9.934-3.631-0.14-6.938-0.59-9.934-1.37m105.47 0.08c-2.824 0.639-6.455 1.127-9.934 1.367 0.795 2.922 1.186 6.24 1.289 9.855 3.662-0.109 6.986-0.551 9.93-1.367-0.03-3.69-0.54-6.89-1.29-9.86m-94.177 1.29c-0.733 3-1.3 6.178-1.29 9.934 3.656-0.119 6.99-0.551 9.934-1.367-0.042-3.684 0.551-6.736 1.139-9.781h-0.146c-2.87 0.75-6.111 1.13-9.637 1.22m74.307 8.64c3.059 0.68 6.262 1.221 9.934 1.289-0.072-3.672-0.609-6.871-1.289-9.934-3.625-0.057-6.855-0.525-9.857-1.215 0.7 3 1.16 6.24 1.22 9.86m-53.909-3.41c0.005 3.631 0.515 6.762 1.217 9.705 2.803-1.57 5.638-3.766 7.885-6.146-0.853-2.768-1.165-6.055-1.441-9.404-2.252 2.25-4.982 4.02-7.661 5.84m34.499-5.77c-0.021-0.09-0.083-0.043-0.15 0 0.01 2.412-0.411 4.986-0.838 7.135-0.13 0.635-0.525 1.805-0.452 2.195 0.094 0.535 1.311 1.357 1.742 1.748 1.909 1.715 3.921 3.172 6.064 4.398 0.806-2.871 1.155-6.178 1.29-9.705-2.72-1.75-5.35-3.6-7.65-5.78m-86.055 7.05c0.146 0.727 0.203 1.633 0.452 2.127 0.266 0.525 1.181 1.102 1.748 1.59 1.867 1.639 3.693 3.271 5.763 4.244-0.728-2.756-1.071-5.902-1.144-9.324-2.777-1.664-5.3-3.594-7.656-5.689 0.041 2.3 0.415 5.03 0.837 7.05m140.28-2.57c-0.562 0.369-1.764 0.988-1.898 1.369-0.141 0.404 0.02 0.941 0 1.436-0.109 2.537-0.625 5.496-0.982 7.811 1.887-1.289 3.941-2.652 5.684-4.244 0.562-0.51 1.43-1.164 1.67-1.668 0.473-1.004 0.592-2.699 0.838-4.322 0.254-1.695 0.555-3.641 0.373-4.857-1.55 1.59-3.63 3.1-5.68 4.47m-78.177 5.45c1.02 3.281 2.179 6.412 3.792 9.102 2.226-2.424 4.28-5.02 5.992-7.957-1.633-2.596-2.757-5.691-3.87-8.801-1.644 2.89-3.797 5.26-5.914 7.66m11.297 1.22c0.832 1.42 1.799 2.85 2.803 4.17 1.015 1.322 2.014 2.695 3.267 3.559 1.446-2.768 2.735-5.701 3.636-9.02-2.216-2.309-4.172-4.877-5.992-7.582-0.884 3.32-2.292 6.1-3.718 8.87m-72.033 4.63c-0.733-1.873-1.503-3.703-1.971-5.846-1.529-1.301-2.83-3.23-4.093-4.547 1.649 3.84 3.63 7.35 6.064 10.4m148.46-10.39c-0.529 0.713-1.236 1.592-1.971 2.43-0.697 0.795-1.654 1.561-2.043 2.346-0.432 0.873-0.578 1.939-0.91 2.881-0.338 0.947-0.738 1.811-0.988 2.736 2.27-3.02 4.65-6.85 5.91-10.4m-56.18 10.77c2.719 1.652 5.793 2.953 9.246 3.869 0.707-3.018 1.207-6.227 1.289-9.861-3.359-0.982-6.463-2.227-9.252-3.787-0.01 3.68-0.59 6.79-1.29 9.78m-84.169-0.08c2.767 1.529 5.736 2.855 9.023 3.869-0.681-3.01-1.16-6.219-1.212-9.859-3.427-0.848-6.319-2.227-9.18-3.641 0.141 3.53 0.672 6.66 1.369 9.63m40.718-9.63c-2.777 1.471-5.71 2.781-9.096 3.641 0 3.738 0.52 6.959 1.29 9.934 3.417-0.957 6.517-2.227 9.247-3.869-0.859-2.85-1.176-6.25-1.441-9.7m76.581 13.5c3.225-1.049 6.25-2.299 8.945-3.869 0.732-2.934 1.279-6.053 1.361-9.631-2.809 1.486-5.846 2.746-9.174 3.713 0.06 3.65-0.61 6.97-1.13 9.79m-106.84 0.37c2.975 0.76 6.173 1.307 9.855 1.363-0.671-3.037-1.238-6.189-1.212-9.934-3.688-0.078-6.99-0.541-10.012-1.285 0.121 3.63 0.615 6.88 1.369 9.86m9.928-8.56c-0.005 3.754 0.562 6.928 1.29 9.934 3.724-0.021 6.933-0.547 9.939-1.291-0.76-3.006-1.181-6.344-1.368-9.928-2.948 0.76-6.236 1.19-9.861 1.29m74.237 8.64c3.021 0.729 6.211 1.275 9.934 1.291 0.816-2.943 1.26-6.268 1.363-9.934-3.656-0.084-6.965-0.516-9.934-1.285-0.13 3.62-0.57 6.95-1.36 9.92m12.59-8.64c-0.088 3.656-0.529 6.959-1.289 9.934 3.678-0.057 6.902-0.582 9.855-1.363 0.744-2.928 1.414-6.324 1.289-9.855-2.93 0.78-6.23 1.18-9.85 1.28m-63.547 5.08c0.967 3.406 2.221 6.527 3.87 9.248 2.871-1.811 5.581-3.777 7.884-6.139-1.669-2.652-2.777-5.865-3.942-9.027-2.304 2.27-4.936 4.22-7.812 5.92m27.221 3.18c2.346 2.299 4.987 4.311 7.885 6.064 1.555-2.768 2.876-5.773 3.797-9.176-2.814-1.809-5.477-3.775-7.891-5.99-0.98 3.33-2.319 6.29-3.796 9.11m-77.415-4.02c0.583 1.311 1.087 2.787 1.82 3.723 0.869 1.092 2.184 1.92 3.261 2.805 1.124 0.92 2.21 1.928 3.49 2.5-1.295-2.443-2.335-5.148-3.11-8.113-2.663-1.404-4.889-3.244-7.125-5.08 0.385 1.39 1.034 2.77 1.664 4.17m133.83 0.99c-0.656 2.984-2.029 5.646-2.955 8.113 1.145-0.791 2.279-1.66 3.412-2.574 1-0.807 2.445-1.811 3.189-2.805 1.408-1.908 2.662-5.668 3.406-7.889-2.1 1.98-4.5 3.65-7.06 5.16m-70.214 3.33c1.253 2.092 2.804 4.129 4.4 5.992 0.275 0.322 1.3 1.83 1.664 1.82 0.094 0 0.614-0.666 0.837-0.91 2.018-2.189 3.775-4.572 5.227-7.059-2.371-2.236-4.265-4.977-6.137-7.729-1.658 2.98-3.885 5.38-5.991 7.89m-23.882 1.07c1.045 3.303 2.283 6.408 3.87 9.176 3.422-0.922 6.438-2.252 9.247-3.793-1.54-2.834-2.845-5.902-3.87-9.252-2.767 1.59-5.955 2.78-9.247 3.86m46.706 5.38c2.834 1.51 5.818 2.871 9.246 3.793 1.607-2.762 2.896-5.846 3.869-9.248-3.406-0.947-6.449-2.246-9.252-3.797-0.98 3.41-2.31 6.45-3.87 9.26m-75.67-0.3c2.585 1.555 5.508 2.783 8.644 3.791-1.357-2.766-2.585-5.658-3.49-8.873-3.225-0.873-6.106-2.09-8.8-3.488 0.868 3.2 2.231 5.92 3.646 8.57m112.59-5.08c-0.852 3.268-2.111 6.127-3.488 8.873 2.359-0.713 4.535-1.633 6.6-2.652 0.635-0.312 1.633-0.65 2.049-1.061 0.348-0.354 0.754-1.363 1.061-1.977 1.014-2.014 2.154-4.826 2.58-6.672-2.66 1.43-5.57 2.62-8.8 3.49m-60.805-0.23c-2.273 2.402-5.082 4.264-7.89 6.143 1.82 2.859 3.787 5.564 6.147 7.885 2.855-1.82 5.607-3.746 7.885-6.148-2.329-2.33-4.311-5.03-6.142-7.87m9.705 6.14c-0.182 0.207-1.68 1.58-1.669 1.82 0.01 0.207 1.493 1.383 1.82 1.664 1.961 1.686 4.041 3.121 6.143 4.4 2.268-2.414 4.379-4.973 6.064-7.963-2.918-1.754-5.549-3.807-7.957-6.064-1.131 2.01-2.822 4.29-4.403 6.14m-43.672-4.32c0.973 3.402 2.231 6.521 3.942 9.174 3.661-0.02 6.917-0.457 9.783-1.289-0.863-1.332-1.472-2.84-2.127-4.395-0.655-1.551-1.145-3.219-1.82-4.779-2.965 0.74-6.143 1.25-9.778 1.3m68.462 7.96c2.984 0.707 6.146 1.232 9.861 1.211 1.549-2.791 2.859-5.83 3.863-9.174-3.703-0.031-6.875-0.604-9.934-1.289-1 3.35-2.28 6.41-3.79 9.25m-75.816-0.15c2.943 0.717 6.048 1.273 9.627 1.361-1.306-2.662-2.788-5.793-3.641-9.174-3.651-0.016-6.85-0.479-9.778-1.217 0.905 3.37 2.3 6.25 3.792 9.03m90.906-7.81c-0.967 3.328-2.232 6.367-3.713 9.174 3.578-0.088 6.697-0.633 9.631-1.361 1.52-2.699 3.002-5.852 3.791-9.029-2.9 0.75-6.08 1.2-9.71 1.22m-98.795 9.55c-1.337-1.514-2.45-3.262-3.49-5.082-1.831-0.92-3.552-2.361-5.076-3.334 2.46 3.15 5.357 6.26 8.566 8.41m116.08-5.08c-0.895 1.889-2.381 3.578-3.334 5.16 3.1-2.518 6.23-5.395 8.42-8.566-1.59 1.26-3.23 2.44-5.09 3.41m-72.939 4.78c-1.02-1.311-2.018-2.688-2.809-4.17-0.073 0-0.088-0.057-0.151-0.078-0.005-0.041-0.01-0.088-0.078-0.072-2.741 1.549-5.726 2.865-9.096 3.795 1.654 3.012 3.719 5.633 6.142 7.881 3.297-0.916 6.226-2.217 9.024-3.637-0.905-1.21-2.023-2.4-3.032-3.71m29.269-4.32c-1.686 2.975-3.803 5.508-5.992 7.961 2.772 1.52 5.764 2.83 9.175 3.715 2.282-2.367 4.39-4.91 6.063-7.881-3.46-0.88-6.36-2.32-9.24-3.79m-69.607 5.99c1.025 1.145 1.836 1.842 3.261 2.58 1.909 0.979 3.864 1.686 5.908 2.502 0.109-0.318-0.265-0.535-0.453-0.76-1.644-1.945-3.256-4.129-4.473-6.371-3.027-0.666-5.778-2.002-8.191-3.027 1.217 1.79 2.549 3.52 3.948 5.08m102.82-2.05c-1.311 2.195-2.891 4.525-4.479 6.371-0.197 0.234-0.592 0.432-0.523 0.76 1.352-0.541 2.73-1.025 4.02-1.592 1.238-0.557 2.689-1.123 3.709-1.898 0.986-0.744 1.924-2.039 2.807-3.109 0.973-1.17 2.039-2.664 2.502-3.559-2.5 1.19-5.08 2.3-8.04 3.03m-49.362-1.82c-2.325 2.361-5.024 4.338-7.89 6.148 2.439 2.205 5.029 4.27 7.962 5.98 2.855-1.789 5.591-3.709 7.89-6.059-2.986-1.7-5.502-3.86-7.962-6.07m-23.81 6.29c-1.014-1.332-1.939-2.74-2.803-4.172-0.005-0.045-0.01-0.088-0.078-0.072-2.845 0.869-6.251 1.186-9.705 1.436 1.321 2.061 2.762 4.047 4.4 5.918 0.463 0.531 1.238 1.613 1.737 1.744 0.416 0.107 0.926-0.059 1.29-0.074 2.699-0.119 5.716-0.473 8.191-1.061-0.879-1.23-2.033-2.42-3.032-3.73m50.572-4.17c-1.736 2.861-3.797 5.41-5.914 7.891 2.945 0.619 6.033 1.092 9.555 1.135 2.32-2.279 4.375-4.822 6.064-7.734-3.62-0.05-6.69-0.64-9.71-1.3m-69.831 5.99c0.494 0.562 1.139 1.441 1.592 1.67 0.52 0.266 1.419 0.307 2.122 0.457 2.236 0.463 4.468 0.766 6.98 0.832-1.888-2.262-3.963-4.986-5.69-7.66-3.458 0.082-6.563-0.604-9.325-0.982 1.206 1.82 2.787 3.95 4.321 5.68m80.301 2.51c1.305-0.199 3.275-0.338 4.322-0.838 0.498-0.234 1.174-1.129 1.668-1.67 1.66-1.82 2.996-3.807 4.25-5.762-2.896 0.592-5.893 1.092-9.408 1.061-1.395 2.396-3.184 4.82-4.926 6.828-0.254 0.297-0.732 0.598-0.609 0.832 1.67 0 3.22-0.23 4.71-0.45m-46.328-3.8c-2.736 1.518-5.695 2.809-8.951 3.797 1.472 1.574 3.547 3.182 5.612 4.545 0.593 0.395 1.592 1.254 2.2 1.289 0.619 0.037 1.675-0.541 2.346-0.758 2.476-0.818 4.691-1.713 6.6-2.883-2.909-1.69-5.389-3.81-7.807-6m18.27 0c-2.381 2.246-4.972 4.279-7.811 6.068 2.808 1.441 5.799 2.695 9.102 3.637 2.423-1.432 4.889-3.355 6.9-5.154 0.261-0.234 0.739-0.369 0.682-0.754-3.17-1.06-6.17-2.29-8.868-3.81m-51.411 4.02c-0.915-0.156-1.96-0.535-3.032-0.91-0.994-0.348-2.216-1.035-2.73-0.982 0.026-0.006 0.052 0 0.078 0 2.949 2.402 6.563 4.551 10.309 5.914-1.671-1.2-3.231-2.52-4.625-4.02m84.699 0c-1.557 1.404-3.086 2.834-4.775 4.094 3.869-1.561 7.609-3.656 10.381-6.064-1.72 0.8-3.62 1.44-5.61 1.97m-58.538 3.34c-1.232-0.984-2.309-2.295-3.641-3.111-0.016-0.01-0.13-0.004-0.151 0-2.522 0.65-5.622 1.244-9.102 1.285 1.378 1.529 3.474 3.09 5.461 4.4 0.708 0.467 1.488 1.154 2.122 1.289 0.708 0.15 1.69-0.035 2.507-0.072 2.481-0.115 4.728-0.594 6.746-1.066-1.394-0.83-2.668-1.7-3.942-2.72m28.288 2.81c2.147 0.363 4.368 0.863 6.75 0.988 0.843 0.041 1.861 0.229 2.58 0.072 0.613-0.135 1.357-0.832 2.043-1.289 1.836-1.223 3.314-2.32 4.775-3.637 0.291-0.264 0.764-0.555 0.686-0.764-3.494-0.041-6.418-0.656-9.324-1.285-2.29 2.19-4.8 4.17-7.51 5.92m-48.379-2.66c1.097 0.775 2.611 2.027 3.708 2.352 2.45 0.707 5.315 1.096 8.348 1.217-1.826-1.035-3.573-2.57-5.232-4.025-0.515-0.447-1.211-1.301-1.669-1.441-0.593-0.172-1.529-0.041-2.272-0.078-2.086-0.084-4.77-0.604-6.298-0.754 1.038 0.86 2.14 1.84 3.415 2.73m67.249-1.89c-2.117 2.008-4.391 3.854-6.824 5.539 3.084-0.4 6.258-0.447 8.494-1.363 1.314-0.541 2.537-1.633 3.641-2.428 0.91-0.662 1.793-1.311 2.574-1.973 0.275-0.232 0.717-0.498 0.607-0.68-2.56 0.55-5.41 0.83-8.49 0.9m-31.082 1.21c-2.626 1.551-5.622 2.727-8.722 3.797 2.013 0.938 4.125 1.967 6.371 2.727 0.775 0.264 1.753 0.691 2.424 0.686 0.655-0.006 1.591-0.432 2.356-0.686 2.341-0.77 4.452-1.764 6.366-2.805-3.251-0.92-6.029-2.31-8.795-3.72m-10.543 4.25c-2.569 0.758-5.591 1.07-8.566 1.436 1.129 0.539 2.455 1.133 3.864 1.664 1.321 0.504 2.777 1.217 4.177 1.373 3 0.326 5.804-0.521 8.488-0.916-2.845-0.99-5.523-2.15-7.963-3.55m21.155 0c-2.402 1.455-5.211 2.516-7.963 3.635 1.363 0.203 2.699 0.457 4.094 0.609 1.42 0.154 3.037 0.426 4.555 0.229 1.327-0.188 2.871-0.859 4.162-1.373 1.383-0.541 2.725-1.154 3.791-1.738-3.14-0.18-6-0.66-8.64-1.36m-26.917 4.09c-0.895-0.354-1.873-0.709-2.881-1.217-0.895-0.447-1.883-1.27-2.73-1.436-0.38-0.074-0.827 0.016-1.207 0-1.638-0.068-3.287-0.303-4.852-0.375 3.473 1.39 7.4 2.71 11.67 3.04m44.217-3.11c-1.592 0.266-3.146 0.391-4.707 0.459-0.391 0.016-0.816-0.084-1.211 0-0.859 0.182-1.821 1.018-2.736 1.436-1.035 0.492-1.982 0.873-2.881 1.289 4.337-0.516 8.07-1.633 11.535-3.027-0.01-0.113 0.447-0.109 0.072-0.156h-0.07zm-27.912 3.34c-1.904 0.572-4.078 0.879-6.215 1.217 3.927 0.494 8.702 0.635 12.508-0.078-2.305-0.17-4.296-0.66-6.293-1.14" fill-rule="evenodd"/>
<rect y="-91.057" x="71.238" height="32.96" width="72.813" fill="none"/>
</svg>
