<?xml version="1.0" encoding="utf-8"?>
<!-- Generator: Adobe Illustrator 16.0.0, SVG Export Plug-In . SVG Version: 6.00 Build 0)  -->
<!DOCTYPE svg PUBLIC "-//W3C//DTD SVG 1.1//EN" "http://www.w3.org/Graphics/SVG/1.1/DTD/svg11.dtd">
<svg version="1.1" id="Layer_1" xmlns="http://www.w3.org/2000/svg" xmlns:xlink="http://www.w3.org/1999/xlink" x="0px" y="0px"
	 width="105.042px" height="33px" viewBox="104.708 0 105.042 33" enable-background="new 104.708 0 105.042 33"
	 xml:space="preserve">
<g enable-background="new    ">
	<path fill="#7C6752" d="M112.436,18.844c-0.051,0.085-0.105,0.148-0.162,0.191c-0.057,0.042-0.13,0.063-0.221,0.063
		c-0.097,0-0.209-0.048-0.336-0.145c-0.128-0.097-0.289-0.203-0.485-0.319s-0.431-0.223-0.706-0.319
		c-0.275-0.096-0.609-0.145-1-0.145c-0.369,0-0.695,0.05-0.979,0.149c-0.284,0.099-0.521,0.233-0.711,0.404
		c-0.19,0.17-0.334,0.37-0.43,0.6c-0.097,0.229-0.145,0.479-0.145,0.745c0,0.34,0.083,0.622,0.25,0.847
		c0.168,0.224,0.389,0.415,0.664,0.574s0.588,0.297,0.937,0.413s0.706,0.236,1.072,0.361s0.724,0.266,1.072,0.421
		c0.349,0.156,0.661,0.354,0.937,0.592s0.496,0.53,0.664,0.877c0.167,0.346,0.25,0.771,0.25,1.276c0,0.533-0.09,1.034-0.271,1.502
		c-0.182,0.469-0.447,0.875-0.796,1.222c-0.349,0.346-0.777,0.618-1.285,0.816c-0.508,0.199-1.085,0.298-1.731,0.298
		c-0.789,0-1.508-0.143-2.158-0.43c-0.649-0.286-1.204-0.674-1.664-1.161l0.476-0.783c0.046-0.062,0.102-0.115,0.166-0.157
		c0.065-0.043,0.138-0.064,0.217-0.064c0.119,0,0.256,0.064,0.409,0.191c0.153,0.128,0.345,0.269,0.574,0.422
		s0.508,0.294,0.835,0.421c0.326,0.128,0.725,0.191,1.195,0.191c0.391,0,0.74-0.054,1.047-0.161c0.307-0.108,0.565-0.26,0.778-0.455
		c0.213-0.196,0.376-0.431,0.489-0.702c0.113-0.272,0.17-0.576,0.17-0.911c0-0.369-0.084-0.671-0.25-0.906
		c-0.168-0.235-0.388-0.433-0.66-0.592c-0.272-0.158-0.583-0.293-0.932-0.404c-0.35-0.11-0.707-0.224-1.072-0.34
		c-0.366-0.116-0.724-0.251-1.072-0.404c-0.35-0.153-0.66-0.352-0.932-0.596c-0.273-0.244-0.493-0.549-0.66-0.915
		c-0.168-0.366-0.251-0.818-0.251-1.357c0-0.432,0.083-0.849,0.251-1.251c0.167-0.403,0.41-0.761,0.728-1.072
		c0.317-0.312,0.71-0.562,1.179-0.749c0.469-0.188,1.006-0.281,1.613-0.281c0.68,0,1.302,0.108,1.863,0.323
		c0.562,0.216,1.053,0.528,1.473,0.937L112.436,18.844z"/>
	<path fill="#7C6752" d="M124.504,16.938v1.387h-3.941v10.809h-1.65V18.324h-3.957v-1.387H124.504z"/>
	<path fill="#7C6752" d="M131.967,27.822c0.506,0,0.957-0.085,1.354-0.256c0.397-0.17,0.733-0.408,1.009-0.715
		c0.274-0.306,0.485-0.672,0.63-1.098s0.217-0.894,0.217-1.404v-7.412h1.643v7.412c0,0.704-0.111,1.356-0.336,1.958
		s-0.545,1.122-0.962,1.562s-0.927,0.784-1.528,1.034c-0.601,0.249-1.275,0.374-2.025,0.374c-0.748,0-1.424-0.125-2.025-0.374
		c-0.602-0.25-1.111-0.595-1.531-1.034s-0.742-0.96-0.967-1.562c-0.224-0.602-0.336-1.254-0.336-1.958v-7.412h1.643v7.404
		c0,0.51,0.072,0.979,0.217,1.403c0.145,0.426,0.355,0.792,0.631,1.099c0.274,0.306,0.612,0.546,1.012,0.719
		C131.01,27.735,131.463,27.822,131.967,27.822z"/>
	<path fill="#7C6752" d="M151.211,23.039c0,0.914-0.146,1.745-0.435,2.494c-0.29,0.749-0.698,1.39-1.226,1.923
		s-1.16,0.946-1.898,1.238c-0.737,0.292-1.555,0.438-2.451,0.438h-4.561V16.938h4.561c0.896,0,1.714,0.146,2.451,0.438
		c0.738,0.293,1.371,0.707,1.898,1.243s0.936,1.179,1.226,1.928C151.065,21.295,151.211,22.126,151.211,23.039z M149.517,23.039
		c0-0.749-0.103-1.418-0.306-2.009c-0.205-0.59-0.494-1.089-0.869-1.497c-0.374-0.409-0.828-0.721-1.361-0.937
		s-1.127-0.323-1.779-0.323H142.3v9.523h2.901c0.652,0,1.246-0.108,1.779-0.323c0.533-0.216,0.987-0.526,1.361-0.933
		c0.375-0.405,0.664-0.903,0.869-1.493C149.414,24.458,149.517,23.788,149.517,23.039z"/>
	<path fill="#7C6752" d="M156.401,29.133h-1.651V16.938h1.651V29.133z"/>
	<path fill="#7C6752" d="M171.984,23.039c0,0.914-0.145,1.752-0.434,2.515c-0.29,0.764-0.698,1.42-1.227,1.971
		c-0.527,0.55-1.161,0.978-1.902,1.28c-0.74,0.304-1.559,0.456-2.455,0.456s-1.713-0.152-2.451-0.456
		c-0.736-0.303-1.369-0.73-1.897-1.28c-0.527-0.551-0.937-1.207-1.226-1.971c-0.289-0.763-0.434-1.601-0.434-2.515
		c0-0.913,0.145-1.752,0.434-2.515s0.698-1.422,1.226-1.975c0.528-0.553,1.161-0.983,1.897-1.289c0.738-0.307,1.555-0.46,2.451-0.46
		s1.715,0.153,2.455,0.46c0.741,0.306,1.375,0.736,1.902,1.289c0.528,0.553,0.937,1.212,1.227,1.975
		C171.84,21.287,171.984,22.126,171.984,23.039z M170.291,23.039c0-0.749-0.103-1.421-0.307-2.017s-0.494-1.1-0.868-1.511
		s-0.829-0.728-1.362-0.949c-0.533-0.221-1.129-0.332-1.787-0.332c-0.652,0-1.245,0.111-1.778,0.332
		c-0.533,0.222-0.989,0.538-1.366,0.949s-0.668,0.915-0.872,1.511s-0.306,1.268-0.306,2.017s0.102,1.42,0.306,2.013
		s0.495,1.096,0.872,1.507s0.833,0.727,1.366,0.944c0.533,0.219,1.126,0.328,1.778,0.328c0.658,0,1.254-0.109,1.787-0.328
		c0.533-0.218,0.988-0.533,1.362-0.944s0.664-0.914,0.868-1.507S170.291,23.788,170.291,23.039z"/>
</g>
<g enable-background="new    ">
	<path fill="#7C6752" d="M179.09,21.983h0.537c0.215,0,0.395-0.029,0.535-0.089c0.143-0.06,0.265-0.154,0.367-0.285l3.395-4.298
		c0.143-0.182,0.291-0.308,0.447-0.379c0.156-0.07,0.354-0.106,0.592-0.106h1.975l-4.145,5.115c-0.131,0.159-0.256,0.292-0.375,0.4
		c-0.119,0.107-0.246,0.195-0.383,0.264c0.188,0.067,0.355,0.164,0.506,0.289s0.297,0.284,0.439,0.477l4.271,5.762h-2.025
		c-0.272,0-0.475-0.038-0.608-0.115c-0.134-0.076-0.245-0.188-0.337-0.336l-3.48-4.545c-0.113-0.147-0.24-0.254-0.383-0.318
		c-0.142-0.065-0.344-0.099-0.604-0.099h-0.725v5.413h-2.289V16.818h2.289V21.983z"/>
	<path fill="#7C6752" d="M196.367,24.494h1.549v1.218c0,0.113-0.037,0.211-0.11,0.293c-0.074,0.083-0.182,0.124-0.323,0.124h-1.115
		v3.004h-1.838v-3.004h-5.191c-0.143,0-0.268-0.044-0.375-0.132s-0.176-0.197-0.204-0.328l-0.213-1.063l5.829-7.787h1.992V24.494z
		 M194.529,20.469c0-0.182,0.005-0.377,0.017-0.587c0.011-0.21,0.031-0.429,0.06-0.655l-3.821,5.268h3.745V20.469z"/>
	<path fill="#7C6752" d="M208.656,22.979c0,1.072-0.115,2.004-0.345,2.796c-0.229,0.791-0.548,1.445-0.953,1.962
		s-0.886,0.9-1.438,1.153c-0.553,0.252-1.15,0.378-1.791,0.378c-0.642,0-1.236-0.126-1.783-0.378
		c-0.548-0.253-1.023-0.637-1.426-1.153s-0.718-1.171-0.944-1.962c-0.228-0.792-0.341-1.724-0.341-2.796
		c0-1.078,0.113-2.011,0.341-2.8c0.227-0.789,0.542-1.441,0.944-1.958c0.402-0.516,0.878-0.9,1.426-1.152
		c0.547-0.253,1.142-0.379,1.783-0.379c0.641,0,1.238,0.126,1.791,0.379c0.553,0.252,1.033,0.637,1.438,1.152
		c0.405,0.517,0.724,1.169,0.953,1.958S208.656,21.901,208.656,22.979z M206.486,22.979c0-0.891-0.065-1.628-0.195-2.213
		c-0.131-0.584-0.306-1.05-0.523-1.396c-0.219-0.346-0.471-0.589-0.754-0.728s-0.578-0.209-0.885-0.209
		c-0.301,0-0.592,0.07-0.873,0.209c-0.28,0.139-0.529,0.382-0.744,0.728c-0.216,0.346-0.387,0.812-0.516,1.396
		c-0.127,0.585-0.191,1.322-0.191,2.213s0.064,1.629,0.191,2.213c0.129,0.584,0.3,1.05,0.516,1.396
		c0.215,0.347,0.464,0.589,0.744,0.728c0.281,0.14,0.572,0.209,0.873,0.209c0.307,0,0.602-0.069,0.885-0.209
		c0.283-0.139,0.535-0.381,0.754-0.728c0.218-0.346,0.393-0.812,0.523-1.396C206.421,24.608,206.486,23.87,206.486,22.979z"/>
</g>
</svg>
