<?xml version="1.0" encoding="UTF-8" standalone="no"?>
<!-- Generator: Adobe Illustrator 16.0.0, SVG Export Plug-In . SVG Version: 6.00 Build 0)  -->
<!DOCTYPE svg  PUBLIC '-//W3C//DTD SVG 1.1//EN'  'http://www.w3.org/Graphics/SVG/1.1/DTD/svg11.dtd'>
<svg id="Layer_1" xmlns="http://www.w3.org/2000/svg" xml:space="preserve" height="123px" viewBox="0 0 111 123" width="111px" version="1.1" y="0px" x="0px" xmlns:xlink="http://www.w3.org/1999/xlink" enable-background="new 0 0 111 123">
<path stroke="#fff" stroke-width=".25" stroke-miterlimit="10" d="m10.8 106.1v-0.4l1.1-0.2-0.4-1.5-0.6-1.8h-3.2l-0.7 1.7-0.4 1.5 1.2 0.199v0.4h-3.3v-0.4l1.2-0.199 0.7-1.5 2.9-8h0.7l2.8 8 0.7 1.5 1.1 0.199v0.4h-3.8v0.1zm-1.5-8.7l-1.4 4.1h2.9l-1.5-4.1z" fill="#fff"/>
<polygon stroke="#fff" stroke-width=".25" stroke-miterlimit="10" points="24.4 98.4 24.1 96.8 22.6 96.7 21.4 96.7 21.4 103.9 21.5 105.4 22.8 105.6 22.8 106.1 18.8 106.1 18.8 105.6 20.1 105.4 20.2 103.9 20.2 96.7 19 96.7 17.5 96.8 17.1 98.4 16.5 98.4 16.7 96.1 24.9 96.1 25 98.4" fill="#fff"/>
<polygon stroke="#fff" stroke-width=".25" stroke-miterlimit="10" points="36 98.4 35.7 96.8 34.2 96.7 33 96.7 33 103.9 33.1 105.4 34.4 105.6 34.4 106.1 30.4 106.1 30.4 105.6 31.7 105.4 31.9 103.9 31.9 96.7 30.6 96.7 29.1 96.8 28.8 98.4 28.2 98.4 28.3 96.1 36.5 96.1 36.6 98.4" fill="#fff"/>
<polygon stroke="#fff" stroke-width=".25" stroke-miterlimit="10" points="47.3 106.1 40.1 106.1 40.1 105.6 41.4 105.4 41.5 103.9 41.5 98.3 41.4 96.7 40.1 96.5 40.1 96.1 47.1 96.1 47.2 98.6 46.6 98.6 46.3 96.9 44.9 96.7 42.6 96.7 42.6 100.6 43.9 100.6 45.1 100.5 45.3 99.2 45.8 99.2 45.8 102.7 45.3 102.7 45.1 101.4 43.9 101.2 42.6 101.2 42.6 103.9 42.8 105.2 44 105.5 45.2 105.5 46.5 105.2 46.9 103.7 47.5 103.7" fill="#fff"/>
<polygon stroke="#fff" stroke-width=".25" stroke-miterlimit="10" points="60 96.7 59.8 98.3 59.8 106.3 59 106.3 57.5 103.9 53.3 97.4 53.3 103.9 53.4 105.4 54.7 105.7 54.7 106.1 51.3 106.1 51.3 105.7 52.5 105.4 52.7 103.9 52.7 98.3 52.5 96.7 51.3 96.5 51.3 96.1 53.9 96.1 55.1 98.3 59.2 104.5 59.2 98.3 59.1 96.7 57.8 96.5 57.8 96.1 61.3 96.1 61.3 96.5" fill="#fff"/>
<polygon stroke="#fff" stroke-width=".25" stroke-miterlimit="10" points="72.6 98.4 72.3 96.8 70.8 96.7 69.5 96.7 69.5 103.9 69.7 105.4 71 105.6 71 106.1 67 106.1 67 105.6 68.3 105.4 68.4 103.9 68.4 96.7 67.2 96.7 65.6 96.8 65.3 98.4 64.7 98.4 64.9 96.1 73 96.1 73.2 98.4" fill="#fff"/>
<polygon stroke="#fff" stroke-width=".25" stroke-miterlimit="10" points="76.7 106.1 76.7 105.6 77.9 105.4 78.1 103.9 78.1 98.3 77.9 96.7 76.7 96.5 76.7 96.1 80.6 96.1 80.6 96.5 79.4 96.7 79.2 98.3 79.2 103.9 79.4 105.4 80.6 105.6 80.6 106.1" fill="#fff"/>
<polygon stroke="#fff" stroke-width=".25" stroke-miterlimit="10" points="92.8 96.7 92.1 98.3 90.2 103.9 89.5 106.3 88.6 106.3 87.8 103.9 85.8 98.3 85.2 96.7 84 96.5 84 96.1 87.7 96.1 87.7 96.5 86.6 96.7 87 98.3 89.3 104.8 91.4 98.3 91.8 96.7 90.5 96.5 90.5 96.1 94 96.1 94 96.5" fill="#fff"/>
<polygon stroke="#fff" stroke-width=".25" stroke-miterlimit="10" points="104.6 106.1 97.4 106.1 97.4 105.6 98.6 105.4 98.8 103.9 98.8 98.3 98.6 96.7 97.4 96.5 97.4 96.1 104.3 96.1 104.5 98.6 103.9 98.6 103.6 96.9 102.1 96.7 99.9 96.7 99.9 100.6 101.1 100.6 102.4 100.5 102.5 99.2 103 99.2 103 102.7 102.5 102.7 102.4 101.4 101.1 101.2 99.9 101.2 99.9 103.9 100.1 105.2 101.3 105.5 102.5 105.5 103.8 105.2 104.1 103.7 104.7 103.7" fill="#fff"/>
<polygon stroke="#fff" stroke-width=".5" stroke-miterlimit="10" points="29.4 117 28.9 117 28.9 109.6 29.4 109.6 29.4 113 32.7 113 32.7 109.6 33.2 109.6 33.2 117 32.7 117 32.7 113.5 29.4 113.5" fill="#fff"/>
<polygon stroke="#fff" stroke-width=".5" stroke-miterlimit="10" points="42.6 110.1 39.7 110.1 39.7 113 42.2 113 42.2 113.5 39.7 113.5 39.7 116.5 42.7 116.5 42.7 117 39.2 117 39.2 109.6 42.6 109.6" fill="#fff"/>
<path stroke="#fff" stroke-width=".5" stroke-miterlimit="10" d="m53 117h-0.6l-0.7-2.4h-2.4l-0.7 2.4h-0.6l2.2-7.5h0.6l2.2 7.5zm-2.5-6.7l-1.1 3.8h2.2l-1.1-3.8z" fill="#fff"/>
<polygon stroke="#fff" stroke-width=".5" stroke-miterlimit="10" points="59.1 109.6 59.1 116.5 62.1 116.5 62.1 117 58.6 117 58.6 109.6" fill="#fff"/>
<polygon stroke="#fff" stroke-width=".5" stroke-miterlimit="10" points="66.4 110.1 66.4 109.6 70.5 109.6 70.5 110.1 68.7 110.1 68.7 117 68.2 117 68.2 110.1" fill="#fff"/>
<polygon stroke="#fff" stroke-width=".5" stroke-miterlimit="10" points="76.6 117 76.1 117 76.1 109.6 76.6 109.6 76.6 113 79.8 113 79.8 109.6 80.3 109.6 80.3 117 79.8 117 79.8 113.5 76.6 113.5" fill="#fff"/>
<g stroke="#fff" stroke-width=".5" stroke-miterlimit="10" fill="#fff">
		<path d="m39.7 50.1v0.4-0.4"/>
		<path d="m17.6 55.7v0.6-0.6"/>
		<path d="m35.5 57.8h0.4-0.4"/>
		<path d="m17.6 59.1v0.3-0.3"/>
		<path d="m30.1 65.1h0.2c-0.1 0-0.2-0.1-0.2 0"/>
		<path d="m41 51.3l0.4-0.6v-0.1l0.3-0.4c0-0.2-0.1-0.3-0.1-0.5s0.1-0.4 0.2-0.6l-0.3-0.1-0.4-0.1v0.1c0.1 0.2 0.2 0.5 0.2 0.6 0 0.3-0.2 0.7-0.2 1 0 0.4 0 0.6-0.1 0.7"/>
		<path d="m24.4 73.2l0.2 0.2 0.2-0.301-0.1-0.1-0.4-0.4c-0.3-0.399-0.7-0.699-1-1.199 0.5 0.3 0.9 0.699 1.4 1 0.1 0.1 0.1 0.199 0.2 0.399l0.3-0.399c-0.1-0.1-0.2-0.1-0.3-0.2-0.4-0.8-0.8-1.5-1-2.5 0.8 0.399 1.6 0.7 2.5 1l0.3-0.3c-0.2-0.801-0.3-1.7-0.3-2.7 0.7 0.2 1.4 0.3 2.1 0.3l0.2-0.3c-0.9 0-1.6-0.2-2.4-0.4 0-1 0.2-2 0.4-2.8 0.9 0.2 1.7 0.4 2.7 0.4-0.2 0.7-0.3 1.4-0.3 2.2l0.4-0.5c0.1-0.6 0.2-1.1 0.3-1.6h0.4 0.5l0.3-0.4c-0.4 0-0.7 0.101-1.1 0.101 0.3-1 0.7-1.8 1.1-2.601h0.3c0.6 0 1.2-0.1 1.7-0.2l0.3-0.4c-0.6 0.1-1.3 0.2-2.1 0.2 0.4-0.7 0.9-1.3 1.5-1.9 0.1-0.1 0.1-0.2 0.2-0.2h0.4c0.5 0 1-0.1 1.5-0.1l0.3-0.4c-0.2 0-0.3 0-0.5 0.1-0.4 0.1-0.8 0.1-1.3 0.1 0-0.1 0.1-0.1 0.2-0.2 0.5-0.5 1.2-1 1.9-1.3h0.4 0.3l0.3-0.4h-0.3c0.1-0.1 0.3-0.1 0.4-0.2l0.4-0.5-1.2 0.6c-0.2 0.1-0.3 0.2-0.5 0.2h-0.7c-0.7 0-1.3-0.2-1.9-0.3 0.3-0.2 0.7-0.4 1.1-0.5 0.4-0.2 0.8-0.4 1.2-0.4 0.2 0 0.7 0.1 1 0.2s0.6 0.1 0.9 0.1l0.2-0.3c-0.5 0-0.9-0.1-1.3-0.2 0.5-0.2 1-0.2 1.6-0.2l0.3-0.5c-0.7-0.2-1.3-0.5-1.8-0.7 0.4 0 0.8 0.1 1.2 0.1 0.3 0.1 0.7 0.1 0.9 0.2l0.2-0.3c-0.7-0.3-1.3-0.8-1.8-1.3 0.7 0.2 1.5 0.6 2.1 1l0.2-0.3c-0.6-0.5-1-1.1-1.4-1.8 0.5 0.4 1.1 0.8 1.5 1.2l0.2 0.2 0.2-0.3c-0.4-0.6-0.5-1.3-0.8-2 0.4 0.5 0.8 1 1.1 1.5l0.4-0.5c-0.1-0.5-0.2-1-0.2-1.5 0.2 0.3 0.3 0.7 0.5 1.1l0.2-0.3c-0.2-0.4-0.3-0.8-0.5-1.1-0.1-0.2-0.2-0.3-0.2-0.5-0.1-0.3 0-0.8 0.1-1.2l-0.3-0.1c0 0.2-0.1 0.4-0.1 0.7l-0.6-0.9-0.5-0.1c0.4 0.5 0.8 1.1 1.1 1.7v0.4c0 0.6 0.1 1.1 0.1 1.6-0.1 0-0.1-0.1-0.1-0.2-0.2-0.4-0.5-0.7-0.9-1l-0.4-0.4c-0.2-0.3-0.2-0.8-0.2-1.2 0-0.3-0.1-0.7-0.1-1l-0.3-0.1c0 0.7 0.1 1.3 0.2 1.9-0.6-0.5-1.3-1.1-2-1.5-0.1-0.3-0.1-0.6-0.2-0.9l-0.4-0.1c0 0.3 0.1 0.5 0.1 0.8-0.8-0.4-1.6-0.7-2.5-1 0-0.1-0.1-0.3-0.1-0.4l-0.4-0.1c0 0.1 0 0.3 0.1 0.4-0.8-0.2-1.7-0.3-2.7-0.4-0.1-0.3-0.1-0.5-0.2-0.8l0.2-0.2c0 0.3 0.1 0.6 0.2 0.9-1 0-1.9 0.2-2.8 0.3-0.1-0.6-0.3-1.3-0.3-2l-0.3-0.1c0 0.8 0.2 1.5 0.3 2.2-1 0.2-1.8 0.6-2.6 1-0.2-0.8-0.3-1.7-0.3-2.8 0.5-0.3 1-0.5 1.6-0.7l-0.5-0.1c-0.4 0.1-0.7 0.3-1 0.5v-0.7l-0.3-0.1c0 0.3-0.1 0.7-0.1 1-0.8 0.4-1.5 1-2.2 1.6 0.1-0.9 0.2-1.8 0.4-2.6 0.1-0.1 0.3-0.2 0.4-0.4l-0.6-0.2c0 0.1-0.1 0.2-0.1 0.4l-0.2 0.2c-0.3 0.4-0.6 0.7-0.9 1.1 0.2-0.6 0.5-1.2 0.9-1.8l-0.3-0.1c-0.4 0.7-0.8 1.4-1.1 2.3l-0.3 0.9c-0.8 1.6-1.5 3.3-1.6 5.5 0 1-0.5 2-0.4 3.1v0.3 0.6 0.3c0 1 0.2 1.7 0.4 2.6v0.3c0.1 2 0.6 3.6 1.2 5l0.3 0.6c0.1 0.301 0.2 0.601 0.2 0.801 0.4 1.3 1.1 2.5 1.8 3.5 0.3 0.399 0.7 0.699 1 1.1 0.3 0.4 0.5 0.9 0.9 1.3 0.3 0.4 0.7 0.8 1 1.2 0 0.099 0.1 0.099 0.2 0.199m-0.6-3.9c-0.2-0.8-0.3-1.7-0.4-2.7 0.8 0.4 1.6 0.801 2.5 1v0.301c0 0.899 0.1 1.699 0.3 2.399-0.8-0.2-1.6-0.5-2.4-1m-0.6-2.5c0 0.8 0.1 1.601 0.3 2.3-0.6-0.3-1.1-0.699-1.6-1.199-0.2-0.101-0.4-0.301-0.5-0.5-0.1-0.101-0.1-0.401-0.1-0.601-0.1-0.6-0.2-1.2-0.2-2 0.1 0 0.2 0.101 0.2 0.101 0.5 0.5 1.2 1 1.9 1.399 0 0.2-0.1 0.3 0 0.5m0-0.8c-0.8-0.5-1.5-1.1-2.1-1.7 0-1 0.1-1.899 0.4-2.7 0.1 0 0.2 0.1 0.2 0.2 0.6 0.5 1.3 1.101 2 1.5-0.4 0.8-0.5 1.7-0.5 2.7m-0.5-7.6c0.5-0.8 1.1-1.5 1.7-2.2 0.7 0.6 1.4 1.2 2.2 1.7-0.6 0.7-1.2 1.4-1.7 2.2-0.8-0.5-1.5-1.1-2.2-1.7m2.1 2c-0.4 0.8-0.8 1.6-1.1 2.6-0.8-0.5-1.6-1.1-2.2-1.7 0.3-0.9 0.6-1.7 1.1-2.5 0.6 0.5 1.3 1.1 2.2 1.6m-0.1-4.5c0.3-0.4 0.7-0.6 1-0.9 0.4-0.3 0.8-0.5 1.2-0.8 0.3 0.3 0.7 0.6 1 0.9 0.4 0.3 0.8 0.5 1.1 0.8-0.8 0.5-1.5 1-2.2 1.6-0.7-0.3-1.4-0.9-2.1-1.6m2.3 2.2c0.8 0.4 1.6 0.8 2.5 1.1l-0.1 0.2c-0.5 0.6-1.1 1.3-1.5 2-1-0.2-1.8-0.7-2.6-1.1 0.4-0.9 1-1.6 1.7-2.2m0.2-0.3c0.6-0.7 1.4-1.2 2.2-1.7 0.8 0.4 1.5 0.8 2.4 1.1-0.7 0.5-1.5 1-2.1 1.7-0.9-0.3-1.7-0.6-2.5-1.1m0.1-3.7c0.8-0.4 1.6-0.8 2.5-1 0.3 0.2 0.7 0.6 1 0.9 0.4 0.3 0.7 0.5 1.1 0.8-0.9 0.3-1.7 0.6-2.4 1-0.9-0.5-1.6-1.1-2.2-1.7m2.9-1.2c0.7-0.1 1.4-0.3 2.2-0.3h0.4c0.2 0 0.4 0.3 0.5 0.4l1.5 1.2c-0.9 0.1-1.7 0.2-2.5 0.4-0.7-0.5-1.5-1-2.1-1.7m2.9-0.6c-0.2 0-0.3-0.3-0.5-0.5-0.5-0.5-0.9-1-1.2-1.7 1 0 1.9 0.2 2.7 0.4 0.4 0.7 0.9 1.4 1.5 2-0.6-0.1-1.1-0.2-1.8-0.2-0.3 0-0.5 0.1-0.7 0m-0.5 0c-0.7 0-1.4 0.1-2 0.2-0.2 0-0.5 0.1-0.6 0.1s-0.4-0.4-0.5-0.5c-0.5-0.5-0.9-1.1-1.2-1.7 0.7-0.1 1.4-0.3 2.3-0.3h0.5c0.4 0.8 1 1.6 1.5 2.2m-3.1 0.5c-0.9 0.3-1.8 0.6-2.5 1-0.7-0.6-1.2-1.4-1.7-2.2 0.8-0.4 1.6-0.8 2.6-1 0.5 0.7 1 1.5 1.6 2.2m-2.8 1.2c-0.8 0.5-1.5 1.1-2.2 1.7-0.6-0.7-1.2-1.4-1.7-2.2 0.6-0.7 1.4-1.2 2.2-1.7 0.5 0.7 1.1 1.5 1.7 2.2m-2.5 1.9c-0.6 0.7-1.2 1.4-1.7 2.2-0.6-0.6-1.2-1.4-1.7-2.2 0.5-0.8 1-1.5 1.7-2.2 0.5 0.8 1.1 1.5 1.7 2.2m-3.6-0.4c-0.3-0.6-0.5-1.2-0.8-1.8-0.1-0.2-0.2-0.5-0.2-0.7 0-0.1 0.2-0.4 0.4-0.6 0.4-0.6 0.9-1.2 1.3-1.6 0.2 0.9 0.6 1.7 1 2.5-0.6 0.7-1.2 1.4-1.7 2.2m-0.2 0.4c-0.4 0.8-0.8 1.5-1.1 2.4-0.3-0.5-0.6-1.1-0.8-1.8-0.1-0.2-0.2-0.5-0.2-0.7s0.1-0.4 0.2-0.6c0.2-0.6 0.5-1.3 0.8-1.8 0.4 0.9 0.7 1.7 1.1 2.5m0.2 0.3c0.5 0.8 1.1 1.5 1.7 2.2-0.4 0.7-0.8 1.6-1.1 2.5-0.7-0.6-1.2-1.4-1.6-2.2 0.3-0.9 0.6-1.7 1-2.5m5.4 11.1c-0.9-0.3-1.8-0.7-2.6-1.1 0-1 0.1-1.9 0.4-2.7 0.8 0.4 1.6 0.8 2.5 1.1-0.1 0.8-0.2 1.7-0.3 2.7m0.5-3.1c-1-0.3-1.8-0.601-2.6-1.101 0.2-0.699 0.5-1.399 0.8-2 0.1-0.2 0.2-0.4 0.4-0.6 0.7 0.5 1.6 0.8 2.5 1.1-0.4 0.801-0.8 1.701-1.1 2.601m3.1 0.5c-1 0-1.9-0.2-2.8-0.4 0.3-1 0.6-1.8 1.1-2.6 0.8 0.2 1.7 0.399 2.7 0.399-0.3 0.901-0.7 1.701-1 2.601m2.7-4.8c-0.5 0.6-1 1.2-1.4 1.9-1 0-1.9-0.2-2.8-0.4 0.4-0.7 0.9-1.4 1.5-2 0.1-0.1 0.1-0.2 0.2-0.2 0.8 0.2 1.7 0.3 2.6 0.4 0.1 0.1 0 0.2-0.1 0.3m2.5-2.1c-0.7 0.5-1.4 1-2 1.6-1 0-1.9-0.1-2.7-0.4 0-0.1 0.1-0.2 0.2-0.2 0.6-0.5 1.3-1 2-1.4 0.8 0.2 1.6 0.3 2.5 0.4m-2-1.1c-0.2 0.1-0.4 0.3-0.5 0.3-0.2 0-0.5-0.1-0.7-0.2-0.6-0.2-1.3-0.5-1.8-0.9 0.8-0.4 1.6-0.7 2.5-1 0.7 0.3 1.5 0.8 2.3 1-0.6 0.3-1.2 0.5-1.8 0.8m4.5-1.2c-0.6 0.1-1.1 0.1-1.6 0.2-0.2 0-0.3 0.1-0.5 0.1-0.4 0-0.9-0.3-1.3-0.4-0.4-0.2-0.8-0.3-1.1-0.5 0.6-0.2 1.3-0.3 2.1-0.3h0.5c0.6 0.3 1.2 0.6 1.9 0.9m0.3-1.1c-0.6-0.1-1.4-0.2-2.1-0.2-0.7-0.5-1.5-1-2-1.6 1 0 1.8 0.2 2.6 0.4l0.2 0.2c0.4 0.5 0.8 0.9 1.3 1.2m0.6-0.9c-0.6-0.3-1.3-0.5-2-0.7-0.6-0.6-1.1-1.3-1.6-2.1 0.7 0.2 1.2 0.4 1.8 0.7l0.6 0.3c0.1 0.1 0.2 0.3 0.3 0.5 0.2 0.5 0.5 0.9 0.9 1.3m0.1-2.8c0.2 0.7 0.4 1.4 0.7 2-0.6-0.4-1.1-0.9-1.7-1.2-0.4-0.8-0.8-1.5-1-2.4 0.7 0.5 1.3 1 2 1.6m-2.5-1.9c0.2 0.9 0.5 1.6 0.9 2.3-0.7-0.4-1.5-0.7-2.3-0.9-0.4-0.8-0.8-1.6-1-2.5 0.8 0.3 1.6 0.7 2.4 1.1m-2.9-1.2c0.2 0.9 0.6 1.8 1 2.5-0.8-0.2-1.7-0.3-2.7-0.4-0.4-0.8-0.8-1.6-1-2.6 1 0.1 1.8 0.3 2.7 0.5m-3.6-0.4h0.5c0.3 0.9 0.6 1.8 1 2.6-1 0-1.9 0.2-2.7 0.4-0.4-0.8-0.8-1.6-1-2.6 0.6-0.2 1.3-0.3 2.2-0.4m-2.6 0.5c0.3 0.9 0.6 1.8 1.1 2.6-1 0.2-1.8 0.6-2.6 1-0.4-0.8-0.8-1.6-1-2.6 0.6-0.5 1.5-0.8 2.5-1m-1.9 3.7c-0.8 0.5-1.6 1.1-2.2 1.7-0.4-0.8-0.7-1.6-1-2.5 0.6-0.7 1.4-1.2 2.2-1.7 0.3 0.9 0.6 1.8 1 2.5m-3.6-4c0.6-0.6 1.3-1.2 2.1-1.6 0.1-0.1 0 0.1 0 0.2 0 0.9 0.2 1.8 0.3 2.6-0.8 0.5-1.5 1-2.2 1.6-0.1-0.7-0.3-1.3-0.3-2.1 0.1-0.2 0.1-0.5 0.1-0.7m-1.8 0.5c0.1-0.4 0.1-0.8 0.2-1.1 0.2-0.4 0.5-0.7 0.7-1s0.5-0.7 0.8-0.9c-0.2 0.7-0.3 1.5-0.3 2.4-0.1 0.1-0.1 0.2-0.2 0.2-0.5 0.5-0.9 1.1-1.3 1.7 0-0.4 0.1-0.9 0.1-1.3m-0.1 2c0-0.2 0.2-0.4 0.4-0.6 0.4-0.5 0.8-1.1 1.2-1.5 0 1 0.2 1.8 0.4 2.6-0.6 0.7-1.2 1.3-1.7 2.1-0.1-0.6-0.3-1.3-0.3-1.9-0.1-0.2-0.1-0.5 0-0.7m-0.3-1.8c0 0.3-0.1 0.9-0.1 1.3v0.4c-0.1 0.3-0.3 0.5-0.4 0.8s-0.3 0.6-0.4 0.9c0.1-1.3 0.5-2.4 0.9-3.4m-1 4.6c0.2-0.8 0.5-1.5 0.9-2.2 0.1 0.6 0.1 1.2 0.2 1.8 0 0.2 0.1 0.4 0.1 0.6 0 0.1-0.2 0.4-0.3 0.5-0.3 0.5-0.5 1.1-0.7 1.7-0.2-0.6-0.2-1.3-0.2-2v-0.4m-0.3 4.9c-0.1-0.4-0.1-0.9-0.1-1.4v-0.6c0-0.6 0.1-1 0.1-1.5 0.1 0.3 0.1 0.6 0.1 0.9 0.1 0.3 0.2 0.6 0.2 0.8 0 0.3-0.1 0.6-0.2 0.9 0 0.3-0.1 0.6-0.1 0.9m0.5-1.1c0.1 0 0.1 0 0 0 0.3 0.8 0.6 1.6 1 2.2-0.2 0.7-0.3 1.6-0.4 2.4-0.2-0.3-0.3-0.7-0.5-1.1-0.1-0.2-0.3-0.6-0.3-1-0.1-0.9 0.1-1.7 0.2-2.5m-0.2 3.8c0.2 0.6 0.5 1.1 0.7 1.6v0.4c0 0.5 0.1 0.9 0.1 1.3-0.3-0.9-0.6-2-0.8-3.3m1.2 1.2c0-0.7 0.1-1.6 0.3-2.2 0.5 0.8 1 1.5 1.6 2.1-0.2 0.8-0.4 1.6-0.4 2.6-0.4-0.4-0.8-1-1.2-1.6-0.1-0.2-0.3-0.4-0.4-0.601 0-0.099 0-0.199 0.1-0.299m0.3 3.4c-0.1-0.301-0.2-0.801-0.2-1.2-0.1-0.4-0.1-0.8-0.1-1.3 0.4 0.699 0.9 1.3 1.5 1.8 0.1 0 0.1 0.3 0.1 0.5 0 0.7 0.1 1.399 0.2 2.1-0.4-0.4-0.8-0.9-1.1-1.4-0.2-0.1-0.3-0.3-0.4-0.5m0.4 1.3c0.4 0.5 0.7 0.899 1.2 1.3 0.1 0.6 0.4 1.1 0.5 1.7-0.7-0.8-1.2-1.9-1.7-3m2.6 4.1c-0.2-0.3-0.4-0.7-0.5-1.1-0.2-0.4-0.3-0.7-0.4-1.101 0.6 0.5 1.3 1 2 1.5 0.2 0.801 0.5 1.601 0.9 2.301-0.4-0.2-0.7-0.4-1-0.7-0.4-0.3-0.8-0.6-1-0.9"/>
		<path d="m21.1 44.4l0.2-0.2-0.2 0.2"/>
		<path d="m20.6 47.5c0.1-0.1 0.1-0.2 0.2-0.2 0 0.1-0.1 0.2-0.2 0.2"/>
		<path d="m23.3 45.8c0.1-0.1 0 0.1 0 0.2 0 0 0.1-0.1 0-0.2z"/>
		<path d="m29.6 59.5c0.1-0.1 0.1-0.2 0.2-0.2l-0.2 0.2"/>
		<path d="m32.8 59.9c0.1-0.1 0.1-0.2 0.2-0.2l-0.2 0.2"/>
		<path d="m24.3 72.7c0.1 0.1 0.3 0.3 0.4 0.399-0.1-0.199-0.3-0.299-0.4-0.399"/>
		<path d="m17.3 55.4v0.3-0.3z"/>
		<path d="m17.2 56.3v0.3-0.3z"/>
		<path d="m29.3 47.2h0.5-0.5z"/>
		<path d="m30.5 50.1h0.5-0.5z"/>
		<path d="m32.4 52.7h0.4c-0.1 0-0.3-0.1-0.4 0"/>
		<path d="m34.9 54.6h0.5-0.5z"/>
		<path d="m33 59.7h0.4-0.4z"/>
		<path d="m18 52.7v0.4-0.4"/>
		<path d="m31.1 62.2h0.3-0.3"/>
		<path d="m21 43.7c0.1-0.1 0.1-0.2 0.2-0.2h0.1c0 0.1 0.1 0.2 0.1 0.3l0.4 0.1c-0.1-0.2-0.2-0.4-0.3-0.7 0.5-0.5 1.6-0.5 2.2-0.1 0.2 0.1 0.3 0.3 0.5 0.4 0.8 0.6 1.6 1.2 2.5 1.7l1.2 0.3c-1-0.5-1.9-1.2-2.8-1.8 1.3 0.6 2.7 1.3 3.7 2.1l1.9 0.5c0.2-0.1 0.5-0.2 0.8-0.1 0.4 0.1 0.7 0.3 0.9 0.6l2.5 0.7c1.2-0.1 2.6 0.1 3.7 0.2-0.7 0.1-1.6 0.2-2.4 0.2l1.1 0.3c0.9 0 1.8-0.1 2.5-0.2 0.9-0.1 1.7 0.5 2 1.2l-0.2 0.2 0.7 0.2c0-0.1-0.1-0.2-0.1-0.3 0.3-0.3 0.4-0.8 0.5-1.3v-0.4c-0.1-0.5-0.2-0.9-0.4-1.2 0.4-0.9 0-1.9-0.4-2.5-0.1-0.1-0.3-0.3-0.3-0.4s0-0.2 0-0.3c0-1.1-0.7-1.8-1.4-2.2-0.2-1.1-0.9-1.8-2-2-0.4-0.9-1.2-1.6-2.5-1.5-0.5-0.7-1.7-1.2-2.8-0.8-0.3-0.3-0.8-0.4-1.3-0.5h-0.4c-0.5 0.1-0.9 0.2-1.2 0.4-1.1-0.4-2.3 0-2.8 0.7-1.3-0.1-2.1 0.5-2.5 1.4-1.2 0.2-1.8 0.9-2.1 2-0.8 0.4-1.4 1-1.5 1.9v0.5c0 0.1-0.2 0.2-0.3 0.4-0.1 0.1-0.1 0.2-0.2 0.3l0.4-0.1zm5.3-1.5c1.2 1 2.5 2.1 3.5 3.5-1.4-0.9-2.5-2.2-3.5-3.5m3.9 3.8v-0.1s0.1 0 0 0.1zm-2.4-4.9c0.9 1.3 1.8 2.6 2.4 4.3-1-1.2-1.7-2.8-2.4-4.3m2.9 4.7c-0.1 0-0.1-0.1-0.1-0.2 0.1 0.1 0.2 0.1 0.1 0.2m-1.1-5.4c0.5 1.5 1.1 3 1.2 4.8-0.6-1.4-1-3.1-1.2-4.8m1.6 5.3c-0.1 0-0.1-0.1-0.1-0.2 0.1 0.1 0.1 0.2 0.1 0.2m0.2-0.6c-0.3-1.5-0.1-3.4 0-4.9 0.2 1.5 0.3 3.5 0 4.9m0.3 0.6c-0.1 0 0-0.1 0-0.2v0.2m0.4 0.2c-0.1 0 0-0.1 0-0.2 0.1 0 0 0.1 0 0.2m-0.1-0.7c0.1-1.8 0.8-3.2 1.3-4.7-0.2 1.7-0.6 3.3-1.3 4.7m0.4 0.9c0-0.1 0.1-0.1 0.1-0.2 0.1 0.1 0 0.2-0.1 0.2m0.3 0.4c0-0.1 0.1-0.1 0.1-0.1s0 0.1-0.1 0.1m-0.1-1.1c0.6-1.6 1.6-2.9 2.5-4.2-0.7 1.5-1.5 3.2-2.5 4.2m0.3 1.5c0-0.1 0.1-0.1 0.2-0.1 0 0-0.1 0.1-0.2 0.1m0.2-1c0.9-1.4 2.2-2.4 3.5-3.5-1 1.3-2.2 2.5-3.5 3.5m0.3 0.5c1.1-1 2.7-1.7 4.3-2.4-1.3 0.9-2.7 1.8-4.3 2.4m5.1-2.6c0.2-0.1 0.3-0.3 0.5-0.4 0.6-0.3 1.7-0.3 2.2 0.2-0.1 0.6-0.5 1-0.9 1.3-0.2 0.1-0.4 0.3-0.6 0.3-0.4 0.1-0.8 0.1-1.2 0.1-1.2 0.2-2.4 0.4-3.4 0.7 1.1-0.6 2.3-1.4 3.4-2.2m-0.2 1.9c0.1 0 0 0.1-0.1 0.1s-0.2 0.1-0.3 0.1c-1.3 0.5-2.7 0.9-4.2 1 1.2-0.6 2.9-0.9 4.6-1.2m0.6 1.6c-1.1-0.1-2.4-0.2-3.6-0.2 1.3-0.4 2.8-0.8 4-1.3 0.2-0.1 0.4-0.2 0.5-0.2 0.9-0.2 1.7 0.3 2.1 0.8-0.4 0.6-1 1.1-1.9 1.2-0.4-0.1-0.8-0.3-1.1-0.3m3.2 1.4c-0.3-0.5-0.7-0.8-1.3-1.1 0.6-0.2 1-0.5 1.3-1 0.4 0.5 0.3 1.6 0 2.1m-0.1-2.8c-0.1 0.1-0.1-0.1-0.1-0.1-0.3-0.3-0.8-0.5-1.4-0.6 0.4-0.4 0.8-0.8 1-1.4 0.4 0.4 0.8 1.3 0.5 2.1m-1.8-4.5c0.6 0.3 1 0.9 1.1 1.8-0.4-0.2-1-0.4-1.6-0.3 0-0.1 0.1-0.2 0.2-0.3 0.1-0.3 0.3-0.7 0.3-1.2m-0.7 1c-0.2 0.3-0.5 0.6-0.7 0.8-0.2 0.1-0.4 0.1-0.6 0.2-1.3 0.5-2.6 1.2-3.7 1.8 0.8-0.8 1.6-1.7 2.4-2.7 0.3-0.3 0.5-0.7 0.8-0.9 0.5-0.4 1.4-0.7 2.2-0.4 0 0.4-0.1 0.8-0.4 1.2m-1.2-3.2c0.8 0.2 1.3 0.8 1.5 1.5-0.5-0.1-1.2-0.1-1.7 0.1 0.2-0.3 0.4-1 0.2-1.6m-0.5-0.4c-0.7 0-1.2 0.3-1.6 0.5 0.1-0.6 0-1.2-0.3-1.7 1 0.1 1.6 0.5 1.9 1.2m-1.1 0.6c0.3-0.2 0.7-0.3 1.2-0.3 0.3 0.8-0.1 1.7-0.5 2.2-0.1 0.1-0.3 0.2-0.5 0.4-1.1 0.8-2.2 1.8-3.1 2.7 0.6-1.1 1.3-2.4 1.9-3.7 0.1-0.2 0.1-0.4 0.2-0.6 0.2-0.3 0.5-0.5 0.8-0.7m-1 0.5c-0.1 0.2-0.3 0.3-0.4 0.5-0.8 1-1.7 2.3-2.3 3.5 0.3-1 0.6-2.2 0.8-3.4 0.1-0.4 0.1-0.8 0.2-1.2 0.1-0.3 0.3-0.6 0.5-0.8 0.3-0.4 0.7-0.6 1.2-0.7 0.3 0.4 0.3 1.5 0 2.1m-0.4-2.5c-0.6 0.2-1.1 0.5-1.4 0.9-0.1-0.7-0.3-1.1-0.7-1.6 0.9-0.1 1.7 0.2 2.1 0.7m-1.8 1.7c0 0.2-0.2 0.4-0.2 0.5-0.5 1.2-1 2.6-1.4 3.9 0-1.2-0.1-2.5-0.2-3.6 0-0.4-0.1-0.8-0.1-1.1 0-0.8 0.6-1.5 1.2-1.9 0.6 0.5 1 1.3 0.7 2.2m-0.9-2.4c-0.5 0.3-0.8 0.7-1.1 1.3-0.2-0.6-0.6-1-1-1.3 0.5-0.4 1.6-0.4 2.1 0m-2.5 0.2c0.6 0.4 1.2 1 1.2 1.9 0 0.3-0.1 0.8-0.1 1.1-0.1 1.1-0.2 2.4-0.2 3.6-0.3-1.3-0.8-2.8-1.3-4-0.1-0.2-0.2-0.4-0.2-0.5-0.3-0.9 0.1-1.7 0.6-2.1m-0.4-0.2c0.1 0.1-0.1 0.1-0.1 0.1-0.3 0.3-0.5 0.8-0.6 1.4-0.4-0.4-0.7-0.8-1.3-1 0.3-0.4 1.2-0.7 2-0.5m-2.3 0.9c0.5 0.1 1 0.4 1.3 0.9 0.1 0.2 0.3 0.5 0.3 0.7 0.1 0.4 0.1 0.8 0.1 1.2 0.2 1.2 0.4 2.4 0.7 3.4-0.7-1.2-1.5-2.5-2.3-3.5-0.1-0.2-0.3-0.3-0.4-0.5-0.2-0.7-0.1-1.7 0.3-2.2m-0.4-0.1c-0.2 0.4-0.4 1-0.3 1.6-0.1 0-0.2-0.1-0.3-0.2-0.3-0.2-0.8-0.4-1.3-0.4 0.4-0.6 1-1 1.9-1m-2 1.4c0.5 0 1 0.2 1.4 0.4 0.2 0.2 0.5 0.4 0.6 0.6s0.1 0.4 0.2 0.6c0.5 1.3 1.2 2.6 1.8 3.7-0.8-0.8-1.7-1.6-2.7-2.4-0.3-0.3-0.7-0.5-0.9-0.8-0.4-0.4-0.7-1.3-0.4-2.1m-0.4 0c-0.1 0.5-0.1 1.3 0.1 1.7-0.4-0.2-1.1-0.3-1.7-0.2 0.3-0.7 0.8-1.2 1.6-1.5m-1.6 1.9c0.8-0.3 1.7 0.1 2.2 0.5 0.1 0.1 0.2 0.3 0.4 0.5 0.8 1.1 1.8 2.2 2.7 3.1-1.1-0.6-2.4-1.3-3.7-1.9-0.2-0.1-0.4-0.1-0.6-0.2-0.3-0.2-0.5-0.5-0.7-0.8s-0.4-0.7-0.3-1.2m-0.4 0.2c0 0.7 0.3 1.2 0.6 1.6-0.6-0.1-1.2 0-1.7 0.3 0.1-1 0.5-1.6 1.1-1.9"/>
		<path d="m45.6 13.8c-0.5 6.1-1 12.3-1.6 18.4v-0.1l-0.1 0.9v0.1c0 0.5-0.1 1-0.1 1.5s-0.1 1-0.1 1.5v-0.1l-0.1 0.6v0.1c0 0.2 0 0.4-0.1 0.6v-0.1 0.9c0 0.2 0 0.5-0.1 0.7-0.1 0.7-0.1 1.4-0.2 2.1v0.5 0.1 0.4c0 0.5-0.1 0.9-0.1 1.3l-0.5 6 0.4 0.1c-0.1-0.2 0.4-0.3 0.4-0.1-0.1 0.1-0.2 0.1-0.4 0.1l6.1 2.2c0-0.1 0.1-0.1 0.2-0.3 0.1 0 0.1 0.1 0.1 0.2-0.1 0-0.1 0.1-0.2 0.1l1 0.4c0-0.2-0.1-0.4 0-0.5 0.2 0 0.3 0.2 0.4 0.4l0.4 0.4 1.4 0.5h0.3c0.1 0 0.2 0.1 0.2 0.2l0.6 0.2-0.3-0.3c0.7 0 1.9 0.1 2.7 0.2 0.3 0 0.7 0 0.9 0.1s0.7 0.5 0.9 0.7c0.7 0.6 1.5 1.2 2.2 1.8l0.899 0.3c-1.1-0.9-2.2-1.8-3.399-2.7 0.199 0.1 0.6 0 0.8 0.1l0.8 0.4c1.9 0.9 3.7 1.8 5.6 2.7-0.1 0.3-0.3 0.6-0.399 0.9l0.3 0.1c0.2-0.4 0.3-0.7 0.5-1.1 2.5 1.4 5 2.7 7.6 4.1l2.2 0.8c-4.8-2.5-9.5-5.1-14.3-7.7 5.1 0.4 10.3 0.9 15.5 1.3 0.3 0 0.7 0 1 0.1s0.6 0.2 0.9 0.3c4.1 1.3 8.5 2.6 12.6 3.9-0.7 2.4-1.5 4.7-2.2 7.1l0.3 0.1c0.801-2.5 1.5-5 2.301-7.4-4.101-1.3-8.2-2.5-12.301-3.8 0.5 0 1.101 0.1 1.7 0.1 0.2-1.9 0.3-3.8 0.5-5.7 3.7-0.4 7.5-0.8 11.2-1.2-0.2-2.7-0.6-5.5-0.9-8.2-3.699 0.4-7.5 0.8-11.199 1.2-0.5-1.6-0.9-3.1-1.4-4.7 0.4-0.3 0.8-0.5 1.2-0.7 2.899-1.5 5.8-3.1 8.8-4.6-1.3-2.4-2.6-4.9-3.9-7.3-3.702 2-7.402 3.9-11.202 5.9-0.101 0 0.1-0.1 0.1-0.1 0.2-0.2 0.5-0.4 0.7-0.6l0.3-0.2c0-0.1-0.4-0.5-0.5-0.6-1.1-1.3-2.2-2.6-3.2-3.8 2.3-3 4.7-5.8 7-8.8-2.1-1.7-4.3-3.4-6.399-5.2-2.4 2.9-4.7 5.9-7.101 8.8-1.5-0.8-2.899-1.5-4.3-2.3 1.1-3.6 2.2-7.2 3.3-10.8-2.6-0.9-5.3-1.6-7.9-2.5-1.2 4-2.5 7.9-3.7 11.9 0-0.4 0.1-0.9 0.1-1.3-1.9-0.2-3.8-0.3-5.8-0.5 0.1 0-0.4-0.1-0.4-0.1m-0.9 19.1c0-0.9 0.1-1.8 0.1-2.7 0-0.5 0-1 0.1-1.4v-0.1c0.9 0 1.7 0.1 2.6 0.1 0.2 0.6 0 1.1-0.2 1.6-0.6 2-1.2 4.1-1.9 6.1-0.1-0.3-0.2-0.7-0.4-1.1-0.1-0.4-0.3-0.8-0.3-1.1-0.1-0.4 0-0.9 0-1.4m12.7 3.2c0.699-0.7 1.399-1.3 2.1-1.9h0.1c0.601 0.6 1.101 1.3 1.7 1.9-0.2 0.2-0.3 0.5-0.5 0.6-0.2 0.2-0.6 0.3-0.8 0.4-1.8 0.9-3.8 2-5.6 3 0.1-0.4 0.3-0.7 0.5-1s0.3-0.7 0.5-1c0.1-0.2 0.3-0.3 0.5-0.5 0.4-0.6 1-1.1 1.5-1.5m-1.5 0.8c0.4-0.6 1.1-1 1.7-1.5-0.5 0.5-1.1 1.1-1.7 1.5v0m6.1-0.6c2.9-1.5 5.8-3.1 8.8-4.6-1.899 1.7-4 3.4-6 5.1-1.7 1.5-3.5 3-5.3 4.5-0.3 0.2-0.5 0.5-0.8 0.6-0.3 0.2-0.8 0.2-1.101 0.3-0.399 0.1-0.8 0.3-1.1 0.4 0-0.1 0.1-0.2 0.2-0.4 0.3-0.4 0.6-0.8 0.899-1.1 0.4-0.5 0.801-1.1 1.2-1.5 0.3-0.3 0.601-0.5 0.8-0.8 0.801-0.8 1.7-1.5 2.5-2.3 0.002-0.1-0.198-0.1-0.098-0.2m-0.2 11.8c1.3 0.1 2.8 0.1 4.2 0.2 0 0.9-0.1 1.7-0.1 2.6-0.601 0.2-1.101 0-1.601-0.2-2-0.6-4.1-1.3-6.1-1.9 0.3-0.2 0.7-0.2 1.1-0.4 0.4-0.1 0.8-0.3 1.101-0.4 0.3 0 0.9 0.1 1.4 0.1m-0.4-0.3c0.1-0.1 0.3-0.1 0.399-0.1 0.9 0.1 1.9 0.2 2.8 0.2-0.999 0-2.099-0.1-3.199-0.1m-2.6 3.4c-1 0-1.899 0-2.7-0.1-0.399 0-0.899-0.4-1.2-0.6-0.4-0.2-0.7-0.4-1-0.6 1.2-0.3 2.4-0.7 3.5-1.1h0.1c1.1 0.3 2.2 0.7 3.3 1 1.101 0.3 2.2 0.7 3.3 1-0.8 0.1-1.699 0.3-2.699 0.3-0.701 0.2-1.701 0.1-2.601 0.1m0.3 0.3c-0.3 0.1-0.6 0.1-1 0.1-0.3 0-0.699 0.1-1 0.1-0.199 0-0.399-0.2-0.6-0.3 0.9 0.1 1.8 0.1 2.6 0.1m-8.6-3.8h1.2c0 0.1-0.2 0.2-0.3 0.3s-0.2 0.2-0.4 0.3c-0.2-0.2-0.4-0.3-0.6-0.5 0.1 0 0.2 0 0.1-0.1m-1.1-0.8c-0.1-0.1-0.1-0.2-0.2-0.4h0.2c-0.1 0.2 0 0.3 0 0.4m-0.2-4.9c-0.1-0.6-0.2-1.4-0.2-2.1 0-0.2-0.1-0.5-0.1-0.7s0.6-0.6 0.6-0.9c0 1.3-0.1 2.6-0.3 3.7m-1.1 5.7c0 0.2-0.2 0.4-0.5 0.4v-0.1c0.2-0.2 0.4-0.3 0.5-0.3m-0.2-2.5c0-0.1 0.1-0.1 0.1-0.1 0 0.1 0 0.1-0.1 0.1m0.1 0.3h0.2c0 0.1 0.1 0.1 0.1 0.2-0.1 0-0.2-0.1-0.3-0.2m0-1.2c-0.1-0.1-0.2-0.3-0.1-0.6 0.4-0.2 0.7-0.4 1.1-0.6 0.1 0.2-0.1 0.3-0.2 0.4l-0.8 0.8m-0.1-3.6c0.1-0.4 0.4-0.8 0.6-1.1 0.1 0.4 0.2 1.4 0.2 2 0 0.2 0.1 0.5 0.1 0.6 0 0.2-0.4 0.4-0.5 0.5-0.2 0.2-0.3 0.3-0.5 0.4 0.2-0.7 0-1.7 0.1-2.4m1.1-3.6c0.3-0.5 0.5-1 0.8-1.5 0.1 0.6-0.3 1.1-0.5 1.5-0.2 0.3-0.3 0.7-0.5 1-0.2-0.5 0-0.7 0.2-1m-0.1 5.6v0c0 0.2-0.2 0.2-0.2 0.3-0.1-0.1 0.1-0.2 0.2-0.3m0.1-4.2c0.1-0.4 0.4-0.9 0.6-1.4v0.6c-0.1 0.3-0.5 0.6-0.6 0.8m0.6 3.7c0.6-0.6 1.3-1.1 2-1.7-0.2 1-1.1 1.6-2 2-0.1-0.1 0-0.2 0-0.3m1.6-0.2c0.3-0.1 0.6-0.3 0.9-0.5-0.2 0.8-0.5 1.8-0.8 2.6-0.4 0.1-0.8 0.3-1.3 0.4 0.4-0.8 0.8-1.7 1.2-2.5m2.1-4.3c-0.1 0.4-0.3 0.8-0.4 1.2-0.1 0.1-0.2 0.2-0.4 0.3 0.3-0.5 0.6-1.1 0.8-1.5 0-0.1 0.1-0.1 0 0m-0.7 6.9c-0.3 0.2-0.7 0.2-1 0.4-0.1-0.1 0.1-0.2 0.1-0.3 0.3 0 0.6-0.1 0.9-0.1m-0.9-0.6c0.2-0.9 0.6-1.8 0.8-2.7 0.3-0.2 0.6-0.3 0.9-0.5-0.5 1.1-1.1 2.1-1.7 3.2m0.2 0.4c0.1-0.1 0.3-0.1 0.4-0.2 0.4-0.1 0.9-0.3 1.4-0.4 0 0-0.3 0.4-0.5 0.5-0.3 0-0.9-0.1-1.3 0.1m0.8 0.8l0.4-0.4c0.3-0.1 0.9-0.3 1.2-0.4-0.5 0.7-1.1 1.4-1.7 2.1-0.4 0-0.8-0.1-1.3-0.1 0 0 0.1-0.1 0.1-0.2 0.6-0.3 1-0.7 1.3-1m1.3-1.2c0.1-0.1 0.3-0.4 0.5-0.5s0.5-0.1 0.8-0.2c0 0.2-0.3 0.4-0.4 0.5-0.3 0.1-0.6 0.3-1 0.3l0.1-0.1m-1.2 3.4h-0.1 0.1m-0.3-0.6c0 0.1-0.1 0.1-0.1 0.1-0.2 0-0.3-0.1-0.5-0.1h0.6m1.6 1c-0.6 0.3-1.3 0.5-2 0.7-0.2 0.1-0.4 0.2-0.6 0.1 0-0.1 0.1-0.3 0.2-0.4 0.2-0.2 0.3-0.4 0.5-0.5 0.7 0.1 1.3 0.1 1.9 0.1m-2.5 1.3c0.3 0.2 0.6 0.5 1 0.8-0.1 0.1-0.3 0.2-0.4 0.2-0.5-0.2-0.9-0.4-1.3-0.6 0-0.3 0.4-0.3 0.7-0.4m0.4-0.1c0.8-0.3 1.8-0.6 2.6-1 0.3 0 0.6 0.2 0.9 0.3-0.5 0.3-1.2 0.7-1.8 1-0.2 0.1-0.5 0.3-0.6 0.3-0.2 0-0.4-0.2-0.6-0.3s-0.3-0.2-0.5-0.3m3.4-1.1h0.9c-0.2 0.3-0.6 0.1-0.9 0m-1.9 1.9c0.8-0.5 1.7-0.9 2.5-1.3 0.3 0.1 0.6 0.2 1 0.3-1.2 0.3-2.3 0.6-3.5 1m3-1.6c0.3-0.4 1.1-0.3 1.8-0.2h1c-0.5 0.2-1.2 0.4-1.7 0.5-0.4 0.1-0.7-0.2-1.1-0.3m0.4-0.6c-0.301 0.1-0.601-0.1-0.9 0 0.5-0.2 0.9-0.4 1.5-0.3-0.2 0-0.4 0.3-0.6 0.3m-1.9-0.1c-0.7 0.1-1.4-0.2-2-0.4 0.1-0.1 0.2-0.2 0.3-0.2 0.9 0.1 1.8 0.1 2.8 0.2-0.4 0.1-0.7 0.4-1.1 0.4m-1.8-1c0.5-0.7 1.2-1.4 1.7-2.2 0.3 0 0.6-0.1 0.9-0.1 0 0.1-0.1 0.1-0.1 0.1-0.8 0.8-1.7 1.5-2.5 2.2m2.4-2.6c0.4-0.2 0.8-0.3 1.1-0.4 0 0.1-0.3 0.2-0.4 0.4h-0.7m-0.1-0.3c0.1-0.2 0.2-0.3 0.4-0.5 0.6-0.2 1.3-0.4 2-0.6 0 0-0.101 0.1-0.2 0.2-0.5 0.4-1.5 0.6-2.2 0.9m0.2-0.8c-0.2 0.1-0.4 0.1-0.6 0.2 0.1-0.2 0.3-0.3 0.4-0.4 0.4-0.4 0.9-0.9 1.4-1.3 0 0.1-0.101 0.1-0.101 0.2-0.299 0.4-0.699 0.9-1.099 1.3m-0.8 0l-0.5 0.5c-0.1 0.1-0.4 0.1-0.5 0.2-0.5 0.2-1.1 0.3-1.6 0.5l1.8-3.3c2.1-1.1 4.2-2.2 6.2-3.3-0.3 0.4-0.6 0.7-0.899 1.1-0.301 0.3-0.5 0.7-0.801 1.1-0.3 0.3-0.699 0.6-1.1 1-0.9 0.6-1.7 1.3-2.6 2.2m-1.2-2.5c-0.3 0.2-0.7 0.4-1 0.5 0-0.2 0.1-0.4 0.1-0.5l0.4-0.4c0.4-0.4 0.9-0.8 1.3-1.2-0.2 0.6-0.5 1.1-0.8 1.6m-1-0.8c0 0.2-0.1 0.4-0.1 0.6-0.3 0.2-0.5 0.5-0.7 0.7 0.1-0.5 0.4-1 0.8-1.3m-0.4 1.2c0 0.1-0.1 0.2-0.1 0.3-0.2 0.1-0.3 0.2-0.5 0.3l0.6-0.6m0 4.4c-0.4 0.5-0.9 0.9-1.3 1.3 0-0.3 0.2-0.6 0.3-0.9 0.4-0.2 0.7-0.3 1-0.4m-0.1 2.1c0 0.1-0.1 0.1-0.1 0.2h-1.4c0-0.2 0.1-0.5 0.3-0.5 0.4 0.1 0.7 0.2 1.2 0.3m-1.5 1.4c-0.1 0.2-0.3 0.3-0.5 0.4 0-0.2 0.1-0.4 0.1-0.6 0.2 0.1 0.2 0.2 0.4 0.2m1 1.7c-0.2 0.1-0.5 0.2-0.7 0.2-0.2-0.2-0.3-0.5-0.5-0.8 0.5 0.2 0.8 0.4 1.2 0.6m0.5 0.2c0.3 0 0.6 0.4 1 0.4h-1.8c0.2-0.1 0.5-0.4 0.8-0.4m0.5-0.1c0.1 0 0.2-0.1 0.3-0.1 0.2 0.2 0.5 0.4 0.7 0.6-0.3-0.1-0.7-0.3-1-0.5m0.7-0.2c0.6 0.2 1.1 0.6 1.7 0.9h-0.6s-0.4-0.3-0.6-0.4c-0.1-0.3-0.3-0.4-0.5-0.5m2.4 1.2c0.3 0.1 0.5 0.3 0.8 0.4-0.199 0-0.5 0.1-0.7 0.1-0.3 0-0.7-0.4-1-0.5h0.9m9.9 0h-1.7c0.6-0.1 1.2-0.2 1.7 0m-8.1-3.8c0.101-0.1 0.4-0.2 0.5-0.3 0.9 0.1 1.801 0.2 2.7 0.2-0.7 0.4-2.1 0.1-3.2 0.1m0.1-0.7c0.399-0.2 0.8-0.3 1.2-0.5 0 0-0.101 0.1-0.2 0.1-0.2 0.3-0.6 0.6-1 0.4m-0.3-0.2c-0.2 0.1-0.4 0.2-0.5 0.2-0.2 0-0.5 0-0.801-0.1-0.8-0.1-1.6-0.1-2.399-0.2 0-0.1 0.2-0.2 0.3-0.3 0.7-0.6 1.4-1.2 2.2-1.8 0.1-0.1 0.2-0.2 0.399-0.3 0.301-0.1 0.7-0.1 1.101-0.1 2.5-0.3 5-0.5 7.5-0.8 0 0.1-0.101 0.1-0.2 0.1-0.9 0.5-1.8 1-2.7 1.4-0.3 0.2-0.6 0.4-1 0.5-0.3 0.2-0.7 0.2-1.1 0.4-1 0.3-1.9 0.7-2.8 1m7.8-3.1c0 0.1 0.1 0.2 0.1 0.3l-1.8 0.6c0.5-0.3 1.1-0.6 1.7-0.9m-0.7-3.1c4.5-1.3 9-2.7 13.5-4 0 0-0.2 0.1-0.3 0.2-3.601 1.9-7.2 3.8-10.9 5.8-0.4 0.2-0.8 0.5-1.4 0.5-0.4-0.9-0.7-1.7-0.9-2.5m0.4 2.4c-2.7 0.3-5.301 0.6-7.9 0.9 0-0.1 0.2-0.2 0.3-0.3 0.101-0.1 0.2-0.2 0.4-0.3s0.5-0.2 0.8-0.3c1.8-0.6 3.9-1.4 5.7-2 0.3 0.6 0.5 1.3 0.7 2m-2.8-1.7c-1.199 0.5-2.5 0.9-3.699 1.3 0.199-0.4 0.699-0.4 1.199-0.6 0.9-0.2 1.7-0.4 2.5-0.7 0 0.1 0.2 0 0 0m-1.8-3.5c0.3-0.4 0.601-0.9 1.2-1.1-0.3 0.3-0.8 0.7-1.2 1.1m1.1-2c-0.7-0.6-1.301-1.3-1.9-2 3.6-3 7.2-6.1 10.8-9.1-2.9 3.7-5.9 7.4-8.9 11.1m-7.3 2.9c-0.3 0.3-0.7 0.6-1 0.9 0-0.5 0.3-0.7 0.6-1 0.5-0.4 1.1-0.9 1.6-1.3-0.2 0.7-0.8 1-1.2 1.4m-1.9 0.5c-0.1 0.2-0.2 0.4-0.2 0.6-0.1 0.2-0.4 0.3-0.6 0.5-0.6 0.5-1.2 1-1.8 1.4 0.1-0.9 0.1-1.8 0.2-2.8 0-0.3 0-0.7 0.1-0.9s0.5-0.7 0.6-0.9c1.1-1.4 2.2-2.7 3.3-4.1 0.5-0.6 0.9-1.1 1.4-1.7v0.1c-0.3 1-0.6 2-0.9 3-0.1 0.3-0.2 0.7-0.3 1-0.1 0.4-0.4 0.7-0.5 1.1-0.4 0.9-0.9 1.8-1.3 2.7m3.4-7.7c0.1 0 0.2 0.1 0.2 0.1-0.2 0.6-0.5 1-0.7 1.6 0.1-0.6 0.4-1.1 0.5-1.7m-0.4-0.6c-0.8-0.3-1.5-0.7-2.2-1.1 2.2-4.2 4.4-8.3 6.7-12.4-1.2 3.9-2.5 8.1-3.7 12.2-0.3 0.6-0.4 1-0.8 1.3m-2.2-0.6c0.7 0.3 1.3 0.6 2 0.9-0.8 1.1-1.6 2.1-2.5 3.1-0.8 1-1.6 2.1-2.5 3.1 0.1-0.3 0-0.7 0.1-1 0.1-0.2 0.2-0.5 0.4-0.8 0.8-1.8 1.6-3.6 2.5-5.3m-2.8 5c-0.1-0.4 0.2-0.7 0.4-1 0.3-0.6 0.7-1.3 1-1.9-0.5 1-1 2-1.4 2.9m-0.3-1.5c0 0.3 0 0.7-0.1 1 0 0.2-0.2 0.4-0.3 0.6-0.3 0.5-0.6 1.1-0.9 1.7-0.1-0.6-0.2-1.3-0.2-1.9-0.1-0.6-0.2-1.3-0.2-2 0-1.5 0.2-3 0.2-4.5 0-0.1-0.2 0-0.2-0.1 1-3.2 2-6.5 3-9.7-0.4 4.8-0.8 10-1.3 14.9m-1.6 2.8c0 0.3 0.1 0.7 0.1 1 0 0.2-0.2 0.4-0.3 0.6 0.1-0.8 0.1-1.7 0.1-2.5 0 0.2 0 0.6 0.1 0.9m0.1 1.6c0.3 0.7-0.2 1.1-0.4 1.6 0-0.3-0.1-0.6 0-0.9 0.1-0.2 0.3-0.4 0.4-0.7m-0.4-7.4c-0.1-0.5-0.2-1.2 0-1.7v1.7m-0.1 2.4c0 0.9-0.1 1.9-0.1 2.8v1.4c0 0.4 0 1-0.1 1.4 0 0.1-0.2 0.3-0.3 0.5-0.3 0.5-0.5 1.1-0.8 1.5-0.3-1.1-0.6-2.1-0.9-3.2 0-0.2-0.1-0.3-0.1-0.4 0-0.2 0.2-0.6 0.2-0.9 0.6-1.9 1.3-4 1.8-5.9 0 1 0.2 1.9 0.3 2.8m-2 7.9c0.1 0.2 0.3 0.5 0.3 0.6 0 0.2-0.2 0.5-0.3 0.6l-0.3 0.6c-0.2-0.6-0.5-1.3-0.7-2-0.1-0.2-0.2-0.5-0.2-0.7 0-0.3 0.3-0.6 0.3-1 0.1 0.5 0.5 1.3 0.9 1.9m-0.9-2.3c0.1-0.3 0.2-0.6 0.3-1 0.4 1.1 0.7 2.3 1.1 3.4-0.5-0.6-0.9-1.6-1.4-2.4m1.5 3.5c0.1 0.1 0.1 0.2 0.2 0.4-0.2 0.5-0.4 0.9-0.6 1.3-0.3-0.1-0.3-0.4-0.4-0.6 0.2-0.5 0.5-0.8 0.8-1.1m0.4 0.7c0.1 0.2 0.2 0.6 0.3 0.8-0.3 0.1-0.5 0.3-0.8 0.4 0-0.4 0.3-0.8 0.5-1.2m0.4-1.8c-0.1 0.3-0.2 0.6-0.4 0.9-0.1-0.5 0.3-0.6 0.4-0.9m-0.2 1.4c0-0.2 0.2-0.4 0.2-0.5 0.1-0.2 0.2-0.3 0.2-0.5 0 0.6 0 1.3-0.1 1.9 0-0.3-0.3-0.6-0.3-0.9m0.1-1.8c-0.2 0.2-0.3 0.4-0.5 0.5 0.3-0.6 0.6-1.1 0.9-1.7v0.6c0 0.3-0.3 0.5-0.4 0.6m-2.7-3.3c0-0.6 0-1.4 0.1-2 0.1 0.2 0.2 0.5 0.3 0.9 0.1 0.3 0.2 0.6 0.2 0.9 0 0.4-0.3 0.7-0.3 1.1-0.2-0.3-0.3-0.5-0.3-0.9m0 1c0.1 0.1 0.1 0.2 0.2 0.3-0.1 0.2-0.1 0.4-0.2 0.6v-0.9m0.6 4.2c0.1 0.2 0.2 0.4 0.2 0.6-0.3-0.1-0.4-0.3-0.6-0.6-0.1-0.1-0.2-0.2-0.2-0.3v-0.3-1.3c0.2 0.6 0.4 1.2 0.6 1.9m-0.8 1.6c-0.1-0.3 0-0.8 0-1.2 0.3 0.1 0.4 0.4 0.6 0.6-0.1 0.1-0.2 0.3-0.3 0.4 0 0-0.1 0.2-0.3 0.2m0.2 0.5c-0.1 0 0-0.1 0-0.1 0.1 0 0 0.1 0 0.1m-0.1-12.8v1.3c-0.2-0.3 0-0.8 0-1.3m-0.9 10.4c0.1 0 0 0.1 0 0.1v-0.1m-0.2 3.1h0.2c-0.1 0.1-0.2 0.1-0.3 0.1 0-0.1 0.1-0.1 0.1-0.1m0.2 0.9c-0.1 0-0.2 0.1-0.4 0.1 0.1-0.3 0.3-0.3 0.4-0.1m-0.1 2.1c-0.1 0-0.3 0-0.4-0.1 0-0.2 0.5-0.1 0.4 0.1m0.4-0.8c-0.1 0-0.3-0.1-0.4-0.2v-0.1c0.3 0 0.5 0.1 0.4 0.3m-0.5-2.6v-0.5l0.6 0.3c0 0.2-0.4 0.2-0.6 0.2m0.7-1c-0.2 0-0.4-0.1-0.5-0.3 0.1-0.4 0.3-0.8 0.4-1.2 0.1 0 0.1 0.1 0.2 0.1-0.1 0.5-0.1 1-0.1 1.4m-0.2-2.4c-0.1 0-0.1-0.1-0.2-0.2 0.1-0.8 0.1-1.6 0.2-2.5 0.1 0.3 0.3 0.5 0.3 0.8 0.1 0.8-0.2 1.4-0.3 1.9m0.3-2.7c-0.2-0.4-0.3-0.9-0.2-1.5 0.4 0.2 0.3 0.9 0.2 1.5m0-3.5c0-0.5 0.1-1 0.1-1.4 0.1 0.2 0.1 0.4 0.1 0.6 0 0.8 0 1.7-0.1 2.4-0.3-0.2-0.2-1-0.1-1.6m0.4 11.6c-0.1-0.1-0.2-0.2-0.3-0.4 0.3 0 0.5 0.2 0.3 0.4m-0.1-1.4c0.1-0.1 0.2-0.1 0.3 0-0.1 0.1-0.2 0-0.3 0m0.4-0.7c0-0.1 0.1-0.1 0.1-0.2 0.1 0 0.2 0.1 0.3 0.1-0.1 0.1-0.3 0-0.4 0.1m0.6 1.9c0-0.1-0.1-0.3-0.1-0.5 0.2-0.1 0.3 0.4 0.1 0.5m-0.3-2.4c0-0.2 0.2-0.3 0.2-0.4l0.5 0.5c-0.3 0.1-0.5-0.1-0.7-0.1m0.6 1c0.1-0.1 0.2-0.1 0.3-0.1 0 0.1 0.1 0.2 0.1 0.2-0.1 0-0.2-0.1-0.4-0.1m0.6 1.4c-0.1-0.2 0-0.4 0.1-0.5 0.1 0.2 0.2 0.5-0.1 0.5m0.1-2c0-0.1 0.1-0.1 0.1-0.1 0.1 0.1 0.2 0.1 0.2 0.2-0.1 0-0.2 0-0.3-0.1m1 2.3c-0.1 0.1-0.1 0.2-0.3 0.1 0.1-0.2 0.1-0.4 0.3-0.4v0.3zm0-1.1c-0.1 0-0.1-0.1-0.2-0.2 0-0.1 0.1 0 0.2 0v0.2zm-0.6-1.5c0.1-0.1 0.3-0.3 0.5-0.4 0 0.3 0.2 0.4 0.2 0.7-0.4 0.1-0.5-0.2-0.7-0.3m0.7 6.1c0.1-0.1 0.4 0 0.4 0.2-0.3 0-0.3-0.2-0.4-0.2m0.4-0.8c0-0.3 0.4-0.1 0.5 0-0.1 0.2-0.4 0.1-0.5 0m0.1-1c0.1-0.1 0.3-0.2 0.5-0.1-0.1 0.2-0.3 0.1-0.5 0.1m0.5-1.8c-0.1-0.1-0.1-0.3-0.1-0.5 0.1 0 0.2 0.1 0.3 0.2-0.1 0.1-0.2 0.2-0.2 0.3m0-1.7c0.1 0 0.3-0.1 0.4-0.1v0.7c-0.2-0.1-0.2-0.4-0.4-0.6m0.4 5.5h-0.3c0-0.1 0.2-0.2 0.3-0.3 0.2 0.1 0.1 0.2 0 0.3m-0.7-6.1c0.1-0.2 0.2-0.3 0.4-0.5 0.2-0.1 0.3-0.3 0.5-0.4 0.1 0.2 0 0.6 0 0.9-0.3 0-0.7 0.1-0.9 0m0.9 3.1c0.1 0 0.1 0.1 0.1 0.2-0.1 0-0.1 0.1-0.1 0.1-0.1-0.1 0-0.2 0-0.3m0 1.8c0.1-0.2 0.2-0.3 0.2-0.5 0.1 0.1 0 0.3 0.1 0.4-0.1 0-0.2 0.1-0.3 0.1m0.4-6.2c0.1-0.2 0.4-0.4 0.6-0.6s0.5-0.4 0.6-0.6v0.1l-0.9 1.8c-0.1 0.2-0.1 0.5-0.4 0.5 0-0.4-0.1-0.8 0.1-1.2m0 7.9c0.1 0 0.1 0.1 0.1 0.1-0.1 0 0 0-0.1-0.1m0.3-6.4c0.4-0.1 0.8-0.1 1.2-0.2 0.1 0.1-0.1 0.3-0.1 0.4-0.4 0.2-0.9 0.3-1.4 0.5 0-0.2 0.2-0.4 0.3-0.7m1 0.7c-0.1 0.3-0.2 0.5-0.3 0.7-0.3 0-0.6-0.1-0.8-0.2 0.3-0.2 0.7-0.3 1.1-0.5m-0.5 1c-0.1 0.2-0.2 0.5-0.4 0.7-0.2-0.1-0.2-0.5-0.2-0.7h0.6m-0.3 1.3c0-0.1 0.1 0 0.1 0 0 0.1-0.1 0-0.1 0m0 0.4c0 0.1-0.1 0.2-0.1 0.3-0.1-0.1 0-0.3-0.1-0.4 0.1 0 0.2 0.1 0.2 0.1m-0.1 1.5c0.1 0 0.1 0.1 0.1 0.1 0 0.1-0.1 0.2-0.2 0.3 0-0.1 0.1-0.3 0.1-0.4m0 1.1c-0.1-0.4 0.3-0.4 0.4-0.7 0.2 0.1 0.3 0.3 0.4 0.5-0.3 0-0.6 0.1-0.8 0.2m1.2 1.3c-0.2-0.2-0.5-0.5-0.7-0.8 0.1-0.1 0.3-0.2 0.6-0.1 0.2 0.4 0.4 0.7 0.6 1.1-0.3 0.1-0.4-0.1-0.5-0.2m0.8 0.2c-0.1-0.1-0.2-0.3-0.3-0.5 0.1 0.1 0.3 0.3 0.4 0.5 0-0.1 0-0.1-0.1 0m0.6-0.1c-0.1 0-0.3-0.3-0.4-0.5-0.2-0.2-0.3-0.4-0.4-0.5 0.7 0 1.4 0 2.1 0.1 0.3 0 0.6 0.2 0.9 0.3 0.2 0.1 0.4 0.2 0.5 0.4-0.6 0.1-1.3 0.1-2 0.2-0.2-0.1-0.5 0-0.7 0m0.5 0.3c0.7-0.1 1.7-0.2 2.4-0.3 0.3 0 0.6 0.4 0.8 0.5-1.1 0-2.2-0.1-3.2-0.2m3.4-0.1c0.3 0 0.6 0.3 0.899 0.4-0.499 0.1-0.699-0.2-0.899-0.4m1 0.1c-0.301-0.1-0.601-0.3-0.9-0.4 0.6-0.2 1.1 0.1 1.5 0.4 0.3 0.2 0.6 0.3 0.9 0.5-0.7 0-1.1-0.3-1.5-0.5m3.2 1.4c0.801 0.4 1.601 0.9 2.4 1.3 0 0 0.2 0.1 0.1 0.1-1.3-0.7-2.699-1.3-4-2 0.6 0 1 0.3 1.5 0.6m0.1-0.8c-0.3 0-0.7 0-1-0.1-0.2 0-0.3-0.2-0.5-0.3-0.5-0.3-1-0.5-1.5-0.8 0.6-0.1 1.3-0.2 1.899-0.2 0.601-0.1 1.301-0.2 2-0.2 1.5 0 3 0.2 4.5 0.2v-0.1-0.1c3.101 1 6.2 1.9 9.301 2.9-4.7-0.4-9.8-0.9-14.7-1.3m19.8-3.4c-0.1 1.6-0.3 3.5-0.4 5-0.5 0-1-0.1-1.399-0.1-0.5 0-1 0-1.5-0.1-0.4-0.1-0.9-0.3-1.4-0.4-2.8-0.9-5.5-1.7-8.3-2.6-0.4-0.1-0.9-0.3-1.3-0.5 0.099-0.1 0.299-0.1 0.399-0.1 3.4-0.3 6.801-0.7 10.2-1.1 1.2-0.1 2.4-0.2 3.5-0.4 0.2 0.1 0.2 0.1 0.2 0.3m-14.3 1c0-0.9 0.1-1.8 0.1-2.7v-0.1c4.7 0.4 9.5 0.8 14.2 1.2-4.7 0.6-9.5 1-14.3 1.6m13.8-9.2c3.6-0.4 7.2-0.8 10.8-1.2 0.101 0.1 0.101 0.3 0.101 0.4 0.3 2.3 0.5 4.8 0.8 7.1-3.601 0.4-7.2 0.8-10.8 1.2v-0.3c-6.101-0.5-12.101-1-18.101-1.5 5.8-1.8 11.601-3.5 17.4-5.3-0.1-0.1-0.2-0.2-0.2-0.4m-0.2 0.2c-5.7 1.8-11.6 3.5-17.399 5.3-0.2 0.1-0.4 0.2-0.601 0.2s-0.5 0-0.8-0.1c-0.7-0.1-1.5-0.1-2.3-0.2 0-0.1 0.2-0.1 0.3-0.2 0.3-0.2 0.6-0.3 1-0.5s0.8-0.5 1.3-0.7c0.4-0.2 0.7-0.2 1.101-0.4 1.1-0.4 2.199-0.8 3.3-1.2-0.101-0.2-0.101-0.4-0.2-0.6 0.5-0.4 1.4-0.4 2.3-0.5 2.8-0.3 5.601-0.6 8.4-0.9 1.2-0.1 2.3-0.2 3.399-0.4l0.2 0.2m-0.2-0.5c-4.3 0.4-8.5 0.9-12.699 1.4 3.699-2 7.5-4 11.3-6 0.499 1.5 0.899 3.1 1.399 4.6m-5.9-11.2l10.8-5.7c1.2 2.3 2.4 4.5 3.5 6.7l-9.6 5.1c-0.1 0-0.1-0.2-0.1-0.2-6.3 1.9-12.5 3.8-18.8 5.7 0-0.1 0.2-0.2 0.3-0.3 3-2.6 6.101-5.2 9.2-7.7 0.8-0.7 1.6-1.3 2.4-2 0.3-0.2 0.5-0.5 0.8-0.7 0.5-0.4 1-0.6 1.5-0.9m0.4-1.3c-0.5 0.5-1.1 0.9-1.6 1.4l-0.5 0.5c-0.4 0.2-0.9 0.4-1.3 0.7-2.6 1.3-5.1 2.8-7.7 4.1-0.4 0.2-0.8 0.5-1.3 0.6 0-0.2 0.1-0.3 0.2-0.4 2.1-2.7 4.3-5.4 6.5-8.1 0.8-1 1.5-1.9 2.3-2.9 1.1 1.4 2.3 2.8 3.4 4.1m-2.6-17.8c2 1.6 3.9 3.2 5.9 4.7-2.2 2.8-4.5 5.6-6.801 8.4-0.1 0-0.1-0.1-0.199-0.2-4.6 3.8-9.2 7.8-13.8 11.7-0.1 0-0.1 0.1-0.199 0.1 2.899-5.3 5.799-10.7 8.599-16.1-0.1-0.1-0.3-0.2-0.4-0.2 2.4-2.7 4.7-5.6 6.9-8.4m-7 8.8c0.1 0 0.1 0.1 0.2 0.1-2.8 5.1-5.5 10.4-8.4 15.6-0.2 0.3-0.3 0.7-0.6 1-0.3 0.4-0.8 0.7-1.2 1s-0.8 0.7-1.2 1c0.1-0.5 0.3-1 0.5-1.5s0.3-1 0.5-1.5c0.3-0.7 0.7-1.3 1-2s0.6-1.3 0.9-2l-0.6-0.3c0.1-0.6 0.4-0.8 0.7-1.3 2-2.5 3.9-4.9 5.9-7.3 0.8-1 1.5-1.9 2.3-2.8m-0.3-0.2c-2.7 3.3-5.3 6.7-8 10 1.3-4.1 2.5-8.2 3.8-12.2 1.4 0.7 2.8 1.5 4.2 2.2m-12-4c0.9-2.7 1.7-5.5 2.5-8.2 0.4-1.1 0.7-2.3 1-3.3 2.399 0.7 4.8 1.5 7.2 2.2-1 3.5-2.101 7-3.2 10.4 0 0.1-0.2-0.1-0.2-0.1-3.1 5.7-6.2 11.6-9.3 17.2 0.4-4.9 0.8-9.7 1.2-14.6 0.1-0.7 0-1.4 0.2-2.1 0.2-0.4 0.4-0.9 0.6-1.5m-6-1.4c1.8 0.1 3.6 0.3 5.4 0.4-0.1 0.8-0.1 1.7-0.2 2.5-0.1 0.5-0.3 1-0.4 1.4-0.9 2.8-1.7 5.7-2.6 8.6-0.1 0.5-0.3 0.9-0.5 1.4-0.1-0.1-0.1-0.3-0.1-0.4-0.6-4.5-1.2-9.2-1.6-13.9m1.2 14.3c-0.9 0-1.8-0.1-2.7-0.1l1.2-13.8c0.5 4.6 1 9.3 1.5 13.9"/>
		<path d="m43 52.6l-0.4-2c-0.1-0.3-0.2-0.6-0.3-1l-0.3 0.3c0.1 0.3 0.2 0.6 0.2 0.8-0.2 0-0.5-0.1-0.8-0.1l-0.2 0.4c0.4 0 0.8 0.1 1.1 0.2 0.2 0.4 0.5 0.9 0.7 1.4"/>
		<path d="m50.8 89.2c-0.8-1-1.9-1.8-3.1-2.4 1-0.1 1.8-0.2 2.5-0.5l-0.1-0.3c-1 0.4-2.1 0.6-3.4 0.5-2.8-0.2-4.9-1.3-6.2-2.9 2.6-0.5 4.6-1.699 6.2-3.199 0.8 1.399 1.8 2.6 3 3.5l-0.1-0.5c-1.1-0.9-2-2-2.7-3.2 0.5-0.601 1.1-1.2 1.6-1.8l-0.1-0.401c-0.5 0.6-1.1 1.3-1.7 1.9-0.8-1.601-1.6-3.301-2.2-5.2 0.9-0.8 1.8-1.5 2.7-2.4l-0.1-0.4c-0.8 0.9-1.7 1.7-2.7 2.4-0.5-1.7-0.9-3.5-0.9-5.6 0.9-0.5 1.8-1 2.6-1.601l-0.1-0.499c-0.8 0.6-1.6 1.1-2.5 1.6 0-1.2 0.1-2.3 0.3-3.4 0.6-0.2 1.2-0.5 1.7-0.7l-0.1-0.3c-0.5 0.3-1 0.5-1.6 0.7 0-0.4 0.3-0.6 0.6-0.9 0.3-0.199 0.5-0.399 0.8-0.6l-0.1-0.4c-0.2 0.101-0.3 0.2-0.5 0.301 0.1-0.2 0.3-0.4 0.4-0.7l-0.1-0.5c-0.2 0.399-0.5 0.8-0.8 1.2 0.1-0.5 0.4-1.101 0.5-1.601h0.2l-0.2-1.1c-0.6 0.1-1.2 0.3-1.6 0.4 0.5-0.4 1-0.8 1.4-1.2l-0.1-0.4c-0.4-0.1-0.7-0.1-1-0.2 0.2-0.3 0.5-0.5 0.8-0.7h0.1l-0.1-0.4s-0.1 0-0.1 0.1c-0.6-0.2-1.2-0.3-1.8-0.4 0.5-0.1 1.2-0.3 1.7-0.5l-0.1-0.6c-0.1 0-0.1-0.1-0.2-0.1 0 0 0.1 0 0.1-0.1v-0.1c-0.1 0.1-0.3 0.1-0.4 0.1-0.4-0.3-0.8-0.7-1.2-1.1 0.5 0.2 1.1 0.6 1.6 0.9l-0.1-0.5c-0.3-0.2-0.7-0.4-1-0.6 0.3 0 0.6 0.1 0.9 0.1l-0.1-0.3c-0.7-0.1-1.4-0.2-2.1-0.4-0.1-0.1-0.2-0.2-0.2-0.3 0.7-0.1 1.4-0.2 2.1-0.2l-0.1-0.3c-0.8 0-1.6 0.1-2.3 0.2-0.3-0.4-0.6-0.7-0.8-1.1l-0.2 0.3 0.6 0.9c-0.5 0.1-1.1 0.2-1.6 0.4l-0.3 0.4c0.7-0.2 1.4-0.4 2.2-0.5 0.1 0.2 0.4 0.3 0.4 0.6 0.1 0 0.1 0 0.2 0.1 0.5 0.6 1.1 1.1 1.7 1.6-0.7 0.3-1.4 0.6-2 1h-0.2c-0.1 0.2-0.4 0.3-0.6 0.5-1-0.5-1.9-1.1-2.8-1.7l-0.2 0.3c0.8 0.6 1.7 1.1 2.7 1.6-0.8 0.6-1.5 1.2-2.3 2-0.1 0.1-0.2 0.3-0.3 0.3s-0.5-0.2-0.7-0.2c-0.5-0.2-1.1-0.4-1.6-0.7l-0.2 0.3c0.7 0.3 1.5 0.6 2.2 0.9-1.2 1.4-2.4 2.9-3.3 4.7-0.9-0.2-1.8-0.3-2.7-0.6l-0.2 0.3c0.9 0.2 1.8 0.4 2.8 0.6-0.8 1.7-1.6 3.4-2.1 5.3-1.7 0-3.1-0.4-4.4-0.9l-0.2 0.3c1.3 0.5 2.7 0.9 4.5 0.9-0.7 2-0.5 5.1 0.1 7-2.1-0.5-3.6-1.7-4.8-3.101-0.6-0.699-1.1-1.6-1.5-2.5l-0.2 0.301c0.1 0.199 0.2 0.399 0.2 0.5-0.1 0-0.2-0.2-0.4-0.2h-0.1l-0.2 0.3c0.4 0.3 0.8 0.6 1.1 0.9 0.2 0.2 0.3 0.4 0.4 0.6 0.3 0.4 0.6 0.7 0.9 1.2 0.5 1.1 1.2 3 0.7 4.6 0 0.101-0.1 0.2 0 0.3 0.1 0.2 0.3 0 0.4 0 1.6-0.5 3.6 0 4.7 0.5 0.3 0.101 0.5 0.301 0.8 0.5 0.5 0.4 1.1 0.601 1.6 0.9 0.2 0.2 0.5 0.3 0.8 0.5 0.3 0.1 0.6 0.2 0.8 0.4 0.5 0.3 0.9 0.8 1.3 1.199 0.6 0.7 1.3 1.7 1.6 2.801 0.1 0.199 0 0.5 0.2 0.399 0.1 0.101 0.2 0 0.3-0.1 0.9-0.9 2.4-1.4 4-1.601 0.7-0.1 1.2 0 1.8 0.101 0.3 0 0.6 0.1 0.9 0.1 1.8 0.601 3.3 1.601 4.1 3.101l-0.1-0.7zm-4.4-9.2c-1.1 1.2-2.6 2.1-4.4 2.8-0.3 0.101-0.5 0.2-0.9 0.3-0.3 0.101-0.8 0.2-1 0.2-0.1 0-0.3-0.3-0.4-0.5-0.9-1.3-1.6-2.7-2-4.5 2.4-0.899 4.5-2.2 6.5-3.6 0.6 1.9 1.3 3.7 2.2 5.3m-2.5-6.3c0 0.2 0.2 0.6 0.2 0.6 0 0.101-0.5 0.4-0.7 0.601-0.8 0.5-1.5 1-2.3 1.399-1.1 0.6-2.1 1.2-3.4 1.6-0.3-2.2-0.2-5.101 0-7.301 2-0.399 3.8-1 5.4-1.8 0.1 1.601 0.4 3.501 0.8 4.901m-0.8-5.3c-1.5 0.899-3.4 1.5-5.3 1.899 0.2-1.6 0.6-3.1 1.1-4.399 1.6-0.101 3.1-0.4 4.4-0.9 0 0.2 0 0.5-0.1 0.8-0.1 0.7-0.1 1.6-0.1 2.6m1-6.3c-0.2 0.601-0.3 1.2-0.6 1.801 0.1 0.199-0.1 0.5-0.1 0.699-1.3 0.5-2.8 0.801-4.4 0.9 0.6-1.5 1.3-2.8 2.1-4 0.3 0 0.6 0 0.7 0.1 0.3-0.1 0.8 0 1.3 0 0.4 0 0.8 0 1.1-0.1 0.1 0.2 0 0.4-0.1 0.6m0.5-1.4c0 0.1-0.1 0.3-0.2 0.4-0.5 0.1-1.1 0.1-1.7 0.1 0.6-0.2 1.3-0.3 1.9-0.5m-0.6-1.2c-0.7 0.7-1.4 1.2-2.3 1.7-0.1-0.1-0.3 0-0.3 0 0-0.1 0.1-0.2 0.1-0.2 0.4-0.6 1-1.2 1.5-1.7 0.4 0 0.7 0.2 1 0.2m-0.7-2.9c0.1 0.1 0.2 0.2 0.4 0.2-0.5 0.2-1.2 0.3-1.8 0.5 0.4-0.3 0.9-0.5 1.4-0.7m-2.4 1.2c1 0 1.9 0.2 2.8 0.4-0.2 0.3-0.5 0.5-0.8 0.7-0.8-0.2-1.6-0.5-2.3-0.9 0-0.1 0.2-0.1 0.3-0.2m-0.7 0.5c0.7 0.3 1.5 0.6 2.4 0.9 0 0.1-0.1 0.1-0.2 0.2-0.5 0.5-1 1.2-1.5 1.7-1.2-0.1-2.3-0.4-3.3-0.7 0.8-0.8 1.7-1.5 2.6-2.1m-2.8 2.4c1.1 0.3 2.1 0.6 3.3 0.7-0.8 1.2-1.5 2.6-2.1 4-1.5 0.1-3.2 0-4.5-0.2 0.9-1.6 2-3.2 3.3-4.5m-3.5 4.9c1.4 0.2 3 0.301 4.6 0.2-0.5 1.4-0.9 2.9-1.1 4.5-1.7 0.4-3.6 0.601-5.7 0.601 0.6-1.901 1.3-3.701 2.2-5.301m-2.3 5.7c2.1 0 4-0.2 5.7-0.6-0.2 2.2-0.4 5.1 0 7.399-1.5 0.4-3.7 0.7-5.5 0.301-0.7-1.9-0.9-5.1-0.2-7.1m1.6 10.1c-1.3-0.7-3.4-1.101-5.2-0.7 0.3-1.5 0-3.101-0.5-4.2 1.1 0.9 2.4 1.7 4.2 2.1 0.3 1 0.9 1.801 1.5 2.601-0.1 0.099 0 0.099 0 0.199m1.8 1.1c-0.6-0.4-1.3-1.1-1.7-1.6-0.5-0.601-1-1.4-1.2-2.101 1.8 0.3 3.9 0.101 5.4-0.3 0.1 0.2 0.2 0.4 0.2 0.7 0.5 1.6 1.2 3.1 2.1 4.2-0.9 0.1-1.8 0.1-2.6-0.101-0.9-0.198-1.7-0.398-2.2-0.798m4.9 5.3c-0.5-1.899-1.7-3.2-3.1-4.3 0.6 0.1 1.8 0.2 2.8 0.1 0.1 0 0.3-0.1 0.4 0 0.1 0 0.3 0.301 0.4 0.4 0.9 1 2.1 1.7 3.5 2.2-1.7 0.3-3 0.8-4 1.6"/>
		<path d="m44.1 49.9l-1.4 1.4 0.1 0.4 0.4-0.4c0.4-0.4 0.8-0.9 1.2-1.3l-0.3-0.1z"/>
		<path d="m42.2 49.2v0.2c0.1 0 0.2-0.1 0.3-0.1l-0.3-0.1z"/>
		<path d="m45.1 50.3c-0.6 1.3-1.2 2.7-1.8 4l0.1 0.6c0.7-1.5 1.3-3 2-4.5l-0.3-0.1z"/>
		<path d="m79.7 79.3v-9.1-0.3c3.1-1.2 6.1-2.301 9.1-3.5l-0.5-0.2c-2.899 1.1-5.8 2.2-8.6 3.3v-0.2-6.3l-0.4-0.1v6.6 0.3c-2.7 1-5.399 2.101-8.1 3.101 0.8-1.901 1.7-3.801 2.6-5.801 0.101-0.3 0.2-0.6 0.4-0.8 0.1-0.2 0.399-0.399 0.6-0.7 1-1 2-2.1 3.101-3.199l-0.401-0.101c-0.6 0.601-1.2 1.2-1.7 1.8-0.3 0.4-0.7 0.7-1 1.101l-0.1 0.1c0.399-1 0.899-2 1.399-3.1 0.101-0.101 0.101-0.3 0.2-0.4l-0.299-0.101c-0.5 1.1-0.9 2.1-1.4 3.2-0.2 0.4-0.3 0.8-0.5 1.2-0.2 0.3-0.6 0.6-0.9 1-0.9 1-1.8 1.9-2.7 2.801v-6.201c1.8-0.7 3.5-1.4 5.3-2l-0.5-0.2c-1.6 0.6-3.1 1.2-4.7 1.8-0.1 0.101-0.1-0.1-0.1-0.2v-3.7l-0.4-0.1v3.5 0.3c-1.5 0.7-3.199 1.2-4.8 1.9-0.2-0.1-0.399-0.3-0.5-0.5 0.5-1.3 1.101-2.5 1.601-3.8 0.699-0.7 1.3-1.4 2-2.1l-0.401-0.1-0.1 0.1c-0.301 0.3-0.601 0.7-0.9 1l-0.1 0.1c0.199-0.5 0.399-0.9 0.6-1.4l-0.3-0.1c-0.2 0.6-0.5 1.1-0.7 1.7l-0.3 0.6c-0.101 0.2-0.3 0.3-0.5 0.5l-1.5 1.5v-3.3c0.899-0.4 1.8-0.7 2.8-1.1l-1-0.1c-0.8 0.3-1.5 0.6-2.3 0.9v-1.7l-0.4-0.2v2c-1.1 0.4-2.3 0.9-3.399 1.3-0.101-0.1-0.301-0.2-0.301-0.3 0.2-0.5 0.4-0.9 0.601-1.4 0.2-0.4 0.399-0.9 0.6-1.3 0.2-0.3 0.601-0.6 0.9-0.9l-0.3-0.1h-0.101l-0.3-0.2c0 0.1-0.1 0.2-0.1 0.3l-0.3 0.6c-0.1 0.2-0.3 0.3-0.5 0.5-0.5 0.5-1 1.1-1.5 1.5-1.899-1.8-3.7-3.7-5.6-5.4-0.3-0.2-0.5-0.5-0.8-0.8l-0.8-0.3c1.9 1.8 3.7 3.6 5.6 5.4 0.3 0.3 0.7 0.7 1.1 1 0.101 0.1 0.4 0.3 0.4 0.3s-0.2 0.3-0.3 0.3c-0.601 0.6-1 1-1.5 1.6-0.2 0.2-0.4 0.5-0.601 0.6-0.2 0.1-0.6 0.2-0.8 0.3-0.8 0.3-1.6 0.7-2.5 1-1.5-3.9-3-7.8-4.5-11.8l-0.399-0.2c0.1 0.3 0.3 0.7 0.4 1 1.4 3.7 2.9 7.4 4.2 11-0.6 0.2-1.3 0.5-1.9 0.7-0.3 0.1-0.5 0.3-1 0.2h-2.4v-13l-0.4-0.1v13.4c0.1 0.2-0.1 0.1-0.2 0.1h-0.9l0.1 0.4h1v0.3 0.3 0.2c-0.2 0.1-0.4 0.1-0.6 0.2-0.1 0-0.2-0.101-0.3-0.101l0.1 0.5h0.1c0.2 0 0.4 0.2 0.6 0.301v0.399 3.501l0.4 2c1-0.399 1.9-0.7 2.9-1.1 0.5-0.2 0.8-0.4 1.4-0.4h3.8c0 0.101 0.2 0.4 0.2 0.601 0 0.1-0.3 0.399-0.4 0.5-0.4 0.5-0.9 1-1.3 1.399-0.7 0.7-1.2 1.3-1.8 1.8-1.5-0.699-3-1.3-4.5-2l0.1 0.4c1.4 0.6 2.7 1.2 4.1 1.8-0.3 0.4-0.7 0.7-1 1.101-0.6 0.699-1.3 1.399-2 2.1l0.1 0.4c1.1-1.2 2.2-2.4 3.4-3.4 1.9 0.8 3.8 1.7 5.7 2.5-1.399 0.6-2.8 1.1-4.2 1.7-0.3 0.1-0.6 0.3-1.1 0.2h-3.5l0.1 0.399h2.6 0.2c-0.9 0.3-1.8 0.7-2.7 1l0.1 0.3c1.2-0.5 2.4-0.899 3.7-1.399h0.3 6.8s-0.1 0.1-0.1 0.2c-1.5 1.5-2.9 3-4.4 4.5-0.5 0.5-1 1.1-1.5 1.6-1.4-0.6-2.8-1.3-4.2-1.9l0.1 0.399c1.3 0.6 2.6 1.2 3.9 1.7 0 0.1-0.2 0.2-0.2 0.3-0.9 0.9-1.8 1.8-2.6 2.7l0.1 0.399c0.9-1 1.9-1.899 2.7-2.899 0.1-0.101 0.3-0.3 0.5-0.4 2.9 1.3 5.9 2.601 8.9 3.9 1.601-3.601 3.2-7.2 4.8-10.8h9.6 0.3 1.9c-0.1-0.2-0.2-0.5-0.2-0.6m-33.1-13.3s-0.2 0-0.1-0.1h0.1c0.1-0.1 0 0 0 0.1m23.5 4.4v-0.2c1.1-1.1 2.1-2.2 3.2-3.3-0.899 2-1.8 4.1-2.7 6.1-1.699 0.6-3.3 1.3-5 1.9-0.1-0.1 0.1-0.2 0.2-0.3 1.4-1.4 2.7-2.9 4.1-4.2h0.2zm-13.6 0.3h4.8c-1 2.3-2.1 4.7-3.1 7-0.7-1.8-1.5-3.9-2.2-5.8 0-0.101-0.1-0.301-0.1-0.4-0.1-0.3 0.5-0.6 0.6-0.8m-0.8 0.3c-0.1-0.1-0.1-0.2-0.1-0.4h0.4v0.101c-0.1 0.099-0.2 0.199-0.3 0.299m-1.2-2c-0.2 0.1-0.4 0.1-0.5 0.2-1.1-0.5-2.2-1-3.3-1.4 0.8-0.8 1.6-1.7 2.4-2.5 0.5 1.3 1 2.5 1.4 3.7m-1.3-4.5h0.2c0 0.1-0.1 0.1-0.1 0.1-0.1 0-0.1 0-0.1-0.1m1.4 4.8c0.1 0 0.1 0.101 0.1 0.2-0.1 0-0.2-0.1-0.3-0.1 0.1 0 0.2 0 0.2-0.1m-1.2-4.2c0.1-0.199 0.3-0.399 0.5-0.5h3.4c-0.6 1.4-1.2 2.801-1.8 4.2-0.2 0.1-0.4 0.1-0.6 0.2-0.5-1.4-1-2.7-1.5-3.9m4.2-0.6c0-0.1 0.2 0 0.4 0h3.8 0.2c-0.6 0.6-1.3 1.4-2 2.1-0.2 0.2-0.4 0.5-0.7 0.7-0.3 0.1-0.6 0.2-0.9 0.3-0.9 0.301-1.7 0.7-2.601 1 0.601-1.4 1.201-2.8 1.801-4.1m2 2.9c1.2-0.4 2.4-0.9 3.7-1.4l-1.8 4.2h-4.5c0-0.101 0.2-0.2 0.3-0.4 0.7-0.7 1.5-1.6 2.3-2.4m2.1 3.2h7.4 0.301c-1.301 1.301-2.7 2.801-4 4.2-0.201 0.2-0.401 0.5-0.601 0.6s-0.5 0.199-0.8 0.3c-1.8 0.7-3.6 1.399-5.4 2.1 1-2.5 2-4.9 3.1-7.2m7.9-7v5 0.301 0.5 0.3 0.1c-1.6-1.5-3.1-3-4.699-4.5 1.699-0.601 3.199-1.101 4.699-1.701m-4.9 1.9c1.6 1.5 3.1 3 4.6 4.4 0.101 0 0.101 0.1 0.2 0.1h-7.3-0.3c0-0.2 0.1-0.4 0.199-0.5 0.601-1.2 1.2-2.6 1.7-3.9 0.301 0.1 0.601 0 0.901-0.1m-0.2-0.3c-0.1 0.1-0.3 0.1-0.5 0.2 0.1-0.101 0.1-0.301 0.2-0.4 0.1 0 0.1 0.1 0.3 0.2m-0.7-1.5v-0.6c0.4-0.399 0.9-1 1.3-1.399 0 0 0.101-0.1 0.2-0.1-0.399 0.9-0.8 1.8-1.2 2.8-0.1-0.001-0.2-0.101-0.2-0.201-0.1-0.2-0.1-0.4-0.1-0.5m0.1 1c-0.1 0.3-0.3 0.6-0.4 0.9-1.1 0.4-2.2 0.9-3.3 1.301 0.8-0.801 1.6-1.601 2.3-2.4h0.9c0.3-0.101 0.4 0.099 0.5 0.199m-0.8-0.8c0.1 0.1 0.1 0.1 0.1 0.2h-0.3c0-0.1 0.1-0.2 0.2-0.2m0.4-0.1c-0.1 0-0.1-0.1-0.1-0.1 0-0.101 0.1-0.101 0.1-0.101 0-0.199-0.1 0.101 0 0.201m-0.2-4.4c0.1 0 0.1 0 0 0 0.1 0 0.1 0 0 0 0.101 0 0 0.2 0 0.4 0.1-0.2 0.1-0.4 0-0.4v0.5 2.7 0.301c-0.1 0.199-0.3 0.399-0.4 0.499-0.9-0.9-1.9-1.8-2.8-2.8 1.2-0.4 2.2-0.8 3.2-1.2m-3.5 1.4c0.8 0.7 1.8 1.7 2.601 2.5 0.1 0.101 0.399 0.3 0.399 0.4s-0.399 0.3-0.399 0.399h-4.601c0.4-1.1 0.9-2.1 1.4-3.1 0.2-0.099 0.4-0.199 0.6-0.199m-0.4-0.3c0-0.1 0-0.1 0.1-0.1 0 0 0.1 0 0.1 0.1h-0.2m0.7-2.4c-0.199 0.6-0.5 1.1-0.699 1.7-0.2-0.1-0.4-0.3-0.5-0.5 0.399-0.4 0.799-0.9 1.199-1.2m-3.2 3.3c0.5-0.5 0.899-1 1.5-1.5l0.199-0.2c0.101 0 0.301 0.2 0.301 0.3 0.1 0.1 0.199 0.2 0.3 0.3-0.1 0.2-0.2 0.4-0.2 0.6-0.7 0.3-1.5 0.6-2.2 0.9-0.1-0.3 0.1-0.4 0.1-0.4m-0.8 0.8c0.4-0.2 0.9-0.3 1.301-0.5 0.399-0.2 0.8-0.4 1.3-0.5-0.4 1-0.9 2-1.3 2.899h-2.701-0.3-0.1c-0.1 0 0-0.1 0.1-0.1 0.4-0.5 0.9-1 1.4-1.4 0-0.099 0.2-0.299 0.3-0.399m-0.8 0.3s-0.1 0.1-0.1 0.2l-1.5 1.5h-0.4-0.2c-0.1-0.2-0.2-0.5-0.3-0.7 0.8-0.4 1.7-0.7 2.5-1m-4.5 1.7c0.5-0.2 1.1-0.4 1.6-0.601 0.1 0.2 0.1 0.4 0.2 0.601h-1.6s-0.3 0.1-0.2 0m-3.8 0.8v-0.4h1.4 0.4c-0.6 0.2-1.1 0.4-1.7 0.601-0.2 0.199-0.1-0.101-0.1-0.201m0 0.7c0.9-0.4 1.9-0.7 2.8-1.101h0.5 2.5c0.1 0.101 0.1 0.2 0.1 0.4-0.4 0.5-0.8 0.9-1.3 1.4-0.4 0.5-0.9 0.899-1.3 1.3-1.1-0.5-2.2-1-3.4-1.5 0.1-0.199 0.1-0.299 0.1-0.499m0.1 4v-3.2c1 0.5 2.1 0.9 3.1 1.4-0.8 0.899-1.6 1.699-2.5 2.6h-0.4-0.2v-0.8zm0.2 1.2c0 0.1-0.1 0.1-0.2 0.199v-0.199c0.1 0 0.2-0.1 0.2 0m-0.2 1v-0.2c0.2-0.3 0.5-0.5 0.7-0.8h1.7 0.3 0.2c-1 0.3-1.9 0.6-2.9 1m3.8-1.5h-0.3-2.4c0-0.101 0.1-0.101 0.1-0.101 0.7-0.8 1.5-1.5 2.2-2.3 1 0.5 2 0.9 3 1.4-0.9 0.301-1.7 0.701-2.6 1.001m3.3-0.1h-1.1-0.3-0.5-0.2c0.4-0.1 1-0.399 1.5-0.6 0.2-0.101 0.4-0.2 0.5-0.2 0.2 0 0.3 0.1 0.5 0.2s0.3 0.1 0.5 0.2c0 0.1 0.1 0.199 0.1 0.3h-1v0.1zm0.9-0.9c0-0.101-0.1-0.101-0.1-0.2 0.1 0 0.1-0.101 0.2-0.101 0 0.201-0.1 0.201-0.1 0.301m0.1 0.5c0.1-0.301 0.3-0.601 0.4-1 1.1-0.4 2.1-0.801 3.1-1.2 0 0.1-0.101 0.1-0.101 0.1-0.699 0.8-1.5 1.5-2.199 2.3 0 0.101-0.2 0.101-0.4 0.101h-0.7c0-0.001 0-0.201-0.1-0.301m-3 5.3c0.9-1 2-2.101 3-3.101 0.1-0.1 0.2-0.3 0.4-0.399 0.8 2 1.5 4 2.3 6-1.9-0.8-3.8-1.7-5.7-2.5m7.8 4.5h-0.5-0.3-4.9-0.3-0.2c1.1-0.5 2.5-1 3.7-1.4 0.3-0.1 0.5-0.3 0.7-0.1 0.1 0 0.1-0.2 0.1-0.2 1.9-0.7 3.9-1.5 5.8-2.2 0 0.1-0.1 0.2-0.2 0.2-1 1.1-2.101 2.1-3.101 3.2-0.099 0.3-0.299 0.6-0.799 0.5m7.5 0.3c-1.5 3.5-3 6.9-4.6 10.3-2.9-1.2-5.601-2.5-8.5-3.7 0-0.1 0.2-0.3 0.3-0.399 0.9-0.9 1.8-1.9 2.7-2.8 1-1.101 2.1-2.101 3.1-3.2h0.3 6.4c0.1-0.301 0.3-0.301 0.3-0.201m0.2-0.4h-6.3-0.4c0-0.1 0.1-0.199 0.2-0.199 1.2-1.301 2.6-2.7 3.8-4 1.8-0.7 3.6-1.4 5.4-2.101-0.9 2.2-1.8 4.2-2.7 6.3m11.4-0.2h-10.7-0.301c0.901-2.1 1.901-4.2 2.801-6.3 2.8-1.1 5.6-2.2 8.4-3.2v5.7 0.301 3.299c0.2 0.2-0.1 0.1-0.2 0.2"/>
</g>
</svg>
