<?xml version="1.0" encoding="utf-8"?>
<!-- Generator: Adobe Illustrator 16.0.0, SVG Export Plug-In . SVG Version: 6.00 Build 0)  -->
<!DOCTYPE svg PUBLIC "-//W3C//DTD SVG 1.1//EN" "http://www.w3.org/Graphics/SVG/1.1/DTD/svg11.dtd">
<svg version="1.1" id="Layer_1" xmlns="http://www.w3.org/2000/svg" xmlns:xlink="http://www.w3.org/1999/xlink" x="0px" y="0px"
	 width="209.75px" height="33px" viewBox="0 0 209.75 33" enable-background="new 0 0 209.75 33" xml:space="preserve">
<g enable-background="new    ">
	<path fill="#7C6752" d="M1.379,18.894h1.9c0.581,0,1.127,0.026,1.64,0.079s0.985,0.146,1.417,0.276s0.82,0.31,1.163,0.534
		s0.634,0.508,0.874,0.851c0.24,0.344,0.423,0.755,0.55,1.233c0.127,0.479,0.191,1.036,0.191,1.671c0,0.699-0.118,1.333-0.353,1.9
		c-0.235,0.567-0.576,1.052-1.023,1.452S6.745,27.6,6.101,27.818c-0.644,0.218-1.373,0.327-2.186,0.327H1.341L1.379,18.894z
		 M2.192,27.421h1.843c0.716,0,1.338-0.095,1.865-0.286c0.527-0.19,0.964-0.455,1.309-0.794s0.602-0.743,0.769-1.214
		c0.167-0.47,0.251-0.985,0.251-1.544c0-0.737-0.104-1.357-0.312-1.862c-0.208-0.504-0.515-0.912-0.921-1.223
		c-0.407-0.312-0.912-0.536-1.516-0.674s-1.3-0.207-2.087-0.207H2.192V27.421z"/>
	<path fill="#7C6752" d="M16.185,26.862l0.229,0.609c-0.318,0.293-0.688,0.502-1.109,0.629c-0.422,0.128-0.897,0.191-1.427,0.191
		c-0.504,0-0.954-0.084-1.35-0.251c-0.396-0.168-0.731-0.4-1.004-0.699c-0.273-0.299-0.482-0.654-0.626-1.067
		s-0.216-0.865-0.216-1.357c0-0.47,0.072-0.915,0.216-1.334c0.144-0.42,0.352-0.786,0.623-1.1c0.271-0.313,0.603-0.562,0.995-0.743
		c0.392-0.183,0.835-0.273,1.331-0.273c0.491,0,0.918,0.083,1.281,0.248c0.362,0.165,0.661,0.395,0.896,0.689
		c0.235,0.294,0.41,0.646,0.524,1.058s0.172,0.864,0.172,1.36c0,0.034-0.001,0.07-0.003,0.111c-0.002,0.04-0.003,0.07-0.003,0.092
		h-5.198v0.121c0,0.377,0.056,0.72,0.168,1.029c0.112,0.309,0.274,0.574,0.486,0.794c0.212,0.221,0.468,0.392,0.769,0.515
		s0.642,0.185,1.023,0.185c0.475,0,0.9-0.07,1.277-0.21S15.931,27.12,16.185,26.862z M11.527,24.377h4.366v-0.013v0.045
		c-0.013-0.344-0.061-0.655-0.143-0.938c-0.083-0.281-0.207-0.524-0.372-0.728c-0.166-0.203-0.376-0.361-0.632-0.474
		c-0.256-0.112-0.565-0.168-0.925-0.168c-0.352,0-0.663,0.06-0.934,0.181s-0.502,0.285-0.693,0.492
		c-0.19,0.208-0.342,0.449-0.454,0.725S11.557,24.068,11.527,24.377z"/>
	<path fill="#7C6752" d="M23.074,21.626H23.9l-2.758,6.52h-0.871l-2.72-6.52h0.839l1.811,4.461l0.527,1.354l0.477-1.188
		L23.074,21.626z"/>
	<path fill="#7C6752" d="M30.318,26.862l0.229,0.609c-0.318,0.293-0.688,0.502-1.109,0.629c-0.422,0.128-0.897,0.191-1.427,0.191
		c-0.504,0-0.954-0.084-1.35-0.251c-0.396-0.168-0.731-0.4-1.004-0.699c-0.273-0.299-0.482-0.654-0.626-1.067
		s-0.216-0.865-0.216-1.357c0-0.47,0.072-0.915,0.216-1.334c0.144-0.42,0.352-0.786,0.623-1.1c0.271-0.313,0.603-0.562,0.995-0.743
		c0.392-0.183,0.835-0.273,1.331-0.273c0.491,0,0.918,0.083,1.281,0.248c0.362,0.165,0.661,0.395,0.896,0.689
		c0.235,0.294,0.41,0.646,0.524,1.058s0.172,0.864,0.172,1.36c0,0.034-0.001,0.07-0.003,0.111c-0.002,0.04-0.003,0.07-0.003,0.092
		h-5.198v0.121c0,0.377,0.056,0.72,0.168,1.029c0.112,0.309,0.274,0.574,0.486,0.794c0.212,0.221,0.468,0.392,0.769,0.515
		s0.642,0.185,1.023,0.185c0.475,0,0.9-0.07,1.277-0.21S30.064,27.12,30.318,26.862z M25.66,24.377h4.366v-0.013v0.045
		c-0.013-0.344-0.061-0.655-0.143-0.938c-0.083-0.281-0.207-0.524-0.372-0.728c-0.166-0.203-0.376-0.361-0.632-0.474
		c-0.256-0.112-0.565-0.168-0.925-0.168c-0.352,0-0.663,0.06-0.934,0.181s-0.502,0.285-0.693,0.492
		c-0.19,0.208-0.342,0.449-0.454,0.725S25.689,24.068,25.66,24.377z"/>
	<path fill="#7C6752" d="M33.419,18.562v9.583h-0.788v-9.583H33.419z"/>
	<path fill="#7C6752" d="M38.63,21.467c0.542,0,1.017,0.088,1.423,0.264s0.747,0.417,1.02,0.725
		c0.273,0.307,0.479,0.668,0.617,1.083c0.137,0.415,0.207,0.86,0.207,1.335c0,0.466-0.073,0.905-0.219,1.318
		c-0.146,0.413-0.359,0.775-0.639,1.087c-0.28,0.312-0.626,0.558-1.039,0.74c-0.413,0.182-0.887,0.273-1.42,0.273
		c-0.53,0-0.998-0.087-1.404-0.261s-0.749-0.413-1.026-0.718c-0.277-0.306-0.487-0.663-0.629-1.074
		c-0.142-0.411-0.213-0.854-0.213-1.328s0.073-0.922,0.219-1.341c0.146-0.42,0.36-0.785,0.642-1.097s0.629-0.557,1.042-0.737
		C37.623,21.557,38.096,21.467,38.63,21.467z M41.07,24.898c0-0.377-0.05-0.735-0.149-1.074s-0.251-0.636-0.455-0.89
		c-0.203-0.254-0.46-0.456-0.772-0.606s-0.681-0.226-1.109-0.226c-0.407,0-0.763,0.077-1.067,0.231
		c-0.305,0.155-0.562,0.362-0.769,0.623s-0.363,0.56-0.467,0.896c-0.104,0.337-0.156,0.688-0.156,1.052s0.052,0.714,0.156,1.049
		c0.104,0.335,0.261,0.629,0.47,0.884c0.21,0.254,0.47,0.456,0.782,0.606s0.675,0.226,1.09,0.226c0.407,0,0.764-0.076,1.071-0.229
		s0.562-0.356,0.766-0.61c0.204-0.254,0.356-0.549,0.458-0.883C41.02,25.612,41.07,25.263,41.07,24.898z"/>
	<path fill="#7C6752" d="M44.375,30.961h-0.788v-7.689c0-0.118-0.002-0.314-0.006-0.588c-0.004-0.273-0.017-0.626-0.039-1.058h0.82
		l0.019,1.321c0.258-0.521,0.61-0.898,1.055-1.131c0.445-0.233,0.951-0.35,1.519-0.35c0.475,0,0.887,0.088,1.236,0.264
		c0.35,0.176,0.64,0.414,0.871,0.715s0.404,0.652,0.518,1.055s0.171,0.831,0.171,1.284c0,0.462-0.061,0.904-0.184,1.328
		s-0.306,0.796-0.55,1.118s-0.551,0.579-0.921,0.772c-0.371,0.192-0.804,0.289-1.299,0.289c-1.063,0-1.871-0.46-2.421-1.379V30.961z
		 M44.368,25.006c0,0.382,0.051,0.734,0.153,1.059c0.102,0.324,0.25,0.605,0.445,0.845c0.195,0.239,0.435,0.426,0.721,0.56
		c0.286,0.134,0.611,0.2,0.975,0.2c0.398,0,0.739-0.077,1.023-0.232c0.284-0.154,0.517-0.361,0.699-0.622s0.317-0.562,0.404-0.902
		s0.13-0.7,0.13-1.077c0-0.352-0.038-0.691-0.115-1.021c-0.076-0.328-0.202-0.619-0.378-0.873c-0.176-0.255-0.406-0.458-0.689-0.61
		s-0.631-0.229-1.042-0.229c-0.437,0-0.803,0.08-1.1,0.241s-0.536,0.375-0.718,0.642s-0.312,0.575-0.391,0.925
		S44.368,24.625,44.368,25.006z"/>
	<path fill="#7C6752" d="M52.273,21.626l0.032,1.252c0.098-0.242,0.227-0.451,0.388-0.63c0.161-0.178,0.344-0.324,0.55-0.438
		s0.427-0.2,0.664-0.257c0.237-0.058,0.481-0.086,0.731-0.086c0.271,0,0.525,0.038,0.762,0.114s0.449,0.184,0.636,0.321
		s0.342,0.303,0.467,0.495c0.125,0.193,0.213,0.403,0.264,0.633c0.093-0.268,0.219-0.499,0.378-0.696s0.344-0.358,0.556-0.486
		c0.211-0.127,0.448-0.222,0.708-0.285c0.26-0.064,0.541-0.096,0.842-0.096c0.343,0,0.638,0.044,0.883,0.134
		c0.246,0.089,0.452,0.205,0.62,0.349c0.167,0.145,0.301,0.31,0.4,0.496s0.175,0.377,0.226,0.572
		c0.051,0.194,0.083,0.385,0.099,0.571c0.015,0.187,0.022,0.352,0.022,0.496v4.061h-0.788V24.58c0-0.397-0.025-0.752-0.076-1.061
		c-0.051-0.31-0.143-0.569-0.276-0.778c-0.133-0.21-0.315-0.369-0.546-0.477c-0.231-0.108-0.528-0.162-0.893-0.162
		c-0.33,0-0.622,0.062-0.874,0.184c-0.252,0.123-0.463,0.288-0.632,0.496s-0.301,0.451-0.394,0.73
		c-0.093,0.28-0.14,0.574-0.14,0.884v3.749h-0.788v-4.055c0-0.652-0.155-1.146-0.464-1.483s-0.756-0.505-1.341-0.505
		c-0.331,0-0.621,0.058-0.871,0.175c-0.25,0.116-0.458,0.278-0.623,0.485c-0.166,0.208-0.293,0.451-0.385,0.731
		c-0.091,0.279-0.137,0.58-0.137,0.902v3.749h-0.788v-4.894c0-0.071-0.001-0.243-0.003-0.515c-0.002-0.271-0.012-0.642-0.028-1.111
		H52.273z"/>
	<path fill="#7C6752" d="M68.789,26.862l0.229,0.609c-0.318,0.293-0.688,0.502-1.109,0.629c-0.422,0.128-0.897,0.191-1.427,0.191
		c-0.504,0-0.954-0.084-1.35-0.251c-0.396-0.168-0.731-0.4-1.004-0.699c-0.273-0.299-0.482-0.654-0.626-1.067
		s-0.216-0.865-0.216-1.357c0-0.47,0.072-0.915,0.216-1.334c0.144-0.42,0.352-0.786,0.623-1.1c0.271-0.313,0.603-0.562,0.995-0.743
		c0.392-0.183,0.835-0.273,1.331-0.273c0.491,0,0.918,0.083,1.281,0.248c0.362,0.165,0.661,0.395,0.896,0.689
		c0.235,0.294,0.41,0.646,0.524,1.058s0.172,0.864,0.172,1.36c0,0.034-0.001,0.07-0.003,0.111c-0.002,0.04-0.003,0.07-0.003,0.092
		h-5.198v0.121c0,0.377,0.056,0.72,0.168,1.029c0.112,0.309,0.274,0.574,0.486,0.794c0.212,0.221,0.468,0.392,0.769,0.515
		s0.642,0.185,1.023,0.185c0.475,0,0.9-0.07,1.277-0.21S68.535,27.12,68.789,26.862z M64.131,24.377h4.366v-0.013v0.045
		c-0.013-0.344-0.061-0.655-0.143-0.938c-0.083-0.281-0.207-0.524-0.372-0.728c-0.166-0.203-0.376-0.361-0.632-0.474
		c-0.256-0.112-0.565-0.168-0.925-0.168c-0.352,0-0.663,0.06-0.934,0.181s-0.502,0.285-0.693,0.492
		c-0.19,0.208-0.342,0.449-0.454,0.725S64.161,24.068,64.131,24.377z"/>
	<path fill="#7C6752" d="M71.858,28.146h-0.788v-5.008l-0.057-1.512h0.826l0.039,1.277c0.512-0.958,1.317-1.437,2.415-1.437
		c0.318,0,0.596,0.038,0.835,0.114s0.445,0.182,0.617,0.314c0.171,0.134,0.312,0.289,0.422,0.467c0.11,0.179,0.195,0.37,0.254,0.575
		c0.059,0.206,0.102,0.42,0.127,0.643c0.025,0.222,0.038,0.443,0.038,0.664c0.004,0.114,0.006,0.327,0.006,0.639
		c0,0.311,0,0.693,0,1.146v2.116h-0.788v-3.444c0-0.229-0.001-0.408-0.003-0.54c-0.002-0.131-0.005-0.216-0.01-0.254
		c-0.021-0.598-0.181-1.048-0.479-1.351c-0.299-0.303-0.708-0.454-1.229-0.454c-0.237,0-0.457,0.03-0.658,0.092
		c-0.202,0.062-0.384,0.143-0.547,0.245c-0.163,0.102-0.306,0.217-0.429,0.346c-0.123,0.13-0.231,0.263-0.324,0.4
		s-0.161,0.272-0.203,0.403c-0.042,0.132-0.064,0.25-0.064,0.356V28.146z"/>
	<path fill="#7C6752" d="M79.338,22.146h-1.315v-0.521h1.315l0.006-1.83l0.782-0.217v2.047h1.677v0.521h-1.677v4.073
		c0,0.25,0.006,0.469,0.019,0.655s0.046,0.34,0.102,0.46c0.055,0.121,0.151,0.211,0.289,0.271s0.333,0.089,0.588,0.089
		c0.305,0,0.538-0.04,0.699-0.121v0.54c-0.093,0.064-0.203,0.109-0.328,0.137c-0.125,0.028-0.268,0.042-0.429,0.042
		c-0.352,0-0.641-0.038-0.868-0.114c-0.227-0.077-0.403-0.192-0.53-0.347c-0.127-0.154-0.214-0.349-0.261-0.582
		c-0.047-0.232-0.07-0.506-0.07-0.819V22.146z"/>
	<path fill="#7C6752" d="M87.917,28.146h-0.743v-9.583h0.788v4.397c0.127-0.25,0.282-0.468,0.464-0.654s0.385-0.342,0.607-0.467
		c0.223-0.125,0.461-0.219,0.715-0.28c0.254-0.062,0.517-0.092,0.788-0.092c0.492,0,0.912,0.09,1.262,0.27
		c0.349,0.181,0.636,0.423,0.861,0.729c0.225,0.305,0.39,0.659,0.496,1.064c0.106,0.404,0.159,0.829,0.159,1.273
		c0,0.479-0.061,0.929-0.184,1.351s-0.306,0.791-0.55,1.108c-0.244,0.318-0.549,0.569-0.918,0.754
		c-0.369,0.184-0.797,0.276-1.284,0.276c-1.059,0-1.866-0.458-2.421-1.373L87.917,28.146z M90.275,22.103
		c-0.437,0-0.803,0.08-1.1,0.241s-0.536,0.377-0.718,0.648c-0.182,0.271-0.312,0.583-0.391,0.937
		c-0.079,0.354-0.118,0.722-0.118,1.103c0,0.378,0.05,0.728,0.149,1.049c0.1,0.322,0.246,0.601,0.438,0.836s0.432,0.419,0.718,0.553
		c0.286,0.134,0.615,0.2,0.988,0.2c0.419,0,0.774-0.086,1.064-0.258c0.291-0.171,0.524-0.395,0.702-0.67
		c0.178-0.275,0.307-0.586,0.388-0.931c0.081-0.346,0.121-0.692,0.121-1.039c0-0.369-0.044-0.715-0.134-1.039
		c-0.089-0.324-0.226-0.607-0.41-0.849c-0.185-0.241-0.417-0.432-0.699-0.572C90.994,22.172,90.66,22.103,90.275,22.103z"/>
	<path fill="#7C6752" d="M94.221,21.626h0.833l2.307,5.947l2.389-5.947h0.813l-2.942,7.054c-0.119,0.283-0.256,0.552-0.413,0.804
		s-0.333,0.477-0.53,0.674c-0.197,0.196-0.414,0.362-0.651,0.498s-0.496,0.229-0.775,0.28l-0.426-0.515
		c0.343-0.09,0.627-0.204,0.852-0.344s0.409-0.292,0.553-0.457c0.144-0.166,0.258-0.337,0.343-0.515
		c0.084-0.179,0.161-0.348,0.229-0.509l0.159-0.388L94.221,21.626z"/>
</g>
<g enable-background="new    ">
	<path fill="#7C6752" d="M112.436,18.882c-0.051,0.085-0.105,0.148-0.162,0.191c-0.057,0.042-0.13,0.063-0.221,0.063
		c-0.097,0-0.209-0.048-0.336-0.145c-0.128-0.097-0.289-0.203-0.485-0.319s-0.431-0.223-0.706-0.319
		c-0.275-0.096-0.609-0.145-1-0.145c-0.369,0-0.695,0.05-0.979,0.149c-0.284,0.099-0.521,0.233-0.711,0.404
		c-0.19,0.17-0.334,0.37-0.43,0.6c-0.097,0.229-0.145,0.479-0.145,0.745c0,0.34,0.083,0.622,0.25,0.847
		c0.168,0.224,0.389,0.415,0.664,0.574s0.588,0.297,0.937,0.413s0.706,0.236,1.072,0.361s0.724,0.266,1.072,0.421
		c0.349,0.156,0.661,0.354,0.937,0.592s0.496,0.53,0.664,0.877c0.167,0.346,0.25,0.771,0.25,1.276c0,0.533-0.09,1.034-0.271,1.502
		c-0.182,0.469-0.447,0.875-0.796,1.222c-0.349,0.346-0.777,0.618-1.285,0.816c-0.508,0.199-1.085,0.298-1.731,0.298
		c-0.789,0-1.508-0.143-2.158-0.43c-0.649-0.286-1.204-0.674-1.664-1.161l0.476-0.783c0.046-0.062,0.102-0.115,0.166-0.157
		c0.065-0.043,0.138-0.064,0.217-0.064c0.119,0,0.256,0.064,0.409,0.191c0.153,0.128,0.345,0.269,0.574,0.422
		s0.508,0.294,0.835,0.421c0.326,0.128,0.725,0.191,1.195,0.191c0.391,0,0.74-0.054,1.047-0.161c0.307-0.108,0.565-0.26,0.778-0.455
		c0.213-0.196,0.376-0.431,0.489-0.702c0.113-0.272,0.17-0.576,0.17-0.911c0-0.369-0.084-0.671-0.25-0.906
		c-0.168-0.235-0.388-0.433-0.66-0.592c-0.272-0.158-0.583-0.293-0.932-0.404c-0.35-0.11-0.707-0.224-1.072-0.34
		c-0.366-0.116-0.724-0.251-1.072-0.404c-0.35-0.153-0.66-0.352-0.932-0.596c-0.273-0.244-0.493-0.549-0.66-0.915
		c-0.168-0.366-0.251-0.818-0.251-1.357c0-0.432,0.083-0.849,0.251-1.251c0.167-0.403,0.41-0.761,0.728-1.072
		c0.317-0.312,0.71-0.562,1.179-0.749c0.469-0.188,1.006-0.281,1.613-0.281c0.68,0,1.302,0.108,1.863,0.323
		c0.562,0.216,1.053,0.528,1.473,0.937L112.436,18.882z"/>
	<path fill="#7C6752" d="M124.504,16.976v1.387h-3.941v10.809h-1.65V18.362h-3.957v-1.387H124.504z"/>
	<path fill="#7C6752" d="M131.967,27.86c0.506,0,0.957-0.085,1.354-0.256c0.397-0.17,0.733-0.408,1.009-0.715
		c0.274-0.306,0.485-0.672,0.63-1.098s0.217-0.894,0.217-1.404v-7.412h1.643v7.412c0,0.704-0.111,1.356-0.336,1.958
		s-0.545,1.122-0.962,1.562s-0.927,0.784-1.528,1.034c-0.601,0.249-1.275,0.374-2.025,0.374c-0.748,0-1.424-0.125-2.025-0.374
		c-0.602-0.25-1.111-0.595-1.531-1.034s-0.742-0.96-0.967-1.562c-0.224-0.602-0.336-1.254-0.336-1.958v-7.412h1.643v7.404
		c0,0.51,0.072,0.979,0.217,1.403c0.145,0.426,0.355,0.792,0.631,1.099c0.274,0.306,0.612,0.546,1.012,0.719
		C131.01,27.773,131.463,27.86,131.967,27.86z"/>
	<path fill="#7C6752" d="M151.211,23.077c0,0.914-0.146,1.745-0.435,2.494c-0.29,0.749-0.698,1.39-1.226,1.923
		s-1.16,0.946-1.898,1.238c-0.737,0.292-1.555,0.438-2.451,0.438h-4.561V16.976h4.561c0.896,0,1.714,0.146,2.451,0.438
		c0.738,0.293,1.371,0.707,1.898,1.243s0.936,1.179,1.226,1.928C151.065,21.333,151.211,22.164,151.211,23.077z M149.517,23.077
		c0-0.749-0.103-1.418-0.306-2.009c-0.205-0.59-0.494-1.089-0.869-1.497c-0.374-0.409-0.828-0.721-1.361-0.937
		s-1.127-0.323-1.779-0.323H142.3v9.523h2.901c0.652,0,1.246-0.108,1.779-0.323c0.533-0.216,0.987-0.526,1.361-0.933
		c0.375-0.405,0.664-0.903,0.869-1.493C149.414,24.496,149.517,23.826,149.517,23.077z"/>
	<path fill="#7C6752" d="M156.401,29.171h-1.651V16.976h1.651V29.171z"/>
	<path fill="#7C6752" d="M171.984,23.077c0,0.914-0.145,1.752-0.434,2.515c-0.29,0.764-0.698,1.42-1.227,1.971
		c-0.527,0.55-1.161,0.978-1.902,1.28c-0.74,0.304-1.559,0.456-2.455,0.456s-1.713-0.152-2.451-0.456
		c-0.736-0.303-1.369-0.73-1.897-1.28c-0.527-0.551-0.937-1.207-1.226-1.971c-0.289-0.763-0.434-1.601-0.434-2.515
		c0-0.913,0.145-1.752,0.434-2.515s0.698-1.422,1.226-1.975c0.528-0.553,1.161-0.983,1.897-1.289c0.738-0.307,1.555-0.46,2.451-0.46
		s1.715,0.153,2.455,0.46c0.741,0.306,1.375,0.736,1.902,1.289c0.528,0.553,0.937,1.212,1.227,1.975
		C171.84,21.325,171.984,22.164,171.984,23.077z M170.291,23.077c0-0.749-0.103-1.421-0.307-2.017s-0.494-1.1-0.868-1.511
		s-0.829-0.728-1.362-0.949c-0.533-0.221-1.129-0.332-1.787-0.332c-0.652,0-1.245,0.111-1.778,0.332
		c-0.533,0.222-0.989,0.538-1.366,0.949s-0.668,0.915-0.872,1.511s-0.306,1.268-0.306,2.017s0.102,1.42,0.306,2.013
		s0.495,1.096,0.872,1.507s0.833,0.727,1.366,0.944c0.533,0.219,1.126,0.328,1.778,0.328c0.658,0,1.254-0.109,1.787-0.328
		c0.533-0.218,0.988-0.533,1.362-0.944s0.664-0.914,0.868-1.507S170.291,23.826,170.291,23.077z"/>
</g>
<g enable-background="new    ">
	<path fill="#7C6752" d="M179.09,22.021h0.537c0.215,0,0.395-0.029,0.535-0.089c0.143-0.06,0.265-0.154,0.367-0.285l3.395-4.298
		c0.143-0.182,0.291-0.308,0.447-0.379c0.156-0.07,0.354-0.106,0.592-0.106h1.975l-4.145,5.115c-0.131,0.159-0.256,0.292-0.375,0.4
		c-0.119,0.107-0.246,0.195-0.383,0.264c0.188,0.067,0.355,0.164,0.506,0.289s0.297,0.284,0.439,0.477l4.271,5.762h-2.025
		c-0.272,0-0.475-0.038-0.608-0.115c-0.134-0.076-0.245-0.188-0.337-0.336l-3.48-4.545c-0.113-0.147-0.24-0.254-0.383-0.318
		c-0.142-0.065-0.344-0.099-0.604-0.099h-0.725v5.413h-2.289V16.856h2.289V22.021z"/>
	<path fill="#7C6752" d="M196.367,24.532h1.549v1.218c0,0.113-0.037,0.211-0.11,0.293c-0.074,0.083-0.182,0.124-0.323,0.124h-1.115
		v3.004h-1.838v-3.004h-5.191c-0.143,0-0.268-0.044-0.375-0.132s-0.176-0.197-0.204-0.328l-0.213-1.063l5.829-7.787h1.992V24.532z
		 M194.529,20.507c0-0.182,0.005-0.377,0.017-0.587c0.011-0.21,0.031-0.429,0.06-0.655l-3.821,5.268h3.745V20.507z"/>
	<path fill="#7C6752" d="M208.656,23.018c0,1.072-0.115,2.004-0.345,2.796c-0.229,0.791-0.548,1.445-0.953,1.962
		s-0.886,0.9-1.438,1.153c-0.553,0.252-1.15,0.378-1.791,0.378c-0.642,0-1.236-0.126-1.783-0.378
		c-0.548-0.253-1.023-0.637-1.426-1.153s-0.718-1.171-0.944-1.962c-0.228-0.792-0.341-1.724-0.341-2.796
		c0-1.078,0.113-2.011,0.341-2.8c0.227-0.789,0.542-1.441,0.944-1.958c0.402-0.516,0.878-0.9,1.426-1.152
		c0.547-0.253,1.142-0.379,1.783-0.379c0.641,0,1.238,0.126,1.791,0.379c0.553,0.252,1.033,0.637,1.438,1.152
		c0.405,0.517,0.724,1.169,0.953,1.958S208.656,21.939,208.656,23.018z M206.486,23.018c0-0.891-0.065-1.628-0.195-2.213
		c-0.131-0.584-0.306-1.05-0.523-1.396c-0.219-0.346-0.471-0.589-0.754-0.728s-0.578-0.209-0.885-0.209
		c-0.301,0-0.592,0.07-0.873,0.209c-0.28,0.139-0.529,0.382-0.744,0.728c-0.216,0.346-0.387,0.812-0.516,1.396
		c-0.127,0.585-0.191,1.322-0.191,2.213s0.064,1.629,0.191,2.213c0.129,0.584,0.3,1.05,0.516,1.396
		c0.215,0.347,0.464,0.589,0.744,0.728c0.281,0.14,0.572,0.209,0.873,0.209c0.307,0,0.602-0.069,0.885-0.209
		c0.283-0.139,0.535-0.381,0.754-0.728c0.218-0.346,0.393-0.812,0.523-1.396C206.421,24.646,206.486,23.908,206.486,23.018z"/>
</g>
</svg>
