<?xml version="1.0" encoding="utf-8"?>
<!-- Generator: Adobe Illustrator 16.0.0, SVG Export Plug-In . SVG Version: 6.00 Build 0)  -->
<!DOCTYPE svg PUBLIC "-//W3C//DTD SVG 1.1//EN" "http://www.w3.org/Graphics/SVG/1.1/DTD/svg11.dtd">
<svg version="1.1" id="Layer_1" xmlns="http://www.w3.org/2000/svg" xmlns:xlink="http://www.w3.org/1999/xlink" x="0px" y="0px"
	 width="69.75px" height="33px" viewBox="66 0 69.75 33" enable-background="new 66 0 69.75 33" xml:space="preserve">
<g>
	<path fill="#7C6752" d="M90.754,12.605c-1.062,0.885-2.371,1.274-3.93,1.132c-2.76-0.141-4.246-1.238-4.494-3.291
		c0.07,0.143,0.143,0.248,0.178,0.318s0.105,0.142,0.143,0.212c1.133,1.416,2.512,2.088,4.176,1.981
		c0.639,0,1.203-0.105,1.734-0.283c0.531-0.176,0.99-0.424,1.451-0.777c0.955-0.779,1.451-1.734,1.414-2.902
		c-0.07-1.238-0.494-2.193-1.273-2.83c-0.777-0.638-1.805-0.957-3.078-0.92c-3.93,0.034-7.715,2.37-11.324,7.006
		c-1.168,1.451-2.301,3.186-3.469,5.203c-1.168,1.98-2.335,4.281-3.539,6.899c-0.213,0.638-0.318,1.168-0.318,1.593
		c0,0.566,0.213,0.85,0.637,0.85c0.426,0,0.957-0.39,1.664-1.133c0.035-0.07,0.248-0.318,0.564-0.742
		c0.32-0.426,0.779-1.062,1.383-1.877c0.141-0.141,0.246-0.177,0.354-0.069c0.07,0,0.105,0.069,0.105,0.142
		c0,0.035-0.035,0.106-0.07,0.143c-0.426,0.812-0.99,1.627-1.771,2.44c-0.955,1.062-1.732,1.593-2.371,1.593
		c-0.494,0-0.92-0.211-1.237-0.602c-0.283-0.318-0.425-0.777-0.425-1.415c0-0.53,0.105-1.133,0.318-1.841s0.53-1.486,0.99-2.336
		C73.943,10.128,80.031,4.643,86.756,4.643c3.572,0,5.447,1.416,5.592,4.247C92.488,10.446,91.957,11.686,90.754,12.605z"/>
	<path fill="#7C6752" d="M80.703,25.665c-0.709,1.062-1.451,1.592-2.229,1.592c-0.992,0-1.521-0.459-1.629-1.416
		c-0.885,0.814-1.77,1.24-2.654,1.24c-1.238,0-1.875-0.779-1.875-2.302c0-1.771,0.814-3.468,2.406-5.062
		c1.025-1.025,2.018-1.521,3.043-1.521c0.92,0,1.486,0.425,1.699,1.31l0.143-0.142c0.424-0.39,1.062-0.53,1.875-0.46
		c-0.779,1.168-1.416,2.229-1.912,3.221c-0.494,0.885-0.885,1.77-1.203,2.549c-0.354,0.885-0.424,1.486-0.316,1.84
		c0.068,0.177,0.213,0.283,0.389,0.283c0.744,0,1.912-1.274,3.539-3.857c0.105-0.143,0.248-0.143,0.354-0.035
		c0.107,0.105,0.107,0.247,0,0.389L80.703,25.665z M77.555,18.764c-0.674,0-1.346,0.495-2.055,1.45
		c-1.309,1.699-1.945,3.361-1.945,4.92c0,0.85,0.283,1.272,0.885,1.272c1.168,0,2.195-1.237,3.15-3.681
		c0.459-1.133,0.672-2.088,0.672-2.866C78.262,19.152,78.014,18.764,77.555,18.764z"/>
	<path fill="#7C6752" d="M86.721,27.115c-0.957,0-1.451-0.425-1.523-1.31c-0.494,0.425-0.99,0.777-1.449,0.99
		c-0.461,0.213-0.922,0.318-1.381,0.318c-1.273,0-1.84-0.777-1.734-2.301c0.922-1.627,1.594-2.938,2.018-3.999
		c0.426-1.062,0.637-1.875,0.637-2.406v-0.034c0.072-0.035,0.18-0.07,0.283-0.07c0.107,0,0.213-0.036,0.32-0.036
		c0.141,0,0.281,0,0.424,0.036c0.141,0.035,0.283,0.07,0.496,0.104c-0.037,0.673-0.531,1.806-1.416,3.47
		c-0.85,1.662-1.346,2.83-1.416,3.502c-0.141,0.779,0.07,1.134,0.637,1.134c0.639,0,1.381-0.495,2.195-1.486
		c0.104-0.142,0.211-0.282,0.318-0.425c0.105-0.143,0.176-0.283,0.281-0.426l0.213-0.317c0.283-0.637,0.602-1.451,0.99-2.44
		c0.391-0.992,0.852-2.09,1.416-3.362c0.143,0,0.283,0.142,0.461,0.425c0.354,0.602,0.494,0.955,0.459,1.062
		c0,0.211-0.141,0.565-0.354,1.062c-0.211,0.495-0.529,1.133-0.92,1.911c-0.283,0.637-0.566,1.203-0.885,1.699
		c0.035,0.035,0.035,0.07,0.035,0.141c0,0.036,0,0.07-0.035,0.105c0,0.035-0.035,0.071-0.035,0.106
		c-0.354,0.672-0.496,1.168-0.496,1.558c0,0.142,0,0.213,0.037,0.282c0.068,0.177,0.211,0.248,0.389,0.248
		c0.742,0,2.053-1.097,3.893-3.681c0.105-0.105,0.461,0.105,0.318,0.248C88.949,25.878,87.498,27.115,86.721,27.115z M83.217,18.374
		l0.033-0.069c0,0,0,0.034,0.035,0.034C83.285,18.374,83.25,18.374,83.217,18.374z"/>
	<path fill="#7C6752" d="M90.576,23.009c0.744-0.989,1.627-2.477,1.627-2.477c-0.176-0.283-0.459-0.814-0.354-1.203
		c0.072-0.142,0.213-0.318,0.391-0.531c0.211-0.213,0.459-0.459,0.812-0.777c0.178-0.143,0.318-0.213,0.496-0.213
		c0.248,0,0.461,0.105,0.672,0.318c0.213,0.213,0.318,0.424,0.318,0.672c0,0.178-0.07,0.354-0.178,0.531
		c-0.104,0.178-0.283,0.354-0.459,0.602c0.459,0,0.92-0.035,1.311-0.105c0.389-0.07,0.707-0.142,1.061-0.39
		c0.355-0.247,0.992-0.778,0.992-0.778l0.316,0.495c-1.875,1.911-3.221,3.61-3.928,5.167c-0.424,1.062-0.461,1.416-0.424,1.842
		c0.035,0.424,0.281,0.848,0.885,0.742c0.529-0.07,2.123-1.521,3.572-3.752c0.072-0.07,0.143-0.105,0.213-0.105
		c0.143,0,0.213,0.07,0.213,0.213c0,0-0.035,0.035-0.07,0.105c-0.426,0.812-1.025,1.663-1.805,2.514
		c-0.92,1.025-1.734,1.521-2.441,1.521c-1.133,0-1.699-0.673-1.699-2.019c0-0.317,0.105-0.672,0.318-1.131
		c0,0,0.283-0.603,0.742-1.382c0.461-0.778,1.381-1.909,1.381-1.909c-0.496,0.069-1.273,0.141-1.592,0.104
		c-0.318-0.035-0.354-0.142-0.354-0.142l-1.771,2.441L90.576,23.009z M93.373,19.083c-0.07-0.072-0.178-0.143-0.283-0.143
		c-0.105,0.212-0.143,0.354-0.143,0.46c0,0.142,0.035,0.283,0.143,0.354C93.303,19.507,93.408,19.294,93.373,19.083z"/>
	<path fill="#7C6752" d="M105.582,25.665c-0.709,1.062-1.451,1.592-2.229,1.592c-0.992,0-1.521-0.459-1.629-1.416
		c-0.885,0.814-1.77,1.24-2.654,1.24c-1.238,0-1.875-0.779-1.875-2.302c0-1.771,0.814-3.468,2.406-5.062
		c1.027-1.025,2.018-1.521,3.043-1.521c0.92,0,1.486,0.425,1.699,1.31l0.141-0.142c0.426-0.39,1.062-0.53,1.877-0.46
		c-0.779,1.168-1.416,2.229-1.912,3.221c-0.529,0.955-0.92,1.84-1.203,2.619c-0.354,0.885-0.424,1.485-0.316,1.84
		c0.068,0.178,0.211,0.283,0.389,0.283c0.744,0,1.912-1.273,3.539-3.857c0.105-0.143,0.248-0.143,0.354-0.035s0.105,0.248,0,0.39
		L105.582,25.665z M102.398,18.764c-0.674,0-1.346,0.495-2.055,1.45c-1.309,1.699-1.945,3.361-1.945,4.92
		c0,0.85,0.283,1.272,0.885,1.272c1.168,0,2.193-1.237,3.15-3.681c0.459-1.133,0.672-2.088,0.672-2.866
		C103.105,19.152,102.893,18.764,102.398,18.764z"/>
	<path fill="#7C6752" d="M116.447,26.195c-1.346,0.778-2.549,1.168-3.646,1.168h-0.316c-0.072,0-0.143-0.034-0.213-0.034
		s-0.105-0.037-0.143-0.037c-0.143,0-0.318-0.035-0.494-0.105c-0.178-0.07-0.355-0.141-0.496-0.247
		c-0.143-0.106-0.283-0.213-0.391-0.354c-0.105-0.141-0.141-0.283-0.141-0.424c0-0.035,0-0.105,0.035-0.177
		c0-0.071,0.035-0.106,0.035-0.144c0.213-0.741,0.564-1.309,0.99-1.697s1.025-0.566,1.734-0.566c0.424,0,0.885,0.213,1.486,0.639
		c-0.283-0.071-0.496-0.144-0.674-0.213c-0.178-0.071-0.354-0.106-0.459-0.106c-0.283,0-0.531,0.071-0.744,0.177
		c-0.213,0.106-0.424,0.283-0.602,0.496c-0.178,0.212-0.318,0.426-0.426,0.672c-0.105,0.248-0.141,0.531-0.141,0.779
		c0,0.529,0.248,0.812,0.777,0.812c0.354,0,0.672-0.069,0.99-0.177c0.318-0.142,0.604-0.317,0.885-0.53
		c0.248-0.213,0.496-0.496,0.674-0.778c0.178-0.283,0.281-0.603,0.354-0.955c0.07-0.354-0.07-1.168-0.459-2.442
		c-0.213-0.742-0.213-1.521,0-2.371c-0.602,0.743-1.133,1.381-1.594,1.877c-0.459,0.494-0.812,0.885-1.062,1.131
		c-0.211,0.179-0.424,0.354-0.637,0.531c-0.213,0.178-0.494,0.318-0.744,0.461l-0.281-0.354c0.426-0.248,1.203-1.026,2.301-2.336
		l2.369-2.831c0.283-0.354,0.639-0.496,1.135-0.496c0.176,0,0.389,0.07,0.602,0.213c-0.992,0.389-1.521,1.098-1.594,2.123
		c-0.035,0.391,0.143,0.885,0.566,1.559c0.248,0.389,0.459,0.707,0.602,0.955c0.143,0.247,0.213,0.424,0.248,0.53
		c0.105,0.317,0.143,0.638,0.07,0.99c-0.07,0.638-0.354,1.274-0.777,1.841c0.885-0.566,1.84-1.416,2.865-2.514
		c0.035-0.034,0.105-0.069,0.143-0.069c0.318,0,0.424,0.104,0.389,0.317c-0.033,0.035-0.068,0.105-0.104,0.178
		C118.605,24.673,117.615,25.522,116.447,26.195z"/>
	<path fill="#7C6752" d="M123.525,27.115c-0.955,0-1.451-0.425-1.521-1.31c-0.494,0.425-0.99,0.777-1.451,0.99
		c-0.459,0.213-0.92,0.318-1.381,0.318c-1.273,0-1.84-0.777-1.732-2.301c0.92-1.627,1.592-2.938,2.018-3.999
		c0.424-1.062,0.637-1.875,0.637-2.406v-0.034c0.07-0.035,0.178-0.07,0.283-0.07s0.213-0.036,0.318-0.036
		c0.143,0,0.283,0,0.424,0.036c0.143,0.035,0.283,0.07,0.496,0.104c-0.035,0.673-0.531,1.806-1.416,3.47
		c-0.85,1.662-1.344,2.83-1.416,3.502c-0.141,0.779,0.072,1.134,0.639,1.134c0.637,0,1.381-0.495,2.193-1.486
		c0.105-0.142,0.211-0.282,0.318-0.425c0.105-0.143,0.178-0.283,0.283-0.426l0.213-0.317c0.281-0.637,0.602-1.451,0.99-2.44
		c0.389-0.992,0.85-2.09,1.414-3.362c0.143,0,0.283,0.142,0.461,0.425c0.354,0.602,0.494,0.955,0.461,1.062
		c0,0.211-0.143,0.565-0.355,1.062c-0.213,0.495-0.531,1.133-0.92,1.911c-0.283,0.637-0.566,1.203-0.885,1.699
		c0.035,0.035,0.035,0.07,0.035,0.141c0,0.036,0,0.07-0.035,0.105c0,0.035-0.035,0.071-0.035,0.106
		c-0.355,0.672-0.496,1.168-0.496,1.558c0,0.142,0,0.213,0.035,0.282c0.072,0.177,0.213,0.248,0.391,0.248
		c0.742,0,2.018-1.274,3.82-3.856c0.105-0.106,0.213-0.143,0.32-0.035c0.105,0.142,0.105,0.246,0,0.389
		C125.684,25.806,124.303,27.115,123.525,27.115z M120.021,18.374l0.035-0.069c0,0,0,0.034,0.035,0.034
		C120.092,18.374,120.057,18.374,120.021,18.374z"/>
	<path fill="#7C6752" d="M134.283,23.188c0,0.035-0.035,0.069-0.035,0.104c-1.629,2.654-3.186,3.965-4.707,3.965
		c-0.777,0-1.381-0.283-1.805-0.851c-0.426-0.565-0.674-1.237-0.674-1.981c0-1.733,0.955-3.361,2.867-4.848
		c0.885-0.709,1.699-1.062,2.371-1.062c0.85,0,1.309,0.425,1.309,1.238s-0.777,1.664-2.334,2.513
		c-0.32,0.178-0.674,0.425-1.062,0.673s-0.85,0.566-1.311,0.92c-0.246,0.248-0.389,0.814-0.389,1.663c0,0.851,0.354,1.31,1.025,1.31
		c1.168,0,2.406-0.99,3.752-2.973l0.779-1.062c0.176,0,0.281,0.106,0.281,0.283C134.283,23.151,134.283,23.188,134.283,23.188z
		 M132.938,19.47c0,0.037-0.105-0.069-0.211-0.354c-0.035,0-0.107-0.035-0.178-0.07s-0.143-0.07-0.211-0.07
		c-0.463,0-1.1,0.602-1.912,1.805c-0.707,0.991-1.133,1.805-1.311,2.442c0.391-0.248,0.85-0.603,1.381-0.991
		c0.529-0.425,1.133-0.92,1.807-1.486C132.727,20.179,132.938,19.753,132.938,19.47z"/>
	<path fill="#7C6752" d="M81.979,2.484c0,0.813-0.496,2.088-1.24,3.539c2.654-1.31,5.91-1.698,8.316-0.849
		c0.744,0.248,1.77,0.637,2.902,1.025c0.213-0.177,0.459,0.143,0.637-0.708c0.178-0.849-0.178-1.557,1.062-2.796
		c1.238-1.238,4.459-0.495,4.459-0.495s-0.955,2.265-2.229,3.22c-1.273,0.957-2.797,0.814-3.574,0.886
		c2.371,0.743,5.166,1.31,6.617,1.593s3.221,0.035,4.316-0.212V7.651c0.604-1.805,0.814-2.477,2.055-2.689
		c1.238-0.211,2.439-1.097,2.439-1.097s-0.602,3.787-2.229,4.459c-0.779,0.319-1.486,0-1.84-0.248
		c-0.639,0.212-1.877,0.566-3.539,0.46c0.99,0.531,2.725,1.664,3.326,3.362c0.812,2.229,1.629,2.76,1.629,2.76
		s-2.832-0.071-4.674-1.202c-1.84-1.134-2.229-3.363-2.439-5.168C94.293,7.156,90.4,6.06,88.736,5.386
		c-1.627-0.672-4.635,0-5.768,0.461c-0.496,0.212-0.99,0.425-1.521,0.672c1.697,0.035,3.148,0.105,4.211,1.451
		c1.486,1.875,2.336,2.017,2.336,2.123c0,0.105-4.672,1.416-5.91-0.814c-0.777-1.451-1.311-1.805-1.451-2.335
		c-0.281,0.106-0.672,0.283-0.92,0.354c-1.629,0.424-2.053,0.849-2.301,1.309c0.213-0.354-0.316,0.354-0.885,1.062
		c-0.389,0.496,0.107-0.531-0.92-0.992c-1.025-0.459-1.982-1.945-1.945-3.502c0.035-1.558-0.354-2.832-0.354-2.832
		s1.486,0.283,3.113,1.203c1.486,0.814,1.168,2.867,0.957,4.742c1.732-0.777,2.404-2.582,3.008-3.928
		c0.602-1.273,1.379-1.77,1.732-3.928L81.979,2.484z M92.1,6.235C92.135,6.235,92.135,6.235,92.1,6.235c0.035,0,0.035,0,0.035,0
		S92.135,6.235,92.1,6.235z"/>
	<g>
		<path fill="#7C6752" d="M72.635,29.486h-0.283v-0.282h1.311c0.99,0,1.627,0.602,1.627,1.627c0,1.026-0.637,1.629-1.627,1.629
			h-0.709c-0.213,0-0.281-0.07-0.281-0.283v-2.689L72.635,29.486L72.635,29.486z M73.059,32.177h0.531
			c0.777,0,1.311-0.461,1.311-1.346c0-0.851-0.531-1.346-1.311-1.346h-0.637v2.548C72.953,32.141,72.988,32.177,73.059,32.177z"/>
		<path fill="#7C6752" d="M83.959,29.486h-0.283v-0.282h1.842c0.211,0,0.281,0.07,0.281,0.282v0.318H85.48v-0.212
			c0-0.07-0.035-0.106-0.105-0.106h-1.098v1.168h1.203v0.283h-1.203v1.097c0,0.071,0.035,0.106,0.107,0.106h1.133
			c0.07,0,0.104-0.035,0.104-0.106v-0.177h0.283v0.319c0,0.212-0.07,0.281-0.283,0.281h-1.414c-0.213,0-0.283-0.069-0.283-0.281
			v-2.69H83.959z"/>
		<path fill="#7C6752" d="M94.471,31.822c0,0,0.316,0.39,0.85,0.39c0.354,0,0.637-0.248,0.637-0.565
			c0-0.813-1.594-0.638-1.594-1.629c0-0.459,0.391-0.813,0.992-0.813c0.318,0,0.885,0.143,0.885,0.566v0.212h-0.318v-0.142
			c0-0.178-0.283-0.317-0.566-0.317c-0.426,0-0.674,0.247-0.674,0.53c0,0.742,1.594,0.566,1.594,1.628
			c0,0.495-0.391,0.885-0.992,0.885c-0.672,0-1.023-0.46-1.023-0.46L94.471,31.822z"/>
		<path fill="#7C6752" d="M104.732,32.177h0.318v-2.654h-0.318v-0.284h0.92v0.284h-0.318v2.654h0.318v0.281h-0.92V32.177z"/>
		<path fill="#7C6752" d="M115.738,29.169c0.744,0,1.133,0.39,1.133,0.39l-0.176,0.247c0,0-0.354-0.318-0.957-0.318
			c-0.742,0-1.271,0.602-1.271,1.346c0,0.777,0.529,1.381,1.271,1.381c0.639,0,1.027-0.461,1.027-0.461v-0.39
			c0-0.069-0.035-0.106-0.105-0.106h-0.213v-0.282h0.318c0.213,0,0.283,0.069,0.283,0.282v1.238h-0.283v-0.281
			c0-0.071,0-0.143,0-0.143l0,0c0,0-0.391,0.424-1.062,0.424c-0.885,0-1.592-0.707-1.592-1.662
			C114.111,29.911,114.818,29.169,115.738,29.169z"/>
		<path fill="#7C6752" d="M125.541,32.177h0.213c0.07,0,0.105-0.036,0.105-0.106v-2.832h0.283l1.664,2.302
			c0.105,0.176,0.248,0.424,0.248,0.424l0,0c0,0-0.037-0.248-0.037-0.424v-2.018c0-0.213,0.072-0.284,0.283-0.284h0.354v0.284
			h-0.213c-0.07,0-0.105,0.035-0.105,0.105v2.83h-0.281l-1.664-2.301c-0.105-0.142-0.283-0.424-0.283-0.424l0,0
			c0,0,0.035,0.247,0.035,0.424v2.02c0,0.212-0.07,0.281-0.283,0.281h-0.354v-0.281H125.541z"/>
	</g>
</g>
</svg>
