<?xml version="1.0" encoding="utf-8"?>
<!-- Generator: Adobe Illustrator 16.0.0, SVG Export Plug-In . SVG Version: 6.00 Build 0)  -->
<!DOCTYPE svg PUBLIC "-//W3C//DTD SVG 1.1//EN" "http://www.w3.org/Graphics/SVG/1.1/DTD/svg11.dtd">
<svg version="1.1" id="Layer_1" xmlns="http://www.w3.org/2000/svg" xmlns:xlink="http://www.w3.org/1999/xlink" x="0px" y="0px"
	 width="139px" height="33px" viewBox="0 0 139 33" enable-background="new 0 0 139 33" xml:space="preserve">
<g>
	<path fill="#7C6752" d="M93.719,12.039c-1.062,0.885-2.371,1.274-3.93,1.132c-2.76-0.141-4.246-1.238-4.494-3.291
		c0.07,0.143,0.143,0.248,0.178,0.318s0.105,0.142,0.143,0.212c1.133,1.416,2.512,2.088,4.176,1.981
		c0.638,0,1.203-0.105,1.733-0.283c0.531-0.176,0.991-0.424,1.451-0.777c0.955-0.779,1.451-1.734,1.415-2.902
		c-0.07-1.238-0.495-2.193-1.273-2.83c-0.777-0.638-1.805-0.957-3.078-0.92c-3.93,0.034-7.715,2.37-11.324,7.006
		c-1.168,1.451-2.301,3.186-3.469,5.203c-1.168,1.98-2.336,4.281-3.539,6.899c-0.213,0.638-0.318,1.168-0.318,1.593
		c0,0.566,0.213,0.85,0.637,0.85c0.426,0,0.956-0.39,1.664-1.133c0.035-0.07,0.247-0.318,0.564-0.742
		c0.32-0.426,0.779-1.062,1.382-1.877c0.142-0.141,0.247-0.177,0.354-0.069c0.07,0,0.105,0.069,0.105,0.142
		c0,0.035-0.035,0.106-0.071,0.143c-0.425,0.812-0.989,1.627-1.771,2.44c-0.955,1.062-1.732,1.593-2.371,1.593
		c-0.494,0-0.92-0.211-1.237-0.602c-0.283-0.318-0.425-0.777-0.425-1.415c0-0.53,0.105-1.133,0.318-1.841s0.53-1.486,0.99-2.336
		C76.908,9.562,82.996,4.076,89.72,4.076c3.573,0,5.448,1.416,5.592,4.247C95.453,9.88,94.922,11.119,93.719,12.039z"/>
	<path fill="#7C6752" d="M83.668,25.099c-0.709,1.062-1.451,1.592-2.229,1.592c-0.991,0-1.521-0.459-1.628-1.416
		c-0.885,0.814-1.77,1.24-2.654,1.24c-1.238,0-1.875-0.779-1.875-2.302c0-1.771,0.813-3.468,2.406-5.062
		c1.025-1.025,2.018-1.521,3.043-1.521c0.92,0,1.486,0.425,1.699,1.31l0.143-0.142c0.424-0.39,1.062-0.53,1.875-0.46
		c-0.779,1.168-1.416,2.229-1.912,3.221c-0.494,0.885-0.885,1.77-1.203,2.549c-0.354,0.885-0.424,1.486-0.317,1.84
		c0.069,0.177,0.213,0.283,0.39,0.283c0.743,0,1.911-1.274,3.539-3.857c0.105-0.143,0.247-0.143,0.354-0.035
		c0.106,0.105,0.106,0.247,0,0.389L83.668,25.099z M80.519,18.197c-0.673,0-1.345,0.495-2.054,1.45
		c-1.309,1.699-1.945,3.361-1.945,4.92c0,0.85,0.283,1.272,0.885,1.272c1.168,0,2.194-1.237,3.149-3.681
		c0.46-1.133,0.673-2.088,0.673-2.866C81.227,18.586,80.979,18.197,80.519,18.197z"/>
	<path fill="#7C6752" d="M89.685,26.549c-0.956,0-1.451-0.425-1.522-1.31c-0.494,0.425-0.99,0.777-1.449,0.99
		c-0.461,0.213-0.922,0.318-1.381,0.318c-1.273,0-1.84-0.777-1.734-2.301c0.921-1.627,1.593-2.938,2.018-3.999
		c0.426-1.062,0.637-1.875,0.637-2.406v-0.034c0.072-0.035,0.179-0.07,0.283-0.07c0.106,0,0.213-0.036,0.319-0.036
		c0.142,0,0.282,0,0.424,0.036c0.142,0.035,0.283,0.07,0.496,0.104c-0.036,0.673-0.53,1.806-1.416,3.47
		c-0.85,1.662-1.345,2.83-1.415,3.502c-0.142,0.779,0.07,1.134,0.637,1.134c0.638,0,1.381-0.495,2.194-1.486
		c0.104-0.142,0.212-0.282,0.318-0.425s0.177-0.283,0.282-0.426l0.213-0.317c0.283-0.637,0.602-1.451,0.99-2.44
		c0.39-0.992,0.851-2.09,1.416-3.362c0.142,0,0.282,0.142,0.461,0.425c0.354,0.602,0.494,0.955,0.459,1.062
		c0,0.211-0.142,0.565-0.354,1.062c-0.212,0.495-0.529,1.133-0.92,1.911c-0.283,0.637-0.566,1.203-0.885,1.699
		c0.035,0.035,0.035,0.07,0.035,0.141c0,0.036,0,0.07-0.035,0.105c0,0.035-0.035,0.071-0.035,0.106
		c-0.354,0.672-0.496,1.168-0.496,1.558c0,0.142,0,0.213,0.036,0.282c0.069,0.177,0.212,0.248,0.389,0.248
		c0.743,0,2.054-1.097,3.894-3.681c0.105-0.105,0.461,0.105,0.318,0.248C91.914,25.312,90.463,26.549,89.685,26.549z M86.181,17.808
		l0.034-0.069c0,0,0,0.034,0.035,0.034C86.25,17.808,86.215,17.808,86.181,17.808z"/>
	<path fill="#7C6752" d="M93.541,22.442c0.744-0.989,1.627-2.477,1.627-2.477c-0.176-0.283-0.459-0.814-0.354-1.203
		c0.071-0.142,0.213-0.318,0.391-0.531c0.211-0.213,0.459-0.459,0.812-0.777c0.178-0.143,0.318-0.213,0.496-0.213
		c0.247,0,0.46,0.105,0.672,0.318c0.213,0.213,0.318,0.424,0.318,0.672c0,0.178-0.07,0.354-0.178,0.531
		c-0.104,0.178-0.283,0.354-0.459,0.602c0.459,0,0.92-0.035,1.31-0.105s0.708-0.142,1.062-0.39c0.354-0.247,0.991-0.778,0.991-0.778
		l0.317,0.495c-1.875,1.911-3.221,3.61-3.928,5.167c-0.425,1.062-0.461,1.416-0.425,1.842c0.035,0.424,0.282,0.848,0.886,0.742
		c0.529-0.07,2.123-1.521,3.572-3.752c0.071-0.07,0.143-0.105,0.213-0.105c0.143,0,0.213,0.07,0.213,0.213
		c0,0-0.035,0.035-0.07,0.105c-0.426,0.812-1.026,1.663-1.805,2.514c-0.92,1.025-1.734,1.521-2.442,1.521
		c-1.132,0-1.698-0.673-1.698-2.019c0-0.317,0.105-0.672,0.318-1.131c0,0,0.283-0.603,0.742-1.382
		c0.461-0.778,1.381-1.909,1.381-1.909c-0.496,0.069-1.273,0.141-1.592,0.104c-0.319-0.035-0.354-0.142-0.354-0.142l-1.771,2.441
		L93.541,22.442z M96.338,18.517c-0.071-0.072-0.178-0.143-0.284-0.143c-0.104,0.212-0.142,0.354-0.142,0.46
		c0,0.142,0.035,0.283,0.142,0.354C96.267,18.94,96.373,18.728,96.338,18.517z"/>
	<path fill="#7C6752" d="M108.547,25.099c-0.709,1.062-1.451,1.592-2.229,1.592c-0.991,0-1.521-0.459-1.628-1.416
		c-0.885,0.814-1.77,1.24-2.654,1.24c-1.238,0-1.875-0.779-1.875-2.302c0-1.771,0.813-3.468,2.406-5.062
		c1.026-1.025,2.018-1.521,3.043-1.521c0.92,0,1.486,0.425,1.699,1.31l0.141-0.142c0.426-0.39,1.062-0.53,1.877-0.46
		c-0.779,1.168-1.416,2.229-1.912,3.221c-0.529,0.955-0.92,1.84-1.203,2.619c-0.354,0.885-0.424,1.485-0.317,1.84
		c0.069,0.178,0.212,0.283,0.39,0.283c0.743,0,1.911-1.273,3.539-3.857c0.105-0.143,0.247-0.143,0.354-0.035
		c0.105,0.107,0.105,0.248,0,0.39L108.547,25.099z M105.362,18.197c-0.673,0-1.346,0.495-2.054,1.45
		c-1.309,1.699-1.946,3.361-1.946,4.92c0,0.85,0.283,1.272,0.886,1.272c1.168,0,2.193-1.237,3.149-3.681
		c0.46-1.133,0.672-2.088,0.672-2.866C106.069,18.586,105.857,18.197,105.362,18.197z"/>
	<path fill="#7C6752" d="M119.412,25.629c-1.346,0.778-2.549,1.168-3.646,1.168h-0.316c-0.072,0-0.143-0.034-0.214-0.034
		c-0.069,0-0.104-0.037-0.142-0.037c-0.143,0-0.318-0.035-0.495-0.105s-0.354-0.141-0.496-0.247s-0.283-0.213-0.39-0.354
		c-0.105-0.141-0.141-0.283-0.141-0.424c0-0.035,0-0.105,0.034-0.177c0-0.071,0.035-0.106,0.035-0.144
		c0.213-0.741,0.565-1.309,0.991-1.697c0.425-0.389,1.025-0.566,1.734-0.566c0.424,0,0.885,0.213,1.485,0.639
		c-0.283-0.071-0.496-0.144-0.673-0.213c-0.178-0.071-0.354-0.106-0.46-0.106c-0.283,0-0.53,0.071-0.743,0.177
		c-0.213,0.106-0.425,0.283-0.602,0.496c-0.178,0.212-0.318,0.426-0.426,0.672c-0.105,0.248-0.142,0.531-0.142,0.779
		c0,0.529,0.248,0.812,0.778,0.812c0.354,0,0.672-0.069,0.99-0.177c0.318-0.142,0.603-0.317,0.885-0.53
		c0.248-0.213,0.496-0.496,0.674-0.778c0.177-0.283,0.281-0.603,0.354-0.955c0.07-0.354-0.07-1.168-0.46-2.442
		c-0.212-0.742-0.212-1.521,0-2.371c-0.602,0.743-1.133,1.381-1.593,1.877c-0.46,0.494-0.812,0.885-1.062,1.131
		c-0.211,0.179-0.424,0.354-0.637,0.531c-0.213,0.178-0.494,0.318-0.744,0.461l-0.281-0.354c0.425-0.248,1.203-1.026,2.3-2.336
		l2.37-2.831c0.283-0.354,0.639-0.496,1.134-0.496c0.177,0,0.39,0.07,0.603,0.213c-0.992,0.389-1.521,1.098-1.594,2.123
		c-0.035,0.391,0.143,0.885,0.566,1.559c0.248,0.389,0.459,0.707,0.602,0.955c0.143,0.247,0.213,0.424,0.248,0.53
		c0.105,0.317,0.143,0.638,0.07,0.99c-0.07,0.638-0.354,1.274-0.778,1.841c0.886-0.566,1.84-1.416,2.866-2.514
		c0.035-0.034,0.105-0.069,0.143-0.069c0.318,0,0.424,0.104,0.389,0.317c-0.034,0.035-0.069,0.105-0.104,0.178
		C121.57,24.106,120.58,24.956,119.412,25.629z"/>
	<path fill="#7C6752" d="M126.49,26.549c-0.955,0-1.451-0.425-1.522-1.31c-0.494,0.425-0.99,0.777-1.45,0.99
		s-0.92,0.318-1.381,0.318c-1.273,0-1.84-0.777-1.733-2.301c0.921-1.627,1.593-2.938,2.019-3.999
		c0.424-1.062,0.637-1.875,0.637-2.406v-0.034c0.07-0.035,0.177-0.07,0.283-0.07c0.105,0,0.212-0.036,0.318-0.036
		c0.142,0,0.282,0,0.424,0.036c0.143,0.035,0.283,0.07,0.496,0.104c-0.035,0.673-0.531,1.806-1.416,3.47
		c-0.85,1.662-1.345,2.83-1.416,3.502c-0.142,0.779,0.071,1.134,0.638,1.134c0.637,0,1.381-0.495,2.194-1.486
		c0.105-0.142,0.211-0.282,0.317-0.425s0.179-0.283,0.283-0.426l0.213-0.317c0.282-0.637,0.603-1.451,0.99-2.44
		c0.39-0.992,0.85-2.09,1.415-3.362c0.143,0,0.283,0.142,0.461,0.425c0.354,0.602,0.494,0.955,0.46,1.062
		c0,0.211-0.142,0.565-0.354,1.062c-0.213,0.495-0.531,1.133-0.921,1.911c-0.282,0.637-0.565,1.203-0.885,1.699
		c0.036,0.035,0.036,0.07,0.036,0.141c0,0.036,0,0.07-0.036,0.105c0,0.035-0.035,0.071-0.035,0.106
		c-0.354,0.672-0.495,1.168-0.495,1.558c0,0.142,0,0.213,0.035,0.282c0.071,0.177,0.213,0.248,0.391,0.248
		c0.742,0,2.017-1.274,3.82-3.856c0.105-0.106,0.213-0.143,0.319-0.035c0.106,0.142,0.106,0.246,0,0.389
		C128.647,25.239,127.268,26.549,126.49,26.549z M122.985,17.808l0.035-0.069c0,0,0,0.034,0.036,0.034
		C123.057,17.808,123.021,17.808,122.985,17.808z"/>
	<path fill="#7C6752" d="M137.248,22.621c0,0.035-0.035,0.069-0.035,0.104c-1.629,2.654-3.187,3.965-4.707,3.965
		c-0.778,0-1.381-0.283-1.805-0.851c-0.427-0.565-0.674-1.237-0.674-1.981c0-1.733,0.955-3.361,2.866-4.848
		c0.885-0.709,1.699-1.062,2.372-1.062c0.85,0,1.309,0.425,1.309,1.238s-0.777,1.664-2.334,2.513
		c-0.32,0.178-0.674,0.425-1.062,0.673s-0.85,0.566-1.311,0.92c-0.246,0.248-0.389,0.814-0.389,1.663c0,0.851,0.354,1.31,1.025,1.31
		c1.168,0,2.406-0.99,3.752-2.973l0.779-1.062c0.176,0,0.281,0.106,0.281,0.283C137.248,22.585,137.248,22.621,137.248,22.621z
		 M135.902,18.903c0,0.037-0.105-0.069-0.212-0.354c-0.034,0-0.106-0.035-0.177-0.07s-0.143-0.07-0.212-0.07
		c-0.462,0-1.099,0.602-1.911,1.805c-0.708,0.991-1.133,1.805-1.311,2.442c0.391-0.248,0.85-0.603,1.381-0.991
		c0.529-0.425,1.133-0.92,1.806-1.486C135.69,19.612,135.902,19.187,135.902,18.903z"/>
	<path fill="#7C6752" d="M84.942,1.918c0,0.813-0.495,2.088-1.239,3.539c2.654-1.31,5.91-1.698,8.316-0.849
		c0.743,0.248,1.77,0.637,2.902,1.025c0.212-0.177,0.459,0.143,0.637-0.708c0.178-0.849-0.178-1.557,1.062-2.796
		c1.238-1.238,4.459-0.495,4.459-0.495s-0.955,2.265-2.229,3.22c-1.272,0.957-2.796,0.814-3.574,0.886
		c2.371,0.743,5.167,1.31,6.618,1.593s3.221,0.035,4.316-0.212V7.085c0.603-1.805,0.814-2.477,2.054-2.689
		c1.239-0.211,2.44-1.097,2.44-1.097s-0.602,3.787-2.229,4.459c-0.779,0.319-1.486,0-1.841-0.248
		c-0.638,0.212-1.876,0.566-3.539,0.46c0.991,0.531,2.726,1.664,3.327,3.362c0.812,2.229,1.628,2.76,1.628,2.76
		s-2.832-0.071-4.673-1.202c-1.84-1.134-2.229-3.363-2.44-5.168c-3.681-1.132-7.573-2.229-9.237-2.902
		c-1.627-0.672-4.636,0-5.769,0.461c-0.495,0.212-0.99,0.425-1.521,0.672c1.697,0.035,3.148,0.105,4.211,1.451
		c1.485,1.875,2.336,2.017,2.336,2.123c0,0.105-4.672,1.416-5.91-0.814c-0.778-1.451-1.311-1.805-1.451-2.335
		c-0.282,0.106-0.672,0.283-0.92,0.354c-1.629,0.424-2.053,0.849-2.301,1.309c0.213-0.354-0.317,0.354-0.885,1.062
		c-0.39,0.496,0.106-0.531-0.92-0.992c-1.025-0.459-1.982-1.945-1.945-3.502c0.035-1.558-0.354-2.832-0.354-2.832
		s1.486,0.283,3.114,1.203c1.486,0.814,1.168,2.867,0.956,4.742c1.733-0.777,2.405-2.582,3.008-3.928
		c0.603-1.273,1.38-1.77,1.733-3.928L84.942,1.918z M95.063,5.669C95.099,5.669,95.099,5.669,95.063,5.669c0.035,0,0.035,0,0.035,0
		S95.099,5.669,95.063,5.669z"/>
	<g>
		<path fill="#7C6752" d="M75.599,28.92h-0.282v-0.282h1.311c0.99,0,1.627,0.602,1.627,1.627c0,1.026-0.637,1.629-1.627,1.629
			h-0.709c-0.213,0-0.282-0.07-0.282-0.283v-2.689L75.599,28.92L75.599,28.92z M76.023,31.61h0.531c0.777,0,1.311-0.461,1.311-1.346
			c0-0.851-0.531-1.346-1.311-1.346h-0.637v2.548C75.918,31.574,75.953,31.61,76.023,31.61z"/>
		<path fill="#7C6752" d="M86.924,28.92h-0.283v-0.282h1.841c0.212,0,0.282,0.07,0.282,0.282v0.318h-0.318v-0.212
			c0-0.07-0.035-0.106-0.105-0.106h-1.098v1.168h1.203v0.283h-1.203v1.097c0,0.071,0.035,0.106,0.106,0.106h1.133
			c0.07,0,0.104-0.035,0.104-0.106v-0.177h0.283v0.319c0,0.212-0.07,0.281-0.283,0.281h-1.414c-0.213,0-0.283-0.069-0.283-0.281
			v-2.69H86.924z"/>
		<path fill="#7C6752" d="M97.435,31.256c0,0,0.317,0.39,0.851,0.39c0.354,0,0.637-0.248,0.637-0.565
			c0-0.813-1.594-0.638-1.594-1.629c0-0.459,0.391-0.813,0.991-0.813c0.318,0,0.886,0.143,0.886,0.566v0.212h-0.319v-0.142
			c0-0.178-0.283-0.317-0.566-0.317c-0.425,0-0.673,0.247-0.673,0.53c0,0.742,1.594,0.566,1.594,1.628
			C99.24,31.61,98.85,32,98.248,32c-0.672,0-1.024-0.46-1.024-0.46L97.435,31.256z"/>
		<path fill="#7C6752" d="M107.697,31.61h0.318v-2.654h-0.318v-0.284h0.92v0.284h-0.318v2.654h0.318v0.281h-0.92V31.61z"/>
		<path fill="#7C6752" d="M118.703,28.603c0.744,0,1.133,0.39,1.133,0.39l-0.176,0.247c0,0-0.354-0.318-0.957-0.318
			c-0.742,0-1.272,0.602-1.272,1.346c0,0.777,0.53,1.381,1.272,1.381c0.639,0,1.027-0.461,1.027-0.461v-0.39
			c0-0.069-0.036-0.106-0.105-0.106h-0.213v-0.282h0.318c0.212,0,0.282,0.069,0.282,0.282v1.238h-0.282v-0.281
			c0-0.071,0-0.143,0-0.143l0,0c0,0-0.391,0.424-1.062,0.424c-0.885,0-1.592-0.707-1.592-1.662
			C117.076,29.345,117.783,28.603,118.703,28.603z"/>
		<path fill="#7C6752" d="M128.506,31.61h0.213c0.07,0,0.105-0.036,0.105-0.106v-2.832h0.283l1.663,2.302
			c0.106,0.176,0.248,0.424,0.248,0.424l0,0c0,0-0.036-0.248-0.036-0.424v-2.018c0-0.213,0.071-0.284,0.283-0.284h0.354v0.284
			h-0.213c-0.07,0-0.105,0.035-0.105,0.105v2.83h-0.282l-1.664-2.301c-0.104-0.142-0.282-0.424-0.282-0.424l0,0
			c0,0,0.035,0.247,0.035,0.424v2.02c0,0.212-0.07,0.281-0.283,0.281h-0.354V31.61H128.506z"/>
	</g>
</g>
<g enable-background="new    ">
	<path fill="#7C6752" d="M5.063,16.354h1.9c0.581,0,1.127,0.026,1.64,0.079s0.985,0.146,1.417,0.276s0.82,0.31,1.163,0.534
		s0.634,0.508,0.874,0.851c0.24,0.344,0.423,0.755,0.55,1.233c0.127,0.479,0.191,1.036,0.191,1.671c0,0.699-0.118,1.333-0.353,1.9
		c-0.235,0.567-0.576,1.052-1.023,1.452s-0.992,0.709-1.636,0.928c-0.644,0.218-1.373,0.327-2.186,0.327H5.025L5.063,16.354z
		 M5.877,24.882H7.72c0.716,0,1.338-0.095,1.865-0.286c0.527-0.19,0.964-0.455,1.309-0.794s0.602-0.743,0.769-1.214
		c0.167-0.47,0.251-0.985,0.251-1.544c0-0.737-0.104-1.357-0.312-1.862c-0.208-0.504-0.515-0.912-0.921-1.223
		c-0.407-0.312-0.912-0.536-1.516-0.674s-1.3-0.207-2.087-0.207H5.877V24.882z"/>
	<path fill="#7C6752" d="M19.87,24.323l0.229,0.609c-0.318,0.293-0.688,0.502-1.109,0.629c-0.422,0.128-0.897,0.191-1.427,0.191
		c-0.504,0-0.954-0.084-1.35-0.251c-0.396-0.168-0.731-0.4-1.004-0.699c-0.273-0.299-0.482-0.654-0.626-1.067
		s-0.216-0.865-0.216-1.357c0-0.47,0.072-0.915,0.216-1.334c0.144-0.42,0.352-0.786,0.623-1.1c0.271-0.313,0.603-0.562,0.995-0.743
		c0.392-0.183,0.835-0.273,1.331-0.273c0.491,0,0.918,0.083,1.281,0.248c0.362,0.165,0.661,0.395,0.896,0.689
		c0.235,0.294,0.41,0.646,0.524,1.058s0.172,0.864,0.172,1.36c0,0.034-0.001,0.07-0.003,0.111c-0.002,0.04-0.003,0.07-0.003,0.092
		h-5.198v0.121c0,0.377,0.056,0.72,0.168,1.029c0.112,0.309,0.274,0.574,0.486,0.794c0.212,0.221,0.468,0.392,0.769,0.515
		s0.642,0.185,1.023,0.185c0.475,0,0.9-0.07,1.277-0.21S19.616,24.581,19.87,24.323z M15.212,21.838h4.366v-0.013v0.045
		c-0.013-0.344-0.061-0.655-0.143-0.938c-0.083-0.281-0.207-0.524-0.372-0.728c-0.166-0.203-0.376-0.361-0.632-0.474
		c-0.256-0.112-0.565-0.168-0.925-0.168c-0.352,0-0.663,0.06-0.934,0.181s-0.502,0.285-0.693,0.492
		c-0.19,0.208-0.342,0.449-0.454,0.725S15.241,21.529,15.212,21.838z"/>
	<path fill="#7C6752" d="M26.047,19.926c-0.187-0.115-0.442-0.204-0.766-0.268c-0.324-0.063-0.679-0.095-1.064-0.095
		c-0.225,0-0.432,0.024-0.623,0.072c-0.19,0.049-0.355,0.119-0.493,0.21c-0.138,0.092-0.245,0.201-0.321,0.331
		c-0.076,0.129-0.114,0.276-0.114,0.441c0,0.212,0.031,0.379,0.092,0.502c0.061,0.123,0.151,0.224,0.27,0.302
		c0.118,0.078,0.265,0.142,0.438,0.19c0.173,0.049,0.373,0.102,0.597,0.159c0.225,0.057,0.472,0.129,0.744,0.216
		c0.271,0.087,0.563,0.207,0.877,0.359c0.114,0.055,0.233,0.122,0.356,0.2c0.123,0.078,0.235,0.177,0.336,0.295
		c0.102,0.119,0.185,0.26,0.248,0.423s0.095,0.354,0.095,0.575c0,0.326-0.075,0.609-0.226,0.849s-0.349,0.438-0.594,0.597
		c-0.246,0.159-0.526,0.276-0.842,0.354c-0.316,0.076-0.639,0.114-0.969,0.114c-0.225,0-0.446-0.012-0.664-0.035
		s-0.425-0.062-0.62-0.114s-0.374-0.122-0.537-0.207c-0.163-0.084-0.299-0.188-0.41-0.312l0.197-0.597
		c0.098,0.11,0.221,0.205,0.369,0.286c0.148,0.08,0.311,0.146,0.486,0.2c0.176,0.053,0.362,0.092,0.559,0.117
		c0.197,0.025,0.395,0.038,0.594,0.038c0.267,0,0.513-0.025,0.737-0.076c0.224-0.051,0.418-0.125,0.582-0.223
		c0.163-0.098,0.289-0.22,0.378-0.368s0.133-0.32,0.133-0.515c0-0.225-0.051-0.411-0.152-0.56s-0.244-0.273-0.426-0.375
		s-0.396-0.189-0.642-0.264s-0.515-0.151-0.807-0.231c-0.31-0.094-0.588-0.191-0.836-0.293c-0.248-0.102-0.459-0.223-0.635-0.362
		s-0.312-0.306-0.407-0.499c-0.095-0.192-0.143-0.429-0.143-0.708c0-0.292,0.067-0.547,0.2-0.763s0.31-0.396,0.531-0.54
		c0.22-0.145,0.469-0.251,0.747-0.321c0.277-0.069,0.562-0.104,0.854-0.104c0.424,0,0.814,0.038,1.172,0.114
		c0.358,0.076,0.651,0.203,0.88,0.381L26.047,19.926z"/>
	<path fill="#7C6752" d="M28.589,19.087h0.788v6.52h-0.788V19.087z M29.364,16.214v0.788h-0.731v-0.788H29.364z"/>
	<path fill="#7C6752" d="M36.672,19.087h0.788v1.55v4.112c0,0.317-0.019,0.618-0.057,0.902c-0.039,0.283-0.099,0.561-0.181,0.832
		c-0.083,0.271-0.2,0.522-0.353,0.753c-0.152,0.23-0.352,0.433-0.597,0.604c-0.246,0.172-0.546,0.307-0.902,0.403
		c-0.356,0.098-0.78,0.146-1.271,0.146c-0.411,0-0.806-0.039-1.185-0.117c-0.379-0.079-0.728-0.2-1.045-0.365l0.076-0.737
		c0.309,0.178,0.643,0.311,1.001,0.396c0.358,0.087,0.723,0.131,1.096,0.131c0.826,0,1.46-0.186,1.903-0.557
		c0.442-0.37,0.674-0.952,0.696-1.744l0.032-1.385c-0.242,0.538-0.581,0.938-1.017,1.201c-0.437,0.263-0.93,0.394-1.481,0.394
		c-0.458,0-0.866-0.078-1.227-0.235c-0.36-0.156-0.665-0.376-0.915-0.657c-0.25-0.282-0.44-0.622-0.572-1.021
		c-0.131-0.397-0.197-0.839-0.197-1.321c0-0.471,0.062-0.914,0.188-1.331c0.125-0.418,0.313-0.783,0.565-1.097
		c0.252-0.313,0.565-0.562,0.94-0.743c0.375-0.183,0.814-0.273,1.318-0.273c0.271,0,0.523,0.035,0.756,0.104
		c0.233,0.07,0.448,0.168,0.645,0.293c0.197,0.125,0.377,0.275,0.54,0.451s0.309,0.369,0.436,0.581L36.672,19.087z M36.653,22.105
		c0-0.348-0.052-0.676-0.156-0.985c-0.104-0.31-0.253-0.579-0.448-0.811c-0.195-0.23-0.432-0.413-0.711-0.546
		c-0.28-0.134-0.593-0.2-0.94-0.2c-0.381,0-0.716,0.075-1.004,0.226s-0.528,0.353-0.721,0.606s-0.338,0.549-0.435,0.884
		c-0.098,0.334-0.146,0.684-0.146,1.048c0,0.402,0.04,0.765,0.118,1.087c0.079,0.322,0.208,0.597,0.388,0.823
		s0.417,0.401,0.708,0.524c0.292,0.122,0.652,0.184,1.081,0.184c0.284,0,0.537-0.037,0.759-0.111
		c0.222-0.073,0.417-0.176,0.584-0.305s0.309-0.283,0.426-0.461s0.212-0.371,0.286-0.581s0.128-0.433,0.162-0.667
		C36.636,22.585,36.653,22.347,36.653,22.105z"/>
	<path fill="#7C6752" d="M40.421,25.606h-0.788v-5.008l-0.057-1.512h0.826l0.039,1.277c0.512-0.958,1.317-1.437,2.415-1.437
		c0.318,0,0.596,0.038,0.835,0.114s0.445,0.182,0.617,0.314c0.171,0.134,0.312,0.289,0.422,0.467c0.11,0.179,0.195,0.37,0.254,0.575
		c0.059,0.206,0.102,0.42,0.127,0.643c0.025,0.222,0.038,0.443,0.038,0.664c0.004,0.114,0.006,0.327,0.006,0.639
		c0,0.311,0,0.693,0,1.146v2.116h-0.788v-3.444c0-0.229-0.001-0.408-0.003-0.54c-0.002-0.131-0.005-0.216-0.01-0.254
		c-0.021-0.598-0.181-1.048-0.479-1.351c-0.299-0.303-0.708-0.454-1.229-0.454c-0.237,0-0.457,0.03-0.658,0.092
		c-0.202,0.062-0.384,0.143-0.547,0.245c-0.163,0.102-0.306,0.217-0.429,0.346c-0.123,0.13-0.231,0.263-0.324,0.4
		s-0.161,0.272-0.203,0.403c-0.042,0.132-0.064,0.25-0.064,0.356V25.606z"/>
	<path fill="#7C6752" d="M51.847,25.606h-0.743v-9.583h0.788v4.397c0.127-0.25,0.282-0.468,0.464-0.654s0.385-0.342,0.607-0.467
		c0.223-0.125,0.461-0.219,0.715-0.28c0.254-0.062,0.517-0.092,0.788-0.092c0.492,0,0.912,0.09,1.262,0.27
		c0.349,0.181,0.636,0.423,0.861,0.729c0.225,0.305,0.39,0.659,0.496,1.064c0.106,0.404,0.159,0.829,0.159,1.273
		c0,0.479-0.061,0.929-0.184,1.351s-0.306,0.791-0.55,1.108c-0.244,0.318-0.549,0.569-0.918,0.754
		c-0.369,0.184-0.797,0.276-1.284,0.276c-1.059,0-1.866-0.458-2.421-1.373L51.847,25.606z M54.205,19.563
		c-0.437,0-0.803,0.08-1.1,0.241s-0.536,0.377-0.718,0.648c-0.182,0.271-0.312,0.583-0.391,0.937
		c-0.079,0.354-0.118,0.722-0.118,1.103c0,0.378,0.05,0.728,0.149,1.049c0.1,0.322,0.246,0.601,0.438,0.836s0.432,0.419,0.718,0.553
		c0.286,0.134,0.615,0.2,0.988,0.2c0.419,0,0.774-0.086,1.064-0.258c0.291-0.171,0.524-0.395,0.702-0.67
		c0.178-0.275,0.307-0.586,0.388-0.931c0.081-0.346,0.121-0.692,0.121-1.039c0-0.369-0.044-0.715-0.134-1.039
		c-0.089-0.324-0.226-0.607-0.41-0.849c-0.185-0.241-0.417-0.432-0.699-0.572C54.923,19.633,54.59,19.563,54.205,19.563z"/>
	<path fill="#7C6752" d="M58.151,19.087h0.833l2.307,5.947l2.389-5.947h0.813l-2.942,7.054c-0.119,0.283-0.256,0.552-0.413,0.804
		s-0.333,0.477-0.53,0.674c-0.197,0.196-0.414,0.362-0.651,0.498s-0.496,0.229-0.775,0.28l-0.426-0.515
		c0.343-0.09,0.627-0.204,0.852-0.344s0.409-0.292,0.553-0.457c0.144-0.166,0.258-0.337,0.343-0.515
		c0.084-0.179,0.161-0.348,0.229-0.509l0.159-0.388L58.151,19.087z"/>
</g>
</svg>
