<?xml version="1.0" encoding="utf-8"?>
<!-- Generator: Adobe Illustrator 16.0.0, SVG Export Plug-In . SVG Version: 6.00 Build 0)  -->
<!DOCTYPE svg PUBLIC "-//W3C//DTD SVG 1.1//EN" "http://www.w3.org/Graphics/SVG/1.1/DTD/svg11.dtd">
<svg version="1.1" id="relationships" xmlns="http://www.w3.org/2000/svg" xmlns:xlink="http://www.w3.org/1999/xlink" x="0px"
	 y="0px" width="180px" height="180px" viewBox="0 0 180 180" enable-background="new 0 0 180 180" xml:space="preserve">
<path fill-rule="evenodd" clip-rule="evenodd" fill="#8B181B" d="M90.383,1.939c0.258,0.134,0.558,0.055,0.837,0
	c1.268,2.345,2.799,3.8,4.684,5.219c1.779,1.342,3.873,2.747,6.448,3.379c0.795,0.195,1.621,0.248,2.379,0.381
	c0.769,0.134,1.547,0.395,2.3,0.463c2.584,0.237,5.695-0.545,7.674-1.229c1.016-0.35,2.084-0.813,3.068-1.384
	c0.674-0.39,2.264-1.703,2.689-1.61c0.927,0.21,0.705,0.932,0.995,2c0.5,1.853,1.542,3.729,2.452,5.058
	c1.259,1.834,2.964,3.876,4.837,5.142c0.784,0.534,1.711,0.895,2.532,1.381c0.795,0.474,1.531,1.045,2.3,1.534
	c0.8,0.508,1.669,0.916,2.458,1.461c0.737,0.502,1.374,1.208,2.152,1.687c2.211,1.369,6.727,2.647,10.585,2.379
	c1.278-0.086,2.458-0.318,3.605-0.46c0.82,0.466,0.336,1.382,0.152,2.534c-0.674,4.269,0.531,8.208,1.848,11.124
	c0.531,1.197,1.353,2.227,2.068,3.297c2.342,3.5,6.526,6.463,11.353,7.445c0.679,0.14,1.432,0.103,2.079,0.463
	c0.047,0.366,0.263,0.371,0.3,0.534c0.084,0.334-1.095,1.929-1.452,2.689c-0.448,0.942-0.905,2.213-1.158,3.221
	c-0.484,2.005-0.938,5.358-0.458,7.977c0.152,0.821,0.542,1.676,0.769,2.534c0.463,1.752,0.884,3.61,1.227,5.374
	c0.189,0.958,0.199,1.96,0.384,2.916c0.421,2.171,2.258,5.21,3.453,6.826c0.6,0.811,1.468,1.824,2.457,2.689
	c0.795,0.692,2.785,1.806,2.837,2.221c0.138,0.977-0.947,1.177-1.837,1.846c-3.01,2.247-5.131,5.502-6.521,9.36
	c-0.295,0.798-0.385,1.692-0.542,2.608c-0.153,0.899-0.453,1.789-0.537,2.607c-0.211,2.065,0.263,4.556,0.769,6.447
	c0.547,2.042,1.295,3.653,2.147,4.99c0.216,0.334,1.384,1.568,1.305,1.994c-0.194,1.023-0.82,0.776-1.921,1.074
	c-1.947,0.526-3.684,1.46-5.142,2.452c-1.784,1.227-4.059,3.105-5.216,4.916c-0.517,0.806-0.905,1.79-1.453,2.685
	c-1.026,1.663-2.031,3.326-3.227,4.984c-0.584,0.815-1.205,1.573-1.61,2.458c-1.194,2.621-2.395,6.137-2.073,10.132
	c0.089,1.11,0.353,2.163,0.463,3.3c-0.258,0.058-0.264,0.295-0.385,0.379c-0.337,0.242-1.221-0.095-2.073-0.231
	c-4.231-0.669-8.253,0.463-11.2,1.769c-1.2,0.526-2.195,1.463-3.221,2.147c-3.59,2.368-6.537,6.452-7.527,11.278
	c-0.137,0.706-0.146,1.416-0.384,2.153c-0.837,0.694-1.289-0.111-2.374-0.695c-3.152-1.705-8.863-3.115-13.357-1.689
	c-1.737,0.553-3.442,0.784-5.132,1.227c-1.816,0.474-3.685,0.484-5.375,1.079c-3.795,1.337-7.109,3.61-9.436,6.674
	c-0.643,0.837-1.018,1.71-1.391,1.763c-0.921,0.127-0.889-0.537-1.526-1.458c-1.037-1.489-2.421-2.668-3.764-3.679
	c-1.742-1.321-3.953-2.826-6.521-3.453c-0.811-0.199-1.7-0.231-2.532-0.389c-0.863-0.158-1.679-0.422-2.458-0.453
	c-4.342-0.189-8.689,1.337-11.358,3.137c-0.553,0.379-1.032,0.874-1.689,1.158c-0.074-0.242-0.353-0.126-0.537-0.231
	c-0.279-0.169-0.505-1.663-0.763-2.458c-0.806-2.463-2.232-4.595-3.685-6.29c-1-1.168-2.079-2.421-3.379-3.3
	c-1.353-0.921-2.847-1.553-4.137-2.458c-1.348-0.937-2.816-1.657-4.069-2.61c-1.389-1.042-2.516-1.59-4.379-2.221
	c-2.384-0.816-5.242-1.484-8.589-1.074c-0.674,0.079-2.126,0.568-2.532,0.306c-0.11-0.068-0.11-0.358-0.463-0.379
	c1.284-4.685,0.232-10.358-1.689-13.816c-0.679-1.227-1.784-2.647-2.684-3.837c-1.784-2.357-4.679-4.137-7.6-5.368
	c-0.769-0.326-1.542-0.653-2.374-0.848c-0.858-0.194-1.726-0.194-2.61-0.458c-0.011-0.41-0.269-0.447-0.305-0.61
	c-0.089-0.39,1.1-1.932,1.453-2.692c1.273-2.668,2.332-7.303,1.616-11.2c-0.189-1.039-0.647-2.149-0.926-3.303
	c-0.521-2.21-1.105-4.587-1.453-6.979c-0.479-3.306-2.379-6.155-4.295-8.366c-0.553-0.629-1.247-1.312-2.152-2.068
	c-0.626-0.529-2.179-1.387-2.3-1.845c-0.231-0.879,0.637-0.964,1.458-1.534c1.489-1.034,2.653-2.405,3.684-3.764
	c1.311-1.724,2.874-4.177,3.453-6.444c0.358-1.393,0.616-3.225,0.842-4.68c0.011-0.047,0-0.103,0-0.155
	c0.316-3.963-1.084-8.089-2.532-10.666c-0.51-0.9-1.216-1.608-1.763-2.61c0.21,0.013,0.147-0.295,0.231-0.458
	c0.195-0.392,0.884-0.376,1.764-0.613c1.91-0.519,3.794-1.532,5.142-2.458c1.773-1.218,4.037-3.071,5.216-4.911
	c0.505-0.787,0.858-1.739,1.379-2.608c0.484-0.792,1.053-1.574,1.537-2.376c0.484-0.803,0.99-1.671,1.537-2.458
	c0.537-0.782,1.263-1.429,1.684-2.227c1.363-2.587,2.526-6.424,2.227-10.434c-0.084-1.153-0.337-2.29-0.458-3.453
	c0.258-0.061,0.258-0.297,0.384-0.384c0.416-0.29,2.484,0.308,3.447,0.384c4.032,0.327,7.758-0.734,10.442-2.226
	c1.231-0.684,2.647-1.79,3.837-2.684c1.221-0.927,2.205-2.253,3.063-3.456c1.342-1.86,2.547-3.971,3.147-6.598
	c0.189-0.813,0.147-1.708,0.542-2.531c0.273-0.021,0.421-0.276,0.531-0.308c0.374-0.092,1.953,1.11,2.689,1.46
	c2.706,1.287,7.174,2.345,11.2,1.611c1.011-0.187,2.09-0.647,3.221-0.921c2.147-0.516,4.547-1.061,6.905-1.379
	c1.147-0.158,2.221-0.6,3.147-0.997C85.378,7.992,88.199,5.374,90.383,1.939 M90.688,3.708c-2.421,3.74-6.221,6.111-10.59,7.9
	c2.758,0.411,5.206,1.137,7.285,2.227c3.105-1.805,6.738-3.082,11.285-3.455C95.398,8.763,92.789,6.489,90.688,3.708 M120.073,8.85
	c-2.562,1.913-5.921,3.024-9.742,3.682c2.9,1.179,5.321,2.784,7.442,4.908c0.521,0.523,1.574,1.939,2.074,2.076
	c0.252,0.063,0.652-0.066,0.921-0.082c2.132-0.097,4.7,0.037,6.595,0.54C124.179,17.026,121.379,13.684,120.073,8.85 M50.246,21.203
	c3.005-1.353,7.037-2.061,11.511-1.687c1.679-1.958,3.579-3.687,5.758-5.142c-5.348,0.376-9.8-0.721-13.048-2.689
	C53.967,15.71,51.946,18.626,50.246,21.203 M110.179,13.758c-3.289-1.395-7.542-2.353-11.97-2.074
	c-3.727,0.242-6.705,1.374-9.363,2.839c5.39,3.234,9.816,7.426,12.738,13.124c4.405-3.755,9.616-6.706,16.568-7.905
	C116.236,17.387,113.511,15.171,110.179,13.758 M75.262,12.763c-5.247,0.424-9.216,4.014-11.895,6.979
	c5.279,0.839,9.342,2.889,13.126,5.221c2.547-4.126,5.742-7.605,9.663-10.358C83.094,13.242,79.441,12.421,75.262,12.763
	 M77.567,25.729c5.084,4.042,9.2,9.061,13.274,14.121c1.469-2.071,3.038-4.016,4.678-5.913c1.652-1.908,3.549-3.558,5.137-5.524
	c-3.125-5.637-7.416-10.126-13.189-13.119C83.394,17.995,80.073,21.455,77.567,25.729 M44.03,26.418
	c-3.658,2.745-6.274,6.855-7.595,11.432c5.158-1.645,13.379-1.466,18.421,0.155c0.342-7.426,2.947-12.6,5.979-17.342
	C52.982,20.318,48.503,23.066,44.03,26.418 M126.295,33.787c3.868-1.074,9.811-1.387,14.11-0.463c-0.726-2.113-1.895-3.95-3.137-5.6
	c-1.242-1.634-2.658-3.358-4.379-4.453c-1.442-0.916-3.405-1.513-5.374-1.995c-2.036-0.5-4.41-0.732-6.826-0.613
	C123.221,24.376,125.105,28.727,126.295,33.787 M56.004,38.463c4.984,1.666,9.5,3.8,13.884,6.063
	c1.295-6.842,3.332-12.934,5.911-18.49c-3.763-2.426-8.005-4.376-13.353-5.218C58.946,25.342,56.499,30.929,56.004,38.463
	 M119.079,20.818c-7.068,1.239-12.658,3.968-16.806,8.134c2.1,4.321,3.969,8.871,5.374,13.89c5.395-3.305,10.815-6.582,17.342-8.748
	C123.89,28.795,121.942,24.35,119.079,20.818 M76.952,26.881c-0.769,0.863-1.416,2.798-1.995,4.298
	c-1.652,4.305-3.074,9.226-3.911,14.04c4.374,2.608,8.348,5.621,11.969,8.979c1.795-4.932,4.263-9.189,6.979-13.2
	C86.136,35.808,81.952,30.934,76.952,26.881 M141.869,33.629c3.668,0.884,6.853,2.668,9.284,4.685
	c0.384,0.318,0.795,0.729,1.073,0.689c-0.989-2.727-1.484-6.748-0.847-10.208c-4.858,0.874-9.648-0.366-13.043-1.914
	c-0.047,0-0.089,0.011-0.073,0.077C139.806,28.839,140.969,31.108,141.869,33.629 M40.503,27.955h-0.231
	c-2.679,1.019-6.706,1.471-10.132,0.84c0.863,4.9-0.347,9.771-1.989,13.124c2.058-1.421,4.216-2.737,6.826-3.605
	C36.045,34.089,38.019,30.763,40.503,27.955 M101.273,29.797c-3.568,3.434-6.869,7.142-9.742,11.276
	c2.227,3.174,4.236,6.558,5.83,10.358c1.527-1.321,2.922-2.748,4.453-4.063c1.549-1.332,3.254-2.453,4.759-3.837
	C105.131,38.626,103.39,34.029,101.273,29.797 M126.442,35.016c0.705,6.342,0.179,13.668-0.689,19.413
	c4.61-0.739,9.605-1.089,15.042-0.997c1.947-4.969,1.879-13.571,0.152-18.724C136.674,33.603,130.458,33.9,126.442,35.016
	 M142.174,53.506c7.427,0.347,12.595,2.955,17.343,5.984c0.284-6.916-1.964-11.874-4.911-15.727
	c-2.947-3.855-6.811-7.143-12.047-8.674h-0.232C143.969,40.248,143.795,48.469,142.174,53.506 M108.026,44.295
	c1.242,4.395,1.91,9.353,2.152,14.737c4.242-1.974,9.021-3.414,14.269-4.376c0.9-5.666,1.5-12.942,0.769-19.258
	c0-0.047-0.005-0.092-0.073-0.076C118.795,37.671,113.089,40.664,108.026,44.295 M36.056,39.234
	c-1.105,4.269-0.816,10.49,0.305,14.503c6.342-0.705,13.668-0.182,19.416,0.692c-0.742-4.613-1.095-9.6-1.005-15.042
	C49.809,37.435,41.209,37.511,36.056,39.234 M34.593,39.769c-2.089,0.837-3.932,1.876-5.679,3.224
	c-1.558,1.213-3.247,2.655-4.294,4.3c-0.926,1.455-1.516,3.408-1.995,5.369c-0.49,2-0.737,4.273-0.616,6.829
	c3.716-2.474,7.932-4.453,13.042-5.527C34.093,49.94,33.814,43.979,34.593,39.769 M56.004,39.85
	c-0.079,5.369,0.305,10.282,1.074,14.806c4.168,0.766,8.026,1.847,11.584,3.221c-0.052-4.348,0.358-8.24,0.921-11.969
	C65.451,43.498,60.93,41.471,56.004,39.85 M90.688,42.227c-2.668,3.879-4.942,8.161-6.753,12.892c2,2.213,3.932,4.505,5.674,6.979
	c1.9-3.622,4.357-6.695,6.91-9.664C94.793,48.813,93.068,45.19,90.688,42.227 M97.973,52.893c1.479,3.337,2.537,7.082,3.227,11.206
	c2.484-1.558,4.858-3.229,7.674-4.453c-0.025-5.524-0.763-10.337-1.994-14.653C103.684,47.395,100.568,49.879,97.973,52.893
	 M69.967,58.417c3.826,1.521,7.131,3.568,10.363,5.682c0.495-3.035,1.184-5.876,2.147-8.44c-3.348-3.584-7.332-6.534-11.743-9.055
	C70.225,50.234,69.73,54.282,69.967,58.417 M160.669,60.411c1.953,1.676,3.685,3.584,5.143,5.755
	c-0.453-5.34,0.868-9.9,2.605-13.042c-3.964-0.54-6.88-2.529-9.438-4.218C160.332,51.906,161.032,55.942,160.669,60.411
	 M10.192,60.027c1.863,2.642,3.042,5.963,3.685,9.821c1.147-2.863,2.805-5.332,4.911-7.442c0.389-0.384,1.958-1.645,2.073-2.071
	c0.058-0.227-0.068-0.674-0.079-0.921c-0.1-2.068,0.158-5.25,0.458-6.597C18.366,56.024,15.093,58.843,10.192,60.027 M90.383,63.327
	c1.353,2.248,2.632,4.577,3.605,7.216c0.811-0.49,1.438-1.427,2.227-2.15c0.789-0.729,1.615-1.455,2.301-2.226
	c0.41-0.339,1.389-0.679,1.531-1.229c0.158-0.603-0.338-1.977-0.537-2.916c-0.605-2.845-1.621-6.542-2.531-8.208
	C94.531,56.735,92.172,59.748,90.383,63.327 M36.667,54.961c2.311,6.413,5.342,12.105,8.979,17.192
	c4.384-1.242,9.342-1.905,14.732-2.15c-1.979-4.24-3.411-9.021-4.374-14.271C50.314,54.821,43.014,54.24,36.667,54.961
	 M125.521,55.732c-0.764,4.166-1.843,8.026-3.222,11.59c4.348-0.055,8.248,0.35,11.969,0.921c2.421-4.134,4.442-8.663,6.063-13.587
	C134.963,54.58,130.048,54.961,125.521,55.732 M135.653,68.543c6.842,1.294,12.937,3.331,18.494,5.913
	c2.416-3.745,4.343-7.987,5.216-13.274c-4.278-3.574-10.269-6.021-17.568-6.526C139.99,59.532,137.964,64.18,135.653,68.543
	 M22.161,61.182c1.279,7.011,3.979,12.6,8.137,16.724c4.316-2.104,8.874-3.969,13.89-5.369c-2.927-4.645-5.769-9.718-7.984-14.966
	c-0.327-0.776-0.432-1.65-0.921-2.376C30.114,56.39,25.556,58.201,22.161,61.182 M61.756,70.08c3.227,0,6.037,0.411,8.827,0.847
	c-0.953-3.552-1.658-7.353-1.842-11.663c-3.5-1.413-7.321-2.5-11.437-3.305C58.293,61.167,59.793,65.853,61.756,70.08 M110.1,60.411
	c0,3.229-0.405,6.037-0.842,8.829c3.553-0.95,7.342-1.661,11.663-1.845c1.4-3.508,2.506-7.319,3.295-11.437h-0.147
	C118.969,57.006,114.273,58.448,110.1,60.411 M81.478,65.019c1.752,1.342,3.273,2.916,4.91,4.371
	c0.611-2.231,1.637-4.037,2.458-6.063c-1.579-2.458-3.384-4.7-5.374-6.752C82.599,59.182,81.846,61.903,81.478,65.019
	 M72.041,71.309c0.463-0.011,1.063,0.276,1.531,0.308c0.5,0.037,0.453,0.103,1,0.306c1.827,0.687,3.584,1.095,5.295,1.845
	c-0.279-1.945,0.158-4.577-0.158-6.295c0.411-0.334,0.242-1.239,0.389-1.845c-2.958-2.332-6.389-4.203-10.053-5.832
	C70.214,64.129,70.983,67.864,72.041,71.309 M108.8,61.024c-1.737,0.868-3.984,2.194-5.758,3.381
	c-0.489,0.321-1.526,0.99-1.61,1.303c-0.09,0.318,0.109,1.063,0.152,1.532c0.141,1.703,0.121,3.303,0.23,4.913
	c1.869-0.969,3.896-1.782,6.064-2.455C108.357,67.035,108.895,64.017,108.8,61.024 M21.014,62.021
	c-3.653,3.045-6.089,7.195-7.369,12.893c-1.284,5.718-0.495,12.045,2.227,16.421c3.226-5.389,7.421-9.813,13.121-12.734
	C25.182,74.219,22.361,68.861,21.014,62.021 M155.217,75.146c4.126,2.55,7.604,5.75,10.363,9.668
	c1.315-3.455,2.637-7.771,1.763-12.2c-0.769-3.913-4.353-8.618-6.905-10.592C159.601,67.298,157.548,71.355,155.217,75.146
	 M87.31,70.388c0.479,0.694,0.984,1.368,1.61,1.918c0.253-0.905,0.479-2.118,0.689-3.374c0.248-1.5,0.9-3.553,0-4.221
	C88.747,66.506,88.009,68.424,87.31,70.388 M83.088,70.237c0.769,1.113,1.358,2.16,2.227,2.834
	c-0.037-0.884,0.663-1.494,0.542-2.221c-0.053-0.263-0.695-0.842-1-1.152c-1.032-1.029-2.769-2.616-3.611-3.147
	C81.146,67.93,82.399,69.227,83.088,70.237 M100.125,66.551c-1.305,1.771-1.352,4.789-1.768,7.441
	c0.783-0.318,1.352-0.847,2.152-1.146C100.451,70.677,100.689,68.216,100.125,66.551 M121.842,68.625
	c-1.652,3.718-3.595,7.147-5.758,10.358c3.032,0.497,5.869,1.187,8.442,2.145c3.584-3.345,6.531-7.329,9.053-11.737
	C129.969,68.877,125.942,68.388,121.842,68.625 M108.873,70.695c0.011,0.35-0.152,0.685-0.231,1.071
	c-0.068,0.339,0.011,0.808,0,0.847c-0.047,0.177-0.305,0.403-0.384,0.613c-0.679,1.816-1.101,3.595-1.842,5.292
	c1.947-0.273,4.578,0.158,6.294-0.149c0.332,0.41,1.242,0.242,1.837,0.382c2.343-2.958,4.211-6.382,5.832-10.05
	C116.047,68.866,112.321,69.643,108.873,70.695 M92.684,72.306c0.121-0.231,0.385-0.329,0.457-0.615
	c-0.432-0.895-0.699-1.956-1.23-2.758C92.1,70.122,92.299,71.303,92.684,72.306 M125.984,81.666c4.932,1.795,9.189,4.264,13.2,6.987
	c5.221-3.881,10.11-8.103,14.195-13.124c-5.475-2.61-11.579-4.586-18.417-5.831C132.358,74.074,129.342,78.045,125.984,81.666
	 M94.752,72.688c0.764-0.776,1.5-1.976,1.842-2.916C96.031,70.748,94.389,71.276,94.752,72.688 M89.841,73.685
	c0.294,0.427,0.626,0.808,0.847,1.306c0.442-0.379,0.731-0.9,1.001-1.455c-0.406-1.105-0.574-2.453-0.927-3.605
	C90.441,71.169,90.204,72.49,89.841,73.685 M95.293,74.374c0.164,0.447,0.217,1.014,0.379,1.461
	c0.375-0.093,0.906-0.679,1.381-0.921c0-1.354,0.342-2.787,0.383-3.837C96.725,72.182,95.988,73.253,95.293,74.374 M101.656,73.611
	c0.049,0.887-0.168,1.519-0.152,2.376c1.133-0.605,2.265-1.331,3.301-2.071c0.995-0.705,2.284-1.492,2.685-2.684
	C105.494,71.664,103.468,72.732,101.656,73.611 M46.335,73.303c2.405,3.195,4.89,6.311,7.906,8.903
	c3.337-1.472,7.074-2.545,11.2-3.224c-1.558-2.484-3.227-4.861-4.448-7.674C55.467,71.335,50.656,72.074,46.335,73.303
	 M65.746,77.063c0.342,0.503,0.895,1.574,1.305,1.688c0.321,0.092,1.068-0.113,1.537-0.15c1.71-0.15,3.289-0.129,4.91-0.231
	c-0.968-1.871-1.779-3.897-2.453-6.063c-2.695-0.529-5.542-0.905-8.674-0.997C63.199,73.19,64.53,75.237,65.746,77.063
	 M81.094,74.374c0.237,0.152,0.453,0.318,0.768,0.39c-0.242-1.192-0.426-2.442-0.842-3.455
	C80.973,72.403,81.078,73.346,81.094,74.374 M83.241,75.529c0.51,0.258,0.947,0.587,1.458,0.845c0.053-0.565,0.174-1.055,0.232-1.61
	c-0.842-0.997-1.626-2.061-2.453-3.073C82.762,72.942,83.088,74.147,83.241,75.529 M86.315,74.374
	c0.489,0.508,0.916,1.084,1.531,1.461c0.137-0.685,0.411-1.224,0.616-1.843c-0.463-0.739-0.974-1.434-1.611-1.994
	C86.667,72.79,86.431,73.524,86.315,74.374 M74.957,78.519c0.879-0.036,1.537,0.153,2.379,0.158
	c-0.568-1.149-1.332-2.194-2.074-3.224c-0.721-1.003-1.374-2.263-2.605-2.766h-0.158C73.151,74.801,74.025,76.692,74.957,78.519
	 M93.068,73.992c0.125,0.177,0.199,0.416,0.23,0.689c0.322-0.081,0.369-0.441,0.611-0.607c-0.137-0.276-0.09-0.734-0.385-0.848
	C93.457,73.571,93.131,73.647,93.068,73.992 M45.03,73.611h-0.152c-4.921,1.399-9.4,3.236-13.737,5.216
	c3.358,3.676,7.158,6.916,11.279,9.826c3.168-2.231,6.558-4.237,10.358-5.832C50.051,79.896,47.346,76.95,45.03,73.611
	 M80.025,75.987c0.01-0.297,0-0.565-0.084-0.766c-0.921-0.334-1.968-0.95-2.832-1.074C78.083,74.759,78.952,75.475,80.025,75.987
	 M100.199,74.374c-0.646,0.453-1.389,0.816-1.99,1.311v1.995c0.727-0.195,1.279-0.561,1.916-0.848
	C100.084,76.04,100.6,75.017,100.199,74.374 M88.772,76.683c0.111,0.345,0.384,0.528,0.69,0.689
	c0.163-0.393,0.405-0.716,0.531-1.153c-0.237-0.297-0.29-0.776-0.689-0.924C89.152,75.782,89.02,76.287,88.772,76.683
	 M91.604,76.527c0.385,0.084,1.17-0.874,0.465-1.232C91.936,75.711,91.383,75.998,91.604,76.527 M79.02,78.982
	c0.595,0,0.947,0.231,1.537,0.226c-0.037-0.55-0.221-0.952-0.226-1.528c-1.142-0.605-2.332-1.563-3.379-1.995
	C77.72,76.703,78.341,77.88,79.02,78.982 M101.199,77.68c0,0.587-0.232,0.942-0.232,1.528c0.574-0.005,0.943-0.231,1.538-0.226
	c0.595-1.143,1.558-2.326,1.995-3.379C103.479,76.374,102.305,76.995,101.199,77.68 M93.83,76.219
	c0.221,0.216,0.221,0.65,0.463,0.845c0.021-0.155,0.207-0.155,0.311-0.231c-0.156-0.355-0.062-0.963-0.389-1.147
	C94.109,75.885,93.895,75.969,93.83,76.219 M104.189,78.677c0.3,0.016,0.568,0,0.773-0.076c0.326-0.921,0.942-1.974,1.068-2.84
	C105.426,76.734,104.71,77.604,104.189,78.677 M81.404,76.832c0.332,0.076,0.547,0.264,0.837,0.385
	c-0.037-0.271-0.111-0.498-0.074-0.843c-0.248-0.189-0.558-0.312-0.848-0.463C81.262,76.306,81.431,76.472,81.404,76.832
	 M85.857,77.217c0.426,0.155,0.616,0.552,1.068,0.689c0.121-0.237,0.227-0.487,0.311-0.767c-0.416-0.376-0.805-0.786-1.231-1.152
	C85.946,76.39,85.883,76.785,85.857,77.217 M140.332,89.493c2.068,1.477,4.016,3.039,5.91,4.684
	c1.905,1.648,3.559,3.545,5.526,5.141c5.638-3.138,10.121-7.422,13.122-13.198c-2.711-4.074-6.164-7.395-10.438-9.9
	C150.405,81.306,145.39,85.419,140.332,89.493 M96.826,76.601c-0.689,0.247-1.137,1.182-0.611,2
	c0.217-0.145,0.479-0.237,0.764-0.308C96.883,77.769,97.172,76.869,96.826,76.601 M83.546,77.829c0.342,0.124,0.6,0.329,1,0.382
	c0.047-0.758-0.685-0.742-1.074-1.071C83.415,77.458,83.588,77.532,83.546,77.829 M92.758,78.211c0.121-0.14,0.33-0.176,0.457-0.305
	c-0.111-0.242-0.121-0.59-0.379-0.689C92.568,77.664,92.205,77.835,92.758,78.211 M87.999,78.519
	c0.242,0.232,0.574,0.13,0.616-0.226c-0.242,0.034-0.2-0.211-0.384-0.231C88.157,78.217,88.073,78.363,87.999,78.519 M82.399,79.674
	v-0.997c-0.295-0.013-0.353-0.261-0.689-0.234C81.899,78.89,81.683,79.748,82.399,79.674 M98.283,79.059v0.848
	c0.342,0.089,0.842-0.271,1.305-0.309c0.006-0.458,0.201-0.724,0.232-1.155C99.225,78.569,98.836,78.898,98.283,79.059
	 M166.348,86.043c1.806,3.105,3.085,6.731,3.448,11.276c1.626-3.266,3.899-5.876,6.679-7.977c-3.747-2.421-6.11-6.216-7.905-10.592
	C168.164,81.511,167.438,83.959,166.348,86.043 M83.704,80.056h0.537c0.021-0.179,0.121-0.287,0.079-0.539
	c-0.247-0.059-0.389-0.227-0.689-0.227C83.651,79.548,83.567,79.911,83.704,80.056 M29.835,79.517
	c-5.721,3.073-10.174,7.426-13.2,13.2c2.705,4.074,6.168,7.395,10.442,9.9c4.042-5.09,9.058-9.2,14.116-13.274
	C37.024,86.448,33.451,82.967,29.835,79.517 M96.52,79.824c0.096,0.182,0.164,0.397,0.533,0.308c-0.053-0.173,0.141-0.6-0.148-0.534
	C96.857,79.753,96.541,79.646,96.52,79.824 M67.898,79.906c0.605,1.034,2.095,1.05,3.374,1.303c1.311,0.252,2.748,0.528,4.068,0.61
	c-0.326-0.776-0.847-1.348-1.153-2.146C71.994,79.65,69.83,79.669,67.898,79.906 M105.8,79.748
	c-0.143,0.236-0.311,0.452-0.379,0.771c1.2-0.231,2.426-0.437,3.452-0.845C107.773,79.624,106.837,79.732,105.8,79.748
	 M77.025,81.975h1.995c-0.189-0.731-0.553-1.282-0.842-1.919c-0.842-0.05-1.526-0.266-2.458-0.231
	C76.062,80.643,76.551,81.301,77.025,81.975 M111.405,80.669c-1.574,1.008-3.169,2.185-4.3,3.3c0.826,0.124,1.468,0.427,2.3,0.538
	c1.511-1.438,3.005-2.883,4.227-4.601C112.773,79.774,112.095,80.222,111.405,80.669 M103.347,80.056
	c-0.073,0.334-0.268,0.556-0.384,0.845c0.269-0.036,0.5-0.118,0.842-0.079c0.189-0.242,0.316-0.555,0.464-0.842
	C103.879,79.922,103.71,80.088,103.347,80.056 M69.741,83.969c-0.726-0.792-1.463-1.618-2.226-2.303
	c-0.358-0.483-0.827-1.655-1.537-1.534c-3.395,0.582-7.842,1.756-10.742,2.916c0.516,0.722,1.258,1.324,1.995,1.919
	c2.279,1.842,4.837,3.46,7.442,4.834c2.248-1.358,4.579-2.637,7.21-3.604C71.394,85.38,70.462,84.757,69.741,83.969 M115.163,80.132
	c-1.348,1.745-2.916,3.271-4.368,4.914c2.221,0.61,4.036,1.639,6.062,2.453c1.242-0.717,2.379-1.682,3.521-2.608
	c1.121-0.905,2.416-1.725,3.147-2.84C120.863,81.285,118.263,80.464,115.163,80.132 M80.404,81.898h0.842
	c0.095-0.345-0.263-0.84-0.305-1.303c-0.453-0.006-0.721-0.2-1.147-0.231C79.915,80.956,80.246,81.343,80.404,81.898 M100.51,81.054
	h0.922c0.109-0.216,0.305-0.355,0.305-0.689C101.289,80.556,100.426,80.335,100.51,81.054 M104.652,81.898
	c-0.263,0.502-0.59,0.939-0.848,1.455c0.568,0.05,1.059,0.174,1.616,0.231c0.674-0.608,1.626-1.276,2.374-1.842
	c0.231-0.169,0.637-0.416,0.542-0.616C107.205,81.484,105.958,81.722,104.652,81.898 M83.015,86.659
	c-0.574,1.631-0.642,2.963-0.305,4.521c0.526,2.473,2.826,5.126,5.29,5.986c4.821,1.687,9.3-1.466,10.517-4.984
	c2.02-5.897-2.68-11.15-7.985-10.897C86.651,81.469,83.962,83.942,83.015,86.659 M5.056,89.343c1.773,1.363,3.273,2.855,4.6,4.677
	c1.311,1.811,2.405,3.811,3.3,6.063c0.411-2.758,1.137-5.205,2.227-7.293c-1.811-3.098-3.084-6.736-3.458-11.273
	C10.066,84.685,7.998,87.456,5.056,89.343 M102.353,82.206c-0.127,0.334-0.326,0.592-0.39,0.997
	c0.769,0.042,0.747-0.689,1.079-1.073C102.726,82.066,102.647,82.243,102.353,82.206 M100.125,82.896
	c0.18,0.021,0.285,0.118,0.531,0.076c0.068-0.247,0.232-0.39,0.232-0.689C100.363,82.211,99.963,82.277,100.125,82.896
	 M118.079,88.27c3.626,1.897,6.7,4.351,9.668,6.905c3.647-1.65,7.048-3.542,10.211-5.682c-3.731-2.895-8.189-5.061-12.969-6.903
	C122.868,84.669,120.516,86.507,118.079,88.27 M75.72,84.891c0.458-0.155,0.984-0.242,1.463-0.384
	c-0.095-0.372-0.679-0.906-0.921-1.38c-1.374-0.058-2.653-0.216-3.837-0.463C73.441,83.49,74.615,84.156,75.72,84.891
	 M81.172,83.661c0.179-0.098,0.395-0.16,0.306-0.534h-0.537C80.999,83.321,81.02,83.559,81.172,83.661 M79.941,83.969
	c-0.137-0.216-0.237-0.479-0.305-0.766h-1.689C78.083,84.043,79.088,84.495,79.941,83.969 M74.036,85.43
	c-0.779-0.761-1.979-1.5-2.916-1.845C72.088,84.15,72.62,85.79,74.036,85.43 M53.856,83.743c-3.6,1.437-7.306,3.432-10.285,5.75
	c3.884,2.663,8.164,4.938,12.895,6.753c2.216-2.005,4.505-3.935,6.979-5.677C59.851,88.69,56.814,86.253,53.856,83.743
	 M102.273,85.58c0.242,0.118,0.463,0.258,0.769,0.308c0.379-0.416,0.789-0.797,1.147-1.229
	C103.11,84.248,102.568,84.819,102.273,85.58 M105.727,84.967c-0.406,0.571-1.043,0.905-1.38,1.534
	c0.68,0.143,1.216,0.416,1.837,0.615c0.742-0.463,1.432-0.971,2-1.613C107.363,85.321,106.631,85.059,105.727,84.967 M77.025,85.812
	c0.063,0.303,0.311,0.41,0.542,0.539c0.216-0.221,0.652-0.221,0.842-0.463C78.172,85.354,77.588,85.812,77.025,85.812
	 M109.716,85.964c-0.601,0.553-1.326,0.975-1.837,1.611c0.905,0.252,2.115,0.484,3.374,0.694c1.494,0.247,3.547,0.895,4.216,0
	C113.642,87.406,111.747,86.619,109.716,85.964 M74.572,86.501c0.164,0.297,0.458,0.463,0.769,0.615
	c0.179-0.129,0.416-0.199,0.689-0.23C75.762,86.285,75.225,86.222,74.572,86.501 M101.889,87.267
	c-0.037-0.236,0.211-0.199,0.232-0.381c-0.158-0.072-0.301-0.158-0.465-0.227C101.432,86.896,101.531,87.229,101.889,87.267
	 M78.562,87.19c0.279,0.441,0.653,0.795,1,0.231c-0.189-0.116-0.137-0.479-0.463-0.458C78.967,87.085,78.82,87.196,78.562,87.19
	 M70.272,88.27c1.195-0.189,2.379-0.388,3.379-0.771C72.804,86.562,71.262,87.925,70.272,88.27 M102.811,88.114
	c0.395,0.166,0.716,0.408,1.152,0.539c0.295-0.244,0.779-0.297,0.916-0.691C104.058,87.725,103.152,87.051,102.811,88.114
	 M152.532,100.24c3.753,4.382,6.668,9.598,7.905,16.498c3.548-2.571,6.126-7.105,7.363-12.511
	c1.326-5.766,0.568-12.568-2.068-16.652c-0.006-0.043-0.011-0.093-0.079-0.076C162.427,92.888,158.232,97.314,152.532,100.24
	 M76.646,87.962c0.206,0.35,0.942,0.96,1.3,0.457C77.583,88.124,77.272,87.563,76.646,87.962 M75.03,88.495
	c-1.216,0.34-2.537,0.582-3.758,0.922c1.237,0.318,2.563,0.561,3.758,0.921c0.395-0.376,0.995-0.542,1.305-0.995
	C75.846,89.116,75.446,88.798,75.03,88.495 M106.416,88.495c-0.327,0.361-0.769,0.616-1.227,0.848
	c0.373,0.438,0.905,0.732,1.458,0.995c1.104-0.403,2.447-0.571,3.604-0.921C108.984,89.106,107.679,88.825,106.416,88.495
	 M124.295,93.946c-2.247-1.809-4.742-3.487-7.29-4.911h-0.147c-2.252,1.358-4.578,2.634-7.221,3.605
	c0.495,0.813,1.426,1.439,2.152,2.226c0.727,0.793,1.458,1.616,2.227,2.301c0.348,0.426,0.679,1.392,1.227,1.537
	c0.727,0.189,2.047-0.351,2.91-0.54c2.958-0.629,5.921-1.523,8.143-2.376C125.832,95.032,125.016,94.522,124.295,93.946
	 M67.356,90.106c-0.673-0.043-1.074,0.039-1.305,0.463c1.8,0.863,3.716,1.607,5.684,2.303c0.695-0.484,1.369-0.986,1.916-1.61
	C71.972,90.906,69.341,90.232,67.356,90.106 M42.419,90.265c-5.232,3.568-10.174,8.084-14.269,13.042
	c5.468,2.607,11.574,4.587,18.416,5.831c2.605-4.376,5.621-8.347,8.979-11.971C50.641,95.396,46.44,92.922,42.419,90.265
	 M76.646,90.878c0.484,0.152,0.99,0.286,1.379,0.533c0.342-0.113,0.526-0.387,0.695-0.689
	C78.051,90.198,77.088,90.032,76.646,90.878 M103.573,90.414c0.368,0.298,0.674,0.858,1.306,0.464
	C104.668,90.522,103.941,89.914,103.573,90.414 M139.185,90.265c-3.163,1.924-6.61,4.23-10.438,5.75
	c1.321,1.526,2.753,2.926,4.069,4.452c1.331,1.545,2.447,3.256,3.837,4.758c4.915-1.399,9.399-3.234,13.731-5.216
	C147.043,96.369,143.301,93.124,139.185,90.265 M107.879,91.335c0.231,0.124,0.326,0.39,0.61,0.466
	c0.895-0.437,1.958-0.708,2.764-1.231C110.058,90.753,108.879,90.959,107.879,91.335 M101.963,91.411
	c0.142,0.119,0.185,0.334,0.311,0.463c0.295-0.01,0.353-0.258,0.689-0.23c-0.137-0.27-0.4-0.422-0.61-0.613
	C102.289,91.222,102.084,91.272,101.963,91.411 M64.599,91.335c-1.774,1.229-3.647,2.632-5.216,3.99
	c-0.516,0.441-1.089,0.895-1.39,1.46c2.663,0.766,5.274,1.584,8.369,1.919c1.347-1.753,2.921-3.271,4.374-4.911
	C68.472,93.19,66.693,92.101,64.599,91.335 M79.409,91.951c0.158,0.071,0.3,0.155,0.458,0.231c0.037-0.092,0.079-0.179,0.158-0.231
	c-0.042-0.222-0.164-0.351-0.39-0.39C79.672,91.806,79.43,91.767,79.409,91.951 M75.183,91.72c-0.547,0.598-1.348,0.952-1.837,1.61
	c0.784,0.185,1.526,0.421,2.374,0.54c0.511-0.49,1.084-0.916,1.463-1.537C76.446,92.198,75.925,91.849,75.183,91.72 M105.494,91.951
	c0.085,0.323,0.442,0.376,0.616,0.612c0.289-0.089,0.621-0.149,0.842-0.305C106.542,91.812,106.174,91.644,105.494,91.951
	 M103.115,92.948c0.158,0.021,0.153,0.205,0.231,0.306c0.396-0.063,0.722-0.202,1.153-0.231
	C104.315,92.265,103.547,92.604,103.115,92.948 M77.335,94.177c0.4,0.059,0.795,0.125,1.227,0.15
	c0.158-0.432,0.558-0.621,0.689-1.073C78.352,92.491,77.894,93.712,77.335,94.177 M110.41,95.249
	c-0.984-0.561-1.505-2.203-2.921-1.838C108.269,94.167,109.474,94.909,110.41,95.249 M104.347,94.327
	c0.09,0.371,0.68,0.905,0.922,1.379c1.368-0.037,2.652,0.416,3.831,0.309c-1.205-0.576-2.158-1.424-3.3-2.068
	C105.342,94.101,104.82,94.188,104.347,94.327 M14.182,106.223c0.421,2.123,1.637,4.289,2.763,5.986
	c1.195,1.8,2.584,3.45,4.142,4.603c0.842-5.276,2.89-9.339,5.216-13.123c-4.121-2.548-7.595-5.751-10.358-9.669
	C14.624,97.341,13.334,101.928,14.182,106.223 M72.115,94.327c-1.5,1.439-3,2.885-4.216,4.603c1.432,0.011,2.505-0.981,3.526-1.687
	c1.053-0.716,2.174-1.45,2.995-2.377C73.593,94.743,72.951,94.44,72.115,94.327 M101.584,94.866
	c0.141,0.217,0.236,0.479,0.305,0.767h1.685C103.447,94.79,102.432,94.338,101.584,94.866 M100.047,95.706h0.537
	c-0.059-0.191-0.074-0.432-0.232-0.531C100.168,95.27,99.951,95.335,100.047,95.706 M76.104,95.249
	c-0.989,0.847-2.058,1.623-3.068,2.457c1.252-0.284,2.458-0.613,3.842-0.771c0.258-0.506,0.584-0.947,0.836-1.456
	C77.157,95.433,76.667,95.31,76.104,95.249 M78.488,96.709c0.311,0.061,0.39-0.118,0.689-0.082c0.121-0.331,0.326-0.592,0.384-0.994
	C78.799,95.588,78.814,96.322,78.488,96.709 M80.63,96.554c0.263-0.021,0.626,0.058,0.774-0.076v-0.54
	C80.894,95.664,80.651,96.111,80.63,96.554 M127.363,96.627c-3.4,1.435-7.116,2.551-11.279,3.225
	c1.558,2.483,3.227,4.854,4.453,7.676c5.521-0.028,10.337-0.761,14.652-1.994C132.821,102.325,130.273,99.296,127.363,96.627
	 M103.347,98.78c0.848,0.047,1.526,0.258,2.453,0.231c-0.332-0.815-0.821-1.477-1.3-2.15h-1.995
	C102.679,97.604,103.068,98.138,103.347,98.78 M100.199,97.093c0.195,0.311,0.279,0.748,0.385,1.147
	c0.457,0.006,0.721,0.2,1.152,0.231c-0.121-0.592-0.453-0.981-0.611-1.536C100.814,96.99,100.273,96.801,100.199,97.093
	 M107.337,99.162c2.2,0.026,4.353,0,6.295-0.232c-0.517-0.971-2.017-1.05-3.301-1.305c-1.347-0.264-2.926-0.521-4.147-0.608
	C106.511,97.793,107.037,98.369,107.337,99.162 M47.946,109.446c3.631,0.511,7.684,1.008,11.816,0.766
	c1.521-3.824,3.563-7.127,5.679-10.36c-3.069-0.484-5.89-1.224-8.516-2.146C53.446,101.136,50.435,105.024,47.946,109.446
	 M79.793,98.472c0.447-0.189,1.3,0.026,1.227-0.689C80.293,97.696,79.762,97.809,79.793,98.472 M77.714,98.015
	c-0.189,0.242-0.305,0.555-0.458,0.839c0.395,0.061,0.558-0.107,0.921-0.073c0.079-0.334,0.269-0.556,0.384-0.848
	C78.293,97.975,78.062,98.051,77.714,98.015 M72.657,99.162c1.095,0.05,2.037-0.061,3.063-0.077
	c0.153-0.236,0.321-0.452,0.384-0.763C74.92,98.559,73.667,98.74,72.657,99.162 M84.467,99.238c0.2-0.056,0.437-0.076,0.542-0.227
	c-0.095-0.016-0.084-0.124-0.079-0.231c-0.09-0.087-0.274-0.087-0.463-0.076V99.238z M97.209,99.317
	c0.242,0.061,0.391,0.226,0.689,0.226v-0.689C97.572,98.648,97.041,98.791,97.209,99.317 M81.941,99.238
	c-0.005,0.458-0.205,0.721-0.231,1.152c0.595-0.124,0.979-0.452,1.532-0.616c-0.047-0.3,0.131-0.85-0.153-0.921
	C82.772,99.049,82.341,99.13,81.941,99.238 M99.131,100.159c0.289,0.011,0.352,0.258,0.689,0.231
	c-0.059-0.41-0.189-0.731-0.232-1.152c-0.178,0.005-0.225-0.129-0.457-0.076V100.159z M79.02,99.852
	c-0.605,1.137-1.553,2.334-1.995,3.379c1.021-0.771,2.195-1.39,3.306-2.074c-0.005-0.587,0.226-0.944,0.226-1.531
	C79.978,99.636,79.62,99.861,79.02,99.852 M101.199,101.156c1.132,0.608,2.332,1.558,3.374,2c-0.773-1.023-1.384-2.194-2.068-3.305
	c-0.591,0-0.942-0.227-1.538-0.227C100.967,100.212,101.199,100.569,101.199,101.156 M68.82,100.467
	c-0.337-0.41-1.242-0.244-1.848-0.384c-2.337,2.96-4.2,6.382-5.832,10.053c4.337-0.169,8.068-0.939,11.516-1.995
	c-0.011-0.463,0.269-1.065,0.305-1.537c0.032-0.5,0.105-0.447,0.305-0.997c0.684-1.826,1.095-3.59,1.842-5.292
	C73.167,100.591,70.536,100.159,68.82,100.467 M115.779,101.696c-0.348-0.524-0.99-1.7-1.611-1.613
	c-1.684,0.226-3.937,0.318-6.142,0.384c0.974,1.868,1.784,3.895,2.458,6.063c2.689,0.526,5.536,0.91,8.674,0.997
	C118.216,105.527,117.005,103.538,115.779,101.696 M75.494,103.075c0.605-0.977,1.321-1.843,1.842-2.916
	c-0.3-0.016-0.568,0-0.768,0.081C76.236,101.162,75.62,102.206,75.494,103.075 M92.91,100.541c0.242-0.032,0.205,0.21,0.389,0.231
	c0.068-0.155,0.152-0.3,0.227-0.458C93.289,100.083,92.951,100.19,92.91,100.541 M104.269,100.391
	c0.652,1.045,1.326,2.124,2.073,3.147c0.695,0.952,1.427,2.313,2.685,2.607c-0.653-2.112-1.521-4.002-2.453-5.831
	c-0.884,0.039-1.542-0.15-2.384-0.155C104.189,100.267,104.226,100.325,104.269,100.391 M84.546,100.541v1.691
	c0.847-0.134,1.29-1.142,0.769-1.992C85.099,100.38,84.836,100.473,84.546,100.541 M88.304,100.93
	c0.016,0.298,0.263,0.351,0.237,0.689c0.437-0.281,0.79-0.652,0.231-0.997C88.652,100.762,88.436,100.801,88.304,100.93
	 M96.979,101.08c0.42,0.147,0.662,0.469,1.074,0.616c0.057-0.318-0.117-0.396-0.08-0.689c-0.332-0.127-0.59-0.332-0.994-0.385
	V101.08z M94.293,101.696c0.416,0.376,0.801,0.786,1.227,1.152c0.059-0.405,0.127-0.798,0.152-1.229
	c-0.436-0.155-0.615-0.555-1.068-0.689C94.482,101.172,94.342,101.388,94.293,101.696 M151.232,100.93
	c-4.327,2.098-8.874,3.966-13.89,5.369c3.305,5.395,6.573,10.821,8.747,17.342c5.284-1.131,9.837-3.008,13.273-5.986
	C158.085,110.646,155.39,105.054,151.232,100.93 M81.404,102.001c-0.053,0.848-0.263,1.532-0.232,2.458
	c0.811-0.339,1.474-0.829,2.147-1.303v-2C82.573,101.333,82.046,101.723,81.404,102.001 M91.531,102.617
	c0.236,0.295,0.295,0.776,0.689,0.921c0.158-0.484,0.289-0.992,0.537-1.385c-0.09-0.362-0.428-0.491-0.689-0.689
	C91.895,101.856,91.656,102.18,91.531,102.617 M99.357,102.459c0.246,0.189,0.557,0.313,0.842,0.466
	c0.062-0.395-0.105-0.556-0.074-0.924c-0.336-0.073-0.553-0.263-0.848-0.382C99.32,101.888,99.398,102.114,99.357,102.459
	 M86.925,102.001c0.068,0.395,0.205,0.719,0.231,1.155c0.3-0.061,0.411-0.308,0.537-0.539c-0.221-0.216-0.216-0.653-0.458-0.848
	C87.215,101.928,87.031,101.928,86.925,102.001 M89.304,103.538c0.384-0.185,0.532-0.592,0.689-0.997
	c-0.074-0.103-0.068-0.284-0.226-0.309C89.473,102.602,88.91,102.906,89.304,103.538 M96.594,104.072
	c0.848,0.997,1.627,2.058,2.453,3.071c-0.279-1.25-0.605-2.458-0.764-3.837c-0.506-0.258-0.947-0.587-1.457-0.848
	C96.773,103.027,96.652,103.517,96.594,104.072 M79.867,102.849c-1.095,0.658-2.168,1.45-3.221,2.221
	c-0.968,0.711-2.347,1.292-2.61,2.613c2.105-0.657,4-1.526,5.832-2.458C79.725,104.391,80.241,103.409,79.867,102.849
	 M104.421,104.686c-0.974-0.603-1.848-1.326-2.917-1.837c-0.016,0.295-0.004,0.561,0.08,0.766
	C102.505,103.943,103.547,104.562,104.421,104.686 M84.467,103.922c-0.058,1.374-0.21,2.65-0.458,3.837
	c0.821-1.021,1.495-2.194,2.227-3.3c-0.2-0.469-0.2-1.132-0.463-1.534C85.415,103.327,84.92,103.604,84.467,103.922 M93.068,104.844
	c0.463,0.736,0.967,1.432,1.609,1.992c0.184-0.787,0.416-1.524,0.537-2.377c-0.494-0.505-0.916-1.081-1.537-1.46
	C93.541,103.678,93.268,104.223,93.068,104.844 M89.841,105.301c0.405,1.105,0.568,2.453,0.921,3.605
	c0.322-1.239,0.558-2.561,0.927-3.758c-0.379-0.392-0.549-0.989-1.001-1.303C90.483,104.406,90.02,104.712,89.841,105.301
	 M100.51,107.527c0.047-1.095-0.059-2.039-0.078-3.068c-0.238-0.149-0.453-0.318-0.77-0.387
	C99.895,105.275,100.1,106.501,100.51,107.527 M87.615,104.767c0.095,0.287,0.147,0.613,0.311,0.84
	c0.163-0.269,0.442-0.424,0.537-0.763c-0.221-0.143-0.074-0.647-0.39-0.689C87.983,104.417,87.768,104.557,87.615,104.767
	 M22.161,117.654c4.442,3.652,10.206,6.003,17.653,6.526c1.663-4.984,3.795-9.503,6.063-13.89
	c-6.811-1.303-12.932-3.287-18.416-5.911C24.914,108.027,23.072,112.372,22.161,117.654 M82.551,108.988
	c0.264-1.337,0.5-2.756,0.616-4.071c0-0.047-0.016-0.09-0.079-0.073c-0.695,0.376-1.311,0.834-2.068,1.147
	c-0.026,2.199-0.011,4.36,0.226,6.294C82.262,111.693,82.314,110.217,82.551,108.988 M101.656,105.301
	c0.291,1.863-0.162,4.419,0.158,6.063c-0.41,0.161-0.227,1.219-0.383,1.843c2.958,2.334,6.379,4.205,10.053,5.831
	c-0.137-4.315-0.984-7.921-1.922-11.437c-0.479-0.093-1.146-0.335-1.536-0.382c-0.137-0.016-0.416,0.092-0.458,0.076
	c-0.163-0.045-0.348-0.308-0.537-0.384c-1.8-0.7-3.621-0.947-5.143-1.843h-0.232V105.301z M95.672,107.991
	c0.064,0.345,0.779,0.845,1.074,1.146c1.111,1.105,2.438,2.464,3.531,3.147c0.006-1.395-0.941-2.468-1.609-3.455
	c-0.717-1.045-1.512-2-2.227-2.992c-0.1-0.005-0.105-0.095-0.227-0.073C96.246,106.648,95.551,107.257,95.672,107.991
	 M84.931,109.062c0.563-0.981,2.205-1.497,1.842-2.916C86.015,106.922,85.272,108.125,84.931,109.062 M88.383,107.144
	c0.432,0.895,0.705,1.958,1.226,2.761c-0.184-1.192-0.384-2.371-0.763-3.374C88.72,106.762,88.457,106.859,88.383,107.144
	 M91.762,110.443c-0.211,1.271-0.657,2.855,0.148,3.685c0.867-1.8,1.609-3.719,2.305-5.68c-0.479-0.694-0.984-1.368-1.611-1.918
	C92.361,107.646,91.988,109.062,91.762,110.443 M73.651,109.138c-0.532,2.695-0.911,5.535-0.995,8.672
	c1.926-0.942,3.926-2.079,5.752-3.298c0.416-0.281,1.574-0.992,1.689-1.387c0.074-0.273-0.11-0.947-0.158-1.455
	c-0.131-1.481-0.131-3.9-0.231-4.989C77.841,107.651,75.82,108.465,73.651,109.138 M121.152,108.83
	c1.969,4.242,3.411,9.024,4.369,14.271c5.694,0.91,12.994,1.5,19.337,0.769c-2.306-6.411-5.337-12.098-8.979-17.189
	C131.495,107.925,126.537,108.588,121.152,108.83 M112.784,119.578c3.511,1.399,7.321,2.5,11.432,3.297
	c-0.984-5.205-2.484-9.895-4.447-14.121c-3.227,0-6.037-0.408-8.826-0.845C111.89,111.462,112.6,115.259,112.784,119.578
	 M83.015,112.667c-0.526,0.438-1.411,0.75-1.537,1.229c-0.174,0.668,0.379,2.163,0.537,2.915c0.647,3.045,1.442,5.65,2.379,8.132
	c0.716-0.516,1.327-1.258,1.921-1.992c1.842-2.278,3.453-4.834,4.832-7.441c-1.442-2.237-2.568-4.798-3.763-7.293
	C86.246,109.462,84.373,111.541,83.015,112.667 M162.737,116.507c-0.579,0.581-1.937,1.497-2.068,1.992
	c-0.073,0.261,0.063,0.657,0.074,0.924c0.104,2.131-0.037,4.7-0.532,6.595c2.974-3.132,6.18-6.042,11.121-7.211
	c-1.857-2.642-3.036-5.961-3.679-9.818C166.554,111.709,164.759,114.491,162.737,116.507 M92.684,115.51
	c1.127,1.862,2.627,3.642,3.988,5.216c0.465,0.534,0.838,1.191,1.459,1.46c0.768-2.663,1.578-5.276,1.916-8.363
	c-1.748-1.348-3.27-2.921-4.91-4.376C94.525,111.67,93.5,113.483,92.684,115.51 M60.604,111.438c-1.405,3.505-2.5,7.326-3.3,11.437
	c5.21-0.984,9.9-2.489,14.121-4.45c0-3.229,0.411-6.037,0.848-8.823h-0.158C68.678,110.609,64.851,111.235,60.604,111.438
	 M41.193,124.181c5.374,0.073,10.279-0.311,14.811-1.079c0.763-4.171,1.847-8.023,3.221-11.587
	c-4.347,0.055-8.242-0.351-11.968-0.916C44.84,114.728,42.819,119.254,41.193,124.181 M22.551,129.934
	c-1.353-3.006-2.053-7.037-1.69-11.509c-1.958-1.676-3.684-3.579-5.142-5.758c0.379,5.348-0.726,9.795-2.689,13.045
	C17.056,126.218,19.966,128.238,22.551,129.934 M80.251,114.738c-2.395,1.621-4.821,3.216-7.595,4.45
	c0.026,5.523,0.758,10.34,1.995,14.66c3.195-2.41,6.311-4.895,8.895-7.905C82.025,122.633,81.083,118.735,80.251,114.738
	 M99.047,123.183c3.353,3.582,7.337,6.529,11.748,9.056c0.516-3.632,1-7.694,0.763-11.821c-3.826-1.519-7.126-3.565-10.358-5.679
	C100.705,117.772,100.01,120.612,99.047,123.183 M85.009,126.407c1.642,3.647,3.532,7.047,5.679,10.2
	c2.896-3.695,5.011-8.18,6.905-12.89c-2.006-2.216-3.938-4.506-5.684-6.979C90.015,120.359,87.562,123.431,85.009,126.407
	 M22.008,119.578c-0.321,6.918,2.126,11.75,5.069,15.571c2.953,3.853,6.716,7.252,12.121,8.595
	c-1.647-5.158-1.468-13.379,0.153-18.416c-7.432-0.343-12.595-2.953-17.343-5.981V119.578z M152.458,135.918
	c1.605-1.216,3.358-2.658,4.448-4.374c0.921-1.442,1.526-3.432,2-5.369c0.489-2.016,0.726-4.263,0.61-6.752
	c0-0.051-0.016-0.093-0.079-0.076c-3.626,2.586-8.021,4.396-13.042,5.597c1.073,3.874,1.384,9.821,0.458,14.122
	C148.922,138.359,150.774,137.191,152.458,135.918 M71.352,119.804c-4.242,1.972-9.021,3.411-14.274,4.377
	c-0.911,5.685-1.495,12.989-0.769,19.332c6.416-2.306,12.1-5.343,17.189-8.975C72.257,130.154,71.588,125.186,71.352,119.804
	 M111.942,132.928c4.131,2.416,8.652,4.438,13.579,6.059c0.073-5.369-0.306-10.279-1.074-14.806
	c-4.168-0.766-8.021-1.851-11.584-3.224C112.921,125.307,112.505,129.191,111.942,132.928 M40.735,125.407
	c-1.953,4.968-1.884,13.568-0.158,18.721c4.274,1.101,10.495,0.816,14.511-0.3c-0.563-4.694-0.342-10.716,0.147-15.353
	c0.153-1.447,0.489-2.784,0.384-4.068C51.093,125.175,46.104,125.48,40.735,125.407 M125.832,124.407
	c0.536,4.479,1.068,9.626,0.921,15.042c4.969,1.947,13.563,1.874,18.721,0.147c1.105-4.264,0.811-10.484-0.305-14.495
	C138.858,125.796,131.537,125.291,125.832,124.407 M91.531,137.839c3.879,5.221,8.1,10.115,13.121,14.194
	c2.61-5.479,4.59-11.584,5.832-18.416c-4.374-2.61-8.348-5.621-11.969-8.979C96.715,129.57,94.246,133.828,91.531,137.839
	 M84.088,127.396c-2.795,2.89-6.011,5.353-9.132,7.905c1.4,4.916,3.232,9.4,5.216,13.737c3.674-3.358,6.916-7.153,9.821-11.274
	C87.725,134.607,85.81,131.102,84.088,127.396 M111.632,134.307c-1.29,6.837-3.332,12.933-5.905,18.49
	c3.747,2.421,7.983,4.348,13.273,5.221c3.652-4.437,6-10.205,6.521-17.647C120.537,138.702,116.021,136.57,111.632,134.307
	 M56.541,144.744c1.126,5.289,3,9.831,5.984,13.273c7.011-1.278,12.605-3.974,16.727-8.137c-2.1-4.315-3.974-8.863-5.369-13.885
	H73.73C68.499,139.418,62.993,142.549,56.541,144.744 M146.548,140.522c-0.879,3.669-2.663,6.848-4.679,9.285
	c-0.316,0.384-0.727,0.789-0.689,1.073c2.726-0.989,6.747-1.489,10.2-0.842c-0.869-4.863,0.373-9.653,1.921-13.048
	c-0.006-0.042-0.011-0.09-0.074-0.079C151.343,138.46,149.074,139.617,146.548,140.522 M90.762,138.986
	c-1.558,2.1-3.195,4.031-4.905,5.989c-1.621,1.842-3.39,3.579-4.995,5.447c3.137,5.637,7.421,10.121,13.201,13.116
	c4.074-2.7,7.395-6.158,9.9-10.432C98.92,149.039,94.725,144.134,90.762,138.986 M30.14,150.039
	c4.863-0.874,9.653,0.368,13.048,1.915c-1.242-1.879-2.711-4.194-3.526-6.747c-4.232-1.073-7.558-3.042-10.364-5.531
	C30.224,142.522,30.83,146.502,30.14,150.039 M126.753,140.828c-0.095,0.011-0.084,0.126-0.079,0.231
	c-0.421,7.284-2.974,12.422-5.984,17.116c6.984,0.306,11.932-2.021,15.806-4.995c3.853-2.947,7.205-6.837,8.595-12.194
	C139.974,142.612,131.737,142.48,126.753,140.828 M55.693,146.892c-0.189-0.722-0.111-1.916-0.763-1.769
	c-3.927,0.895-9.432,1.39-13.816,0.384c0.706,2.074,1.879,3.922,3.147,5.605c1.221,1.61,2.658,3.358,4.379,4.453
	c1.442,0.921,3.426,1.516,5.368,1.989c2.037,0.505,4.3,0.731,6.827,0.621C58.798,155.181,56.804,151.07,55.693,146.892
	 M79.867,151.187c-4.316,3.82-9.589,6.684-16.5,7.905c2.842,3.663,7.189,6.137,12.737,7.363c5.753,1.278,12.563,0.589,16.58-2.143
	C87.247,161.103,82.904,156.792,79.867,151.187 M105.11,153.87c-2.669,4.037-5.774,7.627-9.743,10.369
	c3.295,1.247,7.664,2.652,12.201,1.758c2.105-0.41,4.273-1.627,5.984-2.764c1.811-1.205,3.505-2.631,4.6-4.142
	C112.926,158.239,108.815,156.26,105.11,153.87 M119.769,159.323c-1.679,1.952-3.579,3.685-5.753,5.137
	c5.342-0.452,9.89,0.879,13.042,2.61c0.532-3.968,2.526-6.884,4.222-9.437C128.273,158.986,124.237,159.687,119.769,159.323
	 M61.377,169.986c2.637-1.853,5.958-3.042,9.816-3.685c-2.905-1.179-5.316-2.789-7.442-4.905c-0.521-0.526-1.569-1.941-2.069-2.073
	c-0.247-0.068-0.679,0.063-0.921,0.073c-1.979,0.095-4.974-0.053-6.605-0.536C57.293,161.839,60.204,165.044,61.377,169.986
	 M94.062,164.997c-3.021,1.868-6.706,3.073-11.206,3.458c3.174,1.657,5.942,3.731,7.832,6.674c1.358-1.779,2.862-3.274,4.679-4.605
	c1.805-1.315,3.816-2.4,6.064-3.295C98.625,166.828,96.221,166.039,94.062,164.997"/>
</svg>
