<?xml version="1.0" encoding="UTF-8" standalone="no"?>
<!-- Generator: Adobe Illustrator 16.0.0, SVG Export Plug-In . SVG Version: 6.00 Build 0)  -->
<!DOCTYPE svg  PUBLIC '-//W3C//DTD SVG 1.1//EN'  'http://www.w3.org/Graphics/SVG/1.1/DTD/svg11.dtd'>
<svg id="relationships" xmlns="http://www.w3.org/2000/svg" xml:space="preserve" height="180px" viewBox="0 0 180 180" width="180px" version="1.1" y="0px" x="0px" xmlns:xlink="http://www.w3.org/1999/xlink" enable-background="new 0 0 180 180">
<path fill="#8B181B" clip-rule="evenodd" d="m90.383 1.939c0.258 0.134 0.558 0.055 0.837 0 1.268 2.345 2.799 3.8 4.684 5.219 1.779 1.342 3.873 2.747 6.448 3.379 0.795 0.195 1.621 0.248 2.379 0.381 0.769 0.134 1.547 0.395 2.3 0.463 2.584 0.237 5.695-0.545 7.674-1.229 1.016-0.35 2.084-0.813 3.068-1.384 0.674-0.39 2.264-1.703 2.689-1.61 0.927 0.21 0.705 0.932 0.995 2 0.5 1.853 1.542 3.729 2.452 5.058 1.259 1.834 2.964 3.876 4.837 5.142 0.784 0.534 1.711 0.895 2.532 1.381 0.795 0.474 1.531 1.045 2.3 1.534 0.8 0.508 1.669 0.916 2.458 1.461 0.737 0.502 1.374 1.208 2.152 1.687 2.211 1.369 6.727 2.647 10.585 2.379 1.278-0.086 2.458-0.318 3.605-0.46 0.82 0.466 0.336 1.382 0.152 2.534-0.674 4.269 0.531 8.208 1.848 11.124 0.531 1.197 1.353 2.227 2.068 3.297 2.342 3.5 6.526 6.463 11.353 7.445 0.679 0.14 1.432 0.103 2.079 0.463 0.047 0.366 0.263 0.371 0.3 0.534 0.084 0.334-1.095 1.929-1.452 2.689-0.448 0.942-0.905 2.213-1.158 3.221-0.484 2.005-0.938 5.358-0.458 7.977 0.152 0.821 0.542 1.676 0.769 2.534 0.463 1.752 0.884 3.61 1.227 5.374 0.189 0.958 0.199 1.96 0.384 2.916 0.421 2.171 2.258 5.21 3.453 6.826 0.6 0.811 1.468 1.824 2.457 2.689 0.795 0.692 2.785 1.806 2.837 2.221 0.138 0.977-0.947 1.177-1.837 1.846-3.01 2.247-5.131 5.502-6.521 9.36-0.295 0.798-0.385 1.692-0.542 2.608-0.153 0.899-0.453 1.789-0.537 2.607-0.211 2.065 0.263 4.556 0.769 6.447 0.547 2.042 1.295 3.653 2.147 4.99 0.216 0.334 1.384 1.568 1.305 1.994-0.194 1.023-0.82 0.776-1.921 1.074-1.947 0.526-3.684 1.46-5.142 2.452-1.784 1.227-4.059 3.105-5.216 4.916-0.517 0.806-0.905 1.79-1.453 2.685-1.026 1.663-2.031 3.326-3.227 4.984-0.584 0.815-1.205 1.573-1.61 2.458-1.194 2.621-2.395 6.137-2.073 10.132 0.089 1.11 0.353 2.163 0.463 3.3-0.258 0.058-0.264 0.295-0.385 0.379-0.337 0.242-1.221-0.095-2.073-0.231-4.231-0.669-8.253 0.463-11.2 1.769-1.2 0.526-2.195 1.463-3.221 2.147-3.59 2.368-6.537 6.452-7.527 11.278-0.137 0.706-0.146 1.416-0.384 2.153-0.837 0.694-1.289-0.111-2.374-0.695-3.152-1.705-8.863-3.115-13.357-1.689-1.737 0.553-3.442 0.784-5.132 1.227-1.816 0.474-3.685 0.484-5.375 1.079-3.795 1.337-7.109 3.61-9.436 6.674-0.643 0.837-1.018 1.71-1.391 1.763-0.921 0.127-0.889-0.537-1.526-1.458-1.037-1.489-2.421-2.668-3.764-3.679-1.742-1.321-3.953-2.826-6.521-3.453-0.811-0.199-1.7-0.231-2.532-0.389-0.863-0.158-1.679-0.422-2.458-0.453-4.342-0.189-8.689 1.337-11.358 3.137-0.553 0.379-1.032 0.874-1.689 1.158-0.074-0.242-0.353-0.126-0.537-0.231-0.279-0.169-0.505-1.663-0.763-2.458-0.806-2.463-2.232-4.595-3.685-6.29-1-1.168-2.079-2.421-3.379-3.3-1.353-0.921-2.847-1.553-4.137-2.458-1.348-0.937-2.816-1.657-4.069-2.61-1.389-1.042-2.516-1.59-4.379-2.221-2.384-0.816-5.242-1.484-8.589-1.074-0.674 0.079-2.126 0.568-2.532 0.306-0.11-0.068-0.11-0.358-0.463-0.379 1.284-4.685 0.232-10.358-1.689-13.816-0.679-1.227-1.784-2.647-2.684-3.837-1.784-2.357-4.679-4.137-7.6-5.368-0.769-0.326-1.542-0.653-2.374-0.848-0.858-0.194-1.726-0.194-2.61-0.458-0.011-0.41-0.269-0.447-0.305-0.61-0.089-0.39 1.1-1.932 1.453-2.692 1.273-2.668 2.332-7.303 1.616-11.2-0.189-1.039-0.647-2.149-0.926-3.303-0.521-2.21-1.105-4.587-1.453-6.979-0.479-3.306-2.379-6.155-4.295-8.366-0.553-0.629-1.247-1.312-2.152-2.068-0.626-0.529-2.179-1.387-2.3-1.845-0.231-0.879 0.637-0.964 1.458-1.534 1.489-1.034 2.653-2.405 3.684-3.764 1.311-1.724 2.874-4.177 3.453-6.444 0.358-1.393 0.616-3.225 0.842-4.68 0.011-0.047 0-0.103 0-0.155 0.316-3.963-1.084-8.089-2.532-10.666-0.51-0.9-1.216-1.608-1.763-2.61 0.21 0.013 0.147-0.295 0.231-0.458 0.195-0.392 0.884-0.376 1.764-0.613 1.91-0.519 3.794-1.532 5.142-2.458 1.773-1.218 4.037-3.071 5.216-4.911 0.505-0.787 0.858-1.739 1.379-2.608 0.484-0.792 1.053-1.574 1.537-2.376 0.484-0.803 0.99-1.671 1.537-2.458 0.537-0.782 1.263-1.429 1.684-2.227 1.363-2.587 2.526-6.424 2.227-10.434-0.084-1.153-0.337-2.29-0.458-3.453 0.258-0.061 0.258-0.297 0.384-0.384 0.416-0.29 2.484 0.308 3.447 0.384 4.032 0.327 7.758-0.734 10.442-2.226 1.231-0.684 2.647-1.79 3.837-2.684 1.221-0.927 2.205-2.253 3.063-3.456 1.342-1.86 2.547-3.971 3.147-6.598 0.189-0.813 0.147-1.708 0.542-2.531 0.273-0.021 0.421-0.276 0.531-0.308 0.374-0.092 1.953 1.11 2.689 1.46 2.706 1.287 7.174 2.345 11.2 1.611 1.011-0.187 2.09-0.647 3.221-0.921 2.147-0.516 4.547-1.061 6.905-1.379 1.147-0.158 2.221-0.6 3.147-0.997 4.129-1.781 6.95-4.399 9.134-7.834m0.305 1.769c-2.421 3.74-6.221 6.111-10.59 7.9 2.758 0.411 5.206 1.137 7.285 2.227 3.105-1.805 6.738-3.082 11.285-3.455-3.27-1.617-5.879-3.891-7.98-6.672m29.382 5.142c-2.562 1.913-5.921 3.024-9.742 3.682 2.9 1.179 5.321 2.784 7.442 4.908 0.521 0.523 1.574 1.939 2.074 2.076 0.252 0.063 0.652-0.066 0.921-0.082 2.132-0.097 4.7 0.037 6.595 0.54-3.18-2.948-5.98-6.29-7.29-11.124m-69.824 12.353c3.005-1.353 7.037-2.061 11.511-1.687 1.679-1.958 3.579-3.687 5.758-5.142-5.348 0.376-9.8-0.721-13.048-2.689-0.5 4.025-2.521 6.941-4.221 9.518m59.934-7.445c-3.289-1.395-7.542-2.353-11.97-2.074-3.727 0.242-6.705 1.374-9.363 2.839 5.39 3.234 9.816 7.426 12.738 13.124 4.405-3.755 9.616-6.706 16.568-7.905-1.91-2.355-4.64-4.571-7.97-5.984m-34.918-0.995c-5.247 0.424-9.216 4.014-11.895 6.979 5.279 0.839 9.342 2.889 13.126 5.221 2.547-4.126 5.742-7.605 9.663-10.358-3.062-1.363-6.715-2.184-10.894-1.842m2.305 12.966c5.084 4.042 9.2 9.061 13.274 14.121 1.469-2.071 3.038-4.016 4.678-5.913 1.652-1.908 3.549-3.558 5.137-5.524-3.125-5.637-7.416-10.126-13.189-13.119-4.077 2.701-7.398 6.161-9.904 10.435m-33.537 0.689c-3.658 2.745-6.274 6.855-7.595 11.432 5.158-1.645 13.379-1.466 18.421 0.155 0.342-7.426 2.947-12.6 5.979-17.342-7.853-0.345-12.332 2.403-16.805 5.755m82.27 7.369c3.868-1.074 9.811-1.387 14.11-0.463-0.726-2.113-1.895-3.95-3.137-5.6-1.242-1.634-2.658-3.358-4.379-4.453-1.442-0.916-3.405-1.513-5.374-1.995-2.036-0.5-4.41-0.732-6.826-0.613 2.53 3.713 4.41 8.064 5.61 13.124m-70.296 4.676c4.984 1.666 9.5 3.8 13.884 6.063 1.295-6.842 3.332-12.934 5.911-18.49-3.763-2.426-8.005-4.376-13.353-5.218-3.5 4.524-5.947 10.111-6.442 17.645m63.076-17.645c-7.068 1.239-12.658 3.968-16.806 8.134 2.1 4.321 3.969 8.871 5.374 13.89 5.395-3.305 10.815-6.582 17.342-8.748-1.09-5.299-3.04-9.744-5.9-13.276m-42.128 6.063c-0.769 0.863-1.416 2.798-1.995 4.298-1.652 4.305-3.074 9.226-3.911 14.04 4.374 2.608 8.348 5.621 11.969 8.979 1.795-4.932 4.263-9.189 6.979-13.2-3.858-5.19-8.042-10.064-13.042-14.117m64.918 6.748c3.668 0.884 6.853 2.668 9.284 4.685 0.384 0.318 0.795 0.729 1.073 0.689-0.989-2.727-1.484-6.748-0.847-10.208-4.858 0.874-9.648-0.366-13.043-1.914-0.047 0-0.089 0.011-0.073 0.077 1.55 1.881 2.71 4.15 3.61 6.671m-101.37-5.674h-0.231c-2.679 1.019-6.706 1.471-10.132 0.84 0.863 4.9-0.347 9.771-1.989 13.124 2.058-1.421 4.216-2.737 6.826-3.605 1.068-4.225 3.042-7.551 5.526-10.359m60.767 1.842c-3.568 3.434-6.869 7.142-9.742 11.276 2.227 3.174 4.236 6.558 5.83 10.358 1.527-1.321 2.922-2.748 4.453-4.063 1.549-1.332 3.254-2.453 4.759-3.837-1.44-4.905-3.18-9.502-5.3-13.734m25.17 5.219c0.705 6.342 0.179 13.668-0.689 19.413 4.61-0.739 9.605-1.089 15.042-0.997 1.947-4.969 1.879-13.571 0.152-18.724-4.27-1.105-10.48-0.808-14.5 0.308m15.73 18.49c7.427 0.347 12.595 2.955 17.343 5.984 0.284-6.916-1.964-11.874-4.911-15.727-2.947-3.855-6.811-7.143-12.047-8.674h-0.232c1.65 5.159 1.48 13.38-0.15 18.417m-34.14-9.211c1.242 4.395 1.91 9.353 2.152 14.737 4.242-1.974 9.021-3.414 14.269-4.376 0.9-5.666 1.5-12.942 0.769-19.258 0-0.047-0.005-0.092-0.073-0.076-6.35 2.349-12.06 5.342-17.12 8.973m-71.974-5.061c-1.105 4.269-0.816 10.49 0.305 14.503 6.342-0.705 13.668-0.182 19.416 0.692-0.742-4.613-1.095-9.6-1.005-15.042-4.963-1.952-13.563-1.876-18.716-0.153m-1.463 0.535c-2.089 0.837-3.932 1.876-5.679 3.224-1.558 1.213-3.247 2.655-4.294 4.3-0.926 1.455-1.516 3.408-1.995 5.369-0.49 2-0.737 4.273-0.616 6.829 3.716-2.474 7.932-4.453 13.042-5.527-0.958-4.024-1.237-9.985-0.458-14.195m21.411 0.081c-0.079 5.369 0.305 10.282 1.074 14.806 4.168 0.766 8.026 1.847 11.584 3.221-0.052-4.348 0.358-8.24 0.921-11.969-4.132-2.41-8.653-4.437-13.579-6.058m34.684 2.377c-2.668 3.879-4.942 8.161-6.753 12.892 2 2.213 3.932 4.505 5.674 6.979 1.9-3.622 4.357-6.695 6.91-9.664-1.726-3.621-3.451-7.244-5.831-10.207m7.285 10.666c1.479 3.337 2.537 7.082 3.227 11.206 2.484-1.558 4.858-3.229 7.674-4.453-0.025-5.524-0.763-10.337-1.994-14.653-3.2 2.402-6.31 4.886-8.907 7.9m-28.006 5.524c3.826 1.521 7.131 3.568 10.363 5.682 0.495-3.035 1.184-5.876 2.147-8.44-3.348-3.584-7.332-6.534-11.743-9.055-0.509 3.63-1.004 7.678-0.767 11.813m90.703 1.994c1.953 1.676 3.685 3.584 5.143 5.755-0.453-5.34 0.868-9.9 2.605-13.042-3.964-0.54-6.88-2.529-9.438-4.218 1.35 3 2.05 7.036 1.69 11.505m-150.48-0.384c1.863 2.642 3.042 5.963 3.685 9.821 1.147-2.863 2.805-5.332 4.911-7.442 0.389-0.384 1.958-1.645 2.073-2.071 0.058-0.227-0.068-0.674-0.079-0.921-0.1-2.068 0.158-5.25 0.458-6.597-2.874 3.207-6.147 6.026-11.048 7.21m80.191 3.3c1.353 2.248 2.632 4.577 3.605 7.216 0.811-0.49 1.438-1.427 2.227-2.15 0.789-0.729 1.615-1.455 2.301-2.226 0.41-0.339 1.389-0.679 1.531-1.229 0.158-0.603-0.338-1.977-0.537-2.916-0.605-2.845-1.621-6.542-2.531-8.208-2.451 2.921-4.81 5.934-6.599 9.513m-53.716-8.366c2.311 6.413 5.342 12.105 8.979 17.192 4.384-1.242 9.342-1.905 14.732-2.15-1.979-4.24-3.411-9.021-4.374-14.271-5.69-0.911-12.99-1.492-19.337-0.771m88.853 0.771c-0.764 4.166-1.843 8.026-3.222 11.59 4.348-0.055 8.248 0.35 11.969 0.921 2.421-4.134 4.442-8.663 6.063-13.587-5.37-0.076-10.28 0.305-14.81 1.076m10.13 12.811c6.842 1.294 12.937 3.331 18.494 5.913 2.416-3.745 4.343-7.987 5.216-13.274-4.278-3.574-10.269-6.021-17.568-6.526-1.8 4.876-3.83 9.524-6.14 13.887m-113.49-7.361c1.279 7.011 3.979 12.6 8.137 16.724 4.316-2.104 8.874-3.969 13.89-5.369-2.927-4.645-5.769-9.718-7.984-14.966-0.327-0.776-0.432-1.65-0.921-2.376-5.169 1.195-9.727 3.006-13.122 5.987m39.595 8.898c3.227 0 6.037 0.411 8.827 0.847-0.953-3.552-1.658-7.353-1.842-11.663-3.5-1.413-7.321-2.5-11.437-3.305 0.989 5.208 2.489 9.894 4.452 14.121m48.344-9.669c0 3.229-0.405 6.037-0.842 8.829 3.553-0.95 7.342-1.661 11.663-1.845 1.4-3.508 2.506-7.319 3.295-11.437h-0.147c-5.1 1.048-9.8 2.49-13.97 4.453m-28.622 4.608c1.752 1.342 3.273 2.916 4.91 4.371 0.611-2.231 1.637-4.037 2.458-6.063-1.579-2.458-3.384-4.7-5.374-6.752-0.873 2.607-1.626 5.328-1.994 8.444m-9.437 6.29c0.463-0.011 1.063 0.276 1.531 0.308 0.5 0.037 0.453 0.103 1 0.306 1.827 0.687 3.584 1.095 5.295 1.845-0.279-1.945 0.158-4.577-0.158-6.295 0.411-0.334 0.242-1.239 0.389-1.845-2.958-2.332-6.389-4.203-10.053-5.832 0.169 4.333 0.938 8.068 1.996 11.513m36.759-10.285c-1.737 0.868-3.984 2.194-5.758 3.381-0.489 0.321-1.526 0.99-1.61 1.303-0.09 0.318 0.109 1.063 0.152 1.532 0.141 1.703 0.121 3.303 0.23 4.913 1.869-0.969 3.896-1.782 6.064-2.455 0.49-2.663 1.03-5.681 0.93-8.674m-87.786 0.997c-3.653 3.045-6.089 7.195-7.369 12.893-1.284 5.718-0.495 12.045 2.227 16.421 3.226-5.389 7.421-9.813 13.121-12.734-3.811-4.382-6.632-9.74-7.979-16.58m134.21 13.125c4.126 2.55 7.604 5.75 10.363 9.668 1.315-3.455 2.637-7.771 1.763-12.2-0.769-3.913-4.353-8.618-6.905-10.592-0.84 5.276-2.89 9.333-5.22 13.124m-67.91-4.758c0.479 0.694 0.984 1.368 1.61 1.918 0.253-0.905 0.479-2.118 0.689-3.374 0.248-1.5 0.9-3.553 0-4.221-0.862 1.795-1.6 3.713-2.299 5.677m-4.222-0.151c0.769 1.113 1.358 2.16 2.227 2.834-0.037-0.884 0.663-1.494 0.542-2.221-0.053-0.263-0.695-0.842-1-1.152-1.032-1.029-2.769-2.616-3.611-3.147-0.1 1.379 1.153 2.676 1.842 3.686m17.032-3.686c-1.305 1.771-1.352 4.789-1.768 7.441 0.783-0.318 1.352-0.847 2.152-1.146-0.05-2.169 0.19-4.63-0.38-6.295m21.72 2.074c-1.652 3.718-3.595 7.147-5.758 10.358 3.032 0.497 5.869 1.187 8.442 2.145 3.584-3.345 6.531-7.329 9.053-11.737-3.6-0.514-7.63-1.003-11.73-0.766m-12.97 2.07c0.011 0.35-0.152 0.685-0.231 1.071-0.068 0.339 0.011 0.808 0 0.847-0.047 0.177-0.305 0.403-0.384 0.613-0.679 1.816-1.101 3.595-1.842 5.292 1.947-0.273 4.578 0.158 6.294-0.149 0.332 0.41 1.242 0.242 1.837 0.382 2.343-2.958 4.211-6.382 5.832-10.05-4.33 0.165-8.06 0.942-11.51 1.994m-16.186 1.611c0.121-0.231 0.385-0.329 0.457-0.615-0.432-0.895-0.699-1.956-1.23-2.758 0.189 1.189 0.388 2.37 0.773 3.373m33.296 9.36c4.932 1.795 9.189 4.264 13.2 6.987 5.221-3.881 10.11-8.103 14.195-13.124-5.475-2.61-11.579-4.586-18.417-5.831-2.6 4.376-5.62 8.347-8.98 11.968m-31.228-8.978c0.764-0.776 1.5-1.976 1.842-2.916-0.563 0.976-2.205 1.504-1.842 2.916m-4.911 0.997c0.294 0.427 0.626 0.808 0.847 1.306 0.442-0.379 0.731-0.9 1.001-1.455-0.406-1.105-0.574-2.453-0.927-3.605-0.321 1.238-0.558 2.559-0.921 3.754m5.452 0.689c0.164 0.447 0.217 1.014 0.379 1.461 0.375-0.093 0.906-0.679 1.381-0.921 0-1.354 0.342-2.787 0.383-3.837-0.711 1.105-1.448 2.176-2.143 3.297m6.367-0.763c0.049 0.887-0.168 1.519-0.152 2.376 1.133-0.605 2.265-1.331 3.301-2.071 0.995-0.705 2.284-1.492 2.685-2.684-2.01 0.432-4.03 1.5-5.84 2.379m-55.325-0.308c2.405 3.195 4.89 6.311 7.906 8.903 3.337-1.472 7.074-2.545 11.2-3.224-1.558-2.484-3.227-4.861-4.448-7.674-5.526 0.027-10.337 0.766-14.658 1.995m19.411 3.76c0.342 0.503 0.895 1.574 1.305 1.688 0.321 0.092 1.068-0.113 1.537-0.15 1.71-0.15 3.289-0.129 4.91-0.231-0.968-1.871-1.779-3.897-2.453-6.063-2.695-0.529-5.542-0.905-8.674-0.997 0.828 1.88 2.159 3.927 3.375 5.753m15.348-2.689c0.237 0.152 0.453 0.318 0.768 0.39-0.242-1.192-0.426-2.442-0.842-3.455-0.047 1.094 0.058 2.037 0.074 3.065m2.147 1.155c0.51 0.258 0.947 0.587 1.458 0.845 0.053-0.565 0.174-1.055 0.232-1.61-0.842-0.997-1.626-2.061-2.453-3.073 0.284 1.251 0.61 2.456 0.763 3.838m3.074-1.155c0.489 0.508 0.916 1.084 1.531 1.461 0.137-0.685 0.411-1.224 0.616-1.843-0.463-0.739-0.974-1.434-1.611-1.994-0.184 0.792-0.42 1.526-0.536 2.376m-11.358 4.145c0.879-0.036 1.537 0.153 2.379 0.158-0.568-1.149-1.332-2.194-2.074-3.224-0.721-1.003-1.374-2.263-2.605-2.766h-0.158c0.652 2.114 1.526 4.005 2.458 5.832m18.111-4.527c0.125 0.177 0.199 0.416 0.23 0.689 0.322-0.081 0.369-0.441 0.611-0.607-0.137-0.276-0.09-0.734-0.385-0.848-0.067 0.345-0.393 0.421-0.456 0.766m-48.038-0.381h-0.152c-4.921 1.399-9.4 3.236-13.737 5.216 3.358 3.676 7.158 6.916 11.279 9.826 3.168-2.231 6.558-4.237 10.358-5.832-2.727-2.925-5.432-5.871-7.748-9.21m34.995 2.376c0.01-0.297 0-0.565-0.084-0.766-0.921-0.334-1.968-0.95-2.832-1.074 0.974 0.612 1.843 1.328 2.916 1.84m20.175-1.613c-0.646 0.453-1.389 0.816-1.99 1.311v1.995c0.727-0.195 1.279-0.561 1.916-0.848-0.05-0.792 0.47-1.815 0.07-2.458m-11.428 2.309c0.111 0.345 0.384 0.528 0.69 0.689 0.163-0.393 0.405-0.716 0.531-1.153-0.237-0.297-0.29-0.776-0.689-0.924-0.152 0.487-0.284 0.992-0.532 1.388m2.832-0.156c0.385 0.084 1.17-0.874 0.465-1.232-0.133 0.416-0.686 0.703-0.465 1.232m-12.584 2.455c0.595 0 0.947 0.231 1.537 0.226-0.037-0.55-0.221-0.952-0.226-1.528-1.142-0.605-2.332-1.563-3.379-1.995 0.768 1.018 1.389 2.195 2.068 3.297m22.18-1.302c0 0.587-0.232 0.942-0.232 1.528 0.574-0.005 0.943-0.231 1.538-0.226 0.595-1.143 1.558-2.326 1.995-3.379-1.02 0.771-2.2 1.392-3.3 2.077m-7.37-1.461c0.221 0.216 0.221 0.65 0.463 0.845 0.021-0.155 0.207-0.155 0.311-0.231-0.156-0.355-0.062-0.963-0.389-1.147-0.106 0.199-0.32 0.283-0.385 0.533m10.36 2.458c0.3 0.016 0.568 0 0.773-0.076 0.326-0.921 0.942-1.974 1.068-2.84-0.6 0.973-1.32 1.843-1.84 2.916m-22.786-1.845c0.332 0.076 0.547 0.264 0.837 0.385-0.037-0.271-0.111-0.498-0.074-0.843-0.248-0.189-0.558-0.312-0.848-0.463-0.057 0.395 0.112 0.561 0.085 0.921m4.453 0.385c0.426 0.155 0.616 0.552 1.068 0.689 0.121-0.237 0.227-0.487 0.311-0.767-0.416-0.376-0.805-0.786-1.231-1.152-0.059 0.403-0.122 0.798-0.148 1.23m54.473 12.276c2.068 1.477 4.016 3.039 5.91 4.684 1.905 1.648 3.559 3.545 5.526 5.141 5.638-3.138 10.121-7.422 13.122-13.198-2.711-4.074-6.164-7.395-10.438-9.9-4.05 5.086-9.06 9.199-14.12 13.273m-43.504-12.892c-0.689 0.247-1.137 1.182-0.611 2 0.217-0.145 0.479-0.237 0.764-0.308-0.096-0.524 0.193-1.424-0.153-1.692m-13.28 1.228c0.342 0.124 0.6 0.329 1 0.382 0.047-0.758-0.685-0.742-1.074-1.071-0.057 0.318 0.116 0.392 0.074 0.689m9.212 0.382c0.121-0.14 0.33-0.176 0.457-0.305-0.111-0.242-0.121-0.59-0.379-0.689-0.268 0.447-0.631 0.618-0.078 0.994m-4.759 0.308c0.242 0.232 0.574 0.13 0.616-0.226-0.242 0.034-0.2-0.211-0.384-0.231-0.074 0.155-0.158 0.301-0.232 0.457m-5.6 1.155v-0.997c-0.295-0.013-0.353-0.261-0.689-0.234 0.189 0.447-0.027 1.305 0.689 1.231m15.884-0.615v0.848c0.342 0.089 0.842-0.271 1.305-0.309 0.006-0.458 0.201-0.724 0.232-1.155-0.595 0.126-0.984 0.455-1.537 0.616m68.067 6.984c1.806 3.105 3.085 6.731 3.448 11.276 1.626-3.266 3.899-5.876 6.679-7.977-3.747-2.421-6.11-6.216-7.905-10.592-0.42 2.761-1.14 5.209-2.23 7.293m-82.646-5.987h0.537c0.021-0.179 0.121-0.287 0.079-0.539-0.247-0.059-0.389-0.227-0.689-0.227 0.02 0.258-0.064 0.621 0.073 0.766m-53.869-0.539c-5.721 3.073-10.174 7.426-13.2 13.2 2.705 4.074 6.168 7.395 10.442 9.9 4.042-5.09 9.058-9.2 14.116-13.274-4.169-2.898-7.742-6.379-11.358-9.829m66.685 0.307c0.096 0.182 0.164 0.397 0.533 0.308-0.053-0.173 0.141-0.6-0.148-0.534-0.048 0.155-0.364 0.048-0.385 0.226m-28.622 0.082c0.605 1.034 2.095 1.05 3.374 1.303 1.311 0.252 2.748 0.528 4.068 0.61-0.326-0.776-0.847-1.348-1.153-2.146-2.193-0.023-4.357-0.004-6.289 0.233m37.902-0.158c-0.143 0.236-0.311 0.452-0.379 0.771 1.2-0.231 2.426-0.437 3.452-0.845-1.1-0.05-2.03 0.058-3.07 0.074m-28.775 2.227h1.995c-0.189-0.731-0.553-1.282-0.842-1.919-0.842-0.05-1.526-0.266-2.458-0.231 0.342 0.818 0.831 1.476 1.305 2.15m34.375-1.306c-1.574 1.008-3.169 2.185-4.3 3.3 0.826 0.124 1.468 0.427 2.3 0.538 1.511-1.438 3.005-2.883 4.227-4.601-0.86-0.132-1.53 0.316-2.23 0.763m-8.05-0.613c-0.073 0.334-0.268 0.556-0.384 0.845 0.269-0.036 0.5-0.118 0.842-0.079 0.189-0.242 0.316-0.555 0.464-0.842-0.39-0.058-0.56 0.108-0.92 0.076m-33.609 3.913c-0.726-0.792-1.463-1.618-2.226-2.303-0.358-0.483-0.827-1.655-1.537-1.534-3.395 0.582-7.842 1.756-10.742 2.916 0.516 0.722 1.258 1.324 1.995 1.919 2.279 1.842 4.837 3.46 7.442 4.834 2.248-1.358 4.579-2.637 7.21-3.604-0.489-0.817-1.421-1.44-2.142-2.228m45.419-3.837c-1.348 1.745-2.916 3.271-4.368 4.914 2.221 0.61 4.036 1.639 6.062 2.453 1.242-0.717 2.379-1.682 3.521-2.608 1.121-0.905 2.416-1.725 3.147-2.84-2.66-0.766-5.26-1.587-8.36-1.919m-34.756 1.766h0.842c0.095-0.345-0.263-0.84-0.305-1.303-0.453-0.006-0.721-0.2-1.147-0.231 0.121 0.592 0.452 0.979 0.61 1.534m20.106-0.844h0.922c0.109-0.216 0.305-0.355 0.305-0.689-0.45 0.191-1.31-0.03-1.23 0.689m4.14 0.844c-0.263 0.502-0.59 0.939-0.848 1.455 0.568 0.05 1.059 0.174 1.616 0.231 0.674-0.608 1.626-1.276 2.374-1.842 0.231-0.169 0.637-0.416 0.542-0.616-1.13 0.358-2.37 0.596-3.68 0.772m-21.635 4.761c-0.574 1.631-0.642 2.963-0.305 4.521 0.526 2.473 2.826 5.126 5.29 5.986 4.821 1.687 9.3-1.466 10.517-4.984 2.02-5.897-2.68-11.15-7.985-10.897-3.881 0.184-6.57 2.657-7.517 5.374m-77.959 2.684c1.773 1.363 3.273 2.855 4.6 4.677 1.311 1.811 2.405 3.811 3.3 6.063 0.411-2.758 1.137-5.205 2.227-7.293-1.811-3.098-3.084-6.736-3.458-11.273-1.659 3.171-3.727 5.942-6.669 7.829m97.294-7.137c-0.127 0.334-0.326 0.592-0.39 0.997 0.769 0.042 0.747-0.689 1.079-1.073-0.31-0.064-0.39 0.113-0.69 0.076m-2.23 0.69c0.18 0.021 0.285 0.118 0.531 0.076 0.068-0.247 0.232-0.39 0.232-0.689-0.52-0.072-0.917-0.006-0.76 0.613m17.96 5.374c3.626 1.897 6.7 4.351 9.668 6.905 3.647-1.65 7.048-3.542 10.211-5.682-3.731-2.895-8.189-5.061-12.969-6.903-2.12 2.079-4.47 3.917-6.91 5.68m-42.36-3.379c0.458-0.155 0.984-0.242 1.463-0.384-0.095-0.372-0.679-0.906-0.921-1.38-1.374-0.058-2.653-0.216-3.837-0.463 1.016 0.826 2.19 1.492 3.295 2.227m5.452-1.23c0.179-0.098 0.395-0.16 0.306-0.534h-0.537c0.058 0.194 0.079 0.432 0.231 0.534m-1.231 0.308c-0.137-0.216-0.237-0.479-0.305-0.766h-1.689c0.136 0.84 1.141 1.292 1.994 0.766m-5.905 1.461c-0.779-0.761-1.979-1.5-2.916-1.845 0.968 0.565 1.5 2.205 2.916 1.845m-20.18-1.687c-3.6 1.437-7.306 3.432-10.285 5.75 3.884 2.663 8.164 4.938 12.895 6.753 2.216-2.005 4.505-3.935 6.979-5.677-3.594-1.879-6.631-4.316-9.589-6.826m48.414 1.837c0.242 0.118 0.463 0.258 0.769 0.308 0.379-0.416 0.789-0.797 1.147-1.229-1.08-0.411-1.62 0.16-1.92 0.921m3.46-0.613c-0.406 0.571-1.043 0.905-1.38 1.534 0.68 0.143 1.216 0.416 1.837 0.615 0.742-0.463 1.432-0.971 2-1.613-0.83-0.182-1.56-0.444-2.46-0.536m-28.705 0.845c0.063 0.303 0.311 0.41 0.542 0.539 0.216-0.221 0.652-0.221 0.842-0.463-0.237-0.534-0.821-0.076-1.384-0.076m32.695 0.152c-0.601 0.553-1.326 0.975-1.837 1.611 0.905 0.252 2.115 0.484 3.374 0.694 1.494 0.247 3.547 0.895 4.216 0-1.83-0.863-3.72-1.65-5.75-2.305m-35.148 0.537c0.164 0.297 0.458 0.463 0.769 0.615 0.179-0.129 0.416-0.199 0.689-0.23-0.268-0.601-0.805-0.664-1.458-0.385m27.318 0.766c-0.037-0.236 0.211-0.199 0.232-0.381-0.158-0.072-0.301-0.158-0.465-0.227-0.23 0.237-0.13 0.57 0.23 0.608m-23.328-0.077c0.279 0.441 0.653 0.795 1 0.231-0.189-0.116-0.137-0.479-0.463-0.458-0.132 0.122-0.279 0.233-0.537 0.227m-8.29 1.08c1.195-0.189 2.379-0.388 3.379-0.771-0.847-0.937-2.389 0.426-3.379 0.771m32.538-0.156c0.395 0.166 0.716 0.408 1.152 0.539 0.295-0.244 0.779-0.297 0.916-0.691-0.82-0.237-1.73-0.911-2.07 0.152m49.72 12.126c3.753 4.382 6.668 9.598 7.905 16.498 3.548-2.571 6.126-7.105 7.363-12.511 1.326-5.766 0.568-12.568-2.068-16.652-0.006-0.043-0.011-0.093-0.079-0.076-3.22 5.386-7.42 9.812-13.12 12.738m-75.884-12.278c0.206 0.35 0.942 0.96 1.3 0.457-0.363-0.295-0.674-0.856-1.3-0.457m-1.616 0.533c-1.216 0.34-2.537 0.582-3.758 0.922 1.237 0.318 2.563 0.561 3.758 0.921 0.395-0.376 0.995-0.542 1.305-0.995-0.489-0.227-0.889-0.545-1.305-0.848m31.39 0c-0.327 0.361-0.769 0.616-1.227 0.848 0.373 0.438 0.905 0.732 1.458 0.995 1.104-0.403 2.447-0.571 3.604-0.921-1.27-0.311-2.57-0.592-3.83-0.922m17.88 5.451c-2.247-1.809-4.742-3.487-7.29-4.911h-0.147c-2.252 1.358-4.578 2.634-7.221 3.605 0.495 0.813 1.426 1.439 2.152 2.226 0.727 0.793 1.458 1.616 2.227 2.301 0.348 0.426 0.679 1.392 1.227 1.537 0.727 0.189 2.047-0.351 2.91-0.54 2.958-0.629 5.921-1.523 8.143-2.376-0.47-0.756-1.28-1.266-2-1.842m-56.944-3.84c-0.673-0.043-1.074 0.039-1.305 0.463 1.8 0.863 3.716 1.607 5.684 2.303 0.695-0.484 1.369-0.986 1.916-1.61-1.679-0.356-4.31-1.03-6.295-1.156m-24.937 0.159c-5.232 3.568-10.174 8.084-14.269 13.042 5.468 2.607 11.574 4.587 18.416 5.831 2.605-4.376 5.621-8.347 8.979-11.971-4.904-1.773-9.105-4.247-13.126-6.904m34.227 0.613c0.484 0.152 0.99 0.286 1.379 0.533 0.342-0.113 0.526-0.387 0.695-0.689-0.669-0.524-1.632-0.69-2.074 0.156m26.924-0.464c0.368 0.298 0.674 0.858 1.306 0.464-0.21-0.356-0.94-0.964-1.31-0.464m35.61-0.149c-3.163 1.924-6.61 4.23-10.438 5.75 1.321 1.526 2.753 2.926 4.069 4.452 1.331 1.545 2.447 3.256 3.837 4.758 4.915-1.399 9.399-3.234 13.731-5.216-3.34-3.641-7.08-6.886-11.2-9.745m-31.3 1.07c0.231 0.124 0.326 0.39 0.61 0.466 0.895-0.437 1.958-0.708 2.764-1.231-1.19 0.183-2.37 0.389-3.37 0.765m-5.92 0.076c0.142 0.119 0.185 0.334 0.311 0.463 0.295-0.01 0.353-0.258 0.689-0.23-0.137-0.27-0.4-0.422-0.61-0.613-0.06 0.191-0.27 0.241-0.39 0.38m-37.361-0.076c-1.774 1.229-3.647 2.632-5.216 3.99-0.516 0.441-1.089 0.895-1.39 1.46 2.663 0.766 5.274 1.584 8.369 1.919 1.347-1.753 2.921-3.271 4.374-4.911-2.264-0.603-4.043-1.692-6.137-2.458m14.81 0.616c0.158 0.071 0.3 0.155 0.458 0.231 0.037-0.092 0.079-0.179 0.158-0.231-0.042-0.222-0.164-0.351-0.39-0.39 0.037 0.245-0.205 0.206-0.226 0.39m-4.226-0.231c-0.547 0.598-1.348 0.952-1.837 1.61 0.784 0.185 1.526 0.421 2.374 0.54 0.511-0.49 1.084-0.916 1.463-1.537-0.737-0.135-1.258-0.484-2-0.613m30.307 0.231c0.085 0.323 0.442 0.376 0.616 0.612 0.289-0.089 0.621-0.149 0.842-0.305-0.41-0.446-0.78-0.614-1.46-0.307m-2.37 0.997c0.158 0.021 0.153 0.205 0.231 0.306 0.396-0.063 0.722-0.202 1.153-0.231-0.18-0.758-0.95-0.419-1.38-0.075m-25.785 1.229c0.4 0.059 0.795 0.125 1.227 0.15 0.158-0.432 0.558-0.621 0.689-1.073-0.899-0.763-1.357 0.458-1.916 0.923m33.075 1.072c-0.984-0.561-1.505-2.203-2.921-1.838 0.78 0.756 1.98 1.498 2.92 1.838m-6.06-0.922c0.09 0.371 0.68 0.905 0.922 1.379 1.368-0.037 2.652 0.416 3.831 0.309-1.205-0.576-2.158-1.424-3.3-2.068-0.46 0.154-0.98 0.241-1.45 0.38m-90.168 11.893c0.421 2.123 1.637 4.289 2.763 5.986 1.195 1.8 2.584 3.45 4.142 4.603 0.842-5.276 2.89-9.339 5.216-13.123-4.121-2.548-7.595-5.751-10.358-9.669-1.321 3.32-2.611 7.909-1.763 12.199m57.933-11.893c-1.5 1.439-3 2.885-4.216 4.603 1.432 0.011 2.505-0.981 3.526-1.687 1.053-0.716 2.174-1.45 2.995-2.377-0.827-0.123-1.469-0.426-2.305-0.539m29.465 0.539c0.141 0.217 0.236 0.479 0.305 0.767h1.685c-0.11-0.843-1.13-1.295-1.98-0.767m-1.53 0.84h0.537c-0.059-0.191-0.074-0.432-0.232-0.531-0.19 0.095-0.409 0.16-0.31 0.531m-23.946-0.457c-0.989 0.847-2.058 1.623-3.068 2.457 1.252-0.284 2.458-0.613 3.842-0.771 0.258-0.506 0.584-0.947 0.836-1.456-0.557-0.046-1.047-0.169-1.61-0.23m2.384 1.46c0.311 0.061 0.39-0.118 0.689-0.082 0.121-0.331 0.326-0.592 0.384-0.994-0.762-0.045-0.747 0.689-1.073 1.076m2.142-0.155c0.263-0.021 0.626 0.058 0.774-0.076v-0.54c-0.51-0.274-0.753 0.173-0.774 0.616m46.73 0.073c-3.4 1.435-7.116 2.551-11.279 3.225 1.558 2.483 3.227 4.854 4.453 7.676 5.521-0.028 10.337-0.761 14.652-1.994-2.36-3.22-4.91-6.244-7.82-8.913m-24.01 2.153c0.848 0.047 1.526 0.258 2.453 0.231-0.332-0.815-0.821-1.477-1.3-2.15h-1.995c0.18 0.743 0.57 1.277 0.85 1.919m-3.15-1.687c0.195 0.311 0.279 0.748 0.385 1.147 0.457 0.006 0.721 0.2 1.152 0.231-0.121-0.592-0.453-0.981-0.611-1.536-0.31 0.055-0.85-0.134-0.92 0.158m7.14 2.069c2.2 0.026 4.353 0 6.295-0.232-0.517-0.971-2.017-1.05-3.301-1.305-1.347-0.264-2.926-0.521-4.147-0.608 0.32 0.776 0.85 1.352 1.15 2.145m-59.394 10.288c3.631 0.511 7.684 1.008 11.816 0.766 1.521-3.824 3.563-7.127 5.679-10.36-3.069-0.484-5.89-1.224-8.516-2.146-3.479 3.426-6.49 7.306-8.979 11.736m31.847-10.978c0.447-0.189 1.3 0.026 1.227-0.689-0.727-0.087-1.258 0.026-1.227 0.689m-2.079-0.457c-0.189 0.242-0.305 0.555-0.458 0.839 0.395 0.061 0.558-0.107 0.921-0.073 0.079-0.334 0.269-0.556 0.384-0.848-0.268 0.042-0.499 0.118-0.847 0.082m-5.057 1.147c1.095 0.05 2.037-0.061 3.063-0.077 0.153-0.236 0.321-0.452 0.384-0.763-1.184 0.237-2.437 0.418-3.447 0.84m11.81 0.076c0.2-0.056 0.437-0.076 0.542-0.227-0.095-0.016-0.084-0.124-0.079-0.231-0.09-0.087-0.274-0.087-0.463-0.076v0.534zm12.742 0.079c0.242 0.061 0.391 0.226 0.689 0.226v-0.689c-0.326-0.206-0.857-0.063-0.689 0.463m-15.268-0.079c-0.005 0.458-0.205 0.721-0.231 1.152 0.595-0.124 0.979-0.452 1.532-0.616-0.047-0.3 0.131-0.85-0.153-0.921-0.317 0.196-0.748 0.277-1.148 0.385m17.19 0.922c0.289 0.011 0.352 0.258 0.689 0.231-0.059-0.41-0.189-0.731-0.232-1.152-0.178 0.005-0.225-0.129-0.457-0.076v0.998zm-20.111-0.308c-0.605 1.137-1.553 2.334-1.995 3.379 1.021-0.771 2.195-1.39 3.306-2.074-0.005-0.587 0.226-0.944 0.226-1.531-0.579 0.007-0.937 0.232-1.537 0.223m22.18 1.308c1.132 0.608 2.332 1.558 3.374 2-0.773-1.023-1.384-2.194-2.068-3.305-0.591 0-0.942-0.227-1.538-0.227 0.01 0.582 0.24 0.942 0.24 1.532m-32.38-0.69c-0.337-0.41-1.242-0.244-1.848-0.384-2.337 2.96-4.2 6.382-5.832 10.053 4.337-0.169 8.068-0.939 11.516-1.995-0.011-0.463 0.269-1.065 0.305-1.537 0.032-0.5 0.105-0.447 0.305-0.997 0.684-1.826 1.095-3.59 1.842-5.292-1.941 0.28-4.572-0.15-6.288 0.16m46.96 1.23c-0.348-0.524-0.99-1.7-1.611-1.613-1.684 0.226-3.937 0.318-6.142 0.384 0.974 1.868 1.784 3.895 2.458 6.063 2.689 0.526 5.536 0.91 8.674 0.997-0.94-2-2.16-3.99-3.38-5.83m-40.286 1.38c0.605-0.977 1.321-1.843 1.842-2.916-0.3-0.016-0.568 0-0.768 0.081-0.332 0.92-0.948 1.97-1.074 2.84m17.416-2.54c0.242-0.032 0.205 0.21 0.389 0.231 0.068-0.155 0.152-0.3 0.227-0.458-0.237-0.23-0.575-0.12-0.616 0.23m11.36-0.15c0.652 1.045 1.326 2.124 2.073 3.147 0.695 0.952 1.427 2.313 2.685 2.607-0.653-2.112-1.521-4.002-2.453-5.831-0.884 0.039-1.542-0.15-2.384-0.155 0 0.11 0.04 0.16 0.08 0.23m-19.724 0.15v1.691c0.847-0.134 1.29-1.142 0.769-1.992-0.216 0.14-0.479 0.23-0.769 0.3m3.758 0.39c0.016 0.298 0.263 0.351 0.237 0.689 0.437-0.281 0.79-0.652 0.231-0.997-0.12 0.14-0.336 0.18-0.468 0.31m8.675 0.15c0.42 0.147 0.662 0.469 1.074 0.616 0.057-0.318-0.117-0.396-0.08-0.689-0.332-0.127-0.59-0.332-0.994-0.385v0.46zm-2.686 0.62c0.416 0.376 0.801 0.786 1.227 1.152 0.059-0.405 0.127-0.798 0.152-1.229-0.436-0.155-0.615-0.555-1.068-0.689-0.122 0.24-0.262 0.46-0.311 0.77m56.937-0.77c-4.327 2.098-8.874 3.966-13.89 5.369 3.305 5.395 6.573 10.821 8.747 17.342 5.284-1.131 9.837-3.008 13.273-5.986-1.28-7-3.97-12.6-8.13-16.72m-69.826 1.07c-0.053 0.848-0.263 1.532-0.232 2.458 0.811-0.339 1.474-0.829 2.147-1.303v-2c-0.746 0.17-1.273 0.56-1.915 0.84m10.127 0.62c0.236 0.295 0.295 0.776 0.689 0.921 0.158-0.484 0.289-0.992 0.537-1.385-0.09-0.362-0.428-0.491-0.689-0.689-0.173 0.39-0.412 0.71-0.537 1.15m7.826-0.16c0.246 0.189 0.557 0.313 0.842 0.466 0.062-0.395-0.105-0.556-0.074-0.924-0.336-0.073-0.553-0.263-0.848-0.382 0.038 0.26 0.116 0.48 0.075 0.83m-12.432-0.46c0.068 0.395 0.205 0.719 0.231 1.155 0.3-0.061 0.411-0.308 0.537-0.539-0.221-0.216-0.216-0.653-0.458-0.848-0.02 0.16-0.204 0.16-0.31 0.23m2.379 1.54c0.384-0.185 0.532-0.592 0.689-0.997-0.074-0.103-0.068-0.284-0.226-0.309-0.294 0.37-0.857 0.68-0.463 1.31m7.29 0.53c0.848 0.997 1.627 2.058 2.453 3.071-0.279-1.25-0.605-2.458-0.764-3.837-0.506-0.258-0.947-0.587-1.457-0.848-0.053 0.58-0.174 1.07-0.232 1.62m-16.727-1.22c-1.095 0.658-2.168 1.45-3.221 2.221-0.968 0.711-2.347 1.292-2.61 2.613 2.105-0.657 4-1.526 5.832-2.458-0.143-0.83 0.373-1.81-0.001-2.37m24.553 1.84c-0.974-0.603-1.848-1.326-2.917-1.837-0.016 0.295-0.004 0.561 0.08 0.766 0.92 0.32 1.97 0.94 2.84 1.07m-19.953-0.77c-0.058 1.374-0.21 2.65-0.458 3.837 0.821-1.021 1.495-2.194 2.227-3.3-0.2-0.469-0.2-1.132-0.463-1.534-0.358 0.4-0.853 0.67-1.306 0.99m8.601 0.92c0.463 0.736 0.967 1.432 1.609 1.992 0.184-0.787 0.416-1.524 0.537-2.377-0.494-0.505-0.916-1.081-1.537-1.46-0.136 0.69-0.409 1.23-0.609 1.85m-3.227 0.46c0.405 1.105 0.568 2.453 0.921 3.605 0.322-1.239 0.558-2.561 0.927-3.758-0.379-0.392-0.549-0.989-1.001-1.303-0.205 0.57-0.668 0.87-0.847 1.46m10.669 2.23c0.047-1.095-0.059-2.039-0.078-3.068-0.238-0.149-0.453-0.318-0.77-0.387 0.235 1.21 0.44 2.43 0.85 3.46m-12.895-2.76c0.095 0.287 0.147 0.613 0.311 0.84 0.163-0.269 0.442-0.424 0.537-0.763-0.221-0.143-0.074-0.647-0.39-0.689-0.09 0.26-0.305 0.4-0.458 0.61m-65.454 12.88c4.442 3.652 10.206 6.003 17.653 6.526 1.663-4.984 3.795-9.503 6.063-13.89-6.811-1.303-12.932-3.287-18.416-5.911-2.547 3.65-4.389 7.99-5.3 13.27m60.39-8.66c0.264-1.337 0.5-2.756 0.616-4.071 0-0.047-0.016-0.09-0.079-0.073-0.695 0.376-1.311 0.834-2.068 1.147-0.026 2.199-0.011 4.36 0.226 6.294 1.016-0.6 1.068-2.07 1.305-3.3m19.109-3.69c0.291 1.863-0.162 4.419 0.158 6.063-0.41 0.161-0.227 1.219-0.383 1.843 2.958 2.334 6.379 4.205 10.053 5.831-0.137-4.315-0.984-7.921-1.922-11.437-0.479-0.093-1.146-0.335-1.536-0.382-0.137-0.016-0.416 0.092-0.458 0.076-0.163-0.045-0.348-0.308-0.537-0.384-1.8-0.7-3.621-0.947-5.143-1.843h-0.232v0.23zm-5.988 2.69c0.064 0.345 0.779 0.845 1.074 1.146 1.111 1.105 2.438 2.464 3.531 3.147 0.006-1.395-0.941-2.468-1.609-3.455-0.717-1.045-1.512-2-2.227-2.992-0.1-0.005-0.105-0.095-0.227-0.073 0.029 0.87-0.666 1.48-0.545 2.21m-10.741 1.07c0.563-0.981 2.205-1.497 1.842-2.916-0.758 0.78-1.501 1.98-1.842 2.92m3.452-1.92c0.432 0.895 0.705 1.958 1.226 2.761-0.184-1.192-0.384-2.371-0.763-3.374-0.126 0.23-0.389 0.33-0.463 0.61m3.379 3.3c-0.211 1.271-0.657 2.855 0.148 3.685 0.867-1.8 1.609-3.719 2.305-5.68-0.479-0.694-0.984-1.368-1.611-1.918-0.243 1.13-0.616 2.54-0.842 3.92m-18.111-1.3c-0.532 2.695-0.911 5.535-0.995 8.672 1.926-0.942 3.926-2.079 5.752-3.298 0.416-0.281 1.574-0.992 1.689-1.387 0.074-0.273-0.11-0.947-0.158-1.455-0.131-1.481-0.131-3.9-0.231-4.989-1.867 0.98-3.888 1.79-6.057 2.47m47.499-0.31c1.969 4.242 3.411 9.024 4.369 14.271 5.694 0.91 12.994 1.5 19.337 0.769-2.306-6.411-5.337-12.098-8.979-17.189-4.38 1.24-9.34 1.91-14.73 2.15m-8.37 10.75c3.511 1.399 7.321 2.5 11.432 3.297-0.984-5.205-2.484-9.895-4.447-14.121-3.227 0-6.037-0.408-8.826-0.845 0.96 3.54 1.67 7.34 1.85 11.66m-29.765-6.91c-0.526 0.438-1.411 0.75-1.537 1.229-0.174 0.668 0.379 2.163 0.537 2.915 0.647 3.045 1.442 5.65 2.379 8.132 0.716-0.516 1.327-1.258 1.921-1.992 1.842-2.278 3.453-4.834 4.832-7.441-1.442-2.237-2.568-4.798-3.763-7.293-1.138 1.23-3.011 3.31-4.369 4.44m79.725 3.84c-0.579 0.581-1.937 1.497-2.068 1.992-0.073 0.261 0.063 0.657 0.074 0.924 0.104 2.131-0.037 4.7-0.532 6.595 2.974-3.132 6.18-6.042 11.121-7.211-1.857-2.642-3.036-5.961-3.679-9.818-1.1 2.72-2.89 5.5-4.91 7.52m-70.056-1c1.127 1.862 2.627 3.642 3.988 5.216 0.465 0.534 0.838 1.191 1.459 1.46 0.768-2.663 1.578-5.276 1.916-8.363-1.748-1.348-3.27-2.921-4.91-4.376-0.615 2.22-1.64 4.03-2.456 6.06m-32.08-4.07c-1.405 3.505-2.5 7.326-3.3 11.437 5.21-0.984 9.9-2.489 14.121-4.45 0-3.229 0.411-6.037 0.848-8.823h-0.158c-3.437 1-7.264 1.63-11.511 1.83m-19.411 12.74c5.374 0.073 10.279-0.311 14.811-1.079 0.763-4.171 1.847-8.023 3.221-11.587-4.347 0.055-8.242-0.351-11.968-0.916-2.417 4.14-4.438 8.66-6.064 13.59m-18.642 5.75c-1.353-3.006-2.053-7.037-1.69-11.509-1.958-1.676-3.684-3.579-5.142-5.758 0.379 5.348-0.726 9.795-2.689 13.045 4.026 0.52 6.936 2.54 9.521 4.23m57.7-15.19c-2.395 1.621-4.821 3.216-7.595 4.45 0.026 5.523 0.758 10.34 1.995 14.66 3.195-2.41 6.311-4.895 8.895-7.905-1.521-3.31-2.463-7.2-3.295-11.2m18.796 8.44c3.353 3.582 7.337 6.529 11.748 9.056 0.516-3.632 1-7.694 0.763-11.821-3.826-1.519-7.126-3.565-10.358-5.679-0.5 3.03-1.19 5.87-2.153 8.44m-14.038 3.23c1.642 3.647 3.532 7.047 5.679 10.2 2.896-3.695 5.011-8.18 6.905-12.89-2.006-2.216-3.938-4.506-5.684-6.979-1.894 3.62-4.347 6.69-6.9 9.67m-63.001-6.83c-0.321 6.918 2.126 11.75 5.069 15.571 2.953 3.853 6.716 7.252 12.121 8.595-1.647-5.158-1.468-13.379 0.153-18.416-7.432-0.343-12.595-2.953-17.343-5.981v0.24zm130.45 16.34c1.605-1.216 3.358-2.658 4.448-4.374 0.921-1.442 1.526-3.432 2-5.369 0.489-2.016 0.726-4.263 0.61-6.752 0-0.051-0.016-0.093-0.079-0.076-3.626 2.586-8.021 4.396-13.042 5.597 1.073 3.874 1.384 9.821 0.458 14.122 2.06-0.71 3.91-1.88 5.6-3.15m-81.108-16.12c-4.242 1.972-9.021 3.411-14.274 4.377-0.911 5.685-1.495 12.989-0.769 19.332 6.416-2.306 12.1-5.343 17.189-8.975-1.241-4.39-1.91-9.35-2.146-14.74m40.588 13.13c4.131 2.416 8.652 4.438 13.579 6.059 0.073-5.369-0.306-10.279-1.074-14.806-4.168-0.766-8.021-1.851-11.584-3.224 0.05 4.35-0.37 8.23-0.93 11.97m-71.205-7.52c-1.953 4.968-1.884 13.568-0.158 18.721 4.274 1.101 10.495 0.816 14.511-0.3-0.563-4.694-0.342-10.716 0.147-15.353 0.153-1.447 0.489-2.784 0.384-4.068-4.526 0.77-9.515 1.07-14.884 1m85.095-1c0.536 4.479 1.068 9.626 0.921 15.042 4.969 1.947 13.563 1.874 18.721 0.147 1.105-4.264 0.811-10.484-0.305-14.495-6.3 0.7-13.62 0.19-19.33-0.69m-34.299 13.43c3.879 5.221 8.1 10.115 13.121 14.194 2.61-5.479 4.59-11.584 5.832-18.416-4.374-2.61-8.348-5.621-11.969-8.979-1.796 4.94-4.265 9.2-6.98 13.21m-7.443-10.44c-2.795 2.89-6.011 5.353-9.132 7.905 1.4 4.916 3.232 9.4 5.216 13.737 3.674-3.358 6.916-7.153 9.821-11.274-2.268-3.16-4.183-6.67-5.905-10.37m27.542 6.91c-1.29 6.837-3.332 12.933-5.905 18.49 3.747 2.421 7.983 4.348 13.273 5.221 3.652-4.437 6-10.205 6.521-17.647-4.97-1.67-9.49-3.8-13.88-6.06m-55.089 10.43c1.126 5.289 3 9.831 5.984 13.273 7.011-1.278 12.605-3.974 16.727-8.137-2.1-4.315-3.974-8.863-5.369-13.885h-0.153c-5.231 3.44-10.737 6.57-17.189 8.76m90.009-4.22c-0.879 3.669-2.663 6.848-4.679 9.285-0.316 0.384-0.727 0.789-0.689 1.073 2.726-0.989 6.747-1.489 10.2-0.842-0.869-4.863 0.373-9.653 1.921-13.048-0.006-0.042-0.011-0.09-0.074-0.079-1.89 1.56-4.16 2.72-6.68 3.62m-55.788-1.53c-1.558 2.1-3.195 4.031-4.905 5.989-1.621 1.842-3.39 3.579-4.995 5.447 3.137 5.637 7.421 10.121 13.201 13.116 4.074-2.7 7.395-6.158 9.9-10.432-5.04-4.08-9.235-8.99-13.198-14.13m-60.622 11.05c4.863-0.874 9.653 0.368 13.048 1.915-1.242-1.879-2.711-4.194-3.526-6.747-4.232-1.073-7.558-3.042-10.364-5.531 0.926 2.84 1.532 6.82 0.842 10.36m96.61-9.21c-0.095 0.011-0.084 0.126-0.079 0.231-0.421 7.284-2.974 12.422-5.984 17.116 6.984 0.306 11.932-2.021 15.806-4.995 3.853-2.947 7.205-6.837 8.595-12.194-5.13 1.62-13.36 1.49-18.35-0.16m-71.057 6.06c-0.189-0.722-0.111-1.916-0.763-1.769-3.927 0.895-9.432 1.39-13.816 0.384 0.706 2.074 1.879 3.922 3.147 5.605 1.221 1.61 2.658 3.358 4.379 4.453 1.442 0.921 3.426 1.516 5.368 1.989 2.037 0.505 4.3 0.731 6.827 0.621-2.037-2.98-4.031-7.09-5.142-11.27m24.174 4.3c-4.316 3.82-9.589 6.684-16.5 7.905 2.842 3.663 7.189 6.137 12.737 7.363 5.753 1.278 12.563 0.589 16.58-2.143-5.437-3.22-9.78-7.53-12.817-13.13m25.243 2.68c-2.669 4.037-5.774 7.627-9.743 10.369 3.295 1.247 7.664 2.652 12.201 1.758 2.105-0.41 4.273-1.627 5.984-2.764 1.811-1.205 3.505-2.631 4.6-4.142-5.22-0.86-9.33-2.84-13.04-5.23m14.66 5.45c-1.679 1.952-3.579 3.685-5.753 5.137 5.342-0.452 9.89 0.879 13.042 2.61 0.532-3.968 2.526-6.884 4.222-9.437-3.01 1.36-7.04 2.06-11.51 1.69m-58.393 10.67c2.637-1.853 5.958-3.042 9.816-3.685-2.905-1.179-5.316-2.789-7.442-4.905-0.521-0.526-1.569-1.941-2.069-2.073-0.247-0.068-0.679 0.063-0.921 0.073-1.979 0.095-4.974-0.053-6.605-0.536 3.137 2.98 6.048 6.18 7.221 11.13m32.685-4.99c-3.021 1.868-6.706 3.073-11.206 3.458 3.174 1.657 5.942 3.731 7.832 6.674 1.358-1.779 2.862-3.274 4.679-4.605 1.805-1.315 3.816-2.4 6.064-3.295-2.805-0.39-5.209-1.18-7.368-2.22" fill-rule="evenodd"/>
</svg>
