<?xml version="1.0" encoding="utf-8"?>
<!-- Generator: Adobe Illustrator 16.0.0, SVG Export Plug-In . SVG Version: 6.00 Build 0)  -->
<!DOCTYPE svg PUBLIC "-//W3C//DTD SVG 1.1//EN" "http://www.w3.org/Graphics/SVG/1.1/DTD/svg11.dtd">
<svg version="1.1" id="spiritual" xmlns="http://www.w3.org/2000/svg" xmlns:xlink="http://www.w3.org/1999/xlink" x="0px" y="0px"
	 width="180px" height="180px" viewBox="0 0 180 180" enable-background="new 0 0 180 180" xml:space="preserve">
<path fill-rule="evenodd" clip-rule="evenodd" fill="#085EAA" d="M89.01,176.997h-0.223c-4.833-0.155-8.266-1.721-11.117-3.857
	c-3.484,1.711-8.98,1.535-12.625,0.301c-3.723-1.255-6.539-3.63-8.69-6.191c-10.282,0.529-15.752-4.406-18.899-11.262
	c-8.716-1.648-13.854-6.864-15.42-15.658c-5.818-2.894-10.37-7.487-10.961-15.493c-0.042-0.558-0.093-1.159-0.078-1.812
	c0.016-0.508,0.254-1.233,0.156-1.736c-0.12-0.584-1.369-1.333-1.893-1.891c-1.794-1.921-3.241-4.15-4.159-7.033
	c-1.255-3.92-1.188-8.931,0.529-12.548C3.685,96.923,2.135,93.641,2,88.932v-0.228c0.067-4.869,1.939-8.343,3.78-11.189
	c-1.571-3.72-1.535-8.84-0.228-12.625c0.975-2.802,2.489-4.98,4.314-6.8c0.493-0.495,1.778-1.423,1.887-1.89
	c0.12-0.511-0.078-1.281-0.078-1.812c0-9.009,5.086-14.116,11.34-17.009c1.664-8.724,6.859-13.906,15.721-15.42
	c3.168-6.753,8.944-11.664,19.128-10.889c2.125-2.538,5.04-4.848,8.768-6.048c3.765-1.206,9.115-1.195,12.553,0.531
	c0.104,0.005,0.166-0.036,0.223-0.075C82.098,3.395,85.899,2,90.519,2c4.688,0,8.239,1.82,10.889,3.78
	c1.996-0.819,4.033-1.252,6.346-1.286c5.844-0.088,10.35,2.411,13.232,5.289c0.514,0.511,1.26,1.758,1.809,1.89
	c0.514,0.122,1.281-0.075,1.82-0.075c9.006,0,14.104,5.076,17.008,11.342c8.727,1.656,13.895,6.859,15.42,15.721
	c3.594,1.465,6.258,3.961,8.166,6.956c1.752,2.755,3.014,5.921,2.873,10.354c-0.016,0.508-0.266,1.293-0.156,1.739
	c0.131,0.506,1.4,1.286,1.893,1.817c0.586,0.622,1.225,1.439,1.66,2.038c2.918,4.003,4.811,11.83,1.971,17.539
	c2.016,2.833,3.551,6.515,3.551,11.267c0,4.768-1.918,8.314-3.701,11.031c1.648,3.765,1.457,8.804,0.15,12.625
	c-0.965,2.815-2.402,5.04-4.236,6.878c-0.529,0.532-1.773,1.294-1.889,1.891c-0.104,0.523,0.078,1.213,0.078,1.739
	c0,9.001-5.082,14.113-11.34,17.007c-1.648,8.711-6.854,13.854-15.648,15.42c-1.586,3.475-3.939,6.232-6.953,8.172
	c-2.738,1.742-6.086,2.986-10.359,2.862c-0.545-0.011-1.354-0.259-1.809-0.146c-0.51,0.125-1.287,1.4-1.82,1.888
	c-4.164,3.879-12.361,6.927-19.574,3.702c-1.463,0.757-2.904,1.763-4.688,2.427C93.396,176.53,91.369,176.884,89.01,176.997
	 M88.704,3.211c-3.219,0.233-6.066,1.561-8.083,2.945c4.848,2.639,8.213,6.753,9.598,12.851c1.43-6.082,4.926-10.09,9.825-12.701
	C97.379,4.416,93.438,2.861,88.704,3.211 M59.377,11.369c6.165,1.346,9.976,5.045,12.625,9.904
	c-0.254-7.259,2.666-11.34,6.119-14.889C70.945,3.688,62.561,6.783,59.377,11.369 M102.543,6.607
	c0.68,0.905,1.504,1.662,2.193,2.572c2.287,3.01,3.951,7.282,3.697,12.397c2.613-4.848,6.627-8.293,12.703-9.675
	C118.244,7.437,109.646,3.996,102.543,6.607 M73.211,18.784c-0.12,1.734-0.192,3.969,0.223,5.665
	c0.213,0.858,0.814,1.784,1.213,2.722c4.34,10.253,8.089,20.937,10.883,32.66c1.177,4.926,2.323,10.741,1.665,16.097
	c0.404,0.425,0.736,0.928,1.364,1.135c0.229-0.43,0.596-0.71,0.752-1.21c-1.862-5.696-2.479-12.976-2.417-20.18
	c0.093-10.8,1.053-21.684,2.417-31.224c0.094-0.643,0.306-1.418,0.301-1.965c-0.006-0.78-0.348-1.784-0.523-2.645
	c-1.302-6.237-4.724-10.634-9.603-12.848C76.447,9.57,73.574,13.467,73.211,18.784 M91.961,17.342
	c-0.457,1.387-1.147,3.643-1.136,5.216c0.005,0.964,0.3,2.09,0.457,3.173c0.436,3.197,0.85,6.494,1.131,9.828
	c1.109,13.105,2.213,29.293-1.587,40.293c0.222,0.505,0.529,0.931,0.835,1.361c0.559-0.187,0.85-0.658,1.279-0.982
	c-0.543-5.644,0.664-10.958,1.816-15.949c2.727-11.814,6.559-22.646,10.961-32.808c0.414-0.962,1.016-1.926,1.213-2.797
	c0.348-1.579,0.326-3.09,0.301-4.609c-0.115-5.706-2.754-9.986-5.973-12.854h-0.156C96.814,9.29,93.541,12.502,91.961,17.342
	 M40.177,21.804c6.73-0.166,11.081,2.548,14.212,5.818c0.129,0.14,0.244,0.484,0.523,0.383c-1.955-5.268-0.415-12.322,2.121-15.801
	C48.147,11.838,43.154,16.01,40.177,21.804 M55.675,26.338c0.312,1.359,0.851,3.282,1.431,4.384
	c0.436,0.824,1.296,1.716,1.965,2.572c0.674,0.858,1.348,1.734,1.965,2.569c6.45,8.685,12.916,17.788,17.919,27.743
	c2.059,4.104,4.107,8.436,4.838,13.458c0.529,0.182,1.079,0.724,1.586,0.68c0.109-0.529,0.353-0.721,0.378-1.208
	c0.031-0.526-0.86-1.716-1.358-2.572c-1.509-2.59-2.722-5.659-3.707-8.542c-3.791-11.161-6.326-23.727-8.011-36.889
	c-0.161-1.234-0.166-2.566-0.451-3.702c-0.353-1.369-1.317-3.031-2.121-4.386c-2.308-3.912-6.746-7.283-11.641-8.011
	C55.924,15.803,54.416,20.938,55.675,26.338 M125.367,28.685c3.359-3.271,7.674-6.245,14.818-5.973
	c-3.002-5.872-7.715-10.025-16.705-9.901C126.021,16.383,127.301,23.487,125.367,28.685 M96.191,77.59
	c0.969-4.825,2.82-9.227,4.992-13.299c5.797-10.912,12.559-21.132,19.881-30.392c0.715-0.908,1.586-1.683,2.037-2.569
	c1.924-3.785,2.711-9.553,1.062-14.215c-0.332-0.917-1.441-4.034-2.422-4.075c-0.135-0.011-0.18,0.046-0.305,0.072
	c-6.756,1.488-10.967,6.004-13.377,12.017c-0.93,9.642-2.732,18.907-4.838,27.896c-1.773,7.555-3.863,15.33-7.41,21.243
	c-0.461,0.77-1.523,1.991-1.508,2.644c0.004,0.386,0.383,0.817,0.451,1.286C95.357,78.116,95.709,77.787,96.191,77.59
	 M39.498,23.243c-2.032,4.809-0.798,10.746,1.208,14.362c0.7,1.268,1.54,2.712,2.344,3.552c0.71,0.736,1.815,1.278,2.717,1.965
	c6.253,4.734,12.413,9.896,17.919,15.195c5.594,5.39,11.485,10.666,15.576,17.536c0.529,0.895,1.151,2.756,1.659,3.103
	c0.399,0.265,0.918,0.179,1.514,0.376c0.026-0.531,0.249-0.834,0.15-1.366c-0.13-0.674-1.582-1.521-2.271-2.266
	c-2.24-2.406-4.247-5.118-5.973-7.71c-6.658-9.986-12.138-21.492-16.929-33.109c-0.451-1.094-0.757-2.315-1.286-3.324
	c-0.606-1.153-1.913-2.325-2.873-3.329c-3.054-3.171-7.472-5.48-13.533-5.213C39.612,23.057,39.54,23.132,39.498,23.243
	 M24.301,36.846c5.476-1.807,12.423-0.345,15.876,2.346c-2.229-3.09-3.619-9.048-2.494-14.064c0.145-0.669,0.461-1.281,0.373-1.885
	C30.616,24.92,26.007,29.429,24.301,36.846 M126.658,29.211c-0.861,0.861-2.068,2.022-2.572,2.95
	c-0.523,0.952-0.85,2.173-1.291,3.251c-3.137,7.682-6.465,14.749-10.275,21.77c-3.688,6.79-7.529,13.909-12.85,19.125
	c-0.803,0.786-2.156,1.644-2.266,2.346c-0.078,0.457,0.109,0.659,0.072,1.283c0.613,0.034,1.084-0.078,1.514-0.228
	c4.355-8.293,10.703-14.238,17.309-20.483c5.684-5.375,11.707-10.391,17.992-15.122c0.908-0.685,2.074-1.338,2.723-2.038
	c0.812-0.887,1.602-2.362,2.344-3.632c2.156-3.689,3.426-9.476,1.357-14.435C134.229,23.518,129.889,25.983,126.658,29.211
	 M139.809,40.1c3.535-2.559,10.748-3.972,15.949-1.97c-1.592-7.576-6.166-12.174-13.605-13.904
	C143.961,29.693,142.494,36.644,139.809,40.1 M88.098,55.748c0.035,6.536,0.315,12.96,2.047,18.29
	c2.039-6.551,2.277-15.062,1.966-23.431c-0.312-8.268-0.83-16.411-1.893-23.665c-0.005-0.042-0.011-0.09-0.073-0.072
	C89.104,35.565,88.061,45.845,88.098,55.748 M75.934,41.458c0.721,4.073,1.618,8.078,2.566,11.869
	c1.82,7.22,3.692,14.461,6.958,20.107c0.212,0.366,0.409,0.964,0.679,0.833c0.052-9.126-2.292-16.826-4.537-24.116
	c-2.261-7.353-4.672-14.347-7.56-21.243c-0.005-0.042-0.011-0.085-0.073-0.075C74.435,33.038,75.187,37.271,75.934,41.458
	 M98.607,50.527c-2.199,7.285-4.428,15.075-4.609,24.115c0.68-0.466,0.99-1.327,1.359-2.038c0.424-0.801,0.84-1.592,1.213-2.421
	c5.23-11.718,7.512-26.436,9.824-40.894c-0.004-0.047-0.01-0.088-0.072-0.078C103.502,36.193,100.842,43.138,98.607,50.527
	 M69.276,56.959c3.546,6.439,7.171,13.061,12.097,17.987c0.321,0.319,0.632,0.876,0.985,0.754
	c-2.188-8.283-6.269-15.122-10.282-21.694c-4.034-6.606-8.498-12.823-13.149-18.897c-0.005-0.046-0.01-0.091-0.078-0.075
	C61.887,42.469,65.434,49.969,69.276,56.959 M108.211,54.537c-4.076,6.578-8.178,13.468-10.506,21.694
	c0.467,0.096,0.715-0.425,0.98-0.679c2.379-2.331,4.422-5.086,6.273-7.863c6.461-9.686,11.635-20.877,16.406-32.048
	c0.041,0,0.082-0.065,0-0.081C116.719,41.676,112.301,47.926,108.211,54.537 M79.786,80.011C71.625,75.7,65.553,69.356,59.3,62.776
	c-5.372-5.665-10.401-11.739-15.042-17.995c-0.668-0.897-1.333-2.022-2.042-2.717c-0.648-0.638-1.737-1.211-2.645-1.815
	c-3.712-2.476-10.5-4.26-15.498-1.965c-0.487,5.989,1.825,10.671,4.843,13.684c0.97,0.975,2.204,2.336,3.324,2.945
	c0.949,0.521,2.188,0.851,3.251,1.286c7.581,3.101,14.891,6.546,21.767,10.279c6.85,3.72,13.875,7.49,19.133,12.854
	c0.695,0.705,1.669,2.16,2.338,2.266c0.487,0.08,0.721-0.127,1.286-0.073C80.045,80.908,79.941,80.442,79.786,80.011 M142.68,40.022
	c-1.602,0.772-3.67,1.83-4.838,2.95c-0.746,0.718-1.279,1.822-1.959,2.719c-7.43,9.813-15.732,19.086-24.65,27.292
	c-3.303,3.031-6.9,5.859-11.189,7.708c-0.129,0.547-0.273,1.089-0.373,1.662c0.551,0.01,0.949,0.309,1.514,0.155
	c0.529-0.145,1.494-1.706,2.189-2.343c2.41-2.23,5.111-4.167,7.709-5.898c9.992-6.658,21.441-12.094,33.111-16.932
	c1.121-0.466,2.359-0.759,3.324-1.286c0.545-0.295,1.09-0.938,1.664-1.439c3.854-3.334,7.229-7.848,6.803-15.042
	C151.951,37.663,146.377,38.241,142.68,40.022 M22.714,38.816c-5.781,3.057-9.971,7.713-9.826,16.704
	c3.572-2.543,10.681-3.819,15.871-1.893C25.431,50.309,22.6,45.824,22.714,38.816 M150.92,54.841
	c5.299-1.944,12.377-0.449,15.875,2.118c0.369-8.89-3.811-13.88-9.602-16.859C157.354,47.263,154.43,51.346,150.92,54.841
	 M61.12,62.924c5.429,5.55,10.873,11.407,17.915,15.197c-3.785-7.184-9.639-12.542-15.197-17.995
	C58.252,54.654,52.103,49.64,45.85,44.862c0-0.042-0.067-0.091-0.083,0C50.682,50.973,55.619,57.319,61.12,62.924 M116.07,61.037
	c-5.543,5.437-11.406,10.878-15.191,17.919c7.182-3.782,12.543-9.639,17.992-15.197c5.475-5.589,10.484-11.733,15.27-17.995
	c0.041,0,0.082-0.057,0-0.073C128.027,50.607,121.682,55.541,116.07,61.037 M77.593,82.736c-4.905-0.83-9.198-2.836-13.227-4.993
	c-10.847-5.802-21.119-12.48-30.39-19.802c-0.892-0.713-1.685-1.595-2.572-2.045c-3.966-2.022-9.903-2.691-14.435-0.983
	c-0.798,0.304-3.65,1.403-3.853,2.118c-0.145,0.49,0.384,1.991,0.602,2.645c1.934,5.846,6.29,8.983,11.49,11.262
	c9.665,0.941,18.889,2.73,27.896,4.843c7.493,1.752,15.322,3.785,21.238,7.332c0.788,0.467,1.913,1.571,2.572,1.587
	c0.446,0.008,0.866-0.376,1.363-0.457C78.173,83.618,77.857,83.198,77.593,82.736 M151.604,55.896
	c-1.119,0.334-2.406,0.648-3.324,1.135c-0.828,0.436-1.586,1.312-2.42,1.965c-9.168,7.158-18.838,13.649-29.404,19.278
	c-4.428,2.354-8.955,4.641-14.445,5.364c-0.244,0.519-0.773,1.13-0.752,1.667c1.498,1.04,2.379-0.249,3.779-1.063
	c2.561-1.48,5.775-2.761,8.545-3.699c11.205-3.819,23.809-6.287,36.965-7.938c1.201-0.153,2.514-0.176,3.623-0.456
	c1.426-0.36,3.033-1.317,4.387-2.113c4.029-2.385,7.082-6.52,8.012-11.57C163.348,55.541,156.924,54.304,151.604,55.896
	 M54.612,70.79c6.585,4.07,13.471,8.177,21.694,10.507c0.099-0.469-0.42-0.724-0.679-0.983c-2.328-2.38-5.081-4.422-7.855-6.276
	c-9.686-6.455-20.88-11.632-32.054-16.4c0-0.044-0.067-0.091-0.078,0C41.759,62.278,48.001,66.696,54.612,70.79 M6.692,76.459
	c0.897-0.689,1.654-1.503,2.567-2.193c3.012-2.29,7.28-3.951,12.397-3.705c-4.915-2.598-8.28-6.738-9.753-12.776
	C7.595,61.236,4.017,68.739,6.692,76.459 M121.971,69.201c-6.398,3.552-13.008,7.184-17.914,12.097
	c-0.332,0.329-0.881,0.635-0.762,0.982c8.291-2.193,15.129-6.266,21.693-10.279c6.596-4.031,12.766-8.517,18.906-13.079
	c-0.012-0.083,0.107-0.117,0-0.153C136.531,61.9,128.977,65.309,121.971,69.201 M157.723,71.925
	c7.264-0.259,11.344,2.67,14.896,6.121c2.852-7.028-0.607-15.752-4.994-18.747C166.283,65.465,162.586,69.276,157.723,71.925
	 M76.307,86.06c-5.636,0.542-10.894-0.648-15.949-1.817c-11.791-2.717-22.653-6.566-32.806-10.958c-0.97-0.42-1.918-1.014-2.8-1.21
	c-1.447-0.324-3.791-0.366-5.138-0.304c-5.714,0.272-9.551,2.805-12.32,6.196c2.095,4.159,5.289,7.498,10.054,9.077
	c1.447,0.477,3.738,1.141,5.294,1.135c0.97-0.005,2.089-0.309,3.173-0.456c3.188-0.441,6.502-0.851,9.826-1.133
	c13.051-1.109,29.508-2.201,40.293,1.589c0.508-0.228,0.933-0.531,1.358-0.835C77.09,86.791,76.639,86.49,76.307,86.06
	 M50.61,80.387c7.285,2.199,15.073,4.428,24.11,4.615c-0.461-0.685-1.328-0.988-2.038-1.364c-0.798-0.42-1.586-0.84-2.416-1.206
	c-11.723-5.239-26.444-7.518-40.899-9.828c-0.047,0.005-0.088,0.01-0.073,0.075C36.268,75.498,43.221,78.158,50.61,80.387
	 M156.971,73.131c-0.566,0.026-1.664,0.042-2.422,0.228c-0.85,0.208-1.789,0.817-2.717,1.211
	c-10.271,4.348-20.938,8.091-32.66,10.883c-5.025,1.2-10.766,2.32-16.1,1.662c-0.426,0.41-0.928,0.739-1.137,1.366
	c0.404,0.27,0.811,0.544,1.215,0.827c7.543-2.675,17.021-2.569,26.604-2.341c8.178,0.197,16.182,0.961,23.582,2.038
	c1.1,0.161,2.229,0.537,3.178,0.531c0.789-0.01,1.779-0.35,2.65-0.531c6.33-1.317,10.406-4.591,12.848-9.525
	C168.803,75.451,164.168,72.791,156.971,73.131 M125.367,78.425c-7.094,1.789-14.279,3.754-19.807,6.956
	c-0.357,0.205-0.965,0.412-0.824,0.679c9.094-0.01,16.811-2.224,24.109-4.461c7.322-2.24,14.266-4.757,21.094-7.635
	c0.176,0.065,0.348-0.106,0.072-0.072C141.717,75.047,133.229,76.444,125.367,78.425 M89.694,77.67
	c0.255,0.021,0.432,0.117,0.752,0.073c-0.088-0.265-0.166-0.54-0.451-0.604C89.913,77.336,89.72,77.421,89.694,77.67 M86.594,78.046
	c0.27-0.031,0.503-0.101,0.752-0.153c-0.031-0.319-0.368-0.334-0.529-0.526C86.729,77.58,86.651,77.797,86.594,78.046
	 M92.713,78.122c0.264,0.067,0.467,0.187,0.756,0.228c-0.062-0.259-0.041-0.612-0.305-0.679
	C93.018,77.818,92.811,77.914,92.713,78.122 M83.721,79.179c0.259-0.119,0.622-0.135,0.679-0.454
	c-0.264-0.01-0.342-0.218-0.606-0.228C83.789,78.749,83.669,78.876,83.721,79.179 M93.998,79.56
	c-0.461-0.147-0.939-0.015-1.359-0.153c-0.502-0.166-0.75-0.464-1.285-0.682c-0.798,0.389-1.939,0.166-2.722-0.073
	c-0.445,0.189-1.213,0.562-1.893,0.604c-0.187,0.011-0.544-0.127-0.751-0.078c-0.679,0.168-1.467,1.538-2.65,1.283
	c-0.477,0.908-1.141,1.631-2.188,1.97c0.223,1.19-1.244,1.698-1.514,2.569c-0.14,0.456-0.015,0.936-0.15,1.358
	c-0.161,0.506-0.462,0.754-0.68,1.286c0.379,0.824,0.187,2.071-0.15,2.797c0.492,0.552,0.824,1.63,0.606,2.644
	c0.602,0.68,1.234,1.332,1.281,2.569c0.902,0.484,1.628,1.148,1.965,2.193c1.198-0.223,1.706,1.244,2.572,1.514
	c0.461,0.143,0.938,0.016,1.359,0.148c0.503,0.165,0.751,0.464,1.286,0.682c0.824-0.384,2.074-0.187,2.795,0.152
	c0.637-0.86,1.711-0.394,2.571-0.606c0.68-0.168,1.463-1.537,2.645-1.283c0.482-0.902,1.146-1.631,2.193-1.965
	c-0.223-1.195,1.244-1.703,1.514-2.569c0.141-0.462,0.016-0.94,0.156-1.366c0.156-0.503,0.457-0.752,0.68-1.283
	c-0.385-0.825-0.191-2.072,0.145-2.792c-0.855-0.638-0.395-1.711-0.605-2.577c-0.162-0.679-1.531-1.455-1.281-2.645
	c-0.902-0.482-1.633-1.141-1.965-2.19C95.371,81.292,94.863,79.83,93.998,79.56 M3.213,88.782c0,3.744,1.312,7.159,3.018,9.6
	c2.639-4.848,6.756-8.218,12.859-9.6c-6.087-1.428-10.095-4.926-12.703-9.826C4.691,81.344,3.213,84.966,3.213,88.782
	 M95.584,79.332c0.213,0.138,0.373,0.334,0.68,0.376c-0.062-0.238,0.037-0.638-0.229-0.679
	C95.943,79.185,95.615,79.109,95.584,79.332 M81.222,80.994c0.275-0.106,0.539-0.218,0.606-0.532
	c-0.212-0.065-0.466-0.085-0.679-0.148C81.087,80.621,81.264,80.701,81.222,80.994 M159.992,90.143
	c6.082,1.423,10.092,4.925,12.699,9.828c1.426-2.104,2.873-5.055,3.1-8.469c0.301-4.504-1.072-8.268-2.871-10.887
	c-0.006-0.046-0.012-0.088-0.072-0.072C170.207,85.391,166.09,88.756,159.992,90.143 M98.006,81.142
	c0.109,0.277,0.213,0.542,0.529,0.607c0.062-0.213,0.088-0.464,0.15-0.679C98.375,81.009,98.301,81.186,98.006,81.142
	 M79.106,82.809c0.073,0.228,0.088,0.516,0.301,0.607c0.146-0.213,0.342-0.374,0.378-0.679
	C79.496,82.692,79.417,82.868,79.106,82.809 M100.277,84.317c0.01-0.264,0.213-0.334,0.229-0.601
	c-0.26-0.005-0.385-0.127-0.689-0.078C99.936,83.903,99.951,84.266,100.277,84.317 M77.748,85.681
	c0.042,0.309,0.249,0.457,0.451,0.607c0.067-0.262,0.192-0.472,0.228-0.76C78.122,85.507,78.049,85.702,77.748,85.681
	 M101.102,87.271c0.322-0.039,0.342-0.374,0.533-0.532c-0.264-0.042-0.404-0.202-0.678-0.228
	C100.988,86.786,101.049,87.019,101.102,87.271 M51.061,86.892c-8.437,0.389-16.836,0.684-24.116,1.965
	c7.332,1.089,15.425,1.491,23.737,1.89c8.244,0.394,16.872,0.127,23.437-1.89C67.663,86.897,59.294,86.506,51.061,86.892
	 M122.271,88.098c-6.217,0.293-12.402,0.09-17.312,1.97c6.574,2.058,15.109,2.255,23.51,1.965
	c8.264-0.288,16.514-0.814,23.664-1.965C143.033,89.187,132.527,87.621,122.271,88.098 M77.214,88.857
	c0.047,0.288,0.301,0.36,0.534,0.451c-0.026-0.202,0.27-0.715-0.078-0.754C77.551,88.681,77.385,88.777,77.214,88.857
	 M75.934,89.611c-5.776,2.053-12.9,2.494-20.108,2.494c-10.126,0-20.289-0.934-29.176-2.118c-1.302-0.168-3.319-0.664-4.236-0.526
	C15.009,90.54,9.767,93.63,7.066,99.439c2.587,3.168,6.481,6.015,11.868,6.35c1.805,0.111,4.076,0.143,5.595-0.229
	c0.855-0.207,1.784-0.812,2.717-1.211c10.313-4.363,20.906-8.081,32.66-10.883c4.978-1.186,10.733-2.32,16.1-1.662
	c0.431-0.41,0.928-0.738,1.136-1.361C76.737,90.169,76.333,89.892,75.934,89.611 M101.258,90.371
	c0.285-0.023,0.367-0.241,0.605-0.303c-0.041-0.293-0.301-0.36-0.533-0.457C101.309,89.866,101.211,90.047,101.258,90.371
	 M161.73,91.877c-1.457-0.482-3.738-1.14-5.295-1.13c-0.969,0.005-2.09,0.304-3.172,0.451c-7.426,1.019-15.406,1.742-23.432,2.046
	c-9.623,0.354-19.201,0.199-26.537-2.497c-0.436,0.091-1.229,0.478-1.514,0.982c0.316,0.392,0.648,0.76,0.99,1.13
	c5.559-0.471,11.002,0.602,15.949,1.742c4.344,0.999,8.473,2.315,12.396,3.552c7.041,2.215,13.979,4.701,20.408,7.482
	c0.949,0.412,1.924,1.014,2.795,1.211c1.561,0.35,3.133,0.334,4.615,0.301c5.734-0.111,10.215-2.732,12.848-6.196
	C169.689,96.795,166.496,93.453,161.73,91.877 M77.442,92.181c0.212,0.091,0.436,0.171,0.679,0.228
	c-0.093-0.254,0.021-0.721-0.301-0.754C77.717,91.852,77.567,91.999,77.442,92.181 M100.65,93.392
	c0.307,0.021,0.379-0.177,0.68-0.147c-0.041-0.314-0.25-0.459-0.451-0.607C100.811,92.894,100.691,93.104,100.65,93.392
	 M71.469,92.859c-8.265,0.485-15.628,2.704-22.529,4.844c-6.963,2.154-13.584,4.666-20.024,7.331
	c8.358-1.141,16.696-2.499,24.494-4.459c7.067-1.783,14.492-3.785,20.107-7.03c0.358-0.211,0.97-0.424,0.825-0.686
	C73.382,92.697,72.397,92.809,71.469,92.859 M65.123,98.457c-11.018,3.699-23.561,6.201-36.435,7.858
	c-1.239,0.163-2.546,0.121-3.708,0.381c-0.669,0.15-1.441,0.689-2.193,1.058c-5.107,2.504-9.354,6.577-10.276,12.773
	c2.162,1.631,5.055,2.859,8.54,3.176c2.753,0.249,5.559-0.368,7.638-1.058c0.762-0.254,1.669-0.472,2.193-0.757
	c0.788-0.431,1.597-1.317,2.416-1.966c9.11-7.188,18.775-13.657,29.327-19.272c4.407-2.344,8.913-4.63,14.445-5.369
	c0.301-0.5,0.555-1.05,0.824-1.586c-0.498-0.208-0.949-0.465-1.586-0.532C73.19,95.489,69.276,97.06,65.123,98.457 M128.623,98.604
	c-7.352-2.271-14.979-4.454-24.193-4.682c-0.082,0.016-0.113,0.085-0.15,0.147c0.078,0,0.088,0.064,0.15,0.076
	c2.904,1.905,6.332,3.253,9.977,4.458c10.764,3.562,23.203,6.149,35.377,7.636C142.873,103.383,135.949,100.873,128.623,98.604
	 M114.713,101.18c11.375,6.084,21.943,13.014,31.52,20.786c1.15,0.923,1.881,1.275,3.479,1.815
	c3.879,1.293,8.467,1.708,12.398,0.228c0.809-0.306,3.65-1.399,3.857-2.12c0.139-0.49-0.389-1.991-0.607-2.645
	c-1.934-5.847-6.289-8.986-11.49-11.262c-9.742-0.957-18.625-2.665-27.816-4.838c-7.695-1.82-15.307-3.77-21.244-7.331
	c-0.803-0.482-1.908-1.471-2.572-1.587c-0.383-0.07-1.176,0.34-1.436,0.604c0.197,0.482,0.41,0.952,0.684,1.358
	C106.385,97.019,110.684,99.02,114.713,101.18 M78.573,95.206c0.254,0,0.378,0.13,0.689,0.075c-0.119-0.26-0.135-0.619-0.457-0.68
	C78.791,94.867,78.593,94.941,78.573,95.206 M99.291,96.188c0.291,0.039,0.369-0.137,0.68-0.072
	c-0.072-0.236-0.088-0.516-0.301-0.607C99.525,95.722,99.328,95.875,99.291,96.188 M67.772,104.882
	c-3.697,2.473-7.477,4.565-11.417,6.652c-6.912,3.663-14.124,7.007-21.543,10.051c-1.079,0.443-2.308,0.77-3.251,1.288
	c-0.555,0.296-1.1,0.949-1.665,1.437c-3.868,3.347-7.228,7.827-6.803,15.045c4.77,2.198,10.811,1.036,14.513-0.985
	c1.291-0.705,2.779-1.598,3.63-2.416c0.747-0.727,1.275-1.815,1.965-2.728c7.451-9.85,15.716-19.073,24.645-27.289
	c3.277-3.01,6.86-5.833,11.189-7.707c0.129-0.548,0.275-1.084,0.373-1.662c-0.508-0.096-1.011-0.192-1.659-0.15
	C75.156,99.684,71.407,102.444,67.772,104.882 M64.065,101.255c-3.547,1.832-6.969,3.839-10.204,5.819
	c-6.409,3.923-12.683,8.148-18.298,12.698c-0.129,0.109-0.446,0.119-0.378,0.379c7.399-3.16,14.892-6.53,21.85-10.354
	c6.373-3.503,13.092-7.28,17.987-12.175c0.332-0.329,0.876-0.625,0.762-0.982C71.542,97.612,67.803,99.323,64.065,101.255
	 M80.393,97.851c0.311,0.06,0.384-0.117,0.679-0.072c-0.109-0.272-0.212-0.542-0.529-0.607
	C80.48,97.384,80.455,97.638,80.393,97.851 M150.162,126.951c-0.98-0.985-2.203-2.333-3.324-2.942
	c-0.938-0.519-2.166-0.84-3.25-1.286c-3.328-1.36-6.377-2.688-9.525-4.158c-8.551-3.987-16.291-7.871-23.736-12.851
	c-2.578-1.725-5.434-3.801-7.639-6.046c-0.668-0.688-1.633-2.253-2.266-2.347c-0.59-0.085-0.799,0.127-1.207,0.073
	c-0.379,0.323,0,1.153,0.076,1.514c8.281,4.368,14.254,10.691,20.486,17.312c5.357,5.693,10.391,11.706,15.115,17.99
	c0.689,0.912,1.338,2.073,2.043,2.727c0.887,0.81,2.363,1.598,3.629,2.334c3.691,2.167,9.473,3.432,14.441,1.358
	C155.549,134.802,153.117,129.907,150.162,126.951 M103.451,98.604c2.322,2.375,5.086,4.429,7.854,6.277
	c9.697,6.465,20.865,11.601,31.982,16.405c0.082-0.011,0.113,0.106,0.15,0c-6.119-4.646-12.361-9.063-18.973-13.157
	c-6.584-4.073-13.475-8.172-21.693-10.508C102.678,98.094,103.191,98.346,103.451,98.604 M97.25,98.457
	c0.211,0.062,0.465,0.083,0.678,0.147c-0.025-0.27,0.031-0.632-0.223-0.679C97.607,98.159,97.25,98.128,97.25,98.457
	 M52.046,150.087c1.021-1.026,2.344-2.219,2.95-3.328c0.519-0.954,0.835-2.157,1.286-3.257c1.348-3.298,2.707-6.408,4.148-9.52
	c3.972-8.514,7.86-16.273,12.859-23.734c1.706-2.559,3.759-5.393,6.046-7.635c0.601-0.589,2.204-1.576,2.343-2.267
	c0.078-0.383,0.052-1.241-0.306-1.358c-0.477-0.166-0.871,0.194-1.286,0.224c-4.366,8.283-10.686,14.256-17.308,20.488
	c-5.693,5.354-11.708,10.383-17.992,15.111c-0.908,0.685-2.074,1.338-2.722,2.043c-0.819,0.893-1.597,2.365-2.344,3.63
	c-2.157,3.691-3.433,9.479-1.358,14.436C44.154,155.479,49.101,153.021,52.046,150.087 M82.887,99.896
	c0.228-0.074,0.513-0.09,0.606-0.303c-0.212-0.143-0.374-0.34-0.679-0.381C82.767,99.502,82.943,99.582,82.887,99.896
	 M96.643,99.815c-0.166,0.34-0.156,0.851-0.15,1.364c6.404,5.799,10.785,13.317,15.041,21.315
	c3.688,6.914,7.072,14.235,10.133,21.619c0.461,1.119,0.752,2.354,1.285,3.328c0.295,0.54,0.943,1.089,1.436,1.659
	c3.33,3.848,7.887,7.321,15.047,6.73c2.283-4.78,0.955-10.806-1.062-14.435c-0.709-1.297-1.508-2.77-2.344-3.641
	c-0.715-0.746-1.814-1.275-2.721-1.96c-9.857-7.456-19.072-15.705-27.289-24.639c-3.014-3.277-5.84-6.86-7.705-11.188
	c-0.561-0.075-0.924-0.347-1.588-0.303C96.693,99.546,96.611,99.673,96.643,99.815 M94.678,100.194
	c0.264,0.01,0.342,0.215,0.605,0.228c-0.035-0.191,0.275-0.653-0.072-0.682C95.098,99.958,94.672,99.857,94.678,100.194
	 M60.207,115.161c-5.465,5.579-10.432,11.729-15.27,17.919c0.005,0.083-0.108,0.114,0,0.146c6.165-4.885,12.377-9.85,17.992-15.343
	c5.569-5.447,11.485-10.793,15.27-17.912C71.013,103.751,65.657,109.6,60.207,115.161 M85.759,101.255
	c0.312-0.042,0.457-0.249,0.607-0.457c-0.259-0.069-0.467-0.187-0.757-0.223C85.583,100.873,85.785,100.951,85.759,101.255
	 M82.736,101.478c-0.793,5.001-2.821,9.302-4.916,13.305c-2.084,4.006-4.376,7.785-6.725,11.484
	c-4.122,6.523-8.395,12.828-13.077,18.75c-0.7,0.881-1.592,1.689-2.043,2.571c-0.602,1.192-1.047,2.883-1.436,4.387
	c-1.089,4.272-0.353,8.949,1.358,12.174c0.275,0.509,0.871,1.639,1.208,1.732c0.42,0.124,1.882-0.343,2.645-0.602
	c4.127-1.358,7.072-3.962,9.074-7.259c0.783-1.286,1.893-3.018,2.193-4.387c0.249-1.131,0.223-2.406,0.378-3.619
	c1.058-8.431,2.645-16.385,4.459-24.121c1.752-7.469,3.806-15.343,7.332-21.24c0.928-1.54,2.359-2.468,0.985-3.931
	C83.649,100.936,83.135,101.148,82.736,101.478 M115.24,118.793c5.574,5.465,11.729,10.43,17.916,15.272
	c0.088-0.011,0.119,0.104,0.15,0c-4.881-6.17-9.852-12.385-15.344-17.997c-5.449-5.563-10.795-11.485-17.92-15.271
	C103.828,107.982,109.684,113.344,115.24,118.793 M11.452,119.62c1.343-6.165,5.04-9.977,9.904-12.621
	c-7.265,0.255-11.34-2.67-14.892-6.12C3.701,108.114,6.936,116.423,11.452,119.62 M91.732,101.026
	c0.031,0.318,0.367,0.334,0.529,0.531c0.088-0.213,0.166-0.436,0.223-0.679C92.215,100.904,91.98,100.972,91.732,101.026
	 M93.246,102.613c0.053,0.516,1.15,1.656,1.586,2.421c1.531,2.688,2.65,5.709,3.625,8.617c3.738,11.133,6.295,23.743,7.938,36.809
	c0.156,1.234,0.172,2.51,0.451,3.63c0.369,1.431,1.312,3.028,2.121,4.387c2.391,4.044,6.574,7.114,11.562,8.016
	c2.582-3.007,4.092-8.514,2.873-13.833c-0.357-1.566-0.834-3.329-1.432-4.47c-0.436-0.819-1.291-1.701-1.965-2.562
	c-7.32-9.354-14.316-19.392-19.812-30.314c-2.027-4.044-4.262-8.277-4.836-13.38c-0.494-0.259-0.914-0.599-1.516-0.754
	C93.729,101.189,93.193,102.136,93.246,102.613 M88.932,101.78c0.291-0.036,0.363-0.293,0.451-0.525
	c-0.254-0.021-0.43-0.122-0.752-0.075C88.647,101.462,88.87,101.548,88.932,101.78 M86.138,102.916
	c-0.114,0.558,0.129,1.291,0.15,1.815c0.181,4.848-0.954,9.532-1.965,13.906c-2.738,11.85-6.595,22.541-10.961,32.808
	c-0.415,0.975-1.017,1.929-1.213,2.8c-0.389,1.764-0.353,3.879-0.223,5.59c0.415,5.485,2.867,9.364,6.124,11.874
	c4.159-2.105,7.492-5.289,9.069-10.06c0.482-1.451,1.146-3.743,1.135-5.288c-0.004-0.976-0.3-2.095-0.451-3.174
	c-1.032-7.445-1.763-15.451-2.043-23.509c-0.332-9.634-0.249-19.285,2.572-26.534c-0.337-0.472-0.529-1.089-0.985-1.438
	C86.988,102.009,86.262,102.289,86.138,102.916 M89.694,103.22c2.089,5.68,2.49,12.828,2.49,19.949
	c0,10.803-1.053,21.774-2.417,31.305c-0.093,0.643-0.306,1.41-0.301,1.96c0.005,0.799,0.348,1.773,0.528,2.645
	c1.277,6.347,4.626,10.401,9.521,12.858c3.26-2.603,6.029-6.678,6.352-11.873c0.107-1.795,0.139-4.086-0.223-5.59
	c-0.213-0.86-0.82-1.794-1.215-2.728c-4.35-10.276-8.088-20.937-10.883-32.652c-1.037-4.343-2.109-9.146-1.887-13.984
	c0.02-0.562,0.352-1.418,0.223-2.045c-0.125-0.578-0.824-0.802-1.287-1.206C90.223,102.242,89.897,102.667,89.694,103.22
	 M172.385,102.465h-0.145c-3.318,3.536-7.996,6.105-14.818,5.894c4.848,2.607,8.295,6.621,9.68,12.7
	C171.494,118.09,175.004,109.932,172.385,102.465 M80.393,103.367c-2.375,2.325-4.423,5.092-6.274,7.863
	c-6.466,9.696-11.599,20.864-16.405,31.971c0.01,0.083-0.109,0.125,0,0.155c4.641-6.118,9.063-12.36,13.154-18.975
	c4.075-6.577,8.177-13.471,10.505-21.693C80.906,102.598,80.657,103.113,80.393,103.367 M109.875,122.116
	c-3.775-6.909-7.561-13.735-13.076-18.972c-0.006-0.08-0.1-0.062-0.074,0.075c2.199,8.218,6.238,15.194,10.35,21.845
	c3.945,6.367,8.213,12.734,12.775,18.365c0.105,0.135,0.121,0.456,0.379,0.384C117.139,136.347,113.645,129.015,109.875,122.116
	 M77.214,125.521c-1.892,7.777-3.557,16.042-4.459,24.183c2.862-6.906,5.367-13.833,7.638-21.165
	c2.271-7.342,4.454-14.972,4.687-24.188c-0.005-0.041-0.01-0.085-0.072-0.075c-0.011-0.046-0.011-0.088-0.083-0.072
	C81.186,110.228,79.132,117.678,77.214,125.521 M93.318,111.386c2.105,14.633,7.207,26.714,11.791,38.701
	c-1.094-8.368-2.529-16.623-4.459-24.338c-1.918-7.7-3.898-15.133-7.633-21.171c-0.004-0.047-0.01-0.091-0.078-0.075
	C92.717,106.696,92.998,109.128,93.318,111.386 M87.118,116.068c-0.716,12.241,0.332,25.588,1.814,35.979
	c1.592-14.279,3.65-33.355,0.078-47.093c0-0.047-0.011-0.088-0.078-0.072C87.787,108.119,87.356,112,87.118,116.068 M21.885,138.814
	c-0.156-7.155,2.758-11.241,6.274-14.733c-5.299,1.938-12.377,0.443-15.877-2.115C11.909,130.851,16.093,135.849,21.885,138.814
	 M166.117,123.397c-3.506,2.59-10.65,3.803-15.799,1.895c3.23,3.318,6.355,7.799,5.891,14.819
	C162.135,137.218,166.422,132.271,166.117,123.397 M23.321,140.785c1.592,7.58,6.165,12.185,13.605,13.917
	c-1.882-5.476-0.197-12.538,2.266-15.888C35.729,141.428,28.48,142.766,23.321,140.785 M140.865,155.677
	c7.58-1.587,12.18-6.17,13.912-13.605c-5.477,1.804-12.424,0.342-15.877-2.344C141.461,143.264,142.873,150.471,140.865,155.677
	 M38.892,156.205c3.002,5.87,7.71,10.028,16.706,9.903c-2.541-3.566-3.827-10.681-1.893-15.866c0-0.052-0.01-0.093-0.073-0.083
	C50.293,153.748,45.979,156.361,38.892,156.205 M122.043,166.71c8.889,0.374,13.881-3.806,16.857-9.592
	c-7.16,0.155-11.252-2.769-14.736-6.284C126.104,156.144,124.611,163.216,122.043,166.71 M57.941,167.021
	c2.966,4.396,11.127,7.902,18.593,5.289c-0.705-0.996-1.69-1.794-2.416-2.801c-2.198-3.027-3.666-6.886-3.401-12.091
	c-0.005-0.042-0.01-0.094-0.073-0.073C68.031,162.188,64.018,165.632,57.941,167.021 M100.957,172.538
	c7.129,2.707,15.57-0.404,18.744-4.988c-6.166-1.348-9.977-5.039-12.627-9.903C107.328,164.906,104.404,168.981,100.957,172.538
	 M79.034,172.61c2.359,1.69,5.719,3.091,9.669,3.102c3.894,0.01,7.388-1.183,9.753-2.945c-4.848-2.634-8.212-6.751-9.597-12.859
	C87.434,165.995,83.934,169.998,79.034,172.61"/>
</svg>
