<?xml version="1.0" encoding="UTF-8" standalone="no"?>
<!-- Generator: Adobe Illustrator 16.0.0, SVG Export Plug-In . SVG Version: 6.00 Build 0)  -->
<!DOCTYPE svg  PUBLIC '-//W3C//DTD SVG 1.1//EN'  'http://www.w3.org/Graphics/SVG/1.1/DTD/svg11.dtd'>
<svg id="spiritual" xmlns="http://www.w3.org/2000/svg" xml:space="preserve" height="180px" viewBox="0 0 180 180" width="180px" version="1.1" y="0px" x="0px" xmlns:xlink="http://www.w3.org/1999/xlink" enable-background="new 0 0 180 180">
<path fill="#085EAA" clip-rule="evenodd" d="m89.01 177h-0.223c-4.833-0.155-8.266-1.721-11.117-3.857-3.484 1.711-8.98 1.535-12.625 0.301-3.723-1.255-6.539-3.63-8.69-6.191-10.282 0.529-15.752-4.406-18.899-11.262-8.716-1.648-13.854-6.864-15.42-15.658-5.818-2.894-10.37-7.487-10.961-15.493-0.042-0.558-0.093-1.159-0.078-1.812 0.016-0.508 0.254-1.233 0.156-1.736-0.12-0.584-1.369-1.333-1.893-1.891-1.794-1.921-3.241-4.15-4.159-7.033-1.255-3.92-1.188-8.931 0.529-12.548-1.945-2.899-3.495-6.181-3.63-10.89v-0.228c0.067-4.869 1.939-8.343 3.78-11.189-1.571-3.72-1.535-8.84-0.228-12.625 0.975-2.802 2.489-4.98 4.314-6.8 0.493-0.495 1.778-1.423 1.887-1.89 0.12-0.511-0.078-1.281-0.078-1.812 0-9.009 5.086-14.116 11.34-17.009 1.664-8.724 6.859-13.906 15.721-15.42 3.168-6.753 8.944-11.664 19.128-10.889 2.125-2.538 5.04-4.848 8.768-6.048 3.765-1.206 9.115-1.195 12.553 0.531 0.104 0.005 0.166-0.036 0.223-0.075 2.69-2.083 6.491-3.478 11.111-3.478 4.688 0 8.239 1.82 10.889 3.78 1.996-0.819 4.033-1.252 6.346-1.286 5.844-0.088 10.35 2.411 13.232 5.289 0.514 0.511 1.26 1.758 1.809 1.89 0.514 0.122 1.281-0.075 1.82-0.075 9.006 0 14.104 5.076 17.008 11.342 8.727 1.656 13.895 6.859 15.42 15.721 3.594 1.465 6.258 3.961 8.166 6.956 1.752 2.755 3.014 5.921 2.873 10.354-0.016 0.508-0.266 1.293-0.156 1.739 0.131 0.506 1.4 1.286 1.893 1.817 0.586 0.622 1.225 1.439 1.66 2.038 2.918 4.003 4.811 11.83 1.971 17.539 2.016 2.833 3.551 6.515 3.551 11.267 0 4.768-1.918 8.314-3.701 11.031 1.648 3.765 1.457 8.804 0.15 12.625-0.965 2.815-2.402 5.04-4.236 6.878-0.529 0.532-1.773 1.294-1.889 1.891-0.104 0.523 0.078 1.213 0.078 1.739 0 9.001-5.082 14.113-11.34 17.007-1.648 8.711-6.854 13.854-15.648 15.42-1.586 3.475-3.939 6.232-6.953 8.172-2.738 1.742-6.086 2.986-10.359 2.862-0.545-0.011-1.354-0.259-1.809-0.146-0.51 0.125-1.287 1.4-1.82 1.888-4.164 3.879-12.361 6.927-19.574 3.702-1.463 0.757-2.904 1.763-4.688 2.427-1.812 0.67-3.839 1.02-6.198 1.14m-0.306-173.79c-3.219 0.233-6.066 1.561-8.083 2.945 4.848 2.639 8.213 6.753 9.598 12.851 1.43-6.082 4.926-10.09 9.825-12.701-2.661-1.89-6.602-3.445-11.336-3.095m-29.327 8.158c6.165 1.346 9.976 5.045 12.625 9.904-0.254-7.259 2.666-11.34 6.119-14.889-7.176-2.696-15.56 0.399-18.744 4.985m43.163-4.762c0.68 0.905 1.504 1.662 2.193 2.572 2.287 3.01 3.951 7.282 3.697 12.397 2.613-4.848 6.627-8.293 12.703-9.675-2.89-4.464-11.48-7.905-18.59-5.294m-29.329 12.177c-0.12 1.734-0.192 3.969 0.223 5.665 0.213 0.858 0.814 1.784 1.213 2.722 4.34 10.253 8.089 20.937 10.883 32.66 1.177 4.926 2.323 10.741 1.665 16.097 0.404 0.425 0.736 0.928 1.364 1.135 0.229-0.43 0.596-0.71 0.752-1.21-1.862-5.696-2.479-12.976-2.417-20.18 0.093-10.8 1.053-21.684 2.417-31.224 0.094-0.643 0.306-1.418 0.301-1.965-0.006-0.78-0.348-1.784-0.523-2.645-1.302-6.237-4.724-10.634-9.603-12.848-3.039 2.579-5.912 6.476-6.275 11.793m18.75-1.442c-0.457 1.387-1.147 3.643-1.136 5.216 0.005 0.964 0.3 2.09 0.457 3.173 0.436 3.197 0.85 6.494 1.131 9.828 1.109 13.105 2.213 29.293-1.587 40.293 0.222 0.505 0.529 0.931 0.835 1.361 0.559-0.187 0.85-0.658 1.279-0.982-0.543-5.644 0.664-10.958 1.816-15.949 2.727-11.814 6.559-22.646 10.961-32.808 0.414-0.962 1.016-1.926 1.213-2.797 0.348-1.579 0.326-3.09 0.301-4.609-0.115-5.706-2.754-9.986-5.973-12.854h-0.156c-4.286 2.076-7.559 5.288-9.139 10.128m-51.784 4.462c6.73-0.166 11.081 2.548 14.212 5.818 0.129 0.14 0.244 0.484 0.523 0.383-1.955-5.268-0.415-12.322 2.121-15.801-8.886-0.366-13.879 3.806-16.856 9.6m15.498 4.534c0.312 1.359 0.851 3.282 1.431 4.384 0.436 0.824 1.296 1.716 1.965 2.572 0.674 0.858 1.348 1.734 1.965 2.569 6.45 8.685 12.916 17.788 17.919 27.743 2.059 4.104 4.107 8.436 4.838 13.458 0.529 0.182 1.079 0.724 1.586 0.68 0.109-0.529 0.353-0.721 0.378-1.208 0.031-0.526-0.86-1.716-1.358-2.572-1.509-2.59-2.722-5.659-3.707-8.542-3.791-11.161-6.326-23.727-8.011-36.889-0.161-1.234-0.166-2.566-0.451-3.702-0.353-1.369-1.317-3.031-2.121-4.386-2.308-3.912-6.746-7.283-11.641-8.011-2.544 3.369-4.052 8.504-2.793 13.904m69.695 2.347c3.359-3.271 7.674-6.245 14.818-5.973-3.002-5.872-7.715-10.025-16.705-9.901 2.54 3.572 3.82 10.676 1.89 15.874m-29.179 48.905c0.969-4.825 2.82-9.227 4.992-13.299 5.797-10.912 12.559-21.132 19.881-30.392 0.715-0.908 1.586-1.683 2.037-2.569 1.924-3.785 2.711-9.553 1.062-14.215-0.332-0.917-1.441-4.034-2.422-4.075-0.135-0.011-0.18 0.046-0.305 0.072-6.756 1.488-10.967 6.004-13.377 12.017-0.93 9.642-2.732 18.907-4.838 27.896-1.773 7.555-3.863 15.33-7.41 21.243-0.461 0.77-1.523 1.991-1.508 2.644 0.004 0.386 0.383 0.817 0.451 1.286 0.604-0.082 0.956-0.411 1.438-0.608m-56.693-54.347c-2.032 4.809-0.798 10.746 1.208 14.362 0.7 1.268 1.54 2.712 2.344 3.552 0.71 0.736 1.815 1.278 2.717 1.965 6.253 4.734 12.413 9.896 17.919 15.195 5.594 5.39 11.485 10.666 15.576 17.536 0.529 0.895 1.151 2.756 1.659 3.103 0.399 0.265 0.918 0.179 1.514 0.376 0.026-0.531 0.249-0.834 0.15-1.366-0.13-0.674-1.582-1.521-2.271-2.266-2.24-2.406-4.247-5.118-5.973-7.71-6.658-9.986-12.138-21.492-16.929-33.109-0.451-1.094-0.757-2.315-1.286-3.324-0.606-1.153-1.913-2.325-2.873-3.329-3.054-3.171-7.472-5.48-13.533-5.213-0.108 0.042-0.18 0.117-0.222 0.228m-15.197 13.603c5.476-1.807 12.423-0.345 15.876 2.346-2.229-3.09-3.619-9.048-2.494-14.064 0.145-0.669 0.461-1.281 0.373-1.885-7.44 1.677-12.049 6.186-13.755 13.603m102.36-7.635c-0.861 0.861-2.068 2.022-2.572 2.95-0.523 0.952-0.85 2.173-1.291 3.251-3.137 7.682-6.465 14.749-10.275 21.77-3.688 6.79-7.529 13.909-12.85 19.125-0.803 0.786-2.156 1.644-2.266 2.346-0.078 0.457 0.109 0.659 0.072 1.283 0.613 0.034 1.084-0.078 1.514-0.228 4.355-8.293 10.703-14.238 17.309-20.483 5.684-5.375 11.707-10.391 17.992-15.122 0.908-0.685 2.074-1.338 2.723-2.038 0.812-0.887 1.602-2.362 2.344-3.632 2.156-3.689 3.426-9.476 1.357-14.435-6.48-0.48-10.82 1.985-14.05 5.213m13.15 10.889c3.535-2.559 10.748-3.972 15.949-1.97-1.592-7.576-6.166-12.174-13.605-13.904 1.8 5.467 0.33 12.418-2.35 15.874m-51.712 15.648c0.035 6.536 0.315 12.96 2.047 18.29 2.039-6.551 2.277-15.062 1.966-23.431-0.312-8.268-0.83-16.411-1.893-23.665-0.005-0.042-0.011-0.09-0.073-0.072-1.041 8.695-2.084 18.975-2.047 28.878m-12.164-14.29c0.721 4.073 1.618 8.078 2.566 11.869 1.82 7.22 3.692 14.461 6.958 20.107 0.212 0.366 0.409 0.964 0.679 0.833 0.052-9.126-2.292-16.826-4.537-24.116-2.261-7.353-4.672-14.347-7.56-21.243-0.005-0.042-0.011-0.085-0.073-0.075 0.468 4.205 1.22 8.438 1.967 12.625m22.673 9.069c-2.199 7.285-4.428 15.075-4.609 24.115 0.68-0.466 0.99-1.327 1.359-2.038 0.424-0.801 0.84-1.592 1.213-2.421 5.23-11.718 7.512-26.436 9.824-40.894-0.004-0.047-0.01-0.088-0.072-0.078-2.82 6.982-5.48 13.927-7.713 21.316m-29.331 6.432c3.546 6.439 7.171 13.061 12.097 17.987 0.321 0.319 0.632 0.876 0.985 0.754-2.188-8.283-6.269-15.122-10.282-21.694-4.034-6.606-8.498-12.823-13.149-18.897-0.005-0.046-0.01-0.091-0.078-0.075 3.038 7.435 6.585 14.935 10.427 21.925m38.934-2.422c-4.076 6.578-8.178 13.468-10.506 21.694 0.467 0.096 0.715-0.425 0.98-0.679 2.379-2.331 4.422-5.086 6.273-7.863 6.461-9.686 11.635-20.877 16.406-32.048 0.041 0 0.082-0.065 0-0.081-4.65 6.116-9.07 12.366-13.16 18.977m-28.424 25.474c-8.161-4.311-14.233-10.655-20.486-17.235-5.372-5.665-10.401-11.739-15.042-17.995-0.668-0.897-1.333-2.022-2.042-2.717-0.648-0.638-1.737-1.211-2.645-1.815-3.712-2.476-10.5-4.26-15.498-1.965-0.487 5.989 1.825 10.671 4.843 13.684 0.97 0.975 2.204 2.336 3.324 2.945 0.949 0.521 2.188 0.851 3.251 1.286 7.581 3.101 14.891 6.546 21.767 10.279 6.85 3.72 13.875 7.49 19.133 12.854 0.695 0.705 1.669 2.16 2.338 2.266 0.487 0.08 0.721-0.127 1.286-0.073 0.03-0.617-0.074-1.083-0.229-1.514m62.894-39.989c-1.602 0.772-3.67 1.83-4.838 2.95-0.746 0.718-1.279 1.822-1.959 2.719-7.43 9.813-15.732 19.086-24.65 27.292-3.303 3.031-6.9 5.859-11.189 7.708-0.129 0.547-0.273 1.089-0.373 1.662 0.551 0.01 0.949 0.309 1.514 0.155 0.529-0.145 1.494-1.706 2.189-2.343 2.41-2.23 5.111-4.167 7.709-5.898 9.992-6.658 21.441-12.094 33.111-16.932 1.121-0.466 2.359-0.759 3.324-1.286 0.545-0.295 1.09-0.938 1.664-1.439 3.854-3.334 7.229-7.848 6.803-15.042-4.02-1.905-9.59-1.327-13.29 0.454m-119.97-1.206c-5.781 3.057-9.971 7.713-9.826 16.704 3.572-2.543 10.681-3.819 15.871-1.893-3.328-3.318-6.159-7.803-6.045-14.811m128.21 16.025c5.299-1.944 12.377-0.449 15.875 2.118 0.369-8.89-3.811-13.88-9.602-16.859 0.15 7.163-2.77 11.246-6.28 14.741m-89.8 8.083c5.429 5.55 10.873 11.407 17.915 15.197-3.785-7.184-9.639-12.542-15.197-17.995-5.586-5.472-11.735-10.486-17.988-15.264 0-0.042-0.067-0.091-0.083 0 4.915 6.111 9.852 12.457 15.353 18.062m54.95-1.887c-5.543 5.437-11.406 10.878-15.191 17.919 7.182-3.782 12.543-9.639 17.992-15.197 5.475-5.589 10.484-11.733 15.27-17.995 0.041 0 0.082-0.057 0-0.073-6.11 4.916-12.46 9.85-18.07 15.346m-38.477 21.699c-4.905-0.83-9.198-2.836-13.227-4.993-10.847-5.802-21.119-12.48-30.39-19.802-0.892-0.713-1.685-1.595-2.572-2.045-3.966-2.022-9.903-2.691-14.435-0.983-0.798 0.304-3.65 1.403-3.853 2.118-0.145 0.49 0.384 1.991 0.602 2.645 1.934 5.846 6.29 8.983 11.49 11.262 9.665 0.941 18.889 2.73 27.896 4.843 7.493 1.752 15.322 3.785 21.238 7.332 0.788 0.467 1.913 1.571 2.572 1.587 0.446 0.008 0.866-0.376 1.363-0.457-0.104-0.625-0.42-1.045-0.684-1.507m74.007-26.84c-1.119 0.334-2.406 0.648-3.324 1.135-0.828 0.436-1.586 1.312-2.42 1.965-9.168 7.158-18.838 13.649-29.404 19.278-4.428 2.354-8.955 4.641-14.445 5.364-0.244 0.519-0.773 1.13-0.752 1.667 1.498 1.04 2.379-0.249 3.779-1.063 2.561-1.48 5.775-2.761 8.545-3.699 11.205-3.819 23.809-6.287 36.965-7.938 1.201-0.153 2.514-0.176 3.623-0.456 1.426-0.36 3.033-1.317 4.387-2.113 4.029-2.385 7.082-6.52 8.012-11.57-3.23-2.925-9.66-4.162-14.98-2.57m-96.988 14.894c6.585 4.07 13.471 8.177 21.694 10.507 0.099-0.469-0.42-0.724-0.679-0.983-2.328-2.38-5.081-4.422-7.855-6.276-9.686-6.455-20.88-11.632-32.054-16.4 0-0.044-0.067-0.091-0.078 0 6.119 4.64 12.361 9.058 18.972 13.152m-47.92 5.669c0.897-0.689 1.654-1.503 2.567-2.193 3.012-2.29 7.28-3.951 12.397-3.705-4.915-2.598-8.28-6.738-9.753-12.776-4.308 3.451-7.886 10.954-5.211 18.674m115.28-7.258c-6.398 3.552-13.008 7.184-17.914 12.097-0.332 0.329-0.881 0.635-0.762 0.982 8.291-2.193 15.129-6.266 21.693-10.279 6.596-4.031 12.766-8.517 18.906-13.079-0.012-0.083 0.107-0.117 0-0.153-7.37 3.131-14.92 6.54-21.93 10.432m35.75 2.724c7.264-0.259 11.344 2.67 14.896 6.121 2.852-7.028-0.607-15.752-4.994-18.747-1.35 6.166-5.04 9.977-9.91 12.626m-81.413 14.135c-5.636 0.542-10.894-0.648-15.949-1.817-11.791-2.717-22.653-6.566-32.806-10.958-0.97-0.42-1.918-1.014-2.8-1.21-1.447-0.324-3.791-0.366-5.138-0.304-5.714 0.272-9.551 2.805-12.32 6.196 2.095 4.159 5.289 7.498 10.054 9.077 1.447 0.477 3.738 1.141 5.294 1.135 0.97-0.005 2.089-0.309 3.173-0.456 3.188-0.441 6.502-0.851 9.826-1.133 13.051-1.109 29.508-2.201 40.293 1.589 0.508-0.228 0.933-0.531 1.358-0.835-0.202-0.553-0.653-0.854-0.985-1.284m-25.697-5.673c7.285 2.199 15.073 4.428 24.11 4.615-0.461-0.685-1.328-0.988-2.038-1.364-0.798-0.42-1.586-0.84-2.416-1.206-11.723-5.239-26.444-7.518-40.899-9.828-0.047 0.005-0.088 0.01-0.073 0.075 6.974 2.819 13.927 5.479 21.316 7.708m106.36-7.256c-0.566 0.026-1.664 0.042-2.422 0.228-0.85 0.208-1.789 0.817-2.717 1.211-10.271 4.348-20.938 8.091-32.66 10.883-5.025 1.2-10.766 2.32-16.1 1.662-0.426 0.41-0.928 0.739-1.137 1.366 0.404 0.27 0.811 0.544 1.215 0.827 7.543-2.675 17.021-2.569 26.604-2.341 8.178 0.197 16.182 0.961 23.582 2.038 1.1 0.161 2.229 0.537 3.178 0.531 0.789-0.01 1.779-0.35 2.65-0.531 6.33-1.317 10.406-4.591 12.848-9.525-3.2-4.029-7.83-6.689-15.03-6.349m-31.6 5.294c-7.094 1.789-14.279 3.754-19.807 6.956-0.357 0.205-0.965 0.412-0.824 0.679 9.094-0.01 16.811-2.224 24.109-4.461 7.322-2.24 14.266-4.757 21.094-7.635 0.176 0.065 0.348-0.106 0.072-0.072-8.29 1.155-16.78 2.552-24.64 4.533m-35.676-0.755c0.255 0.021 0.432 0.117 0.752 0.073-0.088-0.265-0.166-0.54-0.451-0.604-0.082 0.197-0.275 0.282-0.301 0.531m-3.1 0.376c0.27-0.031 0.503-0.101 0.752-0.153-0.031-0.319-0.368-0.334-0.529-0.526-0.088 0.213-0.166 0.43-0.223 0.679m6.119 0.076c0.264 0.067 0.467 0.187 0.756 0.228-0.062-0.259-0.041-0.612-0.305-0.679-0.146 0.147-0.353 0.243-0.451 0.451m-8.992 1.057c0.259-0.119 0.622-0.135 0.679-0.454-0.264-0.01-0.342-0.218-0.606-0.228-0.005 0.252-0.125 0.379-0.073 0.682m10.277 0.381c-0.461-0.147-0.939-0.015-1.359-0.153-0.502-0.166-0.75-0.464-1.285-0.682-0.798 0.389-1.939 0.166-2.722-0.073-0.445 0.189-1.213 0.562-1.893 0.604-0.187 0.011-0.544-0.127-0.751-0.078-0.679 0.168-1.467 1.538-2.65 1.283-0.477 0.908-1.141 1.631-2.188 1.97 0.223 1.19-1.244 1.698-1.514 2.569-0.14 0.456-0.015 0.936-0.15 1.358-0.161 0.506-0.462 0.754-0.68 1.286 0.379 0.824 0.187 2.071-0.15 2.797 0.492 0.552 0.824 1.63 0.606 2.644 0.602 0.68 1.234 1.332 1.281 2.569 0.902 0.484 1.628 1.148 1.965 2.193 1.198-0.223 1.706 1.244 2.572 1.514 0.461 0.143 0.938 0.016 1.359 0.148 0.503 0.165 0.751 0.464 1.286 0.682 0.824-0.384 2.074-0.187 2.795 0.152 0.637-0.86 1.711-0.394 2.571-0.606 0.68-0.168 1.463-1.537 2.645-1.283 0.482-0.902 1.146-1.631 2.193-1.965-0.223-1.195 1.244-1.703 1.514-2.569 0.141-0.462 0.016-0.94 0.156-1.366 0.156-0.503 0.457-0.752 0.68-1.283-0.385-0.825-0.191-2.072 0.145-2.792-0.855-0.638-0.395-1.711-0.605-2.577-0.162-0.679-1.531-1.455-1.281-2.645-0.902-0.482-1.633-1.141-1.965-2.19-1.198 0.228-1.706-1.234-2.571-1.504m-90.785 9.222c0 3.744 1.312 7.159 3.018 9.6 2.639-4.848 6.756-8.218 12.859-9.6-6.087-1.428-10.095-4.926-12.703-9.826-1.696 2.388-3.174 6.01-3.174 9.826m92.371-9.45c0.213 0.138 0.373 0.334 0.68 0.376-0.062-0.238 0.037-0.638-0.229-0.679-0.092 0.156-0.42 0.08-0.451 0.303m-14.362 1.662c0.275-0.106 0.539-0.218 0.606-0.532-0.212-0.065-0.466-0.085-0.679-0.148-0.062 0.307 0.115 0.387 0.073 0.68m78.768 9.149c6.082 1.423 10.092 4.925 12.699 9.828 1.426-2.104 2.873-5.055 3.1-8.469 0.301-4.504-1.072-8.268-2.871-10.887-0.006-0.046-0.012-0.088-0.072-0.072-2.64 4.848-6.76 8.213-12.86 9.6m-61.984-9.001c0.109 0.277 0.213 0.542 0.529 0.607 0.062-0.213 0.088-0.464 0.15-0.679-0.31-0.061-0.384 0.116-0.679 0.072m-18.9 1.667c0.073 0.228 0.088 0.516 0.301 0.607 0.146-0.213 0.342-0.374 0.378-0.679-0.289-0.045-0.368 0.131-0.679 0.072m21.174 1.508c0.01-0.264 0.213-0.334 0.229-0.601-0.26-0.005-0.385-0.127-0.689-0.078 0.115 0.265 0.13 0.628 0.459 0.679m-22.532 1.364c0.042 0.309 0.249 0.457 0.451 0.607 0.067-0.262 0.192-0.472 0.228-0.76-0.305-0.021-0.378 0.174-0.679 0.153m23.352 1.59c0.322-0.039 0.342-0.374 0.533-0.532-0.264-0.042-0.404-0.202-0.678-0.228 0.04 0.275 0.1 0.508 0.15 0.76m-50.039-0.379c-8.437 0.389-16.836 0.684-24.116 1.965 7.332 1.089 15.425 1.491 23.737 1.89 8.244 0.394 16.872 0.127 23.437-1.89-6.456-1.96-14.825-2.351-23.058-1.965m71.209 1.206c-6.217 0.293-12.402 0.09-17.312 1.97 6.574 2.058 15.109 2.255 23.51 1.965 8.264-0.288 16.514-0.814 23.664-1.965-9.1-0.881-19.6-2.447-29.86-1.97m-45.056 0.759c0.047 0.288 0.301 0.36 0.534 0.451-0.026-0.202 0.27-0.715-0.078-0.754-0.119 0.127-0.285 0.223-0.456 0.303m-1.28 0.754c-5.776 2.053-12.9 2.494-20.108 2.494-10.126 0-20.289-0.934-29.176-2.118-1.302-0.168-3.319-0.664-4.236-0.526-7.405 1.079-12.647 4.169-15.348 9.978 2.587 3.168 6.481 6.015 11.868 6.35 1.805 0.111 4.076 0.143 5.595-0.229 0.855-0.207 1.784-0.812 2.717-1.211 10.313-4.363 20.906-8.081 32.66-10.883 4.978-1.186 10.733-2.32 16.1-1.662 0.431-0.41 0.928-0.738 1.136-1.361-0.405-0.275-0.809-0.552-1.208-0.833m25.326 0.76c0.285-0.023 0.367-0.241 0.605-0.303-0.041-0.293-0.301-0.36-0.533-0.457-0.02 0.255-0.12 0.436-0.07 0.76m60.47 1.506c-1.457-0.482-3.738-1.14-5.295-1.13-0.969 0.005-2.09 0.304-3.172 0.451-7.426 1.019-15.406 1.742-23.432 2.046-9.623 0.354-19.201 0.199-26.537-2.497-0.436 0.091-1.229 0.478-1.514 0.982 0.316 0.392 0.648 0.76 0.99 1.13 5.559-0.471 11.002 0.602 15.949 1.742 4.344 0.999 8.473 2.315 12.396 3.552 7.041 2.215 13.979 4.701 20.408 7.482 0.949 0.412 1.924 1.014 2.795 1.211 1.561 0.35 3.133 0.334 4.615 0.301 5.734-0.111 10.215-2.732 12.848-6.196-2.12-4.155-5.31-7.497-10.08-9.073m-84.288 0.304c0.212 0.091 0.436 0.171 0.679 0.228-0.093-0.254 0.021-0.721-0.301-0.754-0.103 0.197-0.253 0.344-0.378 0.526m23.208 1.211c0.307 0.021 0.379-0.177 0.68-0.147-0.041-0.314-0.25-0.459-0.451-0.607-0.07 0.256-0.19 0.466-0.23 0.754m-29.181-0.533c-8.265 0.485-15.628 2.704-22.529 4.844-6.963 2.154-13.584 4.666-20.024 7.331 8.358-1.141 16.696-2.499 24.494-4.459 7.067-1.783 14.492-3.785 20.107-7.03 0.358-0.211 0.97-0.424 0.825-0.686-0.96-0.157-1.945-0.045-2.873 0.005m-6.346 5.598c-11.018 3.699-23.561 6.201-36.435 7.858-1.239 0.163-2.546 0.121-3.708 0.381-0.669 0.15-1.441 0.689-2.193 1.058-5.107 2.504-9.354 6.577-10.276 12.773 2.162 1.631 5.055 2.859 8.54 3.176 2.753 0.249 5.559-0.368 7.638-1.058 0.762-0.254 1.669-0.472 2.193-0.757 0.788-0.431 1.597-1.317 2.416-1.966 9.11-7.188 18.775-13.657 29.327-19.272 4.407-2.344 8.913-4.63 14.445-5.369 0.301-0.5 0.555-1.05 0.824-1.586-0.498-0.208-0.949-0.465-1.586-0.532-3.118 2.326-7.032 3.897-11.185 5.294m63.497 0.147c-7.352-2.271-14.979-4.454-24.193-4.682-0.082 0.016-0.113 0.085-0.15 0.147 0.078 0 0.088 0.064 0.15 0.076 2.904 1.905 6.332 3.253 9.977 4.458 10.764 3.562 23.203 6.149 35.377 7.636-6.92-2.86-13.84-5.37-21.17-7.636m-13.91 2.576c11.375 6.084 21.943 13.014 31.52 20.786 1.15 0.923 1.881 1.275 3.479 1.815 3.879 1.293 8.467 1.708 12.398 0.228 0.809-0.306 3.65-1.399 3.857-2.12 0.139-0.49-0.389-1.991-0.607-2.645-1.934-5.847-6.289-8.986-11.49-11.262-9.742-0.957-18.625-2.665-27.816-4.838-7.695-1.82-15.307-3.77-21.244-7.331-0.803-0.482-1.908-1.471-2.572-1.587-0.383-0.07-1.176 0.34-1.436 0.604 0.197 0.482 0.41 0.952 0.684 1.358 4.9 0.835 9.2 2.836 13.23 4.996m-36.137-5.974c0.254 0 0.378 0.13 0.689 0.075-0.119-0.26-0.135-0.619-0.457-0.68-0.014 0.266-0.212 0.34-0.232 0.605m20.718 0.982c0.291 0.039 0.369-0.137 0.68-0.072-0.072-0.236-0.088-0.516-0.301-0.607-0.145 0.213-0.342 0.366-0.379 0.679m-31.519 8.692c-3.697 2.473-7.477 4.565-11.417 6.652-6.912 3.663-14.124 7.007-21.543 10.051-1.079 0.443-2.308 0.77-3.251 1.288-0.555 0.296-1.1 0.949-1.665 1.437-3.868 3.347-7.228 7.827-6.803 15.045 4.77 2.198 10.811 1.036 14.513-0.985 1.291-0.705 2.779-1.598 3.63-2.416 0.747-0.727 1.275-1.815 1.965-2.728 7.451-9.85 15.716-19.073 24.645-27.289 3.277-3.01 6.86-5.833 11.189-7.707 0.129-0.548 0.275-1.084 0.373-1.662-0.508-0.096-1.011-0.192-1.659-0.15-2.593 3.263-6.342 6.019-9.977 8.459m-3.707-3.62c-3.547 1.832-6.969 3.839-10.204 5.819-6.409 3.923-12.683 8.148-18.298 12.698-0.129 0.109-0.446 0.119-0.378 0.379 7.399-3.16 14.892-6.53 21.85-10.354 6.373-3.503 13.092-7.28 17.987-12.175 0.332-0.329 0.876-0.625 0.762-0.982-4.242 0.959-7.981 2.67-11.719 4.607m16.328-3.409c0.311 0.06 0.384-0.117 0.679-0.072-0.109-0.272-0.212-0.542-0.529-0.607-0.063 0.212-0.088 0.466-0.15 0.679m69.767 29.099c-0.98-0.985-2.203-2.333-3.324-2.942-0.938-0.519-2.166-0.84-3.25-1.286-3.328-1.36-6.377-2.688-9.525-4.158-8.551-3.987-16.291-7.871-23.736-12.851-2.578-1.725-5.434-3.801-7.639-6.046-0.668-0.688-1.633-2.253-2.266-2.347-0.59-0.085-0.799 0.127-1.207 0.073-0.379 0.323 0 1.153 0.076 1.514 8.281 4.368 14.254 10.691 20.486 17.312 5.357 5.693 10.391 11.706 15.115 17.99 0.689 0.912 1.338 2.073 2.043 2.727 0.887 0.81 2.363 1.598 3.629 2.334 3.691 2.167 9.473 3.432 14.441 1.358 0.56-5.83-1.87-10.72-4.83-13.68m-46.71-28.346c2.322 2.375 5.086 4.429 7.854 6.277 9.697 6.465 20.865 11.601 31.982 16.405 0.082-0.011 0.113 0.106 0.15 0-6.119-4.646-12.361-9.063-18.973-13.157-6.584-4.073-13.475-8.172-21.693-10.508-0.09 0.482 0.42 0.734 0.68 0.992m-6.2-0.147c0.211 0.062 0.465 0.083 0.678 0.147-0.025-0.27 0.031-0.632-0.223-0.679-0.098 0.234-0.455 0.203-0.455 0.532m-45.204 51.633c1.021-1.026 2.344-2.219 2.95-3.328 0.519-0.954 0.835-2.157 1.286-3.257 1.348-3.298 2.707-6.408 4.148-9.52 3.972-8.514 7.86-16.273 12.859-23.734 1.706-2.559 3.759-5.393 6.046-7.635 0.601-0.589 2.204-1.576 2.343-2.267 0.078-0.383 0.052-1.241-0.306-1.358-0.477-0.166-0.871 0.194-1.286 0.224-4.366 8.283-10.686 14.256-17.308 20.488-5.693 5.354-11.708 10.383-17.992 15.111-0.908 0.685-2.074 1.338-2.722 2.043-0.819 0.893-1.597 2.365-2.344 3.63-2.157 3.691-3.433 9.479-1.358 14.436 5.792 0.56 10.739-1.9 13.684-4.83m30.841-50.194c0.228-0.074 0.513-0.09 0.606-0.303-0.212-0.143-0.374-0.34-0.679-0.381-0.047 0.29 0.129 0.37 0.073 0.684m13.756-0.081c-0.166 0.34-0.156 0.851-0.15 1.364 6.404 5.799 10.785 13.317 15.041 21.315 3.688 6.914 7.072 14.235 10.133 21.619 0.461 1.119 0.752 2.354 1.285 3.328 0.295 0.54 0.943 1.089 1.436 1.659 3.33 3.848 7.887 7.321 15.047 6.73 2.283-4.78 0.955-10.806-1.062-14.435-0.709-1.297-1.508-2.77-2.344-3.641-0.715-0.746-1.814-1.275-2.721-1.96-9.857-7.456-19.072-15.705-27.289-24.639-3.014-3.277-5.84-6.86-7.705-11.188-0.561-0.075-0.924-0.347-1.588-0.303-0.034-0.123-0.116 0.004-0.084 0.146m-1.965 0.375c0.264 0.01 0.342 0.215 0.605 0.228-0.035-0.191 0.275-0.653-0.072-0.682-0.113 0.22-0.539 0.119-0.533 0.452m-34.471 14.97c-5.465 5.579-10.432 11.729-15.27 17.919 0.005 0.083-0.108 0.114 0 0.146 6.165-4.885 12.377-9.85 17.992-15.343 5.569-5.447 11.485-10.793 15.27-17.912-7.186 3.772-12.542 9.622-17.992 15.182m25.552-13.9c0.312-0.042 0.457-0.249 0.607-0.457-0.259-0.069-0.467-0.187-0.757-0.223-0.026 0.29 0.176 0.37 0.15 0.68m-3.023 0.22c-0.793 5.001-2.821 9.302-4.916 13.305-2.084 4.006-4.376 7.785-6.725 11.484-4.122 6.523-8.395 12.828-13.077 18.75-0.7 0.881-1.592 1.689-2.043 2.571-0.602 1.192-1.047 2.883-1.436 4.387-1.089 4.272-0.353 8.949 1.358 12.174 0.275 0.509 0.871 1.639 1.208 1.732 0.42 0.124 1.882-0.343 2.645-0.602 4.127-1.358 7.072-3.962 9.074-7.259 0.783-1.286 1.893-3.018 2.193-4.387 0.249-1.131 0.223-2.406 0.378-3.619 1.058-8.431 2.645-16.385 4.459-24.121 1.752-7.469 3.806-15.343 7.332-21.24 0.928-1.54 2.359-2.468 0.985-3.931-0.522 0.23-1.036 0.44-1.435 0.77m32.504 17.31c5.574 5.465 11.729 10.43 17.916 15.272 0.088-0.011 0.119 0.104 0.15 0-4.881-6.17-9.852-12.385-15.344-17.997-5.449-5.563-10.795-11.485-17.92-15.271 3.78 7.19 9.63 12.55 15.19 18m-103.79 0.83c1.343-6.165 5.04-9.977 9.904-12.621-7.265 0.255-11.34-2.67-14.892-6.12-2.763 7.23 0.472 15.54 4.988 18.74m80.28-18.59c0.031 0.318 0.367 0.334 0.529 0.531 0.088-0.213 0.166-0.436 0.223-0.679-0.269 0.02-0.504 0.09-0.752 0.15m1.514 1.58c0.053 0.516 1.15 1.656 1.586 2.421 1.531 2.688 2.65 5.709 3.625 8.617 3.738 11.133 6.295 23.743 7.938 36.809 0.156 1.234 0.172 2.51 0.451 3.63 0.369 1.431 1.312 3.028 2.121 4.387 2.391 4.044 6.574 7.114 11.562 8.016 2.582-3.007 4.092-8.514 2.873-13.833-0.357-1.566-0.834-3.329-1.432-4.47-0.436-0.819-1.291-1.701-1.965-2.562-7.32-9.354-14.316-19.392-19.812-30.314-2.027-4.044-4.262-8.277-4.836-13.38-0.494-0.259-0.914-0.599-1.516-0.754-0.109-0.01-0.645 0.94-0.592 1.41m-4.314-0.83c0.291-0.036 0.363-0.293 0.451-0.525-0.254-0.021-0.43-0.122-0.752-0.075 0.016 0.28 0.239 0.37 0.301 0.6m-2.794 1.14c-0.114 0.558 0.129 1.291 0.15 1.815 0.181 4.848-0.954 9.532-1.965 13.906-2.738 11.85-6.595 22.541-10.961 32.808-0.415 0.975-1.017 1.929-1.213 2.8-0.389 1.764-0.353 3.879-0.223 5.59 0.415 5.485 2.867 9.364 6.124 11.874 4.159-2.105 7.492-5.289 9.069-10.06 0.482-1.451 1.146-3.743 1.135-5.288-0.004-0.976-0.3-2.095-0.451-3.174-1.032-7.445-1.763-15.451-2.043-23.509-0.332-9.634-0.249-19.285 2.572-26.534-0.337-0.472-0.529-1.089-0.985-1.438-0.359 0.29-1.085 0.57-1.209 1.2m3.556 0.3c2.089 5.68 2.49 12.828 2.49 19.949 0 10.803-1.053 21.774-2.417 31.305-0.093 0.643-0.306 1.41-0.301 1.96 0.005 0.799 0.348 1.773 0.528 2.645 1.277 6.347 4.626 10.401 9.521 12.858 3.26-2.603 6.029-6.678 6.352-11.873 0.107-1.795 0.139-4.086-0.223-5.59-0.213-0.86-0.82-1.794-1.215-2.728-4.35-10.276-8.088-20.937-10.883-32.652-1.037-4.343-2.109-9.146-1.887-13.984 0.02-0.562 0.352-1.418 0.223-2.045-0.125-0.578-0.824-0.802-1.287-1.206-0.383 0.37-0.709 0.8-0.912 1.35m82.686-0.76h-0.145c-3.318 3.536-7.996 6.105-14.818 5.894 4.848 2.607 8.295 6.621 9.68 12.7 4.39-2.96 7.9-11.12 5.28-18.59m-91.987 0.91c-2.375 2.325-4.423 5.092-6.274 7.863-6.466 9.696-11.599 20.864-16.405 31.971 0.01 0.083-0.109 0.125 0 0.155 4.641-6.118 9.063-12.36 13.154-18.975 4.075-6.577 8.177-13.471 10.505-21.693-0.467-0.09-0.716 0.42-0.98 0.68m29.487 18.75c-3.775-6.909-7.561-13.735-13.076-18.972-0.006-0.08-0.1-0.062-0.074 0.075 2.199 8.218 6.238 15.194 10.35 21.845 3.945 6.367 8.213 12.734 12.775 18.365 0.105 0.135 0.121 0.456 0.379 0.384-3.1-7.45-6.6-14.78-10.36-21.68m-32.666 3.4c-1.892 7.777-3.557 16.042-4.459 24.183 2.862-6.906 5.367-13.833 7.638-21.165 2.271-7.342 4.454-14.972 4.687-24.188-0.005-0.041-0.01-0.085-0.072-0.075-0.011-0.046-0.011-0.088-0.083-0.072-3.739 6.02-5.793 13.47-7.711 21.31m16.104-14.13c2.105 14.633 7.207 26.714 11.791 38.701-1.094-8.368-2.529-16.623-4.459-24.338-1.918-7.7-3.898-15.133-7.633-21.171-0.004-0.047-0.01-0.091-0.078-0.075-0.222 2.2 0.059 4.63 0.379 6.89m-6.2 4.68c-0.716 12.241 0.332 25.588 1.814 35.979 1.592-14.279 3.65-33.355 0.078-47.093 0-0.047-0.011-0.088-0.078-0.072-1.145 3.23-1.576 7.11-1.814 11.18m-65.233 22.74c-0.156-7.155 2.758-11.241 6.274-14.733-5.299 1.938-12.377 0.443-15.877-2.115-0.373 8.89 3.811 13.89 9.603 16.85m144.24-15.41c-3.506 2.59-10.65 3.803-15.799 1.895 3.23 3.318 6.355 7.799 5.891 14.819 5.93-2.9 10.21-7.85 9.91-16.72m-142.8 17.38c1.592 7.58 6.165 12.185 13.605 13.917-1.882-5.476-0.197-12.538 2.266-15.888-3.463 2.62-10.712 3.96-15.871 1.97m117.54 14.9c7.58-1.587 12.18-6.17 13.912-13.605-5.477 1.804-12.424 0.342-15.877-2.344 2.57 3.52 3.98 10.73 1.97 15.94m-101.97 0.52c3.002 5.87 7.71 10.028 16.706 9.903-2.541-3.566-3.827-10.681-1.893-15.866 0-0.052-0.01-0.093-0.073-0.083-3.339 3.6-7.653 6.21-14.74 6.05m83.148 10.51c8.889 0.374 13.881-3.806 16.857-9.592-7.16 0.155-11.252-2.769-14.736-6.284 1.94 5.3 0.45 12.38-2.12 15.87m-64.099 0.31c2.966 4.396 11.127 7.902 18.593 5.289-0.705-0.996-1.69-1.794-2.416-2.801-2.198-3.027-3.666-6.886-3.401-12.091-0.005-0.042-0.01-0.094-0.073-0.073-2.613 4.84-6.626 8.28-12.703 9.67m43.019 5.52c7.129 2.707 15.57-0.404 18.744-4.988-6.166-1.348-9.977-5.039-12.627-9.903 0.26 7.26-2.67 11.33-6.11 14.89m-21.926 0.07c2.359 1.69 5.719 3.091 9.669 3.102 3.894 0.01 7.388-1.183 9.753-2.945-4.848-2.634-8.212-6.751-9.597-12.859-1.425 6.1-4.925 10.1-9.825 12.71" fill-rule="evenodd"/>
</svg>
