<?xml version="1.0" standalone="no"?>
<!DOCTYPE svg PUBLIC "-//W3C//DTD SVG 1.1//EN" "http://www.w3.org/Graphics/SVG/1.1/DTD/svg11.dtd" >
<svg xmlns="http://www.w3.org/2000/svg">
<metadata></metadata>
<defs>
<font id="nimbusantblaconregular" horiz-adv-x="997" >
<font-face units-per-em="2048" ascent="1638" descent="-410" />
<missing-glyph horiz-adv-x="382" />
<glyph horiz-adv-x="0" />
<glyph horiz-adv-x="682" />
<glyph unicode=" "  horiz-adv-x="382" />
<glyph unicode="&#x09;" horiz-adv-x="382" />
<glyph unicode="&#xa0;" horiz-adv-x="382" />
<glyph unicode="!" horiz-adv-x="415" d="M74 0v297h266v-297h-266zM74 731v635h266v-635l-53 -311h-162z" />
<glyph unicode="&#x22;" horiz-adv-x="931" d="M84 1366h342l-70 -618h-204zM508 1366h342l-68 -618h-204z" />
<glyph unicode="#" d="M63 397l25 170h129l31 219h-129l22 170h129l56 381h172l-54 -381h170l54 381h174l-54 -381h146l-25 -170h-145l-31 -219h146l-25 -170h-143l-58 -397h-174l58 397h-170l-56 -397h-174l56 397h-130zM391 567h168l31 219h-168z" />
<glyph unicode="$" d="M115 379v102h288v-125q0 -139 103 -139q41 0 67.5 29t26.5 73q0 70 -41 131t-139 138q-166 129 -231.5 228t-65.5 222q0 149 77.5 230.5t237.5 103.5v189h121v-189q163 -29 235 -111.5t72 -240.5v-94h-272v104q0 125 -96 125q-42 0 -69.5 -25.5t-27.5 -64.5 q0 -66 72 -141q1 -2 4 -4q22 -25 85 -81l1 -1h1l1 -1l1 -1l1 -1l1 -1v-1h1l1 -1l1 -1l1 -1l1 -1l2 -1q33 -29 54 -48q140 -122 198 -221t58 -217q0 -160 -78.5 -244t-247.5 -106v-189h-121v189q-148 13 -243 108q-43 41 -61.5 107t-18.5 172z" />
<glyph unicode="%" horiz-adv-x="1572" d="M68 774v322q0 156 62 220t212 64t212 -64t62 -220v-322q0 -155 -61.5 -218.5t-212.5 -63.5t-212.5 63.5t-61.5 218.5zM279 748q0 -57 13 -78t50 -21t50.5 21t13.5 78v374q0 57 -13.5 79t-50.5 22q-36 0 -49.5 -21.5t-13.5 -79.5v-374zM426 0l565 1366h158l-565 -1366 h-158zM954 270v322q0 155 62 218.5t213 63.5t212.5 -63.5t61.5 -218.5v-322q0 -156 -62 -220t-212 -64q-151 0 -213 64.5t-62 219.5zM1165 244q0 -57 13.5 -79t50.5 -22q36 0 49.5 21.5t13.5 79.5v374q0 57 -13 78t-50 21t-50.5 -21t-13.5 -78v-374z" />
<glyph unicode="&#x26;" horiz-adv-x="1118" d="M63 358q0 116 54 204.5t198 209.5q-69 106 -95.5 175.5t-26.5 139.5q0 131 93.5 215t239.5 84t236 -81t90 -213q0 -89 -49.5 -176t-155.5 -187l121 -203q27 76 27 162v19h254q-3 -154 -31.5 -258.5t-91.5 -190.5l151 -258h-309l-37 68q-122 -88 -270 -88 q-171 0 -284.5 107.5t-113.5 270.5zM354 369q0 -64 40 -107t100 -43q55 0 118 49l-159 271q-99 -79 -99 -170zM453 1112q0 -36 13.5 -70t55.5 -100q78 78 78 164t-74 86q-32 0 -52.5 -22.5t-20.5 -57.5z" />
<glyph unicode="'" horiz-adv-x="507" d="M84 1366h342l-70 -618h-204z" />
<glyph unicode="(" horiz-adv-x="546" d="M82 199v688q0 244 95 363t302 136v-176q-72 -11 -101.5 -68.5t-29.5 -189.5v-819q0 -132 29.5 -189.5t101.5 -68.5v-176q-207 17 -302 136.5t-95 363.5z" />
<glyph unicode=")" horiz-adv-x="546" d="M68 -125q72 11 101.5 68.5t29.5 189.5v819q0 132 -29.5 189.5t-101.5 68.5v176q207 -17 302 -136t95 -363v-688q0 -244 -95 -363.5t-302 -136.5v176z" />
<glyph unicode="*" horiz-adv-x="700" d="M84 1116l47 146l143 -48v152h152v-152l143 48l47 -146l-143 -47l90 -121l-123 -90l-90 123l-88 -123l-123 88l88 123z" />
<glyph unicode="+" d="M82 563v246h293v297h246v-297h292v-246h-292v-303h-246v303h-293z" />
<glyph unicode="," horiz-adv-x="415" d="M74 0v297h266v-334l-266 -237v165l125 109h-125z" />
<glyph unicode="-" horiz-adv-x="618" d="M0 420v252h618v-252h-618z" />
<glyph unicode="." horiz-adv-x="415" d="M74 0v297h266v-297h-266z" />
<glyph unicode="/" horiz-adv-x="763" d="M-106 -281l684 1647h178l-684 -1647h-178z" />
<glyph unicode="0" d="M82 442v455q0 153 26.5 235t94.5 138q114 90 295 90t295 -90q67 -55 93.5 -137t26.5 -236v-455q0 -154 -26 -235.5t-94 -136.5q-114 -90 -295 -90t-295 90q-68 56 -94.5 137.5t-26.5 234.5zM403 342q0 -76 21 -106.5t74 -30.5q52 0 73 30t21 107v655q0 77 -21 107.5 t-73 30.5q-53 0 -74 -31t-21 -107v-655z" />
<glyph unicode="1" d="M231 1032v187q69 11 112 38.5t69 79.5h286v-1337h-321v1032h-146z" />
<glyph unicode="2" d="M76 0q1 82 5 134.5t18 107.5t33 93t59.5 92t88 103t126.5 127q123 121 166.5 192t43.5 148q0 60 -28.5 94.5t-79.5 34.5q-62 0 -86.5 -40.5t-24.5 -143.5v-88h-321v59q0 223 102 328q57 57 144.5 88t191.5 31q412 0 412 -367q0 -134 -43 -221q-25 -51 -58 -88t-141 -137 q-117 -106 -166.5 -166.5t-79.5 -130.5h490v-250h-852z" />
<glyph unicode="3" d="M76 362v107h321v-107q0 -86 24 -121.5t81 -35.5q59 0 81.5 41.5t22.5 148.5q0 130 -35 173.5t-141 43.5h-82v205h55q114 0 154.5 37t40.5 141q0 76 -20.5 108t-69.5 32q-54 0 -79.5 -35t-25.5 -109v-47h-321v47q0 181 107.5 275t314.5 94q220 0 310.5 -83.5t90.5 -285.5 q0 -133 -44.5 -190t-172.5 -86q140 -15 190 -77t50 -220q0 -233 -101 -335.5t-331 -102.5q-215 0 -317.5 93t-102.5 289z" />
<glyph unicode="4" d="M59 293v225l422 819h359v-819h98v-225h-98v-293h-287v293h-494zM309 518h244v260v107q2 102 4 143q-46 -108 -106 -229z" />
<glyph unicode="5" d="M72 350v113h307v-113q0 -78 25 -111.5t83 -33.5q65 0 86 48t21 198q0 107 -9 160.5t-31.5 75.5t-66.5 22q-45 0 -71.5 -20.5t-50.5 -72.5h-267v723h762v-239h-495v-223q109 63 235 63q161 0 238 -110.5t77 -340.5q0 -162 -22.5 -248.5t-79.5 -148.5q-103 -112 -330 -112 q-221 0 -316 85.5t-95 284.5z" />
<glyph unicode="6" d="M70 483v312q0 193 21.5 287t80.5 157q115 121 344 121q203 0 297 -84t100 -270h-309q-3 66 -25.5 94t-72.5 28q-63 0 -89 -40.5t-26 -141.5v-121q66 59 121.5 82t130.5 23q63 0 117 -22t88 -60q40 -44 56 -108t16 -181v-141q0 -231 -103 -334.5t-332 -103.5 q-220 0 -319 102q-55 57 -75.5 143.5t-20.5 257.5zM391 369q0 -90 22.5 -124t82.5 -34q58 0 80 34t22 124v180q0 88 -22 122t-80 34q-60 0 -82.5 -34t-22.5 -122v-180z" />
<glyph unicode="7" d="M113 1096v239h772v-266q-77 -152 -118 -257.5t-79 -252.5q-75 -290 -90 -559h-365q29 252 139 558t255 538h-514z" />
<glyph unicode="8" d="M68 379q0 165 40 234t152 98q-96 25 -138 92.5t-42 197.5q0 359 418 359q417 0 417 -359q0 -130 -42 -197.5t-138 -92.5q112 -29 152.5 -98.5t40.5 -233.5q0 -209 -102 -304t-328 -95t-328 95t-102 304zM389 401q0 -109 23 -149.5t86 -40.5t85.5 40.5t22.5 149.5 q0 107 -23.5 148t-84.5 41q-63 0 -86 -40.5t-23 -148.5zM393 977q0 -80 24.5 -117t76.5 -37t76 37t24 117q0 78 -24 114.5t-76 36.5t-76.5 -36.5t-24.5 -114.5z" />
<glyph unicode="9" d="M72 778v142q0 230 103 335t327 105q231 0 332 -113q51 -57 69.5 -140.5t18.5 -250.5v-338q0 -181 -21 -269.5t-78 -150.5q-52 -57 -139 -87.5t-195 -30.5q-211 0 -307 83t-104 271h309q3 -66 26 -93.5t76 -27.5q60 0 85.5 41t25.5 139v121q-66 -58 -121.5 -81t-130.5 -23 q-63 0 -117 22t-88 60q-40 44 -55.5 108t-15.5 178zM393 791q0 -88 22.5 -122t82.5 -34q58 0 80 34t22 122v180q0 89 -22 123t-80 34q-60 0 -82.5 -34t-22.5 -123v-180z" />
<glyph unicode=":" horiz-adv-x="415" d="M74 0v297h266v-297h-266zM74 741v297h266v-297h-266z" />
<glyph unicode=";" horiz-adv-x="415" d="M74 0v297h266v-334l-266 -237v165l125 109h-125zM74 741v297h266v-297h-266z" />
<glyph unicode="&#x3c;" horiz-adv-x="1024" d="M68 549v287l886 477v-342l-524 -281l524 -280v-338z" />
<glyph unicode="=" d="M82 358v246h833v-246h-833zM82 762v246h833v-246h-833z" />
<glyph unicode="&#x3e;" horiz-adv-x="1024" d="M68 72v340l524 280l-524 281v340l886 -479v-285z" />
<glyph unicode="?" horiz-adv-x="813" d="M33 932q3 118 15.5 181.5t41.5 113.5q46 76 131 116.5t199 40.5q179 0 269.5 -82t90.5 -243q0 -131 -67 -221q-4 -5 -7 -9l-6 -8t-9.5 -10.5t-13 -13.5t-19.5 -20.5l-26 -27t-37 -38t-48 -49.5q-69 -73 -93.5 -120t-31.5 -122h-234q1 122 46 204t190 232q57 59 76.5 95 t19.5 85q0 64 -28.5 99.5t-81.5 35.5q-97 0 -119 -94q-8 -25 -8 -145h-250zM160 0v297h266v-297h-266z" />
<glyph unicode="@" horiz-adv-x="1320" d="M82 684q0 194 79 355.5t216 254t303 92.5q117 0 221 -46.5t178 -127t117 -192.5t43 -238q0 -133 -44.5 -246.5t-120.5 -180t-165 -66.5q-99 0 -139 88q-73 -82 -166 -82q-100 0 -166.5 88t-66.5 219q0 168 86.5 285t210.5 117q43 0 71.5 -15.5t63.5 -58.5l12 53h162 l-80 -416q-10 -58 -10 -78q0 -49 41 -49q37 0 73 49t58 127.5t22 159.5q0 201 -112.5 327t-292.5 126q-117 0 -215.5 -73t-155.5 -198.5t-57 -273.5q0 -246 122 -396.5t322 -150.5q97 0 178.5 24t178.5 81l49 -158q-190 -104 -404 -104q-177 0 -316.5 89.5t-217.5 250.5 t-78 364zM551 612q0 -71 21.5 -114t56.5 -43q49 0 84 70.5t35 170.5q0 61 -18 96.5t-50 38.5q-49 4 -89 -63.5t-40 -155.5z" />
<glyph unicode="A" horiz-adv-x="1032" d="M10 0l271 1366h473l268 -1366h-340l-33 215h-268l-33 -215h-338zM412 446h202l-104 697z" />
<glyph unicode="B" horiz-adv-x="1056" d="M100 0v1366h473q212 0 297.5 -83t85.5 -286q0 -141 -39.5 -200.5t-146.5 -81.5q69 -8 108 -24.5t64 -55.5t33 -97.5t8 -158.5q0 -206 -81 -292.5t-273 -86.5h-529zM428 231h96q76 0 107 39t31 136q0 95 -31 133.5t-107 38.5h-96v-347zM428 809h92q72 0 100.5 36t28.5 128 q0 91 -28.5 126.5t-100.5 35.5h-92v-326z" />
<glyph unicode="C" horiz-adv-x="1048" d="M88 420v526q0 134 23.5 210t81.5 130q112 100 339 100q225 0 338 -94q57 -50 81 -121t24 -198v-96h-328v124q0 78 -27.5 114t-87.5 36q-61 0 -88.5 -36t-27.5 -114v-636q0 -78 27.5 -114t88.5 -36q60 0 87.5 36t27.5 114v186h328v-131q0 -133 -24 -209t-81 -129 q-114 -102 -338 -102q-225 0 -339 102q-57 53 -81 129t-24 209z" />
<glyph unicode="D" horiz-adv-x="1067" d="M100 0v1366h463q235 0 325.5 -94t90.5 -340v-498q0 -243 -91.5 -338.5t-324.5 -95.5h-463zM428 231h82q83 0 112 37.5t29 143.5v542q0 106 -29 143.5t-112 37.5h-82v-904z" />
<glyph unicode="E" horiz-adv-x="870" d="M100 0v1366h680v-250h-352v-297h334v-250h-334v-319h383v-250h-711z" />
<glyph unicode="F" horiz-adv-x="835" d="M100 0v1366h695v-250h-367v-301h332v-250h-332v-565h-328z" />
<glyph unicode="G" horiz-adv-x="1052" d="M88 422v524q0 135 23.5 210.5t81.5 127.5q111 102 333 102q216 0 334 -92q57 -46 80 -114.5t23 -192.5v-63h-328v77q0 78 -26 114t-83 36q-58 0 -84 -36t-26 -114v-636q0 -77 27 -113.5t85 -36.5q115 0 115 150v161h-145v250h458v-776h-292v49q-57 -38 -109 -53.5 t-123 -15.5q-180 0 -262 102q-46 54 -64 129.5t-18 210.5z" />
<glyph unicode="H" horiz-adv-x="1054" d="M100 0v1366h328v-541h199v541h327v-1366h-327v555h-199v-555h-328z" />
<glyph unicode="I" horiz-adv-x="530" d="M100 0v1366h328v-1366h-328z" />
<glyph unicode="J" horiz-adv-x="960" d="M25 393v158h327v-207q0 -68 21.5 -98.5t68.5 -30.5q46 0 67 31t21 98v1022h328v-973q0 -127 -22 -198t-76 -121q-108 -94 -318 -94q-208 0 -319 94q-54 49 -76 121t-22 198z" />
<glyph unicode="K" horiz-adv-x="1099" d="M100 0v1366h322v-594l262 594h328l-267 -565l351 -801h-351l-227 551l-96 -172v-379h-322z" />
<glyph unicode="L" horiz-adv-x="815" d="M100 0v1366h328v-1116h363v-250h-691z" />
<glyph unicode="M" horiz-adv-x="1423" d="M100 0v1366h486l125 -813l129 813h481v-1366h-287l17 1081l-199 -1081h-287l-198 1081l16 -1081h-283z" />
<glyph unicode="N" horiz-adv-x="1136" d="M100 0v1366h363l297 -913l-6 913h280v-1366h-354l-305 883l6 -883h-281z" />
<glyph unicode="O" horiz-adv-x="1044" d="M88 381v604q0 109 20 176t66 113q112 112 348 112t348 -112q46 -46 66 -113t20 -176v-604q0 -109 -20 -176t-66 -113q-112 -112 -348 -112t-348 112q-46 46 -66 113t-20 176zM416 367q0 -144 106 -144q107 0 107 144v632q0 144 -107 144q-106 0 -106 -144v-632z" />
<glyph unicode="P" horiz-adv-x="995" d="M100 0v1366h478q215 0 299 -89.5t84 -318.5q0 -228 -85 -318.5t-298 -90.5h-150v-549h-328zM428 780h82q77 0 103 36t26 142q0 104 -26.5 140.5t-102.5 36.5h-82v-355z" />
<glyph unicode="Q" horiz-adv-x="1071" d="M100 379v606q0 109 20 176t66 113q115 112 349 112q236 0 348 -112q46 -46 66 -113t20 -176v-606q0 -186 -72.5 -274t-249.5 -117v-11q0 -31 10.5 -41t44.5 -10h84v-211h-178q-105 0 -145.5 34t-40.5 122v117q-177 29 -249.5 117t-72.5 274zM428 367q0 -146 107 -146 q106 0 106 146v632q0 144 -106 144q-107 0 -107 -144v-632z" />
<glyph unicode="R" horiz-adv-x="1087" d="M100 0v1366h469q224 0 314 -77.5t90 -270.5q0 -147 -35.5 -210t-132.5 -91q91 -19 126.5 -77t35.5 -187v-269q0 -68 12 -106.5t47 -77.5h-346q-35 60 -35 133v252q0 186 -137 186h-80v-571h-328zM428 803h78q71 0 108 44.5t37 129.5q0 158 -131 158h-92v-332z" />
<glyph unicode="S" d="M49 338v137h328v-137q0 -57 32.5 -90t88.5 -33q54 0 85 34t31 93q0 90 -102 162l-231 164q-113 82 -162 162.5t-49 185.5q0 182 110 276t322 94q209 0 311 -84.5t102 -257.5v-104h-327v104q0 107 -94 107q-43 0 -70 -26.5t-27 -69.5q0 -49 27.5 -87t101.5 -89l211 -152 q114 -80 159.5 -157.5t45.5 -194.5q0 -395 -450 -395q-217 0 -330 91.5t-113 266.5z" />
<glyph unicode="T" horiz-adv-x="923" d="M18 1116v250h889v-250h-280v-1116h-328v1116h-281z" />
<glyph unicode="U" horiz-adv-x="1087" d="M100 420v946h328v-995q0 -77 28 -112.5t89 -35.5q60 0 87 35.5t27 112.5v995h328v-946q0 -136 -23 -211t-81 -129q-112 -100 -338 -100q-225 0 -340 100q-58 54 -81.5 130t-23.5 210z" />
<glyph unicode="V" horiz-adv-x="933" d="M25 1366h337l105 -1032l106 1032h336l-221 -1366h-440z" />
<glyph unicode="W" horiz-adv-x="1474" d="M31 1366h321l97 -956l129 956h319l133 -956l96 956h316l-207 -1366h-358l-140 836l-129 -836h-368z" />
<glyph unicode="X" horiz-adv-x="923" d="M0 0l248 700l-246 666h346l111 -416l110 416h340l-247 -666l260 -700h-324l-139 459l-131 -459h-328z" />
<glyph unicode="Y" horiz-adv-x="917" d="M-2 1366h336l123 -510l121 510h344l-299 -856v-510h-328v510z" />
<glyph unicode="Z" horiz-adv-x="921" d="M43 0v238l459 878h-404v250h781v-244l-467 -872h467v-250h-836z" />
<glyph unicode="[" horiz-adv-x="550" d="M88 -281v1647h391v-184h-125v-1278h125v-185h-391z" />
<glyph unicode="\" horiz-adv-x="763" d="M10 1366h178l684 -1647h-178z" />
<glyph unicode="]" horiz-adv-x="550" d="M74 -96h125v1278h-125v184h391v-1647h-391v185z" />
<glyph unicode="^" horiz-adv-x="1024" d="M23 707l299 667h380l299 -667h-301l-188 438l-188 -438h-301z" />
<glyph unicode="_" horiz-adv-x="1024" d="M0 -111h1024v-200h-1024v200z" />
<glyph unicode="`" horiz-adv-x="1024" d="M238 1417h309l76 -266h-191z" />
<glyph unicode="a" horiz-adv-x="907" d="M61 281q0 75 7 117.5t34 80.5t69 65t122 66l78 39q82 39 115.5 74t33.5 78q0 80 -69 80q-35 0 -49.5 -27t-14.5 -92v-43h-303q-4 46 -4 59q0 141 93 210t284 69q216 0 301 -82q35 -35 49 -92t14 -164v-719h-301v86q-58 -63 -101 -83.5t-114 -20.5q-126 0 -185 72.5 t-59 226.5zM383 311q0 -77 8.5 -102t36.5 -25q42 0 92 78v287l-47 -31q-42 -28 -59.5 -50t-24 -55t-6.5 -102z" />
<glyph unicode="b" horiz-adv-x="933" d="M86 0v1366h313v-428q91 119 234 119q62 0 112 -25t76 -69q26 -41 35.5 -96.5t9.5 -161.5v-371q0 -106 -9.5 -162.5t-35.5 -95.5q-28 -43 -78.5 -68.5t-109.5 -25.5q-146 0 -234 124v-106h-313zM399 332q0 -69 17.5 -97t60.5 -28q41 0 58.5 28t17.5 97v375q0 69 -17 96.5 t-59 27.5q-43 0 -60.5 -27.5t-17.5 -96.5v-375z" />
<glyph unicode="c" horiz-adv-x="925" d="M68 317v404q0 103 22 162.5t76 97.5q104 76 307 76q200 0 307 -78q52 -37 74.5 -96t22.5 -162v-43h-314v70q0 71 -19.5 98.5t-70.5 27.5t-71.5 -28t-20.5 -98v-457q0 -70 20.5 -98.5t71.5 -28.5t70.5 28t19.5 99v137h314v-111q0 -102 -22 -161t-75 -97q-106 -77 -307 -77 q-203 0 -309 77q-52 37 -74 96t-22 162z" />
<glyph unicode="d" horiz-adv-x="931" d="M68 334v371q0 106 9.5 162.5t35.5 95.5q26 43 77 68.5t109 25.5q142 0 231 -119v428h314v-1366h-314v90q-87 -108 -231 -108q-58 0 -109 25.5t-77 68.5q-26 39 -35.5 95.5t-9.5 162.5zM381 342q0 -76 16.5 -105.5t59.5 -29.5q41 0 57 29.5t16 105.5v354q0 76 -16 105.5 t-57 29.5q-43 0 -59.5 -29t-16.5 -106v-354z" />
<glyph unicode="e" horiz-adv-x="944" d="M68 358v332q0 198 92.5 282.5t310.5 84.5q204 0 307 -86q54 -46 75 -110.5t21 -182.5v-184h-493v-193q0 -72 19.5 -100.5t70.5 -28.5q49 0 68.5 29t19.5 100v90h315v-33q0 -117 -21 -181.5t-75 -106.5q-104 -88 -307 -88q-206 0 -307 88q-54 44 -75 108.5t-21 179.5z M381 678h178v57q0 72 -19.5 100.5t-68.5 28.5q-51 0 -70.5 -28.5t-19.5 -100.5v-57z" />
<glyph unicode="f" horiz-adv-x="579" d="M12 834v204h125v82q0 140 52 193t190 53h194v-211h-55q-41 0 -54 -15.5t-13 -64.5v-37h122v-204h-122v-834h-314v834h-125z" />
<glyph unicode="g" horiz-adv-x="931" d="M68 414v284q0 189 55.5 274t181.5 85q70 0 119.5 -26t105.5 -91v98h314v-848q0 -158 -17 -234.5t-63 -129.5q-93 -107 -320 -107q-183 0 -268.5 68t-91.5 219h295q1 -52 19.5 -74t58.5 -22q41 0 57 27t16 96v157q-51 -58 -104.5 -84t-122.5 -26q-53 0 -100 20.5t-76 57.5 q-33 41 -46 97.5t-13 158.5zM369 420q0 -72 18 -100.5t64 -28.5q44 0 61.5 28.5t17.5 100.5v268q0 72 -17.5 100.5t-61.5 28.5q-46 0 -64 -28.5t-18 -100.5v-268z" />
<glyph unicode="h" horiz-adv-x="962" d="M86 0v1366h313v-438q59 68 119.5 98.5t136.5 30.5q57 0 103.5 -23.5t72.5 -64.5q28 -44 37 -103t9 -194v-672h-314v672q0 75 -18 104t-64 29q-44 0 -63 -30.5t-19 -102.5v-672h-313z" />
<glyph unicode="i" horiz-adv-x="485" d="M86 0v1038h313v-1038h-313zM86 1135v231h313v-231h-313z" />
<glyph unicode="j" horiz-adv-x="487" d="M-14 -76h34q38 0 52 22t14 83v1009h313v-1087q0 -140 -45.5 -186t-183.5 -46h-184v205zM86 1135v231h313v-231h-313z" />
<glyph unicode="k" horiz-adv-x="972" d="M86 0v1366h313v-748l181 420h333l-196 -454l248 -584h-328l-238 549v-549h-313z" />
<glyph unicode="l" horiz-adv-x="485" d="M86 0v1366h313v-1366h-313z" />
<glyph unicode="m" horiz-adv-x="1452" d="M86 0v1038h313v-116q58 72 118.5 103.5t137.5 31.5q71 0 120.5 -31.5t92.5 -103.5q117 135 267 135q113 0 176 -72q32 -38 43.5 -89.5t11.5 -154.5v-741h-313v674q0 73 -19 102t-65 29q-48 0 -67 -29t-19 -102v-674h-314v674q0 73 -19 102t-65 29q-48 0 -67 -29t-19 -102 v-674h-313z" />
<glyph unicode="n" horiz-adv-x="962" d="M86 0v1038h313v-110q59 68 119.5 98.5t136.5 30.5q55 0 101.5 -23.5t72.5 -64.5q28 -43 38 -101.5t10 -183.5v-684h-314v643q0 96 -16 129t-62 33q-52 0 -69 -32t-17 -130v-643h-313z" />
<glyph unicode="o" horiz-adv-x="931" d="M68 319v400q0 107 23.5 167.5t80.5 100.5q104 70 295 70q189 0 293 -70q57 -40 80.5 -100.5t23.5 -167.5v-400q0 -107 -23.5 -167.5t-80.5 -98.5q-101 -71 -293 -71q-194 0 -295 71q-57 38 -80.5 98.5t-23.5 167.5zM381 303q0 -73 19 -102t67 -29q46 0 65 29t19 102v432 q0 73 -19 102t-65 29q-48 0 -67 -29t-19 -102v-432z" />
<glyph unicode="p" horiz-adv-x="933" d="M86 -281v1319h313v-88q57 58 111.5 82.5t128.5 24.5q120 0 174 -82q31 -43 42 -103t11 -182v-321q0 -121 -7.5 -179t-29.5 -104q-25 -49 -75.5 -76.5t-118.5 -27.5q-74 0 -129.5 30t-106.5 97v-390h-313zM399 330q0 -69 17.5 -96t60.5 -27q42 0 59 27.5t17 95.5v379 q0 68 -17 95t-59 27q-43 0 -60.5 -27t-17.5 -95v-379z" />
<glyph unicode="q" horiz-adv-x="925" d="M68 344v336q0 118 12.5 182.5t44.5 108.5q29 40 79.5 63t110.5 23q75 0 121 -25.5t90 -91.5v98h314v-1319h-314v365q-99 -102 -227 -102q-131 0 -186 90q-27 44 -36 98t-9 174zM381 330q0 -69 16.5 -96t57.5 -27q40 0 55.5 27t15.5 96v379q0 69 -15.5 95.5t-55.5 26.5 q-41 0 -57.5 -26.5t-16.5 -95.5v-379z" />
<glyph unicode="r" horiz-adv-x="694" d="M86 0v1038h313v-151q75 101 129.5 134.5t141.5 33.5v-312q-35 2 -49 2q-117 0 -179 -75q-26 -30 -34.5 -63.5t-8.5 -100.5v-506h-313z" />
<glyph unicode="s" horiz-adv-x="888" d="M39 305v53h313v-53q0 -73 22.5 -103t76.5 -30q41 0 65.5 22.5t24.5 59.5q0 35 -19.5 59.5t-70.5 55.5l-191 110q-112 66 -157.5 130.5t-45.5 158.5q0 141 104 215t302 74q195 0 279.5 -70t84.5 -231v-45h-301v45q0 58 -19.5 84t-62.5 26q-37 0 -58 -19.5t-21 -53.5 t22 -59.5t80 -55.5l186 -105q109 -60 152 -119.5t43 -152.5q0 -161 -100.5 -240t-307.5 -79q-214 0 -307.5 75.5t-93.5 247.5z" />
<glyph unicode="t" horiz-adv-x="622" d="M16 834v204h129v228h314v-228h127v-204h-127v-502q0 -72 18 -96.5t72 -24.5h33v-211h-197q-52 0 -87 4t-63.5 15t-44.5 28t-27 47t-14.5 67t-3.5 91v582h-129z" />
<glyph unicode="u" horiz-adv-x="964" d="M86 313v725h313v-682q0 -72 18.5 -100.5t65.5 -28.5q46 0 64 28.5t18 100.5v682h314v-1038h-314v106q-68 -69 -124.5 -96.5t-131.5 -27.5q-110 0 -172 81q-29 41 -40 93.5t-11 156.5z" />
<glyph unicode="v" horiz-adv-x="827" d="M10 1038h320l86 -780l88 780h315l-196 -1038h-410z" />
<glyph unicode="w" horiz-adv-x="1341" d="M10 1038h316l92 -770l108 770h297l131 -770l78 770h301l-182 -1038h-385l-84 496l-76 -496h-387z" />
<glyph unicode="x" horiz-adv-x="894" d="M-29 0l271 526l-242 512h330l104 -293l111 293h332l-250 -512l272 -526h-328l-139 334l-121 -334h-340z" />
<glyph unicode="y" horiz-adv-x="862" d="M10 1038h328l68 -557q13 -107 24 -305l2 23q6 107 8 143q2 28 9 80t8 59l80 557h317l-246 -1097q-17 -77 -32.5 -116.5t-48.5 -66t-77.5 -33t-127.5 -6.5h-222v226h58q86 0 86 67q0 23 -11 64z" />
<glyph unicode="z" horiz-adv-x="811" d="M27 0v227l395 607h-342v204h694v-241l-381 -578h381v-219h-747z" />
<glyph unicode="{" horiz-adv-x="706" d="M51 451v184q59 14 86 53.5t27 112.5v276q0 94 24 152t78 92q59 38 144 41l36 2h35h37l23 2h22h23h45v-184h-29q-57 0 -88 -5t-51 -23t-26 -46t-7 -80v-235q0 -100 -25 -152t-94 -98q67 -43 93 -98t26 -156v-228q1 -103 31.5 -130t140.5 -27h29v-185h-47q-182 2 -226 9 q-101 20 -147.5 89t-46.5 199v250q0 88 -25.5 129.5t-87.5 55.5z" />
<glyph unicode="|" horiz-adv-x="1024" d="M340 -342v1708h344v-1708h-344z" />
<glyph unicode="}" horiz-adv-x="706" d="M74 -96h28q109 0 140 27.5t32 125.5v236q0 100 25 152t94 98q-67 43 -93 98t-26 156v227q-1 103 -31.5 130.5t-140.5 27.5h-28v184h47q188 -2 225 -8q101 -20 148 -89.5t47 -199.5v-250q0 -88 25 -129t87 -55v-184q-59 -14 -85.5 -53.5t-26.5 -112.5v-277 q0 -94 -24.5 -152t-78.5 -92q-57 -37 -143 -40q-12 -3 -37 -3h-72l-22 -2h-23h-22h-45v185z" />
<glyph unicode="~" horiz-adv-x="1366" d="M188 1255q60 150 136.5 220.5t179.5 70.5q63 0 225 -65q79 -32 103 -39.5t47 -7.5q40 0 71 26.5t66 91.5l164 -139q-63 -156 -136 -221.5t-182 -65.5q-46 0 -84.5 11.5t-146.5 56.5q-103 43 -146 43q-37 0 -67 -27.5t-64 -93.5z" />
<glyph unicode="&#xa1;" horiz-adv-x="415" d="M74 307l53 311h162l51 -311v-635h-266v635zM74 741v297h266v-297h-266z" />
<glyph unicode="&#xa2;" d="M92 483v402q0 169 73 239.5t271 92.5v217h121v-217q192 -15 268 -88.5t76 -243.5v-43h-313v69q0 71 -19.5 99t-70.5 28q-50 0 -67 -26t-17 -101v-456q0 -75 17 -101t67 -26q51 0 70.5 28t19.5 99v137h313v-109q0 -170 -76 -244t-268 -89v-218h-121v218q-199 23 -271.5 93 t-72.5 240z" />
<glyph unicode="&#xa3;" d="M86 1022q0 145 115.5 241.5t287.5 96.5q123 0 218 -49.5t180 -157.5l-217 -137q-65 110 -156 110q-54 0 -89.5 -33.5t-35.5 -84.5q0 -48 60 -162q49 -90 63 -133h287v-119h-260q2 -16 2 -35q0 -179 -105 -301h35q57 0 143 -22q75 -23 92.5 -27t36.5 -4q32 0 76 24 l127 -153q-91 -62 -148.5 -82.5t-138.5 -20.5q-72 0 -115 8.5t-161 45.5q-41 12 -98 12q-81 0 -179 -45v199q49 25 84 36q51 51 74 99t23 106q0 82 -45 160h-150v119h98q-60 118 -82 182t-22 127z" />
<glyph unicode="&#xa4;" d="M49 356l141 144q-49 85 -49 182q0 80 54 182l-146 144l121 120l147 -147q98 49 181 49q48 0 85 -10t93 -39l147 145l119 -118l-143 -142q55 -96 55 -186q0 -47 -10.5 -85.5t-38.5 -94.5l141 -142l-119 -120l-141 141q-93 -55 -182 -55q-93 0 -195 55l-141 -139zM344 680 q0 -63 45 -108.5t109 -45.5t108.5 44.5t44.5 109.5q0 64 -45 109t-108 45t-108.5 -45t-45.5 -109z" />
<glyph unicode="&#xa5;" d="M23 1337h323l150 -518l143 518h334l-172 -463h147v-118h-190l-68 -187h244v-118h-277v-451h-321v451h-275v118h242l-67 187h-189v118h146z" />
<glyph unicode="&#xa6;" horiz-adv-x="1024" d="M340 313h344v-655h-344v655zM340 637v729h344v-729h-344z" />
<glyph unicode="&#xa7;" d="M68 616q0 144 133 254q-76 95 -76 205q0 152 100 231.5t291 79.5q204 0 287.5 -81.5t83.5 -280.5v-35h-260v35q0 91 -27 129.5t-90 38.5q-54 0 -86.5 -27.5t-32.5 -74.5q0 -43 25 -74t98 -76l205 -131q120 -77 164.5 -139t44.5 -154q0 -74 -30 -138.5t-97 -133.5 q82 -91 82 -209q0 -163 -101 -249.5t-290 -86.5q-201 0 -296.5 88.5t-95.5 275.5v58h267v-58q0 -84 30.5 -122.5t96.5 -38.5q58 0 90 30t32 86q0 41 -24 70t-100 78l-183 117q-131 85 -186 161t-55 172zM293 653q0 -34 19 -57.5t79 -63.5l258 -172q53 62 53 107 q0 33 -20.5 57t-85.5 66l-248 162q-55 -47 -55 -99z" />
<glyph unicode="&#xa8;" horiz-adv-x="1024" d="M231 1157v266h240v-266h-240zM555 1157v266h240v-266h-240z" />
<glyph unicode="&#xa9;" horiz-adv-x="1429" d="M84 684q0 143 50.5 273t135.5 224t203 149.5t248 55.5q169 0 313.5 -94t229 -256t84.5 -352t-84.5 -352.5t-229 -257t-313.5 -94.5q-130 0 -248 55.5t-203 149.5t-135.5 224.5t-50.5 274.5zM238 684q0 -153 64.5 -282.5t175 -205t241.5 -75.5q129 0 238.5 76t173 205.5 t63.5 281.5q0 114 -37.5 218t-101.5 179t-152 119.5t-184 44.5q-131 0 -241.5 -75t-175 -204t-64.5 -282zM444 543v295q0 135 64 194.5t211 59.5q148 0 211 -55.5t63 -184.5v-61h-213v77q0 40 -14.5 57t-46.5 17q-33 0 -47.5 -17.5t-14.5 -56.5v-356q0 -74 62 -74 q32 0 46.5 17t14.5 57v113h213v-82q0 -136 -63.5 -195t-210.5 -59t-211 59.5t-64 194.5z" />
<glyph unicode="&#xaa;" horiz-adv-x="612" d="M84 995q0 73 24.5 104t110.5 68l43 21q44 19 60 31.5t16 29.5q0 27 -27 27q-13 0 -16.5 -8t-5.5 -37v-17h-193q-2 12 -2 31q0 69 57 105t164 36q123 0 168 -37.5t45 -138.5v-366h-190v26q-39 -34 -107 -34q-75 0 -111 38.5t-36 120.5zM94 612v131h434v-131h-434z M287 1010q0 -32 2.5 -42t11.5 -10q16 0 37 31v115l-8 -4q-29 -17 -36 -31.5t-7 -58.5z" />
<glyph unicode="&#xab;" horiz-adv-x="794" d="M47 547l158 233h215l-156 -233l156 -234h-215zM362 547l158 233h215l-155 -233l155 -234h-215z" />
<glyph unicode="&#xac;" horiz-adv-x="1024" d="M68 301v301h886v-602h-333v301h-553z" />
<glyph unicode="&#xad;" horiz-adv-x="618" d="M0 420v252h618v-252h-618z" />
<glyph unicode="&#xae;" horiz-adv-x="1429" d="M84 684q0 143 50.5 273t135.5 224t203 149.5t248 55.5q169 0 313.5 -94t229 -256t84.5 -352t-84.5 -352.5t-229 -257t-313.5 -94.5q-130 0 -248 55.5t-203 149.5t-135.5 224.5t-50.5 274.5zM238 684q0 -153 64.5 -282.5t175 -205t241.5 -75.5q129 0 238.5 76t173 205.5 t63.5 281.5q0 114 -37.5 218t-101.5 179t-152 119.5t-184 44.5q-131 0 -241.5 -75t-175 -204t-64.5 -282zM442 301v780h289q138 0 194 -45t56 -157q0 -76 -16 -110.5t-62 -57.5q41 -19 57.5 -51.5t16.5 -98.5v-149q0 -40 8.5 -61t36.5 -50h-229q-25 40 -25 84v139 q0 97 -72 97h-41v-320h-213zM655 766h37q38 0 59 22.5t21 63.5q0 44 -16.5 64t-53.5 20h-47v-170z" />
<glyph unicode="&#xaf;" horiz-adv-x="1024" d="M240 1204v174h546v-174h-546z" />
<glyph unicode="&#xb0;" horiz-adv-x="819" d="M102 1096q0 127 91 218t219 91q131 0 218 -89t87 -222q0 -132 -89 -223t-218 -91t-218.5 91.5t-89.5 224.5zM217 1087q0 -75 56.5 -132.5t129.5 -57.5q84 0 140.5 55.5t56.5 137.5q0 85 -54.5 141.5t-137.5 56.5q-80 0 -135.5 -58.5t-55.5 -142.5z" />
<glyph unicode="&#xb1;" horiz-adv-x="1124" d="M20 741v113h486v502h112v-502h486v-113h-486v-477h-112v477h-486zM23 0v113h1073v-113h-1073z" />
<glyph unicode="&#xb2;" horiz-adv-x="684" d="M57 545q1 76 7 118.5t31 89t63 86t114 107.5q79 71 107.5 112t28.5 83q0 32 -16.5 49.5t-45.5 17.5q-35 0 -49 -21.5t-14 -78.5v-59h-226v43q0 133 74 201.5t219 68.5q137 0 207 -56.5t70 -166.5q0 -87 -28.5 -135t-131.5 -136q-71 -59 -102.5 -91.5t-51.5 -67.5h316 v-164h-572z" />
<glyph unicode="&#xb3;" horiz-adv-x="684" d="M57 768v70h226v-70q0 -47 12.5 -65.5t46.5 -18.5t46.5 22t12.5 80q0 74 -20 96.5t-84 22.5h-61v137h43q68 0 92 20t24 75q0 43 -10.5 59t-38.5 16q-31 0 -45 -17.5t-14 -55.5v-37h-226v37q0 109 72.5 166t210.5 57q146 0 207 -51t61 -174q0 -70 -21.5 -104t-80.5 -56 q63 -14 90 -54.5t27 -123.5q0 -139 -68.5 -201.5t-220.5 -62.5q-143 0 -212 57.5t-69 175.5z" />
<glyph unicode="&#xb4;" horiz-adv-x="1024" d="M401 1151l76 266h309l-196 -266h-189z" />
<glyph unicode="&#xb5;" horiz-adv-x="1179" d="M68 -307q0 44 4.5 71.5t29.5 120.5q25 95 25 156v983h180v-678q0 -107 49.5 -167t137.5 -60q66 0 120.5 35.5t108.5 113.5v756h182v-756q0 -83 28 -133.5t73 -50.5q37 0 66.5 40.5t33.5 98.5l55 -2q-22 -120 -85 -184t-161 -64q-76 0 -120.5 45t-69.5 146 q-164 -191 -317 -191q-52 0 -94 20t-107 75q0 -61 4 -91t20 -86q26 -88 32.5 -121.5t6.5 -66.5q0 -69 -28 -110.5t-74 -41.5q-43 0 -71.5 41t-28.5 101z" />
<glyph unicode="&#xb6;" d="M35 969q0 217 71.5 307t243.5 90h547v-1647h-199v1477h-123v-1477h-198v830h-27q-178 0 -246.5 91.5t-68.5 328.5z" />
<glyph unicode="&#xb7;" horiz-adv-x="415" d="M74 397v297h266v-297h-266z" />
<glyph unicode="&#xb8;" horiz-adv-x="1024" d="M358 -346l23 100q71 -35 111 -35q53 0 53 52q0 20 -11.5 32.5t-31.5 12.5q-14 0 -51 -15l-54 49l70 150h119l-41 -86h12q57 0 96 -38t39 -95q0 -69 -50.5 -116.5t-125.5 -47.5q-77 0 -158 37z" />
<glyph unicode="&#xb9;" horiz-adv-x="684" d="M160 1153v125q48 6 75 22.5t46 49.5h198v-803h-225v606h-94z" />
<glyph unicode="&#xba;" horiz-adv-x="632" d="M84 612v131h465v-131h-465zM84 1014v196q0 92 55 134t178 42t177.5 -41t54.5 -135v-196q0 -94 -55 -136t-177 -42q-123 0 -178 42t-55 136zM283 1006q0 -31 7 -41.5t27 -10.5t26.5 10.5t6.5 41.5v213q0 29 -6.5 39t-26.5 10t-27 -10t-7 -39v-213z" />
<glyph unicode="&#xbb;" horiz-adv-x="794" d="M59 313l156 234l-156 233h215l158 -233l-158 -234h-215zM375 313l155 234l-155 233h215l158 -233l-158 -234h-215z" />
<glyph unicode="&#xbc;" horiz-adv-x="1611" d="M160 1153v125q48 6 75 22.5t46 49.5h198v-803h-225v606h-94zM444 0l566 1366h155l-565 -1366h-156zM975 172v143l278 488h246v-481h64v-150h-64v-172h-203v172h-321zM1161 322h135v145q0 71 2 104q-6 -11 -53 -96z" />
<glyph unicode="&#xbd;" horiz-adv-x="1611" d="M160 1153v125q48 6 75 22.5t46 49.5h198v-803h-225v606h-94zM444 0l566 1366h155l-565 -1366h-156zM985 0q1 100 16.5 154.5t56.5 105.5t142 141q78 69 106.5 109.5t28.5 83.5q0 32 -16 50t-45 18q-35 0 -49.5 -22t-14.5 -79v-59h-225v43q0 133 74 201.5t219 68.5 q276 0 276 -223q0 -86 -28 -134t-131 -134q-70 -58 -102 -91t-52 -69h315v-164h-571z" />
<glyph unicode="&#xbe;" horiz-adv-x="1611" d="M57 768v70h226v-70q0 -47 12.5 -65.5t46.5 -18.5t46.5 22t12.5 80q0 74 -20 96.5t-84 22.5h-61v137h43q68 0 92 20t24 75q0 43 -10.5 59t-38.5 16q-31 0 -45 -17.5t-14 -55.5v-37h-226v37q0 109 72.5 166t210.5 57q146 0 207 -51t61 -174q0 -70 -21.5 -104t-80.5 -56 q63 -14 90 -54.5t27 -123.5q0 -139 -68.5 -201.5t-220.5 -62.5q-143 0 -212 57.5t-69 175.5zM444 0l566 1366h155l-565 -1366h-156zM975 172v143l278 488h246v-481h64v-150h-64v-172h-203v172h-321zM1161 322h135v145q0 71 2 104q-6 -11 -53 -96z" />
<glyph unicode="&#xbf;" horiz-adv-x="813" d="M33 -20q0 100 31.5 163t132.5 164q123 125 154 175t40 139h236q-3 -125 -47.5 -206.5t-190.5 -232.5q-57 -58 -76.5 -95t-19.5 -85q0 -65 29.5 -100t83.5 -35q93 0 118 94q6 24 8 145h248q-2 -116 -14 -179.5t-43 -112.5q-46 -76 -131 -117t-199 -41q-178 0 -269 82 t-91 242zM387 741v297h266v-297h-266z" />
<glyph unicode="&#xc0;" horiz-adv-x="1032" d="M10 0l271 1366h473l268 -1366h-340l-33 215h-268l-33 -215h-338zM254 1726h272l88 -268h-176zM412 446h202l-104 697z" />
<glyph unicode="&#xc1;" horiz-adv-x="1032" d="M10 0l271 1366h473l268 -1366h-340l-33 215h-268l-33 -215h-338zM412 446h202l-104 697zM418 1458l88 268h272l-184 -268h-176z" />
<glyph unicode="&#xc2;" horiz-adv-x="1032" d="M10 0l271 1366h473l268 -1366h-340l-33 215h-268l-33 -215h-338zM219 1464l166 262h264l162 -262h-225l-66 117l-76 -117h-225zM412 446h202l-104 697z" />
<glyph unicode="&#xc3;" horiz-adv-x="1032" d="M10 0l271 1366h473l268 -1366h-340l-33 215h-268l-33 -215h-338zM197 1575q75 91 121.5 122.5t105.5 31.5q28 0 57 -9t105 -41q42 -18 76 -18q20 0 37.5 9.5t48.5 37.5l88 -90q-87 -91 -134 -121.5t-104 -30.5q-31 0 -63 11.5t-99 46.5q-35 14 -61 14t-46 -11t-46 -40z M412 446h202l-104 697z" />
<glyph unicode="&#xc4;" horiz-adv-x="1032" d="M10 0l271 1366h473l268 -1366h-340l-33 215h-268l-33 -215h-338zM233 1458v268h240v-268h-240zM412 446h202l-104 697zM557 1458v268h240v-268h-240z" />
<glyph unicode="&#xc5;" horiz-adv-x="1032" d="M10 0l271 1366h473l268 -1366h-340l-33 215h-268l-33 -215h-338zM322 1638q0 80 57.5 137.5t136.5 57.5q82 0 138.5 -56.5t56.5 -138.5q0 -79 -57.5 -136.5t-137.5 -57.5t-137 57t-57 137zM412 446h202l-104 697zM438 1638q0 -32 23 -54.5t55 -22.5t55 22.5t23 54.5 t-23 55t-55 23t-55 -23t-23 -55z" />
<glyph unicode="&#xc6;" horiz-adv-x="1355" d="M6 0l340 1366h922v-250h-355v-297h336v-250h-336v-319h385v-250h-712v217h-217l-50 -217h-313zM420 449h166v694h-15z" />
<glyph unicode="&#xc7;" horiz-adv-x="1048" d="M88 420v526q0 134 23.5 210t81.5 130q112 100 339 100q225 0 338 -94q57 -50 81 -121t24 -198v-96h-328v124q0 78 -27.5 114t-87.5 36q-61 0 -88.5 -36t-27.5 -114v-636q0 -78 27.5 -114t88.5 -36q60 0 87.5 36t27.5 114v186h328v-131q0 -225 -86.5 -324t-296.5 -114 l-33 -68h12q57 0 96.5 -38t39.5 -95q0 -69 -51 -116.5t-126 -47.5q-76 0 -157 37l22 100q71 -35 111 -35q53 0 53 52q0 20 -11.5 32.5t-31.5 12.5q-14 0 -51 -15l-53 49l61 132q-215 19 -300 115.5t-85 322.5z" />
<glyph unicode="&#xc8;" horiz-adv-x="870" d="M100 0v1366h680v-250h-352v-297h334v-250h-334v-319h383v-250h-711zM174 1726h272l89 -268h-177z" />
<glyph unicode="&#xc9;" horiz-adv-x="870" d="M100 0v1366h680v-250h-352v-297h334v-250h-334v-319h383v-250h-711zM338 1458l88 268h272l-184 -268h-176z" />
<glyph unicode="&#xca;" horiz-adv-x="870" d="M100 0v1366h680v-250h-352v-297h334v-250h-334v-319h383v-250h-711zM139 1464l166 262h264l162 -262h-225l-66 117l-75 -117h-226z" />
<glyph unicode="&#xcb;" horiz-adv-x="870" d="M100 0v1366h680v-250h-352v-297h334v-250h-334v-319h383v-250h-711zM154 1458v268h239v-268h-239zM477 1458v268h240v-268h-240z" />
<glyph unicode="&#xcc;" horiz-adv-x="530" d="M4 1726h272l89 -268h-177zM102 0v1366h328v-1366h-328z" />
<glyph unicode="&#xcd;" horiz-adv-x="530" d="M100 0v1366h328v-1366h-328zM166 1458l88 268h272l-184 -268h-176z" />
<glyph unicode="&#xce;" horiz-adv-x="530" d="M-31 1464l166 262h264l162 -262h-225l-66 117l-75 -117h-226zM102 0v1366h328v-1366h-328z" />
<glyph unicode="&#xcf;" horiz-adv-x="530" d="M6 1458v268h219v-268h-219zM100 0v1366h328v-1366h-328zM303 1458v268h219v-268h-219z" />
<glyph unicode="&#xd0;" horiz-adv-x="1067" d="M23 569v250h79v547h463q234 0 324 -94.5t90 -341.5v-496q0 -243 -91 -338.5t-323 -95.5h-463v569h-79zM430 231h82q83 0 111 37.5t28 143.5v542q0 106 -28 143.5t-111 37.5h-82v-316h119v-250h-119v-338z" />
<glyph unicode="&#xd1;" horiz-adv-x="1136" d="M100 0v1366h363l297 -913l-6 913h280v-1366h-354l-305 883l6 -883h-281zM248 1575q75 91 121.5 122.5t105.5 31.5q28 0 57 -9t105 -41q42 -18 76 -18q20 0 37.5 9.5t48.5 37.5l88 -90q-87 -91 -134 -121.5t-104 -30.5q-31 0 -63 11.5t-99 46.5q-35 14 -61 14t-46 -11 t-46 -40z" />
<glyph unicode="&#xd2;" horiz-adv-x="1044" d="M88 381v604q0 109 20 176t66 113q112 112 348 112t348 -112q46 -46 66 -113t20 -176v-604q0 -109 -20 -176t-66 -113q-112 -112 -348 -112t-348 112q-46 46 -66 113t-20 176zM260 1726h272l89 -268h-177zM416 367q0 -144 106 -144q107 0 107 144v632q0 144 -107 144 q-106 0 -106 -144v-632z" />
<glyph unicode="&#xd3;" horiz-adv-x="1044" d="M88 381v604q0 109 20 176t66 113q112 112 348 112t348 -112q46 -46 66 -113t20 -176v-604q0 -109 -20 -176t-66 -113q-112 -112 -348 -112t-348 112q-46 46 -66 113t-20 176zM416 367q0 -144 106 -144q107 0 107 144v632q0 144 -107 144q-106 0 -106 -144v-632zM424 1458 l88 268h272l-184 -268h-176z" />
<glyph unicode="&#xd4;" horiz-adv-x="1044" d="M88 381v604q0 109 20 176t66 113q112 112 348 112t348 -112q46 -46 66 -113t20 -176v-604q0 -109 -20 -176t-66 -113q-112 -112 -348 -112t-348 112q-46 46 -66 113t-20 176zM227 1464l166 262h264l162 -262h-225l-66 117l-75 -117h-226zM416 367q0 -144 106 -144 q107 0 107 144v632q0 144 -107 144q-106 0 -106 -144v-632z" />
<glyph unicode="&#xd5;" horiz-adv-x="1044" d="M88 381v604q0 109 20 176t66 113q112 112 348 112t348 -112q46 -46 66 -113t20 -176v-604q0 -109 -20 -176t-66 -113q-112 -112 -348 -112t-348 112q-46 46 -66 113t-20 176zM203 1575q75 91 121.5 122.5t105.5 31.5q28 0 57 -9t105 -41q42 -18 76 -18q20 0 37.5 9.5 t48.5 37.5l88 -90q-87 -91 -134 -121.5t-104 -30.5q-31 0 -63 11.5t-99 46.5q-35 14 -61 14t-46 -11t-46 -40zM416 367q0 -144 106 -144q107 0 107 144v632q0 144 -107 144q-106 0 -106 -144v-632z" />
<glyph unicode="&#xd6;" horiz-adv-x="1044" d="M88 381v604q0 109 20 176t66 113q112 112 348 112t348 -112q46 -46 66 -113t20 -176v-604q0 -109 -20 -176t-66 -113q-112 -112 -348 -112t-348 112q-46 46 -66 113t-20 176zM242 1458v268h239v-268h-239zM416 367q0 -144 106 -144q107 0 107 144v632q0 144 -107 144 q-106 0 -106 -144v-632zM565 1458v268h240v-268h-240z" />
<glyph unicode="&#xd7;" d="M98 457l228 225l-228 227l174 174l228 -227l225 227l174 -174l-227 -227l227 -225l-174 -174l-225 227l-228 -227z" />
<glyph unicode="&#xd8;" horiz-adv-x="1044" d="M88 381v604q0 109 20 176t66 113q115 112 348 112q140 0 246 -45l70 150l100 -47l-76 -162q53 -53 73.5 -118t20.5 -179v-604q0 -109 -20 -176t-66 -113q-115 -112 -348 -112q-140 0 -246 45l-69 -150l-101 47l76 164q-52 49 -73 115t-21 180zM416 545l211 495 q-12 103 -105 103q-106 0 -106 -144v-454zM418 324q15 -101 104 -101q107 0 107 144v456z" />
<glyph unicode="&#xd9;" horiz-adv-x="1087" d="M100 420v946h328v-995q0 -77 28 -112.5t89 -35.5q60 0 87 35.5t27 112.5v995h328v-946q0 -136 -23 -211t-81 -129q-112 -100 -338 -100q-225 0 -340 100q-58 54 -81.5 130t-23.5 210zM283 1726h272l88 -268h-176z" />
<glyph unicode="&#xda;" horiz-adv-x="1087" d="M100 420v946h328v-995q0 -77 28 -112.5t89 -35.5q60 0 87 35.5t27 112.5v995h328v-946q0 -136 -23 -211t-81 -129q-112 -100 -338 -100q-225 0 -340 100q-58 54 -81.5 130t-23.5 210zM446 1458l89 268h272l-184 -268h-177z" />
<glyph unicode="&#xdb;" horiz-adv-x="1087" d="M100 420v946h328v-995q0 -77 28 -112.5t89 -35.5q60 0 87 35.5t27 112.5v995h328v-946q0 -136 -23 -211t-81 -129q-112 -100 -338 -100q-225 0 -340 100q-58 54 -81.5 130t-23.5 210zM248 1464l166 262h264l162 -262h-226l-65 117l-76 -117h-225z" />
<glyph unicode="&#xdc;" horiz-adv-x="1087" d="M100 420v946h328v-995q0 -77 28 -112.5t89 -35.5q60 0 87 35.5t27 112.5v995h328v-946q0 -136 -23 -211t-81 -129q-112 -100 -338 -100q-225 0 -340 100q-58 54 -81.5 130t-23.5 210zM262 1458v268h240v-268h-240zM586 1458v268h239v-268h-239z" />
<glyph unicode="&#xdd;" horiz-adv-x="917" d="M-2 1366h336l123 -510l121 510h344l-299 -856v-510h-328v510zM362 1458l87 268h272l-182 -268h-177z" />
<glyph unicode="&#xde;" horiz-adv-x="995" d="M100 0v1366h328v-205h150q215 0 299 -89t84 -318q0 -228 -85 -319t-298 -91h-150v-344h-328zM428 575h82q76 0 102.5 36.5t26.5 142.5q0 104 -26.5 140t-102.5 36h-82v-355z" />
<glyph unicode="&#xdf;" horiz-adv-x="964" d="M86 0v997q0 211 96 299t326 88q198 0 285.5 -70t87.5 -231q0 -103 -27 -151.5t-98 -71.5q89 -20 115 -65t26 -177v-284q0 -192 -59 -263t-220 -71h-151v205h33q48 0 66 22t18 82v361q0 65 -17 85.5t-71 20.5h-31v185h35q46 0 64 23t18 83q0 69 -19 97t-65 28 q-57 0 -78 -41.5t-21 -153.5v-997h-313z" />
<glyph unicode="&#xe0;" horiz-adv-x="907" d="M61 281q0 75 7 117.5t34 80.5t69 65t122 66l78 39q82 39 115.5 74t33.5 78q0 80 -69 80q-35 0 -49.5 -27t-14.5 -92v-43h-303q-4 46 -4 59q0 141 93 210t284 69q216 0 301 -82q35 -35 49 -92t14 -164v-719h-301v86q-58 -63 -101 -83.5t-114 -20.5q-126 0 -185 72.5 t-59 226.5zM180 1417h309l76 -266h-190zM383 311q0 -77 8.5 -102t36.5 -25q42 0 92 78v287l-47 -31q-42 -28 -59.5 -50t-24 -55t-6.5 -102z" />
<glyph unicode="&#xe1;" horiz-adv-x="907" d="M61 281q0 75 7 117.5t34 80.5t69 65t122 66l78 39q82 39 115.5 74t33.5 78q0 80 -69 80q-35 0 -49.5 -27t-14.5 -92v-43h-303q-4 46 -4 59q0 141 93 210t284 69q216 0 301 -82q35 -35 49 -92t14 -164v-719h-301v86q-58 -63 -101 -83.5t-114 -20.5q-126 0 -185 72.5 t-59 226.5zM344 1151l76 266h309l-197 -266h-188zM383 311q0 -77 8.5 -102t36.5 -25q42 0 92 78v287l-47 -31q-42 -28 -59.5 -50t-24 -55t-6.5 -102z" />
<glyph unicode="&#xe2;" horiz-adv-x="907" d="M61 281q0 75 7 117.5t34 80.5t69 65t122 66l78 39q82 39 115.5 74t33.5 78q0 80 -69 80q-35 0 -49.5 -27t-14.5 -92v-43h-303q-4 46 -4 59q0 141 93 210t284 69q216 0 301 -82q35 -35 49 -92t14 -164v-719h-301v86q-58 -63 -101 -83.5t-114 -20.5q-126 0 -185 72.5 t-59 226.5zM158 1157l166 262h264l162 -262h-226l-65 117l-76 -117h-225zM383 311q0 -77 8.5 -102t36.5 -25q42 0 92 78v287l-47 -31q-42 -28 -59.5 -50t-24 -55t-6.5 -102z" />
<glyph unicode="&#xe3;" horiz-adv-x="907" d="M61 281q0 75 7 117.5t34 80.5t69 65t122 66l78 39q82 39 115.5 74t33.5 78q0 80 -69 80q-35 0 -49.5 -27t-14.5 -92v-43h-303q-4 46 -4 59q0 141 93 210t284 69q216 0 301 -82q35 -35 49 -92t14 -164v-719h-301v86q-58 -63 -101 -83.5t-114 -20.5q-126 0 -185 72.5 t-59 226.5zM164 1270q69 83 111 111t96 28q26 0 50.5 -7.5t96.5 -35.5q39 -16 68 -16q32 0 80 43l79 -84q-80 -84 -123 -111t-98 -27q-42 0 -143 52q-22 14 -55 14q-23 0 -41 -10t-43 -37zM383 311q0 -77 8.5 -102t36.5 -25q42 0 92 78v287l-47 -31q-42 -28 -59.5 -50 t-24 -55t-6.5 -102z" />
<glyph unicode="&#xe4;" horiz-adv-x="907" d="M61 281q0 75 7 117.5t34 80.5t69 65t122 66l78 39q82 39 115.5 74t33.5 78q0 80 -69 80q-35 0 -49.5 -27t-14.5 -92v-43h-303q-4 46 -4 59q0 141 93 210t284 69q216 0 301 -82q35 -35 49 -92t14 -164v-719h-301v86q-58 -63 -101 -83.5t-114 -20.5q-126 0 -185 72.5 t-59 226.5zM172 1157v266h240v-266h-240zM383 311q0 -77 8.5 -102t36.5 -25q42 0 92 78v287l-47 -31q-42 -28 -59.5 -50t-24 -55t-6.5 -102zM496 1157v266h239v-266h-239z" />
<glyph unicode="&#xe5;" horiz-adv-x="907" d="M61 281q0 75 7 117.5t34 80.5t69 65t122 66l78 39q82 39 115.5 74t33.5 78q0 80 -69 80q-35 0 -49.5 -27t-14.5 -92v-43h-303q-4 46 -4 59q0 141 93 210t284 69q216 0 301 -82q35 -35 49 -92t14 -164v-719h-301v86q-58 -63 -101 -83.5t-114 -20.5q-126 0 -185 72.5 t-59 226.5zM260 1352q0 79 57.5 136.5t137.5 57.5q82 0 138 -56t56 -138q0 -80 -57.5 -137.5t-136.5 -57.5t-137 57.5t-58 137.5zM377 1352q0 -32 23 -55t55 -23t54.5 23t22.5 55t-22.5 55t-54.5 23t-55 -23t-23 -55zM383 311q0 -77 8.5 -102t36.5 -25q42 0 92 78v287 l-47 -31q-42 -28 -59.5 -50t-24 -55t-6.5 -102z" />
<glyph unicode="&#xe6;" horiz-adv-x="1394" d="M61 281q0 75 7 117.5t34 80.5t69 65t122 66l78 39q83 39 117 74t34 78q0 80 -71 80q-35 0 -49.5 -27t-14.5 -92v-43h-303q-4 46 -4 59q0 141 93.5 210t285.5 69q153 0 235 -39q88 39 232 39q217 0 309 -87.5t92 -291.5v-184h-491v-193q0 -72 19.5 -100.5t70.5 -28.5 q49 0 68.5 28.5t19.5 100.5v90h313v-33q0 -116 -21 -180t-73 -108q-104 -88 -307 -88q-241 0 -340 122q-67 -70 -124 -96t-145 -26q-132 0 -194 72.5t-62 226.5zM383 311q0 -78 8.5 -103.5t36.5 -25.5q44 0 94 80v287l-47 -33q-61 -38 -76.5 -72.5t-15.5 -132.5zM836 678 h178v57q0 72 -19.5 100.5t-68.5 28.5q-51 0 -70.5 -28.5t-19.5 -100.5v-57z" />
<glyph unicode="&#xe7;" horiz-adv-x="925" d="M68 317v404q0 103 22 162.5t76 97.5q104 76 307 76q200 0 307 -78q52 -37 74.5 -96t22.5 -162v-43h-314v70q0 71 -19.5 98.5t-70.5 27.5t-71.5 -28t-20.5 -98v-457q0 -70 20.5 -98.5t71.5 -28.5t70.5 28t19.5 99v137h314v-111q0 -170 -78 -245t-271 -88l-34 -70h14 q57 0 95 -38t38 -95q0 -69 -50.5 -116.5t-125.5 -47.5t-156 37l23 100q71 -35 108 -35q54 0 54 52q0 20 -11 32.5t-30 12.5q-17 0 -52 -15l-53 49l62 134q-189 15 -265.5 89t-76.5 244z" />
<glyph unicode="&#xe8;" horiz-adv-x="944" d="M68 358v332q0 198 92.5 282.5t310.5 84.5q204 0 307 -86q54 -46 75 -110.5t21 -182.5v-184h-493v-193q0 -72 19.5 -100.5t70.5 -28.5q49 0 68.5 29t19.5 100v90h315v-33q0 -117 -21 -181.5t-75 -106.5q-104 -88 -307 -88q-206 0 -307 88q-54 44 -75 108.5t-21 179.5z M197 1417h309l76 -266h-191zM381 678h178v57q0 72 -19.5 100.5t-68.5 28.5q-51 0 -70.5 -28.5t-19.5 -100.5v-57z" />
<glyph unicode="&#xe9;" horiz-adv-x="944" d="M68 358v332q0 198 92.5 282.5t310.5 84.5q204 0 307 -86q54 -46 75 -110.5t21 -182.5v-184h-493v-193q0 -72 19.5 -100.5t70.5 -28.5q49 0 68.5 29t19.5 100v90h315v-33q0 -117 -21 -181.5t-75 -106.5q-104 -88 -307 -88q-206 0 -307 88q-54 44 -75 108.5t-21 179.5z M360 1151l76 266h309l-196 -266h-189zM381 678h178v57q0 72 -19.5 100.5t-68.5 28.5q-51 0 -70.5 -28.5t-19.5 -100.5v-57z" />
<glyph unicode="&#xea;" horiz-adv-x="944" d="M68 358v332q0 198 92.5 282.5t310.5 84.5q204 0 307 -86q54 -46 75 -110.5t21 -182.5v-184h-493v-193q0 -72 19.5 -100.5t70.5 -28.5q49 0 68.5 29t19.5 100v90h315v-33q0 -117 -21 -181.5t-75 -106.5q-104 -88 -307 -88q-206 0 -307 88q-54 44 -75 108.5t-21 179.5z M174 1157l166 262h264l162 -262h-225l-66 117l-76 -117h-225zM381 678h178v57q0 72 -19.5 100.5t-68.5 28.5q-51 0 -70.5 -28.5t-19.5 -100.5v-57z" />
<glyph unicode="&#xeb;" horiz-adv-x="944" d="M68 358v332q0 198 92.5 282.5t310.5 84.5q204 0 307 -86q54 -46 75 -110.5t21 -182.5v-184h-493v-193q0 -72 19.5 -100.5t70.5 -28.5q49 0 68.5 29t19.5 100v90h315v-33q0 -117 -21 -181.5t-75 -106.5q-104 -88 -307 -88q-206 0 -307 88q-54 44 -75 108.5t-21 179.5z M190 1157v266h240v-266h-240zM381 678h178v57q0 72 -19.5 100.5t-68.5 28.5q-51 0 -70.5 -28.5t-19.5 -100.5v-57zM514 1157v266h240v-266h-240z" />
<glyph unicode="&#xec;" horiz-adv-x="485" d="M-31 1417h310l75 -266h-190zM86 0v1038h313v-1038h-313z" />
<glyph unicode="&#xed;" horiz-adv-x="485" d="M86 0v1038h313v-1038h-313zM133 1151l76 266h309l-196 -266h-189z" />
<glyph unicode="&#xee;" horiz-adv-x="485" d="M-53 1157l166 262h264l162 -262h-226l-65 117l-76 -117h-225zM86 0v1038h313v-1038h-313z" />
<glyph unicode="&#xef;" horiz-adv-x="485" d="M6 1157v266h209v-266h-209zM86 0v1038h313v-1038h-313zM272 1157v266h209v-266h-209z" />
<glyph unicode="&#xf0;" horiz-adv-x="931" d="M68 319v386q0 106 9.5 162.5t35.5 95.5q26 43 77 68.5t109 25.5q142 0 233 -119q-73 126 -139 211t-153 164l106 108q195 -140 346 -307q97 -109 134 -193t38 -202v-400q0 -107 -23.5 -167.5t-80.5 -98.5q-101 -71 -293 -71q-194 0 -295 71q-57 38 -80.5 98.5 t-23.5 167.5zM381 303q0 -72 19.5 -100.5t66.5 -28.5q46 0 65 28.5t19 100.5v432q0 73 -19 102t-65 29q-48 0 -67 -29t-19 -102v-432z" />
<glyph unicode="&#xf1;" horiz-adv-x="962" d="M86 0v1038h313v-110q59 68 119.5 98.5t136.5 30.5q55 0 101.5 -23.5t72.5 -64.5q28 -43 38 -101.5t10 -183.5v-684h-314v643q0 96 -16 129t-62 33q-52 0 -69 -32t-17 -130v-643h-313zM190 1270q69 83 111 111t96 28q26 0 51 -7.5t97 -35.5q39 -16 67 -16q32 0 80 43 l80 -84q-80 -84 -123 -111t-98 -27q-42 0 -143 52q-22 14 -56 14q-23 0 -41 -10t-43 -37z" />
<glyph unicode="&#xf2;" horiz-adv-x="931" d="M68 319v400q0 107 23.5 167.5t80.5 100.5q104 70 295 70q189 0 293 -70q57 -40 80.5 -100.5t23.5 -167.5v-400q0 -107 -23.5 -167.5t-80.5 -98.5q-101 -71 -293 -71q-194 0 -295 71q-57 38 -80.5 98.5t-23.5 167.5zM193 1417h309l76 -266h-191zM381 303q0 -73 19 -102 t67 -29q46 0 65 29t19 102v432q0 73 -19 102t-65 29q-48 0 -67 -29t-19 -102v-432z" />
<glyph unicode="&#xf3;" horiz-adv-x="931" d="M68 319v400q0 107 23.5 167.5t80.5 100.5q104 70 295 70q189 0 293 -70q57 -40 80.5 -100.5t23.5 -167.5v-400q0 -107 -23.5 -167.5t-80.5 -98.5q-101 -71 -293 -71q-194 0 -295 71q-57 38 -80.5 98.5t-23.5 167.5zM356 1151l76 266h309l-196 -266h-189zM381 303 q0 -73 19 -102t67 -29q46 0 65 29t19 102v432q0 73 -19 102t-65 29q-48 0 -67 -29t-19 -102v-432z" />
<glyph unicode="&#xf4;" horiz-adv-x="931" d="M68 319v400q0 107 23.5 167.5t80.5 100.5q104 70 295 70q189 0 293 -70q57 -40 80.5 -100.5t23.5 -167.5v-400q0 -107 -23.5 -167.5t-80.5 -98.5q-101 -71 -293 -71q-194 0 -295 71q-57 38 -80.5 98.5t-23.5 167.5zM170 1157l166 262h264l162 -262h-225l-66 117l-76 -117 h-225zM381 303q0 -73 19 -102t67 -29q46 0 65 29t19 102v432q0 73 -19 102t-65 29q-48 0 -67 -29t-19 -102v-432z" />
<glyph unicode="&#xf5;" horiz-adv-x="931" d="M68 319v400q0 107 23.5 167.5t80.5 100.5q104 70 295 70q189 0 293 -70q57 -40 80.5 -100.5t23.5 -167.5v-400q0 -107 -23.5 -167.5t-80.5 -98.5q-101 -71 -293 -71q-194 0 -295 71q-57 38 -80.5 98.5t-23.5 167.5zM176 1270q69 83 111 111t96 28q26 0 50.5 -7.5 t96.5 -35.5q39 -16 68 -16q32 0 80 43l80 -84q-80 -84 -123 -111t-98 -27q-43 0 -144 52q-22 14 -55 14q-23 0 -41 -10t-43 -37zM381 303q0 -73 19 -102t67 -29q46 0 65 29t19 102v432q0 73 -19 102t-65 29q-48 0 -67 -29t-19 -102v-432z" />
<glyph unicode="&#xf6;" horiz-adv-x="931" d="M68 319v400q0 107 23.5 167.5t80.5 100.5q104 70 295 70q189 0 293 -70q57 -40 80.5 -100.5t23.5 -167.5v-400q0 -107 -23.5 -167.5t-80.5 -98.5q-101 -71 -293 -71q-194 0 -295 71q-57 38 -80.5 98.5t-23.5 167.5zM184 1157v266h240v-266h-240zM381 303q0 -73 19 -102 t67 -29q46 0 65 29t19 102v432q0 73 -19 102t-65 29q-48 0 -67 -29t-19 -102v-432zM508 1157v266h240v-266h-240z" />
<glyph unicode="&#xf7;" horiz-adv-x="1124" d="M20 477v113h1078v-113h-1078zM432 119q0 53 37 90t90 37t90 -37t37 -90t-37 -90t-90 -37t-90 37t-37 90zM432 936q0 52 37 89.5t90 37.5t90 -37.5t37 -89.5t-37 -89.5t-90 -37.5t-90 37.5t-37 89.5z" />
<glyph unicode="&#xf8;" horiz-adv-x="931" d="M68 319v400q0 107 23.5 167.5t80.5 100.5q104 70 295 70q85 0 176 -21l76 154l112 -53l-71 -152q60 -42 82 -100t22 -166v-400q0 -107 -23.5 -167.5t-80.5 -98.5q-101 -71 -293 -71q-92 0 -176 20l-78 -158l-113 54l74 155q-60 40 -83 98.5t-23 167.5zM381 424l166 385 q-20 57 -80 57q-48 0 -67 -29t-19 -102v-311zM385 231q21 -59 82 -59q46 0 65 29t19 102v311z" />
<glyph unicode="&#xf9;" horiz-adv-x="964" d="M86 313v725h313v-682q0 -72 18.5 -100.5t65.5 -28.5q46 0 64 28.5t18 100.5v682h314v-1038h-314v106q-68 -69 -124.5 -96.5t-131.5 -27.5q-110 0 -172 81q-29 41 -40 93.5t-11 156.5zM209 1417h309l76 -266h-191z" />
<glyph unicode="&#xfa;" horiz-adv-x="964" d="M86 313v725h313v-682q0 -72 18.5 -100.5t65.5 -28.5q46 0 64 28.5t18 100.5v682h314v-1038h-314v106q-68 -69 -124.5 -96.5t-131.5 -27.5q-110 0 -172 81q-29 41 -40 93.5t-11 156.5zM373 1151l76 266h309l-197 -266h-188z" />
<glyph unicode="&#xfb;" horiz-adv-x="964" d="M86 313v725h313v-682q0 -72 18.5 -100.5t65.5 -28.5q46 0 64 28.5t18 100.5v682h314v-1038h-314v106q-68 -69 -124.5 -96.5t-131.5 -27.5q-110 0 -172 81q-29 41 -40 93.5t-11 156.5zM186 1157l166 262h264l162 -262h-225l-66 117l-75 -117h-226z" />
<glyph unicode="&#xfc;" horiz-adv-x="964" d="M86 313v725h313v-682q0 -72 18.5 -100.5t65.5 -28.5q46 0 64 28.5t18 100.5v682h314v-1038h-314v106q-68 -69 -124.5 -96.5t-131.5 -27.5q-110 0 -172 81q-29 41 -40 93.5t-11 156.5zM201 1157v266h239v-266h-239zM524 1157v266h240v-266h-240z" />
<glyph unicode="&#xfd;" horiz-adv-x="862" d="M10 1038h328l68 -557q13 -107 24 -305l2 23q6 107 8 143q2 28 9 80t8 59l80 557h317l-246 -1097q-17 -77 -32.5 -116.5t-48.5 -66t-77.5 -33t-127.5 -6.5h-222v226h58q86 0 86 67q0 23 -11 64zM322 1151l75 266h310l-197 -266h-188z" />
<glyph unicode="&#xfe;" horiz-adv-x="933" d="M86 -281v1647h313v-416q57 58 111.5 82.5t128.5 24.5q120 0 174 -82q31 -43 42 -103t11 -182v-321q0 -121 -7.5 -179t-29.5 -104q-25 -49 -75.5 -76.5t-118.5 -27.5q-74 0 -129.5 30t-106.5 97v-390h-313zM399 330q0 -67 17.5 -94t60.5 -27q42 0 59 27t17 94v379 q0 68 -17 95t-59 27q-43 0 -60.5 -27t-17.5 -95v-379z" />
<glyph unicode="&#xff;" horiz-adv-x="862" d="M10 1038h328l68 -557q13 -107 24 -305l2 23q6 107 8 143q2 28 9 80t8 59l80 557h317l-246 -1097q-17 -77 -32.5 -116.5t-48.5 -66t-77.5 -33t-127.5 -6.5h-222v226h58q86 0 86 67q0 23 -11 64zM152 1157v266h239v-266h-239zM475 1157v266h240v-266h-240z" />
<glyph unicode="&#x152;" horiz-adv-x="1382" d="M100 381v539q0 114 16.5 187.5t53.5 129.5q47 71 129.5 110t183.5 39q66 0 193 -16q46 -4 61 -4h553v-250h-352v-297h336v-250h-336v-319h385v-250h-608q-34 0 -92 -10q-45 -10 -129 -10q-127 0 -223 48.5t-134 131.5q-14 33 -25.5 100t-11.5 121zM428 340 q0 -59 23.5 -92t66.5 -33q49 0 70.5 29.5t21.5 95.5v674q0 74 -20.5 105.5t-69.5 31.5q-48 0 -70 -32.5t-22 -104.5v-674z" />
<glyph unicode="&#x153;" horiz-adv-x="1425" d="M68 317v402q0 107 23.5 167.5t80.5 98.5q103 72 293 72q142 0 244 -45q101 45 243 45q218 0 311 -87.5t93 -291.5v-184h-494v-193q0 -72 19.5 -100.5t70.5 -28.5t70.5 28.5t19.5 100.5v90h314v-33q0 -116 -21 -180t-73 -108q-104 -88 -310 -88q-134 0 -241 45 q-102 -45 -246 -45q-190 0 -293 69q-57 40 -80.5 100t-23.5 166zM381 301q0 -72 19 -100.5t65 -28.5q47 0 65.5 28.5t18.5 100.5v434q0 72 -18.5 100.5t-65.5 28.5q-46 0 -65 -28.5t-19 -100.5v-434zM862 678h180v57q0 72 -19.5 100.5t-70.5 28.5t-70.5 -28.5t-19.5 -100.5 v-57z" />
<glyph unicode="&#x178;" horiz-adv-x="917" d="M-2 1366h336l123 -510l121 510h344l-299 -856v-510h-328v510zM178 1458v268h240v-268h-240zM502 1458v268h239v-268h-239z" />
<glyph unicode="&#x2c6;" horiz-adv-x="1024" d="M215 1157l166 262h264l162 -262h-225l-66 117l-76 -117h-225z" />
<glyph unicode="&#x2dc;" horiz-adv-x="1024" d="M221 1270q69 83 111 111t96 28q26 0 50.5 -7.5t96.5 -35.5q39 -16 68 -16q32 0 80 43l80 -84q-80 -84 -123 -111t-98 -27q-43 0 -144 52q-22 14 -55 14q-23 0 -41 -10t-43 -37z" />
<glyph unicode="&#x2000;" horiz-adv-x="916" />
<glyph unicode="&#x2001;" horiz-adv-x="1833" />
<glyph unicode="&#x2002;" horiz-adv-x="916" />
<glyph unicode="&#x2003;" horiz-adv-x="1833" />
<glyph unicode="&#x2004;" horiz-adv-x="611" />
<glyph unicode="&#x2005;" horiz-adv-x="458" />
<glyph unicode="&#x2006;" horiz-adv-x="305" />
<glyph unicode="&#x2007;" horiz-adv-x="305" />
<glyph unicode="&#x2008;" horiz-adv-x="229" />
<glyph unicode="&#x2009;" horiz-adv-x="366" />
<glyph unicode="&#x200a;" horiz-adv-x="101" />
<glyph unicode="&#x2010;" horiz-adv-x="618" d="M0 420v252h618v-252h-618z" />
<glyph unicode="&#x2011;" horiz-adv-x="618" d="M0 420v252h618v-252h-618z" />
<glyph unicode="&#x2012;" horiz-adv-x="618" d="M0 420v252h618v-252h-618z" />
<glyph unicode="&#x2013;" d="M82 420v252h831v-252h-831z" />
<glyph unicode="&#x2014;" horiz-adv-x="1280" d="M0 420v252h1280v-252h-1280z" />
<glyph unicode="&#x2018;" horiz-adv-x="415" d="M74 815v336l266 235v-165l-119 -109h119v-297h-266z" />
<glyph unicode="&#x2019;" horiz-adv-x="403" d="M68 795v166l118 108h-118v297h266v-336z" />
<glyph unicode="&#x201a;" horiz-adv-x="403" d="M68 0v297h266v-336l-266 -235v165l118 109h-118z" />
<glyph unicode="&#x201c;" horiz-adv-x="739" d="M74 815v336l266 235v-165l-119 -109h119v-297h-266zM399 815v336l267 235v-165l-119 -109h119v-297h-267z" />
<glyph unicode="&#x201d;" horiz-adv-x="739" d="M74 795v166l119 108h-119v297h266v-336zM399 795v166l119 108h-119v297h267v-336z" />
<glyph unicode="&#x201e;" horiz-adv-x="739" d="M74 0v297h266v-336l-266 -235v165l119 109h-119zM399 0v297h267v-336l-267 -235v165l119 109h-119z" />
<glyph unicode="&#x2022;" horiz-adv-x="1366" d="M401 694q0 117 83.5 200t203.5 83q116 0 198.5 -83t82.5 -200t-82.5 -200.5t-198.5 -83.5q-120 0 -203.5 82.5t-83.5 201.5z" />
<glyph unicode="&#x2026;" horiz-adv-x="1245" d="M74 0v297h266v-297h-266zM489 0v297h267v-297h-267zM903 0v297h266v-297h-266z" />
<glyph unicode="&#x202f;" horiz-adv-x="366" />
<glyph unicode="&#x2039;" horiz-adv-x="479" d="M47 547l158 233h215l-156 -233l156 -234h-215z" />
<glyph unicode="&#x203a;" horiz-adv-x="479" d="M47 313l156 234l-156 233h215l158 -233l-158 -234h-215z" />
<glyph unicode="&#x205f;" horiz-adv-x="458" />
<glyph unicode="&#x2122;" horiz-adv-x="1452" d="M18 1212v156h549v-156h-168v-624h-213v624h-168zM623 588v780h307l67 -412l70 412h303v-780h-188l8 518l-103 -518h-184l-102 518l8 -518h-186z" />
<glyph unicode="&#x25fc;" horiz-adv-x="1034" d="M0 0v1034h1034v-1034h-1034z" />
<glyph unicode="&#xfb01;" horiz-adv-x="1013" d="M12 834v204h125v82q0 140 52 193t190 53h180v-211h-41q-41 0 -54 -15.5t-13 -64.5v-37h108v-204h-108v-834h-314v834h-125zM614 0v1038h314v-1038h-314zM614 1135v231h314v-231h-314z" />
<glyph unicode="&#xfb02;" horiz-adv-x="1013" d="M12 834v204h125v82q0 140 52 193t190 53h180v-211h-41q-41 0 -54 -15.5t-13 -64.5v-37h108v-204h-108v-834h-314v834h-125zM614 0v1366h314v-1366h-314z" />
</font>
</defs>
</svg>
